G75*
%MOIN*%
%OFA0B0*%
%FSLAX25Y25*%
%IPPOS*%
%LPD*%
%AMOC8*
5,1,8,0,0,1.08239X$1,22.5*
%
%ADD10R,0.03543X0.02756*%
%ADD11R,0.03937X0.05512*%
%ADD12OC8,0.06000*%
%ADD13C,0.04750*%
%ADD14C,0.09449*%
%ADD15C,0.17000*%
%ADD16C,0.14764*%
%ADD17C,0.17717*%
%ADD18C,0.06600*%
%ADD19C,0.05906*%
%ADD20R,0.02953X0.05512*%
%ADD21R,0.06299X0.11811*%
%ADD22R,0.22835X0.24409*%
%ADD23R,0.06299X0.05512*%
%ADD24R,0.05512X0.11811*%
%ADD25R,0.02756X0.03543*%
%ADD26R,0.02200X0.04700*%
%ADD27R,0.04700X0.02200*%
%ADD28R,0.05118X0.04134*%
%ADD29R,0.05512X0.05512*%
%ADD30R,0.22000X0.09000*%
%ADD31C,0.03346*%
%ADD32R,0.04724X0.02165*%
%ADD33C,0.00583*%
%ADD34R,0.02913X0.11024*%
%ADD35C,0.01181*%
%ADD36C,0.07400*%
%ADD37R,0.02756X0.01772*%
%ADD38R,0.05512X0.06299*%
%ADD39R,0.02362X0.04331*%
%ADD40R,0.07098X0.06299*%
%ADD41R,0.03268X0.02480*%
%ADD42C,0.03937*%
%ADD43R,0.05000X0.08268*%
%ADD44R,0.06890X0.01575*%
%ADD45R,0.09843X0.05610*%
%ADD46C,0.01000*%
%ADD47C,0.02600*%
%ADD48C,0.01200*%
%ADD49C,0.02400*%
%ADD50C,0.04356*%
%ADD51C,0.03962*%
%ADD52C,0.03200*%
%ADD53C,0.02500*%
%ADD54C,0.00800*%
%ADD55C,0.05000*%
%ADD56C,0.01600*%
D10*
X0140000Y0119691D03*
X0140000Y0124809D03*
X0163000Y0124691D03*
X0163000Y0129809D03*
X0252000Y0170691D03*
X0252000Y0175809D03*
X0181000Y0236066D03*
X0181000Y0241184D03*
X0180000Y0249691D03*
X0180000Y0254809D03*
X0082116Y0241711D03*
X0082116Y0236593D03*
X0060000Y0236691D03*
X0060000Y0241809D03*
D11*
X0121260Y0161581D03*
X0128740Y0161581D03*
X0125000Y0152919D03*
X0135260Y0152919D03*
X0142740Y0152919D03*
X0139000Y0161581D03*
X0127000Y0129581D03*
X0123260Y0120919D03*
X0116740Y0120919D03*
X0109260Y0120919D03*
X0113000Y0129581D03*
X0130740Y0120919D03*
D12*
X0139000Y0200250D03*
X0149000Y0200250D03*
X0149000Y0210250D03*
X0139000Y0210250D03*
X0159000Y0210250D03*
X0159000Y0200250D03*
D13*
X0246571Y0157797D03*
X0246571Y0138703D03*
X0190016Y0059234D03*
X0181000Y0059234D03*
X0172969Y0040258D03*
X0164976Y0040258D03*
X0156984Y0040258D03*
X0148992Y0040258D03*
X0153008Y0033250D03*
X0161000Y0033250D03*
X0168992Y0033250D03*
X0176984Y0033250D03*
X0145016Y0059234D03*
X0136000Y0059234D03*
X0128008Y0059234D03*
X0118992Y0059234D03*
X0121000Y0075250D03*
X0119000Y0085250D03*
X0126000Y0085250D03*
X0083008Y0059234D03*
X0073992Y0059234D03*
X0086984Y0040258D03*
X0094976Y0040258D03*
X0102969Y0040258D03*
X0110961Y0040258D03*
X0106984Y0033250D03*
X0098992Y0033250D03*
X0091000Y0033250D03*
X0114976Y0033250D03*
D14*
X0069012Y0036754D03*
X0194996Y0036754D03*
D15*
X0035375Y0031571D03*
D16*
X0053879Y0043579D03*
D17*
X0035375Y0055390D03*
D18*
X0260000Y0057450D02*
X0260000Y0064050D01*
X0260000Y0092450D02*
X0260000Y0099050D01*
X0260000Y0029050D02*
X0260000Y0022450D01*
D19*
X0240709Y0018467D03*
X0232835Y0025750D03*
X0240709Y0033033D03*
X0240709Y0053467D03*
X0232835Y0060750D03*
X0240709Y0068033D03*
X0240709Y0088467D03*
X0232835Y0095750D03*
X0240709Y0103033D03*
X0258500Y0137522D03*
X0258500Y0158978D03*
D20*
X0040500Y0096667D03*
X0035500Y0096667D03*
X0030500Y0096667D03*
X0025500Y0096667D03*
X0025500Y0073833D03*
X0030500Y0073833D03*
X0035500Y0073833D03*
X0040500Y0073833D03*
D21*
X0112004Y0073967D03*
X0129996Y0073967D03*
D22*
X0121000Y0102234D03*
D23*
X0143000Y0082387D03*
X0143000Y0071363D03*
X0148000Y0239738D03*
X0148000Y0250762D03*
D24*
X0066000Y0092699D03*
X0066000Y0073801D03*
D25*
X0070441Y0105250D03*
X0075559Y0105250D03*
X0133566Y0138000D03*
X0138684Y0138000D03*
X0131559Y0175250D03*
X0131559Y0180250D03*
X0131559Y0185250D03*
X0131559Y0190250D03*
X0126441Y0190250D03*
X0126441Y0185250D03*
X0126441Y0180250D03*
X0126441Y0175250D03*
D26*
X0110622Y0164541D03*
X0107472Y0164541D03*
X0104323Y0164541D03*
X0101173Y0164541D03*
X0098024Y0164541D03*
X0094874Y0164541D03*
X0091724Y0164541D03*
X0088575Y0164541D03*
X0085425Y0164541D03*
X0082276Y0164541D03*
X0079126Y0164541D03*
X0075976Y0164541D03*
X0072827Y0164541D03*
X0069677Y0164541D03*
X0066528Y0164541D03*
X0063378Y0164541D03*
X0063378Y0225959D03*
X0066528Y0225959D03*
X0069677Y0225959D03*
X0072827Y0225959D03*
X0075976Y0225959D03*
X0079126Y0225959D03*
X0082276Y0225959D03*
X0085425Y0225959D03*
X0088575Y0225959D03*
X0091724Y0225959D03*
X0094874Y0225959D03*
X0098024Y0225959D03*
X0101173Y0225959D03*
X0104323Y0225959D03*
X0107472Y0225959D03*
X0110622Y0225959D03*
D27*
X0117709Y0218872D03*
X0117709Y0215722D03*
X0117709Y0212573D03*
X0117709Y0209423D03*
X0117709Y0206274D03*
X0117709Y0203124D03*
X0117709Y0199974D03*
X0117709Y0196825D03*
X0117709Y0193675D03*
X0117709Y0190526D03*
X0117709Y0187376D03*
X0117709Y0184226D03*
X0117709Y0181077D03*
X0117709Y0177927D03*
X0117709Y0174778D03*
X0117709Y0171628D03*
X0056291Y0171628D03*
X0056291Y0174778D03*
X0056291Y0177927D03*
X0056291Y0181077D03*
X0056291Y0184226D03*
X0056291Y0187376D03*
X0056291Y0190526D03*
X0056291Y0193675D03*
X0056291Y0196825D03*
X0056291Y0199974D03*
X0056291Y0203124D03*
X0056291Y0206274D03*
X0056291Y0209423D03*
X0056291Y0212573D03*
X0056291Y0215722D03*
X0056291Y0218872D03*
D28*
X0066472Y0235608D03*
X0066472Y0242892D03*
X0075528Y0242892D03*
X0075528Y0235608D03*
D29*
X0085520Y0115250D03*
X0100480Y0115250D03*
X0058480Y0111250D03*
X0043520Y0111250D03*
D30*
X0092875Y0101500D03*
X0092875Y0072500D03*
D31*
X0216676Y0185388D02*
X0216676Y0193852D01*
X0221597Y0193852D02*
X0221597Y0185388D01*
X0226518Y0185388D02*
X0226518Y0193852D01*
X0231439Y0193852D02*
X0231439Y0185388D01*
X0236361Y0185388D02*
X0236361Y0193852D01*
X0241282Y0193852D02*
X0241282Y0185388D01*
X0246203Y0185388D02*
X0246203Y0193852D01*
X0251124Y0193852D02*
X0251124Y0185388D01*
X0253388Y0198281D02*
X0261852Y0198281D01*
X0261852Y0203203D02*
X0253388Y0203203D01*
X0253388Y0208124D02*
X0261852Y0208124D01*
X0261852Y0213045D02*
X0253388Y0213045D01*
X0253388Y0217967D02*
X0261852Y0217967D01*
X0261852Y0222888D02*
X0253388Y0222888D01*
X0253388Y0227809D02*
X0261852Y0227809D01*
X0261852Y0232730D02*
X0253388Y0232730D01*
X0253388Y0237652D02*
X0261852Y0237652D01*
X0214412Y0237652D02*
X0205948Y0237652D01*
X0205948Y0232730D02*
X0214412Y0232730D01*
X0214412Y0227809D02*
X0205948Y0227809D01*
X0205948Y0222888D02*
X0214412Y0222888D01*
X0214412Y0217967D02*
X0205948Y0217967D01*
X0205948Y0213045D02*
X0214412Y0213045D01*
X0214412Y0208124D02*
X0205948Y0208124D01*
X0205948Y0203203D02*
X0214412Y0203203D01*
X0214412Y0198281D02*
X0205948Y0198281D01*
X0205948Y0242573D02*
X0214412Y0242573D01*
X0214412Y0247494D02*
X0205948Y0247494D01*
X0205948Y0252415D02*
X0214412Y0252415D01*
X0214412Y0257337D02*
X0205948Y0257337D01*
D32*
X0168119Y0245990D03*
X0168119Y0238510D03*
X0157881Y0238510D03*
X0157881Y0242250D03*
X0157881Y0245990D03*
D33*
X0227835Y0178463D02*
X0227835Y0168021D01*
X0227835Y0178463D02*
X0230165Y0178463D01*
X0230165Y0168021D01*
X0227835Y0168021D01*
X0227835Y0168603D02*
X0230165Y0168603D01*
X0230165Y0169185D02*
X0227835Y0169185D01*
X0227835Y0169767D02*
X0230165Y0169767D01*
X0230165Y0170349D02*
X0227835Y0170349D01*
X0227835Y0170931D02*
X0230165Y0170931D01*
X0230165Y0171513D02*
X0227835Y0171513D01*
X0227835Y0172095D02*
X0230165Y0172095D01*
X0230165Y0172677D02*
X0227835Y0172677D01*
X0227835Y0173259D02*
X0230165Y0173259D01*
X0230165Y0173841D02*
X0227835Y0173841D01*
X0227835Y0174423D02*
X0230165Y0174423D01*
X0230165Y0175005D02*
X0227835Y0175005D01*
X0227835Y0175587D02*
X0230165Y0175587D01*
X0230165Y0176169D02*
X0227835Y0176169D01*
X0227835Y0176751D02*
X0230165Y0176751D01*
X0230165Y0177333D02*
X0227835Y0177333D01*
X0227835Y0177915D02*
X0230165Y0177915D01*
D34*
X0224000Y0173242D03*
X0219000Y0173242D03*
X0214000Y0173242D03*
X0209000Y0173242D03*
X0209000Y0157258D03*
X0214000Y0157258D03*
X0219000Y0157258D03*
X0224000Y0157258D03*
X0229000Y0157258D03*
D35*
X0218075Y0019628D02*
X0218075Y0016872D01*
X0218075Y0019628D02*
X0220831Y0019628D01*
X0220831Y0016872D01*
X0218075Y0016872D01*
X0218075Y0018052D02*
X0220831Y0018052D01*
X0220831Y0019232D02*
X0218075Y0019232D01*
X0211169Y0019628D02*
X0211169Y0016872D01*
X0211169Y0019628D02*
X0213925Y0019628D01*
X0213925Y0016872D01*
X0211169Y0016872D01*
X0211169Y0018052D02*
X0213925Y0018052D01*
X0213925Y0019232D02*
X0211169Y0019232D01*
D36*
X0191000Y0113250D03*
X0191000Y0123250D03*
X0191000Y0133250D03*
X0191000Y0143250D03*
X0191000Y0153250D03*
X0191000Y0163250D03*
X0191000Y0173250D03*
X0191000Y0183250D03*
X0191000Y0193250D03*
X0191000Y0203250D03*
X0191000Y0213250D03*
X0191000Y0223250D03*
X0026000Y0223250D03*
X0026000Y0213250D03*
X0026000Y0203250D03*
X0026000Y0193250D03*
X0026000Y0183250D03*
X0026000Y0173250D03*
X0026000Y0163250D03*
X0026000Y0153250D03*
X0026000Y0143250D03*
X0026000Y0133250D03*
X0026000Y0123250D03*
X0026000Y0113250D03*
D37*
X0218276Y0129510D03*
X0218276Y0133250D03*
X0218276Y0136990D03*
X0227724Y0136990D03*
X0227724Y0133250D03*
X0227724Y0129510D03*
X0229724Y0108990D03*
X0229724Y0105250D03*
X0229724Y0101510D03*
X0220276Y0101510D03*
X0220276Y0105250D03*
X0220276Y0108990D03*
D38*
X0219488Y0120250D03*
X0230512Y0120250D03*
D39*
X0014740Y0137935D03*
X0011000Y0137935D03*
X0007260Y0137935D03*
X0007260Y0148565D03*
X0011000Y0148565D03*
X0014740Y0148565D03*
D40*
X0011000Y0113848D03*
X0011000Y0102652D03*
D41*
X0153000Y0148722D03*
X0153000Y0157778D03*
D42*
X0231000Y0078250D03*
X0011000Y0253250D03*
D43*
X0208185Y0048250D03*
X0223815Y0048250D03*
X0223815Y0033250D03*
X0208185Y0033250D03*
D44*
X0246571Y0143132D03*
X0246571Y0145691D03*
X0246571Y0148250D03*
X0246571Y0150809D03*
X0246571Y0153368D03*
D45*
X0259484Y0152039D03*
X0259484Y0144461D03*
D46*
X0262631Y0139881D02*
X0262631Y0135063D01*
X0253085Y0135063D01*
X0253085Y0133096D01*
X0250629Y0133096D01*
X0250629Y0139881D01*
X0262631Y0139881D01*
X0262631Y0139062D02*
X0250629Y0139062D01*
X0250629Y0138064D02*
X0262631Y0138064D01*
X0262631Y0137065D02*
X0250629Y0137065D01*
X0250629Y0136067D02*
X0262631Y0136067D01*
X0262631Y0135068D02*
X0250629Y0135068D01*
X0250629Y0134070D02*
X0253085Y0134070D01*
X0249000Y0134070D02*
X0244400Y0134070D01*
X0244400Y0133350D02*
X0244400Y0140250D01*
X0249000Y0140250D01*
X0249000Y0133350D01*
X0244400Y0133350D01*
X0244400Y0135068D02*
X0249000Y0135068D01*
X0249000Y0136067D02*
X0244400Y0136067D01*
X0244400Y0137065D02*
X0249000Y0137065D01*
X0249000Y0138064D02*
X0244400Y0138064D01*
X0244400Y0139062D02*
X0249000Y0139062D01*
X0249000Y0140061D02*
X0244400Y0140061D01*
X0244400Y0156150D02*
X0249000Y0156150D01*
X0249000Y0163150D01*
X0244400Y0163150D01*
X0244400Y0156150D01*
X0244400Y0157036D02*
X0249000Y0157036D01*
X0249000Y0158034D02*
X0244400Y0158034D01*
X0244400Y0159033D02*
X0249000Y0159033D01*
X0249000Y0160031D02*
X0244400Y0160031D01*
X0244400Y0161030D02*
X0249000Y0161030D01*
X0249000Y0162028D02*
X0244400Y0162028D01*
X0244400Y0163027D02*
X0249000Y0163027D01*
X0250729Y0163027D02*
X0252885Y0163027D01*
X0252885Y0163304D02*
X0252885Y0161237D01*
X0262631Y0161237D01*
X0262631Y0156619D01*
X0250729Y0156619D01*
X0250729Y0163304D01*
X0252885Y0163304D01*
X0252885Y0162028D02*
X0250729Y0162028D01*
X0250729Y0161030D02*
X0262631Y0161030D01*
X0262631Y0160031D02*
X0250729Y0160031D01*
X0250729Y0159033D02*
X0262631Y0159033D01*
X0262631Y0158034D02*
X0250729Y0158034D01*
X0250729Y0157036D02*
X0262631Y0157036D01*
X0251441Y0175250D02*
X0243000Y0175250D01*
X0237000Y0169250D01*
X0234000Y0169250D01*
X0229000Y0164250D01*
X0229000Y0157258D01*
X0214000Y0173242D02*
X0214000Y0180250D01*
X0212000Y0182250D01*
X0212000Y0184250D01*
X0198000Y0184250D02*
X0198000Y0221250D01*
X0198000Y0234250D01*
X0196000Y0236250D01*
X0186000Y0236250D01*
X0181000Y0236066D01*
X0182197Y0247494D02*
X0180000Y0249691D01*
X0126165Y0190526D02*
X0117709Y0190526D01*
X0126165Y0190526D02*
X0126441Y0190250D01*
X0117709Y0171628D02*
X0117709Y0134459D01*
X0117000Y0133750D01*
X0105000Y0121250D02*
X0105000Y0158250D01*
X0104323Y0164541D02*
X0104323Y0167927D01*
X0102000Y0170250D01*
X0105000Y0174250D02*
X0105000Y0219250D01*
X0107472Y0221722D01*
X0107472Y0225959D01*
X0088575Y0225959D02*
X0088000Y0226533D01*
X0088000Y0231250D01*
X0087000Y0232250D01*
X0071000Y0232250D01*
X0067831Y0234250D01*
X0066472Y0235608D01*
X0058000Y0134250D02*
X0058000Y0120250D01*
X0043520Y0110770D02*
X0039000Y0106250D01*
X0025500Y0103250D02*
X0025500Y0096667D01*
X0079000Y0099250D02*
X0079000Y0041250D01*
X0086984Y0040258D02*
X0087000Y0040242D01*
X0087000Y0028250D01*
X0103000Y0020750D02*
X0103000Y0040226D01*
X0102969Y0040258D01*
X0114976Y0033250D02*
X0114976Y0024274D01*
X0115000Y0023250D01*
X0115000Y0033226D01*
X0114976Y0033250D01*
X0148992Y0026258D02*
X0149000Y0026250D01*
X0148992Y0026258D02*
X0148992Y0040258D01*
X0164976Y0040258D02*
X0164976Y0020274D01*
X0165000Y0020250D01*
X0176984Y0023266D02*
X0177000Y0023250D01*
X0176984Y0023266D02*
X0176984Y0033250D01*
X0207000Y0021250D02*
X0210000Y0018250D01*
X0212547Y0018250D01*
X0213185Y0031250D02*
X0213185Y0032065D01*
X0212000Y0033250D01*
X0208185Y0033250D01*
X0224000Y0033250D02*
X0229000Y0038250D01*
X0230783Y0033033D02*
X0240709Y0033033D01*
X0240709Y0018467D01*
X0240709Y0053467D02*
X0240709Y0068033D01*
X0250441Y0175809D02*
X0247000Y0179250D01*
X0247000Y0189423D01*
X0093000Y0113250D02*
X0095000Y0109250D01*
X0093000Y0113250D02*
X0093000Y0121250D01*
X0091000Y0119250D02*
X0089000Y0121250D01*
X0089000Y0134250D01*
X0091000Y0119250D02*
X0091000Y0109250D01*
X0089000Y0093250D02*
X0089000Y0081250D01*
D47*
X0089000Y0081250D03*
X0089000Y0093250D03*
X0079000Y0099250D03*
X0091000Y0109250D03*
X0095000Y0109250D03*
X0099000Y0109250D03*
X0098000Y0121250D03*
X0093000Y0121250D03*
X0105000Y0121250D03*
X0118000Y0130250D03*
X0117000Y0133750D03*
X0120000Y0125250D03*
X0127000Y0116750D03*
X0135000Y0113250D03*
X0149000Y0111250D03*
X0144000Y0125250D03*
X0133000Y0132250D03*
X0129000Y0139250D03*
X0125000Y0142250D03*
X0134000Y0142250D03*
X0143000Y0142250D03*
X0143000Y0138250D03*
X0153000Y0138250D03*
X0153000Y0142250D03*
X0161000Y0138250D03*
X0170000Y0128250D03*
X0175000Y0125250D03*
X0184000Y0132250D03*
X0181000Y0141250D03*
X0183000Y0152250D03*
X0169000Y0161250D03*
X0162000Y0175250D03*
X0170000Y0179250D03*
X0183000Y0189250D03*
X0198000Y0184250D03*
X0201000Y0181250D03*
X0212000Y0184250D03*
X0224000Y0181250D03*
X0235000Y0173250D03*
X0235000Y0165250D03*
X0235000Y0154250D03*
X0239000Y0153250D03*
X0232000Y0150250D03*
X0237000Y0139250D03*
X0233000Y0137250D03*
X0233000Y0133250D03*
X0236000Y0131250D03*
X0239000Y0124750D03*
X0225500Y0120250D03*
X0215000Y0127250D03*
X0223000Y0135250D03*
X0205000Y0136250D03*
X0201000Y0141250D03*
X0205000Y0144250D03*
X0204000Y0165250D03*
X0224000Y0165250D03*
X0252000Y0181250D03*
X0261000Y0193250D03*
X0249000Y0201250D03*
X0242000Y0198250D03*
X0237000Y0198250D03*
X0227000Y0211250D03*
X0219000Y0211250D03*
X0218000Y0216250D03*
X0224000Y0225250D03*
X0233000Y0237250D03*
X0233000Y0242250D03*
X0233000Y0248250D03*
X0233000Y0253250D03*
X0233000Y0258250D03*
X0221000Y0257250D03*
X0221000Y0253250D03*
X0227000Y0247250D03*
X0225000Y0244250D03*
X0224000Y0240750D03*
X0221000Y0239250D03*
X0238000Y0237250D03*
X0243000Y0237250D03*
X0248000Y0237250D03*
X0249000Y0233250D03*
X0249000Y0229250D03*
X0249000Y0225250D03*
X0239000Y0229250D03*
X0246000Y0216250D03*
X0249000Y0211250D03*
X0224000Y0201250D03*
X0221000Y0198250D03*
X0198000Y0221250D03*
X0186000Y0236250D03*
X0175000Y0231250D03*
X0167000Y0225250D03*
X0163000Y0217250D03*
X0170000Y0210250D03*
X0175000Y0217250D03*
X0157000Y0230250D03*
X0147000Y0232250D03*
X0142000Y0224250D03*
X0140000Y0217250D03*
X0131000Y0217250D03*
X0128000Y0227250D03*
X0118000Y0227250D03*
X0109000Y0234250D03*
X0101000Y0231250D03*
X0094000Y0231250D03*
X0087000Y0237250D03*
X0093000Y0245250D03*
X0087000Y0249250D03*
X0075000Y0249250D03*
X0063000Y0249250D03*
X0049000Y0252250D03*
X0063000Y0231250D03*
X0073000Y0220250D03*
X0081000Y0220750D03*
X0072000Y0212250D03*
X0061500Y0215250D03*
X0061500Y0219250D03*
X0051000Y0209250D03*
X0047000Y0206250D03*
X0051000Y0203250D03*
X0047000Y0199250D03*
X0052000Y0190250D03*
X0052000Y0184250D03*
X0062000Y0187250D03*
X0062000Y0193250D03*
X0075000Y0190250D03*
X0080000Y0196250D03*
X0095000Y0207250D03*
X0095000Y0212250D03*
X0095000Y0220250D03*
X0108000Y0217250D03*
X0112500Y0207250D03*
X0122976Y0206274D03*
X0123000Y0197250D03*
X0125000Y0194250D03*
X0135000Y0189250D03*
X0139000Y0189250D03*
X0147000Y0186250D03*
X0149000Y0179250D03*
X0150000Y0175250D03*
X0139000Y0179250D03*
X0143000Y0162250D03*
X0152000Y0161250D03*
X0156000Y0191750D03*
X0121000Y0167250D03*
X0112000Y0170250D03*
X0109000Y0174250D03*
X0108000Y0170250D03*
X0105000Y0174250D03*
X0102000Y0170250D03*
X0095000Y0180250D03*
X0098000Y0184250D03*
X0110622Y0182628D03*
X0112000Y0177250D03*
X0112500Y0189250D03*
X0098000Y0199250D03*
X0082000Y0175250D03*
X0081000Y0169750D03*
X0076000Y0169750D03*
X0076000Y0159250D03*
X0069000Y0159250D03*
X0061000Y0159250D03*
X0052000Y0153250D03*
X0055000Y0149250D03*
X0049000Y0158250D03*
X0042000Y0158250D03*
X0033000Y0166250D03*
X0017000Y0155250D03*
X0009000Y0159250D03*
X0009000Y0168250D03*
X0011000Y0143250D03*
X0010000Y0132250D03*
X0017000Y0105250D03*
X0025500Y0103250D03*
X0039000Y0106250D03*
X0041000Y0091250D03*
X0069000Y0065250D03*
X0069000Y0051250D03*
X0079000Y0041250D03*
X0087000Y0028250D03*
X0091000Y0017250D03*
X0103000Y0020750D03*
X0115000Y0023250D03*
X0149000Y0026250D03*
X0153008Y0017258D03*
X0165000Y0020250D03*
X0177000Y0023250D03*
X0185000Y0035250D03*
X0168000Y0052250D03*
X0165000Y0060691D03*
X0185000Y0066250D03*
X0185000Y0077250D03*
X0167000Y0090250D03*
X0165000Y0087250D03*
X0167000Y0098250D03*
X0181000Y0107250D03*
X0184000Y0109250D03*
X0200000Y0101250D03*
X0215000Y0101250D03*
X0220000Y0098250D03*
X0224500Y0102250D03*
X0225000Y0107250D03*
X0217000Y0107250D03*
X0225000Y0084250D03*
X0222000Y0082250D03*
X0219000Y0079250D03*
X0219000Y0067250D03*
X0213000Y0067250D03*
X0225000Y0063250D03*
X0231000Y0047250D03*
X0229000Y0038250D03*
X0230783Y0033033D03*
X0224000Y0041250D03*
X0213185Y0031250D03*
X0217000Y0022250D03*
X0227000Y0022750D03*
X0207000Y0021250D03*
X0203000Y0030250D03*
X0203000Y0035250D03*
X0145000Y0089250D03*
X0163000Y0116250D03*
X0105000Y0158250D03*
X0093000Y0156250D03*
X0090000Y0154250D03*
X0087000Y0159250D03*
X0084000Y0152250D03*
X0078000Y0148250D03*
X0075000Y0145250D03*
X0071000Y0141250D03*
X0058000Y0134250D03*
X0052000Y0131250D03*
X0055000Y0125250D03*
X0058000Y0120250D03*
X0069000Y0119250D03*
X0079000Y0125250D03*
X0089000Y0134250D03*
X0094000Y0142250D03*
X0090000Y0144250D03*
X0101000Y0136250D03*
X0087000Y0169750D03*
X0070000Y0180250D03*
X0062000Y0177250D03*
X0064000Y0169750D03*
X0052000Y0169250D03*
X0049000Y0173250D03*
X0039000Y0183250D03*
X0039000Y0190250D03*
X0033000Y0193250D03*
X0036000Y0199250D03*
X0033000Y0203250D03*
X0047000Y0213250D03*
X0042000Y0223250D03*
X0109000Y0249250D03*
X0123000Y0239250D03*
X0128000Y0244250D03*
X0131000Y0247250D03*
X0138000Y0256250D03*
X0141000Y0241250D03*
X0138000Y0235250D03*
X0160000Y0251250D03*
X0163000Y0245250D03*
X0261000Y0167250D03*
X0252500Y0149250D03*
X0252500Y0145250D03*
X0101000Y0055250D03*
X0074000Y0079250D03*
X0052000Y0137750D03*
D48*
X0026000Y0123250D02*
X0021000Y0127250D01*
X0021000Y0147250D01*
X0019685Y0148565D01*
X0014740Y0148565D01*
X0011000Y0143250D02*
X0011000Y0137935D01*
X0014740Y0137935D02*
X0014740Y0132990D01*
X0011000Y0129250D01*
X0006500Y0129250D01*
X0005500Y0127750D01*
X0005500Y0102750D01*
X0011000Y0102652D01*
X0007260Y0148565D02*
X0007000Y0148825D01*
X0007000Y0153250D01*
X0009000Y0155250D01*
X0017000Y0155250D01*
X0072827Y0164541D02*
X0072827Y0171077D01*
X0075000Y0173250D01*
X0075000Y0190250D01*
X0098000Y0199250D02*
X0098024Y0219274D01*
X0098024Y0225959D01*
X0094874Y0227250D02*
X0094874Y0227250D01*
X0094874Y0229909D01*
X0093563Y0229909D01*
X0093156Y0229800D01*
X0092792Y0229589D01*
X0092711Y0229509D01*
X0092600Y0229509D01*
X0092600Y0239913D01*
X0091663Y0240850D01*
X0089663Y0242850D01*
X0085088Y0242850D01*
X0085088Y0243586D01*
X0084385Y0244289D01*
X0079847Y0244289D01*
X0079536Y0243977D01*
X0079287Y0244226D01*
X0079287Y0245456D01*
X0078584Y0246159D01*
X0072471Y0246159D01*
X0071769Y0245456D01*
X0071769Y0240328D01*
X0072471Y0239625D01*
X0078584Y0239625D01*
X0079144Y0240186D01*
X0079144Y0239836D01*
X0079595Y0239385D01*
X0079362Y0239251D01*
X0079068Y0238956D01*
X0078704Y0239166D01*
X0078297Y0239275D01*
X0075961Y0239275D01*
X0075961Y0236042D01*
X0075094Y0236042D01*
X0075094Y0239275D01*
X0072758Y0239275D01*
X0072351Y0239166D01*
X0071986Y0238955D01*
X0071688Y0238658D01*
X0071478Y0238293D01*
X0071369Y0237886D01*
X0071369Y0236042D01*
X0075094Y0236042D01*
X0075094Y0235175D01*
X0071369Y0235175D01*
X0071369Y0234028D01*
X0070231Y0234745D01*
X0070231Y0238172D01*
X0069529Y0238875D01*
X0063416Y0238875D01*
X0062972Y0238430D01*
X0062972Y0238566D01*
X0062521Y0239016D01*
X0062754Y0239151D01*
X0063052Y0239449D01*
X0063063Y0239468D01*
X0063296Y0239334D01*
X0063703Y0239225D01*
X0066039Y0239225D01*
X0066039Y0242458D01*
X0066906Y0242458D01*
X0066906Y0239225D01*
X0069242Y0239225D01*
X0069649Y0239334D01*
X0070014Y0239544D01*
X0070312Y0239842D01*
X0070522Y0240207D01*
X0070631Y0240614D01*
X0070631Y0242458D01*
X0066906Y0242458D01*
X0066906Y0243325D01*
X0070631Y0243325D01*
X0070631Y0245169D01*
X0070522Y0245576D01*
X0070312Y0245941D01*
X0070014Y0246239D01*
X0069649Y0246450D01*
X0069242Y0246559D01*
X0066906Y0246559D01*
X0066906Y0243325D01*
X0066039Y0243325D01*
X0066039Y0246559D01*
X0063703Y0246559D01*
X0063296Y0246450D01*
X0062931Y0246239D01*
X0062633Y0245941D01*
X0062422Y0245576D01*
X0062313Y0245169D01*
X0062313Y0244698D01*
X0061982Y0244787D01*
X0060089Y0244787D01*
X0060089Y0241898D01*
X0059911Y0241898D01*
X0059911Y0241720D01*
X0056628Y0241720D01*
X0056628Y0240220D01*
X0056737Y0239814D01*
X0056948Y0239449D01*
X0057246Y0239151D01*
X0057479Y0239016D01*
X0057028Y0238566D01*
X0057028Y0234816D01*
X0057731Y0234113D01*
X0062269Y0234113D01*
X0062713Y0234558D01*
X0062713Y0233044D01*
X0063416Y0232341D01*
X0067670Y0232341D01*
X0069932Y0230914D01*
X0070296Y0230550D01*
X0070508Y0230550D01*
X0070688Y0230437D01*
X0071190Y0230550D01*
X0086296Y0230550D01*
X0086300Y0230546D01*
X0086300Y0229509D01*
X0061781Y0229509D01*
X0061522Y0229250D01*
X0055000Y0229250D01*
X0055000Y0251250D01*
X0096000Y0251250D01*
X0096000Y0229909D01*
X0094874Y0229909D01*
X0094874Y0227250D01*
X0094874Y0227784D02*
X0094874Y0227784D01*
X0094874Y0228982D02*
X0094874Y0228982D01*
X0096000Y0230181D02*
X0092600Y0230181D01*
X0092600Y0231379D02*
X0096000Y0231379D01*
X0096000Y0232578D02*
X0092600Y0232578D01*
X0092600Y0233776D02*
X0096000Y0233776D01*
X0096000Y0234975D02*
X0092600Y0234975D01*
X0092600Y0236173D02*
X0096000Y0236173D01*
X0096000Y0237372D02*
X0092600Y0237372D01*
X0092600Y0238570D02*
X0096000Y0238570D01*
X0096000Y0239769D02*
X0092600Y0239769D01*
X0091546Y0240967D02*
X0096000Y0240967D01*
X0096000Y0242166D02*
X0090347Y0242166D01*
X0088337Y0239650D02*
X0089400Y0238587D01*
X0089400Y0232254D01*
X0088700Y0232954D01*
X0087704Y0233950D01*
X0084886Y0233950D01*
X0085168Y0234232D01*
X0085379Y0234597D01*
X0085488Y0235004D01*
X0085488Y0236504D01*
X0082205Y0236504D01*
X0082205Y0236682D01*
X0085488Y0236682D01*
X0085488Y0238181D01*
X0085379Y0238588D01*
X0085168Y0238953D01*
X0084870Y0239251D01*
X0084637Y0239385D01*
X0084902Y0239650D01*
X0088337Y0239650D01*
X0089400Y0238570D02*
X0085384Y0238570D01*
X0085488Y0237372D02*
X0089400Y0237372D01*
X0089400Y0236173D02*
X0085488Y0236173D01*
X0085480Y0234975D02*
X0089400Y0234975D01*
X0089400Y0233776D02*
X0087878Y0233776D01*
X0089077Y0232578D02*
X0089400Y0232578D01*
X0086300Y0230181D02*
X0055000Y0230181D01*
X0055000Y0231379D02*
X0069195Y0231379D01*
X0070231Y0234975D02*
X0071369Y0234975D01*
X0071369Y0236173D02*
X0070231Y0236173D01*
X0070231Y0237372D02*
X0071369Y0237372D01*
X0071638Y0238570D02*
X0069834Y0238570D01*
X0070238Y0239769D02*
X0072328Y0239769D01*
X0071769Y0240967D02*
X0070631Y0240967D01*
X0070631Y0242166D02*
X0071769Y0242166D01*
X0071769Y0243364D02*
X0070631Y0243364D01*
X0070631Y0244563D02*
X0071769Y0244563D01*
X0072074Y0245761D02*
X0070416Y0245761D01*
X0066906Y0245761D02*
X0066039Y0245761D01*
X0066039Y0244563D02*
X0066906Y0244563D01*
X0066906Y0243364D02*
X0066039Y0243364D01*
X0066039Y0242166D02*
X0066906Y0242166D01*
X0066906Y0240967D02*
X0066039Y0240967D01*
X0066039Y0239769D02*
X0066906Y0239769D01*
X0063111Y0238570D02*
X0062967Y0238570D01*
X0059911Y0241898D02*
X0056628Y0241898D01*
X0056628Y0243398D01*
X0056737Y0243805D01*
X0056948Y0244169D01*
X0057246Y0244467D01*
X0057611Y0244678D01*
X0058018Y0244787D01*
X0059911Y0244787D01*
X0059911Y0241898D01*
X0059911Y0242166D02*
X0060089Y0242166D01*
X0060089Y0243364D02*
X0059911Y0243364D01*
X0059911Y0244563D02*
X0060089Y0244563D01*
X0057411Y0244563D02*
X0055000Y0244563D01*
X0055000Y0245761D02*
X0062529Y0245761D01*
X0056628Y0243364D02*
X0055000Y0243364D01*
X0055000Y0242166D02*
X0056628Y0242166D01*
X0056628Y0240967D02*
X0055000Y0240967D01*
X0055000Y0239769D02*
X0056763Y0239769D01*
X0057033Y0238570D02*
X0055000Y0238570D01*
X0055000Y0237372D02*
X0057028Y0237372D01*
X0057028Y0236173D02*
X0055000Y0236173D01*
X0055000Y0234975D02*
X0057028Y0234975D01*
X0055000Y0233776D02*
X0062713Y0233776D01*
X0063180Y0232578D02*
X0055000Y0232578D01*
X0055000Y0246960D02*
X0096000Y0246960D01*
X0096000Y0248158D02*
X0055000Y0248158D01*
X0055000Y0249357D02*
X0096000Y0249357D01*
X0096000Y0250555D02*
X0055000Y0250555D01*
X0075094Y0238570D02*
X0075961Y0238570D01*
X0075961Y0237372D02*
X0075094Y0237372D01*
X0075094Y0236173D02*
X0075961Y0236173D01*
X0078727Y0239769D02*
X0079212Y0239769D01*
X0079287Y0244563D02*
X0096000Y0244563D01*
X0096000Y0245761D02*
X0078981Y0245761D01*
X0085088Y0243364D02*
X0096000Y0243364D01*
X0141000Y0241250D02*
X0142512Y0239738D01*
X0148000Y0239738D01*
X0148000Y0240250D01*
X0149000Y0241250D01*
X0156881Y0241250D01*
X0157881Y0242250D01*
X0158622Y0245250D02*
X0163000Y0245250D01*
X0158622Y0245250D02*
X0157881Y0245990D01*
X0180000Y0254809D02*
X0182528Y0257337D01*
X0210180Y0257337D01*
X0210866Y0257250D01*
X0221000Y0257250D01*
X0248000Y0237250D02*
X0248402Y0237652D01*
X0257620Y0237652D01*
X0219000Y0211250D02*
X0217205Y0213045D01*
X0210180Y0213045D01*
X0229000Y0173242D02*
X0234992Y0173242D01*
X0235000Y0173250D01*
X0252000Y0170691D02*
X0254441Y0170691D01*
X0257000Y0173250D01*
X0257000Y0179250D01*
X0255000Y0181250D01*
X0252000Y0181250D01*
X0251224Y0182026D01*
X0251124Y0189620D01*
X0252000Y0190719D01*
X0246571Y0153368D02*
X0245953Y0153250D01*
X0239000Y0153250D01*
X0246571Y0143132D02*
X0218882Y0143132D01*
X0215000Y0139250D01*
X0215000Y0133250D01*
X0215000Y0127250D01*
X0219488Y0122762D01*
X0219488Y0120250D01*
X0225500Y0120250D02*
X0230512Y0120250D01*
X0233000Y0133250D02*
X0227724Y0133250D01*
X0218276Y0133250D02*
X0215000Y0133250D01*
X0225000Y0107250D02*
X0227000Y0105250D01*
X0229724Y0105250D01*
X0224500Y0102250D02*
X0220276Y0105250D01*
X0170000Y0128250D02*
X0169000Y0130250D01*
X0169000Y0161250D01*
X0153000Y0159250D02*
X0153000Y0157778D01*
X0153000Y0159250D02*
X0152000Y0160250D01*
X0152000Y0161250D01*
X0143000Y0162250D02*
X0139669Y0162250D01*
X0139000Y0161581D01*
X0139000Y0179250D01*
X0142000Y0186250D02*
X0147000Y0186250D01*
X0142000Y0186250D02*
X0139000Y0189250D01*
X0135000Y0189250D02*
X0134000Y0190250D01*
X0131559Y0190250D01*
X0125000Y0194250D02*
X0124425Y0193675D01*
X0117709Y0193675D01*
X0112500Y0189250D02*
X0114874Y0187376D01*
X0117709Y0187376D01*
X0117709Y0177927D02*
X0112677Y0177927D01*
X0112000Y0177250D01*
X0112000Y0170250D02*
X0110622Y0166872D01*
X0110622Y0164541D01*
X0108000Y0165069D02*
X0108000Y0170250D01*
X0108000Y0165069D02*
X0107472Y0164541D01*
X0121000Y0167250D02*
X0121260Y0166990D01*
X0121260Y0161581D01*
X0125000Y0152919D02*
X0125000Y0142250D01*
X0133566Y0141816D02*
X0133566Y0138000D01*
X0138684Y0138000D02*
X0142750Y0138000D01*
X0143000Y0138250D01*
X0143000Y0142250D02*
X0143000Y0152659D01*
X0142740Y0152919D01*
X0135260Y0152919D02*
X0135260Y0144510D01*
X0127000Y0129581D02*
X0118669Y0129581D01*
X0118000Y0130250D01*
X0117331Y0129581D01*
X0113000Y0129581D01*
X0076000Y0159250D02*
X0075976Y0159274D01*
X0075976Y0164541D01*
X0153000Y0148722D02*
X0153000Y0142250D01*
X0153000Y0138250D01*
X0069000Y0065250D02*
X0069000Y0051250D01*
X0219453Y0018250D02*
X0223953Y0022750D01*
X0227000Y0022750D01*
D49*
X0128000Y0082250D02*
X0128000Y0091250D01*
X0116000Y0091250D01*
X0116000Y0082250D01*
X0128000Y0082250D01*
X0128000Y0082807D02*
X0116000Y0082807D01*
X0116000Y0085205D02*
X0128000Y0085205D01*
X0128000Y0087604D02*
X0116000Y0087604D01*
X0116000Y0090002D02*
X0128000Y0090002D01*
X0078000Y0107691D02*
X0078000Y0110250D01*
X0078000Y0107691D02*
X0075559Y0105250D01*
X0070441Y0105250D02*
X0066000Y0098250D01*
X0066000Y0095250D01*
X0066000Y0092699D01*
X0066000Y0098250D02*
X0066000Y0103855D01*
X0058480Y0111250D01*
X0045000Y0101250D02*
X0045000Y0093250D01*
X0043000Y0091250D01*
X0025000Y0091250D01*
X0023708Y0092111D01*
X0027722Y0092111D01*
X0028776Y0093166D01*
X0028776Y0100169D01*
X0027800Y0101145D01*
X0027800Y0101166D01*
X0028128Y0101494D01*
X0028600Y0102633D01*
X0028600Y0103250D01*
X0038142Y0103250D01*
X0038383Y0103150D01*
X0039617Y0103150D01*
X0039858Y0103250D01*
X0043000Y0103250D01*
X0045000Y0101250D01*
X0044255Y0101995D02*
X0028336Y0101995D01*
X0028776Y0099596D02*
X0045000Y0099596D01*
X0045000Y0097198D02*
X0028776Y0097198D01*
X0028776Y0094799D02*
X0045000Y0094799D01*
X0044151Y0092401D02*
X0028011Y0092401D01*
X0022418Y0092971D02*
X0019000Y0095250D01*
X0006000Y0095250D01*
X0006000Y0107250D01*
X0023000Y0107250D01*
X0024188Y0106062D01*
X0023744Y0105878D01*
X0022872Y0105006D01*
X0022400Y0103867D01*
X0022400Y0102633D01*
X0022872Y0101494D01*
X0023200Y0101166D01*
X0023200Y0101145D01*
X0022224Y0100169D01*
X0022224Y0093166D01*
X0022418Y0092971D01*
X0022224Y0094799D02*
X0019676Y0094799D01*
X0022224Y0097198D02*
X0006000Y0097198D01*
X0006000Y0099596D02*
X0022224Y0099596D01*
X0022664Y0101995D02*
X0006000Y0101995D01*
X0006000Y0104393D02*
X0022618Y0104393D01*
X0023458Y0106792D02*
X0006000Y0106792D01*
D50*
X0058000Y0063250D03*
D51*
X0078000Y0110250D03*
D52*
X0064708Y0096542D02*
X0066000Y0095250D01*
X0064708Y0096542D02*
X0040500Y0096667D01*
X0066000Y0073801D02*
X0066000Y0071250D01*
X0058000Y0063250D01*
X0126000Y0085250D02*
X0137000Y0085250D01*
X0139863Y0082387D01*
X0143000Y0082387D01*
X0143000Y0071363D02*
X0132599Y0071363D01*
D53*
X0129996Y0073967D01*
X0112004Y0073967D02*
X0112004Y0082246D01*
X0109000Y0085250D01*
X0095000Y0085250D01*
X0093000Y0087250D01*
X0093000Y0101375D01*
X0092875Y0101500D01*
X0085520Y0108855D01*
X0085520Y0115250D01*
X0073000Y0115250D01*
X0070441Y0112691D01*
X0070441Y0105250D01*
X0100480Y0115250D02*
X0107984Y0115250D01*
X0121000Y0102234D01*
X0092875Y0072500D02*
X0092875Y0042359D01*
X0094976Y0040258D01*
X0091000Y0036281D01*
X0091000Y0033250D01*
X0091000Y0017250D01*
X0153008Y0017258D02*
X0153008Y0033250D01*
X0156984Y0037226D01*
X0156984Y0040258D01*
X0041000Y0091250D02*
X0035500Y0092667D01*
X0035500Y0096667D01*
D54*
X0055000Y0125250D02*
X0055000Y0149250D01*
X0052000Y0153250D02*
X0052000Y0137750D01*
X0049000Y0134250D02*
X0052000Y0131250D01*
X0049000Y0134250D02*
X0049000Y0158250D01*
X0042000Y0158250D02*
X0042000Y0223250D01*
X0039000Y0231250D02*
X0039000Y0190250D01*
X0036000Y0187250D02*
X0039000Y0184250D01*
X0039000Y0183250D01*
X0036000Y0187250D02*
X0036000Y0199250D01*
X0033000Y0203250D02*
X0033000Y0193250D01*
X0047000Y0199250D02*
X0053000Y0199250D01*
X0057276Y0199974D01*
X0056291Y0199974D01*
X0056291Y0196825D02*
X0050575Y0196825D01*
X0049000Y0195250D01*
X0049000Y0173250D01*
X0052000Y0169250D02*
X0052000Y0184250D01*
X0056165Y0187250D02*
X0062000Y0187250D01*
X0065000Y0185250D02*
X0062000Y0182250D01*
X0062000Y0177250D01*
X0065000Y0176250D02*
X0065000Y0182250D01*
X0067000Y0184250D01*
X0067000Y0210250D01*
X0066000Y0212250D01*
X0066000Y0219250D01*
X0066528Y0220722D01*
X0066528Y0225959D01*
X0063378Y0225959D02*
X0063000Y0225581D01*
X0064000Y0221250D01*
X0064000Y0211250D01*
X0065000Y0209250D01*
X0065000Y0185250D01*
X0069000Y0183250D02*
X0067000Y0181250D01*
X0067000Y0175250D01*
X0064000Y0172250D01*
X0064000Y0169750D01*
X0066528Y0171778D02*
X0069000Y0174250D01*
X0069000Y0179250D01*
X0070000Y0180250D01*
X0072000Y0182250D02*
X0072000Y0212250D01*
X0069000Y0211250D02*
X0069000Y0183250D01*
X0072000Y0182250D02*
X0073000Y0181250D01*
X0073000Y0179250D01*
X0072000Y0178250D01*
X0072000Y0174250D01*
X0070000Y0172250D01*
X0070000Y0164864D01*
X0069677Y0164541D01*
X0066528Y0164541D02*
X0066528Y0171778D01*
X0065000Y0176250D02*
X0061000Y0172250D01*
X0061000Y0159250D01*
X0063000Y0156250D02*
X0064000Y0157250D01*
X0064000Y0163919D01*
X0063378Y0164541D01*
X0069000Y0159250D02*
X0071000Y0157250D01*
X0071000Y0141250D01*
X0075000Y0145250D02*
X0075000Y0154250D01*
X0079000Y0158250D01*
X0079000Y0164415D01*
X0079126Y0164541D01*
X0082000Y0164266D02*
X0082000Y0158250D01*
X0078000Y0154250D01*
X0078000Y0148250D01*
X0084000Y0152250D02*
X0084000Y0160250D01*
X0085000Y0161250D01*
X0085000Y0164116D01*
X0085425Y0164541D01*
X0082276Y0164541D02*
X0082000Y0164266D01*
X0081000Y0169750D02*
X0079000Y0171750D01*
X0079000Y0187250D01*
X0080000Y0188250D01*
X0080000Y0192250D01*
X0077000Y0195250D01*
X0077000Y0216250D01*
X0078000Y0217250D01*
X0078000Y0221250D01*
X0079126Y0223124D01*
X0079126Y0225959D01*
X0082276Y0225959D02*
X0082276Y0223974D01*
X0084000Y0222250D01*
X0084000Y0217250D01*
X0081000Y0214250D01*
X0081000Y0199250D01*
X0083000Y0197250D01*
X0083000Y0195250D01*
X0082000Y0194250D01*
X0082000Y0175250D01*
X0077000Y0171250D02*
X0076000Y0170250D01*
X0076000Y0169750D01*
X0077000Y0171250D02*
X0077000Y0188250D01*
X0078000Y0189250D01*
X0078000Y0191250D01*
X0075000Y0194250D01*
X0075000Y0217250D01*
X0075976Y0218226D01*
X0075976Y0225959D01*
X0073000Y0225785D02*
X0073000Y0220250D01*
X0069677Y0221573D02*
X0068000Y0218250D01*
X0068000Y0213250D01*
X0069000Y0211250D01*
X0061500Y0215250D02*
X0056764Y0215250D01*
X0056291Y0215722D01*
X0056291Y0212573D02*
X0047677Y0212573D01*
X0047000Y0213250D01*
X0051000Y0209250D02*
X0055000Y0209250D01*
X0055173Y0209423D01*
X0056291Y0209423D01*
X0056291Y0206274D02*
X0048024Y0206274D01*
X0047000Y0206250D01*
X0051000Y0203250D02*
X0051126Y0203124D01*
X0056291Y0203124D01*
X0056291Y0193675D02*
X0061575Y0193675D01*
X0062000Y0193250D01*
X0056291Y0190526D02*
X0056016Y0190250D01*
X0052000Y0190250D01*
X0056165Y0187250D02*
X0056291Y0187376D01*
X0079000Y0197250D02*
X0079000Y0215250D01*
X0081000Y0217250D01*
X0081000Y0220750D01*
X0085425Y0223825D02*
X0087000Y0222250D01*
X0087000Y0169750D01*
X0088575Y0164541D02*
X0089000Y0164116D01*
X0089000Y0161250D01*
X0090000Y0160250D01*
X0090000Y0154250D01*
X0092000Y0157250D02*
X0093000Y0156250D01*
X0092000Y0157250D02*
X0092000Y0164266D01*
X0091724Y0164541D01*
X0094874Y0164541D02*
X0095000Y0164415D01*
X0095000Y0158250D01*
X0096000Y0157250D01*
X0096000Y0155250D01*
X0095000Y0154250D01*
X0095000Y0143250D01*
X0094000Y0142250D01*
X0090000Y0144250D02*
X0087000Y0147250D01*
X0087000Y0159250D01*
X0098024Y0166226D02*
X0097000Y0168250D01*
X0097000Y0173250D01*
X0098000Y0174250D01*
X0098024Y0184226D01*
X0098000Y0184250D01*
X0095000Y0180250D02*
X0095000Y0207250D01*
X0095000Y0212250D02*
X0095000Y0220250D01*
X0091724Y0225959D02*
X0091000Y0226683D01*
X0091000Y0239250D01*
X0089000Y0241250D01*
X0082577Y0241250D01*
X0082116Y0241711D01*
X0081577Y0242250D01*
X0079000Y0242250D01*
X0078358Y0242892D01*
X0075528Y0242892D01*
X0066472Y0235608D02*
X0065390Y0236691D01*
X0060000Y0236691D01*
X0049000Y0241250D02*
X0039000Y0231250D01*
X0049000Y0241250D02*
X0049000Y0252250D01*
X0069677Y0225959D02*
X0069677Y0221573D01*
X0073000Y0225785D02*
X0072827Y0225959D01*
X0085425Y0225959D02*
X0085425Y0223825D01*
X0101173Y0225077D02*
X0101173Y0225959D01*
X0101173Y0225077D02*
X0101000Y0231250D01*
X0104323Y0225959D02*
X0104000Y0221250D01*
X0102000Y0219250D01*
X0102000Y0174250D01*
X0099000Y0171250D01*
X0099000Y0169250D01*
X0101173Y0167077D01*
X0101173Y0164541D01*
X0101000Y0164368D01*
X0101000Y0136250D01*
X0098000Y0121250D02*
X0096000Y0119250D01*
X0096000Y0112250D01*
X0099000Y0109250D01*
X0109260Y0120919D02*
X0113929Y0116250D01*
X0124000Y0116250D01*
X0124500Y0116750D01*
X0127000Y0116750D01*
X0123260Y0120919D02*
X0123260Y0121510D01*
X0127000Y0125250D01*
X0135000Y0125250D01*
X0135000Y0121250D01*
X0137000Y0119250D01*
X0139559Y0119250D01*
X0140000Y0119691D01*
X0140000Y0124809D02*
X0140441Y0125250D01*
X0144000Y0125250D01*
X0147000Y0115250D02*
X0147000Y0177250D01*
X0149000Y0179250D01*
X0152300Y0180960D02*
X0152300Y0164960D01*
X0157300Y0159960D01*
X0157300Y0097960D01*
X0161710Y0093550D01*
X0204290Y0093550D01*
X0211700Y0100960D01*
X0211700Y0140960D01*
X0217290Y0146550D01*
X0241000Y0146550D01*
X0241859Y0145691D01*
X0246571Y0145691D01*
X0251559Y0145691D01*
X0252500Y0145250D01*
X0251000Y0148250D02*
X0252500Y0149250D01*
X0251000Y0148250D02*
X0246571Y0148250D01*
X0241300Y0148250D01*
X0241000Y0147950D01*
X0216710Y0147950D01*
X0210300Y0141540D01*
X0210300Y0101540D01*
X0203710Y0094950D01*
X0162290Y0094950D01*
X0158700Y0098540D01*
X0158700Y0160540D01*
X0153700Y0165540D01*
X0153700Y0181540D01*
X0151290Y0183950D01*
X0135000Y0183950D01*
X0133700Y0185250D01*
X0131559Y0185250D01*
X0135000Y0182550D02*
X0150710Y0182550D01*
X0152300Y0180960D01*
X0150000Y0175250D02*
X0149000Y0174250D01*
X0149000Y0111250D01*
X0145000Y0111250D02*
X0147000Y0115250D01*
X0145000Y0111250D02*
X0145000Y0089250D01*
X0165000Y0087250D02*
X0165000Y0060691D01*
X0168000Y0063250D02*
X0167000Y0064250D01*
X0167000Y0084250D01*
X0168000Y0085250D01*
X0168000Y0088250D01*
X0167000Y0089250D01*
X0167000Y0090250D01*
X0167000Y0098250D02*
X0167000Y0140250D01*
X0165000Y0142250D01*
X0165000Y0189250D01*
X0167000Y0191250D01*
X0167000Y0225250D01*
X0163000Y0217250D02*
X0159000Y0217250D01*
X0149000Y0210250D01*
X0144000Y0205250D01*
X0133000Y0205250D01*
X0131000Y0203250D01*
X0117835Y0203250D01*
X0117815Y0203248D01*
X0117796Y0203244D01*
X0117778Y0203236D01*
X0117761Y0203226D01*
X0117746Y0203213D01*
X0117733Y0203198D01*
X0117723Y0203181D01*
X0117715Y0203163D01*
X0117711Y0203144D01*
X0117709Y0203124D01*
X0117984Y0200250D02*
X0129000Y0200250D01*
X0136000Y0194250D01*
X0158000Y0194250D01*
X0159000Y0193250D01*
X0159000Y0167250D01*
X0163000Y0163250D01*
X0163000Y0140250D01*
X0164000Y0139250D01*
X0164000Y0137250D01*
X0163000Y0136250D01*
X0163000Y0129809D01*
X0163000Y0124691D02*
X0163000Y0116250D01*
X0175000Y0125250D02*
X0175000Y0217250D01*
X0170000Y0210250D02*
X0170000Y0179250D01*
X0162000Y0175250D02*
X0161000Y0176250D01*
X0161000Y0189250D01*
X0165000Y0193250D01*
X0165000Y0203250D01*
X0163000Y0205250D01*
X0154000Y0205250D01*
X0149000Y0200250D01*
X0156000Y0191750D02*
X0157000Y0190750D01*
X0157000Y0166250D01*
X0161000Y0162250D01*
X0161000Y0138250D01*
X0181000Y0141250D02*
X0181000Y0107250D01*
X0184000Y0109250D02*
X0184000Y0132250D01*
X0200000Y0139250D02*
X0200000Y0101250D01*
X0215000Y0101250D02*
X0215000Y0083250D01*
X0216000Y0081250D01*
X0216000Y0064250D01*
X0217000Y0063250D01*
X0217000Y0022250D01*
X0207000Y0030250D02*
X0207000Y0032435D01*
X0208185Y0033250D01*
X0207000Y0030250D02*
X0203000Y0030250D01*
X0203000Y0035250D02*
X0203000Y0053250D01*
X0185000Y0071250D01*
X0185000Y0077250D01*
X0185000Y0066250D02*
X0185000Y0035250D01*
X0168000Y0052250D02*
X0168000Y0063250D01*
X0208000Y0061250D02*
X0208000Y0048435D01*
X0208185Y0048250D01*
X0208000Y0061250D02*
X0213000Y0066250D01*
X0213000Y0067250D01*
X0219000Y0067250D02*
X0219000Y0079250D01*
X0222000Y0082250D02*
X0222000Y0048250D01*
X0223815Y0048065D01*
X0223815Y0048250D01*
X0230000Y0048250D01*
X0231000Y0047250D01*
X0224000Y0041250D02*
X0223815Y0033250D01*
X0224000Y0033250D01*
X0225000Y0063250D02*
X0225000Y0084250D01*
X0225000Y0091250D02*
X0220000Y0096250D01*
X0220000Y0098250D01*
X0220276Y0098526D01*
X0220276Y0101510D01*
X0217000Y0107250D02*
X0218740Y0108990D01*
X0220276Y0108990D01*
X0223535Y0112250D01*
X0231000Y0112250D01*
X0232835Y0110415D01*
X0232835Y0095750D01*
X0237925Y0091250D02*
X0225000Y0091250D01*
X0237925Y0091250D02*
X0240709Y0088467D01*
X0240709Y0103033D01*
X0233740Y0129510D02*
X0227724Y0129510D01*
X0233740Y0129510D02*
X0236000Y0131250D01*
X0232740Y0136990D02*
X0233000Y0137250D01*
X0232740Y0136990D02*
X0227724Y0136990D01*
X0223000Y0135250D02*
X0220740Y0136990D01*
X0218276Y0136990D01*
X0205000Y0136250D02*
X0205000Y0144250D01*
X0201000Y0141250D02*
X0200000Y0139250D01*
X0183000Y0152250D02*
X0183000Y0161250D01*
X0185000Y0163250D01*
X0191000Y0163250D01*
X0204000Y0165250D02*
X0204000Y0183250D01*
X0203000Y0184250D01*
X0203000Y0237250D01*
X0203402Y0237652D01*
X0210180Y0237652D01*
X0210180Y0242573D02*
X0202323Y0242573D01*
X0201000Y0241250D01*
X0201000Y0181250D01*
X0183000Y0189250D02*
X0183000Y0199250D01*
X0187000Y0203250D01*
X0191000Y0203250D01*
X0210180Y0217967D02*
X0216283Y0217967D01*
X0218000Y0216250D01*
X0218000Y0245250D01*
X0216000Y0247250D01*
X0213000Y0247250D01*
X0210180Y0247494D02*
X0210180Y0252415D01*
X0211614Y0253250D01*
X0221000Y0253250D01*
X0227000Y0247250D02*
X0229000Y0245250D01*
X0229000Y0239250D01*
X0227000Y0235250D01*
X0227000Y0229250D01*
X0229000Y0227250D01*
X0229000Y0223250D01*
X0225000Y0219250D01*
X0225000Y0216250D01*
X0226000Y0215250D01*
X0226000Y0212250D01*
X0227000Y0211250D01*
X0222000Y0213250D02*
X0222000Y0209250D01*
X0221000Y0208250D01*
X0221000Y0198250D01*
X0224000Y0201250D02*
X0224000Y0214250D01*
X0223000Y0215250D01*
X0223000Y0220250D01*
X0227000Y0224250D01*
X0227000Y0226250D01*
X0225000Y0228250D01*
X0225000Y0236250D01*
X0227000Y0239250D01*
X0227000Y0242250D01*
X0225000Y0244250D01*
X0224000Y0240750D02*
X0224000Y0239250D01*
X0223000Y0237250D01*
X0223000Y0227250D01*
X0224000Y0226250D01*
X0224000Y0225250D01*
X0221000Y0214250D02*
X0222000Y0213250D01*
X0221000Y0214250D02*
X0221000Y0239250D01*
X0210180Y0247494D02*
X0182197Y0247494D01*
X0181000Y0248691D02*
X0180000Y0249691D01*
X0181000Y0248691D02*
X0181000Y0241184D01*
X0168119Y0245990D02*
X0168119Y0250131D01*
X0167000Y0251250D01*
X0160000Y0251250D01*
X0159512Y0250762D01*
X0148000Y0250762D01*
X0138000Y0256250D02*
X0138000Y0235250D01*
X0147000Y0232250D02*
X0147000Y0218250D01*
X0139000Y0210250D01*
X0132000Y0209250D02*
X0140000Y0217250D01*
X0142000Y0224250D02*
X0130000Y0212250D01*
X0118031Y0212250D01*
X0117709Y0212573D01*
X0117709Y0209423D02*
X0117882Y0209250D01*
X0132000Y0209250D01*
X0131000Y0217250D02*
X0131000Y0247250D01*
X0128000Y0244250D02*
X0128000Y0227250D01*
X0118000Y0227250D02*
X0113000Y0222250D01*
X0113000Y0209250D01*
X0112500Y0207250D01*
X0111000Y0205250D02*
X0111000Y0191750D01*
X0110000Y0190750D01*
X0110000Y0187750D01*
X0110622Y0187128D01*
X0110622Y0182628D01*
X0117709Y0181077D02*
X0125614Y0181077D01*
X0126441Y0180250D01*
X0125417Y0184226D02*
X0117709Y0184226D01*
X0125417Y0184226D02*
X0126441Y0185250D01*
X0131559Y0180250D02*
X0132700Y0180250D01*
X0135000Y0182550D01*
X0131559Y0175250D02*
X0131559Y0164400D01*
X0128740Y0161581D01*
X0117181Y0174250D02*
X0109000Y0174250D01*
X0108000Y0175250D01*
X0108000Y0217250D01*
X0111000Y0210250D02*
X0110000Y0209250D01*
X0110000Y0206250D01*
X0111000Y0205250D01*
X0111000Y0210250D02*
X0111000Y0225250D01*
X0110622Y0225959D01*
X0109000Y0234250D02*
X0109000Y0249250D01*
X0117709Y0206274D02*
X0122976Y0206274D01*
X0117984Y0200250D02*
X0117709Y0199974D01*
X0117709Y0196825D02*
X0118283Y0196250D01*
X0122000Y0196250D01*
X0123000Y0197250D01*
X0126441Y0175250D02*
X0125969Y0174778D01*
X0117709Y0174778D01*
X0117181Y0174250D01*
X0104323Y0164541D02*
X0104000Y0164219D01*
X0098024Y0164541D02*
X0098024Y0166226D01*
X0129000Y0139250D02*
X0129000Y0137250D01*
X0133000Y0133250D01*
X0133000Y0132250D01*
X0133566Y0141816D02*
X0134000Y0142250D01*
X0135260Y0144510D01*
X0120000Y0125250D02*
X0117000Y0120659D01*
X0116740Y0120919D01*
X0130740Y0120919D02*
X0135000Y0114659D01*
X0135000Y0113250D01*
X0101000Y0055250D02*
X0101000Y0047250D01*
X0107000Y0041250D01*
X0107000Y0033266D01*
X0106984Y0033250D01*
X0069000Y0119250D02*
X0063000Y0125250D01*
X0063000Y0156250D01*
X0033000Y0147250D02*
X0029000Y0143250D01*
X0026000Y0143250D01*
X0033000Y0147250D02*
X0033000Y0166250D01*
X0009000Y0168250D02*
X0009000Y0159250D01*
X0007260Y0137935D02*
X0007260Y0136990D01*
X0010000Y0132250D01*
X0079000Y0197250D02*
X0080000Y0196250D01*
X0061500Y0219250D02*
X0056669Y0219250D01*
X0056291Y0218872D01*
X0157000Y0230250D02*
X0157000Y0237628D01*
X0157881Y0238510D01*
X0210180Y0252415D02*
X0210780Y0251470D01*
X0211000Y0251250D01*
X0239000Y0229250D02*
X0239000Y0201250D01*
X0242000Y0198250D01*
X0237000Y0198250D02*
X0236961Y0197211D01*
X0236361Y0189620D01*
X0246203Y0189620D02*
X0246303Y0192947D01*
X0246000Y0193250D01*
X0246000Y0216250D01*
X0249000Y0211250D02*
X0252000Y0208250D01*
X0258094Y0208250D01*
X0257620Y0208124D01*
X0257620Y0203203D02*
X0250953Y0203203D01*
X0249000Y0201250D01*
X0246203Y0189620D02*
X0247000Y0189423D01*
X0250441Y0175809D02*
X0252000Y0175809D01*
X0251441Y0175250D01*
X0261000Y0167250D02*
X0261000Y0193250D01*
X0257620Y0222888D02*
X0251362Y0222888D01*
X0249000Y0225250D01*
X0250441Y0227809D02*
X0249000Y0229250D01*
X0250441Y0227809D02*
X0257620Y0227809D01*
X0257620Y0232730D02*
X0249520Y0232730D01*
X0249000Y0233250D01*
X0224000Y0181250D02*
X0224000Y0173242D01*
X0224000Y0165250D02*
X0224000Y0157258D01*
X0232000Y0150250D02*
X0232559Y0150809D01*
X0246571Y0150809D01*
X0235000Y0154250D02*
X0235000Y0165250D01*
D55*
X0129217Y0075467D02*
X0129996Y0073967D01*
X0129217Y0075467D02*
X0121000Y0075250D01*
X0045000Y0077250D02*
X0045000Y0053250D01*
X0041000Y0047250D01*
X0022000Y0047250D01*
X0022000Y0077250D01*
X0045000Y0077250D01*
X0045000Y0073232D02*
X0022000Y0073232D01*
X0022000Y0068234D02*
X0045000Y0068234D01*
X0045000Y0063235D02*
X0022000Y0063235D01*
X0022000Y0058237D02*
X0045000Y0058237D01*
X0044992Y0053238D02*
X0022000Y0053238D01*
X0022000Y0048240D02*
X0041660Y0048240D01*
D56*
X0043520Y0110770D02*
X0043520Y0111250D01*
X0031000Y0110759D02*
X0008000Y0110759D01*
X0008000Y0110250D02*
X0008000Y0127250D01*
X0031000Y0127250D01*
X0031000Y0110250D01*
X0008000Y0110250D01*
X0008000Y0112358D02*
X0031000Y0112358D01*
X0031000Y0113956D02*
X0008000Y0113956D01*
X0008000Y0115555D02*
X0031000Y0115555D01*
X0031000Y0117153D02*
X0008000Y0117153D01*
X0008000Y0118752D02*
X0031000Y0118752D01*
X0031000Y0120350D02*
X0008000Y0120350D01*
X0008000Y0121949D02*
X0031000Y0121949D01*
X0031000Y0123547D02*
X0008000Y0123547D01*
X0008000Y0125146D02*
X0031000Y0125146D01*
X0031000Y0126744D02*
X0008000Y0126744D01*
X0129996Y0073967D02*
X0130000Y0073963D01*
X0210280Y0247250D02*
X0210180Y0247494D01*
X0210280Y0247250D02*
X0213000Y0247250D01*
M02*
