%
M48
M72
T01C0.0100
T02C0.0236
T03C0.0276
T04C0.0315
T05C0.0394
T06C0.0400
T07C0.0472
T08C0.0630
T09C0.0984
T10C0.1181
T11C0.1260
T12C0.1280
%
T01
X6900Y5125
X7900Y4125
X8700Y2825
X9100Y1725
X10300Y2075
X11500Y2325
X14900Y2625
X15301Y1726
X16500Y2025
X17700Y2325
X18500Y3525
X16800Y5225
X16500Y6069
X18500Y6625
X18500Y7725
X16700Y9025
X16500Y8725
X16700Y9825
X18100Y10725
X18400Y10925
X20000Y10125
X21500Y10125
X22000Y9825
X22450Y10225
X22500Y10725
X21700Y10725
X22550Y12025
X21500Y12725
X22300Y13525
X23300Y13325
X23300Y13725
X23700Y13925
X23600Y13125
X23900Y12475
X25250Y14525
X25250Y14925
X23900Y15325
X23500Y15425
X23200Y15025
X23500Y16525
X23500Y17325
X22400Y16525
X22400Y18125
X21200Y18425
X20100Y18125
X19800Y18425
X18300Y18925
X17000Y17925
X16200Y17525
X15000Y17525
X14900Y17925
X14700Y18625
X13900Y18925
X13500Y18925
X12500Y19425
X12300Y19725
X12298Y20627
X11250Y20725
X10800Y21725
X9500Y22025
X9500Y21225
X9500Y20725
X9800Y19925
X11250Y18925
X11062Y18263
X11200Y17725
X10900Y17425
X10800Y17025
X10500Y17425
X10200Y17025
X11200Y17025
X12100Y16725
X10500Y15825
X9300Y15625
X9000Y15425
X8700Y15925
X8400Y15225
X7800Y14825
X7500Y14525
X7100Y14125
X5800Y13425
X5200Y13125
X5500Y12525
X5800Y12025
X6900Y11925
X7900Y12525
X8900Y13425
X9400Y14225
X9000Y14425
X10100Y13625
X9800Y12125
X9300Y12125
X10500Y12125
X9900Y10925
X9500Y10925
X9100Y10925
X7900Y9925
X8900Y9325
X8900Y8125
X7400Y7925
X6900Y6525
X4100Y9125
X2550Y10325
X1700Y10525
X3900Y10625
X1000Y13225
X1100Y14325
X1700Y15525
X900Y15925
X900Y16825
X3300Y16625
X4200Y15825
X4900Y15825
X5200Y15325
X5500Y14925
X6100Y15925
X6900Y15925
X7600Y15925
X7600Y16975
X8100Y16975
X8200Y17525
X8700Y16975
X9500Y18025
X9800Y18425
X8000Y19625
X7500Y19025
X7000Y18025
X6200Y17725
X6400Y16975
X5200Y16925
X4900Y17325
X5200Y18425
X5200Y19025
X4700Y19925
X5100Y20325
X4700Y20625
X5100Y20925
X4700Y21325
X4200Y22325
X6150Y21925
X6150Y21525
X7200Y21225
X7300Y22025
X8100Y22075
X9400Y23125
X8700Y23725
X9300Y24525
X8700Y24925
X7500Y24925
X6300Y24925
X4900Y25225
X6300Y23125
X3300Y20325
X3600Y19925
X3300Y19325
X3900Y19025
X3900Y18325
X6200Y18725
X6200Y19325
X10100Y23125
X10900Y23425
X11800Y22725
X12800Y22725
X13100Y21725
X14000Y21725
X14200Y22425
X14700Y23225
X13800Y23525
X14100Y24125
X13100Y24725
X12800Y24425
X12300Y23925
X10900Y24925
X13800Y25625
X16000Y25125
X16300Y24525
X15700Y23025
X16700Y22525
X16300Y21725
X17000Y21025
X17500Y21725
X17500Y23125
X18600Y23625
X19800Y22125
X21800Y21625
X21900Y21125
X22700Y21125
X22400Y20125
X22100Y19825
X23700Y19825
X24200Y19825
X24900Y20125
X24900Y21125
X24600Y21625
X24900Y22525
X24900Y22925
X24900Y23325
X24800Y23725
X24300Y23725
X23800Y23725
X23300Y23725
X23300Y24225
X23300Y24825
X23300Y25325
X23300Y25825
X22100Y25725
X22100Y25325
X22700Y24725
X22500Y24425
X22400Y24075
X22100Y23925
X22400Y22525
X23900Y22925
X26100Y19325
X25200Y18125
X26100Y16725
X20400Y16525
X20500Y14425
X20100Y14125
X20500Y13625
X18400Y13225
X18100Y14125
X18300Y15225
X16900Y16125
X15200Y16125
X14300Y16225
X13900Y17925
X15600Y19175
X15300Y14225
X15300Y13825
X16100Y13825
X17000Y12825
X17500Y12525
X16300Y11625
X14900Y11125
X13500Y11325
X12700Y11675
X12000Y12525
X11800Y13025
X11700Y13375
X12500Y14225
X12900Y13925
X13400Y14225
X14300Y14225
X14300Y13825
X13300Y13225
X14400Y12525
X14500Y8925
X10100Y5525
X5200Y13775
X20300Y3525
X20300Y3025
X20700Y2125
X21319Y3125
X21700Y2225
X22700Y2275
X23078Y3303
X22900Y3825
X22400Y4125
X23100Y4725
X22500Y6325
X21900Y6725
X21300Y6725
X21900Y7925
X22200Y8225
X22500Y8425
T02
X7800Y11025
T03
X5800Y6325
T04
X7399Y5923
X8301Y5923
X8698Y4026
X9498Y4026
X10297Y4026
X11096Y4026
X10698Y3325
X9899Y3325
X9100Y3325
X11498Y3325
X11899Y5923
X12801Y5923
X13600Y5923
X14502Y5923
X14899Y4026
X15698Y4026
X16498Y4026
X17297Y4026
X16899Y3325
X16100Y3325
X15301Y3325
X17698Y3325
X18100Y5923
X19002Y5923
X12600Y8525
X11900Y8525
X12100Y7525
X24657Y13870
X24657Y15780
T05
X25850Y15898
X25850Y13752
X24071Y10303
X23283Y9575
X24071Y8847
X26000Y9575
X24071Y6803
X23283Y6075
X24071Y5347
X26000Y6075
X24071Y3303
X23283Y2575
X24071Y1847
X26000Y2575
T06
X19100Y11325
X19100Y12325
X19100Y13325
X19100Y14325
X19100Y15325
X19100Y16325
X19100Y17325
X19100Y18325
X19100Y19325
X19100Y20325
X19100Y21325
X19100Y22325
X15900Y21025
X15900Y20025
X14900Y20025
X13900Y20025
X13900Y21025
X14900Y21025
X2600Y21325
X2600Y20325
X2600Y19325
X2600Y18325
X2600Y17325
X2600Y16325
X2600Y15325
X2600Y14325
X2600Y13325
X2600Y12325
X2600Y11325
X2600Y22325
T07
X25055Y9575
X25055Y6075
X25055Y2575
T08
X19500Y3675
X6901Y3675
T09
X3538Y3157
X5388Y4358
T10
X3538Y5539
T11
X20100Y7825
X3100Y24825
T12
X7600Y2325
X18801Y2325
M30
