G75*
%MOIN*%
%OFA0B0*%
%FSLAX25Y25*%
%IPPOS*%
%LPD*%
%AMOC8*
5,1,8,0,0,1.08239X$1,22.5*
%
%ADD10C,0.13198*%
%ADD11R,0.04143X0.03356*%
%ADD12R,0.04537X0.06112*%
%ADD13OC8,0.06600*%
%ADD14C,0.05350*%
%ADD15C,0.13400*%
%ADD16C,0.10049*%
%ADD17C,0.17600*%
%ADD18C,0.15364*%
%ADD19C,0.18317*%
%ADD20C,0.07200*%
%ADD21C,0.05324*%
%ADD22C,0.06506*%
%ADD23R,0.03553X0.06112*%
%ADD24R,0.06899X0.12411*%
%ADD25R,0.23435X0.25009*%
%ADD26R,0.06899X0.06112*%
%ADD27R,0.06112X0.12411*%
%ADD28R,0.03356X0.04143*%
%ADD29R,0.02800X0.05300*%
%ADD30R,0.05300X0.02800*%
%ADD31R,0.05718X0.04734*%
%ADD32R,0.06112X0.06112*%
%ADD33R,0.22600X0.09600*%
%ADD34C,0.03946*%
%ADD35R,0.05324X0.02765*%
%ADD36C,0.00703*%
%ADD37R,0.03513X0.11624*%
%ADD38C,0.01361*%
%ADD39C,0.08000*%
%ADD40R,0.03356X0.02372*%
%ADD41R,0.06112X0.06899*%
%ADD42R,0.02962X0.04931*%
%ADD43R,0.07698X0.06899*%
%ADD44R,0.03868X0.03080*%
%ADD45C,0.00500*%
%ADD46R,0.05600X0.08868*%
%ADD47R,0.07490X0.02175*%
%ADD48R,0.10443X0.06210*%
%ADD49C,0.01000*%
%ADD50C,0.04956*%
%ADD51C,0.04562*%
D10*
X0201000Y0078250D03*
X0031000Y0248250D03*
D11*
X0060000Y0241809D03*
X0060000Y0236691D03*
X0082116Y0236593D03*
X0082116Y0241711D03*
X0180000Y0249691D03*
X0180000Y0254809D03*
X0181000Y0241184D03*
X0181000Y0236066D03*
X0252000Y0175809D03*
X0252000Y0170691D03*
X0163000Y0129809D03*
X0163000Y0124691D03*
X0140000Y0124809D03*
X0140000Y0119691D03*
D12*
X0130740Y0120919D03*
X0123260Y0120919D03*
X0116740Y0120919D03*
X0109260Y0120919D03*
X0113000Y0129581D03*
X0127000Y0129581D03*
X0125000Y0152919D03*
X0135260Y0152919D03*
X0142740Y0152919D03*
X0139000Y0161581D03*
X0128740Y0161581D03*
X0121260Y0161581D03*
D13*
X0139000Y0200250D03*
X0149000Y0200250D03*
X0149000Y0210250D03*
X0139000Y0210250D03*
X0159000Y0210250D03*
X0159000Y0200250D03*
D14*
X0246571Y0157797D03*
X0246571Y0138703D03*
X0190016Y0059234D03*
X0181000Y0059234D03*
X0172969Y0040258D03*
X0164976Y0040258D03*
X0156984Y0040258D03*
X0148992Y0040258D03*
X0153008Y0033250D03*
X0161000Y0033250D03*
X0168992Y0033250D03*
X0176984Y0033250D03*
X0145016Y0059234D03*
X0136000Y0059234D03*
X0128008Y0059234D03*
X0118992Y0059234D03*
X0121000Y0075250D03*
X0119000Y0085250D03*
X0126000Y0085250D03*
X0083008Y0059234D03*
X0073992Y0059234D03*
X0086984Y0040258D03*
X0094976Y0040258D03*
X0102969Y0040258D03*
X0110961Y0040258D03*
X0106984Y0033250D03*
X0098992Y0033250D03*
X0091000Y0033250D03*
X0114976Y0033250D03*
D15*
X0076000Y0023250D03*
X0188008Y0023250D03*
D16*
X0194996Y0036754D03*
X0069012Y0036754D03*
D17*
X0035375Y0031571D03*
D18*
X0053879Y0043579D03*
D19*
X0035375Y0055390D03*
D20*
X0260000Y0057450D02*
X0260000Y0064050D01*
X0260000Y0092450D02*
X0260000Y0099050D01*
X0260000Y0029050D02*
X0260000Y0022450D01*
D21*
X0250551Y0025750D03*
X0250551Y0060750D03*
X0250551Y0095750D03*
D22*
X0240709Y0088467D03*
X0232835Y0095750D03*
X0240709Y0103033D03*
X0240709Y0068033D03*
X0232835Y0060750D03*
X0240709Y0053467D03*
X0240709Y0033033D03*
X0232835Y0025750D03*
X0240709Y0018467D03*
X0258500Y0137522D03*
X0258500Y0158978D03*
D23*
X0040500Y0096667D03*
X0035500Y0096667D03*
X0030500Y0096667D03*
X0025500Y0096667D03*
X0025500Y0073833D03*
X0030500Y0073833D03*
X0035500Y0073833D03*
X0040500Y0073833D03*
D24*
X0112004Y0073967D03*
X0129996Y0073967D03*
D25*
X0121000Y0102234D03*
D26*
X0143000Y0082387D03*
X0143000Y0071363D03*
X0148000Y0239738D03*
X0148000Y0250762D03*
D27*
X0066000Y0092699D03*
X0066000Y0073801D03*
D28*
X0070441Y0105250D03*
X0075559Y0105250D03*
X0133566Y0138000D03*
X0138684Y0138000D03*
X0131559Y0175250D03*
X0131559Y0180250D03*
X0131559Y0185250D03*
X0131559Y0190250D03*
X0126441Y0190250D03*
X0126441Y0185250D03*
X0126441Y0180250D03*
X0126441Y0175250D03*
D29*
X0110622Y0164541D03*
X0107472Y0164541D03*
X0104323Y0164541D03*
X0101173Y0164541D03*
X0098024Y0164541D03*
X0094874Y0164541D03*
X0091724Y0164541D03*
X0088575Y0164541D03*
X0085425Y0164541D03*
X0082276Y0164541D03*
X0079126Y0164541D03*
X0075976Y0164541D03*
X0072827Y0164541D03*
X0069677Y0164541D03*
X0066528Y0164541D03*
X0063378Y0164541D03*
X0063378Y0225959D03*
X0066528Y0225959D03*
X0069677Y0225959D03*
X0072827Y0225959D03*
X0075976Y0225959D03*
X0079126Y0225959D03*
X0082276Y0225959D03*
X0085425Y0225959D03*
X0088575Y0225959D03*
X0091724Y0225959D03*
X0094874Y0225959D03*
X0098024Y0225959D03*
X0101173Y0225959D03*
X0104323Y0225959D03*
X0107472Y0225959D03*
X0110622Y0225959D03*
D30*
X0117709Y0218872D03*
X0117709Y0215722D03*
X0117709Y0212573D03*
X0117709Y0209423D03*
X0117709Y0206274D03*
X0117709Y0203124D03*
X0117709Y0199974D03*
X0117709Y0196825D03*
X0117709Y0193675D03*
X0117709Y0190526D03*
X0117709Y0187376D03*
X0117709Y0184226D03*
X0117709Y0181077D03*
X0117709Y0177927D03*
X0117709Y0174778D03*
X0117709Y0171628D03*
X0056291Y0171628D03*
X0056291Y0174778D03*
X0056291Y0177927D03*
X0056291Y0181077D03*
X0056291Y0184226D03*
X0056291Y0187376D03*
X0056291Y0190526D03*
X0056291Y0193675D03*
X0056291Y0196825D03*
X0056291Y0199974D03*
X0056291Y0203124D03*
X0056291Y0206274D03*
X0056291Y0209423D03*
X0056291Y0212573D03*
X0056291Y0215722D03*
X0056291Y0218872D03*
D31*
X0066472Y0235608D03*
X0066472Y0242892D03*
X0075528Y0242892D03*
X0075528Y0235608D03*
D32*
X0085520Y0115250D03*
X0100480Y0115250D03*
X0058480Y0111250D03*
X0043520Y0111250D03*
D33*
X0092875Y0101500D03*
X0092875Y0072500D03*
D34*
X0216676Y0185388D02*
X0216676Y0193852D01*
X0221597Y0193852D02*
X0221597Y0185388D01*
X0226518Y0185388D02*
X0226518Y0193852D01*
X0231439Y0193852D02*
X0231439Y0185388D01*
X0236361Y0185388D02*
X0236361Y0193852D01*
X0241282Y0193852D02*
X0241282Y0185388D01*
X0246203Y0185388D02*
X0246203Y0193852D01*
X0251124Y0193852D02*
X0251124Y0185388D01*
X0253388Y0198281D02*
X0261852Y0198281D01*
X0261852Y0203203D02*
X0253388Y0203203D01*
X0253388Y0208124D02*
X0261852Y0208124D01*
X0261852Y0213045D02*
X0253388Y0213045D01*
X0253388Y0217967D02*
X0261852Y0217967D01*
X0261852Y0222888D02*
X0253388Y0222888D01*
X0253388Y0227809D02*
X0261852Y0227809D01*
X0261852Y0232730D02*
X0253388Y0232730D01*
X0253388Y0237652D02*
X0261852Y0237652D01*
X0214412Y0237652D02*
X0205948Y0237652D01*
X0205948Y0232730D02*
X0214412Y0232730D01*
X0214412Y0227809D02*
X0205948Y0227809D01*
X0205948Y0222888D02*
X0214412Y0222888D01*
X0214412Y0217967D02*
X0205948Y0217967D01*
X0205948Y0213045D02*
X0214412Y0213045D01*
X0214412Y0208124D02*
X0205948Y0208124D01*
X0205948Y0203203D02*
X0214412Y0203203D01*
X0214412Y0198281D02*
X0205948Y0198281D01*
X0205948Y0242573D02*
X0214412Y0242573D01*
X0214412Y0247494D02*
X0205948Y0247494D01*
X0205948Y0252415D02*
X0214412Y0252415D01*
X0214412Y0257337D02*
X0205948Y0257337D01*
D35*
X0168119Y0245990D03*
X0168119Y0238510D03*
X0157881Y0238510D03*
X0157881Y0242250D03*
X0157881Y0245990D03*
D36*
X0227595Y0178703D02*
X0227595Y0167781D01*
X0227595Y0178703D02*
X0230405Y0178703D01*
X0230405Y0167781D01*
X0227595Y0167781D01*
X0227595Y0168483D02*
X0230405Y0168483D01*
X0230405Y0169185D02*
X0227595Y0169185D01*
X0227595Y0169887D02*
X0230405Y0169887D01*
X0230405Y0170589D02*
X0227595Y0170589D01*
X0227595Y0171291D02*
X0230405Y0171291D01*
X0230405Y0171993D02*
X0227595Y0171993D01*
X0227595Y0172695D02*
X0230405Y0172695D01*
X0230405Y0173397D02*
X0227595Y0173397D01*
X0227595Y0174099D02*
X0230405Y0174099D01*
X0230405Y0174801D02*
X0227595Y0174801D01*
X0227595Y0175503D02*
X0230405Y0175503D01*
X0230405Y0176205D02*
X0227595Y0176205D01*
X0227595Y0176907D02*
X0230405Y0176907D01*
X0230405Y0177609D02*
X0227595Y0177609D01*
X0227595Y0178311D02*
X0230405Y0178311D01*
D37*
X0224000Y0173242D03*
X0219000Y0173242D03*
X0214000Y0173242D03*
X0209000Y0173242D03*
X0209000Y0157258D03*
X0214000Y0157258D03*
X0219000Y0157258D03*
X0224000Y0157258D03*
X0229000Y0157258D03*
D38*
X0217865Y0019838D02*
X0217865Y0016662D01*
X0217865Y0019838D02*
X0221041Y0019838D01*
X0221041Y0016662D01*
X0217865Y0016662D01*
X0217865Y0018022D02*
X0221041Y0018022D01*
X0221041Y0019382D02*
X0217865Y0019382D01*
X0210959Y0019838D02*
X0210959Y0016662D01*
X0210959Y0019838D02*
X0214135Y0019838D01*
X0214135Y0016662D01*
X0210959Y0016662D01*
X0210959Y0018022D02*
X0214135Y0018022D01*
X0214135Y0019382D02*
X0210959Y0019382D01*
D39*
X0191000Y0113250D03*
X0191000Y0123250D03*
X0191000Y0133250D03*
X0191000Y0143250D03*
X0191000Y0153250D03*
X0191000Y0163250D03*
X0191000Y0173250D03*
X0191000Y0183250D03*
X0191000Y0193250D03*
X0191000Y0203250D03*
X0191000Y0213250D03*
X0191000Y0223250D03*
X0026000Y0223250D03*
X0026000Y0213250D03*
X0026000Y0203250D03*
X0026000Y0193250D03*
X0026000Y0183250D03*
X0026000Y0173250D03*
X0026000Y0163250D03*
X0026000Y0153250D03*
X0026000Y0143250D03*
X0026000Y0133250D03*
X0026000Y0123250D03*
X0026000Y0113250D03*
D40*
X0218276Y0129510D03*
X0218276Y0133250D03*
X0218276Y0136990D03*
X0227724Y0136990D03*
X0227724Y0133250D03*
X0227724Y0129510D03*
X0229724Y0108990D03*
X0229724Y0105250D03*
X0229724Y0101510D03*
X0220276Y0101510D03*
X0220276Y0105250D03*
X0220276Y0108990D03*
D41*
X0219488Y0120250D03*
X0230512Y0120250D03*
D42*
X0014740Y0137935D03*
X0011000Y0137935D03*
X0007260Y0137935D03*
X0007260Y0148565D03*
X0011000Y0148565D03*
X0014740Y0148565D03*
D43*
X0011000Y0113848D03*
X0011000Y0102652D03*
D44*
X0153000Y0148722D03*
X0153000Y0157778D03*
D45*
X0229031Y0081660D02*
X0229653Y0081950D01*
X0230316Y0082127D01*
X0231000Y0082187D01*
X0231684Y0082127D01*
X0232347Y0081950D01*
X0232969Y0081660D01*
X0233531Y0081266D01*
X0234016Y0080781D01*
X0234410Y0080219D01*
X0234700Y0079597D01*
X0234877Y0078934D01*
X0234937Y0078250D01*
X0234877Y0077566D01*
X0234700Y0076903D01*
X0234410Y0076281D01*
X0234016Y0075719D01*
X0233531Y0075234D01*
X0232969Y0074840D01*
X0232347Y0074550D01*
X0231684Y0074373D01*
X0231000Y0074313D01*
X0230316Y0074373D01*
X0229653Y0074550D01*
X0229031Y0074840D01*
X0228469Y0075234D01*
X0227984Y0075719D01*
X0227590Y0076281D01*
X0227300Y0076903D01*
X0227123Y0077566D01*
X0227063Y0078250D01*
X0227123Y0078934D01*
X0227300Y0079597D01*
X0227590Y0080219D01*
X0227984Y0080781D01*
X0228469Y0081266D01*
X0229031Y0081660D01*
X0228869Y0081546D02*
X0233131Y0081546D01*
X0233749Y0081048D02*
X0228251Y0081048D01*
X0227822Y0080549D02*
X0234178Y0080549D01*
X0234488Y0080051D02*
X0227512Y0080051D01*
X0227288Y0079552D02*
X0234712Y0079552D01*
X0234845Y0079053D02*
X0227155Y0079053D01*
X0227090Y0078555D02*
X0234910Y0078555D01*
X0234920Y0078056D02*
X0227080Y0078056D01*
X0227125Y0077558D02*
X0234875Y0077558D01*
X0234741Y0077059D02*
X0227259Y0077059D01*
X0227460Y0076561D02*
X0234540Y0076561D01*
X0234256Y0076062D02*
X0227744Y0076062D01*
X0228140Y0075564D02*
X0233860Y0075564D01*
X0233290Y0075065D02*
X0228710Y0075065D01*
X0229618Y0074567D02*
X0232382Y0074567D01*
X0231992Y0082045D02*
X0230008Y0082045D01*
X0014016Y0250719D02*
X0014410Y0251281D01*
X0014700Y0251903D01*
X0014877Y0252566D01*
X0014937Y0253250D01*
X0014877Y0253934D01*
X0014700Y0254597D01*
X0014410Y0255219D01*
X0014016Y0255781D01*
X0013531Y0256266D01*
X0012969Y0256660D01*
X0012347Y0256950D01*
X0011684Y0257127D01*
X0011000Y0257187D01*
X0010316Y0257127D01*
X0009653Y0256950D01*
X0009031Y0256660D01*
X0008469Y0256266D01*
X0007984Y0255781D01*
X0007590Y0255219D01*
X0007300Y0254597D01*
X0007123Y0253934D01*
X0007063Y0253250D01*
X0007123Y0252566D01*
X0007300Y0251903D01*
X0007590Y0251281D01*
X0007984Y0250719D01*
X0008469Y0250234D01*
X0009031Y0249840D01*
X0009653Y0249550D01*
X0010316Y0249373D01*
X0011000Y0249313D01*
X0011684Y0249373D01*
X0012347Y0249550D01*
X0012969Y0249840D01*
X0013531Y0250234D01*
X0014016Y0250719D01*
X0013838Y0250541D02*
X0008162Y0250541D01*
X0007760Y0251040D02*
X0014240Y0251040D01*
X0014529Y0251538D02*
X0007471Y0251538D01*
X0007265Y0252037D02*
X0014735Y0252037D01*
X0014869Y0252535D02*
X0007131Y0252535D01*
X0007082Y0253034D02*
X0014918Y0253034D01*
X0014912Y0253532D02*
X0007088Y0253532D01*
X0007149Y0254031D02*
X0014851Y0254031D01*
X0014718Y0254529D02*
X0007282Y0254529D01*
X0007502Y0255028D02*
X0014498Y0255028D01*
X0014194Y0255527D02*
X0007806Y0255527D01*
X0008228Y0256025D02*
X0013772Y0256025D01*
X0013163Y0256524D02*
X0008837Y0256524D01*
X0009924Y0257022D02*
X0012076Y0257022D01*
X0013258Y0250043D02*
X0008742Y0250043D01*
X0009676Y0249544D02*
X0012324Y0249544D01*
D46*
X0208185Y0048250D03*
X0223815Y0048250D03*
X0223815Y0033250D03*
X0208185Y0033250D03*
D47*
X0246571Y0143132D03*
X0246571Y0145691D03*
X0246571Y0148250D03*
X0246571Y0150809D03*
X0246571Y0153368D03*
D48*
X0259484Y0152039D03*
X0259484Y0144461D03*
D49*
X0262600Y0139850D02*
X0262600Y0135050D01*
X0253100Y0135050D01*
X0253100Y0133050D01*
X0250600Y0133050D01*
X0250600Y0139850D01*
X0262600Y0139850D01*
X0262600Y0139062D02*
X0250600Y0139062D01*
X0250600Y0138064D02*
X0262600Y0138064D01*
X0262600Y0137065D02*
X0250600Y0137065D01*
X0250600Y0136067D02*
X0262600Y0136067D01*
X0262600Y0135068D02*
X0250600Y0135068D01*
X0250600Y0134070D02*
X0253100Y0134070D01*
X0253100Y0133071D02*
X0250600Y0133071D01*
X0249000Y0133350D02*
X0244400Y0133350D01*
X0244400Y0140150D01*
X0249000Y0140150D01*
X0249000Y0133350D01*
X0249000Y0134070D02*
X0244400Y0134070D01*
X0244400Y0135068D02*
X0249000Y0135068D01*
X0249000Y0136067D02*
X0244400Y0136067D01*
X0244400Y0137065D02*
X0249000Y0137065D01*
X0249000Y0138064D02*
X0244400Y0138064D01*
X0244400Y0139062D02*
X0249000Y0139062D01*
X0249000Y0140061D02*
X0244400Y0140061D01*
X0244400Y0156150D02*
X0249000Y0156150D01*
X0249000Y0163150D01*
X0244400Y0163150D01*
X0244400Y0156150D01*
X0244400Y0157036D02*
X0249000Y0157036D01*
X0249000Y0158034D02*
X0244400Y0158034D01*
X0244400Y0159033D02*
X0249000Y0159033D01*
X0249000Y0160031D02*
X0244400Y0160031D01*
X0244400Y0161030D02*
X0249000Y0161030D01*
X0249000Y0162028D02*
X0244400Y0162028D01*
X0244400Y0163027D02*
X0249000Y0163027D01*
X0250700Y0163027D02*
X0252900Y0163027D01*
X0252900Y0163350D02*
X0252900Y0161250D01*
X0262600Y0161250D01*
X0262600Y0156650D01*
X0250700Y0156650D01*
X0250700Y0163350D01*
X0252900Y0163350D01*
X0252900Y0162028D02*
X0250700Y0162028D01*
X0250700Y0161030D02*
X0262600Y0161030D01*
X0262600Y0160031D02*
X0250700Y0160031D01*
X0250700Y0159033D02*
X0262600Y0159033D01*
X0262600Y0158034D02*
X0250700Y0158034D01*
X0250700Y0157036D02*
X0262600Y0157036D01*
D50*
X0058000Y0063250D03*
D51*
X0078000Y0110250D03*
M02*
