G75*
%MOIN*%
%OFA0B0*%
%FSLAX25Y25*%
%IPPOS*%
%LPD*%
%AMOC8*
5,1,8,0,0,1.08239X$1,22.5*
%
%ADD10C,0.00000*%
D10*
X0016000Y0013250D02*
X0266000Y0013250D01*
X0266000Y0263250D01*
X0001000Y0263250D01*
X0001000Y0058250D01*
X0016000Y0058250D01*
X0016000Y0013250D01*
X0069600Y0023250D02*
X0069602Y0023410D01*
X0069608Y0023569D01*
X0069618Y0023728D01*
X0069632Y0023887D01*
X0069650Y0024046D01*
X0069671Y0024204D01*
X0069697Y0024361D01*
X0069727Y0024518D01*
X0069760Y0024674D01*
X0069798Y0024829D01*
X0069839Y0024983D01*
X0069884Y0025136D01*
X0069933Y0025288D01*
X0069986Y0025439D01*
X0070042Y0025588D01*
X0070103Y0025736D01*
X0070166Y0025882D01*
X0070234Y0026027D01*
X0070305Y0026170D01*
X0070379Y0026311D01*
X0070457Y0026450D01*
X0070539Y0026587D01*
X0070624Y0026722D01*
X0070712Y0026855D01*
X0070804Y0026986D01*
X0070898Y0027114D01*
X0070996Y0027240D01*
X0071097Y0027364D01*
X0071201Y0027485D01*
X0071308Y0027603D01*
X0071418Y0027719D01*
X0071531Y0027832D01*
X0071647Y0027942D01*
X0071765Y0028049D01*
X0071886Y0028153D01*
X0072010Y0028254D01*
X0072136Y0028352D01*
X0072264Y0028446D01*
X0072395Y0028538D01*
X0072528Y0028626D01*
X0072663Y0028711D01*
X0072800Y0028793D01*
X0072939Y0028871D01*
X0073080Y0028945D01*
X0073223Y0029016D01*
X0073368Y0029084D01*
X0073514Y0029147D01*
X0073662Y0029208D01*
X0073811Y0029264D01*
X0073962Y0029317D01*
X0074114Y0029366D01*
X0074267Y0029411D01*
X0074421Y0029452D01*
X0074576Y0029490D01*
X0074732Y0029523D01*
X0074889Y0029553D01*
X0075046Y0029579D01*
X0075204Y0029600D01*
X0075363Y0029618D01*
X0075522Y0029632D01*
X0075681Y0029642D01*
X0075840Y0029648D01*
X0076000Y0029650D01*
X0076160Y0029648D01*
X0076319Y0029642D01*
X0076478Y0029632D01*
X0076637Y0029618D01*
X0076796Y0029600D01*
X0076954Y0029579D01*
X0077111Y0029553D01*
X0077268Y0029523D01*
X0077424Y0029490D01*
X0077579Y0029452D01*
X0077733Y0029411D01*
X0077886Y0029366D01*
X0078038Y0029317D01*
X0078189Y0029264D01*
X0078338Y0029208D01*
X0078486Y0029147D01*
X0078632Y0029084D01*
X0078777Y0029016D01*
X0078920Y0028945D01*
X0079061Y0028871D01*
X0079200Y0028793D01*
X0079337Y0028711D01*
X0079472Y0028626D01*
X0079605Y0028538D01*
X0079736Y0028446D01*
X0079864Y0028352D01*
X0079990Y0028254D01*
X0080114Y0028153D01*
X0080235Y0028049D01*
X0080353Y0027942D01*
X0080469Y0027832D01*
X0080582Y0027719D01*
X0080692Y0027603D01*
X0080799Y0027485D01*
X0080903Y0027364D01*
X0081004Y0027240D01*
X0081102Y0027114D01*
X0081196Y0026986D01*
X0081288Y0026855D01*
X0081376Y0026722D01*
X0081461Y0026587D01*
X0081543Y0026450D01*
X0081621Y0026311D01*
X0081695Y0026170D01*
X0081766Y0026027D01*
X0081834Y0025882D01*
X0081897Y0025736D01*
X0081958Y0025588D01*
X0082014Y0025439D01*
X0082067Y0025288D01*
X0082116Y0025136D01*
X0082161Y0024983D01*
X0082202Y0024829D01*
X0082240Y0024674D01*
X0082273Y0024518D01*
X0082303Y0024361D01*
X0082329Y0024204D01*
X0082350Y0024046D01*
X0082368Y0023887D01*
X0082382Y0023728D01*
X0082392Y0023569D01*
X0082398Y0023410D01*
X0082400Y0023250D01*
X0082398Y0023090D01*
X0082392Y0022931D01*
X0082382Y0022772D01*
X0082368Y0022613D01*
X0082350Y0022454D01*
X0082329Y0022296D01*
X0082303Y0022139D01*
X0082273Y0021982D01*
X0082240Y0021826D01*
X0082202Y0021671D01*
X0082161Y0021517D01*
X0082116Y0021364D01*
X0082067Y0021212D01*
X0082014Y0021061D01*
X0081958Y0020912D01*
X0081897Y0020764D01*
X0081834Y0020618D01*
X0081766Y0020473D01*
X0081695Y0020330D01*
X0081621Y0020189D01*
X0081543Y0020050D01*
X0081461Y0019913D01*
X0081376Y0019778D01*
X0081288Y0019645D01*
X0081196Y0019514D01*
X0081102Y0019386D01*
X0081004Y0019260D01*
X0080903Y0019136D01*
X0080799Y0019015D01*
X0080692Y0018897D01*
X0080582Y0018781D01*
X0080469Y0018668D01*
X0080353Y0018558D01*
X0080235Y0018451D01*
X0080114Y0018347D01*
X0079990Y0018246D01*
X0079864Y0018148D01*
X0079736Y0018054D01*
X0079605Y0017962D01*
X0079472Y0017874D01*
X0079337Y0017789D01*
X0079200Y0017707D01*
X0079061Y0017629D01*
X0078920Y0017555D01*
X0078777Y0017484D01*
X0078632Y0017416D01*
X0078486Y0017353D01*
X0078338Y0017292D01*
X0078189Y0017236D01*
X0078038Y0017183D01*
X0077886Y0017134D01*
X0077733Y0017089D01*
X0077579Y0017048D01*
X0077424Y0017010D01*
X0077268Y0016977D01*
X0077111Y0016947D01*
X0076954Y0016921D01*
X0076796Y0016900D01*
X0076637Y0016882D01*
X0076478Y0016868D01*
X0076319Y0016858D01*
X0076160Y0016852D01*
X0076000Y0016850D01*
X0075840Y0016852D01*
X0075681Y0016858D01*
X0075522Y0016868D01*
X0075363Y0016882D01*
X0075204Y0016900D01*
X0075046Y0016921D01*
X0074889Y0016947D01*
X0074732Y0016977D01*
X0074576Y0017010D01*
X0074421Y0017048D01*
X0074267Y0017089D01*
X0074114Y0017134D01*
X0073962Y0017183D01*
X0073811Y0017236D01*
X0073662Y0017292D01*
X0073514Y0017353D01*
X0073368Y0017416D01*
X0073223Y0017484D01*
X0073080Y0017555D01*
X0072939Y0017629D01*
X0072800Y0017707D01*
X0072663Y0017789D01*
X0072528Y0017874D01*
X0072395Y0017962D01*
X0072264Y0018054D01*
X0072136Y0018148D01*
X0072010Y0018246D01*
X0071886Y0018347D01*
X0071765Y0018451D01*
X0071647Y0018558D01*
X0071531Y0018668D01*
X0071418Y0018781D01*
X0071308Y0018897D01*
X0071201Y0019015D01*
X0071097Y0019136D01*
X0070996Y0019260D01*
X0070898Y0019386D01*
X0070804Y0019514D01*
X0070712Y0019645D01*
X0070624Y0019778D01*
X0070539Y0019913D01*
X0070457Y0020050D01*
X0070379Y0020189D01*
X0070305Y0020330D01*
X0070234Y0020473D01*
X0070166Y0020618D01*
X0070103Y0020764D01*
X0070042Y0020912D01*
X0069986Y0021061D01*
X0069933Y0021212D01*
X0069884Y0021364D01*
X0069839Y0021517D01*
X0069798Y0021671D01*
X0069760Y0021826D01*
X0069727Y0021982D01*
X0069697Y0022139D01*
X0069671Y0022296D01*
X0069650Y0022454D01*
X0069632Y0022613D01*
X0069618Y0022772D01*
X0069608Y0022931D01*
X0069602Y0023090D01*
X0069600Y0023250D01*
X0181608Y0023250D02*
X0181610Y0023410D01*
X0181616Y0023569D01*
X0181626Y0023728D01*
X0181640Y0023887D01*
X0181658Y0024046D01*
X0181679Y0024204D01*
X0181705Y0024361D01*
X0181735Y0024518D01*
X0181768Y0024674D01*
X0181806Y0024829D01*
X0181847Y0024983D01*
X0181892Y0025136D01*
X0181941Y0025288D01*
X0181994Y0025439D01*
X0182050Y0025588D01*
X0182111Y0025736D01*
X0182174Y0025882D01*
X0182242Y0026027D01*
X0182313Y0026170D01*
X0182387Y0026311D01*
X0182465Y0026450D01*
X0182547Y0026587D01*
X0182632Y0026722D01*
X0182720Y0026855D01*
X0182812Y0026986D01*
X0182906Y0027114D01*
X0183004Y0027240D01*
X0183105Y0027364D01*
X0183209Y0027485D01*
X0183316Y0027603D01*
X0183426Y0027719D01*
X0183539Y0027832D01*
X0183655Y0027942D01*
X0183773Y0028049D01*
X0183894Y0028153D01*
X0184018Y0028254D01*
X0184144Y0028352D01*
X0184272Y0028446D01*
X0184403Y0028538D01*
X0184536Y0028626D01*
X0184671Y0028711D01*
X0184808Y0028793D01*
X0184947Y0028871D01*
X0185088Y0028945D01*
X0185231Y0029016D01*
X0185376Y0029084D01*
X0185522Y0029147D01*
X0185670Y0029208D01*
X0185819Y0029264D01*
X0185970Y0029317D01*
X0186122Y0029366D01*
X0186275Y0029411D01*
X0186429Y0029452D01*
X0186584Y0029490D01*
X0186740Y0029523D01*
X0186897Y0029553D01*
X0187054Y0029579D01*
X0187212Y0029600D01*
X0187371Y0029618D01*
X0187530Y0029632D01*
X0187689Y0029642D01*
X0187848Y0029648D01*
X0188008Y0029650D01*
X0188168Y0029648D01*
X0188327Y0029642D01*
X0188486Y0029632D01*
X0188645Y0029618D01*
X0188804Y0029600D01*
X0188962Y0029579D01*
X0189119Y0029553D01*
X0189276Y0029523D01*
X0189432Y0029490D01*
X0189587Y0029452D01*
X0189741Y0029411D01*
X0189894Y0029366D01*
X0190046Y0029317D01*
X0190197Y0029264D01*
X0190346Y0029208D01*
X0190494Y0029147D01*
X0190640Y0029084D01*
X0190785Y0029016D01*
X0190928Y0028945D01*
X0191069Y0028871D01*
X0191208Y0028793D01*
X0191345Y0028711D01*
X0191480Y0028626D01*
X0191613Y0028538D01*
X0191744Y0028446D01*
X0191872Y0028352D01*
X0191998Y0028254D01*
X0192122Y0028153D01*
X0192243Y0028049D01*
X0192361Y0027942D01*
X0192477Y0027832D01*
X0192590Y0027719D01*
X0192700Y0027603D01*
X0192807Y0027485D01*
X0192911Y0027364D01*
X0193012Y0027240D01*
X0193110Y0027114D01*
X0193204Y0026986D01*
X0193296Y0026855D01*
X0193384Y0026722D01*
X0193469Y0026587D01*
X0193551Y0026450D01*
X0193629Y0026311D01*
X0193703Y0026170D01*
X0193774Y0026027D01*
X0193842Y0025882D01*
X0193905Y0025736D01*
X0193966Y0025588D01*
X0194022Y0025439D01*
X0194075Y0025288D01*
X0194124Y0025136D01*
X0194169Y0024983D01*
X0194210Y0024829D01*
X0194248Y0024674D01*
X0194281Y0024518D01*
X0194311Y0024361D01*
X0194337Y0024204D01*
X0194358Y0024046D01*
X0194376Y0023887D01*
X0194390Y0023728D01*
X0194400Y0023569D01*
X0194406Y0023410D01*
X0194408Y0023250D01*
X0194406Y0023090D01*
X0194400Y0022931D01*
X0194390Y0022772D01*
X0194376Y0022613D01*
X0194358Y0022454D01*
X0194337Y0022296D01*
X0194311Y0022139D01*
X0194281Y0021982D01*
X0194248Y0021826D01*
X0194210Y0021671D01*
X0194169Y0021517D01*
X0194124Y0021364D01*
X0194075Y0021212D01*
X0194022Y0021061D01*
X0193966Y0020912D01*
X0193905Y0020764D01*
X0193842Y0020618D01*
X0193774Y0020473D01*
X0193703Y0020330D01*
X0193629Y0020189D01*
X0193551Y0020050D01*
X0193469Y0019913D01*
X0193384Y0019778D01*
X0193296Y0019645D01*
X0193204Y0019514D01*
X0193110Y0019386D01*
X0193012Y0019260D01*
X0192911Y0019136D01*
X0192807Y0019015D01*
X0192700Y0018897D01*
X0192590Y0018781D01*
X0192477Y0018668D01*
X0192361Y0018558D01*
X0192243Y0018451D01*
X0192122Y0018347D01*
X0191998Y0018246D01*
X0191872Y0018148D01*
X0191744Y0018054D01*
X0191613Y0017962D01*
X0191480Y0017874D01*
X0191345Y0017789D01*
X0191208Y0017707D01*
X0191069Y0017629D01*
X0190928Y0017555D01*
X0190785Y0017484D01*
X0190640Y0017416D01*
X0190494Y0017353D01*
X0190346Y0017292D01*
X0190197Y0017236D01*
X0190046Y0017183D01*
X0189894Y0017134D01*
X0189741Y0017089D01*
X0189587Y0017048D01*
X0189432Y0017010D01*
X0189276Y0016977D01*
X0189119Y0016947D01*
X0188962Y0016921D01*
X0188804Y0016900D01*
X0188645Y0016882D01*
X0188486Y0016868D01*
X0188327Y0016858D01*
X0188168Y0016852D01*
X0188008Y0016850D01*
X0187848Y0016852D01*
X0187689Y0016858D01*
X0187530Y0016868D01*
X0187371Y0016882D01*
X0187212Y0016900D01*
X0187054Y0016921D01*
X0186897Y0016947D01*
X0186740Y0016977D01*
X0186584Y0017010D01*
X0186429Y0017048D01*
X0186275Y0017089D01*
X0186122Y0017134D01*
X0185970Y0017183D01*
X0185819Y0017236D01*
X0185670Y0017292D01*
X0185522Y0017353D01*
X0185376Y0017416D01*
X0185231Y0017484D01*
X0185088Y0017555D01*
X0184947Y0017629D01*
X0184808Y0017707D01*
X0184671Y0017789D01*
X0184536Y0017874D01*
X0184403Y0017962D01*
X0184272Y0018054D01*
X0184144Y0018148D01*
X0184018Y0018246D01*
X0183894Y0018347D01*
X0183773Y0018451D01*
X0183655Y0018558D01*
X0183539Y0018668D01*
X0183426Y0018781D01*
X0183316Y0018897D01*
X0183209Y0019015D01*
X0183105Y0019136D01*
X0183004Y0019260D01*
X0182906Y0019386D01*
X0182812Y0019514D01*
X0182720Y0019645D01*
X0182632Y0019778D01*
X0182547Y0019913D01*
X0182465Y0020050D01*
X0182387Y0020189D01*
X0182313Y0020330D01*
X0182242Y0020473D01*
X0182174Y0020618D01*
X0182111Y0020764D01*
X0182050Y0020912D01*
X0181994Y0021061D01*
X0181941Y0021212D01*
X0181892Y0021364D01*
X0181847Y0021517D01*
X0181806Y0021671D01*
X0181768Y0021826D01*
X0181735Y0021982D01*
X0181705Y0022139D01*
X0181679Y0022296D01*
X0181658Y0022454D01*
X0181640Y0022613D01*
X0181626Y0022772D01*
X0181616Y0022931D01*
X0181610Y0023090D01*
X0181608Y0023250D01*
X0194701Y0078250D02*
X0194703Y0078408D01*
X0194709Y0078566D01*
X0194719Y0078724D01*
X0194733Y0078882D01*
X0194751Y0079039D01*
X0194772Y0079196D01*
X0194798Y0079352D01*
X0194828Y0079508D01*
X0194861Y0079663D01*
X0194899Y0079816D01*
X0194940Y0079969D01*
X0194985Y0080121D01*
X0195034Y0080272D01*
X0195087Y0080421D01*
X0195143Y0080569D01*
X0195203Y0080715D01*
X0195267Y0080860D01*
X0195335Y0081003D01*
X0195406Y0081145D01*
X0195480Y0081285D01*
X0195558Y0081422D01*
X0195640Y0081558D01*
X0195724Y0081692D01*
X0195813Y0081823D01*
X0195904Y0081952D01*
X0195999Y0082079D01*
X0196096Y0082204D01*
X0196197Y0082326D01*
X0196301Y0082445D01*
X0196408Y0082562D01*
X0196518Y0082676D01*
X0196631Y0082787D01*
X0196746Y0082896D01*
X0196864Y0083001D01*
X0196985Y0083103D01*
X0197108Y0083203D01*
X0197234Y0083299D01*
X0197362Y0083392D01*
X0197492Y0083482D01*
X0197625Y0083568D01*
X0197760Y0083652D01*
X0197896Y0083731D01*
X0198035Y0083808D01*
X0198176Y0083880D01*
X0198318Y0083950D01*
X0198462Y0084015D01*
X0198608Y0084077D01*
X0198755Y0084135D01*
X0198904Y0084190D01*
X0199054Y0084241D01*
X0199205Y0084288D01*
X0199357Y0084331D01*
X0199510Y0084370D01*
X0199665Y0084406D01*
X0199820Y0084437D01*
X0199976Y0084465D01*
X0200132Y0084489D01*
X0200289Y0084509D01*
X0200447Y0084525D01*
X0200604Y0084537D01*
X0200763Y0084545D01*
X0200921Y0084549D01*
X0201079Y0084549D01*
X0201237Y0084545D01*
X0201396Y0084537D01*
X0201553Y0084525D01*
X0201711Y0084509D01*
X0201868Y0084489D01*
X0202024Y0084465D01*
X0202180Y0084437D01*
X0202335Y0084406D01*
X0202490Y0084370D01*
X0202643Y0084331D01*
X0202795Y0084288D01*
X0202946Y0084241D01*
X0203096Y0084190D01*
X0203245Y0084135D01*
X0203392Y0084077D01*
X0203538Y0084015D01*
X0203682Y0083950D01*
X0203824Y0083880D01*
X0203965Y0083808D01*
X0204104Y0083731D01*
X0204240Y0083652D01*
X0204375Y0083568D01*
X0204508Y0083482D01*
X0204638Y0083392D01*
X0204766Y0083299D01*
X0204892Y0083203D01*
X0205015Y0083103D01*
X0205136Y0083001D01*
X0205254Y0082896D01*
X0205369Y0082787D01*
X0205482Y0082676D01*
X0205592Y0082562D01*
X0205699Y0082445D01*
X0205803Y0082326D01*
X0205904Y0082204D01*
X0206001Y0082079D01*
X0206096Y0081952D01*
X0206187Y0081823D01*
X0206276Y0081692D01*
X0206360Y0081558D01*
X0206442Y0081422D01*
X0206520Y0081285D01*
X0206594Y0081145D01*
X0206665Y0081003D01*
X0206733Y0080860D01*
X0206797Y0080715D01*
X0206857Y0080569D01*
X0206913Y0080421D01*
X0206966Y0080272D01*
X0207015Y0080121D01*
X0207060Y0079969D01*
X0207101Y0079816D01*
X0207139Y0079663D01*
X0207172Y0079508D01*
X0207202Y0079352D01*
X0207228Y0079196D01*
X0207249Y0079039D01*
X0207267Y0078882D01*
X0207281Y0078724D01*
X0207291Y0078566D01*
X0207297Y0078408D01*
X0207299Y0078250D01*
X0207297Y0078092D01*
X0207291Y0077934D01*
X0207281Y0077776D01*
X0207267Y0077618D01*
X0207249Y0077461D01*
X0207228Y0077304D01*
X0207202Y0077148D01*
X0207172Y0076992D01*
X0207139Y0076837D01*
X0207101Y0076684D01*
X0207060Y0076531D01*
X0207015Y0076379D01*
X0206966Y0076228D01*
X0206913Y0076079D01*
X0206857Y0075931D01*
X0206797Y0075785D01*
X0206733Y0075640D01*
X0206665Y0075497D01*
X0206594Y0075355D01*
X0206520Y0075215D01*
X0206442Y0075078D01*
X0206360Y0074942D01*
X0206276Y0074808D01*
X0206187Y0074677D01*
X0206096Y0074548D01*
X0206001Y0074421D01*
X0205904Y0074296D01*
X0205803Y0074174D01*
X0205699Y0074055D01*
X0205592Y0073938D01*
X0205482Y0073824D01*
X0205369Y0073713D01*
X0205254Y0073604D01*
X0205136Y0073499D01*
X0205015Y0073397D01*
X0204892Y0073297D01*
X0204766Y0073201D01*
X0204638Y0073108D01*
X0204508Y0073018D01*
X0204375Y0072932D01*
X0204240Y0072848D01*
X0204104Y0072769D01*
X0203965Y0072692D01*
X0203824Y0072620D01*
X0203682Y0072550D01*
X0203538Y0072485D01*
X0203392Y0072423D01*
X0203245Y0072365D01*
X0203096Y0072310D01*
X0202946Y0072259D01*
X0202795Y0072212D01*
X0202643Y0072169D01*
X0202490Y0072130D01*
X0202335Y0072094D01*
X0202180Y0072063D01*
X0202024Y0072035D01*
X0201868Y0072011D01*
X0201711Y0071991D01*
X0201553Y0071975D01*
X0201396Y0071963D01*
X0201237Y0071955D01*
X0201079Y0071951D01*
X0200921Y0071951D01*
X0200763Y0071955D01*
X0200604Y0071963D01*
X0200447Y0071975D01*
X0200289Y0071991D01*
X0200132Y0072011D01*
X0199976Y0072035D01*
X0199820Y0072063D01*
X0199665Y0072094D01*
X0199510Y0072130D01*
X0199357Y0072169D01*
X0199205Y0072212D01*
X0199054Y0072259D01*
X0198904Y0072310D01*
X0198755Y0072365D01*
X0198608Y0072423D01*
X0198462Y0072485D01*
X0198318Y0072550D01*
X0198176Y0072620D01*
X0198035Y0072692D01*
X0197896Y0072769D01*
X0197760Y0072848D01*
X0197625Y0072932D01*
X0197492Y0073018D01*
X0197362Y0073108D01*
X0197234Y0073201D01*
X0197108Y0073297D01*
X0196985Y0073397D01*
X0196864Y0073499D01*
X0196746Y0073604D01*
X0196631Y0073713D01*
X0196518Y0073824D01*
X0196408Y0073938D01*
X0196301Y0074055D01*
X0196197Y0074174D01*
X0196096Y0074296D01*
X0195999Y0074421D01*
X0195904Y0074548D01*
X0195813Y0074677D01*
X0195724Y0074808D01*
X0195640Y0074942D01*
X0195558Y0075078D01*
X0195480Y0075215D01*
X0195406Y0075355D01*
X0195335Y0075497D01*
X0195267Y0075640D01*
X0195203Y0075785D01*
X0195143Y0075931D01*
X0195087Y0076079D01*
X0195034Y0076228D01*
X0194985Y0076379D01*
X0194940Y0076531D01*
X0194899Y0076684D01*
X0194861Y0076837D01*
X0194828Y0076992D01*
X0194798Y0077148D01*
X0194772Y0077304D01*
X0194751Y0077461D01*
X0194733Y0077618D01*
X0194719Y0077776D01*
X0194709Y0077934D01*
X0194703Y0078092D01*
X0194701Y0078250D01*
X0248189Y0060750D02*
X0248191Y0060847D01*
X0248197Y0060944D01*
X0248207Y0061040D01*
X0248221Y0061136D01*
X0248239Y0061232D01*
X0248260Y0061326D01*
X0248286Y0061420D01*
X0248315Y0061512D01*
X0248349Y0061603D01*
X0248385Y0061693D01*
X0248426Y0061781D01*
X0248470Y0061867D01*
X0248518Y0061952D01*
X0248569Y0062034D01*
X0248623Y0062115D01*
X0248681Y0062193D01*
X0248742Y0062268D01*
X0248805Y0062341D01*
X0248872Y0062412D01*
X0248942Y0062479D01*
X0249014Y0062544D01*
X0249089Y0062605D01*
X0249167Y0062664D01*
X0249246Y0062719D01*
X0249328Y0062771D01*
X0249412Y0062819D01*
X0249498Y0062864D01*
X0249586Y0062906D01*
X0249675Y0062944D01*
X0249766Y0062978D01*
X0249858Y0063008D01*
X0249951Y0063035D01*
X0250046Y0063057D01*
X0250141Y0063076D01*
X0250237Y0063091D01*
X0250333Y0063102D01*
X0250430Y0063109D01*
X0250527Y0063112D01*
X0250624Y0063111D01*
X0250721Y0063106D01*
X0250817Y0063097D01*
X0250913Y0063084D01*
X0251009Y0063067D01*
X0251104Y0063046D01*
X0251197Y0063022D01*
X0251290Y0062993D01*
X0251382Y0062961D01*
X0251472Y0062925D01*
X0251560Y0062886D01*
X0251647Y0062842D01*
X0251732Y0062796D01*
X0251815Y0062745D01*
X0251896Y0062692D01*
X0251974Y0062635D01*
X0252051Y0062575D01*
X0252124Y0062512D01*
X0252195Y0062446D01*
X0252263Y0062377D01*
X0252329Y0062305D01*
X0252391Y0062231D01*
X0252450Y0062154D01*
X0252506Y0062075D01*
X0252559Y0061993D01*
X0252609Y0061910D01*
X0252654Y0061824D01*
X0252697Y0061737D01*
X0252736Y0061648D01*
X0252771Y0061558D01*
X0252802Y0061466D01*
X0252829Y0061373D01*
X0252853Y0061279D01*
X0252873Y0061184D01*
X0252889Y0061088D01*
X0252901Y0060992D01*
X0252909Y0060895D01*
X0252913Y0060798D01*
X0252913Y0060702D01*
X0252909Y0060605D01*
X0252901Y0060508D01*
X0252889Y0060412D01*
X0252873Y0060316D01*
X0252853Y0060221D01*
X0252829Y0060127D01*
X0252802Y0060034D01*
X0252771Y0059942D01*
X0252736Y0059852D01*
X0252697Y0059763D01*
X0252654Y0059676D01*
X0252609Y0059590D01*
X0252559Y0059507D01*
X0252506Y0059425D01*
X0252450Y0059346D01*
X0252391Y0059269D01*
X0252329Y0059195D01*
X0252263Y0059123D01*
X0252195Y0059054D01*
X0252124Y0058988D01*
X0252051Y0058925D01*
X0251974Y0058865D01*
X0251896Y0058808D01*
X0251815Y0058755D01*
X0251732Y0058704D01*
X0251647Y0058658D01*
X0251560Y0058614D01*
X0251472Y0058575D01*
X0251382Y0058539D01*
X0251290Y0058507D01*
X0251197Y0058478D01*
X0251104Y0058454D01*
X0251009Y0058433D01*
X0250913Y0058416D01*
X0250817Y0058403D01*
X0250721Y0058394D01*
X0250624Y0058389D01*
X0250527Y0058388D01*
X0250430Y0058391D01*
X0250333Y0058398D01*
X0250237Y0058409D01*
X0250141Y0058424D01*
X0250046Y0058443D01*
X0249951Y0058465D01*
X0249858Y0058492D01*
X0249766Y0058522D01*
X0249675Y0058556D01*
X0249586Y0058594D01*
X0249498Y0058636D01*
X0249412Y0058681D01*
X0249328Y0058729D01*
X0249246Y0058781D01*
X0249167Y0058836D01*
X0249089Y0058895D01*
X0249014Y0058956D01*
X0248942Y0059021D01*
X0248872Y0059088D01*
X0248805Y0059159D01*
X0248742Y0059232D01*
X0248681Y0059307D01*
X0248623Y0059385D01*
X0248569Y0059466D01*
X0248518Y0059548D01*
X0248470Y0059633D01*
X0248426Y0059719D01*
X0248385Y0059807D01*
X0248349Y0059897D01*
X0248315Y0059988D01*
X0248286Y0060080D01*
X0248260Y0060174D01*
X0248239Y0060268D01*
X0248221Y0060364D01*
X0248207Y0060460D01*
X0248197Y0060556D01*
X0248191Y0060653D01*
X0248189Y0060750D01*
X0248189Y0025750D02*
X0248191Y0025847D01*
X0248197Y0025944D01*
X0248207Y0026040D01*
X0248221Y0026136D01*
X0248239Y0026232D01*
X0248260Y0026326D01*
X0248286Y0026420D01*
X0248315Y0026512D01*
X0248349Y0026603D01*
X0248385Y0026693D01*
X0248426Y0026781D01*
X0248470Y0026867D01*
X0248518Y0026952D01*
X0248569Y0027034D01*
X0248623Y0027115D01*
X0248681Y0027193D01*
X0248742Y0027268D01*
X0248805Y0027341D01*
X0248872Y0027412D01*
X0248942Y0027479D01*
X0249014Y0027544D01*
X0249089Y0027605D01*
X0249167Y0027664D01*
X0249246Y0027719D01*
X0249328Y0027771D01*
X0249412Y0027819D01*
X0249498Y0027864D01*
X0249586Y0027906D01*
X0249675Y0027944D01*
X0249766Y0027978D01*
X0249858Y0028008D01*
X0249951Y0028035D01*
X0250046Y0028057D01*
X0250141Y0028076D01*
X0250237Y0028091D01*
X0250333Y0028102D01*
X0250430Y0028109D01*
X0250527Y0028112D01*
X0250624Y0028111D01*
X0250721Y0028106D01*
X0250817Y0028097D01*
X0250913Y0028084D01*
X0251009Y0028067D01*
X0251104Y0028046D01*
X0251197Y0028022D01*
X0251290Y0027993D01*
X0251382Y0027961D01*
X0251472Y0027925D01*
X0251560Y0027886D01*
X0251647Y0027842D01*
X0251732Y0027796D01*
X0251815Y0027745D01*
X0251896Y0027692D01*
X0251974Y0027635D01*
X0252051Y0027575D01*
X0252124Y0027512D01*
X0252195Y0027446D01*
X0252263Y0027377D01*
X0252329Y0027305D01*
X0252391Y0027231D01*
X0252450Y0027154D01*
X0252506Y0027075D01*
X0252559Y0026993D01*
X0252609Y0026910D01*
X0252654Y0026824D01*
X0252697Y0026737D01*
X0252736Y0026648D01*
X0252771Y0026558D01*
X0252802Y0026466D01*
X0252829Y0026373D01*
X0252853Y0026279D01*
X0252873Y0026184D01*
X0252889Y0026088D01*
X0252901Y0025992D01*
X0252909Y0025895D01*
X0252913Y0025798D01*
X0252913Y0025702D01*
X0252909Y0025605D01*
X0252901Y0025508D01*
X0252889Y0025412D01*
X0252873Y0025316D01*
X0252853Y0025221D01*
X0252829Y0025127D01*
X0252802Y0025034D01*
X0252771Y0024942D01*
X0252736Y0024852D01*
X0252697Y0024763D01*
X0252654Y0024676D01*
X0252609Y0024590D01*
X0252559Y0024507D01*
X0252506Y0024425D01*
X0252450Y0024346D01*
X0252391Y0024269D01*
X0252329Y0024195D01*
X0252263Y0024123D01*
X0252195Y0024054D01*
X0252124Y0023988D01*
X0252051Y0023925D01*
X0251974Y0023865D01*
X0251896Y0023808D01*
X0251815Y0023755D01*
X0251732Y0023704D01*
X0251647Y0023658D01*
X0251560Y0023614D01*
X0251472Y0023575D01*
X0251382Y0023539D01*
X0251290Y0023507D01*
X0251197Y0023478D01*
X0251104Y0023454D01*
X0251009Y0023433D01*
X0250913Y0023416D01*
X0250817Y0023403D01*
X0250721Y0023394D01*
X0250624Y0023389D01*
X0250527Y0023388D01*
X0250430Y0023391D01*
X0250333Y0023398D01*
X0250237Y0023409D01*
X0250141Y0023424D01*
X0250046Y0023443D01*
X0249951Y0023465D01*
X0249858Y0023492D01*
X0249766Y0023522D01*
X0249675Y0023556D01*
X0249586Y0023594D01*
X0249498Y0023636D01*
X0249412Y0023681D01*
X0249328Y0023729D01*
X0249246Y0023781D01*
X0249167Y0023836D01*
X0249089Y0023895D01*
X0249014Y0023956D01*
X0248942Y0024021D01*
X0248872Y0024088D01*
X0248805Y0024159D01*
X0248742Y0024232D01*
X0248681Y0024307D01*
X0248623Y0024385D01*
X0248569Y0024466D01*
X0248518Y0024548D01*
X0248470Y0024633D01*
X0248426Y0024719D01*
X0248385Y0024807D01*
X0248349Y0024897D01*
X0248315Y0024988D01*
X0248286Y0025080D01*
X0248260Y0025174D01*
X0248239Y0025268D01*
X0248221Y0025364D01*
X0248207Y0025460D01*
X0248197Y0025556D01*
X0248191Y0025653D01*
X0248189Y0025750D01*
X0248189Y0095750D02*
X0248191Y0095847D01*
X0248197Y0095944D01*
X0248207Y0096040D01*
X0248221Y0096136D01*
X0248239Y0096232D01*
X0248260Y0096326D01*
X0248286Y0096420D01*
X0248315Y0096512D01*
X0248349Y0096603D01*
X0248385Y0096693D01*
X0248426Y0096781D01*
X0248470Y0096867D01*
X0248518Y0096952D01*
X0248569Y0097034D01*
X0248623Y0097115D01*
X0248681Y0097193D01*
X0248742Y0097268D01*
X0248805Y0097341D01*
X0248872Y0097412D01*
X0248942Y0097479D01*
X0249014Y0097544D01*
X0249089Y0097605D01*
X0249167Y0097664D01*
X0249246Y0097719D01*
X0249328Y0097771D01*
X0249412Y0097819D01*
X0249498Y0097864D01*
X0249586Y0097906D01*
X0249675Y0097944D01*
X0249766Y0097978D01*
X0249858Y0098008D01*
X0249951Y0098035D01*
X0250046Y0098057D01*
X0250141Y0098076D01*
X0250237Y0098091D01*
X0250333Y0098102D01*
X0250430Y0098109D01*
X0250527Y0098112D01*
X0250624Y0098111D01*
X0250721Y0098106D01*
X0250817Y0098097D01*
X0250913Y0098084D01*
X0251009Y0098067D01*
X0251104Y0098046D01*
X0251197Y0098022D01*
X0251290Y0097993D01*
X0251382Y0097961D01*
X0251472Y0097925D01*
X0251560Y0097886D01*
X0251647Y0097842D01*
X0251732Y0097796D01*
X0251815Y0097745D01*
X0251896Y0097692D01*
X0251974Y0097635D01*
X0252051Y0097575D01*
X0252124Y0097512D01*
X0252195Y0097446D01*
X0252263Y0097377D01*
X0252329Y0097305D01*
X0252391Y0097231D01*
X0252450Y0097154D01*
X0252506Y0097075D01*
X0252559Y0096993D01*
X0252609Y0096910D01*
X0252654Y0096824D01*
X0252697Y0096737D01*
X0252736Y0096648D01*
X0252771Y0096558D01*
X0252802Y0096466D01*
X0252829Y0096373D01*
X0252853Y0096279D01*
X0252873Y0096184D01*
X0252889Y0096088D01*
X0252901Y0095992D01*
X0252909Y0095895D01*
X0252913Y0095798D01*
X0252913Y0095702D01*
X0252909Y0095605D01*
X0252901Y0095508D01*
X0252889Y0095412D01*
X0252873Y0095316D01*
X0252853Y0095221D01*
X0252829Y0095127D01*
X0252802Y0095034D01*
X0252771Y0094942D01*
X0252736Y0094852D01*
X0252697Y0094763D01*
X0252654Y0094676D01*
X0252609Y0094590D01*
X0252559Y0094507D01*
X0252506Y0094425D01*
X0252450Y0094346D01*
X0252391Y0094269D01*
X0252329Y0094195D01*
X0252263Y0094123D01*
X0252195Y0094054D01*
X0252124Y0093988D01*
X0252051Y0093925D01*
X0251974Y0093865D01*
X0251896Y0093808D01*
X0251815Y0093755D01*
X0251732Y0093704D01*
X0251647Y0093658D01*
X0251560Y0093614D01*
X0251472Y0093575D01*
X0251382Y0093539D01*
X0251290Y0093507D01*
X0251197Y0093478D01*
X0251104Y0093454D01*
X0251009Y0093433D01*
X0250913Y0093416D01*
X0250817Y0093403D01*
X0250721Y0093394D01*
X0250624Y0093389D01*
X0250527Y0093388D01*
X0250430Y0093391D01*
X0250333Y0093398D01*
X0250237Y0093409D01*
X0250141Y0093424D01*
X0250046Y0093443D01*
X0249951Y0093465D01*
X0249858Y0093492D01*
X0249766Y0093522D01*
X0249675Y0093556D01*
X0249586Y0093594D01*
X0249498Y0093636D01*
X0249412Y0093681D01*
X0249328Y0093729D01*
X0249246Y0093781D01*
X0249167Y0093836D01*
X0249089Y0093895D01*
X0249014Y0093956D01*
X0248942Y0094021D01*
X0248872Y0094088D01*
X0248805Y0094159D01*
X0248742Y0094232D01*
X0248681Y0094307D01*
X0248623Y0094385D01*
X0248569Y0094466D01*
X0248518Y0094548D01*
X0248470Y0094633D01*
X0248426Y0094719D01*
X0248385Y0094807D01*
X0248349Y0094897D01*
X0248315Y0094988D01*
X0248286Y0095080D01*
X0248260Y0095174D01*
X0248239Y0095268D01*
X0248221Y0095364D01*
X0248207Y0095460D01*
X0248197Y0095556D01*
X0248191Y0095653D01*
X0248189Y0095750D01*
X0024701Y0248250D02*
X0024703Y0248408D01*
X0024709Y0248566D01*
X0024719Y0248724D01*
X0024733Y0248882D01*
X0024751Y0249039D01*
X0024772Y0249196D01*
X0024798Y0249352D01*
X0024828Y0249508D01*
X0024861Y0249663D01*
X0024899Y0249816D01*
X0024940Y0249969D01*
X0024985Y0250121D01*
X0025034Y0250272D01*
X0025087Y0250421D01*
X0025143Y0250569D01*
X0025203Y0250715D01*
X0025267Y0250860D01*
X0025335Y0251003D01*
X0025406Y0251145D01*
X0025480Y0251285D01*
X0025558Y0251422D01*
X0025640Y0251558D01*
X0025724Y0251692D01*
X0025813Y0251823D01*
X0025904Y0251952D01*
X0025999Y0252079D01*
X0026096Y0252204D01*
X0026197Y0252326D01*
X0026301Y0252445D01*
X0026408Y0252562D01*
X0026518Y0252676D01*
X0026631Y0252787D01*
X0026746Y0252896D01*
X0026864Y0253001D01*
X0026985Y0253103D01*
X0027108Y0253203D01*
X0027234Y0253299D01*
X0027362Y0253392D01*
X0027492Y0253482D01*
X0027625Y0253568D01*
X0027760Y0253652D01*
X0027896Y0253731D01*
X0028035Y0253808D01*
X0028176Y0253880D01*
X0028318Y0253950D01*
X0028462Y0254015D01*
X0028608Y0254077D01*
X0028755Y0254135D01*
X0028904Y0254190D01*
X0029054Y0254241D01*
X0029205Y0254288D01*
X0029357Y0254331D01*
X0029510Y0254370D01*
X0029665Y0254406D01*
X0029820Y0254437D01*
X0029976Y0254465D01*
X0030132Y0254489D01*
X0030289Y0254509D01*
X0030447Y0254525D01*
X0030604Y0254537D01*
X0030763Y0254545D01*
X0030921Y0254549D01*
X0031079Y0254549D01*
X0031237Y0254545D01*
X0031396Y0254537D01*
X0031553Y0254525D01*
X0031711Y0254509D01*
X0031868Y0254489D01*
X0032024Y0254465D01*
X0032180Y0254437D01*
X0032335Y0254406D01*
X0032490Y0254370D01*
X0032643Y0254331D01*
X0032795Y0254288D01*
X0032946Y0254241D01*
X0033096Y0254190D01*
X0033245Y0254135D01*
X0033392Y0254077D01*
X0033538Y0254015D01*
X0033682Y0253950D01*
X0033824Y0253880D01*
X0033965Y0253808D01*
X0034104Y0253731D01*
X0034240Y0253652D01*
X0034375Y0253568D01*
X0034508Y0253482D01*
X0034638Y0253392D01*
X0034766Y0253299D01*
X0034892Y0253203D01*
X0035015Y0253103D01*
X0035136Y0253001D01*
X0035254Y0252896D01*
X0035369Y0252787D01*
X0035482Y0252676D01*
X0035592Y0252562D01*
X0035699Y0252445D01*
X0035803Y0252326D01*
X0035904Y0252204D01*
X0036001Y0252079D01*
X0036096Y0251952D01*
X0036187Y0251823D01*
X0036276Y0251692D01*
X0036360Y0251558D01*
X0036442Y0251422D01*
X0036520Y0251285D01*
X0036594Y0251145D01*
X0036665Y0251003D01*
X0036733Y0250860D01*
X0036797Y0250715D01*
X0036857Y0250569D01*
X0036913Y0250421D01*
X0036966Y0250272D01*
X0037015Y0250121D01*
X0037060Y0249969D01*
X0037101Y0249816D01*
X0037139Y0249663D01*
X0037172Y0249508D01*
X0037202Y0249352D01*
X0037228Y0249196D01*
X0037249Y0249039D01*
X0037267Y0248882D01*
X0037281Y0248724D01*
X0037291Y0248566D01*
X0037297Y0248408D01*
X0037299Y0248250D01*
X0037297Y0248092D01*
X0037291Y0247934D01*
X0037281Y0247776D01*
X0037267Y0247618D01*
X0037249Y0247461D01*
X0037228Y0247304D01*
X0037202Y0247148D01*
X0037172Y0246992D01*
X0037139Y0246837D01*
X0037101Y0246684D01*
X0037060Y0246531D01*
X0037015Y0246379D01*
X0036966Y0246228D01*
X0036913Y0246079D01*
X0036857Y0245931D01*
X0036797Y0245785D01*
X0036733Y0245640D01*
X0036665Y0245497D01*
X0036594Y0245355D01*
X0036520Y0245215D01*
X0036442Y0245078D01*
X0036360Y0244942D01*
X0036276Y0244808D01*
X0036187Y0244677D01*
X0036096Y0244548D01*
X0036001Y0244421D01*
X0035904Y0244296D01*
X0035803Y0244174D01*
X0035699Y0244055D01*
X0035592Y0243938D01*
X0035482Y0243824D01*
X0035369Y0243713D01*
X0035254Y0243604D01*
X0035136Y0243499D01*
X0035015Y0243397D01*
X0034892Y0243297D01*
X0034766Y0243201D01*
X0034638Y0243108D01*
X0034508Y0243018D01*
X0034375Y0242932D01*
X0034240Y0242848D01*
X0034104Y0242769D01*
X0033965Y0242692D01*
X0033824Y0242620D01*
X0033682Y0242550D01*
X0033538Y0242485D01*
X0033392Y0242423D01*
X0033245Y0242365D01*
X0033096Y0242310D01*
X0032946Y0242259D01*
X0032795Y0242212D01*
X0032643Y0242169D01*
X0032490Y0242130D01*
X0032335Y0242094D01*
X0032180Y0242063D01*
X0032024Y0242035D01*
X0031868Y0242011D01*
X0031711Y0241991D01*
X0031553Y0241975D01*
X0031396Y0241963D01*
X0031237Y0241955D01*
X0031079Y0241951D01*
X0030921Y0241951D01*
X0030763Y0241955D01*
X0030604Y0241963D01*
X0030447Y0241975D01*
X0030289Y0241991D01*
X0030132Y0242011D01*
X0029976Y0242035D01*
X0029820Y0242063D01*
X0029665Y0242094D01*
X0029510Y0242130D01*
X0029357Y0242169D01*
X0029205Y0242212D01*
X0029054Y0242259D01*
X0028904Y0242310D01*
X0028755Y0242365D01*
X0028608Y0242423D01*
X0028462Y0242485D01*
X0028318Y0242550D01*
X0028176Y0242620D01*
X0028035Y0242692D01*
X0027896Y0242769D01*
X0027760Y0242848D01*
X0027625Y0242932D01*
X0027492Y0243018D01*
X0027362Y0243108D01*
X0027234Y0243201D01*
X0027108Y0243297D01*
X0026985Y0243397D01*
X0026864Y0243499D01*
X0026746Y0243604D01*
X0026631Y0243713D01*
X0026518Y0243824D01*
X0026408Y0243938D01*
X0026301Y0244055D01*
X0026197Y0244174D01*
X0026096Y0244296D01*
X0025999Y0244421D01*
X0025904Y0244548D01*
X0025813Y0244677D01*
X0025724Y0244808D01*
X0025640Y0244942D01*
X0025558Y0245078D01*
X0025480Y0245215D01*
X0025406Y0245355D01*
X0025335Y0245497D01*
X0025267Y0245640D01*
X0025203Y0245785D01*
X0025143Y0245931D01*
X0025087Y0246079D01*
X0025034Y0246228D01*
X0024985Y0246379D01*
X0024940Y0246531D01*
X0024899Y0246684D01*
X0024861Y0246837D01*
X0024828Y0246992D01*
X0024798Y0247148D01*
X0024772Y0247304D01*
X0024751Y0247461D01*
X0024733Y0247618D01*
X0024719Y0247776D01*
X0024709Y0247934D01*
X0024703Y0248092D01*
X0024701Y0248250D01*
M02*
