G75*
%MOIN*%
%OFA0B0*%
%FSLAX25Y25*%
%IPPOS*%
%LPD*%
%AMOC8*
5,1,8,0,0,1.08239X$1,22.5*
%
%ADD10R,0.03543X0.02756*%
%ADD11R,0.03937X0.05512*%
%ADD12R,0.02953X0.05512*%
%ADD13R,0.06299X0.11811*%
%ADD14R,0.22835X0.24409*%
%ADD15R,0.06299X0.05512*%
%ADD16R,0.05512X0.11811*%
%ADD17R,0.02756X0.03543*%
%ADD18R,0.02200X0.04700*%
%ADD19R,0.04700X0.02200*%
%ADD20R,0.05118X0.04134*%
%ADD21R,0.05512X0.05512*%
%ADD22R,0.22000X0.09000*%
%ADD23C,0.03346*%
%ADD24R,0.04724X0.02165*%
%ADD25C,0.00583*%
%ADD26R,0.02913X0.11024*%
%ADD27C,0.01181*%
%ADD28R,0.02756X0.01772*%
%ADD29R,0.05512X0.06299*%
%ADD30R,0.02362X0.04331*%
%ADD31R,0.07098X0.06299*%
%ADD32R,0.03268X0.02480*%
%ADD33R,0.05000X0.08268*%
%ADD34R,0.06890X0.01575*%
%ADD35R,0.09843X0.05610*%
%ADD36C,0.00500*%
%ADD37C,0.01000*%
D10*
X0140000Y0119691D03*
X0140000Y0124809D03*
X0163000Y0124691D03*
X0163000Y0129809D03*
X0252000Y0170691D03*
X0252000Y0175809D03*
X0181000Y0236066D03*
X0181000Y0241184D03*
X0180000Y0249691D03*
X0180000Y0254809D03*
X0082116Y0241711D03*
X0082116Y0236593D03*
X0060000Y0236691D03*
X0060000Y0241809D03*
D11*
X0121260Y0161581D03*
X0128740Y0161581D03*
X0125000Y0152919D03*
X0135260Y0152919D03*
X0142740Y0152919D03*
X0139000Y0161581D03*
X0127000Y0129581D03*
X0123260Y0120919D03*
X0116740Y0120919D03*
X0109260Y0120919D03*
X0113000Y0129581D03*
X0130740Y0120919D03*
D12*
X0025500Y0073833D03*
X0030500Y0073833D03*
X0035500Y0073833D03*
X0040500Y0073833D03*
X0040500Y0096667D03*
X0035500Y0096667D03*
X0030500Y0096667D03*
X0025500Y0096667D03*
D13*
X0112004Y0073967D03*
X0129996Y0073967D03*
D14*
X0121000Y0102234D03*
D15*
X0143000Y0082387D03*
X0143000Y0071363D03*
X0148000Y0239738D03*
X0148000Y0250762D03*
D16*
X0066000Y0092699D03*
X0066000Y0073801D03*
D17*
X0070441Y0105250D03*
X0075559Y0105250D03*
X0133566Y0138000D03*
X0138684Y0138000D03*
X0131559Y0175250D03*
X0131559Y0180250D03*
X0131559Y0185250D03*
X0131559Y0190250D03*
X0126441Y0190250D03*
X0126441Y0185250D03*
X0126441Y0180250D03*
X0126441Y0175250D03*
D18*
X0110622Y0164541D03*
X0107472Y0164541D03*
X0104323Y0164541D03*
X0101173Y0164541D03*
X0098024Y0164541D03*
X0094874Y0164541D03*
X0091724Y0164541D03*
X0088575Y0164541D03*
X0085425Y0164541D03*
X0082276Y0164541D03*
X0079126Y0164541D03*
X0075976Y0164541D03*
X0072827Y0164541D03*
X0069677Y0164541D03*
X0066528Y0164541D03*
X0063378Y0164541D03*
X0063378Y0225959D03*
X0066528Y0225959D03*
X0069677Y0225959D03*
X0072827Y0225959D03*
X0075976Y0225959D03*
X0079126Y0225959D03*
X0082276Y0225959D03*
X0085425Y0225959D03*
X0088575Y0225959D03*
X0091724Y0225959D03*
X0094874Y0225959D03*
X0098024Y0225959D03*
X0101173Y0225959D03*
X0104323Y0225959D03*
X0107472Y0225959D03*
X0110622Y0225959D03*
D19*
X0117709Y0218872D03*
X0117709Y0215722D03*
X0117709Y0212573D03*
X0117709Y0209423D03*
X0117709Y0206274D03*
X0117709Y0203124D03*
X0117709Y0199974D03*
X0117709Y0196825D03*
X0117709Y0193675D03*
X0117709Y0190526D03*
X0117709Y0187376D03*
X0117709Y0184226D03*
X0117709Y0181077D03*
X0117709Y0177927D03*
X0117709Y0174778D03*
X0117709Y0171628D03*
X0056291Y0171628D03*
X0056291Y0174778D03*
X0056291Y0177927D03*
X0056291Y0181077D03*
X0056291Y0184226D03*
X0056291Y0187376D03*
X0056291Y0190526D03*
X0056291Y0193675D03*
X0056291Y0196825D03*
X0056291Y0199974D03*
X0056291Y0203124D03*
X0056291Y0206274D03*
X0056291Y0209423D03*
X0056291Y0212573D03*
X0056291Y0215722D03*
X0056291Y0218872D03*
D20*
X0066472Y0235608D03*
X0066472Y0242892D03*
X0075528Y0242892D03*
X0075528Y0235608D03*
D21*
X0085520Y0115250D03*
X0100480Y0115250D03*
X0058480Y0111250D03*
X0043520Y0111250D03*
D22*
X0092875Y0101500D03*
X0092875Y0072500D03*
D23*
X0216676Y0185388D02*
X0216676Y0193852D01*
X0221597Y0193852D02*
X0221597Y0185388D01*
X0226518Y0185388D02*
X0226518Y0193852D01*
X0231439Y0193852D02*
X0231439Y0185388D01*
X0236361Y0185388D02*
X0236361Y0193852D01*
X0241282Y0193852D02*
X0241282Y0185388D01*
X0246203Y0185388D02*
X0246203Y0193852D01*
X0251124Y0193852D02*
X0251124Y0185388D01*
X0253388Y0198281D02*
X0261852Y0198281D01*
X0261852Y0203203D02*
X0253388Y0203203D01*
X0253388Y0208124D02*
X0261852Y0208124D01*
X0261852Y0213045D02*
X0253388Y0213045D01*
X0253388Y0217967D02*
X0261852Y0217967D01*
X0261852Y0222888D02*
X0253388Y0222888D01*
X0253388Y0227809D02*
X0261852Y0227809D01*
X0261852Y0232730D02*
X0253388Y0232730D01*
X0253388Y0237652D02*
X0261852Y0237652D01*
X0214412Y0237652D02*
X0205948Y0237652D01*
X0205948Y0232730D02*
X0214412Y0232730D01*
X0214412Y0227809D02*
X0205948Y0227809D01*
X0205948Y0222888D02*
X0214412Y0222888D01*
X0214412Y0217967D02*
X0205948Y0217967D01*
X0205948Y0213045D02*
X0214412Y0213045D01*
X0214412Y0208124D02*
X0205948Y0208124D01*
X0205948Y0203203D02*
X0214412Y0203203D01*
X0214412Y0198281D02*
X0205948Y0198281D01*
X0205948Y0242573D02*
X0214412Y0242573D01*
X0214412Y0247494D02*
X0205948Y0247494D01*
X0205948Y0252415D02*
X0214412Y0252415D01*
X0214412Y0257337D02*
X0205948Y0257337D01*
D24*
X0168119Y0245990D03*
X0168119Y0238510D03*
X0157881Y0238510D03*
X0157881Y0242250D03*
X0157881Y0245990D03*
D25*
X0227835Y0178463D02*
X0227835Y0168021D01*
X0227835Y0178463D02*
X0230165Y0178463D01*
X0230165Y0168021D01*
X0227835Y0168021D01*
X0227835Y0168603D02*
X0230165Y0168603D01*
X0230165Y0169185D02*
X0227835Y0169185D01*
X0227835Y0169767D02*
X0230165Y0169767D01*
X0230165Y0170349D02*
X0227835Y0170349D01*
X0227835Y0170931D02*
X0230165Y0170931D01*
X0230165Y0171513D02*
X0227835Y0171513D01*
X0227835Y0172095D02*
X0230165Y0172095D01*
X0230165Y0172677D02*
X0227835Y0172677D01*
X0227835Y0173259D02*
X0230165Y0173259D01*
X0230165Y0173841D02*
X0227835Y0173841D01*
X0227835Y0174423D02*
X0230165Y0174423D01*
X0230165Y0175005D02*
X0227835Y0175005D01*
X0227835Y0175587D02*
X0230165Y0175587D01*
X0230165Y0176169D02*
X0227835Y0176169D01*
X0227835Y0176751D02*
X0230165Y0176751D01*
X0230165Y0177333D02*
X0227835Y0177333D01*
X0227835Y0177915D02*
X0230165Y0177915D01*
D26*
X0224000Y0173242D03*
X0219000Y0173242D03*
X0214000Y0173242D03*
X0209000Y0173242D03*
X0209000Y0157258D03*
X0214000Y0157258D03*
X0219000Y0157258D03*
X0224000Y0157258D03*
X0229000Y0157258D03*
D27*
X0218075Y0019628D02*
X0218075Y0016872D01*
X0218075Y0019628D02*
X0220831Y0019628D01*
X0220831Y0016872D01*
X0218075Y0016872D01*
X0218075Y0018052D02*
X0220831Y0018052D01*
X0220831Y0019232D02*
X0218075Y0019232D01*
X0211169Y0019628D02*
X0211169Y0016872D01*
X0211169Y0019628D02*
X0213925Y0019628D01*
X0213925Y0016872D01*
X0211169Y0016872D01*
X0211169Y0018052D02*
X0213925Y0018052D01*
X0213925Y0019232D02*
X0211169Y0019232D01*
D28*
X0220276Y0101510D03*
X0220276Y0105250D03*
X0220276Y0108990D03*
X0229724Y0108990D03*
X0229724Y0105250D03*
X0229724Y0101510D03*
X0227724Y0129510D03*
X0227724Y0133250D03*
X0227724Y0136990D03*
X0218276Y0136990D03*
X0218276Y0133250D03*
X0218276Y0129510D03*
D29*
X0219488Y0120250D03*
X0230512Y0120250D03*
D30*
X0014740Y0137935D03*
X0011000Y0137935D03*
X0007260Y0137935D03*
X0007260Y0148565D03*
X0011000Y0148565D03*
X0014740Y0148565D03*
D31*
X0011000Y0113848D03*
X0011000Y0102652D03*
D32*
X0153000Y0148722D03*
X0153000Y0157778D03*
D33*
X0208185Y0048250D03*
X0223815Y0048250D03*
X0223815Y0033250D03*
X0208185Y0033250D03*
D34*
X0246571Y0143132D03*
X0246571Y0145691D03*
X0246571Y0148250D03*
X0246571Y0150809D03*
X0246571Y0153368D03*
D35*
X0259484Y0152039D03*
X0259484Y0144461D03*
D36*
X0258500Y0139982D02*
X0257516Y0139982D01*
X0257319Y0135061D02*
X0258500Y0135061D01*
D37*
X0262600Y0135068D02*
X0250600Y0135068D01*
X0250600Y0134070D02*
X0253100Y0134070D01*
X0253100Y0135050D02*
X0253100Y0133050D01*
X0250600Y0133050D01*
X0250600Y0139850D01*
X0262600Y0139850D01*
X0262600Y0135050D01*
X0253100Y0135050D01*
X0253100Y0133071D02*
X0250600Y0133071D01*
X0249000Y0133350D02*
X0244400Y0133350D01*
X0244400Y0140250D01*
X0249000Y0140250D01*
X0249000Y0133350D01*
X0249000Y0134070D02*
X0244400Y0134070D01*
X0244400Y0135068D02*
X0249000Y0135068D01*
X0249000Y0136067D02*
X0244400Y0136067D01*
X0244400Y0137065D02*
X0249000Y0137065D01*
X0249000Y0138064D02*
X0244400Y0138064D01*
X0244400Y0139062D02*
X0249000Y0139062D01*
X0249000Y0140061D02*
X0244400Y0140061D01*
X0250600Y0139062D02*
X0262600Y0139062D01*
X0262600Y0138064D02*
X0250600Y0138064D01*
X0250600Y0137065D02*
X0262600Y0137065D01*
X0262600Y0136067D02*
X0250600Y0136067D01*
X0249000Y0156150D02*
X0244400Y0156150D01*
X0244400Y0163150D01*
X0249000Y0163150D01*
X0249000Y0156150D01*
X0249000Y0157036D02*
X0244400Y0157036D01*
X0244400Y0158034D02*
X0249000Y0158034D01*
X0249000Y0159033D02*
X0244400Y0159033D01*
X0244400Y0160031D02*
X0249000Y0160031D01*
X0249000Y0161030D02*
X0244400Y0161030D01*
X0244400Y0162028D02*
X0249000Y0162028D01*
X0249000Y0163027D02*
X0244400Y0163027D01*
X0250700Y0163027D02*
X0252900Y0163027D01*
X0252900Y0163350D02*
X0252900Y0161250D01*
X0262600Y0161250D01*
X0262600Y0156650D01*
X0250700Y0156650D01*
X0250700Y0163350D01*
X0252900Y0163350D01*
X0252900Y0162028D02*
X0250700Y0162028D01*
X0250700Y0161030D02*
X0262600Y0161030D01*
X0262600Y0160031D02*
X0250700Y0160031D01*
X0250700Y0159033D02*
X0262600Y0159033D01*
X0262600Y0158034D02*
X0250700Y0158034D01*
X0250700Y0157036D02*
X0262600Y0157036D01*
M02*
