G75*
%MOIN*%
%OFA0B0*%
%FSLAX25Y25*%
%IPPOS*%
%LPD*%
%AMOC8*
5,1,8,0,0,1.08239X$1,22.5*
%
%ADD10C,0.06000*%
%ADD11C,0.04750*%
%ADD12C,0.09449*%
%ADD13C,0.17000*%
%ADD14C,0.14764*%
%ADD15C,0.17717*%
%ADD16C,0.06600*%
%ADD17C,0.05906*%
%ADD18C,0.07400*%
%ADD19C,0.02600*%
%ADD20C,0.04356*%
%ADD21C,0.03962*%
%ADD22C,0.01200*%
%ADD23C,0.01600*%
D10*
X0139000Y0200250D03*
X0149000Y0200250D03*
X0149000Y0210250D03*
X0139000Y0210250D03*
X0159000Y0210250D03*
X0159000Y0200250D03*
D11*
X0246571Y0157797D03*
X0246571Y0138703D03*
X0190016Y0059234D03*
X0181000Y0059234D03*
X0172969Y0040258D03*
X0164976Y0040258D03*
X0156984Y0040258D03*
X0148992Y0040258D03*
X0153008Y0033250D03*
X0161000Y0033250D03*
X0168992Y0033250D03*
X0176984Y0033250D03*
X0145016Y0059234D03*
X0136000Y0059234D03*
X0128008Y0059234D03*
X0118992Y0059234D03*
X0121000Y0075250D03*
X0119000Y0085250D03*
X0126000Y0085250D03*
X0083008Y0059234D03*
X0073992Y0059234D03*
X0086984Y0040258D03*
X0094976Y0040258D03*
X0102969Y0040258D03*
X0110961Y0040258D03*
X0106984Y0033250D03*
X0098992Y0033250D03*
X0091000Y0033250D03*
X0114976Y0033250D03*
D12*
X0069012Y0036754D03*
X0194996Y0036754D03*
D13*
X0035375Y0031571D03*
D14*
X0053879Y0043579D03*
D15*
X0035375Y0055390D03*
D16*
X0260000Y0060750D03*
X0260000Y0025750D03*
X0260000Y0095750D03*
D17*
X0240709Y0088467D03*
X0232835Y0095750D03*
X0240709Y0103033D03*
X0240709Y0068033D03*
X0232835Y0060750D03*
X0240709Y0053467D03*
X0240709Y0033033D03*
X0232835Y0025750D03*
X0240709Y0018467D03*
X0258500Y0137522D03*
X0258500Y0158978D03*
D18*
X0191000Y0163250D03*
X0191000Y0153250D03*
X0191000Y0143250D03*
X0191000Y0133250D03*
X0191000Y0123250D03*
X0191000Y0113250D03*
X0191000Y0173250D03*
X0191000Y0183250D03*
X0191000Y0193250D03*
X0191000Y0203250D03*
X0191000Y0213250D03*
X0191000Y0223250D03*
X0026000Y0223250D03*
X0026000Y0213250D03*
X0026000Y0203250D03*
X0026000Y0193250D03*
X0026000Y0183250D03*
X0026000Y0173250D03*
X0026000Y0163250D03*
X0026000Y0153250D03*
X0026000Y0143250D03*
X0026000Y0133250D03*
X0026000Y0123250D03*
X0026000Y0113250D03*
D19*
X0025500Y0103250D03*
X0017000Y0105250D03*
X0039000Y0106250D03*
X0041000Y0091250D03*
X0069000Y0065250D03*
X0069000Y0051250D03*
X0079000Y0041250D03*
X0087000Y0028250D03*
X0091000Y0017250D03*
X0103000Y0020750D03*
X0115000Y0023250D03*
X0149000Y0026250D03*
X0153008Y0017258D03*
X0165000Y0020250D03*
X0177000Y0023250D03*
X0185000Y0035250D03*
X0168000Y0052250D03*
X0165000Y0060691D03*
X0185000Y0066250D03*
X0185000Y0077250D03*
X0167000Y0090250D03*
X0165000Y0087250D03*
X0167000Y0098250D03*
X0181000Y0107250D03*
X0184000Y0109250D03*
X0200000Y0101250D03*
X0215000Y0101250D03*
X0220000Y0098250D03*
X0224500Y0102250D03*
X0225000Y0107250D03*
X0217000Y0107250D03*
X0225500Y0120250D03*
X0215000Y0127250D03*
X0223000Y0135250D03*
X0233000Y0133250D03*
X0233000Y0137250D03*
X0237000Y0139250D03*
X0236000Y0131250D03*
X0239000Y0124750D03*
X0252500Y0145250D03*
X0252500Y0149250D03*
X0239000Y0153250D03*
X0235000Y0154250D03*
X0232000Y0150250D03*
X0235000Y0165250D03*
X0235000Y0173250D03*
X0224000Y0165250D03*
X0224000Y0181250D03*
X0212000Y0184250D03*
X0201000Y0181250D03*
X0198000Y0184250D03*
X0183000Y0189250D03*
X0170000Y0179250D03*
X0162000Y0175250D03*
X0150000Y0175250D03*
X0149000Y0179250D03*
X0147000Y0186250D03*
X0139000Y0189250D03*
X0135000Y0189250D03*
X0125000Y0194250D03*
X0123000Y0197250D03*
X0122976Y0206274D03*
X0112500Y0207250D03*
X0108000Y0217250D03*
X0095000Y0220250D03*
X0095000Y0212250D03*
X0095000Y0207250D03*
X0098000Y0199250D03*
X0112500Y0189250D03*
X0110622Y0182628D03*
X0112000Y0177250D03*
X0109000Y0174250D03*
X0108000Y0170250D03*
X0105000Y0174250D03*
X0102000Y0170250D03*
X0112000Y0170250D03*
X0121000Y0167250D03*
X0105000Y0158250D03*
X0093000Y0156250D03*
X0090000Y0154250D03*
X0087000Y0159250D03*
X0084000Y0152250D03*
X0078000Y0148250D03*
X0075000Y0145250D03*
X0071000Y0141250D03*
X0058000Y0134250D03*
X0052000Y0131250D03*
X0055000Y0125250D03*
X0058000Y0120250D03*
X0069000Y0119250D03*
X0079000Y0125250D03*
X0089000Y0134250D03*
X0094000Y0142250D03*
X0090000Y0144250D03*
X0101000Y0136250D03*
X0098000Y0121250D03*
X0093000Y0121250D03*
X0105000Y0121250D03*
X0099000Y0109250D03*
X0095000Y0109250D03*
X0091000Y0109250D03*
X0079000Y0099250D03*
X0089000Y0093250D03*
X0089000Y0081250D03*
X0074000Y0079250D03*
X0101000Y0055250D03*
X0145000Y0089250D03*
X0149000Y0111250D03*
X0135000Y0113250D03*
X0127000Y0116750D03*
X0120000Y0125250D03*
X0118000Y0130250D03*
X0117000Y0133750D03*
X0125000Y0142250D03*
X0129000Y0139250D03*
X0134000Y0142250D03*
X0143000Y0142250D03*
X0143000Y0138250D03*
X0153000Y0138250D03*
X0153000Y0142250D03*
X0161000Y0138250D03*
X0170000Y0128250D03*
X0175000Y0125250D03*
X0184000Y0132250D03*
X0181000Y0141250D03*
X0183000Y0152250D03*
X0169000Y0161250D03*
X0152000Y0161250D03*
X0143000Y0162250D03*
X0139000Y0179250D03*
X0156000Y0191750D03*
X0170000Y0210250D03*
X0175000Y0217250D03*
X0167000Y0225250D03*
X0163000Y0217250D03*
X0157000Y0230250D03*
X0147000Y0232250D03*
X0142000Y0224250D03*
X0140000Y0217250D03*
X0131000Y0217250D03*
X0128000Y0227250D03*
X0118000Y0227250D03*
X0109000Y0234250D03*
X0101000Y0231250D03*
X0094000Y0231250D03*
X0087000Y0237250D03*
X0093000Y0245250D03*
X0087000Y0249250D03*
X0075000Y0249250D03*
X0063000Y0249250D03*
X0049000Y0252250D03*
X0063000Y0231250D03*
X0073000Y0220250D03*
X0081000Y0220750D03*
X0072000Y0212250D03*
X0061500Y0215250D03*
X0061500Y0219250D03*
X0051000Y0209250D03*
X0047000Y0206250D03*
X0051000Y0203250D03*
X0047000Y0199250D03*
X0052000Y0190250D03*
X0052000Y0184250D03*
X0062000Y0187250D03*
X0062000Y0193250D03*
X0075000Y0190250D03*
X0080000Y0196250D03*
X0070000Y0180250D03*
X0062000Y0177250D03*
X0064000Y0169750D03*
X0061000Y0159250D03*
X0069000Y0159250D03*
X0076000Y0159250D03*
X0076000Y0169750D03*
X0081000Y0169750D03*
X0082000Y0175250D03*
X0087000Y0169750D03*
X0095000Y0180250D03*
X0098000Y0184250D03*
X0055000Y0149250D03*
X0052000Y0153250D03*
X0049000Y0158250D03*
X0042000Y0158250D03*
X0033000Y0166250D03*
X0017000Y0155250D03*
X0009000Y0159250D03*
X0009000Y0168250D03*
X0011000Y0143250D03*
X0010000Y0132250D03*
X0052000Y0137750D03*
X0052000Y0169250D03*
X0049000Y0173250D03*
X0039000Y0183250D03*
X0039000Y0190250D03*
X0033000Y0193250D03*
X0036000Y0199250D03*
X0033000Y0203250D03*
X0047000Y0213250D03*
X0042000Y0223250D03*
X0109000Y0249250D03*
X0123000Y0239250D03*
X0128000Y0244250D03*
X0131000Y0247250D03*
X0138000Y0256250D03*
X0141000Y0241250D03*
X0138000Y0235250D03*
X0160000Y0251250D03*
X0163000Y0245250D03*
X0175000Y0231250D03*
X0186000Y0236250D03*
X0198000Y0221250D03*
X0218000Y0216250D03*
X0219000Y0211250D03*
X0227000Y0211250D03*
X0224000Y0201250D03*
X0221000Y0198250D03*
X0237000Y0198250D03*
X0242000Y0198250D03*
X0249000Y0201250D03*
X0249000Y0211250D03*
X0246000Y0216250D03*
X0249000Y0225250D03*
X0249000Y0229250D03*
X0249000Y0233250D03*
X0248000Y0237250D03*
X0243000Y0237250D03*
X0238000Y0237250D03*
X0233000Y0237250D03*
X0233000Y0242250D03*
X0233000Y0248250D03*
X0233000Y0253250D03*
X0233000Y0258250D03*
X0221000Y0257250D03*
X0221000Y0253250D03*
X0227000Y0247250D03*
X0225000Y0244250D03*
X0224000Y0240750D03*
X0221000Y0239250D03*
X0224000Y0225250D03*
X0239000Y0229250D03*
X0261000Y0193250D03*
X0252000Y0181250D03*
X0261000Y0167250D03*
X0204000Y0165250D03*
X0205000Y0144250D03*
X0201000Y0141250D03*
X0205000Y0136250D03*
X0163000Y0116250D03*
X0144000Y0125250D03*
X0133000Y0132250D03*
X0213000Y0067250D03*
X0219000Y0067250D03*
X0225000Y0063250D03*
X0219000Y0079250D03*
X0222000Y0082250D03*
X0225000Y0084250D03*
X0231000Y0047250D03*
X0229000Y0038250D03*
X0230783Y0033033D03*
X0224000Y0041250D03*
X0213185Y0031250D03*
X0217000Y0022250D03*
X0227000Y0022750D03*
X0207000Y0021250D03*
X0203000Y0030250D03*
X0203000Y0035250D03*
D20*
X0058000Y0063250D03*
D21*
X0078000Y0110250D03*
D22*
X0213000Y0115250D02*
X0213000Y0125714D01*
X0213584Y0125131D01*
X0214503Y0124750D01*
X0215497Y0124750D01*
X0216416Y0125131D01*
X0217119Y0125834D01*
X0217500Y0126753D01*
X0217500Y0127747D01*
X0217119Y0128666D01*
X0216416Y0129369D01*
X0215497Y0129750D01*
X0214503Y0129750D01*
X0213584Y0129369D01*
X0213000Y0128786D01*
X0213000Y0141250D01*
X0215000Y0143250D01*
X0233000Y0143250D01*
X0235000Y0145250D01*
X0235000Y0151750D01*
X0235497Y0151750D01*
X0236416Y0152131D01*
X0237119Y0152834D01*
X0237500Y0153753D01*
X0237500Y0154747D01*
X0237119Y0155666D01*
X0236416Y0156369D01*
X0236206Y0156456D01*
X0237000Y0157250D01*
X0239000Y0157250D01*
X0241000Y0159250D01*
X0241000Y0165250D01*
X0243000Y0167250D01*
X0258500Y0167250D01*
X0258500Y0166753D01*
X0258881Y0165834D01*
X0259584Y0165131D01*
X0260503Y0164750D01*
X0261497Y0164750D01*
X0262416Y0165131D01*
X0263119Y0165834D01*
X0263400Y0166511D01*
X0263400Y0113250D01*
X0215000Y0113250D01*
X0213000Y0115250D01*
X0213127Y0115123D02*
X0263400Y0115123D01*
X0263400Y0113925D02*
X0214325Y0113925D01*
X0213000Y0116322D02*
X0263400Y0116322D01*
X0263400Y0117520D02*
X0213000Y0117520D01*
X0213000Y0118719D02*
X0263400Y0118719D01*
X0263400Y0119918D02*
X0213000Y0119918D01*
X0213000Y0121116D02*
X0263400Y0121116D01*
X0263400Y0122315D02*
X0213000Y0122315D01*
X0213000Y0123513D02*
X0263400Y0123513D01*
X0263400Y0124712D02*
X0213000Y0124712D01*
X0217151Y0125910D02*
X0263400Y0125910D01*
X0263400Y0127109D02*
X0217500Y0127109D01*
X0217268Y0128307D02*
X0263400Y0128307D01*
X0263400Y0129506D02*
X0237791Y0129506D01*
X0238119Y0129834D02*
X0238500Y0130753D01*
X0238500Y0131747D01*
X0238119Y0132666D01*
X0237416Y0133369D01*
X0236497Y0133750D01*
X0235503Y0133750D01*
X0234584Y0133369D01*
X0233881Y0132666D01*
X0233500Y0131747D01*
X0233500Y0130753D01*
X0233881Y0129834D01*
X0234584Y0129131D01*
X0235503Y0128750D01*
X0236497Y0128750D01*
X0237416Y0129131D01*
X0238119Y0129834D01*
X0238480Y0130704D02*
X0263400Y0130704D01*
X0263400Y0131903D02*
X0238436Y0131903D01*
X0237684Y0133101D02*
X0263400Y0133101D01*
X0263400Y0134300D02*
X0261151Y0134300D01*
X0260852Y0134001D02*
X0262021Y0135169D01*
X0262653Y0136696D01*
X0262653Y0138348D01*
X0262021Y0139874D01*
X0260852Y0141042D01*
X0259326Y0141674D01*
X0257674Y0141674D01*
X0256148Y0141042D01*
X0254979Y0139874D01*
X0254347Y0138348D01*
X0254347Y0136696D01*
X0254979Y0135169D01*
X0256148Y0134001D01*
X0257674Y0133369D01*
X0259326Y0133369D01*
X0260852Y0134001D01*
X0262157Y0135498D02*
X0263400Y0135498D01*
X0263400Y0136697D02*
X0262653Y0136697D01*
X0262653Y0137895D02*
X0263400Y0137895D01*
X0263400Y0139094D02*
X0262344Y0139094D01*
X0261602Y0140292D02*
X0263400Y0140292D01*
X0263400Y0141491D02*
X0259769Y0141491D01*
X0257231Y0141491D02*
X0248838Y0141491D01*
X0248596Y0141733D02*
X0247282Y0142278D01*
X0245860Y0142278D01*
X0244546Y0141733D01*
X0243540Y0140728D01*
X0242996Y0139414D01*
X0242996Y0137992D01*
X0243540Y0136678D01*
X0244546Y0135672D01*
X0245860Y0135128D01*
X0247282Y0135128D01*
X0248596Y0135672D01*
X0249601Y0136678D01*
X0250146Y0137992D01*
X0250146Y0139414D01*
X0249601Y0140728D01*
X0248596Y0141733D01*
X0249782Y0140292D02*
X0255398Y0140292D01*
X0254656Y0139094D02*
X0250146Y0139094D01*
X0250106Y0137895D02*
X0254347Y0137895D01*
X0254347Y0136697D02*
X0249609Y0136697D01*
X0248176Y0135498D02*
X0254843Y0135498D01*
X0255849Y0134300D02*
X0225312Y0134300D01*
X0225500Y0134753D02*
X0225119Y0133834D01*
X0224416Y0133131D01*
X0223497Y0132750D01*
X0222503Y0132750D01*
X0221584Y0133131D01*
X0220881Y0133834D01*
X0220500Y0134753D01*
X0220500Y0135747D01*
X0220881Y0136666D01*
X0221584Y0137369D01*
X0222503Y0137750D01*
X0223497Y0137750D01*
X0224416Y0137369D01*
X0225119Y0136666D01*
X0225500Y0135747D01*
X0225500Y0134753D01*
X0225500Y0135498D02*
X0231216Y0135498D01*
X0230881Y0135834D02*
X0231584Y0135131D01*
X0232503Y0134750D01*
X0233497Y0134750D01*
X0234416Y0135131D01*
X0235119Y0135834D01*
X0235500Y0136753D01*
X0235500Y0137747D01*
X0235119Y0138666D01*
X0234416Y0139369D01*
X0233497Y0139750D01*
X0232503Y0139750D01*
X0231584Y0139369D01*
X0230881Y0138666D01*
X0230500Y0137747D01*
X0230500Y0136753D01*
X0230881Y0135834D01*
X0230523Y0136697D02*
X0225089Y0136697D01*
X0224345Y0133101D02*
X0234316Y0133101D01*
X0233564Y0131903D02*
X0213000Y0131903D01*
X0213000Y0133101D02*
X0221655Y0133101D01*
X0220688Y0134300D02*
X0213000Y0134300D01*
X0213000Y0135498D02*
X0220500Y0135498D01*
X0220911Y0136697D02*
X0213000Y0136697D01*
X0213000Y0137895D02*
X0230561Y0137895D01*
X0231308Y0139094D02*
X0213000Y0139094D01*
X0213000Y0140292D02*
X0243360Y0140292D01*
X0242996Y0139094D02*
X0234692Y0139094D01*
X0235439Y0137895D02*
X0243036Y0137895D01*
X0243532Y0136697D02*
X0235477Y0136697D01*
X0234784Y0135498D02*
X0244966Y0135498D01*
X0244303Y0141491D02*
X0213241Y0141491D01*
X0214439Y0142689D02*
X0263400Y0142689D01*
X0263400Y0143888D02*
X0254642Y0143888D01*
X0254619Y0143834D02*
X0255000Y0144753D01*
X0255000Y0145747D01*
X0254619Y0146666D01*
X0254036Y0147250D01*
X0254619Y0147834D01*
X0255000Y0148753D01*
X0255000Y0149747D01*
X0254619Y0150666D01*
X0253916Y0151369D01*
X0252997Y0151750D01*
X0252003Y0151750D01*
X0251084Y0151369D01*
X0250381Y0150666D01*
X0250000Y0149747D01*
X0250000Y0148753D01*
X0250381Y0147834D01*
X0250964Y0147250D01*
X0250381Y0146666D01*
X0250000Y0145747D01*
X0250000Y0144753D01*
X0250381Y0143834D01*
X0251084Y0143131D01*
X0252003Y0142750D01*
X0252997Y0142750D01*
X0253916Y0143131D01*
X0254619Y0143834D01*
X0255000Y0145086D02*
X0263400Y0145086D01*
X0263400Y0146285D02*
X0254777Y0146285D01*
X0254269Y0147483D02*
X0263400Y0147483D01*
X0263400Y0148682D02*
X0254971Y0148682D01*
X0254945Y0149880D02*
X0263400Y0149880D01*
X0263400Y0151079D02*
X0254207Y0151079D01*
X0250793Y0151079D02*
X0235000Y0151079D01*
X0235000Y0149880D02*
X0250055Y0149880D01*
X0250029Y0148682D02*
X0235000Y0148682D01*
X0235000Y0147483D02*
X0250731Y0147483D01*
X0250223Y0146285D02*
X0235000Y0146285D01*
X0234836Y0145086D02*
X0250000Y0145086D01*
X0250358Y0143888D02*
X0233638Y0143888D01*
X0236563Y0152277D02*
X0263400Y0152277D01*
X0263400Y0153476D02*
X0237385Y0153476D01*
X0237500Y0154674D02*
X0244769Y0154674D01*
X0244546Y0154767D02*
X0245860Y0154222D01*
X0247282Y0154222D01*
X0248596Y0154767D01*
X0249601Y0155772D01*
X0250146Y0157086D01*
X0250146Y0158508D01*
X0249601Y0159822D01*
X0248596Y0160828D01*
X0247282Y0161372D01*
X0245860Y0161372D01*
X0244546Y0160828D01*
X0243540Y0159822D01*
X0242996Y0158508D01*
X0242996Y0157086D01*
X0243540Y0155772D01*
X0244546Y0154767D01*
X0243499Y0155873D02*
X0236913Y0155873D01*
X0236821Y0157071D02*
X0243002Y0157071D01*
X0242996Y0158270D02*
X0240020Y0158270D01*
X0241000Y0159468D02*
X0243394Y0159468D01*
X0244385Y0160667D02*
X0241000Y0160667D01*
X0241000Y0161865D02*
X0255514Y0161865D01*
X0254979Y0161331D02*
X0256148Y0162499D01*
X0257674Y0163131D01*
X0259326Y0163131D01*
X0260852Y0162499D01*
X0262021Y0161331D01*
X0262653Y0159804D01*
X0262653Y0158152D01*
X0262021Y0156626D01*
X0260852Y0155458D01*
X0259326Y0154826D01*
X0257674Y0154826D01*
X0256148Y0155458D01*
X0254979Y0156626D01*
X0254347Y0158152D01*
X0254347Y0159804D01*
X0254979Y0161331D01*
X0254705Y0160667D02*
X0248757Y0160667D01*
X0249748Y0159468D02*
X0254347Y0159468D01*
X0254347Y0158270D02*
X0250146Y0158270D01*
X0250140Y0157071D02*
X0254795Y0157071D01*
X0255733Y0155873D02*
X0249643Y0155873D01*
X0248373Y0154674D02*
X0263400Y0154674D01*
X0263400Y0155873D02*
X0261267Y0155873D01*
X0262205Y0157071D02*
X0263400Y0157071D01*
X0263400Y0158270D02*
X0262653Y0158270D01*
X0262653Y0159468D02*
X0263400Y0159468D01*
X0263400Y0160667D02*
X0262295Y0160667D01*
X0261486Y0161865D02*
X0263400Y0161865D01*
X0263400Y0163064D02*
X0259488Y0163064D01*
X0257512Y0163064D02*
X0241000Y0163064D01*
X0241000Y0164262D02*
X0263400Y0164262D01*
X0263400Y0165461D02*
X0262746Y0165461D01*
X0259254Y0165461D02*
X0241211Y0165461D01*
X0242409Y0166659D02*
X0258539Y0166659D01*
X0233520Y0130704D02*
X0213000Y0130704D01*
X0213000Y0129506D02*
X0213913Y0129506D01*
X0216087Y0129506D02*
X0234209Y0129506D01*
D23*
X0019000Y0062187D02*
X0019000Y0017187D01*
X0069052Y0017187D01*
X0068201Y0018039D01*
X0066800Y0021420D01*
X0066800Y0025080D01*
X0068201Y0028461D01*
X0070467Y0030728D01*
X0070230Y0030630D01*
X0067794Y0030630D01*
X0065543Y0031562D01*
X0063820Y0033285D01*
X0062887Y0035536D01*
X0062887Y0037972D01*
X0063820Y0040223D01*
X0065543Y0041946D01*
X0067794Y0042878D01*
X0070230Y0042878D01*
X0072481Y0041946D01*
X0074204Y0040223D01*
X0075136Y0037972D01*
X0075136Y0035536D01*
X0074204Y0033285D01*
X0072803Y0031884D01*
X0074170Y0032450D01*
X0077830Y0032450D01*
X0081211Y0031049D01*
X0083799Y0028461D01*
X0085200Y0025080D01*
X0085200Y0021420D01*
X0083799Y0018039D01*
X0082948Y0017187D01*
X0088300Y0017187D01*
X0088300Y0017787D01*
X0088711Y0018779D01*
X0089471Y0019539D01*
X0090463Y0019950D01*
X0091537Y0019950D01*
X0092529Y0019539D01*
X0093289Y0018779D01*
X0093700Y0017787D01*
X0093700Y0017187D01*
X0150308Y0017187D01*
X0150308Y0017795D01*
X0150719Y0018787D01*
X0151478Y0019547D01*
X0152471Y0019958D01*
X0153545Y0019958D01*
X0154537Y0019547D01*
X0155297Y0018787D01*
X0155708Y0017795D01*
X0155708Y0017187D01*
X0181060Y0017187D01*
X0180208Y0018039D01*
X0178861Y0021292D01*
X0178529Y0020961D01*
X0177537Y0020550D01*
X0176463Y0020550D01*
X0175471Y0020961D01*
X0174711Y0021721D01*
X0174300Y0022713D01*
X0174300Y0023787D01*
X0174711Y0024779D01*
X0175471Y0025539D01*
X0176463Y0025950D01*
X0177537Y0025950D01*
X0178529Y0025539D01*
X0178861Y0025208D01*
X0180208Y0028461D01*
X0182796Y0031049D01*
X0186178Y0032450D01*
X0189838Y0032450D01*
X0191205Y0031884D01*
X0189804Y0033285D01*
X0188872Y0035536D01*
X0188872Y0037972D01*
X0189804Y0040223D01*
X0191527Y0041946D01*
X0193778Y0042878D01*
X0196214Y0042878D01*
X0198465Y0041946D01*
X0200188Y0040223D01*
X0201120Y0037972D01*
X0201120Y0037189D01*
X0201471Y0037539D01*
X0202463Y0037950D01*
X0203537Y0037950D01*
X0204529Y0037539D01*
X0205289Y0036779D01*
X0205700Y0035787D01*
X0205700Y0034713D01*
X0205289Y0033721D01*
X0204529Y0032961D01*
X0204020Y0032750D01*
X0204529Y0032539D01*
X0205289Y0031779D01*
X0205700Y0030787D01*
X0205700Y0029713D01*
X0205289Y0028721D01*
X0204529Y0027961D01*
X0203537Y0027550D01*
X0202463Y0027550D01*
X0201471Y0027961D01*
X0200711Y0028721D01*
X0200300Y0029713D01*
X0200300Y0030787D01*
X0200711Y0031779D01*
X0201471Y0032539D01*
X0201980Y0032750D01*
X0201471Y0032961D01*
X0200711Y0033721D01*
X0200540Y0034134D01*
X0200188Y0033285D01*
X0198465Y0031562D01*
X0196214Y0030630D01*
X0193778Y0030630D01*
X0193541Y0030728D01*
X0195807Y0028461D01*
X0197208Y0025080D01*
X0197208Y0021420D01*
X0195807Y0018039D01*
X0194956Y0017187D01*
X0236527Y0017187D01*
X0236356Y0017601D01*
X0236356Y0019332D01*
X0237019Y0020932D01*
X0238243Y0022157D01*
X0239843Y0022819D01*
X0241574Y0022819D01*
X0243174Y0022157D01*
X0244399Y0020932D01*
X0245061Y0019332D01*
X0245061Y0017601D01*
X0244890Y0017187D01*
X0262063Y0017187D01*
X0262063Y0021517D01*
X0260935Y0021050D01*
X0259065Y0021050D01*
X0257338Y0021766D01*
X0256016Y0023088D01*
X0255526Y0024270D01*
X0254927Y0022826D01*
X0253475Y0021374D01*
X0251578Y0020588D01*
X0249524Y0020588D01*
X0247627Y0021374D01*
X0246175Y0022826D01*
X0245389Y0024723D01*
X0245389Y0026777D01*
X0246175Y0028674D01*
X0247627Y0030126D01*
X0249524Y0030912D01*
X0251578Y0030912D01*
X0253475Y0030126D01*
X0254927Y0028674D01*
X0255526Y0027230D01*
X0256016Y0028412D01*
X0257338Y0029734D01*
X0259065Y0030450D01*
X0260935Y0030450D01*
X0262063Y0029983D01*
X0262063Y0056517D01*
X0260935Y0056050D01*
X0259065Y0056050D01*
X0257338Y0056766D01*
X0256016Y0058088D01*
X0255526Y0059270D01*
X0254927Y0057826D01*
X0253475Y0056374D01*
X0251578Y0055588D01*
X0249524Y0055588D01*
X0247627Y0056374D01*
X0246175Y0057826D01*
X0245389Y0059723D01*
X0245389Y0061777D01*
X0246175Y0063674D01*
X0247627Y0065126D01*
X0249524Y0065912D01*
X0251578Y0065912D01*
X0253475Y0065126D01*
X0254927Y0063674D01*
X0255526Y0062230D01*
X0256016Y0063412D01*
X0257338Y0064734D01*
X0259065Y0065450D01*
X0260935Y0065450D01*
X0262063Y0064983D01*
X0262063Y0091517D01*
X0260935Y0091050D01*
X0259065Y0091050D01*
X0257338Y0091766D01*
X0256016Y0093088D01*
X0255526Y0094270D01*
X0254927Y0092826D01*
X0253475Y0091374D01*
X0251578Y0090588D01*
X0249524Y0090588D01*
X0247627Y0091374D01*
X0246175Y0092826D01*
X0245389Y0094723D01*
X0245389Y0096777D01*
X0246175Y0098674D01*
X0247627Y0100126D01*
X0249524Y0100912D01*
X0251578Y0100912D01*
X0253475Y0100126D01*
X0254927Y0098674D01*
X0255526Y0097230D01*
X0256016Y0098412D01*
X0257338Y0099734D01*
X0259065Y0100450D01*
X0260935Y0100450D01*
X0262063Y0099983D01*
X0262063Y0109250D01*
X0263000Y0111250D01*
X0213000Y0111250D01*
X0211000Y0113250D01*
X0211000Y0143250D01*
X0213000Y0145250D01*
X0231000Y0145250D01*
X0232000Y0147250D01*
X0232000Y0147550D01*
X0231463Y0147550D01*
X0230471Y0147961D01*
X0229711Y0148721D01*
X0229300Y0149713D01*
X0229300Y0150787D01*
X0229711Y0151779D01*
X0230471Y0152539D01*
X0231463Y0152950D01*
X0232000Y0152950D01*
X0232000Y0157250D01*
X0235000Y0160250D01*
X0239000Y0160250D01*
X0239000Y0167250D01*
X0241000Y0169250D01*
X0259182Y0169250D01*
X0259471Y0169539D01*
X0260463Y0169950D01*
X0261537Y0169950D01*
X0262063Y0169732D01*
X0262063Y0190768D01*
X0261537Y0190550D01*
X0260463Y0190550D01*
X0259471Y0190961D01*
X0258711Y0191721D01*
X0258300Y0192713D01*
X0258300Y0193787D01*
X0258711Y0194779D01*
X0259471Y0195539D01*
X0260463Y0195950D01*
X0261537Y0195950D01*
X0262063Y0195732D01*
X0262063Y0259313D01*
X0235482Y0259313D01*
X0235700Y0258787D01*
X0235700Y0257713D01*
X0235289Y0256721D01*
X0234529Y0255961D01*
X0234020Y0255750D01*
X0234529Y0255539D01*
X0235289Y0254779D01*
X0235700Y0253787D01*
X0235700Y0252713D01*
X0235289Y0251721D01*
X0234529Y0250961D01*
X0234020Y0250750D01*
X0234529Y0250539D01*
X0235289Y0249779D01*
X0235700Y0248787D01*
X0235700Y0247713D01*
X0235289Y0246721D01*
X0234529Y0245961D01*
X0233537Y0245550D01*
X0232463Y0245550D01*
X0231471Y0245961D01*
X0230711Y0246721D01*
X0230300Y0247713D01*
X0230300Y0248787D01*
X0230711Y0249779D01*
X0231471Y0250539D01*
X0231980Y0250750D01*
X0231471Y0250961D01*
X0230711Y0251721D01*
X0230300Y0252713D01*
X0230300Y0253787D01*
X0230711Y0254779D01*
X0231471Y0255539D01*
X0231980Y0255750D01*
X0231471Y0255961D01*
X0230711Y0256721D01*
X0230300Y0257713D01*
X0230300Y0258787D01*
X0230518Y0259313D01*
X0222755Y0259313D01*
X0223289Y0258779D01*
X0223700Y0257787D01*
X0223700Y0256713D01*
X0223289Y0255721D01*
X0222818Y0255250D01*
X0223289Y0254779D01*
X0223700Y0253787D01*
X0223700Y0252713D01*
X0223289Y0251721D01*
X0222529Y0250961D01*
X0221537Y0250550D01*
X0220463Y0250550D01*
X0219471Y0250961D01*
X0218711Y0251721D01*
X0218300Y0252713D01*
X0218300Y0253787D01*
X0218711Y0254779D01*
X0219182Y0255250D01*
X0218711Y0255721D01*
X0218300Y0256713D01*
X0218300Y0257787D01*
X0218711Y0258779D01*
X0219245Y0259313D01*
X0004937Y0259313D01*
X0004937Y0062187D01*
X0019000Y0062187D01*
X0019000Y0061205D02*
X0026887Y0061205D01*
X0027166Y0061689D02*
X0025816Y0059350D01*
X0025117Y0056741D01*
X0025117Y0054040D01*
X0025816Y0051431D01*
X0027166Y0049092D01*
X0029076Y0047182D01*
X0031415Y0045831D01*
X0034024Y0045132D01*
X0036726Y0045132D01*
X0039335Y0045831D01*
X0041674Y0047182D01*
X0043584Y0049092D01*
X0044934Y0051431D01*
X0045633Y0054040D01*
X0045633Y0056741D01*
X0044934Y0059350D01*
X0043584Y0061689D01*
X0041674Y0063599D01*
X0039335Y0064950D01*
X0036726Y0065649D01*
X0034024Y0065649D01*
X0031415Y0064950D01*
X0029076Y0063599D01*
X0027166Y0061689D01*
X0028281Y0062804D02*
X0004937Y0062804D01*
X0004937Y0064402D02*
X0030468Y0064402D01*
X0025964Y0059607D02*
X0019000Y0059607D01*
X0019000Y0058008D02*
X0025456Y0058008D01*
X0025117Y0056410D02*
X0019000Y0056410D01*
X0019000Y0054811D02*
X0025117Y0054811D01*
X0025338Y0053213D02*
X0019000Y0053213D01*
X0019000Y0051614D02*
X0025767Y0051614D01*
X0026633Y0050016D02*
X0019000Y0050016D01*
X0019000Y0048417D02*
X0027841Y0048417D01*
X0029705Y0046819D02*
X0019000Y0046819D01*
X0019000Y0045220D02*
X0033696Y0045220D01*
X0037054Y0045220D02*
X0045097Y0045220D01*
X0045097Y0045326D02*
X0045097Y0041832D01*
X0046434Y0038605D01*
X0048904Y0036134D01*
X0052132Y0034797D01*
X0055626Y0034797D01*
X0058853Y0036134D01*
X0061324Y0038605D01*
X0062661Y0041832D01*
X0062661Y0045326D01*
X0061324Y0048554D01*
X0058853Y0051024D01*
X0055626Y0052361D01*
X0052132Y0052361D01*
X0048904Y0051024D01*
X0046434Y0048554D01*
X0045097Y0045326D01*
X0045715Y0046819D02*
X0041045Y0046819D01*
X0042909Y0048417D02*
X0046377Y0048417D01*
X0047896Y0050016D02*
X0044117Y0050016D01*
X0044983Y0051614D02*
X0050329Y0051614D01*
X0045412Y0053213D02*
X0099219Y0053213D01*
X0099471Y0052961D02*
X0100463Y0052550D01*
X0101537Y0052550D01*
X0102529Y0052961D01*
X0103289Y0053721D01*
X0103700Y0054713D01*
X0103700Y0055787D01*
X0103289Y0056779D01*
X0102529Y0057539D01*
X0101537Y0057950D01*
X0100463Y0057950D01*
X0099471Y0057539D01*
X0098711Y0056779D01*
X0098300Y0055787D01*
X0098300Y0054713D01*
X0098711Y0053721D01*
X0099471Y0052961D01*
X0098300Y0054811D02*
X0045633Y0054811D01*
X0045633Y0056410D02*
X0071478Y0056410D01*
X0071854Y0056034D02*
X0073241Y0055459D01*
X0074743Y0055459D01*
X0076130Y0056034D01*
X0077192Y0057096D01*
X0077767Y0058483D01*
X0077767Y0059985D01*
X0077192Y0061373D01*
X0076130Y0062434D01*
X0074743Y0063009D01*
X0073241Y0063009D01*
X0071854Y0062434D01*
X0070792Y0061373D01*
X0070217Y0059985D01*
X0070217Y0058483D01*
X0070792Y0057096D01*
X0071854Y0056034D01*
X0070414Y0058008D02*
X0045294Y0058008D01*
X0044786Y0059607D02*
X0070217Y0059607D01*
X0070723Y0061205D02*
X0061015Y0061205D01*
X0061033Y0061223D02*
X0060027Y0060217D01*
X0058712Y0059672D01*
X0057288Y0059672D01*
X0055973Y0060217D01*
X0054967Y0061223D01*
X0054422Y0062538D01*
X0054422Y0063962D01*
X0054967Y0065277D01*
X0055973Y0066283D01*
X0057288Y0066828D01*
X0058712Y0066828D01*
X0060027Y0066283D01*
X0061033Y0065277D01*
X0061578Y0063962D01*
X0061578Y0062538D01*
X0061033Y0061223D01*
X0061578Y0062804D02*
X0072746Y0062804D01*
X0075238Y0062804D02*
X0081762Y0062804D01*
X0082257Y0063009D02*
X0080870Y0062434D01*
X0079808Y0061373D01*
X0079233Y0059985D01*
X0079233Y0058483D01*
X0079808Y0057096D01*
X0080870Y0056034D01*
X0082257Y0055459D01*
X0083759Y0055459D01*
X0085146Y0056034D01*
X0086208Y0057096D01*
X0086783Y0058483D01*
X0086783Y0059985D01*
X0086208Y0061373D01*
X0085146Y0062434D01*
X0083759Y0063009D01*
X0082257Y0063009D01*
X0084254Y0062804D02*
X0117746Y0062804D01*
X0118241Y0063009D02*
X0116854Y0062434D01*
X0115792Y0061373D01*
X0115217Y0059985D01*
X0115217Y0058483D01*
X0115792Y0057096D01*
X0116854Y0056034D01*
X0118241Y0055459D01*
X0119743Y0055459D01*
X0121130Y0056034D01*
X0122192Y0057096D01*
X0122767Y0058483D01*
X0122767Y0059985D01*
X0122192Y0061373D01*
X0121130Y0062434D01*
X0119743Y0063009D01*
X0118241Y0063009D01*
X0120238Y0062804D02*
X0126762Y0062804D01*
X0127257Y0063009D02*
X0125870Y0062434D01*
X0124808Y0061373D01*
X0124233Y0059985D01*
X0124233Y0058483D01*
X0124808Y0057096D01*
X0125870Y0056034D01*
X0127257Y0055459D01*
X0128759Y0055459D01*
X0130146Y0056034D01*
X0131208Y0057096D01*
X0131783Y0058483D01*
X0131783Y0059985D01*
X0131208Y0061373D01*
X0130146Y0062434D01*
X0128759Y0063009D01*
X0127257Y0063009D01*
X0129254Y0062804D02*
X0134754Y0062804D01*
X0135249Y0063009D02*
X0133862Y0062434D01*
X0132800Y0061373D01*
X0132225Y0059985D01*
X0132225Y0058483D01*
X0132800Y0057096D01*
X0133862Y0056034D01*
X0135249Y0055459D01*
X0136751Y0055459D01*
X0138138Y0056034D01*
X0139200Y0057096D01*
X0139775Y0058483D01*
X0139775Y0059985D01*
X0139200Y0061373D01*
X0138138Y0062434D01*
X0136751Y0063009D01*
X0135249Y0063009D01*
X0137246Y0062804D02*
X0143770Y0062804D01*
X0144265Y0063009D02*
X0142877Y0062434D01*
X0141816Y0061373D01*
X0141241Y0059985D01*
X0141241Y0058483D01*
X0141816Y0057096D01*
X0142877Y0056034D01*
X0144265Y0055459D01*
X0145767Y0055459D01*
X0147154Y0056034D01*
X0148216Y0057096D01*
X0148791Y0058483D01*
X0148791Y0059985D01*
X0148216Y0061373D01*
X0147154Y0062434D01*
X0145767Y0063009D01*
X0144265Y0063009D01*
X0146262Y0062804D02*
X0163295Y0062804D01*
X0163471Y0062980D02*
X0162711Y0062220D01*
X0162300Y0061228D01*
X0162300Y0060154D01*
X0162711Y0059162D01*
X0163471Y0058402D01*
X0164463Y0057991D01*
X0165537Y0057991D01*
X0166529Y0058402D01*
X0167289Y0059162D01*
X0167700Y0060154D01*
X0167700Y0061228D01*
X0167289Y0062220D01*
X0166529Y0062980D01*
X0165537Y0063391D01*
X0164463Y0063391D01*
X0163471Y0062980D01*
X0162300Y0061205D02*
X0148285Y0061205D01*
X0148791Y0059607D02*
X0162527Y0059607D01*
X0164421Y0058008D02*
X0148594Y0058008D01*
X0147530Y0056410D02*
X0178486Y0056410D01*
X0178862Y0056034D02*
X0180249Y0055459D01*
X0181751Y0055459D01*
X0183138Y0056034D01*
X0184200Y0057096D01*
X0184775Y0058483D01*
X0184775Y0059985D01*
X0184200Y0061373D01*
X0183138Y0062434D01*
X0181751Y0063009D01*
X0180249Y0063009D01*
X0178862Y0062434D01*
X0177800Y0061373D01*
X0177225Y0059985D01*
X0177225Y0058483D01*
X0177800Y0057096D01*
X0178862Y0056034D01*
X0177422Y0058008D02*
X0165579Y0058008D01*
X0167473Y0059607D02*
X0177225Y0059607D01*
X0177731Y0061205D02*
X0167700Y0061205D01*
X0166705Y0062804D02*
X0179754Y0062804D01*
X0182246Y0062804D02*
X0188770Y0062804D01*
X0189265Y0063009D02*
X0187877Y0062434D01*
X0186816Y0061373D01*
X0186241Y0059985D01*
X0186241Y0058483D01*
X0186816Y0057096D01*
X0187877Y0056034D01*
X0189265Y0055459D01*
X0190767Y0055459D01*
X0192154Y0056034D01*
X0193216Y0057096D01*
X0193791Y0058483D01*
X0193791Y0059985D01*
X0193216Y0061373D01*
X0192154Y0062434D01*
X0190767Y0063009D01*
X0189265Y0063009D01*
X0191262Y0062804D02*
X0222300Y0062804D01*
X0222300Y0062713D02*
X0222711Y0061721D01*
X0223471Y0060961D01*
X0224463Y0060550D01*
X0225537Y0060550D01*
X0226529Y0060961D01*
X0227289Y0061721D01*
X0227700Y0062713D01*
X0227700Y0063787D01*
X0227289Y0064779D01*
X0226529Y0065539D01*
X0225537Y0065950D01*
X0224463Y0065950D01*
X0223471Y0065539D01*
X0222711Y0064779D01*
X0222300Y0063787D01*
X0222300Y0062713D01*
X0222555Y0064402D02*
X0186971Y0064402D01*
X0187289Y0064721D02*
X0187700Y0065713D01*
X0187700Y0066787D01*
X0187289Y0067779D01*
X0186529Y0068539D01*
X0185537Y0068950D01*
X0184463Y0068950D01*
X0183471Y0068539D01*
X0182711Y0067779D01*
X0182300Y0066787D01*
X0182300Y0065713D01*
X0182711Y0064721D01*
X0183471Y0063961D01*
X0184463Y0063550D01*
X0185537Y0063550D01*
X0186529Y0063961D01*
X0187289Y0064721D01*
X0187700Y0066001D02*
X0210595Y0066001D01*
X0210711Y0065721D02*
X0211471Y0064961D01*
X0212463Y0064550D01*
X0213537Y0064550D01*
X0214529Y0064961D01*
X0215289Y0065721D01*
X0215700Y0066713D01*
X0215700Y0067787D01*
X0215289Y0068779D01*
X0214529Y0069539D01*
X0213537Y0069950D01*
X0212463Y0069950D01*
X0211471Y0069539D01*
X0210711Y0068779D01*
X0210300Y0067787D01*
X0210300Y0066713D01*
X0210711Y0065721D01*
X0210300Y0067599D02*
X0187364Y0067599D01*
X0182636Y0067599D02*
X0004937Y0067599D01*
X0004937Y0066001D02*
X0055691Y0066001D01*
X0054605Y0064402D02*
X0040282Y0064402D01*
X0042469Y0062804D02*
X0054422Y0062804D01*
X0054985Y0061205D02*
X0043863Y0061205D01*
X0057429Y0051614D02*
X0165341Y0051614D01*
X0165300Y0051713D02*
X0165711Y0050721D01*
X0166471Y0049961D01*
X0167463Y0049550D01*
X0168537Y0049550D01*
X0169529Y0049961D01*
X0170289Y0050721D01*
X0170700Y0051713D01*
X0170700Y0052787D01*
X0170289Y0053779D01*
X0169529Y0054539D01*
X0168537Y0054950D01*
X0167463Y0054950D01*
X0166471Y0054539D01*
X0165711Y0053779D01*
X0165300Y0052787D01*
X0165300Y0051713D01*
X0165476Y0053213D02*
X0102781Y0053213D01*
X0103700Y0054811D02*
X0167128Y0054811D01*
X0168872Y0054811D02*
X0236554Y0054811D01*
X0236356Y0054332D02*
X0236356Y0052601D01*
X0237019Y0051001D01*
X0238243Y0049776D01*
X0239843Y0049114D01*
X0241574Y0049114D01*
X0243174Y0049776D01*
X0244399Y0051001D01*
X0245061Y0052601D01*
X0245061Y0054332D01*
X0244399Y0055932D01*
X0243174Y0057157D01*
X0241574Y0057819D01*
X0239843Y0057819D01*
X0238243Y0057157D01*
X0237019Y0055932D01*
X0236356Y0054332D01*
X0236356Y0053213D02*
X0170524Y0053213D01*
X0170659Y0051614D02*
X0236764Y0051614D01*
X0238004Y0050016D02*
X0169584Y0050016D01*
X0166416Y0050016D02*
X0059862Y0050016D01*
X0061380Y0048417D02*
X0228561Y0048417D01*
X0228711Y0048779D02*
X0228300Y0047787D01*
X0228300Y0046713D01*
X0228711Y0045721D01*
X0229471Y0044961D01*
X0230463Y0044550D01*
X0231537Y0044550D01*
X0232529Y0044961D01*
X0233289Y0045721D01*
X0233700Y0046713D01*
X0233700Y0047787D01*
X0233289Y0048779D01*
X0232529Y0049539D01*
X0231537Y0049950D01*
X0230463Y0049950D01*
X0229471Y0049539D01*
X0228711Y0048779D01*
X0228300Y0046819D02*
X0062043Y0046819D01*
X0062661Y0045220D02*
X0229211Y0045220D01*
X0232789Y0045220D02*
X0262063Y0045220D01*
X0262063Y0043622D02*
X0225330Y0043622D01*
X0225529Y0043539D02*
X0224537Y0043950D01*
X0223463Y0043950D01*
X0222471Y0043539D01*
X0221711Y0042779D01*
X0221300Y0041787D01*
X0221300Y0040713D01*
X0221711Y0039721D01*
X0222471Y0038961D01*
X0223463Y0038550D01*
X0224537Y0038550D01*
X0225529Y0038961D01*
X0226289Y0039721D01*
X0226700Y0040713D01*
X0226700Y0041787D01*
X0226289Y0042779D01*
X0225529Y0043539D01*
X0226602Y0042023D02*
X0262063Y0042023D01*
X0262063Y0040425D02*
X0230644Y0040425D01*
X0230529Y0040539D02*
X0229537Y0040950D01*
X0228463Y0040950D01*
X0227471Y0040539D01*
X0226711Y0039779D01*
X0226300Y0038787D01*
X0226300Y0037713D01*
X0226711Y0036721D01*
X0227471Y0035961D01*
X0228463Y0035550D01*
X0229537Y0035550D01*
X0230529Y0035961D01*
X0231289Y0036721D01*
X0231700Y0037713D01*
X0231700Y0038787D01*
X0231289Y0039779D01*
X0230529Y0040539D01*
X0231684Y0038826D02*
X0262063Y0038826D01*
X0262063Y0037228D02*
X0241957Y0037228D01*
X0241574Y0037386D02*
X0239843Y0037386D01*
X0238243Y0036724D01*
X0237019Y0035499D01*
X0236356Y0033899D01*
X0236356Y0032168D01*
X0237019Y0030568D01*
X0238243Y0029343D01*
X0239843Y0028681D01*
X0241574Y0028681D01*
X0243174Y0029343D01*
X0244399Y0030568D01*
X0245061Y0032168D01*
X0245061Y0033899D01*
X0244399Y0035499D01*
X0243174Y0036724D01*
X0241574Y0037386D01*
X0239460Y0037228D02*
X0231499Y0037228D01*
X0231321Y0035733D02*
X0230246Y0035733D01*
X0229254Y0035322D01*
X0228495Y0034563D01*
X0228083Y0033571D01*
X0228083Y0032496D01*
X0228495Y0031504D01*
X0229254Y0030745D01*
X0230246Y0030333D01*
X0231321Y0030333D01*
X0232313Y0030745D01*
X0233072Y0031504D01*
X0233483Y0032496D01*
X0233483Y0033571D01*
X0233072Y0034563D01*
X0232313Y0035322D01*
X0231321Y0035733D01*
X0231572Y0035629D02*
X0237149Y0035629D01*
X0236410Y0034031D02*
X0233293Y0034031D01*
X0233457Y0032432D02*
X0236356Y0032432D01*
X0236908Y0030834D02*
X0232402Y0030834D01*
X0231969Y0030103D02*
X0230369Y0029440D01*
X0229145Y0028216D01*
X0228482Y0026616D01*
X0228482Y0025059D01*
X0227537Y0025450D01*
X0226463Y0025450D01*
X0225471Y0025039D01*
X0224711Y0024279D01*
X0224300Y0023287D01*
X0224300Y0022213D01*
X0224711Y0021221D01*
X0225471Y0020461D01*
X0226463Y0020050D01*
X0227537Y0020050D01*
X0228529Y0020461D01*
X0229289Y0021221D01*
X0229700Y0022213D01*
X0229700Y0022729D01*
X0230369Y0022060D01*
X0231969Y0021397D01*
X0233700Y0021397D01*
X0235300Y0022060D01*
X0236525Y0023284D01*
X0237187Y0024884D01*
X0237187Y0026616D01*
X0236525Y0028216D01*
X0235300Y0029440D01*
X0233700Y0030103D01*
X0231969Y0030103D01*
X0230164Y0029235D02*
X0214989Y0029235D01*
X0214714Y0028961D02*
X0215474Y0029721D01*
X0215885Y0030713D01*
X0215885Y0031787D01*
X0215474Y0032779D01*
X0214714Y0033539D01*
X0213722Y0033950D01*
X0212648Y0033950D01*
X0211656Y0033539D01*
X0210896Y0032779D01*
X0210485Y0031787D01*
X0210485Y0030713D01*
X0210896Y0029721D01*
X0211656Y0028961D01*
X0212648Y0028550D01*
X0213722Y0028550D01*
X0214714Y0028961D01*
X0215885Y0030834D02*
X0229165Y0030834D01*
X0228110Y0032432D02*
X0215618Y0032432D01*
X0211382Y0029235D02*
X0205502Y0029235D01*
X0205681Y0030834D02*
X0210485Y0030834D01*
X0210752Y0032432D02*
X0204636Y0032432D01*
X0205417Y0034031D02*
X0228274Y0034031D01*
X0228272Y0035629D02*
X0205700Y0035629D01*
X0204841Y0037228D02*
X0226501Y0037228D01*
X0226316Y0038826D02*
X0225204Y0038826D01*
X0226581Y0040425D02*
X0227356Y0040425D01*
X0222796Y0038826D02*
X0200767Y0038826D01*
X0201120Y0037228D02*
X0201159Y0037228D01*
X0199987Y0040425D02*
X0221419Y0040425D01*
X0221398Y0042023D02*
X0198279Y0042023D01*
X0191713Y0042023D02*
X0176323Y0042023D01*
X0176169Y0042396D02*
X0176743Y0041009D01*
X0176743Y0039507D01*
X0176169Y0038120D01*
X0175107Y0037058D01*
X0173719Y0036483D01*
X0172218Y0036483D01*
X0170830Y0037058D01*
X0169768Y0038120D01*
X0169194Y0039507D01*
X0169194Y0041009D01*
X0169768Y0042396D01*
X0170830Y0043458D01*
X0172218Y0044033D01*
X0173719Y0044033D01*
X0175107Y0043458D01*
X0176169Y0042396D01*
X0174711Y0043622D02*
X0222670Y0043622D01*
X0229728Y0035629D02*
X0229995Y0035629D01*
X0235505Y0029235D02*
X0238504Y0029235D01*
X0236765Y0027637D02*
X0245745Y0027637D01*
X0245389Y0026038D02*
X0237187Y0026038D01*
X0237003Y0024440D02*
X0245506Y0024440D01*
X0246169Y0022841D02*
X0236081Y0022841D01*
X0237329Y0021243D02*
X0229298Y0021243D01*
X0224702Y0021243D02*
X0219505Y0021243D01*
X0219700Y0021713D02*
X0219289Y0020721D01*
X0218529Y0019961D01*
X0217537Y0019550D01*
X0216463Y0019550D01*
X0215471Y0019961D01*
X0214711Y0020721D01*
X0214300Y0021713D01*
X0214300Y0022787D01*
X0214711Y0023779D01*
X0215471Y0024539D01*
X0216463Y0024950D01*
X0217537Y0024950D01*
X0218529Y0024539D01*
X0219289Y0023779D01*
X0219700Y0022787D01*
X0219700Y0021713D01*
X0219678Y0022841D02*
X0224300Y0022841D01*
X0224871Y0024440D02*
X0218629Y0024440D01*
X0215371Y0024440D02*
X0197208Y0024440D01*
X0197208Y0022841D02*
X0204773Y0022841D01*
X0204711Y0022779D02*
X0204300Y0021787D01*
X0204300Y0020713D01*
X0204711Y0019721D01*
X0205471Y0018961D01*
X0206463Y0018550D01*
X0207537Y0018550D01*
X0208529Y0018961D01*
X0209289Y0019721D01*
X0209700Y0020713D01*
X0209700Y0021787D01*
X0209289Y0022779D01*
X0208529Y0023539D01*
X0207537Y0023950D01*
X0206463Y0023950D01*
X0205471Y0023539D01*
X0204711Y0022779D01*
X0204300Y0021243D02*
X0197134Y0021243D01*
X0196472Y0019644D02*
X0204788Y0019644D01*
X0209212Y0019644D02*
X0216236Y0019644D01*
X0217764Y0019644D02*
X0236485Y0019644D01*
X0236356Y0018046D02*
X0195810Y0018046D01*
X0196811Y0026038D02*
X0228482Y0026038D01*
X0228905Y0027637D02*
X0203746Y0027637D01*
X0202254Y0027637D02*
X0196149Y0027637D01*
X0195034Y0029235D02*
X0200498Y0029235D01*
X0200319Y0030834D02*
X0196707Y0030834D01*
X0199335Y0032432D02*
X0201364Y0032432D01*
X0200583Y0034031D02*
X0200497Y0034031D01*
X0190657Y0032432D02*
X0189881Y0032432D01*
X0189495Y0034031D02*
X0187417Y0034031D01*
X0187289Y0033721D02*
X0187700Y0034713D01*
X0187700Y0035787D01*
X0187289Y0036779D01*
X0186529Y0037539D01*
X0185537Y0037950D01*
X0184463Y0037950D01*
X0183471Y0037539D01*
X0182711Y0036779D01*
X0182300Y0035787D01*
X0182300Y0034713D01*
X0182711Y0033721D01*
X0183471Y0032961D01*
X0184463Y0032550D01*
X0185537Y0032550D01*
X0186529Y0032961D01*
X0187289Y0033721D01*
X0186135Y0032432D02*
X0180731Y0032432D01*
X0180759Y0032499D02*
X0180184Y0031112D01*
X0179123Y0030050D01*
X0177735Y0029475D01*
X0176233Y0029475D01*
X0174846Y0030050D01*
X0173784Y0031112D01*
X0173209Y0032499D01*
X0173209Y0034001D01*
X0173784Y0035388D01*
X0174846Y0036450D01*
X0176233Y0037025D01*
X0177735Y0037025D01*
X0179123Y0036450D01*
X0180184Y0035388D01*
X0180759Y0034001D01*
X0180759Y0032499D01*
X0180747Y0034031D02*
X0182583Y0034031D01*
X0182300Y0035629D02*
X0179943Y0035629D01*
X0183159Y0037228D02*
X0175277Y0037228D01*
X0176461Y0038826D02*
X0189225Y0038826D01*
X0188872Y0037228D02*
X0186841Y0037228D01*
X0187700Y0035629D02*
X0188872Y0035629D01*
X0190006Y0040425D02*
X0176743Y0040425D01*
X0174025Y0035629D02*
X0171951Y0035629D01*
X0172192Y0035388D02*
X0171130Y0036450D01*
X0169743Y0037025D01*
X0168241Y0037025D01*
X0166854Y0036450D01*
X0165792Y0035388D01*
X0165217Y0034001D01*
X0165217Y0032499D01*
X0165792Y0031112D01*
X0166854Y0030050D01*
X0168241Y0029475D01*
X0169743Y0029475D01*
X0171130Y0030050D01*
X0172192Y0031112D01*
X0172767Y0032499D01*
X0172767Y0034001D01*
X0172192Y0035388D01*
X0172755Y0034031D02*
X0173222Y0034031D01*
X0173237Y0032432D02*
X0172739Y0032432D01*
X0171914Y0030834D02*
X0174062Y0030834D01*
X0179906Y0030834D02*
X0182581Y0030834D01*
X0180982Y0029235D02*
X0089514Y0029235D01*
X0089700Y0028787D02*
X0089289Y0029779D01*
X0089129Y0029939D01*
X0090249Y0029475D01*
X0091751Y0029475D01*
X0093138Y0030050D01*
X0094200Y0031112D01*
X0094775Y0032499D01*
X0094775Y0034001D01*
X0094200Y0035388D01*
X0093138Y0036450D01*
X0091751Y0037025D01*
X0090249Y0037025D01*
X0088862Y0036450D01*
X0087800Y0035388D01*
X0087225Y0034001D01*
X0087225Y0032499D01*
X0087800Y0031112D01*
X0088262Y0030650D01*
X0087537Y0030950D01*
X0086463Y0030950D01*
X0085471Y0030539D01*
X0084711Y0029779D01*
X0084300Y0028787D01*
X0084300Y0027713D01*
X0084711Y0026721D01*
X0085471Y0025961D01*
X0086463Y0025550D01*
X0087537Y0025550D01*
X0088529Y0025961D01*
X0089289Y0026721D01*
X0089700Y0027713D01*
X0089700Y0028787D01*
X0089668Y0027637D02*
X0146652Y0027637D01*
X0146711Y0027779D02*
X0146300Y0026787D01*
X0146300Y0025713D01*
X0146711Y0024721D01*
X0147471Y0023961D01*
X0148463Y0023550D01*
X0149537Y0023550D01*
X0150529Y0023961D01*
X0151289Y0024721D01*
X0151700Y0025713D01*
X0151700Y0026787D01*
X0151289Y0027779D01*
X0150529Y0028539D01*
X0149537Y0028950D01*
X0148463Y0028950D01*
X0147471Y0028539D01*
X0146711Y0027779D01*
X0146300Y0026038D02*
X0088606Y0026038D01*
X0085394Y0026038D02*
X0084803Y0026038D01*
X0085200Y0024440D02*
X0112570Y0024440D01*
X0112711Y0024779D02*
X0112300Y0023787D01*
X0112300Y0022713D01*
X0112711Y0021721D01*
X0113471Y0020961D01*
X0114463Y0020550D01*
X0115537Y0020550D01*
X0116529Y0020961D01*
X0117289Y0021721D01*
X0117700Y0022713D01*
X0117700Y0023787D01*
X0117289Y0024779D01*
X0116529Y0025539D01*
X0115537Y0025950D01*
X0114463Y0025950D01*
X0113471Y0025539D01*
X0112711Y0024779D01*
X0112300Y0022841D02*
X0104727Y0022841D01*
X0104529Y0023039D02*
X0103537Y0023450D01*
X0102463Y0023450D01*
X0101471Y0023039D01*
X0100711Y0022279D01*
X0100300Y0021287D01*
X0100300Y0020213D01*
X0100711Y0019221D01*
X0101471Y0018461D01*
X0102463Y0018050D01*
X0103537Y0018050D01*
X0104529Y0018461D01*
X0105289Y0019221D01*
X0105700Y0020213D01*
X0105700Y0021287D01*
X0105289Y0022279D01*
X0104529Y0023039D01*
X0105700Y0021243D02*
X0113189Y0021243D01*
X0116811Y0021243D02*
X0162489Y0021243D01*
X0162300Y0020787D02*
X0162711Y0021779D01*
X0163471Y0022539D01*
X0164463Y0022950D01*
X0165537Y0022950D01*
X0166529Y0022539D01*
X0167289Y0021779D01*
X0167700Y0020787D01*
X0167700Y0019713D01*
X0167289Y0018721D01*
X0166529Y0017961D01*
X0165537Y0017550D01*
X0164463Y0017550D01*
X0163471Y0017961D01*
X0162711Y0018721D01*
X0162300Y0019713D01*
X0162300Y0020787D01*
X0162329Y0019644D02*
X0154303Y0019644D01*
X0155604Y0018046D02*
X0163386Y0018046D01*
X0166614Y0018046D02*
X0180206Y0018046D01*
X0179543Y0019644D02*
X0167671Y0019644D01*
X0167511Y0021243D02*
X0175189Y0021243D01*
X0174300Y0022841D02*
X0165800Y0022841D01*
X0164200Y0022841D02*
X0117700Y0022841D01*
X0117430Y0024440D02*
X0146992Y0024440D01*
X0151008Y0024440D02*
X0174570Y0024440D01*
X0179205Y0026038D02*
X0151700Y0026038D01*
X0151348Y0027637D02*
X0179867Y0027637D01*
X0178881Y0021243D02*
X0178811Y0021243D01*
X0166070Y0030834D02*
X0163922Y0030834D01*
X0164200Y0031112D02*
X0164775Y0032499D01*
X0164775Y0034001D01*
X0164200Y0035388D01*
X0163138Y0036450D01*
X0161751Y0037025D01*
X0160249Y0037025D01*
X0158862Y0036450D01*
X0157800Y0035388D01*
X0157225Y0034001D01*
X0157225Y0032499D01*
X0157800Y0031112D01*
X0158862Y0030050D01*
X0160249Y0029475D01*
X0161751Y0029475D01*
X0163138Y0030050D01*
X0164200Y0031112D01*
X0164747Y0032432D02*
X0165245Y0032432D01*
X0165230Y0034031D02*
X0164762Y0034031D01*
X0163959Y0035629D02*
X0166033Y0035629D01*
X0165727Y0036483D02*
X0167115Y0037058D01*
X0168176Y0038120D01*
X0168751Y0039507D01*
X0168751Y0041009D01*
X0168176Y0042396D01*
X0167115Y0043458D01*
X0165727Y0044033D01*
X0164226Y0044033D01*
X0162838Y0043458D01*
X0161776Y0042396D01*
X0161202Y0041009D01*
X0161202Y0039507D01*
X0161776Y0038120D01*
X0162838Y0037058D01*
X0164226Y0036483D01*
X0165727Y0036483D01*
X0167285Y0037228D02*
X0170660Y0037228D01*
X0169476Y0038826D02*
X0168469Y0038826D01*
X0168751Y0040425D02*
X0169194Y0040425D01*
X0169614Y0042023D02*
X0168331Y0042023D01*
X0166719Y0043622D02*
X0171226Y0043622D01*
X0163233Y0043622D02*
X0158727Y0043622D01*
X0159123Y0043458D02*
X0157735Y0044033D01*
X0156233Y0044033D01*
X0154846Y0043458D01*
X0153784Y0042396D01*
X0153209Y0041009D01*
X0153209Y0039507D01*
X0153784Y0038120D01*
X0154846Y0037058D01*
X0156233Y0036483D01*
X0157735Y0036483D01*
X0159123Y0037058D01*
X0160184Y0038120D01*
X0160759Y0039507D01*
X0160759Y0041009D01*
X0160184Y0042396D01*
X0159123Y0043458D01*
X0160339Y0042023D02*
X0161622Y0042023D01*
X0161202Y0040425D02*
X0160759Y0040425D01*
X0160477Y0038826D02*
X0161484Y0038826D01*
X0162668Y0037228D02*
X0159292Y0037228D01*
X0158041Y0035629D02*
X0155967Y0035629D01*
X0156208Y0035388D02*
X0155146Y0036450D01*
X0153759Y0037025D01*
X0152257Y0037025D01*
X0150870Y0036450D01*
X0149808Y0035388D01*
X0149233Y0034001D01*
X0149233Y0032499D01*
X0149808Y0031112D01*
X0150870Y0030050D01*
X0152257Y0029475D01*
X0153759Y0029475D01*
X0155146Y0030050D01*
X0156208Y0031112D01*
X0156783Y0032499D01*
X0156783Y0034001D01*
X0156208Y0035388D01*
X0156770Y0034031D02*
X0157238Y0034031D01*
X0157253Y0032432D02*
X0156755Y0032432D01*
X0155930Y0030834D02*
X0158078Y0030834D01*
X0150086Y0030834D02*
X0117898Y0030834D01*
X0118176Y0031112D02*
X0118751Y0032499D01*
X0118751Y0034001D01*
X0118176Y0035388D01*
X0117115Y0036450D01*
X0115727Y0037025D01*
X0114226Y0037025D01*
X0112838Y0036450D01*
X0111776Y0035388D01*
X0111202Y0034001D01*
X0111202Y0032499D01*
X0111776Y0031112D01*
X0112838Y0030050D01*
X0114226Y0029475D01*
X0115727Y0029475D01*
X0117115Y0030050D01*
X0118176Y0031112D01*
X0118723Y0032432D02*
X0149261Y0032432D01*
X0149245Y0034031D02*
X0118739Y0034031D01*
X0117936Y0035629D02*
X0150049Y0035629D01*
X0149743Y0036483D02*
X0151130Y0037058D01*
X0152192Y0038120D01*
X0152767Y0039507D01*
X0152767Y0041009D01*
X0152192Y0042396D01*
X0151130Y0043458D01*
X0149743Y0044033D01*
X0148241Y0044033D01*
X0146854Y0043458D01*
X0145792Y0042396D01*
X0145217Y0041009D01*
X0145217Y0039507D01*
X0145792Y0038120D01*
X0146854Y0037058D01*
X0148241Y0036483D01*
X0149743Y0036483D01*
X0151300Y0037228D02*
X0154676Y0037228D01*
X0153491Y0038826D02*
X0152485Y0038826D01*
X0152767Y0040425D02*
X0153209Y0040425D01*
X0153630Y0042023D02*
X0152347Y0042023D01*
X0150735Y0043622D02*
X0155241Y0043622D01*
X0147249Y0043622D02*
X0112704Y0043622D01*
X0113099Y0043458D02*
X0111711Y0044033D01*
X0110210Y0044033D01*
X0108822Y0043458D01*
X0107761Y0042396D01*
X0107186Y0041009D01*
X0107186Y0039507D01*
X0107761Y0038120D01*
X0108822Y0037058D01*
X0110210Y0036483D01*
X0111711Y0036483D01*
X0113099Y0037058D01*
X0114161Y0038120D01*
X0114735Y0039507D01*
X0114735Y0041009D01*
X0114161Y0042396D01*
X0113099Y0043458D01*
X0114315Y0042023D02*
X0145638Y0042023D01*
X0145217Y0040425D02*
X0114735Y0040425D01*
X0114453Y0038826D02*
X0145499Y0038826D01*
X0146684Y0037228D02*
X0113269Y0037228D01*
X0112017Y0035629D02*
X0109943Y0035629D01*
X0110184Y0035388D02*
X0109123Y0036450D01*
X0107735Y0037025D01*
X0106233Y0037025D01*
X0104846Y0036450D01*
X0103784Y0035388D01*
X0103209Y0034001D01*
X0103209Y0032499D01*
X0103784Y0031112D01*
X0104846Y0030050D01*
X0106233Y0029475D01*
X0107735Y0029475D01*
X0109123Y0030050D01*
X0110184Y0031112D01*
X0110759Y0032499D01*
X0110759Y0034001D01*
X0110184Y0035388D01*
X0110747Y0034031D02*
X0111214Y0034031D01*
X0111229Y0032432D02*
X0110731Y0032432D01*
X0109906Y0030834D02*
X0112054Y0030834D01*
X0108652Y0037228D02*
X0105277Y0037228D01*
X0105107Y0037058D02*
X0106169Y0038120D01*
X0106743Y0039507D01*
X0106743Y0041009D01*
X0106169Y0042396D01*
X0105107Y0043458D01*
X0103719Y0044033D01*
X0102218Y0044033D01*
X0100830Y0043458D01*
X0099768Y0042396D01*
X0099194Y0041009D01*
X0099194Y0039507D01*
X0099768Y0038120D01*
X0100830Y0037058D01*
X0102218Y0036483D01*
X0103719Y0036483D01*
X0105107Y0037058D01*
X0104025Y0035629D02*
X0101951Y0035629D01*
X0102192Y0035388D02*
X0101130Y0036450D01*
X0099743Y0037025D01*
X0098241Y0037025D01*
X0096854Y0036450D01*
X0095792Y0035388D01*
X0095217Y0034001D01*
X0095217Y0032499D01*
X0095792Y0031112D01*
X0096854Y0030050D01*
X0098241Y0029475D01*
X0099743Y0029475D01*
X0101130Y0030050D01*
X0102192Y0031112D01*
X0102767Y0032499D01*
X0102767Y0034001D01*
X0102192Y0035388D01*
X0102755Y0034031D02*
X0103222Y0034031D01*
X0103237Y0032432D02*
X0102739Y0032432D01*
X0101914Y0030834D02*
X0104062Y0030834D01*
X0100660Y0037228D02*
X0097285Y0037228D01*
X0097115Y0037058D02*
X0098176Y0038120D01*
X0098751Y0039507D01*
X0098751Y0041009D01*
X0098176Y0042396D01*
X0097115Y0043458D01*
X0095727Y0044033D01*
X0094226Y0044033D01*
X0092838Y0043458D01*
X0091776Y0042396D01*
X0091202Y0041009D01*
X0091202Y0039507D01*
X0091776Y0038120D01*
X0092838Y0037058D01*
X0094226Y0036483D01*
X0095727Y0036483D01*
X0097115Y0037058D01*
X0096033Y0035629D02*
X0093959Y0035629D01*
X0094762Y0034031D02*
X0095230Y0034031D01*
X0095245Y0032432D02*
X0094747Y0032432D01*
X0093922Y0030834D02*
X0096070Y0030834D01*
X0092668Y0037228D02*
X0089292Y0037228D01*
X0089123Y0037058D02*
X0090184Y0038120D01*
X0090759Y0039507D01*
X0090759Y0041009D01*
X0090184Y0042396D01*
X0089123Y0043458D01*
X0087735Y0044033D01*
X0086233Y0044033D01*
X0084846Y0043458D01*
X0083784Y0042396D01*
X0083209Y0041009D01*
X0083209Y0039507D01*
X0083784Y0038120D01*
X0084846Y0037058D01*
X0086233Y0036483D01*
X0087735Y0036483D01*
X0089123Y0037058D01*
X0088041Y0035629D02*
X0075136Y0035629D01*
X0075136Y0037228D02*
X0084676Y0037228D01*
X0083491Y0038826D02*
X0080204Y0038826D01*
X0080529Y0038961D02*
X0079537Y0038550D01*
X0078463Y0038550D01*
X0077471Y0038961D01*
X0076711Y0039721D01*
X0076300Y0040713D01*
X0076300Y0041787D01*
X0076711Y0042779D01*
X0077471Y0043539D01*
X0078463Y0043950D01*
X0079537Y0043950D01*
X0080529Y0043539D01*
X0081289Y0042779D01*
X0081700Y0041787D01*
X0081700Y0040713D01*
X0081289Y0039721D01*
X0080529Y0038961D01*
X0081581Y0040425D02*
X0083209Y0040425D01*
X0083630Y0042023D02*
X0081602Y0042023D01*
X0080330Y0043622D02*
X0085241Y0043622D01*
X0088727Y0043622D02*
X0093233Y0043622D01*
X0091622Y0042023D02*
X0090339Y0042023D01*
X0090759Y0040425D02*
X0091202Y0040425D01*
X0091484Y0038826D02*
X0090477Y0038826D01*
X0087238Y0034031D02*
X0074513Y0034031D01*
X0074127Y0032432D02*
X0073351Y0032432D01*
X0077873Y0032432D02*
X0087253Y0032432D01*
X0087818Y0030834D02*
X0088078Y0030834D01*
X0086182Y0030834D02*
X0081427Y0030834D01*
X0083026Y0029235D02*
X0084486Y0029235D01*
X0084332Y0027637D02*
X0084141Y0027637D01*
X0085200Y0022841D02*
X0101273Y0022841D01*
X0100300Y0021243D02*
X0085126Y0021243D01*
X0084464Y0019644D02*
X0089724Y0019644D01*
X0088407Y0018046D02*
X0083802Y0018046D01*
X0092276Y0019644D02*
X0100536Y0019644D01*
X0105464Y0019644D02*
X0151713Y0019644D01*
X0150412Y0018046D02*
X0093593Y0018046D01*
X0098469Y0038826D02*
X0099476Y0038826D01*
X0099194Y0040425D02*
X0098751Y0040425D01*
X0098331Y0042023D02*
X0099614Y0042023D01*
X0101226Y0043622D02*
X0096719Y0043622D01*
X0104711Y0043622D02*
X0109218Y0043622D01*
X0107606Y0042023D02*
X0106323Y0042023D01*
X0106743Y0040425D02*
X0107186Y0040425D01*
X0107468Y0038826D02*
X0106461Y0038826D01*
X0103442Y0056410D02*
X0116478Y0056410D01*
X0115414Y0058008D02*
X0086586Y0058008D01*
X0086783Y0059607D02*
X0115217Y0059607D01*
X0115723Y0061205D02*
X0086277Y0061205D01*
X0085522Y0056410D02*
X0098558Y0056410D01*
X0080494Y0056410D02*
X0076506Y0056410D01*
X0077570Y0058008D02*
X0079430Y0058008D01*
X0079233Y0059607D02*
X0077767Y0059607D01*
X0077261Y0061205D02*
X0079739Y0061205D01*
X0061395Y0064402D02*
X0183029Y0064402D01*
X0182300Y0066001D02*
X0060309Y0066001D01*
X0062661Y0043622D02*
X0077670Y0043622D01*
X0076398Y0042023D02*
X0072295Y0042023D01*
X0074002Y0040425D02*
X0076419Y0040425D01*
X0077796Y0038826D02*
X0074782Y0038826D01*
X0065729Y0042023D02*
X0062661Y0042023D01*
X0062078Y0040425D02*
X0064021Y0040425D01*
X0063241Y0038826D02*
X0061416Y0038826D01*
X0059947Y0037228D02*
X0062887Y0037228D01*
X0062887Y0035629D02*
X0057634Y0035629D01*
X0063511Y0034031D02*
X0045072Y0034031D01*
X0045275Y0033541D02*
X0043768Y0037179D01*
X0040983Y0039964D01*
X0037344Y0041471D01*
X0033406Y0041471D01*
X0029767Y0039964D01*
X0026982Y0037179D01*
X0025475Y0033541D01*
X0025475Y0029602D01*
X0026982Y0025964D01*
X0029767Y0023179D01*
X0033406Y0021671D01*
X0037344Y0021671D01*
X0040983Y0023179D01*
X0043768Y0025964D01*
X0045275Y0029602D01*
X0045275Y0033541D01*
X0045275Y0032432D02*
X0064672Y0032432D01*
X0067301Y0030834D02*
X0045275Y0030834D01*
X0045123Y0029235D02*
X0068974Y0029235D01*
X0067859Y0027637D02*
X0044461Y0027637D01*
X0043799Y0026038D02*
X0067197Y0026038D01*
X0066800Y0024440D02*
X0042244Y0024440D01*
X0040168Y0022841D02*
X0066800Y0022841D01*
X0066873Y0021243D02*
X0019000Y0021243D01*
X0019000Y0022841D02*
X0030582Y0022841D01*
X0028506Y0024440D02*
X0019000Y0024440D01*
X0019000Y0026038D02*
X0026951Y0026038D01*
X0026289Y0027637D02*
X0019000Y0027637D01*
X0019000Y0029235D02*
X0025627Y0029235D01*
X0025475Y0030834D02*
X0019000Y0030834D01*
X0019000Y0032432D02*
X0025475Y0032432D01*
X0025678Y0034031D02*
X0019000Y0034031D01*
X0019000Y0035629D02*
X0026340Y0035629D01*
X0027030Y0037228D02*
X0019000Y0037228D01*
X0019000Y0038826D02*
X0028629Y0038826D01*
X0030879Y0040425D02*
X0019000Y0040425D01*
X0019000Y0042023D02*
X0045097Y0042023D01*
X0045097Y0043622D02*
X0019000Y0043622D01*
X0039871Y0040425D02*
X0045680Y0040425D01*
X0046342Y0038826D02*
X0042121Y0038826D01*
X0043719Y0037228D02*
X0047811Y0037228D01*
X0050124Y0035629D02*
X0044410Y0035629D01*
X0067536Y0019644D02*
X0019000Y0019644D01*
X0019000Y0018046D02*
X0068198Y0018046D01*
X0121506Y0056410D02*
X0125494Y0056410D01*
X0124430Y0058008D02*
X0122570Y0058008D01*
X0122767Y0059607D02*
X0124233Y0059607D01*
X0124739Y0061205D02*
X0122261Y0061205D01*
X0131277Y0061205D02*
X0132731Y0061205D01*
X0132225Y0059607D02*
X0131783Y0059607D01*
X0131586Y0058008D02*
X0132422Y0058008D01*
X0133486Y0056410D02*
X0130522Y0056410D01*
X0138514Y0056410D02*
X0142502Y0056410D01*
X0141438Y0058008D02*
X0139578Y0058008D01*
X0139775Y0059607D02*
X0141241Y0059607D01*
X0141746Y0061205D02*
X0139269Y0061205D01*
X0128138Y0082050D02*
X0126751Y0081475D01*
X0125249Y0081475D01*
X0123862Y0082050D01*
X0122800Y0083112D01*
X0122500Y0083836D01*
X0122200Y0083112D01*
X0121138Y0082050D01*
X0119751Y0081475D01*
X0118249Y0081475D01*
X0116862Y0082050D01*
X0115800Y0083112D01*
X0115225Y0084499D01*
X0115225Y0086001D01*
X0115800Y0087388D01*
X0116862Y0088450D01*
X0118249Y0089025D01*
X0119751Y0089025D01*
X0121138Y0088450D01*
X0122200Y0087388D01*
X0122500Y0086664D01*
X0122800Y0087388D01*
X0123862Y0088450D01*
X0125249Y0089025D01*
X0126751Y0089025D01*
X0128138Y0088450D01*
X0129200Y0087388D01*
X0129775Y0086001D01*
X0129775Y0084499D01*
X0129200Y0083112D01*
X0128138Y0082050D01*
X0127984Y0081986D02*
X0192699Y0081986D01*
X0193286Y0083404D02*
X0191901Y0080060D01*
X0191901Y0076440D01*
X0193286Y0073096D01*
X0195846Y0070536D01*
X0199190Y0069151D01*
X0202810Y0069151D01*
X0206154Y0070536D01*
X0208714Y0073096D01*
X0210099Y0076440D01*
X0210099Y0080060D01*
X0208714Y0083404D01*
X0206154Y0085964D01*
X0202810Y0087349D01*
X0199190Y0087349D01*
X0195846Y0085964D01*
X0193286Y0083404D01*
X0193466Y0083584D02*
X0129396Y0083584D01*
X0129775Y0085183D02*
X0163249Y0085183D01*
X0163471Y0084961D02*
X0164463Y0084550D01*
X0165537Y0084550D01*
X0166529Y0084961D01*
X0167289Y0085721D01*
X0167700Y0086713D01*
X0167700Y0087617D01*
X0168529Y0087961D01*
X0169289Y0088721D01*
X0169700Y0089713D01*
X0169700Y0090787D01*
X0169289Y0091779D01*
X0168529Y0092539D01*
X0167537Y0092950D01*
X0166463Y0092950D01*
X0165471Y0092539D01*
X0164711Y0091779D01*
X0164300Y0090787D01*
X0164300Y0089882D01*
X0163471Y0089539D01*
X0162711Y0088779D01*
X0162300Y0087787D01*
X0162300Y0086713D01*
X0162711Y0085721D01*
X0163471Y0084961D01*
X0162300Y0086782D02*
X0146096Y0086782D01*
X0146529Y0086961D02*
X0147289Y0087721D01*
X0147700Y0088713D01*
X0147700Y0089787D01*
X0147289Y0090779D01*
X0146529Y0091539D01*
X0145537Y0091950D01*
X0144463Y0091950D01*
X0143471Y0091539D01*
X0142711Y0090779D01*
X0142300Y0089787D01*
X0142300Y0088713D01*
X0142711Y0087721D01*
X0143471Y0086961D01*
X0144463Y0086550D01*
X0145537Y0086550D01*
X0146529Y0086961D01*
X0147562Y0088380D02*
X0162546Y0088380D01*
X0164300Y0089979D02*
X0147621Y0089979D01*
X0146437Y0091577D02*
X0164627Y0091577D01*
X0168948Y0088380D02*
X0236356Y0088380D01*
X0236356Y0087601D02*
X0237019Y0086001D01*
X0238243Y0084776D01*
X0239843Y0084114D01*
X0241574Y0084114D01*
X0243174Y0084776D01*
X0244399Y0086001D01*
X0245061Y0087601D01*
X0245061Y0089332D01*
X0244399Y0090932D01*
X0243174Y0092157D01*
X0241574Y0092819D01*
X0239843Y0092819D01*
X0238243Y0092157D01*
X0237019Y0090932D01*
X0236356Y0089332D01*
X0236356Y0087601D01*
X0236695Y0086782D02*
X0225944Y0086782D01*
X0225537Y0086950D02*
X0224463Y0086950D01*
X0223471Y0086539D01*
X0222711Y0085779D01*
X0222367Y0084950D01*
X0221463Y0084950D01*
X0220471Y0084539D01*
X0219711Y0083779D01*
X0219300Y0082787D01*
X0219300Y0081950D01*
X0218463Y0081950D01*
X0217471Y0081539D01*
X0216711Y0080779D01*
X0216300Y0079787D01*
X0216300Y0078713D01*
X0216711Y0077721D01*
X0217471Y0076961D01*
X0218463Y0076550D01*
X0219537Y0076550D01*
X0220529Y0076961D01*
X0221289Y0077721D01*
X0221700Y0078713D01*
X0221700Y0079550D01*
X0222537Y0079550D01*
X0223529Y0079961D01*
X0224289Y0080721D01*
X0224632Y0081550D01*
X0225537Y0081550D01*
X0226529Y0081961D01*
X0227289Y0082721D01*
X0227700Y0083713D01*
X0227700Y0084787D01*
X0227289Y0085779D01*
X0226529Y0086539D01*
X0225537Y0086950D01*
X0224056Y0086782D02*
X0204180Y0086782D01*
X0206935Y0085183D02*
X0222464Y0085183D01*
X0219630Y0083584D02*
X0208534Y0083584D01*
X0209301Y0081986D02*
X0219300Y0081986D01*
X0216549Y0080387D02*
X0209964Y0080387D01*
X0210099Y0078789D02*
X0216300Y0078789D01*
X0217241Y0077190D02*
X0210099Y0077190D01*
X0209748Y0075592D02*
X0262063Y0075592D01*
X0262063Y0077190D02*
X0220759Y0077190D01*
X0221700Y0078789D02*
X0262063Y0078789D01*
X0262063Y0080387D02*
X0223956Y0080387D01*
X0226554Y0081986D02*
X0262063Y0081986D01*
X0262063Y0083584D02*
X0227647Y0083584D01*
X0227536Y0085183D02*
X0237836Y0085183D01*
X0236624Y0089979D02*
X0169700Y0089979D01*
X0169373Y0091577D02*
X0231535Y0091577D01*
X0231969Y0091397D02*
X0233700Y0091397D01*
X0235300Y0092060D01*
X0236525Y0093284D01*
X0237187Y0094884D01*
X0237187Y0096616D01*
X0236525Y0098216D01*
X0235300Y0099440D01*
X0233700Y0100103D01*
X0231969Y0100103D01*
X0230369Y0099440D01*
X0229145Y0098216D01*
X0228482Y0096616D01*
X0228482Y0094884D01*
X0229145Y0093284D01*
X0230369Y0092060D01*
X0231969Y0091397D01*
X0234135Y0091577D02*
X0237663Y0091577D01*
X0236416Y0093176D02*
X0246030Y0093176D01*
X0245389Y0094774D02*
X0237142Y0094774D01*
X0237187Y0096373D02*
X0245389Y0096373D01*
X0245884Y0097971D02*
X0236626Y0097971D01*
X0238017Y0099570D02*
X0234988Y0099570D01*
X0237019Y0100568D02*
X0238243Y0099343D01*
X0239843Y0098681D01*
X0241574Y0098681D01*
X0243174Y0099343D01*
X0244399Y0100568D01*
X0245061Y0102168D01*
X0245061Y0103899D01*
X0244399Y0105499D01*
X0243174Y0106724D01*
X0241574Y0107386D01*
X0239843Y0107386D01*
X0238243Y0106724D01*
X0237019Y0105499D01*
X0236356Y0103899D01*
X0236356Y0102168D01*
X0237019Y0100568D01*
X0236770Y0101168D02*
X0217700Y0101168D01*
X0217700Y0100713D02*
X0217289Y0099721D01*
X0216529Y0098961D01*
X0215537Y0098550D01*
X0214463Y0098550D01*
X0213471Y0098961D01*
X0212711Y0099721D01*
X0212300Y0100713D01*
X0212300Y0101787D01*
X0212711Y0102779D01*
X0213471Y0103539D01*
X0214463Y0103950D01*
X0215537Y0103950D01*
X0216529Y0103539D01*
X0217289Y0102779D01*
X0217700Y0101787D01*
X0217700Y0100713D01*
X0218471Y0100539D02*
X0217711Y0099779D01*
X0217300Y0098787D01*
X0217300Y0097713D01*
X0217711Y0096721D01*
X0218471Y0095961D01*
X0219463Y0095550D01*
X0220537Y0095550D01*
X0221529Y0095961D01*
X0222289Y0096721D01*
X0222700Y0097713D01*
X0222700Y0098787D01*
X0222289Y0099779D01*
X0221529Y0100539D01*
X0220537Y0100950D01*
X0219463Y0100950D01*
X0218471Y0100539D01*
X0217624Y0099570D02*
X0217138Y0099570D01*
X0217300Y0097971D02*
X0169700Y0097971D01*
X0169700Y0097713D02*
X0169700Y0098787D01*
X0169289Y0099779D01*
X0168529Y0100539D01*
X0167537Y0100950D01*
X0166463Y0100950D01*
X0165471Y0100539D01*
X0164711Y0099779D01*
X0164300Y0098787D01*
X0164300Y0097713D01*
X0164711Y0096721D01*
X0165471Y0095961D01*
X0166463Y0095550D01*
X0167537Y0095550D01*
X0168529Y0095961D01*
X0169289Y0096721D01*
X0169700Y0097713D01*
X0168941Y0096373D02*
X0218059Y0096373D01*
X0221941Y0096373D02*
X0228482Y0096373D01*
X0228527Y0094774D02*
X0091291Y0094774D01*
X0091289Y0094779D02*
X0090529Y0095539D01*
X0089537Y0095950D01*
X0088463Y0095950D01*
X0087471Y0095539D01*
X0086711Y0094779D01*
X0086300Y0093787D01*
X0086300Y0092713D01*
X0086711Y0091721D01*
X0087471Y0090961D01*
X0088463Y0090550D01*
X0089537Y0090550D01*
X0090529Y0090961D01*
X0091289Y0091721D01*
X0091700Y0092713D01*
X0091700Y0093787D01*
X0091289Y0094779D01*
X0091700Y0093176D02*
X0229253Y0093176D01*
X0229043Y0097971D02*
X0222700Y0097971D01*
X0222376Y0099570D02*
X0230682Y0099570D01*
X0236356Y0102767D02*
X0217294Y0102767D01*
X0217537Y0104550D02*
X0218529Y0104961D01*
X0219289Y0105721D01*
X0219700Y0106713D01*
X0219700Y0107787D01*
X0219289Y0108779D01*
X0218529Y0109539D01*
X0217537Y0109950D01*
X0216463Y0109950D01*
X0215471Y0109539D01*
X0214711Y0108779D01*
X0214300Y0107787D01*
X0214300Y0106713D01*
X0214711Y0105721D01*
X0215471Y0104961D01*
X0216463Y0104550D01*
X0217537Y0104550D01*
X0219390Y0105964D02*
X0222610Y0105964D01*
X0222711Y0105721D02*
X0223471Y0104961D01*
X0224463Y0104550D01*
X0225537Y0104550D01*
X0226529Y0104961D01*
X0227289Y0105721D01*
X0227700Y0106713D01*
X0227700Y0107787D01*
X0227289Y0108779D01*
X0226529Y0109539D01*
X0225537Y0109950D01*
X0224463Y0109950D01*
X0223471Y0109539D01*
X0222711Y0108779D01*
X0222300Y0107787D01*
X0222300Y0106713D01*
X0222711Y0105721D01*
X0222300Y0107562D02*
X0219700Y0107562D01*
X0218908Y0109161D02*
X0223092Y0109161D01*
X0226908Y0109161D02*
X0262063Y0109161D01*
X0262063Y0107562D02*
X0227700Y0107562D01*
X0227390Y0105964D02*
X0237483Y0105964D01*
X0236549Y0104365D02*
X0040934Y0104365D01*
X0041289Y0104721D02*
X0041700Y0105713D01*
X0041700Y0106787D01*
X0041289Y0107779D01*
X0040529Y0108539D01*
X0039537Y0108950D01*
X0038463Y0108950D01*
X0037471Y0108539D01*
X0036711Y0107779D01*
X0036300Y0106787D01*
X0036300Y0105713D01*
X0036711Y0104721D01*
X0037471Y0103961D01*
X0038463Y0103550D01*
X0039537Y0103550D01*
X0040529Y0103961D01*
X0041289Y0104721D01*
X0041700Y0105964D02*
X0178610Y0105964D01*
X0178711Y0105721D02*
X0179471Y0104961D01*
X0180463Y0104550D01*
X0181537Y0104550D01*
X0182529Y0104961D01*
X0183289Y0105721D01*
X0183632Y0106550D01*
X0184537Y0106550D01*
X0185529Y0106961D01*
X0186289Y0107721D01*
X0186700Y0108713D01*
X0186700Y0109787D01*
X0186289Y0110779D01*
X0185529Y0111539D01*
X0184537Y0111950D01*
X0183463Y0111950D01*
X0182471Y0111539D01*
X0181711Y0110779D01*
X0181367Y0109950D01*
X0180463Y0109950D01*
X0179471Y0109539D01*
X0178711Y0108779D01*
X0178300Y0107787D01*
X0178300Y0106713D01*
X0178711Y0105721D01*
X0178300Y0107562D02*
X0101131Y0107562D01*
X0101289Y0107721D02*
X0101700Y0108713D01*
X0101700Y0109787D01*
X0101289Y0110779D01*
X0100529Y0111539D01*
X0099537Y0111950D01*
X0098463Y0111950D01*
X0097471Y0111539D01*
X0097000Y0111068D01*
X0096529Y0111539D01*
X0095537Y0111950D01*
X0094463Y0111950D01*
X0093471Y0111539D01*
X0093000Y0111068D01*
X0092529Y0111539D01*
X0091537Y0111950D01*
X0090463Y0111950D01*
X0089471Y0111539D01*
X0088711Y0110779D01*
X0088300Y0109787D01*
X0088300Y0108713D01*
X0088711Y0107721D01*
X0089471Y0106961D01*
X0090463Y0106550D01*
X0091537Y0106550D01*
X0092529Y0106961D01*
X0093000Y0107432D01*
X0093471Y0106961D01*
X0094463Y0106550D01*
X0095537Y0106550D01*
X0096529Y0106961D01*
X0097000Y0107432D01*
X0097471Y0106961D01*
X0098463Y0106550D01*
X0099537Y0106550D01*
X0100529Y0106961D01*
X0101289Y0107721D01*
X0101700Y0109161D02*
X0147271Y0109161D01*
X0147471Y0108961D02*
X0148463Y0108550D01*
X0149537Y0108550D01*
X0150529Y0108961D01*
X0151289Y0109721D01*
X0151700Y0110713D01*
X0151700Y0111787D01*
X0151289Y0112779D01*
X0150529Y0113539D01*
X0149537Y0113950D01*
X0148463Y0113950D01*
X0147471Y0113539D01*
X0146711Y0112779D01*
X0146300Y0111787D01*
X0146300Y0110713D01*
X0146711Y0109721D01*
X0147471Y0108961D01*
X0146300Y0110759D02*
X0136042Y0110759D01*
X0136529Y0110961D02*
X0137289Y0111721D01*
X0137700Y0112713D01*
X0137700Y0113787D01*
X0137289Y0114779D01*
X0136529Y0115539D01*
X0135537Y0115950D01*
X0134463Y0115950D01*
X0133471Y0115539D01*
X0132711Y0114779D01*
X0132300Y0113787D01*
X0132300Y0112713D01*
X0132711Y0111721D01*
X0133471Y0110961D01*
X0134463Y0110550D01*
X0135537Y0110550D01*
X0136529Y0110961D01*
X0137553Y0112358D02*
X0146536Y0112358D01*
X0151464Y0112358D02*
X0185900Y0112358D01*
X0185900Y0112236D02*
X0186676Y0110361D01*
X0188111Y0108926D01*
X0189986Y0108150D01*
X0192014Y0108150D01*
X0193889Y0108926D01*
X0195324Y0110361D01*
X0196100Y0112236D01*
X0196100Y0114264D01*
X0195324Y0116139D01*
X0193889Y0117574D01*
X0192763Y0118040D01*
X0193111Y0118153D01*
X0193883Y0118546D01*
X0194583Y0119055D01*
X0195195Y0119667D01*
X0195704Y0120367D01*
X0196097Y0121139D01*
X0196365Y0121962D01*
X0196500Y0122817D01*
X0196500Y0123050D01*
X0191200Y0123050D01*
X0191200Y0123450D01*
X0196500Y0123450D01*
X0196500Y0123683D01*
X0196365Y0124538D01*
X0196097Y0125361D01*
X0195704Y0126133D01*
X0195195Y0126833D01*
X0194583Y0127445D01*
X0193883Y0127954D01*
X0193111Y0128347D01*
X0192763Y0128460D01*
X0193889Y0128926D01*
X0195324Y0130361D01*
X0196100Y0132236D01*
X0196100Y0134264D01*
X0195324Y0136139D01*
X0193889Y0137574D01*
X0192256Y0138250D01*
X0193889Y0138926D01*
X0195324Y0140361D01*
X0196100Y0142236D01*
X0196100Y0144264D01*
X0195324Y0146139D01*
X0193889Y0147574D01*
X0192256Y0148250D01*
X0193889Y0148926D01*
X0195324Y0150361D01*
X0196100Y0152236D01*
X0196100Y0154264D01*
X0195324Y0156139D01*
X0193889Y0157574D01*
X0192256Y0158250D01*
X0193889Y0158926D01*
X0195324Y0160361D01*
X0196100Y0162236D01*
X0196100Y0164264D01*
X0195324Y0166139D01*
X0193889Y0167574D01*
X0192256Y0168250D01*
X0193889Y0168926D01*
X0195324Y0170361D01*
X0196100Y0172236D01*
X0196100Y0174264D01*
X0195324Y0176139D01*
X0193889Y0177574D01*
X0192256Y0178250D01*
X0193889Y0178926D01*
X0195324Y0180361D01*
X0196100Y0182236D01*
X0196100Y0182332D01*
X0196471Y0181961D01*
X0197463Y0181550D01*
X0198300Y0181550D01*
X0198300Y0180713D01*
X0198711Y0179721D01*
X0199471Y0178961D01*
X0200463Y0178550D01*
X0201537Y0178550D01*
X0202529Y0178961D01*
X0203289Y0179721D01*
X0203700Y0180713D01*
X0203700Y0181787D01*
X0203289Y0182779D01*
X0202529Y0183539D01*
X0201537Y0183950D01*
X0200700Y0183950D01*
X0200700Y0184787D01*
X0200289Y0185779D01*
X0199529Y0186539D01*
X0198537Y0186950D01*
X0197463Y0186950D01*
X0196471Y0186539D01*
X0195711Y0185779D01*
X0195592Y0185491D01*
X0195324Y0186139D01*
X0193889Y0187574D01*
X0192256Y0188250D01*
X0193889Y0188926D01*
X0195324Y0190361D01*
X0196100Y0192236D01*
X0196100Y0194264D01*
X0195324Y0196139D01*
X0193889Y0197574D01*
X0192256Y0198250D01*
X0193889Y0198926D01*
X0195324Y0200361D01*
X0196100Y0202236D01*
X0196100Y0204264D01*
X0195324Y0206139D01*
X0193889Y0207574D01*
X0192256Y0208250D01*
X0193889Y0208926D01*
X0195324Y0210361D01*
X0196100Y0212236D01*
X0196100Y0214264D01*
X0195324Y0216139D01*
X0193889Y0217574D01*
X0192256Y0218250D01*
X0193889Y0218926D01*
X0195324Y0220361D01*
X0195385Y0220509D01*
X0195711Y0219721D01*
X0196471Y0218961D01*
X0197463Y0218550D01*
X0198537Y0218550D01*
X0199529Y0218961D01*
X0200289Y0219721D01*
X0200700Y0220713D01*
X0200700Y0221787D01*
X0200289Y0222779D01*
X0199529Y0223539D01*
X0198537Y0223950D01*
X0197463Y0223950D01*
X0196471Y0223539D01*
X0196100Y0223168D01*
X0196100Y0224264D01*
X0195324Y0226139D01*
X0193889Y0227574D01*
X0192014Y0228350D01*
X0189986Y0228350D01*
X0188111Y0227574D01*
X0186676Y0226139D01*
X0185900Y0224264D01*
X0185900Y0222236D01*
X0186676Y0220361D01*
X0188111Y0218926D01*
X0189744Y0218250D01*
X0188111Y0217574D01*
X0186676Y0216139D01*
X0185900Y0214264D01*
X0185900Y0212236D01*
X0186676Y0210361D01*
X0188111Y0208926D01*
X0189744Y0208250D01*
X0188111Y0207574D01*
X0186676Y0206139D01*
X0185900Y0204264D01*
X0185900Y0202236D01*
X0186676Y0200361D01*
X0188111Y0198926D01*
X0189744Y0198250D01*
X0188111Y0197574D01*
X0186676Y0196139D01*
X0185900Y0194264D01*
X0185900Y0192236D01*
X0186676Y0190361D01*
X0188111Y0188926D01*
X0189744Y0188250D01*
X0188111Y0187574D01*
X0186676Y0186139D01*
X0185900Y0184264D01*
X0185900Y0182236D01*
X0186676Y0180361D01*
X0188111Y0178926D01*
X0189744Y0178250D01*
X0188111Y0177574D01*
X0186676Y0176139D01*
X0185900Y0174264D01*
X0185900Y0172236D01*
X0186676Y0170361D01*
X0188111Y0168926D01*
X0189744Y0168250D01*
X0188111Y0167574D01*
X0186676Y0166139D01*
X0185900Y0164264D01*
X0185900Y0162236D01*
X0186676Y0160361D01*
X0188111Y0158926D01*
X0189744Y0158250D01*
X0188111Y0157574D01*
X0186676Y0156139D01*
X0185900Y0154264D01*
X0185900Y0152236D01*
X0186676Y0150361D01*
X0188111Y0148926D01*
X0189744Y0148250D01*
X0188111Y0147574D01*
X0186676Y0146139D01*
X0185900Y0144264D01*
X0185900Y0142236D01*
X0186676Y0140361D01*
X0188111Y0138926D01*
X0189744Y0138250D01*
X0188111Y0137574D01*
X0186676Y0136139D01*
X0185900Y0134264D01*
X0185900Y0134168D01*
X0185529Y0134539D01*
X0184537Y0134950D01*
X0183463Y0134950D01*
X0182471Y0134539D01*
X0181711Y0133779D01*
X0181300Y0132787D01*
X0181300Y0131713D01*
X0181711Y0130721D01*
X0182471Y0129961D01*
X0183463Y0129550D01*
X0184537Y0129550D01*
X0185529Y0129961D01*
X0186289Y0130721D01*
X0186408Y0131009D01*
X0186676Y0130361D01*
X0188111Y0128926D01*
X0189237Y0128460D01*
X0188889Y0128347D01*
X0188117Y0127954D01*
X0187417Y0127445D01*
X0186805Y0126833D01*
X0186296Y0126133D01*
X0185903Y0125361D01*
X0185635Y0124538D01*
X0185500Y0123683D01*
X0185500Y0123450D01*
X0190800Y0123450D01*
X0190800Y0123050D01*
X0185500Y0123050D01*
X0185500Y0122817D01*
X0185635Y0121962D01*
X0185903Y0121139D01*
X0186296Y0120367D01*
X0186805Y0119667D01*
X0187417Y0119055D01*
X0188117Y0118546D01*
X0188889Y0118153D01*
X0189237Y0118040D01*
X0188111Y0117574D01*
X0186676Y0116139D01*
X0185900Y0114264D01*
X0185900Y0112236D01*
X0186297Y0110759D02*
X0186512Y0110759D01*
X0186700Y0109161D02*
X0187877Y0109161D01*
X0186131Y0107562D02*
X0214300Y0107562D01*
X0214610Y0105964D02*
X0183390Y0105964D01*
X0181703Y0110759D02*
X0151700Y0110759D01*
X0150729Y0109161D02*
X0179092Y0109161D01*
X0185900Y0113956D02*
X0164518Y0113956D01*
X0164529Y0113961D02*
X0165289Y0114721D01*
X0165700Y0115713D01*
X0165700Y0116787D01*
X0165289Y0117779D01*
X0164529Y0118539D01*
X0163537Y0118950D01*
X0162463Y0118950D01*
X0161471Y0118539D01*
X0160711Y0117779D01*
X0160300Y0116787D01*
X0160300Y0115713D01*
X0160711Y0114721D01*
X0161471Y0113961D01*
X0162463Y0113550D01*
X0163537Y0113550D01*
X0164529Y0113961D01*
X0165634Y0115555D02*
X0186434Y0115555D01*
X0187691Y0117153D02*
X0165548Y0117153D01*
X0164016Y0118752D02*
X0187834Y0118752D01*
X0186308Y0120350D02*
X0107550Y0120350D01*
X0107700Y0120713D02*
X0107289Y0119721D01*
X0106529Y0118961D01*
X0105537Y0118550D01*
X0104463Y0118550D01*
X0103471Y0118961D01*
X0102711Y0119721D01*
X0102300Y0120713D01*
X0102300Y0121787D01*
X0102711Y0122779D01*
X0103471Y0123539D01*
X0104463Y0123950D01*
X0105537Y0123950D01*
X0106529Y0123539D01*
X0107289Y0122779D01*
X0107700Y0121787D01*
X0107700Y0120713D01*
X0107633Y0121949D02*
X0185640Y0121949D01*
X0185500Y0123547D02*
X0177116Y0123547D01*
X0177289Y0123721D02*
X0177700Y0124713D01*
X0177700Y0125787D01*
X0177289Y0126779D01*
X0176529Y0127539D01*
X0175537Y0127950D01*
X0174463Y0127950D01*
X0173471Y0127539D01*
X0172711Y0126779D01*
X0172300Y0125787D01*
X0172300Y0124713D01*
X0172711Y0123721D01*
X0173471Y0122961D01*
X0174463Y0122550D01*
X0175537Y0122550D01*
X0176529Y0122961D01*
X0177289Y0123721D01*
X0177700Y0125146D02*
X0185833Y0125146D01*
X0186740Y0126744D02*
X0177303Y0126744D01*
X0172697Y0126744D02*
X0172299Y0126744D01*
X0172289Y0126721D02*
X0172700Y0127713D01*
X0172700Y0128787D01*
X0172289Y0129779D01*
X0171529Y0130539D01*
X0170537Y0130950D01*
X0169463Y0130950D01*
X0168471Y0130539D01*
X0167711Y0129779D01*
X0167300Y0128787D01*
X0167300Y0127713D01*
X0167711Y0126721D01*
X0168471Y0125961D01*
X0169463Y0125550D01*
X0170537Y0125550D01*
X0171529Y0125961D01*
X0172289Y0126721D01*
X0172300Y0125146D02*
X0146700Y0125146D01*
X0146700Y0124713D02*
X0146289Y0123721D01*
X0145529Y0122961D01*
X0144537Y0122550D01*
X0143463Y0122550D01*
X0142471Y0122961D01*
X0141711Y0123721D01*
X0141300Y0124713D01*
X0141300Y0125787D01*
X0141711Y0126779D01*
X0142471Y0127539D01*
X0143463Y0127950D01*
X0144537Y0127950D01*
X0145529Y0127539D01*
X0146289Y0126779D01*
X0146700Y0125787D01*
X0146700Y0124713D01*
X0146116Y0123547D02*
X0172884Y0123547D01*
X0172700Y0128343D02*
X0188880Y0128343D01*
X0187096Y0129941D02*
X0185482Y0129941D01*
X0182518Y0129941D02*
X0172127Y0129941D01*
X0167873Y0129941D02*
X0134482Y0129941D01*
X0134529Y0129961D02*
X0135289Y0130721D01*
X0135700Y0131713D01*
X0135700Y0132787D01*
X0135289Y0133779D01*
X0134529Y0134539D01*
X0133537Y0134950D01*
X0132463Y0134950D01*
X0131471Y0134539D01*
X0130711Y0133779D01*
X0130300Y0132787D01*
X0130300Y0131713D01*
X0130711Y0130721D01*
X0131471Y0129961D01*
X0132463Y0129550D01*
X0133537Y0129550D01*
X0134529Y0129961D01*
X0135628Y0131540D02*
X0181372Y0131540D01*
X0181446Y0133138D02*
X0135554Y0133138D01*
X0134052Y0134737D02*
X0182948Y0134737D01*
X0185052Y0134737D02*
X0186096Y0134737D01*
X0186873Y0136335D02*
X0162904Y0136335D01*
X0162529Y0135961D02*
X0163289Y0136721D01*
X0163700Y0137713D01*
X0163700Y0138787D01*
X0163289Y0139779D01*
X0162529Y0140539D01*
X0161537Y0140950D01*
X0160463Y0140950D01*
X0159471Y0140539D01*
X0158711Y0139779D01*
X0158300Y0138787D01*
X0158300Y0137713D01*
X0158711Y0136721D01*
X0159471Y0135961D01*
X0160463Y0135550D01*
X0161537Y0135550D01*
X0162529Y0135961D01*
X0163700Y0137934D02*
X0188981Y0137934D01*
X0187505Y0139532D02*
X0183101Y0139532D01*
X0183289Y0139721D02*
X0183700Y0140713D01*
X0183700Y0141787D01*
X0183289Y0142779D01*
X0182529Y0143539D01*
X0181537Y0143950D01*
X0180463Y0143950D01*
X0179471Y0143539D01*
X0178711Y0142779D01*
X0178300Y0141787D01*
X0178300Y0140713D01*
X0178711Y0139721D01*
X0179471Y0138961D01*
X0180463Y0138550D01*
X0181537Y0138550D01*
X0182529Y0138961D01*
X0183289Y0139721D01*
X0183700Y0141131D02*
X0186358Y0141131D01*
X0185900Y0142729D02*
X0183310Y0142729D01*
X0185926Y0144328D02*
X0135740Y0144328D01*
X0135529Y0144539D02*
X0134537Y0144950D01*
X0133463Y0144950D01*
X0132471Y0144539D01*
X0131711Y0143779D01*
X0131300Y0142787D01*
X0131300Y0141713D01*
X0131711Y0140721D01*
X0132471Y0139961D01*
X0133463Y0139550D01*
X0134537Y0139550D01*
X0135529Y0139961D01*
X0136289Y0140721D01*
X0136700Y0141713D01*
X0136700Y0142787D01*
X0136289Y0143779D01*
X0135529Y0144539D01*
X0136700Y0142729D02*
X0178690Y0142729D01*
X0178300Y0141131D02*
X0136459Y0141131D01*
X0131541Y0141131D02*
X0130937Y0141131D01*
X0131289Y0140779D02*
X0130529Y0141539D01*
X0129537Y0141950D01*
X0128463Y0141950D01*
X0127660Y0141618D01*
X0127700Y0141713D01*
X0127700Y0142787D01*
X0127289Y0143779D01*
X0126529Y0144539D01*
X0125537Y0144950D01*
X0124463Y0144950D01*
X0123471Y0144539D01*
X0122711Y0143779D01*
X0122300Y0142787D01*
X0122300Y0141713D01*
X0122711Y0140721D01*
X0123471Y0139961D01*
X0124463Y0139550D01*
X0125537Y0139550D01*
X0126339Y0139882D01*
X0126300Y0139787D01*
X0126300Y0138713D01*
X0126711Y0137721D01*
X0127471Y0136961D01*
X0128463Y0136550D01*
X0129537Y0136550D01*
X0130529Y0136961D01*
X0131289Y0137721D01*
X0131700Y0138713D01*
X0131700Y0139787D01*
X0131289Y0140779D01*
X0131700Y0139532D02*
X0158609Y0139532D01*
X0158300Y0137934D02*
X0131377Y0137934D01*
X0131948Y0134737D02*
X0119514Y0134737D01*
X0119700Y0134287D02*
X0119289Y0135279D01*
X0118529Y0136039D01*
X0117537Y0136450D01*
X0116463Y0136450D01*
X0115471Y0136039D01*
X0114711Y0135279D01*
X0114300Y0134287D01*
X0114300Y0133213D01*
X0114711Y0132221D01*
X0115471Y0131461D01*
X0116463Y0131050D01*
X0117537Y0131050D01*
X0118529Y0131461D01*
X0119289Y0132221D01*
X0119700Y0133213D01*
X0119700Y0134287D01*
X0119669Y0133138D02*
X0130446Y0133138D01*
X0130372Y0131540D02*
X0118608Y0131540D01*
X0115392Y0131540D02*
X0054700Y0131540D01*
X0054700Y0131787D02*
X0054289Y0132779D01*
X0053529Y0133539D01*
X0052537Y0133950D01*
X0051463Y0133950D01*
X0050471Y0133539D01*
X0049711Y0132779D01*
X0049300Y0131787D01*
X0049300Y0130713D01*
X0049711Y0129721D01*
X0050471Y0128961D01*
X0051463Y0128550D01*
X0052537Y0128550D01*
X0053529Y0128961D01*
X0054289Y0129721D01*
X0054700Y0130713D01*
X0054700Y0131787D01*
X0055711Y0132721D02*
X0055300Y0133713D01*
X0055300Y0134787D01*
X0055711Y0135779D01*
X0056471Y0136539D01*
X0057463Y0136950D01*
X0058537Y0136950D01*
X0059529Y0136539D01*
X0060289Y0135779D01*
X0060700Y0134787D01*
X0060700Y0133713D01*
X0060289Y0132721D01*
X0059529Y0131961D01*
X0058537Y0131550D01*
X0057463Y0131550D01*
X0056471Y0131961D01*
X0055711Y0132721D01*
X0055538Y0133138D02*
X0053930Y0133138D01*
X0055300Y0134737D02*
X0030904Y0134737D01*
X0031100Y0134264D02*
X0030324Y0136139D01*
X0028889Y0137574D01*
X0027256Y0138250D01*
X0028889Y0138926D01*
X0030324Y0140361D01*
X0031100Y0142236D01*
X0031100Y0144264D01*
X0030324Y0146139D01*
X0028889Y0147574D01*
X0027256Y0148250D01*
X0028889Y0148926D01*
X0030324Y0150361D01*
X0031100Y0152236D01*
X0031100Y0154264D01*
X0030324Y0156139D01*
X0028889Y0157574D01*
X0027256Y0158250D01*
X0028889Y0158926D01*
X0030324Y0160361D01*
X0031100Y0162236D01*
X0031100Y0164264D01*
X0031052Y0164379D01*
X0031471Y0163961D01*
X0032463Y0163550D01*
X0033537Y0163550D01*
X0034529Y0163961D01*
X0035289Y0164721D01*
X0035700Y0165713D01*
X0035700Y0166787D01*
X0035289Y0167779D01*
X0034529Y0168539D01*
X0033537Y0168950D01*
X0032463Y0168950D01*
X0031471Y0168539D01*
X0030711Y0167779D01*
X0030300Y0166787D01*
X0030300Y0166162D01*
X0028889Y0167574D01*
X0027256Y0168250D01*
X0028889Y0168926D01*
X0030324Y0170361D01*
X0031100Y0172236D01*
X0031100Y0174264D01*
X0030324Y0176139D01*
X0028889Y0177574D01*
X0027256Y0178250D01*
X0028889Y0178926D01*
X0030324Y0180361D01*
X0031100Y0182236D01*
X0031100Y0184264D01*
X0030324Y0186139D01*
X0028889Y0187574D01*
X0027256Y0188250D01*
X0028889Y0188926D01*
X0030324Y0190361D01*
X0030835Y0191596D01*
X0031471Y0190961D01*
X0032463Y0190550D01*
X0033537Y0190550D01*
X0034529Y0190961D01*
X0035289Y0191721D01*
X0035700Y0192713D01*
X0035700Y0193787D01*
X0035289Y0194779D01*
X0034529Y0195539D01*
X0033537Y0195950D01*
X0032463Y0195950D01*
X0031471Y0195539D01*
X0030835Y0194904D01*
X0030324Y0196139D01*
X0028889Y0197574D01*
X0027256Y0198250D01*
X0028889Y0198926D01*
X0030324Y0200361D01*
X0030835Y0201596D01*
X0031471Y0200961D01*
X0032463Y0200550D01*
X0033537Y0200550D01*
X0033632Y0200589D01*
X0033300Y0199787D01*
X0033300Y0198713D01*
X0033711Y0197721D01*
X0034471Y0196961D01*
X0035463Y0196550D01*
X0036537Y0196550D01*
X0037529Y0196961D01*
X0038289Y0197721D01*
X0038700Y0198713D01*
X0038700Y0199787D01*
X0038289Y0200779D01*
X0037529Y0201539D01*
X0036537Y0201950D01*
X0035463Y0201950D01*
X0035368Y0201910D01*
X0035700Y0202713D01*
X0035700Y0203787D01*
X0035289Y0204779D01*
X0034529Y0205539D01*
X0033537Y0205950D01*
X0032463Y0205950D01*
X0031471Y0205539D01*
X0030835Y0204904D01*
X0030324Y0206139D01*
X0028889Y0207574D01*
X0027256Y0208250D01*
X0028889Y0208926D01*
X0030324Y0210361D01*
X0031100Y0212236D01*
X0031100Y0214264D01*
X0030324Y0216139D01*
X0028889Y0217574D01*
X0027256Y0218250D01*
X0028889Y0218926D01*
X0030324Y0220361D01*
X0031100Y0222236D01*
X0031100Y0224264D01*
X0030324Y0226139D01*
X0028889Y0227574D01*
X0027014Y0228350D01*
X0024986Y0228350D01*
X0023111Y0227574D01*
X0021676Y0226139D01*
X0020900Y0224264D01*
X0020900Y0222236D01*
X0021676Y0220361D01*
X0023111Y0218926D01*
X0024744Y0218250D01*
X0023111Y0217574D01*
X0021676Y0216139D01*
X0020900Y0214264D01*
X0020900Y0212236D01*
X0021676Y0210361D01*
X0023111Y0208926D01*
X0024744Y0208250D01*
X0023111Y0207574D01*
X0021676Y0206139D01*
X0020900Y0204264D01*
X0020900Y0202236D01*
X0021676Y0200361D01*
X0023111Y0198926D01*
X0024744Y0198250D01*
X0023111Y0197574D01*
X0021676Y0196139D01*
X0020900Y0194264D01*
X0020900Y0192236D01*
X0021676Y0190361D01*
X0023111Y0188926D01*
X0024744Y0188250D01*
X0023111Y0187574D01*
X0021676Y0186139D01*
X0020900Y0184264D01*
X0020900Y0182236D01*
X0021676Y0180361D01*
X0023111Y0178926D01*
X0024744Y0178250D01*
X0023111Y0177574D01*
X0021676Y0176139D01*
X0020900Y0174264D01*
X0020900Y0172236D01*
X0021676Y0170361D01*
X0023111Y0168926D01*
X0024744Y0168250D01*
X0023111Y0167574D01*
X0021676Y0166139D01*
X0020900Y0164264D01*
X0020900Y0162236D01*
X0021676Y0160361D01*
X0023111Y0158926D01*
X0024744Y0158250D01*
X0023111Y0157574D01*
X0021676Y0156139D01*
X0020900Y0154264D01*
X0020900Y0152236D01*
X0021676Y0150361D01*
X0023111Y0148926D01*
X0024744Y0148250D01*
X0023111Y0147574D01*
X0021676Y0146139D01*
X0020900Y0144264D01*
X0020900Y0142236D01*
X0021676Y0140361D01*
X0023111Y0138926D01*
X0024744Y0138250D01*
X0023111Y0137574D01*
X0021676Y0136139D01*
X0020900Y0134264D01*
X0020900Y0132236D01*
X0021676Y0130361D01*
X0023111Y0128926D01*
X0024744Y0128250D01*
X0023111Y0127574D01*
X0021676Y0126139D01*
X0020900Y0124264D01*
X0020900Y0122236D01*
X0021676Y0120361D01*
X0023111Y0118926D01*
X0024744Y0118250D01*
X0023111Y0117574D01*
X0021676Y0116139D01*
X0020900Y0114264D01*
X0020900Y0112236D01*
X0021676Y0110361D01*
X0023111Y0108926D01*
X0024986Y0108150D01*
X0027014Y0108150D01*
X0028889Y0108926D01*
X0030324Y0110361D01*
X0031100Y0112236D01*
X0031100Y0114264D01*
X0030324Y0116139D01*
X0028889Y0117574D01*
X0027256Y0118250D01*
X0028889Y0118926D01*
X0030324Y0120361D01*
X0031100Y0122236D01*
X0031100Y0124264D01*
X0030324Y0126139D01*
X0028889Y0127574D01*
X0027256Y0128250D01*
X0028889Y0128926D01*
X0030324Y0130361D01*
X0031100Y0132236D01*
X0031100Y0134264D01*
X0031100Y0133138D02*
X0050070Y0133138D01*
X0049300Y0131540D02*
X0030812Y0131540D01*
X0029904Y0129941D02*
X0049620Y0129941D01*
X0052711Y0126779D02*
X0052300Y0125787D01*
X0052300Y0124713D01*
X0052711Y0123721D01*
X0053471Y0122961D01*
X0054463Y0122550D01*
X0055537Y0122550D01*
X0056529Y0122961D01*
X0057289Y0123721D01*
X0057700Y0124713D01*
X0057700Y0125787D01*
X0057289Y0126779D01*
X0056529Y0127539D01*
X0055537Y0127950D01*
X0054463Y0127950D01*
X0053471Y0127539D01*
X0052711Y0126779D01*
X0052697Y0126744D02*
X0029718Y0126744D01*
X0030735Y0125146D02*
X0052300Y0125146D01*
X0052884Y0123547D02*
X0031100Y0123547D01*
X0030981Y0121949D02*
X0055880Y0121949D01*
X0055711Y0121779D02*
X0055300Y0120787D01*
X0055300Y0119713D01*
X0055711Y0118721D01*
X0056471Y0117961D01*
X0057463Y0117550D01*
X0058537Y0117550D01*
X0059529Y0117961D01*
X0060289Y0118721D01*
X0060700Y0119713D01*
X0060700Y0120787D01*
X0060289Y0121779D01*
X0059529Y0122539D01*
X0058537Y0122950D01*
X0057463Y0122950D01*
X0056471Y0122539D01*
X0055711Y0121779D01*
X0055300Y0120350D02*
X0030313Y0120350D01*
X0028467Y0118752D02*
X0055698Y0118752D01*
X0060302Y0118752D02*
X0066300Y0118752D01*
X0066300Y0118713D02*
X0066711Y0117721D01*
X0067471Y0116961D01*
X0068463Y0116550D01*
X0069537Y0116550D01*
X0070529Y0116961D01*
X0071289Y0117721D01*
X0071700Y0118713D01*
X0071700Y0119787D01*
X0071289Y0120779D01*
X0070529Y0121539D01*
X0069537Y0121950D01*
X0068463Y0121950D01*
X0067471Y0121539D01*
X0066711Y0120779D01*
X0066300Y0119787D01*
X0066300Y0118713D01*
X0066533Y0120350D02*
X0060700Y0120350D01*
X0060120Y0121949D02*
X0068460Y0121949D01*
X0069540Y0121949D02*
X0090367Y0121949D01*
X0090300Y0121787D02*
X0090300Y0120713D01*
X0090711Y0119721D01*
X0091471Y0118961D01*
X0092463Y0118550D01*
X0093537Y0118550D01*
X0094529Y0118961D01*
X0095289Y0119721D01*
X0095500Y0120230D01*
X0095711Y0119721D01*
X0096471Y0118961D01*
X0097463Y0118550D01*
X0098537Y0118550D01*
X0099529Y0118961D01*
X0100289Y0119721D01*
X0100700Y0120713D01*
X0100700Y0121787D01*
X0100289Y0122779D01*
X0099529Y0123539D01*
X0098537Y0123950D01*
X0097463Y0123950D01*
X0096471Y0123539D01*
X0095711Y0122779D01*
X0095500Y0122270D01*
X0095289Y0122779D01*
X0094529Y0123539D01*
X0093537Y0123950D01*
X0092463Y0123950D01*
X0091471Y0123539D01*
X0090711Y0122779D01*
X0090300Y0121787D01*
X0090450Y0120350D02*
X0071467Y0120350D01*
X0071700Y0118752D02*
X0091976Y0118752D01*
X0094024Y0118752D02*
X0096976Y0118752D01*
X0099024Y0118752D02*
X0103976Y0118752D01*
X0106024Y0118752D02*
X0125183Y0118752D01*
X0125471Y0119039D02*
X0124711Y0118279D01*
X0124300Y0117287D01*
X0124300Y0116213D01*
X0124711Y0115221D01*
X0125471Y0114461D01*
X0126463Y0114050D01*
X0127537Y0114050D01*
X0128529Y0114461D01*
X0129289Y0115221D01*
X0129700Y0116213D01*
X0129700Y0117287D01*
X0129289Y0118279D01*
X0128529Y0119039D01*
X0127537Y0119450D01*
X0126463Y0119450D01*
X0125471Y0119039D01*
X0124300Y0117153D02*
X0070722Y0117153D01*
X0067278Y0117153D02*
X0029309Y0117153D01*
X0030566Y0115555D02*
X0124573Y0115555D01*
X0129427Y0115555D02*
X0133509Y0115555D01*
X0132370Y0113956D02*
X0031100Y0113956D01*
X0031100Y0112358D02*
X0075326Y0112358D01*
X0075134Y0112165D02*
X0074619Y0110923D01*
X0074619Y0109577D01*
X0075134Y0108335D01*
X0076085Y0107384D01*
X0077327Y0106869D01*
X0078673Y0106869D01*
X0079915Y0107384D01*
X0080866Y0108335D01*
X0081381Y0109577D01*
X0081381Y0110923D01*
X0080866Y0112165D01*
X0079915Y0113116D01*
X0078673Y0113631D01*
X0077327Y0113631D01*
X0076085Y0113116D01*
X0075134Y0112165D01*
X0074619Y0110759D02*
X0030488Y0110759D01*
X0029123Y0109161D02*
X0074792Y0109161D01*
X0075906Y0107562D02*
X0041379Y0107562D01*
X0036621Y0107562D02*
X0018473Y0107562D01*
X0018529Y0107539D02*
X0017537Y0107950D01*
X0016463Y0107950D01*
X0015471Y0107539D01*
X0014711Y0106779D01*
X0014300Y0105787D01*
X0014300Y0104713D01*
X0014711Y0103721D01*
X0015471Y0102961D01*
X0016463Y0102550D01*
X0017537Y0102550D01*
X0018529Y0102961D01*
X0019289Y0103721D01*
X0019700Y0104713D01*
X0019700Y0105787D01*
X0019289Y0106779D01*
X0018529Y0107539D01*
X0019627Y0105964D02*
X0036300Y0105964D01*
X0037066Y0104365D02*
X0027961Y0104365D01*
X0027789Y0104779D02*
X0027029Y0105539D01*
X0026037Y0105950D01*
X0024963Y0105950D01*
X0023971Y0105539D01*
X0023211Y0104779D01*
X0022800Y0103787D01*
X0022800Y0102713D01*
X0023211Y0101721D01*
X0023971Y0100961D01*
X0024963Y0100550D01*
X0026037Y0100550D01*
X0027029Y0100961D01*
X0027789Y0101721D01*
X0028200Y0102713D01*
X0028200Y0103787D01*
X0027789Y0104779D01*
X0028200Y0102767D02*
X0197706Y0102767D01*
X0197711Y0102779D02*
X0197300Y0101787D01*
X0197300Y0100713D01*
X0197711Y0099721D01*
X0198471Y0098961D01*
X0199463Y0098550D01*
X0200537Y0098550D01*
X0201529Y0098961D01*
X0202289Y0099721D01*
X0202700Y0100713D01*
X0202700Y0101787D01*
X0202289Y0102779D01*
X0201529Y0103539D01*
X0200537Y0103950D01*
X0199463Y0103950D01*
X0198471Y0103539D01*
X0197711Y0102779D01*
X0197300Y0101168D02*
X0080900Y0101168D01*
X0080529Y0101539D02*
X0079537Y0101950D01*
X0078463Y0101950D01*
X0077471Y0101539D01*
X0076711Y0100779D01*
X0076300Y0099787D01*
X0076300Y0098713D01*
X0076711Y0097721D01*
X0077471Y0096961D01*
X0078463Y0096550D01*
X0079537Y0096550D01*
X0080529Y0096961D01*
X0081289Y0097721D01*
X0081700Y0098713D01*
X0081700Y0099787D01*
X0081289Y0100779D01*
X0080529Y0101539D01*
X0081700Y0099570D02*
X0164624Y0099570D01*
X0164300Y0097971D02*
X0081393Y0097971D01*
X0076607Y0097971D02*
X0004937Y0097971D01*
X0004937Y0096373D02*
X0165059Y0096373D01*
X0169376Y0099570D02*
X0197862Y0099570D01*
X0202138Y0099570D02*
X0212862Y0099570D01*
X0212300Y0101168D02*
X0202700Y0101168D01*
X0202294Y0102767D02*
X0212706Y0102767D01*
X0215092Y0109161D02*
X0194123Y0109161D01*
X0195488Y0110759D02*
X0262770Y0110759D01*
X0262063Y0105964D02*
X0243934Y0105964D01*
X0244868Y0104365D02*
X0262063Y0104365D01*
X0262063Y0102767D02*
X0245061Y0102767D01*
X0244647Y0101168D02*
X0262063Y0101168D01*
X0257173Y0099570D02*
X0254032Y0099570D01*
X0255219Y0097971D02*
X0255833Y0097971D01*
X0255979Y0093176D02*
X0255072Y0093176D01*
X0253679Y0091577D02*
X0257793Y0091577D01*
X0262063Y0089979D02*
X0244794Y0089979D01*
X0245061Y0088380D02*
X0262063Y0088380D01*
X0262063Y0086782D02*
X0244722Y0086782D01*
X0243581Y0085183D02*
X0262063Y0085183D01*
X0262063Y0073993D02*
X0209086Y0073993D01*
X0208013Y0072395D02*
X0262063Y0072395D01*
X0262063Y0070796D02*
X0244101Y0070796D01*
X0244399Y0070499D02*
X0243174Y0071724D01*
X0241574Y0072386D01*
X0239843Y0072386D01*
X0238243Y0071724D01*
X0237019Y0070499D01*
X0236356Y0068899D01*
X0236356Y0067168D01*
X0237019Y0065568D01*
X0238243Y0064343D01*
X0239843Y0063681D01*
X0241574Y0063681D01*
X0243174Y0064343D01*
X0244399Y0065568D01*
X0245061Y0067168D01*
X0245061Y0068899D01*
X0244399Y0070499D01*
X0244938Y0069198D02*
X0262063Y0069198D01*
X0262063Y0067599D02*
X0245061Y0067599D01*
X0244578Y0066001D02*
X0262063Y0066001D01*
X0257006Y0064402D02*
X0254199Y0064402D01*
X0255288Y0062804D02*
X0255763Y0062804D01*
X0256095Y0058008D02*
X0255003Y0058008D01*
X0253511Y0056410D02*
X0258196Y0056410D01*
X0261804Y0056410D02*
X0262063Y0056410D01*
X0262063Y0054811D02*
X0244863Y0054811D01*
X0245061Y0053213D02*
X0262063Y0053213D01*
X0262063Y0051614D02*
X0244653Y0051614D01*
X0243414Y0050016D02*
X0262063Y0050016D01*
X0262063Y0048417D02*
X0233439Y0048417D01*
X0233700Y0046819D02*
X0262063Y0046819D01*
X0262063Y0035629D02*
X0244269Y0035629D01*
X0245007Y0034031D02*
X0262063Y0034031D01*
X0262063Y0032432D02*
X0245061Y0032432D01*
X0244509Y0030834D02*
X0249335Y0030834D01*
X0251768Y0030834D02*
X0262063Y0030834D01*
X0256838Y0029235D02*
X0254367Y0029235D01*
X0255357Y0027637D02*
X0255694Y0027637D01*
X0256262Y0022841D02*
X0254934Y0022841D01*
X0253159Y0021243D02*
X0258600Y0021243D01*
X0261400Y0021243D02*
X0262063Y0021243D01*
X0262063Y0019644D02*
X0244932Y0019644D01*
X0245061Y0018046D02*
X0262063Y0018046D01*
X0247944Y0021243D02*
X0244088Y0021243D01*
X0242913Y0029235D02*
X0246736Y0029235D01*
X0247591Y0056410D02*
X0243921Y0056410D01*
X0246099Y0058008D02*
X0236249Y0058008D01*
X0236525Y0058284D02*
X0237187Y0059884D01*
X0237187Y0061616D01*
X0236525Y0063216D01*
X0235300Y0064440D01*
X0233700Y0065103D01*
X0231969Y0065103D01*
X0230369Y0064440D01*
X0229145Y0063216D01*
X0228482Y0061616D01*
X0228482Y0059884D01*
X0229145Y0058284D01*
X0230369Y0057060D01*
X0231969Y0056397D01*
X0233700Y0056397D01*
X0235300Y0057060D01*
X0236525Y0058284D01*
X0237073Y0059607D02*
X0245437Y0059607D01*
X0245389Y0061205D02*
X0237187Y0061205D01*
X0236695Y0062804D02*
X0245814Y0062804D01*
X0246903Y0064402D02*
X0243233Y0064402D01*
X0238184Y0064402D02*
X0235338Y0064402D01*
X0236839Y0066001D02*
X0221405Y0066001D01*
X0221289Y0065721D02*
X0221700Y0066713D01*
X0221700Y0067787D01*
X0221289Y0068779D01*
X0220529Y0069539D01*
X0219537Y0069950D01*
X0218463Y0069950D01*
X0217471Y0069539D01*
X0216711Y0068779D01*
X0216300Y0067787D01*
X0216300Y0066713D01*
X0216711Y0065721D01*
X0217471Y0064961D01*
X0218463Y0064550D01*
X0219537Y0064550D01*
X0220529Y0064961D01*
X0221289Y0065721D01*
X0221700Y0067599D02*
X0236356Y0067599D01*
X0236480Y0069198D02*
X0220870Y0069198D01*
X0217130Y0069198D02*
X0214870Y0069198D01*
X0215700Y0067599D02*
X0216300Y0067599D01*
X0216595Y0066001D02*
X0215405Y0066001D01*
X0211130Y0069198D02*
X0202924Y0069198D01*
X0206415Y0070796D02*
X0237316Y0070796D01*
X0230331Y0064402D02*
X0227445Y0064402D01*
X0227700Y0062804D02*
X0228974Y0062804D01*
X0228482Y0061205D02*
X0226774Y0061205D01*
X0228597Y0059607D02*
X0193791Y0059607D01*
X0193594Y0058008D02*
X0229421Y0058008D01*
X0231938Y0056410D02*
X0192530Y0056410D01*
X0193285Y0061205D02*
X0223226Y0061205D01*
X0233731Y0056410D02*
X0237496Y0056410D01*
X0243754Y0091577D02*
X0247424Y0091577D01*
X0247070Y0099570D02*
X0243401Y0099570D01*
X0211892Y0112358D02*
X0196100Y0112358D01*
X0196100Y0113956D02*
X0211000Y0113956D01*
X0211000Y0115555D02*
X0195566Y0115555D01*
X0194309Y0117153D02*
X0211000Y0117153D01*
X0211000Y0118752D02*
X0194166Y0118752D01*
X0195692Y0120350D02*
X0211000Y0120350D01*
X0211000Y0121949D02*
X0196360Y0121949D01*
X0196500Y0123547D02*
X0211000Y0123547D01*
X0211000Y0125146D02*
X0196167Y0125146D01*
X0195260Y0126744D02*
X0211000Y0126744D01*
X0211000Y0128343D02*
X0193120Y0128343D01*
X0194904Y0129941D02*
X0211000Y0129941D01*
X0211000Y0131540D02*
X0195812Y0131540D01*
X0196100Y0133138D02*
X0211000Y0133138D01*
X0211000Y0134737D02*
X0207296Y0134737D01*
X0207289Y0134721D02*
X0207700Y0135713D01*
X0207700Y0136787D01*
X0207289Y0137779D01*
X0206529Y0138539D01*
X0205537Y0138950D01*
X0204463Y0138950D01*
X0203471Y0138539D01*
X0202711Y0137779D01*
X0202300Y0136787D01*
X0202300Y0135713D01*
X0202711Y0134721D01*
X0203471Y0133961D01*
X0204463Y0133550D01*
X0205537Y0133550D01*
X0206529Y0133961D01*
X0207289Y0134721D01*
X0207700Y0136335D02*
X0211000Y0136335D01*
X0211000Y0137934D02*
X0207134Y0137934D01*
X0205537Y0141550D02*
X0204463Y0141550D01*
X0203660Y0141882D01*
X0203700Y0141787D01*
X0203700Y0140713D01*
X0203289Y0139721D01*
X0202529Y0138961D01*
X0201537Y0138550D01*
X0200463Y0138550D01*
X0199471Y0138961D01*
X0198711Y0139721D01*
X0198300Y0140713D01*
X0198300Y0141787D01*
X0198711Y0142779D01*
X0199471Y0143539D01*
X0200463Y0143950D01*
X0201537Y0143950D01*
X0202339Y0143618D01*
X0202300Y0143713D01*
X0202300Y0144787D01*
X0202711Y0145779D01*
X0203471Y0146539D01*
X0204463Y0146950D01*
X0205537Y0146950D01*
X0206529Y0146539D01*
X0207289Y0145779D01*
X0207700Y0144787D01*
X0207700Y0143713D01*
X0207289Y0142721D01*
X0206529Y0141961D01*
X0205537Y0141550D01*
X0203700Y0141131D02*
X0211000Y0141131D01*
X0211000Y0142729D02*
X0207293Y0142729D01*
X0207700Y0144328D02*
X0212078Y0144328D01*
X0211000Y0139532D02*
X0203101Y0139532D01*
X0202866Y0137934D02*
X0193019Y0137934D01*
X0194495Y0139532D02*
X0198899Y0139532D01*
X0198300Y0141131D02*
X0195642Y0141131D01*
X0196100Y0142729D02*
X0198690Y0142729D01*
X0196074Y0144328D02*
X0202300Y0144328D01*
X0202858Y0145926D02*
X0195412Y0145926D01*
X0193938Y0147525D02*
X0232000Y0147525D01*
X0231338Y0145926D02*
X0207142Y0145926D01*
X0202300Y0136335D02*
X0195127Y0136335D01*
X0195904Y0134737D02*
X0202704Y0134737D01*
X0194086Y0149123D02*
X0229544Y0149123D01*
X0229300Y0150722D02*
X0195473Y0150722D01*
X0196100Y0152320D02*
X0230252Y0152320D01*
X0232000Y0153919D02*
X0196100Y0153919D01*
X0195581Y0155518D02*
X0232000Y0155518D01*
X0232000Y0157116D02*
X0194346Y0157116D01*
X0193377Y0158715D02*
X0233465Y0158715D01*
X0234463Y0162550D02*
X0235537Y0162550D01*
X0236529Y0162961D01*
X0237289Y0163721D01*
X0237700Y0164713D01*
X0237700Y0165787D01*
X0237289Y0166779D01*
X0236529Y0167539D01*
X0235537Y0167950D01*
X0234463Y0167950D01*
X0233471Y0167539D01*
X0232711Y0166779D01*
X0232300Y0165787D01*
X0232300Y0164713D01*
X0232711Y0163721D01*
X0233471Y0162961D01*
X0234463Y0162550D01*
X0232922Y0163510D02*
X0226078Y0163510D01*
X0226289Y0163721D02*
X0226700Y0164713D01*
X0226700Y0165787D01*
X0226289Y0166779D01*
X0225529Y0167539D01*
X0224537Y0167950D01*
X0223463Y0167950D01*
X0222471Y0167539D01*
X0221711Y0166779D01*
X0221300Y0165787D01*
X0221300Y0164713D01*
X0221711Y0163721D01*
X0222471Y0162961D01*
X0223463Y0162550D01*
X0224537Y0162550D01*
X0225529Y0162961D01*
X0226289Y0163721D01*
X0226700Y0165109D02*
X0232300Y0165109D01*
X0232681Y0166707D02*
X0226319Y0166707D01*
X0221681Y0166707D02*
X0206319Y0166707D01*
X0206289Y0166779D02*
X0205529Y0167539D01*
X0204537Y0167950D01*
X0203463Y0167950D01*
X0202471Y0167539D01*
X0201711Y0166779D01*
X0201300Y0165787D01*
X0201300Y0164713D01*
X0201711Y0163721D01*
X0202471Y0162961D01*
X0203463Y0162550D01*
X0204537Y0162550D01*
X0205529Y0162961D01*
X0206289Y0163721D01*
X0206700Y0164713D01*
X0206700Y0165787D01*
X0206289Y0166779D01*
X0206700Y0165109D02*
X0221300Y0165109D01*
X0221922Y0163510D02*
X0206078Y0163510D01*
X0201922Y0163510D02*
X0196100Y0163510D01*
X0195966Y0161912D02*
X0239000Y0161912D01*
X0239000Y0163510D02*
X0237078Y0163510D01*
X0237700Y0165109D02*
X0239000Y0165109D01*
X0239000Y0166707D02*
X0237319Y0166707D01*
X0240056Y0168306D02*
X0192390Y0168306D01*
X0189610Y0168306D02*
X0123485Y0168306D01*
X0123289Y0168779D02*
X0122529Y0169539D01*
X0121537Y0169950D01*
X0120463Y0169950D01*
X0119471Y0169539D01*
X0118711Y0168779D01*
X0118300Y0167787D01*
X0118300Y0166713D01*
X0118711Y0165721D01*
X0119471Y0164961D01*
X0120463Y0164550D01*
X0121537Y0164550D01*
X0122529Y0164961D01*
X0123289Y0165721D01*
X0123700Y0166713D01*
X0123700Y0167787D01*
X0123289Y0168779D01*
X0121648Y0169904D02*
X0187133Y0169904D01*
X0186204Y0171503D02*
X0110404Y0171503D01*
X0110289Y0171779D02*
X0110700Y0170787D01*
X0110700Y0169713D01*
X0110289Y0168721D01*
X0109529Y0167961D01*
X0108537Y0167550D01*
X0107463Y0167550D01*
X0106471Y0167961D01*
X0105711Y0168721D01*
X0105300Y0169713D01*
X0105300Y0170787D01*
X0105632Y0171589D01*
X0105537Y0171550D01*
X0104463Y0171550D01*
X0104368Y0171589D01*
X0104700Y0170787D01*
X0104700Y0169713D01*
X0104289Y0168721D01*
X0103529Y0167961D01*
X0102537Y0167550D01*
X0101463Y0167550D01*
X0100471Y0167961D01*
X0099711Y0168721D01*
X0099300Y0169713D01*
X0099300Y0170787D01*
X0099711Y0171779D01*
X0100471Y0172539D01*
X0101463Y0172950D01*
X0102537Y0172950D01*
X0102632Y0172910D01*
X0102300Y0173713D01*
X0102300Y0174787D01*
X0102711Y0175779D01*
X0103471Y0176539D01*
X0104463Y0176950D01*
X0105537Y0176950D01*
X0106529Y0176539D01*
X0107000Y0176068D01*
X0107471Y0176539D01*
X0108463Y0176950D01*
X0109537Y0176950D01*
X0110529Y0176539D01*
X0111289Y0175779D01*
X0111700Y0174787D01*
X0111700Y0173713D01*
X0111289Y0172721D01*
X0110529Y0171961D01*
X0110231Y0171837D01*
X0110289Y0171779D01*
X0111447Y0173101D02*
X0148330Y0173101D01*
X0148471Y0172961D02*
X0149463Y0172550D01*
X0150537Y0172550D01*
X0151529Y0172961D01*
X0152289Y0173721D01*
X0152700Y0174713D01*
X0152700Y0175787D01*
X0152289Y0176779D01*
X0151529Y0177539D01*
X0151231Y0177663D01*
X0151289Y0177721D01*
X0151700Y0178713D01*
X0151700Y0179787D01*
X0151289Y0180779D01*
X0150529Y0181539D01*
X0149537Y0181950D01*
X0148463Y0181950D01*
X0147471Y0181539D01*
X0146711Y0180779D01*
X0146300Y0179787D01*
X0146300Y0178713D01*
X0146711Y0177721D01*
X0147471Y0176961D01*
X0147769Y0176837D01*
X0147711Y0176779D01*
X0147300Y0175787D01*
X0147300Y0174713D01*
X0147711Y0173721D01*
X0148471Y0172961D01*
X0147305Y0174700D02*
X0111700Y0174700D01*
X0110770Y0176298D02*
X0147512Y0176298D01*
X0146638Y0177897D02*
X0141362Y0177897D01*
X0141289Y0177721D02*
X0141700Y0178713D01*
X0141700Y0179787D01*
X0141289Y0180779D01*
X0140529Y0181539D01*
X0139537Y0181950D01*
X0138463Y0181950D01*
X0137471Y0181539D01*
X0136711Y0180779D01*
X0136300Y0179787D01*
X0136300Y0178713D01*
X0136711Y0177721D01*
X0137471Y0176961D01*
X0138463Y0176550D01*
X0139537Y0176550D01*
X0140529Y0176961D01*
X0141289Y0177721D01*
X0141700Y0179495D02*
X0146300Y0179495D01*
X0147025Y0181094D02*
X0140975Y0181094D01*
X0137025Y0181094D02*
X0112906Y0181094D01*
X0112911Y0181099D02*
X0113322Y0182091D01*
X0113322Y0183165D01*
X0112911Y0184157D01*
X0112151Y0184917D01*
X0111159Y0185328D01*
X0110085Y0185328D01*
X0109093Y0184917D01*
X0108333Y0184157D01*
X0107922Y0183165D01*
X0107922Y0182091D01*
X0108333Y0181099D01*
X0109093Y0180339D01*
X0110085Y0179928D01*
X0111159Y0179928D01*
X0112151Y0180339D01*
X0112911Y0181099D01*
X0113322Y0182692D02*
X0185900Y0182692D01*
X0185911Y0184291D02*
X0148859Y0184291D01*
X0148529Y0183961D02*
X0149289Y0184721D01*
X0149700Y0185713D01*
X0149700Y0186787D01*
X0149289Y0187779D01*
X0148529Y0188539D01*
X0147537Y0188950D01*
X0146463Y0188950D01*
X0145471Y0188539D01*
X0144711Y0187779D01*
X0144300Y0186787D01*
X0144300Y0185713D01*
X0144711Y0184721D01*
X0145471Y0183961D01*
X0146463Y0183550D01*
X0147537Y0183550D01*
X0148529Y0183961D01*
X0149700Y0185889D02*
X0186573Y0185889D01*
X0188025Y0187488D02*
X0185056Y0187488D01*
X0185289Y0187721D02*
X0184529Y0186961D01*
X0183537Y0186550D01*
X0182463Y0186550D01*
X0181471Y0186961D01*
X0180711Y0187721D01*
X0180300Y0188713D01*
X0180300Y0189787D01*
X0180711Y0190779D01*
X0181471Y0191539D01*
X0182463Y0191950D01*
X0183537Y0191950D01*
X0184529Y0191539D01*
X0185289Y0190779D01*
X0185700Y0189787D01*
X0185700Y0188713D01*
X0185289Y0187721D01*
X0185700Y0189086D02*
X0187951Y0189086D01*
X0186542Y0190685D02*
X0185328Y0190685D01*
X0185900Y0192283D02*
X0158700Y0192283D01*
X0158700Y0192287D02*
X0158289Y0193279D01*
X0157529Y0194039D01*
X0156537Y0194450D01*
X0155463Y0194450D01*
X0154471Y0194039D01*
X0153711Y0193279D01*
X0153300Y0192287D01*
X0153300Y0191213D01*
X0153711Y0190221D01*
X0154471Y0189461D01*
X0155463Y0189050D01*
X0156537Y0189050D01*
X0157529Y0189461D01*
X0158289Y0190221D01*
X0158700Y0191213D01*
X0158700Y0192287D01*
X0158481Y0190685D02*
X0180672Y0190685D01*
X0180300Y0189086D02*
X0156625Y0189086D01*
X0155375Y0189086D02*
X0141700Y0189086D01*
X0141700Y0188713D02*
X0141700Y0189787D01*
X0141289Y0190779D01*
X0140529Y0191539D01*
X0139537Y0191950D01*
X0138463Y0191950D01*
X0137471Y0191539D01*
X0137000Y0191068D01*
X0136529Y0191539D01*
X0135537Y0191950D01*
X0134463Y0191950D01*
X0133471Y0191539D01*
X0132711Y0190779D01*
X0132300Y0189787D01*
X0132300Y0188713D01*
X0132711Y0187721D01*
X0133471Y0186961D01*
X0134463Y0186550D01*
X0135537Y0186550D01*
X0136529Y0186961D01*
X0137000Y0187432D01*
X0137471Y0186961D01*
X0138463Y0186550D01*
X0139537Y0186550D01*
X0140529Y0186961D01*
X0141289Y0187721D01*
X0141700Y0188713D01*
X0141056Y0187488D02*
X0144590Y0187488D01*
X0144300Y0185889D02*
X0100179Y0185889D01*
X0100289Y0185779D02*
X0099529Y0186539D01*
X0098537Y0186950D01*
X0097463Y0186950D01*
X0096471Y0186539D01*
X0095711Y0185779D01*
X0095300Y0184787D01*
X0095300Y0183713D01*
X0095632Y0182910D01*
X0095537Y0182950D01*
X0094463Y0182950D01*
X0093471Y0182539D01*
X0092711Y0181779D01*
X0092300Y0180787D01*
X0092300Y0179713D01*
X0092711Y0178721D01*
X0093471Y0177961D01*
X0094463Y0177550D01*
X0095537Y0177550D01*
X0096529Y0177961D01*
X0097289Y0178721D01*
X0097700Y0179713D01*
X0097700Y0180787D01*
X0097368Y0181589D01*
X0097463Y0181550D01*
X0098537Y0181550D01*
X0099529Y0181961D01*
X0100289Y0182721D01*
X0100700Y0183713D01*
X0100700Y0184787D01*
X0100289Y0185779D01*
X0100700Y0184291D02*
X0108466Y0184291D01*
X0107922Y0182692D02*
X0100261Y0182692D01*
X0097573Y0181094D02*
X0108338Y0181094D01*
X0112778Y0184291D02*
X0145141Y0184291D01*
X0149410Y0187488D02*
X0180944Y0187488D01*
X0186373Y0181094D02*
X0171975Y0181094D01*
X0172289Y0180779D02*
X0171529Y0181539D01*
X0170537Y0181950D01*
X0169463Y0181950D01*
X0168471Y0181539D01*
X0167711Y0180779D01*
X0167300Y0179787D01*
X0167300Y0178713D01*
X0167711Y0177721D01*
X0168471Y0176961D01*
X0169463Y0176550D01*
X0170537Y0176550D01*
X0171529Y0176961D01*
X0172289Y0177721D01*
X0172700Y0178713D01*
X0172700Y0179787D01*
X0172289Y0180779D01*
X0172700Y0179495D02*
X0187542Y0179495D01*
X0188891Y0177897D02*
X0172362Y0177897D01*
X0167638Y0177897D02*
X0162666Y0177897D01*
X0162537Y0177950D02*
X0161463Y0177950D01*
X0160471Y0177539D01*
X0159711Y0176779D01*
X0159300Y0175787D01*
X0159300Y0174713D01*
X0159711Y0173721D01*
X0160471Y0172961D01*
X0161463Y0172550D01*
X0162537Y0172550D01*
X0163529Y0172961D01*
X0164289Y0173721D01*
X0164700Y0174713D01*
X0164700Y0175787D01*
X0164289Y0176779D01*
X0163529Y0177539D01*
X0162537Y0177950D01*
X0161334Y0177897D02*
X0151362Y0177897D01*
X0151700Y0179495D02*
X0167300Y0179495D01*
X0168025Y0181094D02*
X0150975Y0181094D01*
X0152488Y0176298D02*
X0159512Y0176298D01*
X0159305Y0174700D02*
X0152694Y0174700D01*
X0151670Y0173101D02*
X0160330Y0173101D01*
X0163670Y0173101D02*
X0185900Y0173101D01*
X0186080Y0174700D02*
X0164694Y0174700D01*
X0164488Y0176298D02*
X0186836Y0176298D01*
X0193109Y0177897D02*
X0262063Y0177897D01*
X0262063Y0179495D02*
X0254064Y0179495D01*
X0254289Y0179721D02*
X0253529Y0178961D01*
X0252537Y0178550D01*
X0251463Y0178550D01*
X0250471Y0178961D01*
X0249711Y0179721D01*
X0249300Y0180713D01*
X0249300Y0181787D01*
X0249711Y0182779D01*
X0250471Y0183539D01*
X0251463Y0183950D01*
X0252537Y0183950D01*
X0253529Y0183539D01*
X0254289Y0182779D01*
X0254700Y0181787D01*
X0254700Y0180713D01*
X0254289Y0179721D01*
X0254700Y0181094D02*
X0262063Y0181094D01*
X0262063Y0182692D02*
X0254325Y0182692D01*
X0249675Y0182692D02*
X0226325Y0182692D01*
X0226289Y0182779D02*
X0225529Y0183539D01*
X0224537Y0183950D01*
X0223463Y0183950D01*
X0222471Y0183539D01*
X0221711Y0182779D01*
X0221300Y0181787D01*
X0221300Y0180713D01*
X0221711Y0179721D01*
X0222471Y0178961D01*
X0223463Y0178550D01*
X0224537Y0178550D01*
X0225529Y0178961D01*
X0226289Y0179721D01*
X0226700Y0180713D01*
X0226700Y0181787D01*
X0226289Y0182779D01*
X0226700Y0181094D02*
X0249300Y0181094D01*
X0249936Y0179495D02*
X0226064Y0179495D01*
X0221936Y0179495D02*
X0203064Y0179495D01*
X0203700Y0181094D02*
X0221300Y0181094D01*
X0221675Y0182692D02*
X0214261Y0182692D01*
X0214289Y0182721D02*
X0214700Y0183713D01*
X0214700Y0184787D01*
X0214289Y0185779D01*
X0213529Y0186539D01*
X0212537Y0186950D01*
X0211463Y0186950D01*
X0210471Y0186539D01*
X0209711Y0185779D01*
X0209300Y0184787D01*
X0209300Y0183713D01*
X0209711Y0182721D01*
X0210471Y0181961D01*
X0211463Y0181550D01*
X0212537Y0181550D01*
X0213529Y0181961D01*
X0214289Y0182721D01*
X0214700Y0184291D02*
X0262063Y0184291D01*
X0262063Y0185889D02*
X0214179Y0185889D01*
X0209821Y0185889D02*
X0200179Y0185889D01*
X0200700Y0184291D02*
X0209300Y0184291D01*
X0209739Y0182692D02*
X0203325Y0182692D01*
X0198300Y0181094D02*
X0195627Y0181094D01*
X0194458Y0179495D02*
X0198936Y0179495D01*
X0195164Y0176298D02*
X0262063Y0176298D01*
X0262063Y0174700D02*
X0237322Y0174700D01*
X0237289Y0174779D02*
X0236529Y0175539D01*
X0235537Y0175950D01*
X0234463Y0175950D01*
X0233471Y0175539D01*
X0232711Y0174779D01*
X0232300Y0173787D01*
X0232300Y0172713D01*
X0232711Y0171721D01*
X0233471Y0170961D01*
X0234463Y0170550D01*
X0235537Y0170550D01*
X0236529Y0170961D01*
X0237289Y0171721D01*
X0237700Y0172713D01*
X0237700Y0173787D01*
X0237289Y0174779D01*
X0237700Y0173101D02*
X0262063Y0173101D01*
X0262063Y0171503D02*
X0237071Y0171503D01*
X0232929Y0171503D02*
X0195796Y0171503D01*
X0196100Y0173101D02*
X0232300Y0173101D01*
X0232678Y0174700D02*
X0195920Y0174700D01*
X0194867Y0169904D02*
X0260352Y0169904D01*
X0261648Y0169904D02*
X0262063Y0169904D01*
X0262063Y0187488D02*
X0193975Y0187488D01*
X0194049Y0189086D02*
X0262063Y0189086D01*
X0262063Y0190685D02*
X0261862Y0190685D01*
X0260138Y0190685D02*
X0195458Y0190685D01*
X0196100Y0192283D02*
X0258478Y0192283D01*
X0258339Y0193882D02*
X0196100Y0193882D01*
X0195596Y0195480D02*
X0259412Y0195480D01*
X0262063Y0197079D02*
X0244437Y0197079D01*
X0244289Y0196721D02*
X0244700Y0197713D01*
X0244700Y0198787D01*
X0244289Y0199779D01*
X0243529Y0200539D01*
X0242537Y0200950D01*
X0241463Y0200950D01*
X0240471Y0200539D01*
X0239711Y0199779D01*
X0239500Y0199270D01*
X0239289Y0199779D01*
X0238529Y0200539D01*
X0237537Y0200950D01*
X0236463Y0200950D01*
X0235471Y0200539D01*
X0234711Y0199779D01*
X0234300Y0198787D01*
X0234300Y0197713D01*
X0234711Y0196721D01*
X0235471Y0195961D01*
X0236463Y0195550D01*
X0237537Y0195550D01*
X0238529Y0195961D01*
X0239289Y0196721D01*
X0239500Y0197230D01*
X0239711Y0196721D01*
X0240471Y0195961D01*
X0241463Y0195550D01*
X0242537Y0195550D01*
X0243529Y0195961D01*
X0244289Y0196721D01*
X0244700Y0198677D02*
X0248156Y0198677D01*
X0248463Y0198550D02*
X0249537Y0198550D01*
X0250529Y0198961D01*
X0251289Y0199721D01*
X0251700Y0200713D01*
X0251700Y0201787D01*
X0251289Y0202779D01*
X0250529Y0203539D01*
X0249537Y0203950D01*
X0248463Y0203950D01*
X0247471Y0203539D01*
X0246711Y0202779D01*
X0246300Y0201787D01*
X0246300Y0200713D01*
X0246711Y0199721D01*
X0247471Y0198961D01*
X0248463Y0198550D01*
X0249844Y0198677D02*
X0262063Y0198677D01*
X0262063Y0200276D02*
X0251519Y0200276D01*
X0251664Y0201874D02*
X0262063Y0201874D01*
X0262063Y0203473D02*
X0250596Y0203473D01*
X0247404Y0203473D02*
X0225596Y0203473D01*
X0225529Y0203539D02*
X0224537Y0203950D01*
X0223463Y0203950D01*
X0222471Y0203539D01*
X0221711Y0202779D01*
X0221300Y0201787D01*
X0221300Y0200950D01*
X0220463Y0200950D01*
X0219471Y0200539D01*
X0218711Y0199779D01*
X0218300Y0198787D01*
X0218300Y0197713D01*
X0218711Y0196721D01*
X0219471Y0195961D01*
X0220463Y0195550D01*
X0221537Y0195550D01*
X0222529Y0195961D01*
X0223289Y0196721D01*
X0223700Y0197713D01*
X0223700Y0198550D01*
X0224537Y0198550D01*
X0225529Y0198961D01*
X0226289Y0199721D01*
X0226700Y0200713D01*
X0226700Y0201787D01*
X0226289Y0202779D01*
X0225529Y0203539D01*
X0226664Y0201874D02*
X0246336Y0201874D01*
X0246481Y0200276D02*
X0243793Y0200276D01*
X0240207Y0200276D02*
X0238793Y0200276D01*
X0239437Y0197079D02*
X0239563Y0197079D01*
X0234563Y0197079D02*
X0223437Y0197079D01*
X0224844Y0198677D02*
X0234300Y0198677D01*
X0235207Y0200276D02*
X0226519Y0200276D01*
X0222404Y0203473D02*
X0196100Y0203473D01*
X0195950Y0201874D02*
X0221336Y0201874D01*
X0219207Y0200276D02*
X0195238Y0200276D01*
X0193287Y0198677D02*
X0218300Y0198677D01*
X0218563Y0197079D02*
X0194384Y0197079D01*
X0188712Y0198677D02*
X0163536Y0198677D01*
X0163448Y0198407D02*
X0163682Y0199126D01*
X0163800Y0199872D01*
X0163800Y0200050D01*
X0159200Y0200050D01*
X0159200Y0200450D01*
X0163800Y0200450D01*
X0163800Y0200628D01*
X0163682Y0201374D01*
X0163448Y0202093D01*
X0163105Y0202766D01*
X0162661Y0203377D01*
X0162127Y0203911D01*
X0161516Y0204355D01*
X0160843Y0204698D01*
X0160124Y0204932D01*
X0159378Y0205050D01*
X0159200Y0205050D01*
X0159200Y0200450D01*
X0158800Y0200450D01*
X0158800Y0205050D01*
X0158622Y0205050D01*
X0157876Y0204932D01*
X0157157Y0204698D01*
X0156484Y0204355D01*
X0155873Y0203911D01*
X0155339Y0203377D01*
X0154895Y0202766D01*
X0154552Y0202093D01*
X0154318Y0201374D01*
X0154200Y0200628D01*
X0154200Y0200450D01*
X0158800Y0200450D01*
X0158800Y0200050D01*
X0159200Y0200050D01*
X0159200Y0195450D01*
X0159378Y0195450D01*
X0160124Y0195568D01*
X0160843Y0195802D01*
X0161516Y0196145D01*
X0162127Y0196589D01*
X0162661Y0197123D01*
X0163105Y0197734D01*
X0163448Y0198407D01*
X0162617Y0197079D02*
X0187616Y0197079D01*
X0186404Y0195480D02*
X0159569Y0195480D01*
X0159200Y0195480D02*
X0158800Y0195480D01*
X0158800Y0195450D02*
X0158800Y0200050D01*
X0154200Y0200050D01*
X0154200Y0199872D01*
X0154318Y0199126D01*
X0154552Y0198407D01*
X0154895Y0197734D01*
X0155339Y0197123D01*
X0155873Y0196589D01*
X0156484Y0196145D01*
X0157157Y0195802D01*
X0157876Y0195568D01*
X0158622Y0195450D01*
X0158800Y0195450D01*
X0158431Y0195480D02*
X0127413Y0195480D01*
X0127289Y0195779D02*
X0126529Y0196539D01*
X0125700Y0196882D01*
X0125700Y0197787D01*
X0125289Y0198779D01*
X0124529Y0199539D01*
X0123537Y0199950D01*
X0122463Y0199950D01*
X0121471Y0199539D01*
X0120711Y0198779D01*
X0120300Y0197787D01*
X0120300Y0196713D01*
X0120711Y0195721D01*
X0121471Y0194961D01*
X0122300Y0194617D01*
X0122300Y0193713D01*
X0122711Y0192721D01*
X0123471Y0191961D01*
X0124463Y0191550D01*
X0125537Y0191550D01*
X0126529Y0191961D01*
X0127289Y0192721D01*
X0127700Y0193713D01*
X0127700Y0194787D01*
X0127289Y0195779D01*
X0127700Y0193882D02*
X0154313Y0193882D01*
X0153300Y0192283D02*
X0126852Y0192283D01*
X0123148Y0192283D02*
X0064522Y0192283D01*
X0064700Y0192713D02*
X0064289Y0191721D01*
X0063529Y0190961D01*
X0062537Y0190550D01*
X0061463Y0190550D01*
X0060471Y0190961D01*
X0059711Y0191721D01*
X0059300Y0192713D01*
X0059300Y0193787D01*
X0059711Y0194779D01*
X0060471Y0195539D01*
X0061463Y0195950D01*
X0062537Y0195950D01*
X0063529Y0195539D01*
X0064289Y0194779D01*
X0064700Y0193787D01*
X0064700Y0192713D01*
X0064661Y0193882D02*
X0078662Y0193882D01*
X0078471Y0193961D02*
X0079463Y0193550D01*
X0080537Y0193550D01*
X0081529Y0193961D01*
X0082289Y0194721D01*
X0082700Y0195713D01*
X0082700Y0196787D01*
X0082289Y0197779D01*
X0081529Y0198539D01*
X0080537Y0198950D01*
X0079463Y0198950D01*
X0078471Y0198539D01*
X0077711Y0197779D01*
X0077300Y0196787D01*
X0077300Y0195713D01*
X0077711Y0194721D01*
X0078471Y0193961D01*
X0077396Y0195480D02*
X0063588Y0195480D01*
X0060412Y0195480D02*
X0034588Y0195480D01*
X0034353Y0197079D02*
X0029384Y0197079D01*
X0028287Y0198677D02*
X0033315Y0198677D01*
X0033502Y0200276D02*
X0030238Y0200276D01*
X0030596Y0195480D02*
X0031412Y0195480D01*
X0035661Y0193882D02*
X0059339Y0193882D01*
X0059478Y0192283D02*
X0053785Y0192283D01*
X0053529Y0192539D02*
X0052537Y0192950D01*
X0051463Y0192950D01*
X0050471Y0192539D01*
X0049711Y0191779D01*
X0049300Y0190787D01*
X0049300Y0189713D01*
X0049711Y0188721D01*
X0050471Y0187961D01*
X0051463Y0187550D01*
X0052537Y0187550D01*
X0053529Y0187961D01*
X0054289Y0188721D01*
X0054700Y0189713D01*
X0054700Y0190787D01*
X0054289Y0191779D01*
X0053529Y0192539D01*
X0054700Y0190685D02*
X0061138Y0190685D01*
X0061463Y0189950D02*
X0060471Y0189539D01*
X0059711Y0188779D01*
X0059300Y0187787D01*
X0059300Y0186713D01*
X0059711Y0185721D01*
X0060471Y0184961D01*
X0061463Y0184550D01*
X0062537Y0184550D01*
X0063529Y0184961D01*
X0064289Y0185721D01*
X0064700Y0186713D01*
X0064700Y0187787D01*
X0064289Y0188779D01*
X0063529Y0189539D01*
X0062537Y0189950D01*
X0061463Y0189950D01*
X0062862Y0190685D02*
X0110172Y0190685D01*
X0110211Y0190779D02*
X0109800Y0189787D01*
X0109800Y0188713D01*
X0110211Y0187721D01*
X0110971Y0186961D01*
X0111963Y0186550D01*
X0113037Y0186550D01*
X0114029Y0186961D01*
X0114789Y0187721D01*
X0115200Y0188713D01*
X0115200Y0189787D01*
X0114789Y0190779D01*
X0114029Y0191539D01*
X0113037Y0191950D01*
X0111963Y0191950D01*
X0110971Y0191539D01*
X0110211Y0190779D01*
X0109800Y0189086D02*
X0063982Y0189086D01*
X0064700Y0187488D02*
X0110444Y0187488D01*
X0114556Y0187488D02*
X0132944Y0187488D01*
X0132300Y0189086D02*
X0115200Y0189086D01*
X0114828Y0190685D02*
X0132672Y0190685D01*
X0136508Y0196520D02*
X0135270Y0197758D01*
X0134600Y0199375D01*
X0134600Y0201125D01*
X0135270Y0202742D01*
X0136508Y0203980D01*
X0138125Y0204650D01*
X0139875Y0204650D01*
X0141492Y0203980D01*
X0142730Y0202742D01*
X0143400Y0201125D01*
X0143400Y0199375D01*
X0142730Y0197758D01*
X0141492Y0196520D01*
X0139875Y0195850D01*
X0138125Y0195850D01*
X0136508Y0196520D01*
X0135949Y0197079D02*
X0125700Y0197079D01*
X0125331Y0198677D02*
X0134889Y0198677D01*
X0134600Y0200276D02*
X0049498Y0200276D01*
X0049700Y0199787D02*
X0049289Y0200779D01*
X0048529Y0201539D01*
X0047537Y0201950D01*
X0046463Y0201950D01*
X0045471Y0201539D01*
X0044711Y0200779D01*
X0044300Y0199787D01*
X0044300Y0198713D01*
X0044711Y0197721D01*
X0045471Y0196961D01*
X0046463Y0196550D01*
X0047537Y0196550D01*
X0048529Y0196961D01*
X0049289Y0197721D01*
X0049700Y0198713D01*
X0049700Y0199787D01*
X0050463Y0200550D02*
X0049471Y0200961D01*
X0048711Y0201721D01*
X0048300Y0202713D01*
X0048300Y0203787D01*
X0048339Y0203882D01*
X0047537Y0203550D01*
X0046463Y0203550D01*
X0045471Y0203961D01*
X0044711Y0204721D01*
X0044300Y0205713D01*
X0044300Y0206787D01*
X0044711Y0207779D01*
X0045471Y0208539D01*
X0046463Y0208950D01*
X0047537Y0208950D01*
X0048339Y0208618D01*
X0048300Y0208713D01*
X0048300Y0209787D01*
X0048711Y0210779D01*
X0049471Y0211539D01*
X0050463Y0211950D01*
X0051537Y0211950D01*
X0052529Y0211539D01*
X0053289Y0210779D01*
X0053700Y0209787D01*
X0053700Y0208713D01*
X0053289Y0207721D01*
X0052529Y0206961D01*
X0051537Y0206550D01*
X0050463Y0206550D01*
X0049660Y0206882D01*
X0049700Y0206787D01*
X0049700Y0205713D01*
X0049660Y0205618D01*
X0050463Y0205950D01*
X0051537Y0205950D01*
X0052529Y0205539D01*
X0053289Y0204779D01*
X0053700Y0203787D01*
X0053700Y0202713D01*
X0053289Y0201721D01*
X0052529Y0200961D01*
X0051537Y0200550D01*
X0050463Y0200550D01*
X0049685Y0198677D02*
X0078805Y0198677D01*
X0077421Y0197079D02*
X0048647Y0197079D01*
X0045353Y0197079D02*
X0037647Y0197079D01*
X0038685Y0198677D02*
X0044315Y0198677D01*
X0044502Y0200276D02*
X0038498Y0200276D01*
X0036720Y0201874D02*
X0046280Y0201874D01*
X0047720Y0201874D02*
X0048647Y0201874D01*
X0048300Y0203473D02*
X0035700Y0203473D01*
X0034997Y0205071D02*
X0044566Y0205071D01*
X0044300Y0206670D02*
X0029793Y0206670D01*
X0030766Y0205071D02*
X0031003Y0205071D01*
X0027300Y0208268D02*
X0045200Y0208268D01*
X0046463Y0210550D02*
X0047537Y0210550D01*
X0048529Y0210961D01*
X0049289Y0211721D01*
X0049700Y0212713D01*
X0049700Y0213787D01*
X0049289Y0214779D01*
X0048529Y0215539D01*
X0047537Y0215950D01*
X0046463Y0215950D01*
X0045471Y0215539D01*
X0044711Y0214779D01*
X0044300Y0213787D01*
X0044300Y0212713D01*
X0044711Y0211721D01*
X0045471Y0210961D01*
X0046463Y0210550D01*
X0044966Y0211465D02*
X0030781Y0211465D01*
X0031100Y0213064D02*
X0044300Y0213064D01*
X0044663Y0214662D02*
X0030935Y0214662D01*
X0030202Y0216261D02*
X0058996Y0216261D01*
X0058800Y0215787D02*
X0058800Y0214713D01*
X0059211Y0213721D01*
X0059971Y0212961D01*
X0060963Y0212550D01*
X0062037Y0212550D01*
X0063029Y0212961D01*
X0063789Y0213721D01*
X0064200Y0214713D01*
X0064200Y0215787D01*
X0063789Y0216779D01*
X0063318Y0217250D01*
X0063789Y0217721D01*
X0064200Y0218713D01*
X0064200Y0219787D01*
X0063789Y0220779D01*
X0063029Y0221539D01*
X0062037Y0221950D01*
X0060963Y0221950D01*
X0059971Y0221539D01*
X0059211Y0220779D01*
X0058800Y0219787D01*
X0058800Y0218713D01*
X0059211Y0217721D01*
X0059682Y0217250D01*
X0059211Y0216779D01*
X0058800Y0215787D01*
X0058821Y0214662D02*
X0049337Y0214662D01*
X0049700Y0213064D02*
X0059868Y0213064D01*
X0063132Y0213064D02*
X0069415Y0213064D01*
X0069300Y0212787D02*
X0069711Y0213779D01*
X0070471Y0214539D01*
X0071463Y0214950D01*
X0072537Y0214950D01*
X0073529Y0214539D01*
X0074289Y0213779D01*
X0074700Y0212787D01*
X0074700Y0211713D01*
X0074289Y0210721D01*
X0073529Y0209961D01*
X0072537Y0209550D01*
X0071463Y0209550D01*
X0070471Y0209961D01*
X0069711Y0210721D01*
X0069300Y0211713D01*
X0069300Y0212787D01*
X0069403Y0211465D02*
X0052603Y0211465D01*
X0053667Y0209867D02*
X0070698Y0209867D01*
X0073302Y0209867D02*
X0093698Y0209867D01*
X0093471Y0209961D02*
X0093980Y0209750D01*
X0093471Y0209539D01*
X0092711Y0208779D01*
X0092300Y0207787D01*
X0092300Y0206713D01*
X0092711Y0205721D01*
X0093471Y0204961D01*
X0094463Y0204550D01*
X0095537Y0204550D01*
X0096529Y0204961D01*
X0097289Y0205721D01*
X0097700Y0206713D01*
X0097700Y0207787D01*
X0097289Y0208779D01*
X0096529Y0209539D01*
X0096020Y0209750D01*
X0096529Y0209961D01*
X0097289Y0210721D01*
X0097700Y0211713D01*
X0097700Y0212787D01*
X0097289Y0213779D01*
X0096529Y0214539D01*
X0095537Y0214950D01*
X0094463Y0214950D01*
X0093471Y0214539D01*
X0092711Y0213779D01*
X0092300Y0212787D01*
X0092300Y0211713D01*
X0092711Y0210721D01*
X0093471Y0209961D01*
X0092403Y0211465D02*
X0074597Y0211465D01*
X0074585Y0213064D02*
X0092415Y0213064D01*
X0093769Y0214662D02*
X0073231Y0214662D01*
X0070769Y0214662D02*
X0064179Y0214662D01*
X0064004Y0216261D02*
X0105487Y0216261D01*
X0105300Y0216713D02*
X0105711Y0215721D01*
X0106471Y0214961D01*
X0107463Y0214550D01*
X0108537Y0214550D01*
X0109529Y0214961D01*
X0110289Y0215721D01*
X0110700Y0216713D01*
X0110700Y0217787D01*
X0110289Y0218779D01*
X0109529Y0219539D01*
X0108537Y0219950D01*
X0107463Y0219950D01*
X0106471Y0219539D01*
X0105711Y0218779D01*
X0105300Y0217787D01*
X0105300Y0216713D01*
X0105330Y0217859D02*
X0096284Y0217859D01*
X0096529Y0217961D02*
X0097289Y0218721D01*
X0097700Y0219713D01*
X0097700Y0220787D01*
X0097289Y0221779D01*
X0096529Y0222539D01*
X0095537Y0222950D01*
X0094463Y0222950D01*
X0093471Y0222539D01*
X0092711Y0221779D01*
X0092300Y0220787D01*
X0092300Y0219713D01*
X0092711Y0218721D01*
X0093471Y0217961D01*
X0094463Y0217550D01*
X0095537Y0217550D01*
X0096529Y0217961D01*
X0097594Y0219458D02*
X0106390Y0219458D01*
X0109610Y0219458D02*
X0129390Y0219458D01*
X0129471Y0219539D02*
X0128711Y0218779D01*
X0128300Y0217787D01*
X0128300Y0216713D01*
X0128711Y0215721D01*
X0129471Y0214961D01*
X0130463Y0214550D01*
X0131537Y0214550D01*
X0132529Y0214961D01*
X0133289Y0215721D01*
X0133700Y0216713D01*
X0133700Y0217787D01*
X0133289Y0218779D01*
X0132529Y0219539D01*
X0131537Y0219950D01*
X0130463Y0219950D01*
X0129471Y0219539D01*
X0128330Y0217859D02*
X0110670Y0217859D01*
X0110513Y0216261D02*
X0128487Y0216261D01*
X0130191Y0214662D02*
X0108808Y0214662D01*
X0107191Y0214662D02*
X0096231Y0214662D01*
X0097585Y0213064D02*
X0135591Y0213064D01*
X0135270Y0212742D02*
X0134600Y0211125D01*
X0134600Y0209375D01*
X0135270Y0207758D01*
X0136508Y0206520D01*
X0138125Y0205850D01*
X0139875Y0205850D01*
X0141492Y0206520D01*
X0142730Y0207758D01*
X0143400Y0209375D01*
X0143400Y0211125D01*
X0142730Y0212742D01*
X0141492Y0213980D01*
X0140117Y0214550D01*
X0140537Y0214550D01*
X0141529Y0214961D01*
X0142289Y0215721D01*
X0142700Y0216713D01*
X0142700Y0217787D01*
X0142289Y0218779D01*
X0141529Y0219539D01*
X0140537Y0219950D01*
X0139463Y0219950D01*
X0138471Y0219539D01*
X0137711Y0218779D01*
X0137300Y0217787D01*
X0137300Y0216713D01*
X0137711Y0215721D01*
X0138471Y0214961D01*
X0139222Y0214650D01*
X0138125Y0214650D01*
X0136508Y0213980D01*
X0135270Y0212742D01*
X0134741Y0211465D02*
X0097597Y0211465D01*
X0096302Y0209867D02*
X0111762Y0209867D01*
X0111963Y0209950D02*
X0110971Y0209539D01*
X0110211Y0208779D01*
X0109800Y0207787D01*
X0109800Y0206713D01*
X0110211Y0205721D01*
X0110971Y0204961D01*
X0111963Y0204550D01*
X0113037Y0204550D01*
X0114029Y0204961D01*
X0114789Y0205721D01*
X0115200Y0206713D01*
X0115200Y0207787D01*
X0114789Y0208779D01*
X0114029Y0209539D01*
X0113037Y0209950D01*
X0111963Y0209950D01*
X0113238Y0209867D02*
X0134600Y0209867D01*
X0135058Y0208268D02*
X0124800Y0208268D01*
X0124506Y0208563D02*
X0123513Y0208974D01*
X0122439Y0208974D01*
X0121447Y0208563D01*
X0120687Y0207803D01*
X0120276Y0206811D01*
X0120276Y0205737D01*
X0120687Y0204744D01*
X0121447Y0203985D01*
X0122439Y0203574D01*
X0123513Y0203574D01*
X0124506Y0203985D01*
X0125265Y0204744D01*
X0125676Y0205737D01*
X0125676Y0206811D01*
X0125265Y0207803D01*
X0124506Y0208563D01*
X0125676Y0206670D02*
X0136358Y0206670D01*
X0136000Y0203473D02*
X0053700Y0203473D01*
X0053353Y0201874D02*
X0134910Y0201874D01*
X0142000Y0203473D02*
X0146000Y0203473D01*
X0146508Y0203980D02*
X0145270Y0202742D01*
X0144600Y0201125D01*
X0144600Y0199375D01*
X0145270Y0197758D01*
X0146508Y0196520D01*
X0148125Y0195850D01*
X0149875Y0195850D01*
X0151492Y0196520D01*
X0152730Y0197758D01*
X0153400Y0199375D01*
X0153400Y0201125D01*
X0152730Y0202742D01*
X0151492Y0203980D01*
X0149875Y0204650D01*
X0148125Y0204650D01*
X0146508Y0203980D01*
X0148125Y0205850D02*
X0146508Y0206520D01*
X0145270Y0207758D01*
X0144600Y0209375D01*
X0144600Y0211125D01*
X0145270Y0212742D01*
X0146508Y0213980D01*
X0148125Y0214650D01*
X0149875Y0214650D01*
X0151492Y0213980D01*
X0152730Y0212742D01*
X0153400Y0211125D01*
X0153400Y0209375D01*
X0152730Y0207758D01*
X0151492Y0206520D01*
X0149875Y0205850D01*
X0148125Y0205850D01*
X0146358Y0206670D02*
X0141642Y0206670D01*
X0142942Y0208268D02*
X0145058Y0208268D01*
X0144600Y0209867D02*
X0143400Y0209867D01*
X0143259Y0211465D02*
X0144741Y0211465D01*
X0145591Y0213064D02*
X0142409Y0213064D01*
X0140808Y0214662D02*
X0162191Y0214662D01*
X0162463Y0214550D02*
X0163537Y0214550D01*
X0164529Y0214961D01*
X0165289Y0215721D01*
X0165700Y0216713D01*
X0165700Y0217787D01*
X0165289Y0218779D01*
X0164529Y0219539D01*
X0163537Y0219950D01*
X0162463Y0219950D01*
X0161471Y0219539D01*
X0160711Y0218779D01*
X0160300Y0217787D01*
X0160300Y0216713D01*
X0160711Y0215721D01*
X0161471Y0214961D01*
X0162463Y0214550D01*
X0161492Y0213980D02*
X0159875Y0214650D01*
X0158125Y0214650D01*
X0156508Y0213980D01*
X0155270Y0212742D01*
X0154600Y0211125D01*
X0154600Y0209375D01*
X0155270Y0207758D01*
X0156508Y0206520D01*
X0158125Y0205850D01*
X0159875Y0205850D01*
X0161492Y0206520D01*
X0162730Y0207758D01*
X0163400Y0209375D01*
X0163400Y0211125D01*
X0162730Y0212742D01*
X0161492Y0213980D01*
X0162409Y0213064D02*
X0185900Y0213064D01*
X0186065Y0214662D02*
X0175808Y0214662D01*
X0175537Y0214550D02*
X0176529Y0214961D01*
X0177289Y0215721D01*
X0177700Y0216713D01*
X0177700Y0217787D01*
X0177289Y0218779D01*
X0176529Y0219539D01*
X0175537Y0219950D01*
X0174463Y0219950D01*
X0173471Y0219539D01*
X0172711Y0218779D01*
X0172300Y0217787D01*
X0172300Y0216713D01*
X0172711Y0215721D01*
X0173471Y0214961D01*
X0174463Y0214550D01*
X0175537Y0214550D01*
X0174191Y0214662D02*
X0163808Y0214662D01*
X0165513Y0216261D02*
X0172487Y0216261D01*
X0172330Y0217859D02*
X0165670Y0217859D01*
X0164610Y0219458D02*
X0173390Y0219458D01*
X0176610Y0219458D02*
X0187580Y0219458D01*
X0186388Y0221056D02*
X0097588Y0221056D01*
X0096249Y0222655D02*
X0139777Y0222655D01*
X0139711Y0222721D02*
X0140471Y0221961D01*
X0141463Y0221550D01*
X0142537Y0221550D01*
X0143529Y0221961D01*
X0144289Y0222721D01*
X0144700Y0223713D01*
X0144700Y0224787D01*
X0144289Y0225779D01*
X0143529Y0226539D01*
X0142537Y0226950D01*
X0141463Y0226950D01*
X0140471Y0226539D01*
X0139711Y0225779D01*
X0139300Y0224787D01*
X0139300Y0223713D01*
X0139711Y0222721D01*
X0139300Y0224253D02*
X0044507Y0224253D01*
X0044700Y0223787D02*
X0044289Y0224779D01*
X0043529Y0225539D01*
X0042537Y0225950D01*
X0041463Y0225950D01*
X0040471Y0225539D01*
X0039711Y0224779D01*
X0039300Y0223787D01*
X0039300Y0222713D01*
X0039711Y0221721D01*
X0040471Y0220961D01*
X0041463Y0220550D01*
X0042537Y0220550D01*
X0043529Y0220961D01*
X0044289Y0221721D01*
X0044700Y0222713D01*
X0044700Y0223787D01*
X0044676Y0222655D02*
X0071751Y0222655D01*
X0071471Y0222539D02*
X0070711Y0221779D01*
X0070300Y0220787D01*
X0070300Y0219713D01*
X0070711Y0218721D01*
X0071471Y0217961D01*
X0072463Y0217550D01*
X0073537Y0217550D01*
X0074529Y0217961D01*
X0075289Y0218721D01*
X0075700Y0219713D01*
X0075700Y0220787D01*
X0075289Y0221779D01*
X0074529Y0222539D01*
X0073537Y0222950D01*
X0072463Y0222950D01*
X0071471Y0222539D01*
X0070412Y0221056D02*
X0063512Y0221056D01*
X0064200Y0219458D02*
X0070406Y0219458D01*
X0071716Y0217859D02*
X0063846Y0217859D01*
X0059154Y0217859D02*
X0028199Y0217859D01*
X0029420Y0219458D02*
X0058800Y0219458D01*
X0059488Y0221056D02*
X0043625Y0221056D01*
X0040375Y0221056D02*
X0030612Y0221056D01*
X0031100Y0222655D02*
X0039324Y0222655D01*
X0039493Y0224253D02*
X0031100Y0224253D01*
X0030442Y0225852D02*
X0041226Y0225852D01*
X0042774Y0225852D02*
X0115657Y0225852D01*
X0115711Y0225721D02*
X0116471Y0224961D01*
X0117463Y0224550D01*
X0118537Y0224550D01*
X0119529Y0224961D01*
X0120289Y0225721D01*
X0120700Y0226713D01*
X0120700Y0227787D01*
X0120289Y0228779D01*
X0119529Y0229539D01*
X0118537Y0229950D01*
X0117463Y0229950D01*
X0116471Y0229539D01*
X0115711Y0228779D01*
X0115300Y0227787D01*
X0115300Y0226713D01*
X0115711Y0225721D01*
X0115300Y0227451D02*
X0029012Y0227451D01*
X0022988Y0227451D02*
X0004937Y0227451D01*
X0004937Y0229049D02*
X0061383Y0229049D01*
X0061471Y0228961D02*
X0062463Y0228550D01*
X0063537Y0228550D01*
X0064529Y0228961D01*
X0065289Y0229721D01*
X0065700Y0230713D01*
X0065700Y0231787D01*
X0065289Y0232779D01*
X0064529Y0233539D01*
X0063537Y0233950D01*
X0062463Y0233950D01*
X0061471Y0233539D01*
X0060711Y0232779D01*
X0060300Y0231787D01*
X0060300Y0230713D01*
X0060711Y0229721D01*
X0061471Y0228961D01*
X0060327Y0230648D02*
X0004937Y0230648D01*
X0004937Y0232246D02*
X0060490Y0232246D01*
X0062208Y0233845D02*
X0004937Y0233845D01*
X0004937Y0235443D02*
X0084989Y0235443D01*
X0084711Y0235721D02*
X0085471Y0234961D01*
X0086463Y0234550D01*
X0087537Y0234550D01*
X0088529Y0234961D01*
X0089289Y0235721D01*
X0089700Y0236713D01*
X0089700Y0237787D01*
X0089289Y0238779D01*
X0088529Y0239539D01*
X0087537Y0239950D01*
X0086463Y0239950D01*
X0085471Y0239539D01*
X0084711Y0238779D01*
X0084300Y0237787D01*
X0084300Y0236713D01*
X0084711Y0235721D01*
X0084300Y0237042D02*
X0004937Y0237042D01*
X0004937Y0238640D02*
X0084653Y0238640D01*
X0089347Y0238640D02*
X0140245Y0238640D01*
X0140463Y0238550D02*
X0141537Y0238550D01*
X0142529Y0238961D01*
X0143289Y0239721D01*
X0143700Y0240713D01*
X0143700Y0241787D01*
X0143289Y0242779D01*
X0142529Y0243539D01*
X0141537Y0243950D01*
X0140463Y0243950D01*
X0139471Y0243539D01*
X0138711Y0242779D01*
X0138300Y0241787D01*
X0138300Y0240713D01*
X0138711Y0239721D01*
X0139471Y0238961D01*
X0140463Y0238550D01*
X0141755Y0238640D02*
X0184715Y0238640D01*
X0184471Y0238539D02*
X0183711Y0237779D01*
X0183300Y0236787D01*
X0183300Y0235713D01*
X0183711Y0234721D01*
X0184471Y0233961D01*
X0185463Y0233550D01*
X0186537Y0233550D01*
X0187529Y0233961D01*
X0188289Y0234721D01*
X0188700Y0235713D01*
X0188700Y0236787D01*
X0188289Y0237779D01*
X0187529Y0238539D01*
X0186537Y0238950D01*
X0185463Y0238950D01*
X0184471Y0238539D01*
X0183405Y0237042D02*
X0140027Y0237042D01*
X0140289Y0236779D02*
X0139529Y0237539D01*
X0138537Y0237950D01*
X0137463Y0237950D01*
X0136471Y0237539D01*
X0135711Y0236779D01*
X0135300Y0235787D01*
X0135300Y0234713D01*
X0135711Y0233721D01*
X0136471Y0232961D01*
X0137463Y0232550D01*
X0138537Y0232550D01*
X0139529Y0232961D01*
X0140289Y0233721D01*
X0140700Y0234713D01*
X0140700Y0235787D01*
X0140289Y0236779D01*
X0140700Y0235443D02*
X0183412Y0235443D01*
X0184752Y0233845D02*
X0175792Y0233845D01*
X0175537Y0233950D02*
X0174463Y0233950D01*
X0173471Y0233539D01*
X0172711Y0232779D01*
X0172300Y0231787D01*
X0172300Y0230713D01*
X0172711Y0229721D01*
X0173471Y0228961D01*
X0174463Y0228550D01*
X0175537Y0228550D01*
X0176529Y0228961D01*
X0177289Y0229721D01*
X0177700Y0230713D01*
X0177700Y0231787D01*
X0177289Y0232779D01*
X0176529Y0233539D01*
X0175537Y0233950D01*
X0174208Y0233845D02*
X0149224Y0233845D01*
X0149289Y0233779D02*
X0148529Y0234539D01*
X0147537Y0234950D01*
X0146463Y0234950D01*
X0145471Y0234539D01*
X0144711Y0233779D01*
X0144300Y0232787D01*
X0144300Y0231713D01*
X0144711Y0230721D01*
X0145471Y0229961D01*
X0146463Y0229550D01*
X0147537Y0229550D01*
X0148529Y0229961D01*
X0149289Y0230721D01*
X0149700Y0231713D01*
X0149700Y0232787D01*
X0149289Y0233779D01*
X0149700Y0232246D02*
X0155178Y0232246D01*
X0155471Y0232539D02*
X0154711Y0231779D01*
X0154300Y0230787D01*
X0154300Y0229713D01*
X0154711Y0228721D01*
X0155471Y0227961D01*
X0156463Y0227550D01*
X0157537Y0227550D01*
X0158529Y0227961D01*
X0159289Y0228721D01*
X0159700Y0229713D01*
X0159700Y0230787D01*
X0159289Y0231779D01*
X0158529Y0232539D01*
X0157537Y0232950D01*
X0156463Y0232950D01*
X0155471Y0232539D01*
X0154300Y0230648D02*
X0149216Y0230648D01*
X0144784Y0230648D02*
X0103673Y0230648D01*
X0103700Y0230713D02*
X0103289Y0229721D01*
X0102529Y0228961D01*
X0101537Y0228550D01*
X0100463Y0228550D01*
X0099471Y0228961D01*
X0098711Y0229721D01*
X0098300Y0230713D01*
X0098300Y0231787D01*
X0098711Y0232779D01*
X0099471Y0233539D01*
X0100463Y0233950D01*
X0101537Y0233950D01*
X0102529Y0233539D01*
X0103289Y0232779D01*
X0103700Y0231787D01*
X0103700Y0230713D01*
X0103510Y0232246D02*
X0107186Y0232246D01*
X0107471Y0231961D02*
X0108463Y0231550D01*
X0109537Y0231550D01*
X0110529Y0231961D01*
X0111289Y0232721D01*
X0111700Y0233713D01*
X0111700Y0234787D01*
X0111289Y0235779D01*
X0110529Y0236539D01*
X0109537Y0236950D01*
X0108463Y0236950D01*
X0107471Y0236539D01*
X0106711Y0235779D01*
X0106300Y0234787D01*
X0106300Y0233713D01*
X0106711Y0232721D01*
X0107471Y0231961D01*
X0106300Y0233845D02*
X0101792Y0233845D01*
X0100208Y0233845D02*
X0094792Y0233845D01*
X0094537Y0233950D02*
X0093463Y0233950D01*
X0092471Y0233539D01*
X0091711Y0232779D01*
X0091300Y0231787D01*
X0091300Y0230713D01*
X0091711Y0229721D01*
X0092471Y0228961D01*
X0093463Y0228550D01*
X0094537Y0228550D01*
X0095529Y0228961D01*
X0096289Y0229721D01*
X0096700Y0230713D01*
X0096700Y0231787D01*
X0096289Y0232779D01*
X0095529Y0233539D01*
X0094537Y0233950D01*
X0093208Y0233845D02*
X0063792Y0233845D01*
X0065510Y0232246D02*
X0091490Y0232246D01*
X0091327Y0230648D02*
X0065673Y0230648D01*
X0064617Y0229049D02*
X0092383Y0229049D01*
X0095617Y0229049D02*
X0099383Y0229049D01*
X0098327Y0230648D02*
X0096673Y0230648D01*
X0096510Y0232246D02*
X0098490Y0232246D01*
X0102617Y0229049D02*
X0115981Y0229049D01*
X0120019Y0229049D02*
X0125981Y0229049D01*
X0125711Y0228779D02*
X0125300Y0227787D01*
X0125300Y0226713D01*
X0125711Y0225721D01*
X0126471Y0224961D01*
X0127463Y0224550D01*
X0128537Y0224550D01*
X0129529Y0224961D01*
X0130289Y0225721D01*
X0130700Y0226713D01*
X0130700Y0227787D01*
X0130289Y0228779D01*
X0129529Y0229539D01*
X0128537Y0229950D01*
X0127463Y0229950D01*
X0126471Y0229539D01*
X0125711Y0228779D01*
X0125300Y0227451D02*
X0120700Y0227451D01*
X0120343Y0225852D02*
X0125657Y0225852D01*
X0130343Y0225852D02*
X0139784Y0225852D01*
X0144216Y0225852D02*
X0164327Y0225852D01*
X0164300Y0225787D02*
X0164300Y0224713D01*
X0164711Y0223721D01*
X0165471Y0222961D01*
X0166463Y0222550D01*
X0167537Y0222550D01*
X0168529Y0222961D01*
X0169289Y0223721D01*
X0169700Y0224713D01*
X0169700Y0225787D01*
X0169289Y0226779D01*
X0168529Y0227539D01*
X0167537Y0227950D01*
X0166463Y0227950D01*
X0165471Y0227539D01*
X0164711Y0226779D01*
X0164300Y0225787D01*
X0164490Y0224253D02*
X0144700Y0224253D01*
X0144223Y0222655D02*
X0166209Y0222655D01*
X0167791Y0222655D02*
X0185900Y0222655D01*
X0185900Y0224253D02*
X0169510Y0224253D01*
X0169673Y0225852D02*
X0186558Y0225852D01*
X0187988Y0227451D02*
X0168618Y0227451D01*
X0165382Y0227451D02*
X0130700Y0227451D01*
X0130019Y0229049D02*
X0154575Y0229049D01*
X0159425Y0229049D02*
X0173383Y0229049D01*
X0172327Y0230648D02*
X0159700Y0230648D01*
X0158822Y0232246D02*
X0172490Y0232246D01*
X0177510Y0232246D02*
X0246493Y0232246D01*
X0246300Y0232713D02*
X0246711Y0231721D01*
X0247182Y0231250D01*
X0246711Y0230779D01*
X0246300Y0229787D01*
X0246300Y0228713D01*
X0246711Y0227721D01*
X0247182Y0227250D01*
X0246711Y0226779D01*
X0246300Y0225787D01*
X0246300Y0224713D01*
X0246711Y0223721D01*
X0247471Y0222961D01*
X0248463Y0222550D01*
X0249537Y0222550D01*
X0250529Y0222961D01*
X0251289Y0223721D01*
X0251700Y0224713D01*
X0251700Y0225787D01*
X0251289Y0226779D01*
X0250818Y0227250D01*
X0251289Y0227721D01*
X0251700Y0228713D01*
X0251700Y0229787D01*
X0251289Y0230779D01*
X0250818Y0231250D01*
X0251289Y0231721D01*
X0251700Y0232713D01*
X0251700Y0233787D01*
X0251289Y0234779D01*
X0250529Y0235539D01*
X0250231Y0235663D01*
X0250289Y0235721D01*
X0250700Y0236713D01*
X0250700Y0237787D01*
X0250289Y0238779D01*
X0249529Y0239539D01*
X0248537Y0239950D01*
X0247463Y0239950D01*
X0246471Y0239539D01*
X0245711Y0238779D01*
X0245500Y0238270D01*
X0245289Y0238779D01*
X0244529Y0239539D01*
X0243537Y0239950D01*
X0242463Y0239950D01*
X0241471Y0239539D01*
X0240711Y0238779D01*
X0240500Y0238270D01*
X0240289Y0238779D01*
X0239529Y0239539D01*
X0238537Y0239950D01*
X0237463Y0239950D01*
X0236471Y0239539D01*
X0235711Y0238779D01*
X0235500Y0238270D01*
X0235289Y0238779D01*
X0234529Y0239539D01*
X0234020Y0239750D01*
X0234529Y0239961D01*
X0235289Y0240721D01*
X0235700Y0241713D01*
X0235700Y0242787D01*
X0235289Y0243779D01*
X0234529Y0244539D01*
X0233537Y0244950D01*
X0232463Y0244950D01*
X0231471Y0244539D01*
X0230711Y0243779D01*
X0230300Y0242787D01*
X0230300Y0241713D01*
X0230711Y0240721D01*
X0231471Y0239961D01*
X0231980Y0239750D01*
X0231471Y0239539D01*
X0230711Y0238779D01*
X0230300Y0237787D01*
X0230300Y0236713D01*
X0230711Y0235721D01*
X0231471Y0234961D01*
X0232463Y0234550D01*
X0233537Y0234550D01*
X0234529Y0234961D01*
X0235289Y0235721D01*
X0235500Y0236230D01*
X0235711Y0235721D01*
X0236471Y0234961D01*
X0237463Y0234550D01*
X0238537Y0234550D01*
X0239529Y0234961D01*
X0240289Y0235721D01*
X0240500Y0236230D01*
X0240711Y0235721D01*
X0241471Y0234961D01*
X0242463Y0234550D01*
X0243537Y0234550D01*
X0244529Y0234961D01*
X0245289Y0235721D01*
X0245500Y0236230D01*
X0245711Y0235721D01*
X0246471Y0234961D01*
X0246769Y0234837D01*
X0246711Y0234779D01*
X0246300Y0233787D01*
X0246300Y0232713D01*
X0246324Y0233845D02*
X0187248Y0233845D01*
X0188588Y0235443D02*
X0230989Y0235443D01*
X0230300Y0237042D02*
X0222610Y0237042D01*
X0222529Y0236961D02*
X0223289Y0237721D01*
X0223431Y0238063D01*
X0223463Y0238050D01*
X0224537Y0238050D01*
X0225529Y0238461D01*
X0226289Y0239221D01*
X0226700Y0240213D01*
X0226700Y0241287D01*
X0226437Y0241923D01*
X0226529Y0241961D01*
X0227289Y0242721D01*
X0227700Y0243713D01*
X0227700Y0244617D01*
X0228529Y0244961D01*
X0229289Y0245721D01*
X0229700Y0246713D01*
X0229700Y0247787D01*
X0229289Y0248779D01*
X0228529Y0249539D01*
X0227537Y0249950D01*
X0226463Y0249950D01*
X0225471Y0249539D01*
X0224711Y0248779D01*
X0224300Y0247787D01*
X0224300Y0246882D01*
X0223471Y0246539D01*
X0222711Y0245779D01*
X0222300Y0244787D01*
X0222300Y0243713D01*
X0222563Y0243077D01*
X0222471Y0243039D01*
X0221711Y0242279D01*
X0221569Y0241937D01*
X0221537Y0241950D01*
X0220463Y0241950D01*
X0219471Y0241539D01*
X0218711Y0240779D01*
X0218300Y0239787D01*
X0218300Y0238713D01*
X0218711Y0237721D01*
X0219471Y0236961D01*
X0220463Y0236550D01*
X0221537Y0236550D01*
X0222529Y0236961D01*
X0219390Y0237042D02*
X0188595Y0237042D01*
X0187285Y0238640D02*
X0218330Y0238640D01*
X0218487Y0240239D02*
X0143504Y0240239D01*
X0143679Y0241837D02*
X0220190Y0241837D01*
X0222415Y0243436D02*
X0142633Y0243436D01*
X0139367Y0243436D02*
X0130585Y0243436D01*
X0130700Y0243713D02*
X0130289Y0242721D01*
X0129529Y0241961D01*
X0128537Y0241550D01*
X0127463Y0241550D01*
X0126471Y0241961D01*
X0125711Y0242721D01*
X0125300Y0243713D01*
X0125300Y0244787D01*
X0125711Y0245779D01*
X0126471Y0246539D01*
X0127463Y0246950D01*
X0128300Y0246950D01*
X0128300Y0247787D01*
X0128711Y0248779D01*
X0129471Y0249539D01*
X0130463Y0249950D01*
X0131537Y0249950D01*
X0132529Y0249539D01*
X0133289Y0248779D01*
X0133700Y0247787D01*
X0133700Y0246713D01*
X0133289Y0245721D01*
X0132529Y0244961D01*
X0131537Y0244550D01*
X0130700Y0244550D01*
X0130700Y0243713D01*
X0132603Y0245034D02*
X0222402Y0245034D01*
X0223697Y0246633D02*
X0133667Y0246633D01*
X0133516Y0248231D02*
X0224484Y0248231D01*
X0226172Y0249830D02*
X0162334Y0249830D01*
X0162289Y0249721D02*
X0162700Y0250713D01*
X0162700Y0251787D01*
X0162289Y0252779D01*
X0161529Y0253539D01*
X0160537Y0253950D01*
X0159463Y0253950D01*
X0158471Y0253539D01*
X0157711Y0252779D01*
X0157300Y0251787D01*
X0157300Y0250713D01*
X0157711Y0249721D01*
X0158471Y0248961D01*
X0159463Y0248550D01*
X0160537Y0248550D01*
X0161529Y0248961D01*
X0162289Y0249721D01*
X0162700Y0251428D02*
X0219003Y0251428D01*
X0218300Y0253027D02*
X0162042Y0253027D01*
X0157958Y0253027D02*
X0051601Y0253027D01*
X0051700Y0252787D02*
X0051289Y0253779D01*
X0050529Y0254539D01*
X0049537Y0254950D01*
X0048463Y0254950D01*
X0047471Y0254539D01*
X0046711Y0253779D01*
X0046300Y0252787D01*
X0046300Y0251713D01*
X0046711Y0250721D01*
X0047471Y0249961D01*
X0048463Y0249550D01*
X0049537Y0249550D01*
X0050529Y0249961D01*
X0051289Y0250721D01*
X0051700Y0251713D01*
X0051700Y0252787D01*
X0051582Y0251428D02*
X0061360Y0251428D01*
X0061471Y0251539D02*
X0060711Y0250779D01*
X0060300Y0249787D01*
X0060300Y0248713D01*
X0060711Y0247721D01*
X0061471Y0246961D01*
X0062463Y0246550D01*
X0063537Y0246550D01*
X0064529Y0246961D01*
X0065289Y0247721D01*
X0065700Y0248713D01*
X0065700Y0249787D01*
X0065289Y0250779D01*
X0064529Y0251539D01*
X0063537Y0251950D01*
X0062463Y0251950D01*
X0061471Y0251539D01*
X0060318Y0249830D02*
X0050212Y0249830D01*
X0047788Y0249830D02*
X0040099Y0249830D01*
X0040099Y0250060D02*
X0038714Y0253404D01*
X0036154Y0255964D01*
X0032810Y0257349D01*
X0029190Y0257349D01*
X0025846Y0255964D01*
X0023286Y0253404D01*
X0021901Y0250060D01*
X0021901Y0246440D01*
X0023286Y0243096D01*
X0025846Y0240536D01*
X0029190Y0239151D01*
X0032810Y0239151D01*
X0036154Y0240536D01*
X0038714Y0243096D01*
X0040099Y0246440D01*
X0040099Y0250060D01*
X0039532Y0251428D02*
X0046418Y0251428D01*
X0046399Y0253027D02*
X0038870Y0253027D01*
X0037493Y0254625D02*
X0047679Y0254625D01*
X0050321Y0254625D02*
X0135806Y0254625D01*
X0135711Y0254721D02*
X0136471Y0253961D01*
X0137463Y0253550D01*
X0138537Y0253550D01*
X0139529Y0253961D01*
X0140289Y0254721D01*
X0140700Y0255713D01*
X0140700Y0256787D01*
X0140289Y0257779D01*
X0139529Y0258539D01*
X0138537Y0258950D01*
X0137463Y0258950D01*
X0136471Y0258539D01*
X0135711Y0257779D01*
X0135300Y0256787D01*
X0135300Y0255713D01*
X0135711Y0254721D01*
X0135300Y0256224D02*
X0035527Y0256224D01*
X0026473Y0256224D02*
X0004937Y0256224D01*
X0004937Y0257822D02*
X0135754Y0257822D01*
X0140246Y0257822D02*
X0218315Y0257822D01*
X0218503Y0256224D02*
X0140700Y0256224D01*
X0140194Y0254625D02*
X0218647Y0254625D01*
X0223353Y0254625D02*
X0230647Y0254625D01*
X0230300Y0253027D02*
X0223700Y0253027D01*
X0222997Y0251428D02*
X0231003Y0251428D01*
X0230761Y0249830D02*
X0227828Y0249830D01*
X0229516Y0248231D02*
X0230300Y0248231D01*
X0230799Y0246633D02*
X0229667Y0246633D01*
X0228603Y0245034D02*
X0262063Y0245034D01*
X0262063Y0243436D02*
X0235431Y0243436D01*
X0235700Y0241837D02*
X0262063Y0241837D01*
X0262063Y0240239D02*
X0234807Y0240239D01*
X0235347Y0238640D02*
X0235653Y0238640D01*
X0235989Y0235443D02*
X0235011Y0235443D01*
X0230653Y0238640D02*
X0225708Y0238640D01*
X0226700Y0240239D02*
X0231193Y0240239D01*
X0230300Y0241837D02*
X0226472Y0241837D01*
X0227585Y0243436D02*
X0230569Y0243436D01*
X0235201Y0246633D02*
X0262063Y0246633D01*
X0262063Y0248231D02*
X0235700Y0248231D01*
X0235239Y0249830D02*
X0262063Y0249830D01*
X0262063Y0251428D02*
X0234997Y0251428D01*
X0235700Y0253027D02*
X0262063Y0253027D01*
X0262063Y0254625D02*
X0235353Y0254625D01*
X0234792Y0256224D02*
X0262063Y0256224D01*
X0262063Y0257822D02*
X0235700Y0257822D01*
X0231208Y0256224D02*
X0223497Y0256224D01*
X0223685Y0257822D02*
X0230300Y0257822D01*
X0240347Y0238640D02*
X0240653Y0238640D01*
X0240989Y0235443D02*
X0240011Y0235443D01*
X0239537Y0231950D02*
X0238463Y0231950D01*
X0237471Y0231539D01*
X0236711Y0230779D01*
X0236300Y0229787D01*
X0236300Y0228713D01*
X0236711Y0227721D01*
X0237471Y0226961D01*
X0238463Y0226550D01*
X0239537Y0226550D01*
X0240529Y0226961D01*
X0241289Y0227721D01*
X0241700Y0228713D01*
X0241700Y0229787D01*
X0241289Y0230779D01*
X0240529Y0231539D01*
X0239537Y0231950D01*
X0241344Y0230648D02*
X0246656Y0230648D01*
X0246300Y0229049D02*
X0241700Y0229049D01*
X0241019Y0227451D02*
X0246981Y0227451D01*
X0246327Y0225852D02*
X0226673Y0225852D01*
X0226700Y0225787D02*
X0226289Y0226779D01*
X0225529Y0227539D01*
X0224537Y0227950D01*
X0223463Y0227950D01*
X0222471Y0227539D01*
X0221711Y0226779D01*
X0221300Y0225787D01*
X0221300Y0224713D01*
X0221711Y0223721D01*
X0222471Y0222961D01*
X0223463Y0222550D01*
X0224537Y0222550D01*
X0225529Y0222961D01*
X0226289Y0223721D01*
X0226700Y0224713D01*
X0226700Y0225787D01*
X0226510Y0224253D02*
X0246490Y0224253D01*
X0248209Y0222655D02*
X0224791Y0222655D01*
X0223209Y0222655D02*
X0200340Y0222655D01*
X0200700Y0221056D02*
X0262063Y0221056D01*
X0262063Y0219458D02*
X0200026Y0219458D01*
X0195974Y0219458D02*
X0194420Y0219458D01*
X0193199Y0217859D02*
X0215791Y0217859D01*
X0215711Y0217779D02*
X0215300Y0216787D01*
X0215300Y0215713D01*
X0215711Y0214721D01*
X0216471Y0213961D01*
X0217463Y0213550D01*
X0217497Y0213550D01*
X0217471Y0213539D01*
X0216711Y0212779D01*
X0216300Y0211787D01*
X0216300Y0210713D01*
X0216711Y0209721D01*
X0217471Y0208961D01*
X0218463Y0208550D01*
X0219537Y0208550D01*
X0220529Y0208961D01*
X0221289Y0209721D01*
X0221700Y0210713D01*
X0221700Y0211787D01*
X0221289Y0212779D01*
X0220529Y0213539D01*
X0219537Y0213950D01*
X0219503Y0213950D01*
X0219529Y0213961D01*
X0220289Y0214721D01*
X0220700Y0215713D01*
X0220700Y0216787D01*
X0220289Y0217779D01*
X0219529Y0218539D01*
X0218537Y0218950D01*
X0217463Y0218950D01*
X0216471Y0218539D01*
X0215711Y0217779D01*
X0215300Y0216261D02*
X0195202Y0216261D01*
X0195935Y0214662D02*
X0215769Y0214662D01*
X0216996Y0213064D02*
X0196100Y0213064D01*
X0195781Y0211465D02*
X0216300Y0211465D01*
X0216650Y0209867D02*
X0194829Y0209867D01*
X0192300Y0208268D02*
X0262063Y0208268D01*
X0262063Y0206670D02*
X0194793Y0206670D01*
X0195766Y0205071D02*
X0262063Y0205071D01*
X0262063Y0209867D02*
X0251350Y0209867D01*
X0251289Y0209721D02*
X0251700Y0210713D01*
X0251700Y0211787D01*
X0251289Y0212779D01*
X0250529Y0213539D01*
X0249537Y0213950D01*
X0248463Y0213950D01*
X0247471Y0213539D01*
X0246711Y0212779D01*
X0246300Y0211787D01*
X0246300Y0210713D01*
X0246711Y0209721D01*
X0247471Y0208961D01*
X0248463Y0208550D01*
X0249537Y0208550D01*
X0250529Y0208961D01*
X0251289Y0209721D01*
X0251700Y0211465D02*
X0262063Y0211465D01*
X0262063Y0213064D02*
X0251004Y0213064D01*
X0248289Y0214721D02*
X0248700Y0215713D01*
X0248700Y0216787D01*
X0248289Y0217779D01*
X0247529Y0218539D01*
X0246537Y0218950D01*
X0245463Y0218950D01*
X0244471Y0218539D01*
X0243711Y0217779D01*
X0243300Y0216787D01*
X0243300Y0215713D01*
X0243711Y0214721D01*
X0244471Y0213961D01*
X0245463Y0213550D01*
X0246537Y0213550D01*
X0247529Y0213961D01*
X0248289Y0214721D01*
X0248231Y0214662D02*
X0262063Y0214662D01*
X0262063Y0216261D02*
X0248700Y0216261D01*
X0248209Y0217859D02*
X0262063Y0217859D01*
X0262063Y0222655D02*
X0249791Y0222655D01*
X0251510Y0224253D02*
X0262063Y0224253D01*
X0262063Y0225852D02*
X0251673Y0225852D01*
X0251019Y0227451D02*
X0262063Y0227451D01*
X0262063Y0229049D02*
X0251700Y0229049D01*
X0251344Y0230648D02*
X0262063Y0230648D01*
X0262063Y0232246D02*
X0251507Y0232246D01*
X0251676Y0233845D02*
X0262063Y0233845D01*
X0262063Y0235443D02*
X0250625Y0235443D01*
X0250700Y0237042D02*
X0262063Y0237042D01*
X0262063Y0238640D02*
X0250347Y0238640D01*
X0245653Y0238640D02*
X0245347Y0238640D01*
X0245011Y0235443D02*
X0245989Y0235443D01*
X0236656Y0230648D02*
X0177673Y0230648D01*
X0176617Y0229049D02*
X0236300Y0229049D01*
X0236981Y0227451D02*
X0225618Y0227451D01*
X0222382Y0227451D02*
X0194012Y0227451D01*
X0195442Y0225852D02*
X0221327Y0225852D01*
X0221490Y0224253D02*
X0196100Y0224253D01*
X0188801Y0217859D02*
X0177670Y0217859D01*
X0177513Y0216261D02*
X0186798Y0216261D01*
X0186219Y0211465D02*
X0172419Y0211465D01*
X0172289Y0211779D02*
X0171529Y0212539D01*
X0170537Y0212950D01*
X0169463Y0212950D01*
X0168471Y0212539D01*
X0167711Y0211779D01*
X0167300Y0210787D01*
X0167300Y0209713D01*
X0167711Y0208721D01*
X0168471Y0207961D01*
X0169463Y0207550D01*
X0170537Y0207550D01*
X0171529Y0207961D01*
X0172289Y0208721D01*
X0172700Y0209713D01*
X0172700Y0210787D01*
X0172289Y0211779D01*
X0172700Y0209867D02*
X0187171Y0209867D01*
X0189700Y0208268D02*
X0171837Y0208268D01*
X0168163Y0208268D02*
X0162942Y0208268D01*
X0163400Y0209867D02*
X0167300Y0209867D01*
X0167581Y0211465D02*
X0163259Y0211465D01*
X0160487Y0216261D02*
X0142513Y0216261D01*
X0142670Y0217859D02*
X0160330Y0217859D01*
X0161390Y0219458D02*
X0141610Y0219458D01*
X0138390Y0219458D02*
X0132610Y0219458D01*
X0133670Y0217859D02*
X0137330Y0217859D01*
X0137487Y0216261D02*
X0133513Y0216261D01*
X0131808Y0214662D02*
X0139192Y0214662D01*
X0152409Y0213064D02*
X0155591Y0213064D01*
X0154741Y0211465D02*
X0153259Y0211465D01*
X0153400Y0209867D02*
X0154600Y0209867D01*
X0155058Y0208268D02*
X0152942Y0208268D01*
X0151642Y0206670D02*
X0156358Y0206670D01*
X0155435Y0203473D02*
X0152000Y0203473D01*
X0153090Y0201874D02*
X0154481Y0201874D01*
X0153400Y0200276D02*
X0158800Y0200276D01*
X0159200Y0200276D02*
X0186762Y0200276D01*
X0186050Y0201874D02*
X0163519Y0201874D01*
X0162565Y0203473D02*
X0185900Y0203473D01*
X0186234Y0205071D02*
X0125401Y0205071D01*
X0120552Y0205071D02*
X0114140Y0205071D01*
X0115182Y0206670D02*
X0120276Y0206670D01*
X0121153Y0208268D02*
X0115001Y0208268D01*
X0109999Y0208268D02*
X0097501Y0208268D01*
X0097682Y0206670D02*
X0109818Y0206670D01*
X0110860Y0205071D02*
X0096640Y0205071D01*
X0093360Y0205071D02*
X0052997Y0205071D01*
X0051826Y0206670D02*
X0092318Y0206670D01*
X0092499Y0208268D02*
X0053516Y0208268D01*
X0050174Y0206670D02*
X0049700Y0206670D01*
X0048333Y0209867D02*
X0029829Y0209867D01*
X0024700Y0208268D02*
X0004937Y0208268D01*
X0004937Y0206670D02*
X0022207Y0206670D01*
X0021234Y0205071D02*
X0004937Y0205071D01*
X0004937Y0203473D02*
X0020900Y0203473D01*
X0021050Y0201874D02*
X0004937Y0201874D01*
X0004937Y0200276D02*
X0021762Y0200276D01*
X0023712Y0198677D02*
X0004937Y0198677D01*
X0004937Y0197079D02*
X0022616Y0197079D01*
X0021404Y0195480D02*
X0004937Y0195480D01*
X0004937Y0193882D02*
X0020900Y0193882D01*
X0020900Y0192283D02*
X0004937Y0192283D01*
X0004937Y0190685D02*
X0021542Y0190685D01*
X0022951Y0189086D02*
X0004937Y0189086D01*
X0004937Y0187488D02*
X0023025Y0187488D01*
X0021573Y0185889D02*
X0004937Y0185889D01*
X0004937Y0184291D02*
X0020911Y0184291D01*
X0020900Y0182692D02*
X0004937Y0182692D01*
X0004937Y0181094D02*
X0021373Y0181094D01*
X0022542Y0179495D02*
X0004937Y0179495D01*
X0004937Y0177897D02*
X0023891Y0177897D01*
X0021836Y0176298D02*
X0004937Y0176298D01*
X0004937Y0174700D02*
X0021080Y0174700D01*
X0020900Y0173101D02*
X0004937Y0173101D01*
X0004937Y0171503D02*
X0021204Y0171503D01*
X0022133Y0169904D02*
X0011164Y0169904D01*
X0011289Y0169779D02*
X0010529Y0170539D01*
X0009537Y0170950D01*
X0008463Y0170950D01*
X0007471Y0170539D01*
X0006711Y0169779D01*
X0006300Y0168787D01*
X0006300Y0167713D01*
X0006711Y0166721D01*
X0007471Y0165961D01*
X0008463Y0165550D01*
X0009537Y0165550D01*
X0010529Y0165961D01*
X0011289Y0166721D01*
X0011700Y0167713D01*
X0011700Y0168787D01*
X0011289Y0169779D01*
X0011700Y0168306D02*
X0024610Y0168306D01*
X0027390Y0168306D02*
X0031237Y0168306D01*
X0030300Y0166707D02*
X0029755Y0166707D01*
X0029867Y0169904D02*
X0049348Y0169904D01*
X0049300Y0169787D02*
X0049300Y0168713D01*
X0049711Y0167721D01*
X0050471Y0166961D01*
X0051463Y0166550D01*
X0052537Y0166550D01*
X0053529Y0166961D01*
X0054289Y0167721D01*
X0054700Y0168713D01*
X0054700Y0169787D01*
X0054289Y0170779D01*
X0053529Y0171539D01*
X0052537Y0171950D01*
X0051463Y0171950D01*
X0051368Y0171910D01*
X0051700Y0172713D01*
X0051700Y0173787D01*
X0051289Y0174779D01*
X0050529Y0175539D01*
X0049537Y0175950D01*
X0048463Y0175950D01*
X0047471Y0175539D01*
X0046711Y0174779D01*
X0046300Y0173787D01*
X0046300Y0172713D01*
X0046711Y0171721D01*
X0047471Y0170961D01*
X0048463Y0170550D01*
X0049537Y0170550D01*
X0049632Y0170589D01*
X0049300Y0169787D01*
X0049469Y0168306D02*
X0034763Y0168306D01*
X0035700Y0166707D02*
X0051084Y0166707D01*
X0052916Y0166707D02*
X0118302Y0166707D01*
X0118515Y0168306D02*
X0109874Y0168306D01*
X0110700Y0169904D02*
X0120352Y0169904D01*
X0123698Y0166707D02*
X0187245Y0166707D01*
X0186250Y0165109D02*
X0122677Y0165109D01*
X0119323Y0165109D02*
X0035450Y0165109D01*
X0031100Y0163510D02*
X0140599Y0163510D01*
X0140711Y0163779D02*
X0140300Y0162787D01*
X0140300Y0161713D01*
X0140711Y0160721D01*
X0141471Y0159961D01*
X0142463Y0159550D01*
X0143537Y0159550D01*
X0144529Y0159961D01*
X0145289Y0160721D01*
X0145700Y0161713D01*
X0145700Y0162787D01*
X0145289Y0163779D01*
X0144529Y0164539D01*
X0143537Y0164950D01*
X0142463Y0164950D01*
X0141471Y0164539D01*
X0140711Y0163779D01*
X0140300Y0161912D02*
X0087630Y0161912D01*
X0087537Y0161950D02*
X0086463Y0161950D01*
X0085471Y0161539D01*
X0084711Y0160779D01*
X0084300Y0159787D01*
X0084300Y0158713D01*
X0084711Y0157721D01*
X0085471Y0156961D01*
X0086463Y0156550D01*
X0087537Y0156550D01*
X0088529Y0156961D01*
X0089289Y0157721D01*
X0089700Y0158713D01*
X0089700Y0159787D01*
X0089289Y0160779D01*
X0088529Y0161539D01*
X0087537Y0161950D01*
X0086370Y0161912D02*
X0076630Y0161912D01*
X0076537Y0161950D02*
X0075463Y0161950D01*
X0074471Y0161539D01*
X0073711Y0160779D01*
X0073300Y0159787D01*
X0073300Y0158713D01*
X0073711Y0157721D01*
X0074471Y0156961D01*
X0075463Y0156550D01*
X0076537Y0156550D01*
X0077529Y0156961D01*
X0078289Y0157721D01*
X0078700Y0158713D01*
X0078700Y0159787D01*
X0078289Y0160779D01*
X0077529Y0161539D01*
X0076537Y0161950D01*
X0075370Y0161912D02*
X0069630Y0161912D01*
X0069537Y0161950D02*
X0068463Y0161950D01*
X0067471Y0161539D01*
X0066711Y0160779D01*
X0066300Y0159787D01*
X0066300Y0158713D01*
X0066711Y0157721D01*
X0067471Y0156961D01*
X0068463Y0156550D01*
X0069537Y0156550D01*
X0070529Y0156961D01*
X0071289Y0157721D01*
X0071700Y0158713D01*
X0071700Y0159787D01*
X0071289Y0160779D01*
X0070529Y0161539D01*
X0069537Y0161950D01*
X0068370Y0161912D02*
X0061630Y0161912D01*
X0061537Y0161950D02*
X0060463Y0161950D01*
X0059471Y0161539D01*
X0058711Y0160779D01*
X0058300Y0159787D01*
X0058300Y0158713D01*
X0058711Y0157721D01*
X0059471Y0156961D01*
X0060463Y0156550D01*
X0061537Y0156550D01*
X0062529Y0156961D01*
X0063289Y0157721D01*
X0063700Y0158713D01*
X0063700Y0159787D01*
X0063289Y0160779D01*
X0062529Y0161539D01*
X0061537Y0161950D01*
X0060370Y0161912D02*
X0030966Y0161912D01*
X0030276Y0160313D02*
X0040245Y0160313D01*
X0040471Y0160539D02*
X0039711Y0159779D01*
X0039300Y0158787D01*
X0039300Y0157713D01*
X0039711Y0156721D01*
X0040471Y0155961D01*
X0041463Y0155550D01*
X0042537Y0155550D01*
X0043529Y0155961D01*
X0044289Y0156721D01*
X0044700Y0157713D01*
X0044700Y0158787D01*
X0044289Y0159779D01*
X0043529Y0160539D01*
X0042537Y0160950D01*
X0041463Y0160950D01*
X0040471Y0160539D01*
X0039300Y0158715D02*
X0028377Y0158715D01*
X0029346Y0157116D02*
X0039547Y0157116D01*
X0043755Y0160313D02*
X0047245Y0160313D01*
X0047471Y0160539D02*
X0046711Y0159779D01*
X0046300Y0158787D01*
X0046300Y0157713D01*
X0046711Y0156721D01*
X0047471Y0155961D01*
X0048463Y0155550D01*
X0049537Y0155550D01*
X0050529Y0155961D01*
X0051289Y0156721D01*
X0051700Y0157713D01*
X0051700Y0158787D01*
X0051289Y0159779D01*
X0050529Y0160539D01*
X0049537Y0160950D01*
X0048463Y0160950D01*
X0047471Y0160539D01*
X0046300Y0158715D02*
X0044700Y0158715D01*
X0044453Y0157116D02*
X0046547Y0157116D01*
X0049711Y0154779D02*
X0049300Y0153787D01*
X0049300Y0152713D01*
X0049711Y0151721D01*
X0050471Y0150961D01*
X0051463Y0150550D01*
X0052537Y0150550D01*
X0052632Y0150589D01*
X0052300Y0149787D01*
X0052300Y0148713D01*
X0052711Y0147721D01*
X0053471Y0146961D01*
X0054463Y0146550D01*
X0055537Y0146550D01*
X0056529Y0146961D01*
X0057289Y0147721D01*
X0057700Y0148713D01*
X0057700Y0149787D01*
X0057289Y0150779D01*
X0056529Y0151539D01*
X0055537Y0151950D01*
X0054463Y0151950D01*
X0054368Y0151910D01*
X0054700Y0152713D01*
X0054700Y0153787D01*
X0054289Y0154779D01*
X0053529Y0155539D01*
X0052537Y0155950D01*
X0051463Y0155950D01*
X0050471Y0155539D01*
X0049711Y0154779D01*
X0049355Y0153919D02*
X0031100Y0153919D01*
X0031100Y0152320D02*
X0049463Y0152320D01*
X0051048Y0150722D02*
X0030473Y0150722D01*
X0029086Y0149123D02*
X0052300Y0149123D01*
X0052907Y0147525D02*
X0028938Y0147525D01*
X0030412Y0145926D02*
X0072358Y0145926D01*
X0072300Y0145787D02*
X0072300Y0144713D01*
X0072711Y0143721D01*
X0073471Y0142961D01*
X0074463Y0142550D01*
X0075537Y0142550D01*
X0076529Y0142961D01*
X0077289Y0143721D01*
X0077700Y0144713D01*
X0077700Y0145550D01*
X0078537Y0145550D01*
X0079529Y0145961D01*
X0080289Y0146721D01*
X0080700Y0147713D01*
X0080700Y0148787D01*
X0080289Y0149779D01*
X0079529Y0150539D01*
X0078537Y0150950D01*
X0077463Y0150950D01*
X0076471Y0150539D01*
X0075711Y0149779D01*
X0075300Y0148787D01*
X0075300Y0147950D01*
X0074463Y0147950D01*
X0073471Y0147539D01*
X0072711Y0146779D01*
X0072300Y0145787D01*
X0072459Y0144328D02*
X0031074Y0144328D01*
X0031100Y0142729D02*
X0068690Y0142729D01*
X0068711Y0142779D02*
X0068300Y0141787D01*
X0068300Y0140713D01*
X0068711Y0139721D01*
X0069471Y0138961D01*
X0070463Y0138550D01*
X0071537Y0138550D01*
X0072529Y0138961D01*
X0073289Y0139721D01*
X0073700Y0140713D01*
X0073700Y0141787D01*
X0073289Y0142779D01*
X0072529Y0143539D01*
X0071537Y0143950D01*
X0070463Y0143950D01*
X0069471Y0143539D01*
X0068711Y0142779D01*
X0068300Y0141131D02*
X0030642Y0141131D01*
X0029495Y0139532D02*
X0049964Y0139532D01*
X0049711Y0139279D02*
X0050471Y0140039D01*
X0051463Y0140450D01*
X0052537Y0140450D01*
X0053529Y0140039D01*
X0054289Y0139279D01*
X0054700Y0138287D01*
X0054700Y0137213D01*
X0054289Y0136221D01*
X0053529Y0135461D01*
X0052537Y0135050D01*
X0051463Y0135050D01*
X0050471Y0135461D01*
X0049711Y0136221D01*
X0049300Y0137213D01*
X0049300Y0138287D01*
X0049711Y0139279D01*
X0049300Y0137934D02*
X0028019Y0137934D01*
X0030127Y0136335D02*
X0049663Y0136335D01*
X0054336Y0136335D02*
X0056267Y0136335D01*
X0054700Y0137934D02*
X0098866Y0137934D01*
X0098711Y0137779D02*
X0098300Y0136787D01*
X0098300Y0135713D01*
X0098711Y0134721D01*
X0099471Y0133961D01*
X0100463Y0133550D01*
X0101537Y0133550D01*
X0102529Y0133961D01*
X0103289Y0134721D01*
X0103700Y0135713D01*
X0103700Y0136787D01*
X0103289Y0137779D01*
X0102529Y0138539D01*
X0101537Y0138950D01*
X0100463Y0138950D01*
X0099471Y0138539D01*
X0098711Y0137779D01*
X0098300Y0136335D02*
X0090733Y0136335D01*
X0090529Y0136539D02*
X0089537Y0136950D01*
X0088463Y0136950D01*
X0087471Y0136539D01*
X0086711Y0135779D01*
X0086300Y0134787D01*
X0086300Y0133713D01*
X0086711Y0132721D01*
X0087471Y0131961D01*
X0088463Y0131550D01*
X0089537Y0131550D01*
X0090529Y0131961D01*
X0091289Y0132721D01*
X0091700Y0133713D01*
X0091700Y0134787D01*
X0091289Y0135779D01*
X0090529Y0136539D01*
X0091700Y0134737D02*
X0098704Y0134737D01*
X0103296Y0134737D02*
X0114486Y0134737D01*
X0114331Y0133138D02*
X0091462Y0133138D01*
X0086538Y0133138D02*
X0060462Y0133138D01*
X0060700Y0134737D02*
X0086300Y0134737D01*
X0087267Y0136335D02*
X0059733Y0136335D01*
X0054036Y0139532D02*
X0068899Y0139532D01*
X0073101Y0139532D02*
X0126300Y0139532D01*
X0126623Y0137934D02*
X0103134Y0137934D01*
X0103700Y0136335D02*
X0116186Y0136335D01*
X0117814Y0136335D02*
X0159096Y0136335D01*
X0163391Y0139532D02*
X0178899Y0139532D01*
X0186588Y0145926D02*
X0092142Y0145926D01*
X0092289Y0145779D02*
X0091529Y0146539D01*
X0090537Y0146950D01*
X0089463Y0146950D01*
X0088471Y0146539D01*
X0087711Y0145779D01*
X0087300Y0144787D01*
X0087300Y0143713D01*
X0087711Y0142721D01*
X0088471Y0141961D01*
X0089463Y0141550D01*
X0090537Y0141550D01*
X0091300Y0141866D01*
X0091300Y0141713D01*
X0091711Y0140721D01*
X0092471Y0139961D01*
X0093463Y0139550D01*
X0094537Y0139550D01*
X0095529Y0139961D01*
X0096289Y0140721D01*
X0096700Y0141713D01*
X0096700Y0142787D01*
X0096289Y0143779D01*
X0095529Y0144539D01*
X0094537Y0144950D01*
X0093463Y0144950D01*
X0092700Y0144634D01*
X0092700Y0144787D01*
X0092289Y0145779D01*
X0095740Y0144328D02*
X0123260Y0144328D01*
X0122300Y0142729D02*
X0096700Y0142729D01*
X0096459Y0141131D02*
X0122541Y0141131D01*
X0126740Y0144328D02*
X0132260Y0144328D01*
X0131300Y0142729D02*
X0127700Y0142729D01*
X0131518Y0129941D02*
X0054380Y0129941D01*
X0057303Y0126744D02*
X0117697Y0126744D01*
X0117711Y0126779D02*
X0117300Y0125787D01*
X0117300Y0124713D01*
X0117711Y0123721D01*
X0118471Y0122961D01*
X0119463Y0122550D01*
X0120537Y0122550D01*
X0121529Y0122961D01*
X0122289Y0123721D01*
X0122700Y0124713D01*
X0122700Y0125787D01*
X0122289Y0126779D01*
X0121529Y0127539D01*
X0120537Y0127950D01*
X0119463Y0127950D01*
X0118471Y0127539D01*
X0117711Y0126779D01*
X0117300Y0125146D02*
X0057700Y0125146D01*
X0057116Y0123547D02*
X0091491Y0123547D01*
X0094509Y0123547D02*
X0096491Y0123547D01*
X0099509Y0123547D02*
X0103491Y0123547D01*
X0102367Y0121949D02*
X0100633Y0121949D01*
X0100550Y0120350D02*
X0102450Y0120350D01*
X0106509Y0123547D02*
X0117884Y0123547D01*
X0122116Y0123547D02*
X0141884Y0123547D01*
X0141300Y0125146D02*
X0122700Y0125146D01*
X0122303Y0126744D02*
X0141697Y0126744D01*
X0146303Y0126744D02*
X0167701Y0126744D01*
X0167300Y0128343D02*
X0027480Y0128343D01*
X0024520Y0128343D02*
X0004937Y0128343D01*
X0004937Y0129941D02*
X0008518Y0129941D01*
X0008471Y0129961D02*
X0009463Y0129550D01*
X0010537Y0129550D01*
X0011529Y0129961D01*
X0012289Y0130721D01*
X0012700Y0131713D01*
X0012700Y0132787D01*
X0012289Y0133779D01*
X0011529Y0134539D01*
X0010537Y0134950D01*
X0009463Y0134950D01*
X0008471Y0134539D01*
X0007711Y0133779D01*
X0007300Y0132787D01*
X0007300Y0131713D01*
X0007711Y0130721D01*
X0008471Y0129961D01*
X0007372Y0131540D02*
X0004937Y0131540D01*
X0004937Y0133138D02*
X0007446Y0133138D01*
X0008948Y0134737D02*
X0004937Y0134737D01*
X0004937Y0136335D02*
X0021873Y0136335D01*
X0021096Y0134737D02*
X0011052Y0134737D01*
X0012554Y0133138D02*
X0020900Y0133138D01*
X0021188Y0131540D02*
X0012628Y0131540D01*
X0011482Y0129941D02*
X0022096Y0129941D01*
X0022282Y0126744D02*
X0004937Y0126744D01*
X0004937Y0125146D02*
X0021265Y0125146D01*
X0020900Y0123547D02*
X0004937Y0123547D01*
X0004937Y0121949D02*
X0021019Y0121949D01*
X0021687Y0120350D02*
X0004937Y0120350D01*
X0004937Y0118752D02*
X0023533Y0118752D01*
X0022691Y0117153D02*
X0004937Y0117153D01*
X0004937Y0115555D02*
X0021434Y0115555D01*
X0020900Y0113956D02*
X0004937Y0113956D01*
X0004937Y0112358D02*
X0020900Y0112358D01*
X0021512Y0110759D02*
X0004937Y0110759D01*
X0004937Y0109161D02*
X0022877Y0109161D01*
X0023039Y0104365D02*
X0019556Y0104365D01*
X0018060Y0102767D02*
X0022800Y0102767D01*
X0023763Y0101168D02*
X0004937Y0101168D01*
X0004937Y0099570D02*
X0076300Y0099570D01*
X0077100Y0101168D02*
X0027236Y0101168D01*
X0015940Y0102767D02*
X0004937Y0102767D01*
X0004937Y0104365D02*
X0014444Y0104365D01*
X0014373Y0105964D02*
X0004937Y0105964D01*
X0004937Y0107562D02*
X0015527Y0107562D01*
X0004937Y0094774D02*
X0086709Y0094774D01*
X0086300Y0093176D02*
X0042893Y0093176D01*
X0042529Y0093539D02*
X0041537Y0093950D01*
X0040463Y0093950D01*
X0039471Y0093539D01*
X0038711Y0092779D01*
X0038300Y0091787D01*
X0038300Y0090713D01*
X0038711Y0089721D01*
X0039471Y0088961D01*
X0040463Y0088550D01*
X0041537Y0088550D01*
X0042529Y0088961D01*
X0043289Y0089721D01*
X0043700Y0090713D01*
X0043700Y0091787D01*
X0043289Y0092779D01*
X0042529Y0093539D01*
X0043700Y0091577D02*
X0086855Y0091577D01*
X0091145Y0091577D02*
X0143563Y0091577D01*
X0142379Y0089979D02*
X0043396Y0089979D01*
X0039107Y0093176D02*
X0004937Y0093176D01*
X0004937Y0091577D02*
X0038300Y0091577D01*
X0038604Y0089979D02*
X0004937Y0089979D01*
X0004937Y0088380D02*
X0116792Y0088380D01*
X0115549Y0086782D02*
X0004937Y0086782D01*
X0004937Y0085183D02*
X0115225Y0085183D01*
X0115604Y0083584D02*
X0090419Y0083584D01*
X0090529Y0083539D02*
X0089537Y0083950D01*
X0088463Y0083950D01*
X0087471Y0083539D01*
X0086711Y0082779D01*
X0086300Y0081787D01*
X0086300Y0080713D01*
X0086711Y0079721D01*
X0087471Y0078961D01*
X0088463Y0078550D01*
X0089537Y0078550D01*
X0090529Y0078961D01*
X0091289Y0079721D01*
X0091700Y0080713D01*
X0091700Y0081787D01*
X0091289Y0082779D01*
X0090529Y0083539D01*
X0091618Y0081986D02*
X0117016Y0081986D01*
X0120984Y0081986D02*
X0124016Y0081986D01*
X0122604Y0083584D02*
X0122396Y0083584D01*
X0122451Y0086782D02*
X0122549Y0086782D01*
X0123792Y0088380D02*
X0121208Y0088380D01*
X0128208Y0088380D02*
X0142438Y0088380D01*
X0143904Y0086782D02*
X0129451Y0086782D01*
X0133958Y0110759D02*
X0101297Y0110759D01*
X0088869Y0107562D02*
X0080094Y0107562D01*
X0081208Y0109161D02*
X0088300Y0109161D01*
X0088703Y0110759D02*
X0081381Y0110759D01*
X0080674Y0112358D02*
X0132447Y0112358D01*
X0136491Y0115555D02*
X0160366Y0115555D01*
X0160452Y0117153D02*
X0129700Y0117153D01*
X0128817Y0118752D02*
X0161984Y0118752D01*
X0161482Y0113956D02*
X0137630Y0113956D01*
X0167700Y0086782D02*
X0197820Y0086782D01*
X0195065Y0085183D02*
X0166751Y0085183D01*
X0182711Y0078779D02*
X0182300Y0077787D01*
X0182300Y0076713D01*
X0182711Y0075721D01*
X0183471Y0074961D01*
X0184463Y0074550D01*
X0185537Y0074550D01*
X0186529Y0074961D01*
X0187289Y0075721D01*
X0187700Y0076713D01*
X0187700Y0077787D01*
X0187289Y0078779D01*
X0186529Y0079539D01*
X0185537Y0079950D01*
X0184463Y0079950D01*
X0183471Y0079539D01*
X0182711Y0078779D01*
X0182721Y0078789D02*
X0090114Y0078789D01*
X0091565Y0080387D02*
X0192036Y0080387D01*
X0191901Y0078789D02*
X0187279Y0078789D01*
X0187700Y0077190D02*
X0191901Y0077190D01*
X0192252Y0075592D02*
X0187160Y0075592D01*
X0182840Y0075592D02*
X0004937Y0075592D01*
X0004937Y0077190D02*
X0182300Y0077190D01*
X0192914Y0073993D02*
X0004937Y0073993D01*
X0004937Y0072395D02*
X0193987Y0072395D01*
X0195585Y0070796D02*
X0004937Y0070796D01*
X0004937Y0069198D02*
X0199076Y0069198D01*
X0186746Y0061205D02*
X0184269Y0061205D01*
X0184775Y0059607D02*
X0186241Y0059607D01*
X0186438Y0058008D02*
X0184578Y0058008D01*
X0183514Y0056410D02*
X0187502Y0056410D01*
X0209227Y0022841D02*
X0214322Y0022841D01*
X0214495Y0021243D02*
X0209700Y0021243D01*
X0087886Y0078789D02*
X0004937Y0078789D01*
X0004937Y0080387D02*
X0086435Y0080387D01*
X0086382Y0081986D02*
X0004937Y0081986D01*
X0004937Y0083584D02*
X0087581Y0083584D01*
X0091541Y0141131D02*
X0073700Y0141131D01*
X0074030Y0142729D02*
X0073310Y0142729D01*
X0075970Y0142729D02*
X0087707Y0142729D01*
X0087300Y0144328D02*
X0077541Y0144328D01*
X0079446Y0145926D02*
X0087858Y0145926D01*
X0085529Y0149961D02*
X0086289Y0150721D01*
X0086700Y0151713D01*
X0086700Y0152787D01*
X0086289Y0153779D01*
X0085529Y0154539D01*
X0084537Y0154950D01*
X0083463Y0154950D01*
X0082471Y0154539D01*
X0081711Y0153779D01*
X0081300Y0152787D01*
X0081300Y0151713D01*
X0081711Y0150721D01*
X0082471Y0149961D01*
X0083463Y0149550D01*
X0084537Y0149550D01*
X0085529Y0149961D01*
X0086290Y0150722D02*
X0180710Y0150722D01*
X0180711Y0150721D02*
X0181471Y0149961D01*
X0182463Y0149550D01*
X0183537Y0149550D01*
X0184529Y0149961D01*
X0185289Y0150721D01*
X0185700Y0151713D01*
X0185700Y0152787D01*
X0185289Y0153779D01*
X0184529Y0154539D01*
X0183537Y0154950D01*
X0182463Y0154950D01*
X0181471Y0154539D01*
X0180711Y0153779D01*
X0180300Y0152787D01*
X0180300Y0151713D01*
X0180711Y0150721D01*
X0180300Y0152320D02*
X0091889Y0152320D01*
X0091529Y0151961D02*
X0092289Y0152721D01*
X0092632Y0153550D01*
X0093537Y0153550D01*
X0094529Y0153961D01*
X0095289Y0154721D01*
X0095700Y0155713D01*
X0095700Y0156787D01*
X0095289Y0157779D01*
X0094529Y0158539D01*
X0093537Y0158950D01*
X0092463Y0158950D01*
X0091471Y0158539D01*
X0090711Y0157779D01*
X0090367Y0156950D01*
X0089463Y0156950D01*
X0088471Y0156539D01*
X0087711Y0155779D01*
X0087300Y0154787D01*
X0087300Y0153713D01*
X0087711Y0152721D01*
X0088471Y0151961D01*
X0089463Y0151550D01*
X0090537Y0151550D01*
X0091529Y0151961D01*
X0088111Y0152320D02*
X0086700Y0152320D01*
X0086149Y0153919D02*
X0087300Y0153919D01*
X0087603Y0155518D02*
X0053551Y0155518D01*
X0054645Y0153919D02*
X0081851Y0153919D01*
X0081300Y0152320D02*
X0054537Y0152320D01*
X0057313Y0150722D02*
X0076912Y0150722D01*
X0075439Y0149123D02*
X0057700Y0149123D01*
X0057093Y0147525D02*
X0073457Y0147525D01*
X0079088Y0150722D02*
X0081710Y0150722D01*
X0080561Y0149123D02*
X0187914Y0149123D01*
X0188062Y0147525D02*
X0080622Y0147525D01*
X0077684Y0157116D02*
X0085316Y0157116D01*
X0084300Y0158715D02*
X0078700Y0158715D01*
X0078482Y0160313D02*
X0084518Y0160313D01*
X0088684Y0157116D02*
X0090436Y0157116D01*
X0089700Y0158715D02*
X0091894Y0158715D01*
X0094106Y0158715D02*
X0102300Y0158715D01*
X0102300Y0158787D02*
X0102300Y0157713D01*
X0102711Y0156721D01*
X0103471Y0155961D01*
X0104463Y0155550D01*
X0105537Y0155550D01*
X0106529Y0155961D01*
X0107289Y0156721D01*
X0107700Y0157713D01*
X0107700Y0158787D01*
X0107289Y0159779D01*
X0106529Y0160539D01*
X0105537Y0160950D01*
X0104463Y0160950D01*
X0103471Y0160539D01*
X0102711Y0159779D01*
X0102300Y0158787D01*
X0102547Y0157116D02*
X0095564Y0157116D01*
X0095619Y0155518D02*
X0186419Y0155518D01*
X0185900Y0153919D02*
X0185149Y0153919D01*
X0185700Y0152320D02*
X0185900Y0152320D01*
X0185290Y0150722D02*
X0186527Y0150722D01*
X0187654Y0157116D02*
X0107453Y0157116D01*
X0107700Y0158715D02*
X0151066Y0158715D01*
X0151463Y0158550D02*
X0152537Y0158550D01*
X0153529Y0158961D01*
X0154289Y0159721D01*
X0154700Y0160713D01*
X0154700Y0161787D01*
X0154289Y0162779D01*
X0153529Y0163539D01*
X0152537Y0163950D01*
X0151463Y0163950D01*
X0150471Y0163539D01*
X0149711Y0162779D01*
X0149300Y0161787D01*
X0149300Y0160713D01*
X0149711Y0159721D01*
X0150471Y0158961D01*
X0151463Y0158550D01*
X0152934Y0158715D02*
X0168066Y0158715D01*
X0168463Y0158550D02*
X0169537Y0158550D01*
X0170529Y0158961D01*
X0171289Y0159721D01*
X0171700Y0160713D01*
X0171700Y0161787D01*
X0171289Y0162779D01*
X0170529Y0163539D01*
X0169537Y0163950D01*
X0168463Y0163950D01*
X0167471Y0163539D01*
X0166711Y0162779D01*
X0166300Y0161787D01*
X0166300Y0160713D01*
X0166711Y0159721D01*
X0167471Y0158961D01*
X0168463Y0158550D01*
X0169934Y0158715D02*
X0188623Y0158715D01*
X0186724Y0160313D02*
X0171534Y0160313D01*
X0171648Y0161912D02*
X0186034Y0161912D01*
X0185900Y0163510D02*
X0170558Y0163510D01*
X0167442Y0163510D02*
X0153558Y0163510D01*
X0154648Y0161912D02*
X0166352Y0161912D01*
X0166466Y0160313D02*
X0154534Y0160313D01*
X0150442Y0163510D02*
X0145401Y0163510D01*
X0145700Y0161912D02*
X0149352Y0161912D01*
X0149466Y0160313D02*
X0144881Y0160313D01*
X0141119Y0160313D02*
X0106755Y0160313D01*
X0103245Y0160313D02*
X0089482Y0160313D01*
X0094428Y0153919D02*
X0180851Y0153919D01*
X0195276Y0160313D02*
X0239000Y0160313D01*
X0201681Y0166707D02*
X0194755Y0166707D01*
X0195750Y0165109D02*
X0201300Y0165109D01*
X0195821Y0185889D02*
X0195427Y0185889D01*
X0185900Y0193882D02*
X0157687Y0193882D01*
X0158800Y0197079D02*
X0159200Y0197079D01*
X0159200Y0198677D02*
X0158800Y0198677D01*
X0158800Y0201874D02*
X0159200Y0201874D01*
X0159200Y0203473D02*
X0158800Y0203473D01*
X0161642Y0206670D02*
X0187207Y0206670D01*
X0155383Y0197079D02*
X0152051Y0197079D01*
X0153111Y0198677D02*
X0154464Y0198677D01*
X0153519Y0190685D02*
X0141328Y0190685D01*
X0142051Y0197079D02*
X0145949Y0197079D01*
X0144889Y0198677D02*
X0143111Y0198677D01*
X0143400Y0200276D02*
X0144600Y0200276D01*
X0144910Y0201874D02*
X0143090Y0201874D01*
X0122300Y0193882D02*
X0081338Y0193882D01*
X0082604Y0195480D02*
X0120951Y0195480D01*
X0120300Y0197079D02*
X0082579Y0197079D01*
X0081195Y0198677D02*
X0120669Y0198677D01*
X0136300Y0179495D02*
X0097610Y0179495D01*
X0096374Y0177897D02*
X0136638Y0177897D01*
X0107230Y0176298D02*
X0106770Y0176298D01*
X0103230Y0176298D02*
X0084488Y0176298D01*
X0084289Y0176779D02*
X0083529Y0177539D01*
X0082537Y0177950D01*
X0081463Y0177950D01*
X0080471Y0177539D01*
X0079711Y0176779D01*
X0079300Y0175787D01*
X0079300Y0174713D01*
X0079711Y0173721D01*
X0080471Y0172961D01*
X0081463Y0172550D01*
X0082537Y0172550D01*
X0083529Y0172961D01*
X0084289Y0173721D01*
X0084700Y0174713D01*
X0084700Y0175787D01*
X0084289Y0176779D01*
X0082666Y0177897D02*
X0093626Y0177897D01*
X0092390Y0179495D02*
X0072610Y0179495D01*
X0072700Y0179713D02*
X0072289Y0178721D01*
X0071529Y0177961D01*
X0070537Y0177550D01*
X0069463Y0177550D01*
X0068471Y0177961D01*
X0067711Y0178721D01*
X0067300Y0179713D01*
X0067300Y0180787D01*
X0067711Y0181779D01*
X0068471Y0182539D01*
X0069463Y0182950D01*
X0070537Y0182950D01*
X0071529Y0182539D01*
X0072289Y0181779D01*
X0072700Y0180787D01*
X0072700Y0179713D01*
X0072573Y0181094D02*
X0092427Y0181094D01*
X0093841Y0182692D02*
X0071159Y0182692D01*
X0068841Y0182692D02*
X0054261Y0182692D01*
X0054289Y0182721D02*
X0054700Y0183713D01*
X0054700Y0184787D01*
X0054289Y0185779D01*
X0053529Y0186539D01*
X0052537Y0186950D01*
X0051463Y0186950D01*
X0050471Y0186539D01*
X0049711Y0185779D01*
X0049300Y0184787D01*
X0049300Y0183713D01*
X0049711Y0182721D01*
X0050471Y0181961D01*
X0051463Y0181550D01*
X0052537Y0181550D01*
X0053529Y0181961D01*
X0054289Y0182721D01*
X0054700Y0184291D02*
X0095300Y0184291D01*
X0095821Y0185889D02*
X0064359Y0185889D01*
X0059641Y0185889D02*
X0054179Y0185889D01*
X0054440Y0189086D02*
X0060018Y0189086D01*
X0059300Y0187488D02*
X0028975Y0187488D01*
X0029049Y0189086D02*
X0036560Y0189086D01*
X0036711Y0188721D02*
X0037471Y0187961D01*
X0038463Y0187550D01*
X0039537Y0187550D01*
X0040529Y0187961D01*
X0041289Y0188721D01*
X0041700Y0189713D01*
X0041700Y0190787D01*
X0041289Y0191779D01*
X0040529Y0192539D01*
X0039537Y0192950D01*
X0038463Y0192950D01*
X0037471Y0192539D01*
X0036711Y0191779D01*
X0036300Y0190787D01*
X0036300Y0189713D01*
X0036711Y0188721D01*
X0036300Y0190685D02*
X0033862Y0190685D01*
X0032138Y0190685D02*
X0030458Y0190685D01*
X0030427Y0185889D02*
X0038316Y0185889D01*
X0038463Y0185950D02*
X0037471Y0185539D01*
X0036711Y0184779D01*
X0036300Y0183787D01*
X0036300Y0182713D01*
X0036711Y0181721D01*
X0037471Y0180961D01*
X0038463Y0180550D01*
X0039537Y0180550D01*
X0040529Y0180961D01*
X0041289Y0181721D01*
X0041700Y0182713D01*
X0041700Y0183787D01*
X0041289Y0184779D01*
X0040529Y0185539D01*
X0039537Y0185950D01*
X0038463Y0185950D01*
X0039684Y0185889D02*
X0049821Y0185889D01*
X0049300Y0184291D02*
X0041491Y0184291D01*
X0041691Y0182692D02*
X0049739Y0182692D01*
X0049560Y0189086D02*
X0041440Y0189086D01*
X0041700Y0190685D02*
X0049300Y0190685D01*
X0050215Y0192283D02*
X0040785Y0192283D01*
X0037215Y0192283D02*
X0035522Y0192283D01*
X0036509Y0184291D02*
X0031089Y0184291D01*
X0031100Y0182692D02*
X0036309Y0182692D01*
X0037338Y0181094D02*
X0030627Y0181094D01*
X0029458Y0179495D02*
X0060427Y0179495D01*
X0060471Y0179539D02*
X0059711Y0178779D01*
X0059300Y0177787D01*
X0059300Y0176713D01*
X0059711Y0175721D01*
X0060471Y0174961D01*
X0061463Y0174550D01*
X0062537Y0174550D01*
X0063529Y0174961D01*
X0064289Y0175721D01*
X0064700Y0176713D01*
X0064700Y0177787D01*
X0064289Y0178779D01*
X0063529Y0179539D01*
X0062537Y0179950D01*
X0061463Y0179950D01*
X0060471Y0179539D01*
X0059345Y0177897D02*
X0028109Y0177897D01*
X0030164Y0176298D02*
X0059472Y0176298D01*
X0061102Y0174700D02*
X0051322Y0174700D01*
X0051700Y0173101D02*
X0080330Y0173101D01*
X0080463Y0172450D02*
X0079471Y0172039D01*
X0078711Y0171279D01*
X0078500Y0170770D01*
X0078289Y0171279D01*
X0077529Y0172039D01*
X0076537Y0172450D01*
X0075463Y0172450D01*
X0074471Y0172039D01*
X0073711Y0171279D01*
X0073300Y0170287D01*
X0073300Y0169213D01*
X0073711Y0168221D01*
X0074471Y0167461D01*
X0075463Y0167050D01*
X0076537Y0167050D01*
X0077529Y0167461D01*
X0078289Y0168221D01*
X0078500Y0168730D01*
X0078711Y0168221D01*
X0079471Y0167461D01*
X0080463Y0167050D01*
X0081537Y0167050D01*
X0082529Y0167461D01*
X0083289Y0168221D01*
X0083700Y0169213D01*
X0083700Y0170287D01*
X0083289Y0171279D01*
X0082529Y0172039D01*
X0081537Y0172450D01*
X0080463Y0172450D01*
X0078934Y0171503D02*
X0078066Y0171503D01*
X0078324Y0168306D02*
X0078676Y0168306D01*
X0083066Y0171503D02*
X0084934Y0171503D01*
X0084711Y0171279D02*
X0084300Y0170287D01*
X0084300Y0169213D01*
X0084711Y0168221D01*
X0085471Y0167461D01*
X0086463Y0167050D01*
X0087537Y0167050D01*
X0088529Y0167461D01*
X0089289Y0168221D01*
X0089700Y0169213D01*
X0089700Y0170287D01*
X0089289Y0171279D01*
X0088529Y0172039D01*
X0087537Y0172450D01*
X0086463Y0172450D01*
X0085471Y0172039D01*
X0084711Y0171279D01*
X0084300Y0169904D02*
X0083700Y0169904D01*
X0083324Y0168306D02*
X0084676Y0168306D01*
X0089324Y0168306D02*
X0100126Y0168306D01*
X0099300Y0169904D02*
X0089700Y0169904D01*
X0089066Y0171503D02*
X0099596Y0171503D01*
X0102553Y0173101D02*
X0083670Y0173101D01*
X0084694Y0174700D02*
X0102300Y0174700D01*
X0104404Y0171503D02*
X0105596Y0171503D01*
X0105300Y0169904D02*
X0104700Y0169904D01*
X0103874Y0168306D02*
X0106126Y0168306D01*
X0081334Y0177897D02*
X0071374Y0177897D01*
X0068626Y0177897D02*
X0064655Y0177897D01*
X0064528Y0176298D02*
X0079512Y0176298D01*
X0079305Y0174700D02*
X0062898Y0174700D01*
X0063463Y0172450D02*
X0062471Y0172039D01*
X0061711Y0171279D01*
X0061300Y0170287D01*
X0061300Y0169213D01*
X0061711Y0168221D01*
X0062471Y0167461D01*
X0063463Y0167050D01*
X0064537Y0167050D01*
X0065529Y0167461D01*
X0066289Y0168221D01*
X0066700Y0169213D01*
X0066700Y0170287D01*
X0066289Y0171279D01*
X0065529Y0172039D01*
X0064537Y0172450D01*
X0063463Y0172450D01*
X0061934Y0171503D02*
X0053566Y0171503D01*
X0054652Y0169904D02*
X0061300Y0169904D01*
X0061676Y0168306D02*
X0054531Y0168306D01*
X0046929Y0171503D02*
X0030796Y0171503D01*
X0031100Y0173101D02*
X0046300Y0173101D01*
X0046678Y0174700D02*
X0030920Y0174700D01*
X0040662Y0181094D02*
X0067427Y0181094D01*
X0067390Y0179495D02*
X0063573Y0179495D01*
X0066066Y0171503D02*
X0073934Y0171503D01*
X0073300Y0169904D02*
X0066700Y0169904D01*
X0066324Y0168306D02*
X0073676Y0168306D01*
X0073518Y0160313D02*
X0071482Y0160313D01*
X0071700Y0158715D02*
X0073300Y0158715D01*
X0074316Y0157116D02*
X0070684Y0157116D01*
X0067316Y0157116D02*
X0062684Y0157116D01*
X0063700Y0158715D02*
X0066300Y0158715D01*
X0066518Y0160313D02*
X0063482Y0160313D01*
X0058518Y0160313D02*
X0050755Y0160313D01*
X0051700Y0158715D02*
X0058300Y0158715D01*
X0059316Y0157116D02*
X0051453Y0157116D01*
X0050449Y0155518D02*
X0030581Y0155518D01*
X0023623Y0158715D02*
X0011700Y0158715D01*
X0011700Y0158713D02*
X0011289Y0157721D01*
X0010529Y0156961D01*
X0009537Y0156550D01*
X0008463Y0156550D01*
X0007471Y0156961D01*
X0006711Y0157721D01*
X0006300Y0158713D01*
X0006300Y0159787D01*
X0006711Y0160779D01*
X0007471Y0161539D01*
X0008463Y0161950D01*
X0009537Y0161950D01*
X0010529Y0161539D01*
X0011289Y0160779D01*
X0011700Y0159787D01*
X0011700Y0158713D01*
X0011482Y0160313D02*
X0021724Y0160313D01*
X0021034Y0161912D02*
X0009630Y0161912D01*
X0008370Y0161912D02*
X0004937Y0161912D01*
X0004937Y0163510D02*
X0020900Y0163510D01*
X0021250Y0165109D02*
X0004937Y0165109D01*
X0004937Y0166707D02*
X0006725Y0166707D01*
X0006300Y0168306D02*
X0004937Y0168306D01*
X0004937Y0169904D02*
X0006836Y0169904D01*
X0011275Y0166707D02*
X0022245Y0166707D01*
X0022654Y0157116D02*
X0010684Y0157116D01*
X0007316Y0157116D02*
X0004937Y0157116D01*
X0004937Y0155518D02*
X0021419Y0155518D01*
X0020900Y0153919D02*
X0004937Y0153919D01*
X0004937Y0152320D02*
X0020900Y0152320D01*
X0021527Y0150722D02*
X0004937Y0150722D01*
X0004937Y0149123D02*
X0022914Y0149123D01*
X0023062Y0147525D02*
X0004937Y0147525D01*
X0004937Y0145926D02*
X0010406Y0145926D01*
X0010463Y0145950D02*
X0009471Y0145539D01*
X0008711Y0144779D01*
X0008300Y0143787D01*
X0008300Y0142713D01*
X0008711Y0141721D01*
X0009471Y0140961D01*
X0010463Y0140550D01*
X0011537Y0140550D01*
X0012529Y0140961D01*
X0013289Y0141721D01*
X0013700Y0142713D01*
X0013700Y0143787D01*
X0013289Y0144779D01*
X0012529Y0145539D01*
X0011537Y0145950D01*
X0010463Y0145950D01*
X0011594Y0145926D02*
X0021588Y0145926D01*
X0020926Y0144328D02*
X0013476Y0144328D01*
X0013700Y0142729D02*
X0020900Y0142729D01*
X0021358Y0141131D02*
X0012699Y0141131D01*
X0009301Y0141131D02*
X0004937Y0141131D01*
X0004937Y0142729D02*
X0008300Y0142729D01*
X0008524Y0144328D02*
X0004937Y0144328D01*
X0004937Y0139532D02*
X0022505Y0139532D01*
X0023981Y0137934D02*
X0004937Y0137934D01*
X0004937Y0158715D02*
X0006300Y0158715D01*
X0006518Y0160313D02*
X0004937Y0160313D01*
X0004937Y0209867D02*
X0022171Y0209867D01*
X0021219Y0211465D02*
X0004937Y0211465D01*
X0004937Y0213064D02*
X0020900Y0213064D01*
X0021065Y0214662D02*
X0004937Y0214662D01*
X0004937Y0216261D02*
X0021798Y0216261D01*
X0023801Y0217859D02*
X0004937Y0217859D01*
X0004937Y0219458D02*
X0022580Y0219458D01*
X0021388Y0221056D02*
X0004937Y0221056D01*
X0004937Y0222655D02*
X0020900Y0222655D01*
X0020900Y0224253D02*
X0004937Y0224253D01*
X0004937Y0225852D02*
X0021558Y0225852D01*
X0026564Y0240239D02*
X0004937Y0240239D01*
X0004937Y0241837D02*
X0024545Y0241837D01*
X0023145Y0243436D02*
X0004937Y0243436D01*
X0004937Y0245034D02*
X0022483Y0245034D01*
X0021901Y0246633D02*
X0004937Y0246633D01*
X0004937Y0248231D02*
X0021901Y0248231D01*
X0021901Y0249830D02*
X0004937Y0249830D01*
X0004937Y0251428D02*
X0022468Y0251428D01*
X0023130Y0253027D02*
X0004937Y0253027D01*
X0004937Y0254625D02*
X0024507Y0254625D01*
X0037455Y0241837D02*
X0126770Y0241837D01*
X0125415Y0243436D02*
X0095004Y0243436D01*
X0095289Y0243721D02*
X0095700Y0244713D01*
X0095700Y0245787D01*
X0095289Y0246779D01*
X0094529Y0247539D01*
X0093537Y0247950D01*
X0092463Y0247950D01*
X0091471Y0247539D01*
X0090711Y0246779D01*
X0090300Y0245787D01*
X0090300Y0244713D01*
X0090711Y0243721D01*
X0091471Y0242961D01*
X0092463Y0242550D01*
X0093537Y0242550D01*
X0094529Y0242961D01*
X0095289Y0243721D01*
X0095700Y0245034D02*
X0125402Y0245034D01*
X0126697Y0246633D02*
X0109737Y0246633D01*
X0109537Y0246550D02*
X0110529Y0246961D01*
X0111289Y0247721D01*
X0111700Y0248713D01*
X0111700Y0249787D01*
X0111289Y0250779D01*
X0110529Y0251539D01*
X0109537Y0251950D01*
X0108463Y0251950D01*
X0107471Y0251539D01*
X0106711Y0250779D01*
X0106300Y0249787D01*
X0106300Y0248713D01*
X0106711Y0247721D01*
X0107471Y0246961D01*
X0108463Y0246550D01*
X0109537Y0246550D01*
X0108263Y0246633D02*
X0095350Y0246633D01*
X0090650Y0246633D02*
X0087737Y0246633D01*
X0087537Y0246550D02*
X0088529Y0246961D01*
X0089289Y0247721D01*
X0089700Y0248713D01*
X0089700Y0249787D01*
X0089289Y0250779D01*
X0088529Y0251539D01*
X0087537Y0251950D01*
X0086463Y0251950D01*
X0085471Y0251539D01*
X0084711Y0250779D01*
X0084300Y0249787D01*
X0084300Y0248713D01*
X0084711Y0247721D01*
X0085471Y0246961D01*
X0086463Y0246550D01*
X0087537Y0246550D01*
X0086263Y0246633D02*
X0075737Y0246633D01*
X0075537Y0246550D02*
X0076529Y0246961D01*
X0077289Y0247721D01*
X0077700Y0248713D01*
X0077700Y0249787D01*
X0077289Y0250779D01*
X0076529Y0251539D01*
X0075537Y0251950D01*
X0074463Y0251950D01*
X0073471Y0251539D01*
X0072711Y0250779D01*
X0072300Y0249787D01*
X0072300Y0248713D01*
X0072711Y0247721D01*
X0073471Y0246961D01*
X0074463Y0246550D01*
X0075537Y0246550D01*
X0074263Y0246633D02*
X0063737Y0246633D01*
X0062263Y0246633D02*
X0040099Y0246633D01*
X0040099Y0248231D02*
X0060500Y0248231D01*
X0065500Y0248231D02*
X0072500Y0248231D01*
X0072318Y0249830D02*
X0065682Y0249830D01*
X0064640Y0251428D02*
X0073360Y0251428D01*
X0076640Y0251428D02*
X0085360Y0251428D01*
X0084318Y0249830D02*
X0077682Y0249830D01*
X0077500Y0248231D02*
X0084500Y0248231D01*
X0089500Y0248231D02*
X0106500Y0248231D01*
X0106318Y0249830D02*
X0089682Y0249830D01*
X0088640Y0251428D02*
X0107360Y0251428D01*
X0110640Y0251428D02*
X0157300Y0251428D01*
X0157666Y0249830D02*
X0131828Y0249830D01*
X0130172Y0249830D02*
X0111682Y0249830D01*
X0111500Y0248231D02*
X0128484Y0248231D01*
X0129230Y0241837D02*
X0138321Y0241837D01*
X0138496Y0240239D02*
X0035436Y0240239D01*
X0038855Y0243436D02*
X0090996Y0243436D01*
X0090300Y0245034D02*
X0039517Y0245034D01*
X0049034Y0211465D02*
X0049397Y0211465D01*
X0074284Y0217859D02*
X0093716Y0217859D01*
X0092406Y0219458D02*
X0083387Y0219458D01*
X0083289Y0219221D02*
X0083700Y0220213D01*
X0083700Y0221287D01*
X0083289Y0222279D01*
X0082529Y0223039D01*
X0081537Y0223450D01*
X0080463Y0223450D01*
X0079471Y0223039D01*
X0078711Y0222279D01*
X0078300Y0221287D01*
X0078300Y0220213D01*
X0078711Y0219221D01*
X0079471Y0218461D01*
X0080463Y0218050D01*
X0081537Y0218050D01*
X0082529Y0218461D01*
X0083289Y0219221D01*
X0083700Y0221056D02*
X0092412Y0221056D01*
X0093751Y0222655D02*
X0082913Y0222655D01*
X0079087Y0222655D02*
X0074249Y0222655D01*
X0075588Y0221056D02*
X0078300Y0221056D01*
X0078613Y0219458D02*
X0075594Y0219458D01*
X0089011Y0235443D02*
X0106572Y0235443D01*
X0111428Y0235443D02*
X0135300Y0235443D01*
X0135660Y0233845D02*
X0111700Y0233845D01*
X0110814Y0232246D02*
X0144300Y0232246D01*
X0144776Y0233845D02*
X0140340Y0233845D01*
X0135973Y0237042D02*
X0089700Y0237042D01*
X0220209Y0217859D02*
X0243791Y0217859D01*
X0243300Y0216261D02*
X0220700Y0216261D01*
X0220231Y0214662D02*
X0243769Y0214662D01*
X0246300Y0211465D02*
X0229700Y0211465D01*
X0229700Y0211787D02*
X0229289Y0212779D01*
X0228529Y0213539D01*
X0227537Y0213950D01*
X0226463Y0213950D01*
X0225471Y0213539D01*
X0224711Y0212779D01*
X0224300Y0211787D01*
X0224300Y0210713D01*
X0224711Y0209721D01*
X0225471Y0208961D01*
X0226463Y0208550D01*
X0227537Y0208550D01*
X0228529Y0208961D01*
X0229289Y0209721D01*
X0229700Y0210713D01*
X0229700Y0211787D01*
X0229004Y0213064D02*
X0246996Y0213064D01*
X0246650Y0209867D02*
X0229350Y0209867D01*
X0224996Y0213064D02*
X0221004Y0213064D01*
X0221700Y0211465D02*
X0224300Y0211465D01*
X0224650Y0209867D02*
X0221350Y0209867D01*
M02*
