G75*
%MOIN*%
%OFA0B0*%
%FSLAX25Y25*%
%IPPOS*%
%LPD*%
%AMOC8*
5,1,8,0,0,1.08239X$1,22.5*
%
%ADD10C,0.00000*%
D10*
X0016600Y0013250D02*
X0016600Y0058250D01*
X0001600Y0058250D01*
X0001600Y0263250D01*
X0266600Y0263250D01*
X0266600Y0013250D01*
X0016600Y0013250D01*
X0070200Y0023250D02*
X0070202Y0023410D01*
X0070208Y0023569D01*
X0070218Y0023728D01*
X0070232Y0023887D01*
X0070250Y0024046D01*
X0070271Y0024204D01*
X0070297Y0024361D01*
X0070327Y0024518D01*
X0070360Y0024674D01*
X0070398Y0024829D01*
X0070439Y0024983D01*
X0070484Y0025136D01*
X0070533Y0025288D01*
X0070586Y0025439D01*
X0070642Y0025588D01*
X0070703Y0025736D01*
X0070766Y0025882D01*
X0070834Y0026027D01*
X0070905Y0026170D01*
X0070979Y0026311D01*
X0071057Y0026450D01*
X0071139Y0026587D01*
X0071224Y0026722D01*
X0071312Y0026855D01*
X0071404Y0026986D01*
X0071498Y0027114D01*
X0071596Y0027240D01*
X0071697Y0027364D01*
X0071801Y0027485D01*
X0071908Y0027603D01*
X0072018Y0027719D01*
X0072131Y0027832D01*
X0072247Y0027942D01*
X0072365Y0028049D01*
X0072486Y0028153D01*
X0072610Y0028254D01*
X0072736Y0028352D01*
X0072864Y0028446D01*
X0072995Y0028538D01*
X0073128Y0028626D01*
X0073263Y0028711D01*
X0073400Y0028793D01*
X0073539Y0028871D01*
X0073680Y0028945D01*
X0073823Y0029016D01*
X0073968Y0029084D01*
X0074114Y0029147D01*
X0074262Y0029208D01*
X0074411Y0029264D01*
X0074562Y0029317D01*
X0074714Y0029366D01*
X0074867Y0029411D01*
X0075021Y0029452D01*
X0075176Y0029490D01*
X0075332Y0029523D01*
X0075489Y0029553D01*
X0075646Y0029579D01*
X0075804Y0029600D01*
X0075963Y0029618D01*
X0076122Y0029632D01*
X0076281Y0029642D01*
X0076440Y0029648D01*
X0076600Y0029650D01*
X0076760Y0029648D01*
X0076919Y0029642D01*
X0077078Y0029632D01*
X0077237Y0029618D01*
X0077396Y0029600D01*
X0077554Y0029579D01*
X0077711Y0029553D01*
X0077868Y0029523D01*
X0078024Y0029490D01*
X0078179Y0029452D01*
X0078333Y0029411D01*
X0078486Y0029366D01*
X0078638Y0029317D01*
X0078789Y0029264D01*
X0078938Y0029208D01*
X0079086Y0029147D01*
X0079232Y0029084D01*
X0079377Y0029016D01*
X0079520Y0028945D01*
X0079661Y0028871D01*
X0079800Y0028793D01*
X0079937Y0028711D01*
X0080072Y0028626D01*
X0080205Y0028538D01*
X0080336Y0028446D01*
X0080464Y0028352D01*
X0080590Y0028254D01*
X0080714Y0028153D01*
X0080835Y0028049D01*
X0080953Y0027942D01*
X0081069Y0027832D01*
X0081182Y0027719D01*
X0081292Y0027603D01*
X0081399Y0027485D01*
X0081503Y0027364D01*
X0081604Y0027240D01*
X0081702Y0027114D01*
X0081796Y0026986D01*
X0081888Y0026855D01*
X0081976Y0026722D01*
X0082061Y0026587D01*
X0082143Y0026450D01*
X0082221Y0026311D01*
X0082295Y0026170D01*
X0082366Y0026027D01*
X0082434Y0025882D01*
X0082497Y0025736D01*
X0082558Y0025588D01*
X0082614Y0025439D01*
X0082667Y0025288D01*
X0082716Y0025136D01*
X0082761Y0024983D01*
X0082802Y0024829D01*
X0082840Y0024674D01*
X0082873Y0024518D01*
X0082903Y0024361D01*
X0082929Y0024204D01*
X0082950Y0024046D01*
X0082968Y0023887D01*
X0082982Y0023728D01*
X0082992Y0023569D01*
X0082998Y0023410D01*
X0083000Y0023250D01*
X0082998Y0023090D01*
X0082992Y0022931D01*
X0082982Y0022772D01*
X0082968Y0022613D01*
X0082950Y0022454D01*
X0082929Y0022296D01*
X0082903Y0022139D01*
X0082873Y0021982D01*
X0082840Y0021826D01*
X0082802Y0021671D01*
X0082761Y0021517D01*
X0082716Y0021364D01*
X0082667Y0021212D01*
X0082614Y0021061D01*
X0082558Y0020912D01*
X0082497Y0020764D01*
X0082434Y0020618D01*
X0082366Y0020473D01*
X0082295Y0020330D01*
X0082221Y0020189D01*
X0082143Y0020050D01*
X0082061Y0019913D01*
X0081976Y0019778D01*
X0081888Y0019645D01*
X0081796Y0019514D01*
X0081702Y0019386D01*
X0081604Y0019260D01*
X0081503Y0019136D01*
X0081399Y0019015D01*
X0081292Y0018897D01*
X0081182Y0018781D01*
X0081069Y0018668D01*
X0080953Y0018558D01*
X0080835Y0018451D01*
X0080714Y0018347D01*
X0080590Y0018246D01*
X0080464Y0018148D01*
X0080336Y0018054D01*
X0080205Y0017962D01*
X0080072Y0017874D01*
X0079937Y0017789D01*
X0079800Y0017707D01*
X0079661Y0017629D01*
X0079520Y0017555D01*
X0079377Y0017484D01*
X0079232Y0017416D01*
X0079086Y0017353D01*
X0078938Y0017292D01*
X0078789Y0017236D01*
X0078638Y0017183D01*
X0078486Y0017134D01*
X0078333Y0017089D01*
X0078179Y0017048D01*
X0078024Y0017010D01*
X0077868Y0016977D01*
X0077711Y0016947D01*
X0077554Y0016921D01*
X0077396Y0016900D01*
X0077237Y0016882D01*
X0077078Y0016868D01*
X0076919Y0016858D01*
X0076760Y0016852D01*
X0076600Y0016850D01*
X0076440Y0016852D01*
X0076281Y0016858D01*
X0076122Y0016868D01*
X0075963Y0016882D01*
X0075804Y0016900D01*
X0075646Y0016921D01*
X0075489Y0016947D01*
X0075332Y0016977D01*
X0075176Y0017010D01*
X0075021Y0017048D01*
X0074867Y0017089D01*
X0074714Y0017134D01*
X0074562Y0017183D01*
X0074411Y0017236D01*
X0074262Y0017292D01*
X0074114Y0017353D01*
X0073968Y0017416D01*
X0073823Y0017484D01*
X0073680Y0017555D01*
X0073539Y0017629D01*
X0073400Y0017707D01*
X0073263Y0017789D01*
X0073128Y0017874D01*
X0072995Y0017962D01*
X0072864Y0018054D01*
X0072736Y0018148D01*
X0072610Y0018246D01*
X0072486Y0018347D01*
X0072365Y0018451D01*
X0072247Y0018558D01*
X0072131Y0018668D01*
X0072018Y0018781D01*
X0071908Y0018897D01*
X0071801Y0019015D01*
X0071697Y0019136D01*
X0071596Y0019260D01*
X0071498Y0019386D01*
X0071404Y0019514D01*
X0071312Y0019645D01*
X0071224Y0019778D01*
X0071139Y0019913D01*
X0071057Y0020050D01*
X0070979Y0020189D01*
X0070905Y0020330D01*
X0070834Y0020473D01*
X0070766Y0020618D01*
X0070703Y0020764D01*
X0070642Y0020912D01*
X0070586Y0021061D01*
X0070533Y0021212D01*
X0070484Y0021364D01*
X0070439Y0021517D01*
X0070398Y0021671D01*
X0070360Y0021826D01*
X0070327Y0021982D01*
X0070297Y0022139D01*
X0070271Y0022296D01*
X0070250Y0022454D01*
X0070232Y0022613D01*
X0070218Y0022772D01*
X0070208Y0022931D01*
X0070202Y0023090D01*
X0070200Y0023250D01*
X0182208Y0023250D02*
X0182210Y0023410D01*
X0182216Y0023569D01*
X0182226Y0023728D01*
X0182240Y0023887D01*
X0182258Y0024046D01*
X0182279Y0024204D01*
X0182305Y0024361D01*
X0182335Y0024518D01*
X0182368Y0024674D01*
X0182406Y0024829D01*
X0182447Y0024983D01*
X0182492Y0025136D01*
X0182541Y0025288D01*
X0182594Y0025439D01*
X0182650Y0025588D01*
X0182711Y0025736D01*
X0182774Y0025882D01*
X0182842Y0026027D01*
X0182913Y0026170D01*
X0182987Y0026311D01*
X0183065Y0026450D01*
X0183147Y0026587D01*
X0183232Y0026722D01*
X0183320Y0026855D01*
X0183412Y0026986D01*
X0183506Y0027114D01*
X0183604Y0027240D01*
X0183705Y0027364D01*
X0183809Y0027485D01*
X0183916Y0027603D01*
X0184026Y0027719D01*
X0184139Y0027832D01*
X0184255Y0027942D01*
X0184373Y0028049D01*
X0184494Y0028153D01*
X0184618Y0028254D01*
X0184744Y0028352D01*
X0184872Y0028446D01*
X0185003Y0028538D01*
X0185136Y0028626D01*
X0185271Y0028711D01*
X0185408Y0028793D01*
X0185547Y0028871D01*
X0185688Y0028945D01*
X0185831Y0029016D01*
X0185976Y0029084D01*
X0186122Y0029147D01*
X0186270Y0029208D01*
X0186419Y0029264D01*
X0186570Y0029317D01*
X0186722Y0029366D01*
X0186875Y0029411D01*
X0187029Y0029452D01*
X0187184Y0029490D01*
X0187340Y0029523D01*
X0187497Y0029553D01*
X0187654Y0029579D01*
X0187812Y0029600D01*
X0187971Y0029618D01*
X0188130Y0029632D01*
X0188289Y0029642D01*
X0188448Y0029648D01*
X0188608Y0029650D01*
X0188768Y0029648D01*
X0188927Y0029642D01*
X0189086Y0029632D01*
X0189245Y0029618D01*
X0189404Y0029600D01*
X0189562Y0029579D01*
X0189719Y0029553D01*
X0189876Y0029523D01*
X0190032Y0029490D01*
X0190187Y0029452D01*
X0190341Y0029411D01*
X0190494Y0029366D01*
X0190646Y0029317D01*
X0190797Y0029264D01*
X0190946Y0029208D01*
X0191094Y0029147D01*
X0191240Y0029084D01*
X0191385Y0029016D01*
X0191528Y0028945D01*
X0191669Y0028871D01*
X0191808Y0028793D01*
X0191945Y0028711D01*
X0192080Y0028626D01*
X0192213Y0028538D01*
X0192344Y0028446D01*
X0192472Y0028352D01*
X0192598Y0028254D01*
X0192722Y0028153D01*
X0192843Y0028049D01*
X0192961Y0027942D01*
X0193077Y0027832D01*
X0193190Y0027719D01*
X0193300Y0027603D01*
X0193407Y0027485D01*
X0193511Y0027364D01*
X0193612Y0027240D01*
X0193710Y0027114D01*
X0193804Y0026986D01*
X0193896Y0026855D01*
X0193984Y0026722D01*
X0194069Y0026587D01*
X0194151Y0026450D01*
X0194229Y0026311D01*
X0194303Y0026170D01*
X0194374Y0026027D01*
X0194442Y0025882D01*
X0194505Y0025736D01*
X0194566Y0025588D01*
X0194622Y0025439D01*
X0194675Y0025288D01*
X0194724Y0025136D01*
X0194769Y0024983D01*
X0194810Y0024829D01*
X0194848Y0024674D01*
X0194881Y0024518D01*
X0194911Y0024361D01*
X0194937Y0024204D01*
X0194958Y0024046D01*
X0194976Y0023887D01*
X0194990Y0023728D01*
X0195000Y0023569D01*
X0195006Y0023410D01*
X0195008Y0023250D01*
X0195006Y0023090D01*
X0195000Y0022931D01*
X0194990Y0022772D01*
X0194976Y0022613D01*
X0194958Y0022454D01*
X0194937Y0022296D01*
X0194911Y0022139D01*
X0194881Y0021982D01*
X0194848Y0021826D01*
X0194810Y0021671D01*
X0194769Y0021517D01*
X0194724Y0021364D01*
X0194675Y0021212D01*
X0194622Y0021061D01*
X0194566Y0020912D01*
X0194505Y0020764D01*
X0194442Y0020618D01*
X0194374Y0020473D01*
X0194303Y0020330D01*
X0194229Y0020189D01*
X0194151Y0020050D01*
X0194069Y0019913D01*
X0193984Y0019778D01*
X0193896Y0019645D01*
X0193804Y0019514D01*
X0193710Y0019386D01*
X0193612Y0019260D01*
X0193511Y0019136D01*
X0193407Y0019015D01*
X0193300Y0018897D01*
X0193190Y0018781D01*
X0193077Y0018668D01*
X0192961Y0018558D01*
X0192843Y0018451D01*
X0192722Y0018347D01*
X0192598Y0018246D01*
X0192472Y0018148D01*
X0192344Y0018054D01*
X0192213Y0017962D01*
X0192080Y0017874D01*
X0191945Y0017789D01*
X0191808Y0017707D01*
X0191669Y0017629D01*
X0191528Y0017555D01*
X0191385Y0017484D01*
X0191240Y0017416D01*
X0191094Y0017353D01*
X0190946Y0017292D01*
X0190797Y0017236D01*
X0190646Y0017183D01*
X0190494Y0017134D01*
X0190341Y0017089D01*
X0190187Y0017048D01*
X0190032Y0017010D01*
X0189876Y0016977D01*
X0189719Y0016947D01*
X0189562Y0016921D01*
X0189404Y0016900D01*
X0189245Y0016882D01*
X0189086Y0016868D01*
X0188927Y0016858D01*
X0188768Y0016852D01*
X0188608Y0016850D01*
X0188448Y0016852D01*
X0188289Y0016858D01*
X0188130Y0016868D01*
X0187971Y0016882D01*
X0187812Y0016900D01*
X0187654Y0016921D01*
X0187497Y0016947D01*
X0187340Y0016977D01*
X0187184Y0017010D01*
X0187029Y0017048D01*
X0186875Y0017089D01*
X0186722Y0017134D01*
X0186570Y0017183D01*
X0186419Y0017236D01*
X0186270Y0017292D01*
X0186122Y0017353D01*
X0185976Y0017416D01*
X0185831Y0017484D01*
X0185688Y0017555D01*
X0185547Y0017629D01*
X0185408Y0017707D01*
X0185271Y0017789D01*
X0185136Y0017874D01*
X0185003Y0017962D01*
X0184872Y0018054D01*
X0184744Y0018148D01*
X0184618Y0018246D01*
X0184494Y0018347D01*
X0184373Y0018451D01*
X0184255Y0018558D01*
X0184139Y0018668D01*
X0184026Y0018781D01*
X0183916Y0018897D01*
X0183809Y0019015D01*
X0183705Y0019136D01*
X0183604Y0019260D01*
X0183506Y0019386D01*
X0183412Y0019514D01*
X0183320Y0019645D01*
X0183232Y0019778D01*
X0183147Y0019913D01*
X0183065Y0020050D01*
X0182987Y0020189D01*
X0182913Y0020330D01*
X0182842Y0020473D01*
X0182774Y0020618D01*
X0182711Y0020764D01*
X0182650Y0020912D01*
X0182594Y0021061D01*
X0182541Y0021212D01*
X0182492Y0021364D01*
X0182447Y0021517D01*
X0182406Y0021671D01*
X0182368Y0021826D01*
X0182335Y0021982D01*
X0182305Y0022139D01*
X0182279Y0022296D01*
X0182258Y0022454D01*
X0182240Y0022613D01*
X0182226Y0022772D01*
X0182216Y0022931D01*
X0182210Y0023090D01*
X0182208Y0023250D01*
X0195301Y0078250D02*
X0195303Y0078408D01*
X0195309Y0078566D01*
X0195319Y0078724D01*
X0195333Y0078882D01*
X0195351Y0079039D01*
X0195372Y0079196D01*
X0195398Y0079352D01*
X0195428Y0079508D01*
X0195461Y0079663D01*
X0195499Y0079816D01*
X0195540Y0079969D01*
X0195585Y0080121D01*
X0195634Y0080272D01*
X0195687Y0080421D01*
X0195743Y0080569D01*
X0195803Y0080715D01*
X0195867Y0080860D01*
X0195935Y0081003D01*
X0196006Y0081145D01*
X0196080Y0081285D01*
X0196158Y0081422D01*
X0196240Y0081558D01*
X0196324Y0081692D01*
X0196413Y0081823D01*
X0196504Y0081952D01*
X0196599Y0082079D01*
X0196696Y0082204D01*
X0196797Y0082326D01*
X0196901Y0082445D01*
X0197008Y0082562D01*
X0197118Y0082676D01*
X0197231Y0082787D01*
X0197346Y0082896D01*
X0197464Y0083001D01*
X0197585Y0083103D01*
X0197708Y0083203D01*
X0197834Y0083299D01*
X0197962Y0083392D01*
X0198092Y0083482D01*
X0198225Y0083568D01*
X0198360Y0083652D01*
X0198496Y0083731D01*
X0198635Y0083808D01*
X0198776Y0083880D01*
X0198918Y0083950D01*
X0199062Y0084015D01*
X0199208Y0084077D01*
X0199355Y0084135D01*
X0199504Y0084190D01*
X0199654Y0084241D01*
X0199805Y0084288D01*
X0199957Y0084331D01*
X0200110Y0084370D01*
X0200265Y0084406D01*
X0200420Y0084437D01*
X0200576Y0084465D01*
X0200732Y0084489D01*
X0200889Y0084509D01*
X0201047Y0084525D01*
X0201204Y0084537D01*
X0201363Y0084545D01*
X0201521Y0084549D01*
X0201679Y0084549D01*
X0201837Y0084545D01*
X0201996Y0084537D01*
X0202153Y0084525D01*
X0202311Y0084509D01*
X0202468Y0084489D01*
X0202624Y0084465D01*
X0202780Y0084437D01*
X0202935Y0084406D01*
X0203090Y0084370D01*
X0203243Y0084331D01*
X0203395Y0084288D01*
X0203546Y0084241D01*
X0203696Y0084190D01*
X0203845Y0084135D01*
X0203992Y0084077D01*
X0204138Y0084015D01*
X0204282Y0083950D01*
X0204424Y0083880D01*
X0204565Y0083808D01*
X0204704Y0083731D01*
X0204840Y0083652D01*
X0204975Y0083568D01*
X0205108Y0083482D01*
X0205238Y0083392D01*
X0205366Y0083299D01*
X0205492Y0083203D01*
X0205615Y0083103D01*
X0205736Y0083001D01*
X0205854Y0082896D01*
X0205969Y0082787D01*
X0206082Y0082676D01*
X0206192Y0082562D01*
X0206299Y0082445D01*
X0206403Y0082326D01*
X0206504Y0082204D01*
X0206601Y0082079D01*
X0206696Y0081952D01*
X0206787Y0081823D01*
X0206876Y0081692D01*
X0206960Y0081558D01*
X0207042Y0081422D01*
X0207120Y0081285D01*
X0207194Y0081145D01*
X0207265Y0081003D01*
X0207333Y0080860D01*
X0207397Y0080715D01*
X0207457Y0080569D01*
X0207513Y0080421D01*
X0207566Y0080272D01*
X0207615Y0080121D01*
X0207660Y0079969D01*
X0207701Y0079816D01*
X0207739Y0079663D01*
X0207772Y0079508D01*
X0207802Y0079352D01*
X0207828Y0079196D01*
X0207849Y0079039D01*
X0207867Y0078882D01*
X0207881Y0078724D01*
X0207891Y0078566D01*
X0207897Y0078408D01*
X0207899Y0078250D01*
X0207897Y0078092D01*
X0207891Y0077934D01*
X0207881Y0077776D01*
X0207867Y0077618D01*
X0207849Y0077461D01*
X0207828Y0077304D01*
X0207802Y0077148D01*
X0207772Y0076992D01*
X0207739Y0076837D01*
X0207701Y0076684D01*
X0207660Y0076531D01*
X0207615Y0076379D01*
X0207566Y0076228D01*
X0207513Y0076079D01*
X0207457Y0075931D01*
X0207397Y0075785D01*
X0207333Y0075640D01*
X0207265Y0075497D01*
X0207194Y0075355D01*
X0207120Y0075215D01*
X0207042Y0075078D01*
X0206960Y0074942D01*
X0206876Y0074808D01*
X0206787Y0074677D01*
X0206696Y0074548D01*
X0206601Y0074421D01*
X0206504Y0074296D01*
X0206403Y0074174D01*
X0206299Y0074055D01*
X0206192Y0073938D01*
X0206082Y0073824D01*
X0205969Y0073713D01*
X0205854Y0073604D01*
X0205736Y0073499D01*
X0205615Y0073397D01*
X0205492Y0073297D01*
X0205366Y0073201D01*
X0205238Y0073108D01*
X0205108Y0073018D01*
X0204975Y0072932D01*
X0204840Y0072848D01*
X0204704Y0072769D01*
X0204565Y0072692D01*
X0204424Y0072620D01*
X0204282Y0072550D01*
X0204138Y0072485D01*
X0203992Y0072423D01*
X0203845Y0072365D01*
X0203696Y0072310D01*
X0203546Y0072259D01*
X0203395Y0072212D01*
X0203243Y0072169D01*
X0203090Y0072130D01*
X0202935Y0072094D01*
X0202780Y0072063D01*
X0202624Y0072035D01*
X0202468Y0072011D01*
X0202311Y0071991D01*
X0202153Y0071975D01*
X0201996Y0071963D01*
X0201837Y0071955D01*
X0201679Y0071951D01*
X0201521Y0071951D01*
X0201363Y0071955D01*
X0201204Y0071963D01*
X0201047Y0071975D01*
X0200889Y0071991D01*
X0200732Y0072011D01*
X0200576Y0072035D01*
X0200420Y0072063D01*
X0200265Y0072094D01*
X0200110Y0072130D01*
X0199957Y0072169D01*
X0199805Y0072212D01*
X0199654Y0072259D01*
X0199504Y0072310D01*
X0199355Y0072365D01*
X0199208Y0072423D01*
X0199062Y0072485D01*
X0198918Y0072550D01*
X0198776Y0072620D01*
X0198635Y0072692D01*
X0198496Y0072769D01*
X0198360Y0072848D01*
X0198225Y0072932D01*
X0198092Y0073018D01*
X0197962Y0073108D01*
X0197834Y0073201D01*
X0197708Y0073297D01*
X0197585Y0073397D01*
X0197464Y0073499D01*
X0197346Y0073604D01*
X0197231Y0073713D01*
X0197118Y0073824D01*
X0197008Y0073938D01*
X0196901Y0074055D01*
X0196797Y0074174D01*
X0196696Y0074296D01*
X0196599Y0074421D01*
X0196504Y0074548D01*
X0196413Y0074677D01*
X0196324Y0074808D01*
X0196240Y0074942D01*
X0196158Y0075078D01*
X0196080Y0075215D01*
X0196006Y0075355D01*
X0195935Y0075497D01*
X0195867Y0075640D01*
X0195803Y0075785D01*
X0195743Y0075931D01*
X0195687Y0076079D01*
X0195634Y0076228D01*
X0195585Y0076379D01*
X0195540Y0076531D01*
X0195499Y0076684D01*
X0195461Y0076837D01*
X0195428Y0076992D01*
X0195398Y0077148D01*
X0195372Y0077304D01*
X0195351Y0077461D01*
X0195333Y0077618D01*
X0195319Y0077776D01*
X0195309Y0077934D01*
X0195303Y0078092D01*
X0195301Y0078250D01*
X0249789Y0060750D02*
X0249791Y0060847D01*
X0249797Y0060944D01*
X0249807Y0061040D01*
X0249821Y0061136D01*
X0249839Y0061232D01*
X0249860Y0061326D01*
X0249886Y0061420D01*
X0249915Y0061512D01*
X0249949Y0061603D01*
X0249985Y0061693D01*
X0250026Y0061781D01*
X0250070Y0061867D01*
X0250118Y0061952D01*
X0250169Y0062034D01*
X0250223Y0062115D01*
X0250281Y0062193D01*
X0250342Y0062268D01*
X0250405Y0062341D01*
X0250472Y0062412D01*
X0250542Y0062479D01*
X0250614Y0062544D01*
X0250689Y0062605D01*
X0250767Y0062664D01*
X0250846Y0062719D01*
X0250928Y0062771D01*
X0251012Y0062819D01*
X0251098Y0062864D01*
X0251186Y0062906D01*
X0251275Y0062944D01*
X0251366Y0062978D01*
X0251458Y0063008D01*
X0251551Y0063035D01*
X0251646Y0063057D01*
X0251741Y0063076D01*
X0251837Y0063091D01*
X0251933Y0063102D01*
X0252030Y0063109D01*
X0252127Y0063112D01*
X0252224Y0063111D01*
X0252321Y0063106D01*
X0252417Y0063097D01*
X0252513Y0063084D01*
X0252609Y0063067D01*
X0252704Y0063046D01*
X0252797Y0063022D01*
X0252890Y0062993D01*
X0252982Y0062961D01*
X0253072Y0062925D01*
X0253160Y0062886D01*
X0253247Y0062842D01*
X0253332Y0062796D01*
X0253415Y0062745D01*
X0253496Y0062692D01*
X0253574Y0062635D01*
X0253651Y0062575D01*
X0253724Y0062512D01*
X0253795Y0062446D01*
X0253863Y0062377D01*
X0253929Y0062305D01*
X0253991Y0062231D01*
X0254050Y0062154D01*
X0254106Y0062075D01*
X0254159Y0061993D01*
X0254209Y0061910D01*
X0254254Y0061824D01*
X0254297Y0061737D01*
X0254336Y0061648D01*
X0254371Y0061558D01*
X0254402Y0061466D01*
X0254429Y0061373D01*
X0254453Y0061279D01*
X0254473Y0061184D01*
X0254489Y0061088D01*
X0254501Y0060992D01*
X0254509Y0060895D01*
X0254513Y0060798D01*
X0254513Y0060702D01*
X0254509Y0060605D01*
X0254501Y0060508D01*
X0254489Y0060412D01*
X0254473Y0060316D01*
X0254453Y0060221D01*
X0254429Y0060127D01*
X0254402Y0060034D01*
X0254371Y0059942D01*
X0254336Y0059852D01*
X0254297Y0059763D01*
X0254254Y0059676D01*
X0254209Y0059590D01*
X0254159Y0059507D01*
X0254106Y0059425D01*
X0254050Y0059346D01*
X0253991Y0059269D01*
X0253929Y0059195D01*
X0253863Y0059123D01*
X0253795Y0059054D01*
X0253724Y0058988D01*
X0253651Y0058925D01*
X0253574Y0058865D01*
X0253496Y0058808D01*
X0253415Y0058755D01*
X0253332Y0058704D01*
X0253247Y0058658D01*
X0253160Y0058614D01*
X0253072Y0058575D01*
X0252982Y0058539D01*
X0252890Y0058507D01*
X0252797Y0058478D01*
X0252704Y0058454D01*
X0252609Y0058433D01*
X0252513Y0058416D01*
X0252417Y0058403D01*
X0252321Y0058394D01*
X0252224Y0058389D01*
X0252127Y0058388D01*
X0252030Y0058391D01*
X0251933Y0058398D01*
X0251837Y0058409D01*
X0251741Y0058424D01*
X0251646Y0058443D01*
X0251551Y0058465D01*
X0251458Y0058492D01*
X0251366Y0058522D01*
X0251275Y0058556D01*
X0251186Y0058594D01*
X0251098Y0058636D01*
X0251012Y0058681D01*
X0250928Y0058729D01*
X0250846Y0058781D01*
X0250767Y0058836D01*
X0250689Y0058895D01*
X0250614Y0058956D01*
X0250542Y0059021D01*
X0250472Y0059088D01*
X0250405Y0059159D01*
X0250342Y0059232D01*
X0250281Y0059307D01*
X0250223Y0059385D01*
X0250169Y0059466D01*
X0250118Y0059548D01*
X0250070Y0059633D01*
X0250026Y0059719D01*
X0249985Y0059807D01*
X0249949Y0059897D01*
X0249915Y0059988D01*
X0249886Y0060080D01*
X0249860Y0060174D01*
X0249839Y0060268D01*
X0249821Y0060364D01*
X0249807Y0060460D01*
X0249797Y0060556D01*
X0249791Y0060653D01*
X0249789Y0060750D01*
X0249789Y0025750D02*
X0249791Y0025847D01*
X0249797Y0025944D01*
X0249807Y0026040D01*
X0249821Y0026136D01*
X0249839Y0026232D01*
X0249860Y0026326D01*
X0249886Y0026420D01*
X0249915Y0026512D01*
X0249949Y0026603D01*
X0249985Y0026693D01*
X0250026Y0026781D01*
X0250070Y0026867D01*
X0250118Y0026952D01*
X0250169Y0027034D01*
X0250223Y0027115D01*
X0250281Y0027193D01*
X0250342Y0027268D01*
X0250405Y0027341D01*
X0250472Y0027412D01*
X0250542Y0027479D01*
X0250614Y0027544D01*
X0250689Y0027605D01*
X0250767Y0027664D01*
X0250846Y0027719D01*
X0250928Y0027771D01*
X0251012Y0027819D01*
X0251098Y0027864D01*
X0251186Y0027906D01*
X0251275Y0027944D01*
X0251366Y0027978D01*
X0251458Y0028008D01*
X0251551Y0028035D01*
X0251646Y0028057D01*
X0251741Y0028076D01*
X0251837Y0028091D01*
X0251933Y0028102D01*
X0252030Y0028109D01*
X0252127Y0028112D01*
X0252224Y0028111D01*
X0252321Y0028106D01*
X0252417Y0028097D01*
X0252513Y0028084D01*
X0252609Y0028067D01*
X0252704Y0028046D01*
X0252797Y0028022D01*
X0252890Y0027993D01*
X0252982Y0027961D01*
X0253072Y0027925D01*
X0253160Y0027886D01*
X0253247Y0027842D01*
X0253332Y0027796D01*
X0253415Y0027745D01*
X0253496Y0027692D01*
X0253574Y0027635D01*
X0253651Y0027575D01*
X0253724Y0027512D01*
X0253795Y0027446D01*
X0253863Y0027377D01*
X0253929Y0027305D01*
X0253991Y0027231D01*
X0254050Y0027154D01*
X0254106Y0027075D01*
X0254159Y0026993D01*
X0254209Y0026910D01*
X0254254Y0026824D01*
X0254297Y0026737D01*
X0254336Y0026648D01*
X0254371Y0026558D01*
X0254402Y0026466D01*
X0254429Y0026373D01*
X0254453Y0026279D01*
X0254473Y0026184D01*
X0254489Y0026088D01*
X0254501Y0025992D01*
X0254509Y0025895D01*
X0254513Y0025798D01*
X0254513Y0025702D01*
X0254509Y0025605D01*
X0254501Y0025508D01*
X0254489Y0025412D01*
X0254473Y0025316D01*
X0254453Y0025221D01*
X0254429Y0025127D01*
X0254402Y0025034D01*
X0254371Y0024942D01*
X0254336Y0024852D01*
X0254297Y0024763D01*
X0254254Y0024676D01*
X0254209Y0024590D01*
X0254159Y0024507D01*
X0254106Y0024425D01*
X0254050Y0024346D01*
X0253991Y0024269D01*
X0253929Y0024195D01*
X0253863Y0024123D01*
X0253795Y0024054D01*
X0253724Y0023988D01*
X0253651Y0023925D01*
X0253574Y0023865D01*
X0253496Y0023808D01*
X0253415Y0023755D01*
X0253332Y0023704D01*
X0253247Y0023658D01*
X0253160Y0023614D01*
X0253072Y0023575D01*
X0252982Y0023539D01*
X0252890Y0023507D01*
X0252797Y0023478D01*
X0252704Y0023454D01*
X0252609Y0023433D01*
X0252513Y0023416D01*
X0252417Y0023403D01*
X0252321Y0023394D01*
X0252224Y0023389D01*
X0252127Y0023388D01*
X0252030Y0023391D01*
X0251933Y0023398D01*
X0251837Y0023409D01*
X0251741Y0023424D01*
X0251646Y0023443D01*
X0251551Y0023465D01*
X0251458Y0023492D01*
X0251366Y0023522D01*
X0251275Y0023556D01*
X0251186Y0023594D01*
X0251098Y0023636D01*
X0251012Y0023681D01*
X0250928Y0023729D01*
X0250846Y0023781D01*
X0250767Y0023836D01*
X0250689Y0023895D01*
X0250614Y0023956D01*
X0250542Y0024021D01*
X0250472Y0024088D01*
X0250405Y0024159D01*
X0250342Y0024232D01*
X0250281Y0024307D01*
X0250223Y0024385D01*
X0250169Y0024466D01*
X0250118Y0024548D01*
X0250070Y0024633D01*
X0250026Y0024719D01*
X0249985Y0024807D01*
X0249949Y0024897D01*
X0249915Y0024988D01*
X0249886Y0025080D01*
X0249860Y0025174D01*
X0249839Y0025268D01*
X0249821Y0025364D01*
X0249807Y0025460D01*
X0249797Y0025556D01*
X0249791Y0025653D01*
X0249789Y0025750D01*
X0249789Y0095750D02*
X0249791Y0095847D01*
X0249797Y0095944D01*
X0249807Y0096040D01*
X0249821Y0096136D01*
X0249839Y0096232D01*
X0249860Y0096326D01*
X0249886Y0096420D01*
X0249915Y0096512D01*
X0249949Y0096603D01*
X0249985Y0096693D01*
X0250026Y0096781D01*
X0250070Y0096867D01*
X0250118Y0096952D01*
X0250169Y0097034D01*
X0250223Y0097115D01*
X0250281Y0097193D01*
X0250342Y0097268D01*
X0250405Y0097341D01*
X0250472Y0097412D01*
X0250542Y0097479D01*
X0250614Y0097544D01*
X0250689Y0097605D01*
X0250767Y0097664D01*
X0250846Y0097719D01*
X0250928Y0097771D01*
X0251012Y0097819D01*
X0251098Y0097864D01*
X0251186Y0097906D01*
X0251275Y0097944D01*
X0251366Y0097978D01*
X0251458Y0098008D01*
X0251551Y0098035D01*
X0251646Y0098057D01*
X0251741Y0098076D01*
X0251837Y0098091D01*
X0251933Y0098102D01*
X0252030Y0098109D01*
X0252127Y0098112D01*
X0252224Y0098111D01*
X0252321Y0098106D01*
X0252417Y0098097D01*
X0252513Y0098084D01*
X0252609Y0098067D01*
X0252704Y0098046D01*
X0252797Y0098022D01*
X0252890Y0097993D01*
X0252982Y0097961D01*
X0253072Y0097925D01*
X0253160Y0097886D01*
X0253247Y0097842D01*
X0253332Y0097796D01*
X0253415Y0097745D01*
X0253496Y0097692D01*
X0253574Y0097635D01*
X0253651Y0097575D01*
X0253724Y0097512D01*
X0253795Y0097446D01*
X0253863Y0097377D01*
X0253929Y0097305D01*
X0253991Y0097231D01*
X0254050Y0097154D01*
X0254106Y0097075D01*
X0254159Y0096993D01*
X0254209Y0096910D01*
X0254254Y0096824D01*
X0254297Y0096737D01*
X0254336Y0096648D01*
X0254371Y0096558D01*
X0254402Y0096466D01*
X0254429Y0096373D01*
X0254453Y0096279D01*
X0254473Y0096184D01*
X0254489Y0096088D01*
X0254501Y0095992D01*
X0254509Y0095895D01*
X0254513Y0095798D01*
X0254513Y0095702D01*
X0254509Y0095605D01*
X0254501Y0095508D01*
X0254489Y0095412D01*
X0254473Y0095316D01*
X0254453Y0095221D01*
X0254429Y0095127D01*
X0254402Y0095034D01*
X0254371Y0094942D01*
X0254336Y0094852D01*
X0254297Y0094763D01*
X0254254Y0094676D01*
X0254209Y0094590D01*
X0254159Y0094507D01*
X0254106Y0094425D01*
X0254050Y0094346D01*
X0253991Y0094269D01*
X0253929Y0094195D01*
X0253863Y0094123D01*
X0253795Y0094054D01*
X0253724Y0093988D01*
X0253651Y0093925D01*
X0253574Y0093865D01*
X0253496Y0093808D01*
X0253415Y0093755D01*
X0253332Y0093704D01*
X0253247Y0093658D01*
X0253160Y0093614D01*
X0253072Y0093575D01*
X0252982Y0093539D01*
X0252890Y0093507D01*
X0252797Y0093478D01*
X0252704Y0093454D01*
X0252609Y0093433D01*
X0252513Y0093416D01*
X0252417Y0093403D01*
X0252321Y0093394D01*
X0252224Y0093389D01*
X0252127Y0093388D01*
X0252030Y0093391D01*
X0251933Y0093398D01*
X0251837Y0093409D01*
X0251741Y0093424D01*
X0251646Y0093443D01*
X0251551Y0093465D01*
X0251458Y0093492D01*
X0251366Y0093522D01*
X0251275Y0093556D01*
X0251186Y0093594D01*
X0251098Y0093636D01*
X0251012Y0093681D01*
X0250928Y0093729D01*
X0250846Y0093781D01*
X0250767Y0093836D01*
X0250689Y0093895D01*
X0250614Y0093956D01*
X0250542Y0094021D01*
X0250472Y0094088D01*
X0250405Y0094159D01*
X0250342Y0094232D01*
X0250281Y0094307D01*
X0250223Y0094385D01*
X0250169Y0094466D01*
X0250118Y0094548D01*
X0250070Y0094633D01*
X0250026Y0094719D01*
X0249985Y0094807D01*
X0249949Y0094897D01*
X0249915Y0094988D01*
X0249886Y0095080D01*
X0249860Y0095174D01*
X0249839Y0095268D01*
X0249821Y0095364D01*
X0249807Y0095460D01*
X0249797Y0095556D01*
X0249791Y0095653D01*
X0249789Y0095750D01*
X0025301Y0248250D02*
X0025303Y0248408D01*
X0025309Y0248566D01*
X0025319Y0248724D01*
X0025333Y0248882D01*
X0025351Y0249039D01*
X0025372Y0249196D01*
X0025398Y0249352D01*
X0025428Y0249508D01*
X0025461Y0249663D01*
X0025499Y0249816D01*
X0025540Y0249969D01*
X0025585Y0250121D01*
X0025634Y0250272D01*
X0025687Y0250421D01*
X0025743Y0250569D01*
X0025803Y0250715D01*
X0025867Y0250860D01*
X0025935Y0251003D01*
X0026006Y0251145D01*
X0026080Y0251285D01*
X0026158Y0251422D01*
X0026240Y0251558D01*
X0026324Y0251692D01*
X0026413Y0251823D01*
X0026504Y0251952D01*
X0026599Y0252079D01*
X0026696Y0252204D01*
X0026797Y0252326D01*
X0026901Y0252445D01*
X0027008Y0252562D01*
X0027118Y0252676D01*
X0027231Y0252787D01*
X0027346Y0252896D01*
X0027464Y0253001D01*
X0027585Y0253103D01*
X0027708Y0253203D01*
X0027834Y0253299D01*
X0027962Y0253392D01*
X0028092Y0253482D01*
X0028225Y0253568D01*
X0028360Y0253652D01*
X0028496Y0253731D01*
X0028635Y0253808D01*
X0028776Y0253880D01*
X0028918Y0253950D01*
X0029062Y0254015D01*
X0029208Y0254077D01*
X0029355Y0254135D01*
X0029504Y0254190D01*
X0029654Y0254241D01*
X0029805Y0254288D01*
X0029957Y0254331D01*
X0030110Y0254370D01*
X0030265Y0254406D01*
X0030420Y0254437D01*
X0030576Y0254465D01*
X0030732Y0254489D01*
X0030889Y0254509D01*
X0031047Y0254525D01*
X0031204Y0254537D01*
X0031363Y0254545D01*
X0031521Y0254549D01*
X0031679Y0254549D01*
X0031837Y0254545D01*
X0031996Y0254537D01*
X0032153Y0254525D01*
X0032311Y0254509D01*
X0032468Y0254489D01*
X0032624Y0254465D01*
X0032780Y0254437D01*
X0032935Y0254406D01*
X0033090Y0254370D01*
X0033243Y0254331D01*
X0033395Y0254288D01*
X0033546Y0254241D01*
X0033696Y0254190D01*
X0033845Y0254135D01*
X0033992Y0254077D01*
X0034138Y0254015D01*
X0034282Y0253950D01*
X0034424Y0253880D01*
X0034565Y0253808D01*
X0034704Y0253731D01*
X0034840Y0253652D01*
X0034975Y0253568D01*
X0035108Y0253482D01*
X0035238Y0253392D01*
X0035366Y0253299D01*
X0035492Y0253203D01*
X0035615Y0253103D01*
X0035736Y0253001D01*
X0035854Y0252896D01*
X0035969Y0252787D01*
X0036082Y0252676D01*
X0036192Y0252562D01*
X0036299Y0252445D01*
X0036403Y0252326D01*
X0036504Y0252204D01*
X0036601Y0252079D01*
X0036696Y0251952D01*
X0036787Y0251823D01*
X0036876Y0251692D01*
X0036960Y0251558D01*
X0037042Y0251422D01*
X0037120Y0251285D01*
X0037194Y0251145D01*
X0037265Y0251003D01*
X0037333Y0250860D01*
X0037397Y0250715D01*
X0037457Y0250569D01*
X0037513Y0250421D01*
X0037566Y0250272D01*
X0037615Y0250121D01*
X0037660Y0249969D01*
X0037701Y0249816D01*
X0037739Y0249663D01*
X0037772Y0249508D01*
X0037802Y0249352D01*
X0037828Y0249196D01*
X0037849Y0249039D01*
X0037867Y0248882D01*
X0037881Y0248724D01*
X0037891Y0248566D01*
X0037897Y0248408D01*
X0037899Y0248250D01*
X0037897Y0248092D01*
X0037891Y0247934D01*
X0037881Y0247776D01*
X0037867Y0247618D01*
X0037849Y0247461D01*
X0037828Y0247304D01*
X0037802Y0247148D01*
X0037772Y0246992D01*
X0037739Y0246837D01*
X0037701Y0246684D01*
X0037660Y0246531D01*
X0037615Y0246379D01*
X0037566Y0246228D01*
X0037513Y0246079D01*
X0037457Y0245931D01*
X0037397Y0245785D01*
X0037333Y0245640D01*
X0037265Y0245497D01*
X0037194Y0245355D01*
X0037120Y0245215D01*
X0037042Y0245078D01*
X0036960Y0244942D01*
X0036876Y0244808D01*
X0036787Y0244677D01*
X0036696Y0244548D01*
X0036601Y0244421D01*
X0036504Y0244296D01*
X0036403Y0244174D01*
X0036299Y0244055D01*
X0036192Y0243938D01*
X0036082Y0243824D01*
X0035969Y0243713D01*
X0035854Y0243604D01*
X0035736Y0243499D01*
X0035615Y0243397D01*
X0035492Y0243297D01*
X0035366Y0243201D01*
X0035238Y0243108D01*
X0035108Y0243018D01*
X0034975Y0242932D01*
X0034840Y0242848D01*
X0034704Y0242769D01*
X0034565Y0242692D01*
X0034424Y0242620D01*
X0034282Y0242550D01*
X0034138Y0242485D01*
X0033992Y0242423D01*
X0033845Y0242365D01*
X0033696Y0242310D01*
X0033546Y0242259D01*
X0033395Y0242212D01*
X0033243Y0242169D01*
X0033090Y0242130D01*
X0032935Y0242094D01*
X0032780Y0242063D01*
X0032624Y0242035D01*
X0032468Y0242011D01*
X0032311Y0241991D01*
X0032153Y0241975D01*
X0031996Y0241963D01*
X0031837Y0241955D01*
X0031679Y0241951D01*
X0031521Y0241951D01*
X0031363Y0241955D01*
X0031204Y0241963D01*
X0031047Y0241975D01*
X0030889Y0241991D01*
X0030732Y0242011D01*
X0030576Y0242035D01*
X0030420Y0242063D01*
X0030265Y0242094D01*
X0030110Y0242130D01*
X0029957Y0242169D01*
X0029805Y0242212D01*
X0029654Y0242259D01*
X0029504Y0242310D01*
X0029355Y0242365D01*
X0029208Y0242423D01*
X0029062Y0242485D01*
X0028918Y0242550D01*
X0028776Y0242620D01*
X0028635Y0242692D01*
X0028496Y0242769D01*
X0028360Y0242848D01*
X0028225Y0242932D01*
X0028092Y0243018D01*
X0027962Y0243108D01*
X0027834Y0243201D01*
X0027708Y0243297D01*
X0027585Y0243397D01*
X0027464Y0243499D01*
X0027346Y0243604D01*
X0027231Y0243713D01*
X0027118Y0243824D01*
X0027008Y0243938D01*
X0026901Y0244055D01*
X0026797Y0244174D01*
X0026696Y0244296D01*
X0026599Y0244421D01*
X0026504Y0244548D01*
X0026413Y0244677D01*
X0026324Y0244808D01*
X0026240Y0244942D01*
X0026158Y0245078D01*
X0026080Y0245215D01*
X0026006Y0245355D01*
X0025935Y0245497D01*
X0025867Y0245640D01*
X0025803Y0245785D01*
X0025743Y0245931D01*
X0025687Y0246079D01*
X0025634Y0246228D01*
X0025585Y0246379D01*
X0025540Y0246531D01*
X0025499Y0246684D01*
X0025461Y0246837D01*
X0025428Y0246992D01*
X0025398Y0247148D01*
X0025372Y0247304D01*
X0025351Y0247461D01*
X0025333Y0247618D01*
X0025319Y0247776D01*
X0025309Y0247934D01*
X0025303Y0248092D01*
X0025301Y0248250D01*
M02*
