G75*
%MOIN*%
%OFA0B0*%
%FSLAX25Y25*%
%IPPOS*%
%LPD*%
%AMOC8*
5,1,8,0,0,1.08239X$1,22.5*
%
%ADD10C,0.13198*%
%ADD11R,0.04537X0.06112*%
%ADD12OC8,0.06600*%
%ADD13C,0.05324*%
%ADD14C,0.13400*%
%ADD15C,0.10049*%
%ADD16C,0.17600*%
%ADD17C,0.14443*%
%ADD18C,0.16411*%
%ADD19C,0.07200*%
%ADD20C,0.06506*%
%ADD21R,0.03553X0.06112*%
%ADD22R,0.12411X0.06899*%
%ADD23R,0.25009X0.23435*%
%ADD24R,0.06899X0.06112*%
%ADD25R,0.02962X0.09261*%
%ADD26R,0.04143X0.03356*%
%ADD27R,0.06112X0.12411*%
%ADD28R,0.03356X0.04143*%
%ADD29R,0.02800X0.05300*%
%ADD30R,0.05300X0.02800*%
%ADD31R,0.05718X0.04734*%
%ADD32R,0.05915X0.02175*%
%ADD33R,0.06112X0.06899*%
%ADD34C,0.05915*%
%ADD35R,0.06112X0.06112*%
%ADD36R,0.22600X0.09600*%
%ADD37R,0.01800X0.04500*%
%ADD38C,0.03946*%
%ADD39R,0.02765X0.05324*%
%ADD40C,0.00703*%
%ADD41R,0.03513X0.11624*%
%ADD42C,0.01361*%
%ADD43C,0.08000*%
%ADD44R,0.02372X0.03356*%
%ADD45R,0.02962X0.04931*%
%ADD46R,0.07698X0.06899*%
%ADD47C,0.00891*%
%ADD48R,0.03080X0.03868*%
%ADD49C,0.00500*%
%ADD50R,0.05600X0.08868*%
D10*
X0201600Y0078250D03*
X0031600Y0248250D03*
D11*
X0071600Y0147581D03*
X0067860Y0138919D03*
X0075340Y0138919D03*
X0087860Y0138919D03*
X0095340Y0138919D03*
X0091600Y0147581D03*
X0153485Y0141419D03*
X0160965Y0141419D03*
X0157225Y0150081D03*
X0162850Y0128206D03*
X0159110Y0119544D03*
X0166590Y0119544D03*
D12*
X0161600Y0163250D03*
X0151600Y0163250D03*
X0151600Y0173250D03*
X0161600Y0173250D03*
X0171600Y0173250D03*
X0171600Y0163250D03*
D13*
X0252151Y0095750D03*
X0252151Y0060750D03*
X0252151Y0025750D03*
X0190616Y0059234D03*
X0181600Y0059234D03*
X0173569Y0040258D03*
X0165576Y0040258D03*
X0157584Y0040258D03*
X0149592Y0040258D03*
X0153608Y0033250D03*
X0161600Y0033250D03*
X0169592Y0033250D03*
X0177584Y0033250D03*
X0145616Y0059234D03*
X0136600Y0059234D03*
X0128608Y0059234D03*
X0119592Y0059234D03*
X0111561Y0040258D03*
X0103569Y0040258D03*
X0095576Y0040258D03*
X0087584Y0040258D03*
X0091600Y0033250D03*
X0099592Y0033250D03*
X0107584Y0033250D03*
X0115576Y0033250D03*
X0083608Y0059234D03*
X0074592Y0059234D03*
D14*
X0076600Y0023250D03*
X0188608Y0023250D03*
D15*
X0195596Y0036754D03*
X0069612Y0036754D03*
D16*
X0035975Y0031571D03*
D17*
X0054479Y0043579D03*
D18*
X0035975Y0055390D03*
D19*
X0261600Y0057450D02*
X0261600Y0064050D01*
X0261600Y0092450D02*
X0261600Y0099050D01*
X0261600Y0029050D02*
X0261600Y0022450D01*
D20*
X0242309Y0018467D03*
X0234435Y0025750D03*
X0242309Y0033033D03*
X0242309Y0053467D03*
X0234435Y0060750D03*
X0242309Y0068033D03*
X0242309Y0088467D03*
X0234435Y0095750D03*
X0242309Y0103033D03*
D21*
X0041600Y0096542D03*
X0036600Y0096542D03*
X0031600Y0096542D03*
X0026600Y0096542D03*
X0026600Y0073708D03*
X0031600Y0073708D03*
X0036600Y0073708D03*
X0041600Y0073708D03*
D22*
X0141817Y0079254D03*
X0141817Y0097246D03*
D23*
X0170084Y0088250D03*
D24*
X0111600Y0083363D03*
X0111600Y0094387D03*
X0186600Y0237738D03*
X0186600Y0248762D03*
D25*
X0146600Y0138486D03*
X0141600Y0138486D03*
X0136600Y0138486D03*
X0131600Y0138486D03*
X0126600Y0138486D03*
X0121600Y0138486D03*
X0116600Y0138486D03*
X0111600Y0138486D03*
X0111600Y0118014D03*
X0116600Y0118014D03*
X0121600Y0118014D03*
X0126600Y0118014D03*
X0131600Y0118014D03*
X0136600Y0118014D03*
X0141600Y0118014D03*
X0146600Y0118014D03*
X0054100Y0148014D03*
X0049100Y0148014D03*
X0044100Y0148014D03*
X0039100Y0148014D03*
X0039100Y0168486D03*
X0044100Y0168486D03*
X0049100Y0168486D03*
X0054100Y0168486D03*
D26*
X0051600Y0195691D03*
X0051600Y0200809D03*
X0155975Y0240007D03*
X0155975Y0245125D03*
D27*
X0066600Y0092699D03*
X0066600Y0073801D03*
D28*
G36*
X0133687Y0154090D02*
X0136060Y0151717D01*
X0133133Y0148790D01*
X0130760Y0151163D01*
X0133687Y0154090D01*
G37*
G36*
X0130067Y0157710D02*
X0132440Y0155337D01*
X0129513Y0152410D01*
X0127140Y0154783D01*
X0130067Y0157710D01*
G37*
G36*
X0135067Y0162710D02*
X0137440Y0160337D01*
X0134513Y0157410D01*
X0132140Y0159783D01*
X0135067Y0162710D01*
G37*
G36*
X0138687Y0159090D02*
X0141060Y0156717D01*
X0138133Y0153790D01*
X0135760Y0156163D01*
X0138687Y0159090D01*
G37*
G36*
X0086812Y0157840D02*
X0089185Y0155467D01*
X0086258Y0152540D01*
X0083885Y0154913D01*
X0086812Y0157840D01*
G37*
G36*
X0083192Y0161460D02*
X0085565Y0159087D01*
X0082638Y0156160D01*
X0080265Y0158533D01*
X0083192Y0161460D01*
G37*
G36*
X0069937Y0175340D02*
X0072310Y0172967D01*
X0069383Y0170040D01*
X0067010Y0172413D01*
X0069937Y0175340D01*
G37*
G36*
X0066317Y0178960D02*
X0068690Y0176587D01*
X0065763Y0173660D01*
X0063390Y0176033D01*
X0066317Y0178960D01*
G37*
G36*
X0133324Y0237047D02*
X0130951Y0234674D01*
X0128024Y0237601D01*
X0130397Y0239974D01*
X0133324Y0237047D01*
G37*
G36*
X0136943Y0240666D02*
X0134570Y0238293D01*
X0131643Y0241220D01*
X0134016Y0243593D01*
X0136943Y0240666D01*
G37*
G36*
X0149876Y0224238D02*
X0152249Y0226611D01*
X0155176Y0223684D01*
X0152803Y0221311D01*
X0149876Y0224238D01*
G37*
G36*
X0146257Y0220619D02*
X0148630Y0222992D01*
X0151557Y0220065D01*
X0149184Y0217692D01*
X0146257Y0220619D01*
G37*
D29*
G36*
X0136992Y0215032D02*
X0138972Y0213052D01*
X0135226Y0209306D01*
X0133246Y0211286D01*
X0136992Y0215032D01*
G37*
G36*
X0134765Y0217260D02*
X0136745Y0215280D01*
X0132999Y0211534D01*
X0131019Y0213514D01*
X0134765Y0217260D01*
G37*
G36*
X0132538Y0219487D02*
X0134518Y0217507D01*
X0130772Y0213761D01*
X0128792Y0215741D01*
X0132538Y0219487D01*
G37*
G36*
X0130311Y0221714D02*
X0132291Y0219734D01*
X0128545Y0215988D01*
X0126565Y0217968D01*
X0130311Y0221714D01*
G37*
G36*
X0128084Y0223941D02*
X0130064Y0221961D01*
X0126318Y0218215D01*
X0124338Y0220195D01*
X0128084Y0223941D01*
G37*
G36*
X0125857Y0226168D02*
X0127837Y0224188D01*
X0124091Y0220442D01*
X0122111Y0222422D01*
X0125857Y0226168D01*
G37*
G36*
X0123630Y0228395D02*
X0125610Y0226415D01*
X0121864Y0222669D01*
X0119884Y0224649D01*
X0123630Y0228395D01*
G37*
G36*
X0121402Y0230622D02*
X0123382Y0228642D01*
X0119636Y0224896D01*
X0117656Y0226876D01*
X0121402Y0230622D01*
G37*
G36*
X0119175Y0232849D02*
X0121155Y0230869D01*
X0117409Y0227123D01*
X0115429Y0229103D01*
X0119175Y0232849D01*
G37*
G36*
X0116948Y0235076D02*
X0118928Y0233096D01*
X0115182Y0229350D01*
X0113202Y0231330D01*
X0116948Y0235076D01*
G37*
G36*
X0114721Y0237304D02*
X0116701Y0235324D01*
X0112955Y0231578D01*
X0110975Y0233558D01*
X0114721Y0237304D01*
G37*
G36*
X0112494Y0239531D02*
X0114474Y0237551D01*
X0110728Y0233805D01*
X0108748Y0235785D01*
X0112494Y0239531D01*
G37*
G36*
X0139219Y0212805D02*
X0141199Y0210825D01*
X0137453Y0207079D01*
X0135473Y0209059D01*
X0139219Y0212805D01*
G37*
G36*
X0141446Y0210578D02*
X0143426Y0208598D01*
X0139680Y0204852D01*
X0137700Y0206832D01*
X0141446Y0210578D01*
G37*
G36*
X0143674Y0208351D02*
X0145654Y0206371D01*
X0141908Y0202625D01*
X0139928Y0204605D01*
X0143674Y0208351D01*
G37*
G36*
X0145901Y0206124D02*
X0147881Y0204144D01*
X0144135Y0200398D01*
X0142155Y0202378D01*
X0145901Y0206124D01*
G37*
G36*
X0102472Y0162695D02*
X0104452Y0160715D01*
X0100706Y0156969D01*
X0098726Y0158949D01*
X0102472Y0162695D01*
G37*
G36*
X0100245Y0164922D02*
X0102225Y0162942D01*
X0098479Y0159196D01*
X0096499Y0161176D01*
X0100245Y0164922D01*
G37*
G36*
X0098018Y0167150D02*
X0099998Y0165170D01*
X0096252Y0161424D01*
X0094272Y0163404D01*
X0098018Y0167150D01*
G37*
G36*
X0095791Y0169377D02*
X0097771Y0167397D01*
X0094025Y0163651D01*
X0092045Y0165631D01*
X0095791Y0169377D01*
G37*
G36*
X0093564Y0171604D02*
X0095544Y0169624D01*
X0091798Y0165878D01*
X0089818Y0167858D01*
X0093564Y0171604D01*
G37*
G36*
X0091336Y0173831D02*
X0093316Y0171851D01*
X0089570Y0168105D01*
X0087590Y0170085D01*
X0091336Y0173831D01*
G37*
G36*
X0089109Y0176058D02*
X0091089Y0174078D01*
X0087343Y0170332D01*
X0085363Y0172312D01*
X0089109Y0176058D01*
G37*
G36*
X0086882Y0178285D02*
X0088862Y0176305D01*
X0085116Y0172559D01*
X0083136Y0174539D01*
X0086882Y0178285D01*
G37*
G36*
X0084655Y0180512D02*
X0086635Y0178532D01*
X0082889Y0174786D01*
X0080909Y0176766D01*
X0084655Y0180512D01*
G37*
G36*
X0082428Y0182739D02*
X0084408Y0180759D01*
X0080662Y0177013D01*
X0078682Y0178993D01*
X0082428Y0182739D01*
G37*
G36*
X0080201Y0184966D02*
X0082181Y0182986D01*
X0078435Y0179240D01*
X0076455Y0181220D01*
X0080201Y0184966D01*
G37*
G36*
X0077974Y0187194D02*
X0079954Y0185214D01*
X0076208Y0181468D01*
X0074228Y0183448D01*
X0077974Y0187194D01*
G37*
G36*
X0075747Y0189421D02*
X0077727Y0187441D01*
X0073981Y0183695D01*
X0072001Y0185675D01*
X0075747Y0189421D01*
G37*
G36*
X0073520Y0191648D02*
X0075500Y0189668D01*
X0071754Y0185922D01*
X0069774Y0187902D01*
X0073520Y0191648D01*
G37*
G36*
X0071292Y0193875D02*
X0073272Y0191895D01*
X0069526Y0188149D01*
X0067546Y0190129D01*
X0071292Y0193875D01*
G37*
G36*
X0069065Y0196102D02*
X0071045Y0194122D01*
X0067299Y0190376D01*
X0065319Y0192356D01*
X0069065Y0196102D01*
G37*
D30*
G36*
X0067299Y0206124D02*
X0071045Y0202378D01*
X0069065Y0200398D01*
X0065319Y0204144D01*
X0067299Y0206124D01*
G37*
G36*
X0069526Y0208351D02*
X0073272Y0204605D01*
X0071292Y0202625D01*
X0067546Y0206371D01*
X0069526Y0208351D01*
G37*
G36*
X0071754Y0210578D02*
X0075500Y0206832D01*
X0073520Y0204852D01*
X0069774Y0208598D01*
X0071754Y0210578D01*
G37*
G36*
X0073981Y0212805D02*
X0077727Y0209059D01*
X0075747Y0207079D01*
X0072001Y0210825D01*
X0073981Y0212805D01*
G37*
G36*
X0076208Y0215032D02*
X0079954Y0211286D01*
X0077974Y0209306D01*
X0074228Y0213052D01*
X0076208Y0215032D01*
G37*
G36*
X0078435Y0217260D02*
X0082181Y0213514D01*
X0080201Y0211534D01*
X0076455Y0215280D01*
X0078435Y0217260D01*
G37*
G36*
X0080662Y0219487D02*
X0084408Y0215741D01*
X0082428Y0213761D01*
X0078682Y0217507D01*
X0080662Y0219487D01*
G37*
G36*
X0082889Y0221714D02*
X0086635Y0217968D01*
X0084655Y0215988D01*
X0080909Y0219734D01*
X0082889Y0221714D01*
G37*
G36*
X0085116Y0223941D02*
X0088862Y0220195D01*
X0086882Y0218215D01*
X0083136Y0221961D01*
X0085116Y0223941D01*
G37*
G36*
X0087343Y0226168D02*
X0091089Y0222422D01*
X0089109Y0220442D01*
X0085363Y0224188D01*
X0087343Y0226168D01*
G37*
G36*
X0089570Y0228395D02*
X0093316Y0224649D01*
X0091336Y0222669D01*
X0087590Y0226415D01*
X0089570Y0228395D01*
G37*
G36*
X0091798Y0230622D02*
X0095544Y0226876D01*
X0093564Y0224896D01*
X0089818Y0228642D01*
X0091798Y0230622D01*
G37*
G36*
X0094025Y0232849D02*
X0097771Y0229103D01*
X0095791Y0227123D01*
X0092045Y0230869D01*
X0094025Y0232849D01*
G37*
G36*
X0096252Y0235076D02*
X0099998Y0231330D01*
X0098018Y0229350D01*
X0094272Y0233096D01*
X0096252Y0235076D01*
G37*
G36*
X0098479Y0237304D02*
X0102225Y0233558D01*
X0100245Y0231578D01*
X0096499Y0235324D01*
X0098479Y0237304D01*
G37*
G36*
X0100706Y0239531D02*
X0104452Y0235785D01*
X0102472Y0233805D01*
X0098726Y0237551D01*
X0100706Y0239531D01*
G37*
G36*
X0144135Y0196102D02*
X0147881Y0192356D01*
X0145901Y0190376D01*
X0142155Y0194122D01*
X0144135Y0196102D01*
G37*
G36*
X0141908Y0193875D02*
X0145654Y0190129D01*
X0143674Y0188149D01*
X0139928Y0191895D01*
X0141908Y0193875D01*
G37*
G36*
X0139680Y0191648D02*
X0143426Y0187902D01*
X0141446Y0185922D01*
X0137700Y0189668D01*
X0139680Y0191648D01*
G37*
G36*
X0137453Y0189421D02*
X0141199Y0185675D01*
X0139219Y0183695D01*
X0135473Y0187441D01*
X0137453Y0189421D01*
G37*
G36*
X0135226Y0187194D02*
X0138972Y0183448D01*
X0136992Y0181468D01*
X0133246Y0185214D01*
X0135226Y0187194D01*
G37*
G36*
X0132999Y0184966D02*
X0136745Y0181220D01*
X0134765Y0179240D01*
X0131019Y0182986D01*
X0132999Y0184966D01*
G37*
G36*
X0130772Y0182739D02*
X0134518Y0178993D01*
X0132538Y0177013D01*
X0128792Y0180759D01*
X0130772Y0182739D01*
G37*
G36*
X0128545Y0180512D02*
X0132291Y0176766D01*
X0130311Y0174786D01*
X0126565Y0178532D01*
X0128545Y0180512D01*
G37*
G36*
X0126318Y0178285D02*
X0130064Y0174539D01*
X0128084Y0172559D01*
X0124338Y0176305D01*
X0126318Y0178285D01*
G37*
G36*
X0124091Y0176058D02*
X0127837Y0172312D01*
X0125857Y0170332D01*
X0122111Y0174078D01*
X0124091Y0176058D01*
G37*
G36*
X0121864Y0173831D02*
X0125610Y0170085D01*
X0123630Y0168105D01*
X0119884Y0171851D01*
X0121864Y0173831D01*
G37*
G36*
X0119636Y0171604D02*
X0123382Y0167858D01*
X0121402Y0165878D01*
X0117656Y0169624D01*
X0119636Y0171604D01*
G37*
G36*
X0117409Y0169377D02*
X0121155Y0165631D01*
X0119175Y0163651D01*
X0115429Y0167397D01*
X0117409Y0169377D01*
G37*
G36*
X0115182Y0167150D02*
X0118928Y0163404D01*
X0116948Y0161424D01*
X0113202Y0165170D01*
X0115182Y0167150D01*
G37*
G36*
X0112955Y0164922D02*
X0116701Y0161176D01*
X0114721Y0159196D01*
X0110975Y0162942D01*
X0112955Y0164922D01*
G37*
G36*
X0110728Y0162695D02*
X0114474Y0158949D01*
X0112494Y0156969D01*
X0108748Y0160715D01*
X0110728Y0162695D01*
G37*
D31*
G36*
X0141879Y0228240D02*
X0145921Y0224198D01*
X0142573Y0220850D01*
X0138531Y0224892D01*
X0141879Y0228240D01*
G37*
G36*
X0147030Y0233390D02*
X0151072Y0229348D01*
X0147724Y0226000D01*
X0143682Y0230042D01*
X0147030Y0233390D01*
G37*
G36*
X0140627Y0239793D02*
X0144669Y0235751D01*
X0141321Y0232403D01*
X0137279Y0236445D01*
X0140627Y0239793D01*
G37*
G36*
X0135476Y0234642D02*
X0139518Y0230600D01*
X0136170Y0227252D01*
X0132128Y0231294D01*
X0135476Y0234642D01*
G37*
D32*
X0251600Y0153368D03*
X0251600Y0150809D03*
X0251600Y0148250D03*
X0251600Y0145691D03*
X0251600Y0143132D03*
D33*
X0251600Y0135652D03*
X0246088Y0118250D03*
X0257112Y0118250D03*
X0251600Y0160848D03*
D34*
X0262131Y0158585D02*
X0262131Y0163900D01*
X0262131Y0137915D02*
X0262131Y0132600D01*
D35*
X0091600Y0128230D03*
X0091600Y0113270D03*
X0059080Y0111375D03*
X0044120Y0111375D03*
D36*
X0093475Y0101500D03*
X0093475Y0072500D03*
D37*
G36*
X0063317Y0226903D02*
X0064590Y0228176D01*
X0067771Y0224995D01*
X0066498Y0223722D01*
X0063317Y0226903D01*
G37*
G36*
X0065127Y0228712D02*
X0066400Y0229985D01*
X0069581Y0226804D01*
X0068308Y0225531D01*
X0065127Y0228712D01*
G37*
G36*
X0066936Y0230522D02*
X0068209Y0231795D01*
X0071390Y0228614D01*
X0070117Y0227341D01*
X0066936Y0230522D01*
G37*
G36*
X0068746Y0232331D02*
X0070019Y0233604D01*
X0073200Y0230423D01*
X0071927Y0229150D01*
X0068746Y0232331D01*
G37*
G36*
X0070555Y0234141D02*
X0071828Y0235414D01*
X0075009Y0232233D01*
X0073736Y0230960D01*
X0070555Y0234141D01*
G37*
G36*
X0072365Y0235950D02*
X0073638Y0237223D01*
X0076819Y0234042D01*
X0075546Y0232769D01*
X0072365Y0235950D01*
G37*
G36*
X0074174Y0237760D02*
X0075447Y0239033D01*
X0078628Y0235852D01*
X0077355Y0234579D01*
X0074174Y0237760D01*
G37*
G36*
X0057929Y0254005D02*
X0059202Y0255278D01*
X0062383Y0252097D01*
X0061110Y0250824D01*
X0057929Y0254005D01*
G37*
G36*
X0056119Y0252196D02*
X0057392Y0253469D01*
X0060573Y0250288D01*
X0059300Y0249015D01*
X0056119Y0252196D01*
G37*
G36*
X0054310Y0250386D02*
X0055583Y0251659D01*
X0058764Y0248478D01*
X0057491Y0247205D01*
X0054310Y0250386D01*
G37*
G36*
X0052500Y0248577D02*
X0053773Y0249850D01*
X0056954Y0246669D01*
X0055681Y0245396D01*
X0052500Y0248577D01*
G37*
G36*
X0050691Y0246767D02*
X0051964Y0248040D01*
X0055145Y0244859D01*
X0053872Y0243586D01*
X0050691Y0246767D01*
G37*
G36*
X0048881Y0244958D02*
X0050154Y0246231D01*
X0053335Y0243050D01*
X0052062Y0241777D01*
X0048881Y0244958D01*
G37*
G36*
X0047072Y0243148D02*
X0048345Y0244421D01*
X0051526Y0241240D01*
X0050253Y0239967D01*
X0047072Y0243148D01*
G37*
D38*
X0207398Y0243698D02*
X0215862Y0243698D01*
X0215862Y0248619D02*
X0207398Y0248619D01*
X0207398Y0253540D02*
X0215862Y0253540D01*
X0215862Y0258462D02*
X0207398Y0258462D01*
X0207398Y0238777D02*
X0215862Y0238777D01*
X0215862Y0233855D02*
X0207398Y0233855D01*
X0207398Y0228934D02*
X0215862Y0228934D01*
X0215862Y0224013D02*
X0207398Y0224013D01*
X0207398Y0219092D02*
X0215862Y0219092D01*
X0215862Y0214170D02*
X0207398Y0214170D01*
X0207398Y0209249D02*
X0215862Y0209249D01*
X0215862Y0204328D02*
X0207398Y0204328D01*
X0207398Y0199406D02*
X0215862Y0199406D01*
X0218126Y0194977D02*
X0218126Y0186513D01*
X0223047Y0186513D02*
X0223047Y0194977D01*
X0227968Y0194977D02*
X0227968Y0186513D01*
X0232889Y0186513D02*
X0232889Y0194977D01*
X0237811Y0194977D02*
X0237811Y0186513D01*
X0242732Y0186513D02*
X0242732Y0194977D01*
X0247653Y0194977D02*
X0247653Y0186513D01*
X0252574Y0186513D02*
X0252574Y0194977D01*
X0254838Y0199406D02*
X0263302Y0199406D01*
X0263302Y0204328D02*
X0254838Y0204328D01*
X0254838Y0209249D02*
X0263302Y0209249D01*
X0263302Y0214170D02*
X0254838Y0214170D01*
X0254838Y0219092D02*
X0263302Y0219092D01*
X0263302Y0224013D02*
X0254838Y0224013D01*
X0254838Y0228934D02*
X0263302Y0228934D01*
X0263302Y0233855D02*
X0254838Y0233855D01*
X0254838Y0238777D02*
X0263302Y0238777D01*
D39*
X0170340Y0238131D03*
X0166600Y0238131D03*
X0162860Y0238131D03*
X0162860Y0248369D03*
X0170340Y0248369D03*
D40*
X0225195Y0176703D02*
X0225195Y0165781D01*
X0225195Y0176703D02*
X0228005Y0176703D01*
X0228005Y0165781D01*
X0225195Y0165781D01*
X0225195Y0166483D02*
X0228005Y0166483D01*
X0228005Y0167185D02*
X0225195Y0167185D01*
X0225195Y0167887D02*
X0228005Y0167887D01*
X0228005Y0168589D02*
X0225195Y0168589D01*
X0225195Y0169291D02*
X0228005Y0169291D01*
X0228005Y0169993D02*
X0225195Y0169993D01*
X0225195Y0170695D02*
X0228005Y0170695D01*
X0228005Y0171397D02*
X0225195Y0171397D01*
X0225195Y0172099D02*
X0228005Y0172099D01*
X0228005Y0172801D02*
X0225195Y0172801D01*
X0225195Y0173503D02*
X0228005Y0173503D01*
X0228005Y0174205D02*
X0225195Y0174205D01*
X0225195Y0174907D02*
X0228005Y0174907D01*
X0228005Y0175609D02*
X0225195Y0175609D01*
X0225195Y0176311D02*
X0228005Y0176311D01*
D41*
X0221600Y0171242D03*
X0216600Y0171242D03*
X0211600Y0171242D03*
X0206600Y0171242D03*
X0206600Y0155258D03*
X0211600Y0155258D03*
X0216600Y0155258D03*
X0221600Y0155258D03*
X0226600Y0155258D03*
D42*
X0218465Y0019838D02*
X0218465Y0016662D01*
X0218465Y0019838D02*
X0221641Y0019838D01*
X0221641Y0016662D01*
X0218465Y0016662D01*
X0218465Y0018022D02*
X0221641Y0018022D01*
X0221641Y0019382D02*
X0218465Y0019382D01*
X0211559Y0019838D02*
X0211559Y0016662D01*
X0211559Y0019838D02*
X0214735Y0019838D01*
X0214735Y0016662D01*
X0211559Y0016662D01*
X0211559Y0018022D02*
X0214735Y0018022D01*
X0214735Y0019382D02*
X0211559Y0019382D01*
D43*
X0191600Y0113250D03*
X0191600Y0123250D03*
X0191600Y0133250D03*
X0191600Y0143250D03*
X0191600Y0153250D03*
X0191600Y0163250D03*
X0191600Y0173250D03*
X0191600Y0183250D03*
X0191600Y0193250D03*
X0191600Y0203250D03*
X0191600Y0213250D03*
X0191600Y0223250D03*
X0026600Y0223250D03*
X0026600Y0213250D03*
X0026600Y0203250D03*
X0026600Y0193250D03*
X0026600Y0183250D03*
X0026600Y0173250D03*
X0026600Y0163250D03*
X0026600Y0153250D03*
X0026600Y0143250D03*
X0026600Y0133250D03*
X0026600Y0123250D03*
X0026600Y0113250D03*
D44*
X0049110Y0124151D03*
X0052850Y0124151D03*
X0056590Y0124151D03*
X0056590Y0133599D03*
X0052850Y0133599D03*
X0049110Y0133599D03*
X0206610Y0112974D03*
X0210350Y0112974D03*
X0214090Y0112974D03*
X0214090Y0103526D03*
X0210350Y0103526D03*
X0206610Y0103526D03*
X0229110Y0128526D03*
X0232850Y0128526D03*
X0236590Y0128526D03*
X0236590Y0137974D03*
X0232850Y0137974D03*
X0229110Y0137974D03*
D45*
X0015340Y0137935D03*
X0011600Y0137935D03*
X0007860Y0137935D03*
X0007860Y0148565D03*
X0011600Y0148565D03*
X0015340Y0148565D03*
D46*
X0011600Y0113848D03*
X0011600Y0102652D03*
D47*
X0097419Y0185522D02*
X0098048Y0184893D01*
X0096305Y0183150D01*
X0095676Y0183779D01*
X0097419Y0185522D01*
X0097195Y0184040D02*
X0095937Y0184040D01*
X0096827Y0184930D02*
X0098011Y0184930D01*
X0098811Y0184130D02*
X0099440Y0183501D01*
X0097697Y0181758D01*
X0097068Y0182387D01*
X0098811Y0184130D01*
X0098587Y0182648D02*
X0097329Y0182648D01*
X0098219Y0183538D02*
X0099403Y0183538D01*
X0100203Y0182738D02*
X0100832Y0182109D01*
X0099089Y0180366D01*
X0098460Y0180995D01*
X0100203Y0182738D01*
X0099979Y0181256D02*
X0098721Y0181256D01*
X0099611Y0182146D02*
X0100795Y0182146D01*
X0101595Y0181346D02*
X0102224Y0180717D01*
X0100481Y0178974D01*
X0099852Y0179603D01*
X0101595Y0181346D01*
X0101371Y0179864D02*
X0100113Y0179864D01*
X0101003Y0180754D02*
X0102187Y0180754D01*
X0102987Y0179954D02*
X0103616Y0179325D01*
X0101873Y0177582D01*
X0101244Y0178211D01*
X0102987Y0179954D01*
X0102763Y0178472D02*
X0101505Y0178472D01*
X0102395Y0179362D02*
X0103579Y0179362D01*
X0104379Y0178563D02*
X0105008Y0177934D01*
X0103265Y0176191D01*
X0102636Y0176820D01*
X0104379Y0178563D01*
X0104155Y0177081D02*
X0102897Y0177081D01*
X0103787Y0177971D02*
X0104971Y0177971D01*
X0105771Y0177171D02*
X0106400Y0176542D01*
X0104657Y0174799D01*
X0104028Y0175428D01*
X0105771Y0177171D01*
X0105547Y0175689D02*
X0104289Y0175689D01*
X0105179Y0176579D02*
X0106363Y0176579D01*
X0107858Y0177171D02*
X0109601Y0175428D01*
X0108972Y0174799D01*
X0107229Y0176542D01*
X0107858Y0177171D01*
X0108082Y0175689D02*
X0109340Y0175689D01*
X0108450Y0176579D02*
X0107266Y0176579D01*
X0109250Y0178563D02*
X0110993Y0176820D01*
X0110364Y0176191D01*
X0108621Y0177934D01*
X0109250Y0178563D01*
X0109474Y0177081D02*
X0110732Y0177081D01*
X0109842Y0177971D02*
X0108658Y0177971D01*
X0110642Y0179954D02*
X0112385Y0178211D01*
X0111756Y0177582D01*
X0110013Y0179325D01*
X0110642Y0179954D01*
X0110866Y0178472D02*
X0112124Y0178472D01*
X0111234Y0179362D02*
X0110050Y0179362D01*
X0112034Y0181346D02*
X0113777Y0179603D01*
X0113148Y0178974D01*
X0111405Y0180717D01*
X0112034Y0181346D01*
X0112258Y0179864D02*
X0113516Y0179864D01*
X0112626Y0180754D02*
X0111442Y0180754D01*
X0113426Y0182738D02*
X0115169Y0180995D01*
X0114540Y0180366D01*
X0112797Y0182109D01*
X0113426Y0182738D01*
X0113650Y0181256D02*
X0114908Y0181256D01*
X0114018Y0182146D02*
X0112834Y0182146D01*
X0114818Y0184130D02*
X0116561Y0182387D01*
X0115932Y0181758D01*
X0114189Y0183501D01*
X0114818Y0184130D01*
X0115042Y0182648D02*
X0116300Y0182648D01*
X0115410Y0183538D02*
X0114226Y0183538D01*
X0116210Y0185522D02*
X0117953Y0183779D01*
X0117324Y0183150D01*
X0115581Y0184893D01*
X0116210Y0185522D01*
X0116434Y0184040D02*
X0117692Y0184040D01*
X0116802Y0184930D02*
X0115618Y0184930D01*
X0117602Y0186914D02*
X0119345Y0185171D01*
X0118716Y0184542D01*
X0116973Y0186285D01*
X0117602Y0186914D01*
X0117826Y0185432D02*
X0119084Y0185432D01*
X0118194Y0186322D02*
X0117010Y0186322D01*
X0118994Y0188306D02*
X0120737Y0186563D01*
X0120108Y0185934D01*
X0118365Y0187677D01*
X0118994Y0188306D01*
X0119218Y0186824D02*
X0120476Y0186824D01*
X0119586Y0187714D02*
X0118402Y0187714D01*
X0120386Y0189698D02*
X0122129Y0187955D01*
X0121500Y0187326D01*
X0119757Y0189069D01*
X0120386Y0189698D01*
X0120610Y0188216D02*
X0121868Y0188216D01*
X0120978Y0189106D02*
X0119794Y0189106D01*
X0121778Y0191090D02*
X0123521Y0189347D01*
X0122892Y0188718D01*
X0121149Y0190461D01*
X0121778Y0191090D01*
X0122002Y0189608D02*
X0123260Y0189608D01*
X0122370Y0190498D02*
X0121186Y0190498D01*
X0123170Y0192482D02*
X0124913Y0190739D01*
X0124284Y0190110D01*
X0122541Y0191853D01*
X0123170Y0192482D01*
X0123394Y0191000D02*
X0124652Y0191000D01*
X0123762Y0191890D02*
X0122578Y0191890D01*
X0124562Y0193874D02*
X0126305Y0192131D01*
X0125676Y0191502D01*
X0123933Y0193245D01*
X0124562Y0193874D01*
X0124786Y0192392D02*
X0126044Y0192392D01*
X0125154Y0193282D02*
X0123970Y0193282D01*
X0125953Y0195266D02*
X0127696Y0193523D01*
X0127067Y0192894D01*
X0125324Y0194637D01*
X0125953Y0195266D01*
X0126177Y0193784D02*
X0127435Y0193784D01*
X0126545Y0194674D02*
X0125361Y0194674D01*
X0127345Y0196658D02*
X0129088Y0194915D01*
X0128459Y0194286D01*
X0126716Y0196029D01*
X0127345Y0196658D01*
X0127569Y0195176D02*
X0128827Y0195176D01*
X0127937Y0196066D02*
X0126753Y0196066D01*
X0128737Y0198050D02*
X0130480Y0196307D01*
X0129851Y0195678D01*
X0128108Y0197421D01*
X0128737Y0198050D01*
X0128961Y0196568D02*
X0130219Y0196568D01*
X0129329Y0197458D02*
X0128145Y0197458D01*
X0130480Y0200622D02*
X0129851Y0201251D01*
X0130480Y0200622D02*
X0128737Y0198879D01*
X0128108Y0199508D01*
X0129851Y0201251D01*
X0129627Y0199769D02*
X0128369Y0199769D01*
X0129259Y0200659D02*
X0130443Y0200659D01*
X0129088Y0202014D02*
X0128459Y0202643D01*
X0129088Y0202014D02*
X0127345Y0200271D01*
X0126716Y0200900D01*
X0128459Y0202643D01*
X0128235Y0201161D02*
X0126977Y0201161D01*
X0127867Y0202051D02*
X0129051Y0202051D01*
X0127696Y0203406D02*
X0127067Y0204035D01*
X0127696Y0203406D02*
X0125953Y0201663D01*
X0125324Y0202292D01*
X0127067Y0204035D01*
X0126843Y0202553D02*
X0125585Y0202553D01*
X0126475Y0203443D02*
X0127659Y0203443D01*
X0126305Y0204798D02*
X0125676Y0205427D01*
X0126305Y0204798D02*
X0124562Y0203055D01*
X0123933Y0203684D01*
X0125676Y0205427D01*
X0125452Y0203945D02*
X0124194Y0203945D01*
X0125084Y0204835D02*
X0126268Y0204835D01*
X0124913Y0206190D02*
X0124284Y0206819D01*
X0124913Y0206190D02*
X0123170Y0204447D01*
X0122541Y0205076D01*
X0124284Y0206819D01*
X0124060Y0205337D02*
X0122802Y0205337D01*
X0123692Y0206227D02*
X0124876Y0206227D01*
X0123521Y0207582D02*
X0122892Y0208211D01*
X0123521Y0207582D02*
X0121778Y0205839D01*
X0121149Y0206468D01*
X0122892Y0208211D01*
X0122668Y0206729D02*
X0121410Y0206729D01*
X0122300Y0207619D02*
X0123484Y0207619D01*
X0122129Y0208974D02*
X0121500Y0209603D01*
X0122129Y0208974D02*
X0120386Y0207231D01*
X0119757Y0207860D01*
X0121500Y0209603D01*
X0121276Y0208121D02*
X0120018Y0208121D01*
X0120908Y0209011D02*
X0122092Y0209011D01*
X0120737Y0210366D02*
X0120108Y0210995D01*
X0120737Y0210366D02*
X0118994Y0208623D01*
X0118365Y0209252D01*
X0120108Y0210995D01*
X0119884Y0209513D02*
X0118626Y0209513D01*
X0119516Y0210403D02*
X0120700Y0210403D01*
X0119345Y0211758D02*
X0118716Y0212387D01*
X0119345Y0211758D02*
X0117602Y0210015D01*
X0116973Y0210644D01*
X0118716Y0212387D01*
X0118492Y0210905D02*
X0117234Y0210905D01*
X0118124Y0211795D02*
X0119308Y0211795D01*
X0117953Y0213150D02*
X0117324Y0213779D01*
X0117953Y0213150D02*
X0116210Y0211407D01*
X0115581Y0212036D01*
X0117324Y0213779D01*
X0117100Y0212297D02*
X0115842Y0212297D01*
X0116732Y0213187D02*
X0117916Y0213187D01*
X0116561Y0214542D02*
X0115932Y0215171D01*
X0116561Y0214542D02*
X0114818Y0212799D01*
X0114189Y0213428D01*
X0115932Y0215171D01*
X0115708Y0213689D02*
X0114450Y0213689D01*
X0115340Y0214579D02*
X0116524Y0214579D01*
X0115169Y0215934D02*
X0114540Y0216563D01*
X0115169Y0215934D02*
X0113426Y0214191D01*
X0112797Y0214820D01*
X0114540Y0216563D01*
X0114316Y0215081D02*
X0113058Y0215081D01*
X0113948Y0215971D02*
X0115132Y0215971D01*
X0113777Y0217326D02*
X0113148Y0217955D01*
X0113777Y0217326D02*
X0112034Y0215583D01*
X0111405Y0216212D01*
X0113148Y0217955D01*
X0112924Y0216473D02*
X0111666Y0216473D01*
X0112556Y0217363D02*
X0113740Y0217363D01*
X0112385Y0218717D02*
X0111756Y0219346D01*
X0112385Y0218717D02*
X0110642Y0216974D01*
X0110013Y0217603D01*
X0111756Y0219346D01*
X0111532Y0217864D02*
X0110274Y0217864D01*
X0111164Y0218754D02*
X0112348Y0218754D01*
X0110993Y0220109D02*
X0110364Y0220738D01*
X0110993Y0220109D02*
X0109250Y0218366D01*
X0108621Y0218995D01*
X0110364Y0220738D01*
X0110140Y0219256D02*
X0108882Y0219256D01*
X0109772Y0220146D02*
X0110956Y0220146D01*
X0109601Y0221501D02*
X0108972Y0222130D01*
X0109601Y0221501D02*
X0107858Y0219758D01*
X0107229Y0220387D01*
X0108972Y0222130D01*
X0108748Y0220648D02*
X0107490Y0220648D01*
X0108380Y0221538D02*
X0109564Y0221538D01*
X0106400Y0220387D02*
X0104657Y0222130D01*
X0106400Y0220387D02*
X0105771Y0219758D01*
X0104028Y0221501D01*
X0104657Y0222130D01*
X0104881Y0220648D02*
X0106139Y0220648D01*
X0105249Y0221538D02*
X0104065Y0221538D01*
X0103265Y0220738D02*
X0105008Y0218995D01*
X0104379Y0218366D01*
X0102636Y0220109D01*
X0103265Y0220738D01*
X0103489Y0219256D02*
X0104747Y0219256D01*
X0103857Y0220146D02*
X0102673Y0220146D01*
X0101873Y0219346D02*
X0103616Y0217603D01*
X0102987Y0216974D01*
X0101244Y0218717D01*
X0101873Y0219346D01*
X0102097Y0217864D02*
X0103355Y0217864D01*
X0102465Y0218754D02*
X0101281Y0218754D01*
X0100481Y0217955D02*
X0102224Y0216212D01*
X0101595Y0215583D01*
X0099852Y0217326D01*
X0100481Y0217955D01*
X0100705Y0216473D02*
X0101963Y0216473D01*
X0101073Y0217363D02*
X0099889Y0217363D01*
X0099089Y0216563D02*
X0100832Y0214820D01*
X0100203Y0214191D01*
X0098460Y0215934D01*
X0099089Y0216563D01*
X0099313Y0215081D02*
X0100571Y0215081D01*
X0099681Y0215971D02*
X0098497Y0215971D01*
X0097697Y0215171D02*
X0099440Y0213428D01*
X0098811Y0212799D01*
X0097068Y0214542D01*
X0097697Y0215171D01*
X0097921Y0213689D02*
X0099179Y0213689D01*
X0098289Y0214579D02*
X0097105Y0214579D01*
X0096305Y0213779D02*
X0098048Y0212036D01*
X0097419Y0211407D01*
X0095676Y0213150D01*
X0096305Y0213779D01*
X0096529Y0212297D02*
X0097787Y0212297D01*
X0096897Y0213187D02*
X0095713Y0213187D01*
X0094913Y0212387D02*
X0096656Y0210644D01*
X0096027Y0210015D01*
X0094284Y0211758D01*
X0094913Y0212387D01*
X0095137Y0210905D02*
X0096395Y0210905D01*
X0095505Y0211795D02*
X0094321Y0211795D01*
X0093521Y0210995D02*
X0095264Y0209252D01*
X0094635Y0208623D01*
X0092892Y0210366D01*
X0093521Y0210995D01*
X0093745Y0209513D02*
X0095003Y0209513D01*
X0094113Y0210403D02*
X0092929Y0210403D01*
X0092129Y0209603D02*
X0093872Y0207860D01*
X0093243Y0207231D01*
X0091500Y0208974D01*
X0092129Y0209603D01*
X0092353Y0208121D02*
X0093611Y0208121D01*
X0092721Y0209011D02*
X0091537Y0209011D01*
X0090737Y0208211D02*
X0092480Y0206468D01*
X0091851Y0205839D01*
X0090108Y0207582D01*
X0090737Y0208211D01*
X0090961Y0206729D02*
X0092219Y0206729D01*
X0091329Y0207619D02*
X0090145Y0207619D01*
X0089345Y0206819D02*
X0091088Y0205076D01*
X0090459Y0204447D01*
X0088716Y0206190D01*
X0089345Y0206819D01*
X0089569Y0205337D02*
X0090827Y0205337D01*
X0089937Y0206227D02*
X0088753Y0206227D01*
X0087953Y0205427D02*
X0089696Y0203684D01*
X0089067Y0203055D01*
X0087324Y0204798D01*
X0087953Y0205427D01*
X0088177Y0203945D02*
X0089435Y0203945D01*
X0088545Y0204835D02*
X0087361Y0204835D01*
X0086561Y0204035D02*
X0088304Y0202292D01*
X0087675Y0201663D01*
X0085932Y0203406D01*
X0086561Y0204035D01*
X0086785Y0202553D02*
X0088043Y0202553D01*
X0087153Y0203443D02*
X0085969Y0203443D01*
X0085170Y0202643D02*
X0086913Y0200900D01*
X0086284Y0200271D01*
X0084541Y0202014D01*
X0085170Y0202643D01*
X0085394Y0201161D02*
X0086652Y0201161D01*
X0085762Y0202051D02*
X0084578Y0202051D01*
X0083778Y0201251D02*
X0085521Y0199508D01*
X0084892Y0198879D01*
X0083149Y0200622D01*
X0083778Y0201251D01*
X0084002Y0199769D02*
X0085260Y0199769D01*
X0084370Y0200659D02*
X0083186Y0200659D01*
X0084892Y0198050D02*
X0085521Y0197421D01*
X0083778Y0195678D01*
X0083149Y0196307D01*
X0084892Y0198050D01*
X0084668Y0196568D02*
X0083410Y0196568D01*
X0084300Y0197458D02*
X0085484Y0197458D01*
X0086284Y0196658D02*
X0086913Y0196029D01*
X0085170Y0194286D01*
X0084541Y0194915D01*
X0086284Y0196658D01*
X0086060Y0195176D02*
X0084802Y0195176D01*
X0085692Y0196066D02*
X0086876Y0196066D01*
X0087675Y0195266D02*
X0088304Y0194637D01*
X0086561Y0192894D01*
X0085932Y0193523D01*
X0087675Y0195266D01*
X0087451Y0193784D02*
X0086193Y0193784D01*
X0087083Y0194674D02*
X0088267Y0194674D01*
X0089067Y0193874D02*
X0089696Y0193245D01*
X0087953Y0191502D01*
X0087324Y0192131D01*
X0089067Y0193874D01*
X0088843Y0192392D02*
X0087585Y0192392D01*
X0088475Y0193282D02*
X0089659Y0193282D01*
X0090459Y0192482D02*
X0091088Y0191853D01*
X0089345Y0190110D01*
X0088716Y0190739D01*
X0090459Y0192482D01*
X0090235Y0191000D02*
X0088977Y0191000D01*
X0089867Y0191890D02*
X0091051Y0191890D01*
X0091851Y0191090D02*
X0092480Y0190461D01*
X0090737Y0188718D01*
X0090108Y0189347D01*
X0091851Y0191090D01*
X0091627Y0189608D02*
X0090369Y0189608D01*
X0091259Y0190498D02*
X0092443Y0190498D01*
X0093243Y0189698D02*
X0093872Y0189069D01*
X0092129Y0187326D01*
X0091500Y0187955D01*
X0093243Y0189698D01*
X0093019Y0188216D02*
X0091761Y0188216D01*
X0092651Y0189106D02*
X0093835Y0189106D01*
X0094635Y0188306D02*
X0095264Y0187677D01*
X0093521Y0185934D01*
X0092892Y0186563D01*
X0094635Y0188306D01*
X0094411Y0186824D02*
X0093153Y0186824D01*
X0094043Y0187714D02*
X0095227Y0187714D01*
X0096027Y0186914D02*
X0096656Y0186285D01*
X0094913Y0184542D01*
X0094284Y0185171D01*
X0096027Y0186914D01*
X0095803Y0185432D02*
X0094545Y0185432D01*
X0095435Y0186322D02*
X0096619Y0186322D01*
D48*
X0168322Y0140125D03*
X0177378Y0140125D03*
D49*
X0229069Y0081266D02*
X0228584Y0080781D01*
X0228190Y0080219D01*
X0227900Y0079597D01*
X0227723Y0078934D01*
X0227663Y0078250D01*
X0227723Y0077566D01*
X0227900Y0076903D01*
X0228190Y0076281D01*
X0228584Y0075719D01*
X0229069Y0075234D01*
X0229631Y0074840D01*
X0230253Y0074550D01*
X0230916Y0074373D01*
X0231600Y0074313D01*
X0232284Y0074373D01*
X0232947Y0074550D01*
X0233569Y0074840D01*
X0234131Y0075234D01*
X0234616Y0075719D01*
X0235010Y0076281D01*
X0235300Y0076903D01*
X0235477Y0077566D01*
X0235537Y0078250D01*
X0235477Y0078934D01*
X0235300Y0079597D01*
X0235010Y0080219D01*
X0234616Y0080781D01*
X0234131Y0081266D01*
X0233569Y0081660D01*
X0232947Y0081950D01*
X0232284Y0082127D01*
X0231600Y0082187D01*
X0230916Y0082127D01*
X0230253Y0081950D01*
X0229631Y0081660D01*
X0229069Y0081266D01*
X0228851Y0081048D02*
X0234349Y0081048D01*
X0234778Y0080549D02*
X0228422Y0080549D01*
X0228112Y0080051D02*
X0235088Y0080051D01*
X0235312Y0079552D02*
X0227888Y0079552D01*
X0227755Y0079053D02*
X0235445Y0079053D01*
X0235510Y0078555D02*
X0227690Y0078555D01*
X0227680Y0078056D02*
X0235520Y0078056D01*
X0235475Y0077558D02*
X0227725Y0077558D01*
X0227859Y0077059D02*
X0235341Y0077059D01*
X0235140Y0076561D02*
X0228060Y0076561D01*
X0228344Y0076062D02*
X0234856Y0076062D01*
X0234460Y0075564D02*
X0228740Y0075564D01*
X0229310Y0075065D02*
X0233890Y0075065D01*
X0232982Y0074567D02*
X0230218Y0074567D01*
X0229469Y0081546D02*
X0233731Y0081546D01*
X0232592Y0082045D02*
X0230608Y0082045D01*
X0014616Y0250719D02*
X0015010Y0251281D01*
X0015300Y0251903D01*
X0015477Y0252566D01*
X0015537Y0253250D01*
X0015477Y0253934D01*
X0015300Y0254597D01*
X0015010Y0255219D01*
X0014616Y0255781D01*
X0014131Y0256266D01*
X0013569Y0256660D01*
X0012947Y0256950D01*
X0012284Y0257127D01*
X0011600Y0257187D01*
X0010916Y0257127D01*
X0010253Y0256950D01*
X0009631Y0256660D01*
X0009069Y0256266D01*
X0008584Y0255781D01*
X0008190Y0255219D01*
X0007900Y0254597D01*
X0007723Y0253934D01*
X0007663Y0253250D01*
X0007723Y0252566D01*
X0007900Y0251903D01*
X0008190Y0251281D01*
X0008584Y0250719D01*
X0009069Y0250234D01*
X0009631Y0249840D01*
X0010253Y0249550D01*
X0010916Y0249373D01*
X0011600Y0249313D01*
X0012284Y0249373D01*
X0012947Y0249550D01*
X0013569Y0249840D01*
X0014131Y0250234D01*
X0014616Y0250719D01*
X0014438Y0250541D02*
X0008762Y0250541D01*
X0008360Y0251040D02*
X0014840Y0251040D01*
X0015129Y0251538D02*
X0008071Y0251538D01*
X0007865Y0252037D02*
X0015335Y0252037D01*
X0015469Y0252535D02*
X0007731Y0252535D01*
X0007682Y0253034D02*
X0015518Y0253034D01*
X0015512Y0253532D02*
X0007688Y0253532D01*
X0007749Y0254031D02*
X0015451Y0254031D01*
X0015318Y0254529D02*
X0007882Y0254529D01*
X0008102Y0255028D02*
X0015098Y0255028D01*
X0014794Y0255527D02*
X0008406Y0255527D01*
X0008828Y0256025D02*
X0014372Y0256025D01*
X0013763Y0256524D02*
X0009437Y0256524D01*
X0010524Y0257022D02*
X0012676Y0257022D01*
X0013858Y0250043D02*
X0009342Y0250043D01*
X0010276Y0249544D02*
X0012924Y0249544D01*
D50*
X0208785Y0048250D03*
X0208785Y0033250D03*
X0224415Y0033250D03*
X0224415Y0048250D03*
M02*
