G75*
%MOIN*%
%OFA0B0*%
%FSLAX25Y25*%
%IPPOS*%
%LPD*%
%AMOC8*
5,1,8,0,0,1.08239X$1,22.5*
%
%ADD10R,0.04528X0.01181*%
%ADD11R,0.01181X0.04528*%
%ADD12C,0.00591*%
%ADD13R,0.04724X0.04724*%
%ADD14R,0.06299X0.05906*%
%ADD15R,0.03937X0.04331*%
%ADD16R,0.02756X0.03543*%
%ADD17R,0.03543X0.02756*%
%ADD18R,0.04331X0.03937*%
%ADD19C,0.01181*%
%ADD20R,0.06299X0.02992*%
D10*
X0108155Y0064094D03*
X0108155Y0066063D03*
X0108155Y0068031D03*
X0108155Y0070000D03*
X0108155Y0071969D03*
X0108155Y0073937D03*
X0108155Y0075906D03*
X0127052Y0075906D03*
X0127052Y0073937D03*
X0127052Y0071969D03*
X0127052Y0070000D03*
X0127052Y0068031D03*
X0127052Y0066063D03*
X0127052Y0064094D03*
X0138155Y0124094D03*
X0138155Y0126063D03*
X0138155Y0128031D03*
X0138155Y0130000D03*
X0138155Y0131969D03*
X0138155Y0133937D03*
X0138155Y0135906D03*
X0157052Y0135906D03*
X0157052Y0133937D03*
X0157052Y0131969D03*
X0157052Y0130000D03*
X0157052Y0128031D03*
X0157052Y0126063D03*
X0157052Y0124094D03*
X0082052Y0124094D03*
X0082052Y0126063D03*
X0082052Y0128031D03*
X0082052Y0130000D03*
X0082052Y0131969D03*
X0082052Y0133937D03*
X0082052Y0135906D03*
X0063155Y0135906D03*
X0063155Y0133937D03*
X0063155Y0131969D03*
X0063155Y0130000D03*
X0063155Y0128031D03*
X0063155Y0126063D03*
X0063155Y0124094D03*
D11*
X0066698Y0120551D03*
X0068667Y0120551D03*
X0070635Y0120551D03*
X0072604Y0120551D03*
X0074572Y0120551D03*
X0076541Y0120551D03*
X0078509Y0120551D03*
X0078509Y0139449D03*
X0076541Y0139449D03*
X0074572Y0139449D03*
X0072604Y0139449D03*
X0070635Y0139449D03*
X0068667Y0139449D03*
X0066698Y0139449D03*
X0111698Y0079449D03*
X0113667Y0079449D03*
X0115635Y0079449D03*
X0117604Y0079449D03*
X0119572Y0079449D03*
X0121541Y0079449D03*
X0123509Y0079449D03*
X0123509Y0060551D03*
X0121541Y0060551D03*
X0119572Y0060551D03*
X0117604Y0060551D03*
X0115635Y0060551D03*
X0113667Y0060551D03*
X0111698Y0060551D03*
X0141698Y0120551D03*
X0143667Y0120551D03*
X0145635Y0120551D03*
X0147604Y0120551D03*
X0149572Y0120551D03*
X0151541Y0120551D03*
X0153509Y0120551D03*
X0153509Y0139449D03*
X0151541Y0139449D03*
X0149572Y0139449D03*
X0147604Y0139449D03*
X0145635Y0139449D03*
X0143667Y0139449D03*
X0141698Y0139449D03*
D12*
X0142879Y0135512D02*
X0153115Y0135512D01*
X0153115Y0124488D01*
X0142092Y0124488D01*
X0142092Y0134724D01*
X0142356Y0134842D01*
X0142584Y0135020D01*
X0142762Y0135248D01*
X0142879Y0135512D01*
X0142599Y0135039D02*
X0153115Y0135039D01*
X0153115Y0134450D02*
X0142092Y0134450D01*
X0142092Y0133861D02*
X0153115Y0133861D01*
X0153115Y0133272D02*
X0142092Y0133272D01*
X0142092Y0132683D02*
X0153115Y0132683D01*
X0153115Y0132094D02*
X0142092Y0132094D01*
X0142092Y0131505D02*
X0153115Y0131505D01*
X0153115Y0130916D02*
X0142092Y0130916D01*
X0142092Y0130327D02*
X0153115Y0130327D01*
X0153115Y0129737D02*
X0142092Y0129737D01*
X0142092Y0129148D02*
X0153115Y0129148D01*
X0153115Y0128559D02*
X0142092Y0128559D01*
X0142092Y0127970D02*
X0153115Y0127970D01*
X0153115Y0127381D02*
X0142092Y0127381D01*
X0142092Y0126792D02*
X0153115Y0126792D01*
X0153115Y0126203D02*
X0142092Y0126203D01*
X0142092Y0125614D02*
X0153115Y0125614D01*
X0153115Y0125025D02*
X0142092Y0125025D01*
X0123115Y0075512D02*
X0112879Y0075512D01*
X0112762Y0075248D01*
X0112584Y0075020D01*
X0112356Y0074842D01*
X0112092Y0074724D01*
X0112092Y0064488D01*
X0123115Y0064488D01*
X0123115Y0075512D01*
X0123115Y0074955D02*
X0112501Y0074955D01*
X0112092Y0074366D02*
X0123115Y0074366D01*
X0123115Y0073777D02*
X0112092Y0073777D01*
X0112092Y0073188D02*
X0123115Y0073188D01*
X0123115Y0072598D02*
X0112092Y0072598D01*
X0112092Y0072009D02*
X0123115Y0072009D01*
X0123115Y0071420D02*
X0112092Y0071420D01*
X0112092Y0070831D02*
X0123115Y0070831D01*
X0123115Y0070242D02*
X0112092Y0070242D01*
X0112092Y0069653D02*
X0123115Y0069653D01*
X0123115Y0069064D02*
X0112092Y0069064D01*
X0112092Y0068475D02*
X0123115Y0068475D01*
X0123115Y0067886D02*
X0112092Y0067886D01*
X0112092Y0067297D02*
X0123115Y0067297D01*
X0123115Y0066708D02*
X0112092Y0066708D01*
X0112092Y0066119D02*
X0123115Y0066119D01*
X0123115Y0065530D02*
X0112092Y0065530D01*
X0112092Y0064941D02*
X0123115Y0064941D01*
X0078115Y0124488D02*
X0067092Y0124488D01*
X0067092Y0134724D01*
X0067356Y0134842D01*
X0067584Y0135020D01*
X0067762Y0135248D01*
X0067879Y0135512D01*
X0078115Y0135512D01*
X0078115Y0124488D01*
X0078115Y0125025D02*
X0067092Y0125025D01*
X0067092Y0125614D02*
X0078115Y0125614D01*
X0078115Y0126203D02*
X0067092Y0126203D01*
X0067092Y0126792D02*
X0078115Y0126792D01*
X0078115Y0127381D02*
X0067092Y0127381D01*
X0067092Y0127970D02*
X0078115Y0127970D01*
X0078115Y0128559D02*
X0067092Y0128559D01*
X0067092Y0129148D02*
X0078115Y0129148D01*
X0078115Y0129737D02*
X0067092Y0129737D01*
X0067092Y0130327D02*
X0078115Y0130327D01*
X0078115Y0130916D02*
X0067092Y0130916D01*
X0067092Y0131505D02*
X0078115Y0131505D01*
X0078115Y0132094D02*
X0067092Y0132094D01*
X0067092Y0132683D02*
X0078115Y0132683D01*
X0078115Y0133272D02*
X0067092Y0133272D01*
X0067092Y0133861D02*
X0078115Y0133861D01*
X0078115Y0134450D02*
X0067092Y0134450D01*
X0067599Y0135039D02*
X0078115Y0135039D01*
D13*
X0092417Y0112913D03*
X0100291Y0112913D03*
X0164760Y0112913D03*
X0172634Y0112913D03*
X0147791Y0052913D03*
X0139917Y0052913D03*
D14*
X0143854Y0065709D03*
X0168697Y0125709D03*
X0096354Y0125709D03*
D15*
X0090950Y0155000D03*
X0084257Y0155000D03*
X0060950Y0155625D03*
X0054257Y0155625D03*
X0089257Y0095000D03*
X0095950Y0095000D03*
X0134257Y0095000D03*
X0140950Y0095000D03*
X0159257Y0155000D03*
X0165950Y0155000D03*
D16*
X0165044Y0145000D03*
X0170163Y0145000D03*
X0135163Y0147500D03*
X0130044Y0147500D03*
X0095163Y0145000D03*
X0090044Y0145000D03*
X0055788Y0146250D03*
X0050669Y0146250D03*
X0063794Y0107500D03*
X0068913Y0107500D03*
X0077544Y0107500D03*
X0082663Y0107500D03*
X0090044Y0085000D03*
X0095163Y0085000D03*
X0135044Y0110000D03*
X0140163Y0110000D03*
X0150044Y0110000D03*
X0155163Y0110000D03*
X0145163Y0085000D03*
X0140044Y0085000D03*
X0130163Y0045000D03*
X0125044Y0045000D03*
X0115163Y0045000D03*
X0110044Y0045000D03*
X0107663Y0193125D03*
X0102544Y0193125D03*
X0094538Y0193125D03*
X0089419Y0193125D03*
X0151294Y0193125D03*
X0156413Y0193125D03*
D17*
X0087604Y0067441D03*
X0087604Y0072559D03*
X0052604Y0122441D03*
X0052604Y0127559D03*
X0123854Y0127441D03*
X0123854Y0132559D03*
D18*
X0140104Y0154154D03*
X0140104Y0160846D03*
D19*
X0124678Y0191122D02*
X0124678Y0193878D01*
X0127434Y0193878D01*
X0127434Y0191122D01*
X0124678Y0191122D01*
X0124678Y0192302D02*
X0127434Y0192302D01*
X0127434Y0193482D02*
X0124678Y0193482D01*
X0117773Y0193878D02*
X0117773Y0191122D01*
X0117773Y0193878D02*
X0120529Y0193878D01*
X0120529Y0191122D01*
X0117773Y0191122D01*
X0117773Y0192302D02*
X0120529Y0192302D01*
X0120529Y0193482D02*
X0117773Y0193482D01*
X0078059Y0193878D02*
X0078059Y0191122D01*
X0075303Y0191122D01*
X0075303Y0193878D01*
X0078059Y0193878D01*
X0078059Y0192302D02*
X0075303Y0192302D01*
X0075303Y0193482D02*
X0078059Y0193482D01*
X0071154Y0193878D02*
X0071154Y0191122D01*
X0068398Y0191122D01*
X0068398Y0193878D01*
X0071154Y0193878D01*
X0071154Y0192302D02*
X0068398Y0192302D01*
X0068398Y0193482D02*
X0071154Y0193482D01*
X0168398Y0193878D02*
X0168398Y0191122D01*
X0168398Y0193878D02*
X0171154Y0193878D01*
X0171154Y0191122D01*
X0168398Y0191122D01*
X0168398Y0192302D02*
X0171154Y0192302D01*
X0171154Y0193482D02*
X0168398Y0193482D01*
X0175303Y0193878D02*
X0175303Y0191122D01*
X0175303Y0193878D02*
X0178059Y0193878D01*
X0178059Y0191122D01*
X0175303Y0191122D01*
X0175303Y0192302D02*
X0178059Y0192302D01*
X0178059Y0193482D02*
X0175303Y0193482D01*
D20*
X0152604Y0023000D03*
X0152604Y0018000D03*
X0132604Y0018000D03*
X0132604Y0023000D03*
X0112604Y0023000D03*
X0112604Y0018000D03*
X0092604Y0018000D03*
X0092604Y0023000D03*
M02*
