G75*
%MOIN*%
%OFA0B0*%
%FSLAX25Y25*%
%IPPOS*%
%LPD*%
%AMOC8*
5,1,8,0,0,1.08239X$1,22.5*
%
%ADD10C,0.13198*%
%ADD11R,0.05128X0.01781*%
%ADD12R,0.01781X0.05128*%
%ADD13C,0.00591*%
%ADD14R,0.05324X0.05324*%
%ADD15R,0.06899X0.06506*%
%ADD16R,0.04537X0.04931*%
%ADD17R,0.03356X0.04143*%
%ADD18R,0.04143X0.03356*%
%ADD19R,0.08277X0.08277*%
%ADD20C,0.08277*%
%ADD21R,0.04931X0.04537*%
%ADD22C,0.08000*%
%ADD23C,0.01361*%
%ADD24C,0.06506*%
%ADD25C,0.00500*%
%ADD26R,0.06899X0.03592*%
%ADD27OC8,0.04000*%
D10*
X0037604Y0185000D03*
X0207604Y0015000D03*
D11*
X0127052Y0064094D03*
X0127052Y0066063D03*
X0127052Y0068031D03*
X0127052Y0070000D03*
X0127052Y0071969D03*
X0127052Y0073937D03*
X0127052Y0075906D03*
X0108155Y0075906D03*
X0108155Y0073937D03*
X0108155Y0071969D03*
X0108155Y0070000D03*
X0108155Y0068031D03*
X0108155Y0066063D03*
X0108155Y0064094D03*
X0082052Y0124094D03*
X0082052Y0126063D03*
X0082052Y0128031D03*
X0082052Y0130000D03*
X0082052Y0131969D03*
X0082052Y0133937D03*
X0082052Y0135906D03*
X0063155Y0135906D03*
X0063155Y0133937D03*
X0063155Y0131969D03*
X0063155Y0130000D03*
X0063155Y0128031D03*
X0063155Y0126063D03*
X0063155Y0124094D03*
X0138155Y0124094D03*
X0138155Y0126063D03*
X0138155Y0128031D03*
X0138155Y0130000D03*
X0138155Y0131969D03*
X0138155Y0133937D03*
X0138155Y0135906D03*
X0157052Y0135906D03*
X0157052Y0133937D03*
X0157052Y0131969D03*
X0157052Y0130000D03*
X0157052Y0128031D03*
X0157052Y0126063D03*
X0157052Y0124094D03*
D12*
X0153509Y0120551D03*
X0151541Y0120551D03*
X0149572Y0120551D03*
X0147604Y0120551D03*
X0145635Y0120551D03*
X0143667Y0120551D03*
X0141698Y0120551D03*
X0141698Y0139449D03*
X0143667Y0139449D03*
X0145635Y0139449D03*
X0147604Y0139449D03*
X0149572Y0139449D03*
X0151541Y0139449D03*
X0153509Y0139449D03*
X0123509Y0079449D03*
X0121541Y0079449D03*
X0119572Y0079449D03*
X0117604Y0079449D03*
X0115635Y0079449D03*
X0113667Y0079449D03*
X0111698Y0079449D03*
X0111698Y0060551D03*
X0113667Y0060551D03*
X0115635Y0060551D03*
X0117604Y0060551D03*
X0119572Y0060551D03*
X0121541Y0060551D03*
X0123509Y0060551D03*
X0078509Y0120551D03*
X0076541Y0120551D03*
X0074572Y0120551D03*
X0072604Y0120551D03*
X0070635Y0120551D03*
X0068667Y0120551D03*
X0066698Y0120551D03*
X0066698Y0139449D03*
X0068667Y0139449D03*
X0070635Y0139449D03*
X0072604Y0139449D03*
X0074572Y0139449D03*
X0076541Y0139449D03*
X0078509Y0139449D03*
D13*
X0078509Y0135906D02*
X0078509Y0124094D01*
X0066698Y0124094D01*
X0066698Y0134921D01*
X0066950Y0134960D01*
X0067185Y0135060D01*
X0067387Y0135217D01*
X0067543Y0135419D01*
X0067644Y0135653D01*
X0067682Y0135906D01*
X0078509Y0135906D01*
X0078509Y0135628D02*
X0067633Y0135628D01*
X0067135Y0135039D02*
X0078509Y0135039D01*
X0078509Y0134450D02*
X0066698Y0134450D01*
X0066698Y0133861D02*
X0078509Y0133861D01*
X0078509Y0133272D02*
X0066698Y0133272D01*
X0066698Y0132683D02*
X0078509Y0132683D01*
X0078509Y0132094D02*
X0066698Y0132094D01*
X0066698Y0131505D02*
X0078509Y0131505D01*
X0078509Y0130916D02*
X0066698Y0130916D01*
X0066698Y0130327D02*
X0078509Y0130327D01*
X0078509Y0129737D02*
X0066698Y0129737D01*
X0066698Y0129148D02*
X0078509Y0129148D01*
X0078509Y0128559D02*
X0066698Y0128559D01*
X0066698Y0127970D02*
X0078509Y0127970D01*
X0078509Y0127381D02*
X0066698Y0127381D01*
X0066698Y0126792D02*
X0078509Y0126792D01*
X0078509Y0126203D02*
X0066698Y0126203D01*
X0066698Y0125614D02*
X0078509Y0125614D01*
X0078509Y0125025D02*
X0066698Y0125025D01*
X0066698Y0124436D02*
X0078509Y0124436D01*
X0112682Y0075906D02*
X0123509Y0075906D01*
X0123509Y0064094D01*
X0111698Y0064094D01*
X0111698Y0074921D01*
X0111950Y0074960D01*
X0112185Y0075060D01*
X0112387Y0075217D01*
X0112543Y0075419D01*
X0112644Y0075653D01*
X0112682Y0075906D01*
X0112597Y0075544D02*
X0123509Y0075544D01*
X0123509Y0074955D02*
X0111917Y0074955D01*
X0111698Y0074366D02*
X0123509Y0074366D01*
X0123509Y0073777D02*
X0111698Y0073777D01*
X0111698Y0073188D02*
X0123509Y0073188D01*
X0123509Y0072598D02*
X0111698Y0072598D01*
X0111698Y0072009D02*
X0123509Y0072009D01*
X0123509Y0071420D02*
X0111698Y0071420D01*
X0111698Y0070831D02*
X0123509Y0070831D01*
X0123509Y0070242D02*
X0111698Y0070242D01*
X0111698Y0069653D02*
X0123509Y0069653D01*
X0123509Y0069064D02*
X0111698Y0069064D01*
X0111698Y0068475D02*
X0123509Y0068475D01*
X0123509Y0067886D02*
X0111698Y0067886D01*
X0111698Y0067297D02*
X0123509Y0067297D01*
X0123509Y0066708D02*
X0111698Y0066708D01*
X0111698Y0066119D02*
X0123509Y0066119D01*
X0123509Y0065530D02*
X0111698Y0065530D01*
X0111698Y0064941D02*
X0123509Y0064941D01*
X0123509Y0064352D02*
X0111698Y0064352D01*
X0141698Y0124094D02*
X0141698Y0134921D01*
X0141950Y0134960D01*
X0142185Y0135060D01*
X0142387Y0135217D01*
X0142543Y0135419D01*
X0142644Y0135653D01*
X0142682Y0135906D01*
X0153509Y0135906D01*
X0153509Y0124094D01*
X0141698Y0124094D01*
X0141698Y0124436D02*
X0153509Y0124436D01*
X0153509Y0125025D02*
X0141698Y0125025D01*
X0141698Y0125614D02*
X0153509Y0125614D01*
X0153509Y0126203D02*
X0141698Y0126203D01*
X0141698Y0126792D02*
X0153509Y0126792D01*
X0153509Y0127381D02*
X0141698Y0127381D01*
X0141698Y0127970D02*
X0153509Y0127970D01*
X0153509Y0128559D02*
X0141698Y0128559D01*
X0141698Y0129148D02*
X0153509Y0129148D01*
X0153509Y0129737D02*
X0141698Y0129737D01*
X0141698Y0130327D02*
X0153509Y0130327D01*
X0153509Y0130916D02*
X0141698Y0130916D01*
X0141698Y0131505D02*
X0153509Y0131505D01*
X0153509Y0132094D02*
X0141698Y0132094D01*
X0141698Y0132683D02*
X0153509Y0132683D01*
X0153509Y0133272D02*
X0141698Y0133272D01*
X0141698Y0133861D02*
X0153509Y0133861D01*
X0153509Y0134450D02*
X0141698Y0134450D01*
X0142135Y0135039D02*
X0153509Y0135039D01*
X0153509Y0135628D02*
X0142633Y0135628D01*
D14*
X0164760Y0112913D03*
X0172634Y0112913D03*
X0147791Y0052913D03*
X0139917Y0052913D03*
X0100291Y0112913D03*
X0092417Y0112913D03*
D15*
X0096354Y0125709D03*
X0143854Y0065709D03*
X0168697Y0125709D03*
D16*
X0165950Y0155000D03*
X0159257Y0155000D03*
X0140950Y0095000D03*
X0134257Y0095000D03*
X0095950Y0095000D03*
X0089257Y0095000D03*
X0090950Y0155000D03*
X0084257Y0155000D03*
X0060950Y0155625D03*
X0054257Y0155625D03*
D17*
X0055788Y0146250D03*
X0050669Y0146250D03*
X0090044Y0145000D03*
X0095163Y0145000D03*
X0130044Y0147500D03*
X0135163Y0147500D03*
X0165044Y0145000D03*
X0170163Y0145000D03*
X0155163Y0110000D03*
X0150044Y0110000D03*
X0140163Y0110000D03*
X0135044Y0110000D03*
X0140044Y0085000D03*
X0145163Y0085000D03*
X0130163Y0045000D03*
X0125044Y0045000D03*
X0115163Y0045000D03*
X0110044Y0045000D03*
X0095163Y0085000D03*
X0090044Y0085000D03*
X0082663Y0107500D03*
X0077544Y0107500D03*
X0068913Y0107500D03*
X0063794Y0107500D03*
X0089419Y0193125D03*
X0094538Y0193125D03*
X0102544Y0193125D03*
X0107663Y0193125D03*
X0151294Y0193125D03*
X0156413Y0193125D03*
D18*
X0123854Y0132559D03*
X0123854Y0127441D03*
X0087604Y0072559D03*
X0087604Y0067441D03*
X0052604Y0122441D03*
X0052604Y0127559D03*
D19*
X0057604Y0176000D03*
X0107604Y0176000D03*
X0157604Y0176000D03*
D20*
X0167604Y0176000D03*
X0177604Y0176000D03*
X0187604Y0176000D03*
X0137604Y0176000D03*
X0127604Y0176000D03*
X0117604Y0176000D03*
X0087604Y0176000D03*
X0077604Y0176000D03*
X0067604Y0176000D03*
X0057707Y0036299D03*
X0057707Y0008701D03*
D21*
X0140104Y0154154D03*
X0140104Y0160846D03*
D22*
X0197604Y0160000D03*
X0197604Y0150000D03*
X0197604Y0140000D03*
X0197604Y0130000D03*
X0197604Y0120000D03*
X0197604Y0110000D03*
X0197604Y0100000D03*
X0197604Y0090000D03*
X0197604Y0080000D03*
X0197604Y0070000D03*
X0197604Y0060000D03*
X0197604Y0050000D03*
X0032604Y0050000D03*
X0032604Y0060000D03*
X0032604Y0070000D03*
X0032604Y0080000D03*
X0032604Y0090000D03*
X0032604Y0100000D03*
X0032604Y0110000D03*
X0032604Y0120000D03*
X0032604Y0130000D03*
X0032604Y0140000D03*
X0032604Y0150000D03*
X0032604Y0160000D03*
D23*
X0071364Y0190912D02*
X0071364Y0194088D01*
X0071364Y0190912D02*
X0068188Y0190912D01*
X0068188Y0194088D01*
X0071364Y0194088D01*
X0071364Y0192272D02*
X0068188Y0192272D01*
X0068188Y0193632D02*
X0071364Y0193632D01*
X0078269Y0194088D02*
X0078269Y0190912D01*
X0075093Y0190912D01*
X0075093Y0194088D01*
X0078269Y0194088D01*
X0078269Y0192272D02*
X0075093Y0192272D01*
X0075093Y0193632D02*
X0078269Y0193632D01*
X0117563Y0194088D02*
X0117563Y0190912D01*
X0117563Y0194088D02*
X0120739Y0194088D01*
X0120739Y0190912D01*
X0117563Y0190912D01*
X0117563Y0192272D02*
X0120739Y0192272D01*
X0120739Y0193632D02*
X0117563Y0193632D01*
X0124468Y0194088D02*
X0124468Y0190912D01*
X0124468Y0194088D02*
X0127644Y0194088D01*
X0127644Y0190912D01*
X0124468Y0190912D01*
X0124468Y0192272D02*
X0127644Y0192272D01*
X0127644Y0193632D02*
X0124468Y0193632D01*
X0168188Y0194088D02*
X0168188Y0190912D01*
X0168188Y0194088D02*
X0171364Y0194088D01*
X0171364Y0190912D01*
X0168188Y0190912D01*
X0168188Y0192272D02*
X0171364Y0192272D01*
X0171364Y0193632D02*
X0168188Y0193632D01*
X0175093Y0194088D02*
X0175093Y0190912D01*
X0175093Y0194088D02*
X0178269Y0194088D01*
X0178269Y0190912D01*
X0175093Y0190912D01*
X0175093Y0192272D02*
X0178269Y0192272D01*
X0178269Y0193632D02*
X0175093Y0193632D01*
D24*
X0047904Y0016594D02*
X0047904Y0010689D01*
X0047904Y0028406D02*
X0047904Y0034311D01*
D25*
X0074194Y0014469D02*
X0073904Y0013847D01*
X0073726Y0013184D01*
X0073667Y0012500D01*
X0073726Y0011816D01*
X0073904Y0011153D01*
X0074194Y0010531D01*
X0074588Y0009969D01*
X0075073Y0009484D01*
X0075635Y0009090D01*
X0076257Y0008800D01*
X0076920Y0008623D01*
X0077604Y0008563D01*
X0078287Y0008623D01*
X0078950Y0008800D01*
X0079572Y0009090D01*
X0080134Y0009484D01*
X0080619Y0009969D01*
X0081013Y0010531D01*
X0081303Y0011153D01*
X0081481Y0011816D01*
X0081541Y0012500D01*
X0081481Y0013184D01*
X0081303Y0013847D01*
X0081013Y0014469D01*
X0080619Y0015031D01*
X0080134Y0015516D01*
X0079572Y0015910D01*
X0078950Y0016200D01*
X0078287Y0016377D01*
X0077604Y0016437D01*
X0076920Y0016377D01*
X0076257Y0016200D01*
X0075635Y0015910D01*
X0075073Y0015516D01*
X0074588Y0015031D01*
X0074194Y0014469D01*
X0074192Y0014464D02*
X0081015Y0014464D01*
X0081248Y0013966D02*
X0073960Y0013966D01*
X0073802Y0013467D02*
X0081405Y0013467D01*
X0081500Y0012969D02*
X0073708Y0012969D01*
X0073669Y0012470D02*
X0081538Y0012470D01*
X0081494Y0011972D02*
X0073713Y0011972D01*
X0073818Y0011473D02*
X0081389Y0011473D01*
X0081220Y0010975D02*
X0073987Y0010975D01*
X0074233Y0010476D02*
X0080974Y0010476D01*
X0080625Y0009978D02*
X0074582Y0009978D01*
X0075080Y0009479D02*
X0080127Y0009479D01*
X0079337Y0008981D02*
X0075871Y0008981D01*
X0074540Y0014963D02*
X0080667Y0014963D01*
X0080189Y0015461D02*
X0075018Y0015461D01*
X0075743Y0015960D02*
X0079464Y0015960D01*
X0210073Y0189484D02*
X0210635Y0189090D01*
X0211257Y0188800D01*
X0211920Y0188623D01*
X0212604Y0188563D01*
X0213287Y0188623D01*
X0213950Y0188800D01*
X0214572Y0189090D01*
X0215134Y0189484D01*
X0215619Y0189969D01*
X0216013Y0190531D01*
X0216303Y0191153D01*
X0216481Y0191816D01*
X0216541Y0192500D01*
X0216481Y0193184D01*
X0216303Y0193847D01*
X0216013Y0194469D01*
X0215619Y0195031D01*
X0215134Y0195516D01*
X0214572Y0195910D01*
X0213950Y0196200D01*
X0213287Y0196377D01*
X0212604Y0196437D01*
X0211920Y0196377D01*
X0211257Y0196200D01*
X0210635Y0195910D01*
X0210073Y0195516D01*
X0209588Y0195031D01*
X0209194Y0194469D01*
X0208904Y0193847D01*
X0208726Y0193184D01*
X0208667Y0192500D01*
X0208726Y0191816D01*
X0208904Y0191153D01*
X0209194Y0190531D01*
X0209588Y0189969D01*
X0210073Y0189484D01*
X0210133Y0189442D02*
X0215074Y0189442D01*
X0215590Y0189940D02*
X0209617Y0189940D01*
X0209259Y0190439D02*
X0215948Y0190439D01*
X0216202Y0190937D02*
X0209005Y0190937D01*
X0208828Y0191436D02*
X0216379Y0191436D01*
X0216491Y0191934D02*
X0208716Y0191934D01*
X0208672Y0192433D02*
X0216535Y0192433D01*
X0216503Y0192931D02*
X0208704Y0192931D01*
X0208792Y0193430D02*
X0216415Y0193430D01*
X0216265Y0193928D02*
X0208942Y0193928D01*
X0209175Y0194427D02*
X0216033Y0194427D01*
X0215693Y0194925D02*
X0209514Y0194925D01*
X0209981Y0195424D02*
X0215226Y0195424D01*
X0214545Y0195922D02*
X0210663Y0195922D01*
X0212419Y0196421D02*
X0212788Y0196421D01*
X0214256Y0188943D02*
X0210951Y0188943D01*
D26*
X0152604Y0023000D03*
X0152604Y0018000D03*
X0132604Y0018000D03*
X0132604Y0023000D03*
X0112604Y0023000D03*
X0112604Y0018000D03*
X0092604Y0018000D03*
X0092604Y0023000D03*
D27*
X0052604Y0098750D03*
M02*
