G75*
%MOIN*%
%OFA0B0*%
%FSLAX25Y25*%
%IPPOS*%
%LPD*%
%AMOC8*
5,1,8,0,0,1.08239X$1,22.5*
%
%ADD10C,0.00300*%
%ADD11C,0.00600*%
%ADD12C,0.00800*%
%ADD13C,0.00500*%
%ADD14C,0.00400*%
%ADD15C,0.01600*%
%ADD16C,0.01000*%
%ADD17R,0.05315X0.03543*%
%ADD18R,0.03543X0.05315*%
%ADD19C,0.00787*%
D10*
X0018216Y0059550D02*
X0018699Y0059550D01*
X0019183Y0060034D01*
X0019183Y0062452D01*
X0018699Y0062452D02*
X0019667Y0062452D01*
X0020678Y0061485D02*
X0021646Y0062452D01*
X0021646Y0059550D01*
X0022613Y0059550D02*
X0020678Y0059550D01*
X0018216Y0059550D02*
X0017732Y0060034D01*
X0013525Y0088185D02*
X0010623Y0088185D01*
X0010623Y0089637D01*
X0011106Y0090120D01*
X0012074Y0090120D01*
X0012558Y0089637D01*
X0012558Y0088185D01*
X0012558Y0089153D02*
X0013525Y0090120D01*
X0013525Y0091132D02*
X0013525Y0093067D01*
X0013525Y0092099D02*
X0010623Y0092099D01*
X0011590Y0091132D01*
X0011590Y0094078D02*
X0011106Y0094078D01*
X0010623Y0094562D01*
X0010623Y0095530D01*
X0011106Y0096013D01*
X0011590Y0096013D01*
X0012074Y0095530D01*
X0012074Y0094562D01*
X0011590Y0094078D01*
X0012074Y0094562D02*
X0012558Y0094078D01*
X0013041Y0094078D01*
X0013525Y0094562D01*
X0013525Y0095530D01*
X0013041Y0096013D01*
X0012558Y0096013D01*
X0012074Y0095530D01*
X0033000Y0113400D02*
X0034935Y0113400D01*
X0033967Y0113400D02*
X0033967Y0116302D01*
X0033000Y0115335D01*
X0035947Y0115819D02*
X0036430Y0116302D01*
X0037398Y0116302D01*
X0037881Y0115819D01*
X0037881Y0115335D01*
X0035947Y0113400D01*
X0037881Y0113400D01*
X0038893Y0114367D02*
X0039861Y0113400D01*
X0040828Y0114367D01*
X0040828Y0116302D01*
X0038893Y0116302D02*
X0038893Y0114367D01*
X0039131Y0123400D02*
X0037197Y0123400D01*
X0039131Y0125335D01*
X0039131Y0125819D01*
X0038648Y0126302D01*
X0037680Y0126302D01*
X0037197Y0125819D01*
X0035217Y0126302D02*
X0035217Y0123400D01*
X0034250Y0123400D02*
X0036185Y0123400D01*
X0034250Y0125335D02*
X0035217Y0126302D01*
X0040143Y0126302D02*
X0040143Y0124367D01*
X0041111Y0123400D01*
X0042078Y0124367D01*
X0042078Y0126302D01*
X0041594Y0133400D02*
X0042078Y0133884D01*
X0042078Y0135819D01*
X0041594Y0136302D01*
X0040143Y0136302D01*
X0040143Y0133400D01*
X0041594Y0133400D01*
X0039131Y0133400D02*
X0039131Y0136302D01*
X0037197Y0136302D02*
X0037197Y0133400D01*
X0036185Y0133884D02*
X0036185Y0134851D01*
X0035217Y0134851D01*
X0034250Y0133884D02*
X0034734Y0133400D01*
X0035701Y0133400D01*
X0036185Y0133884D01*
X0036185Y0135819D02*
X0035701Y0136302D01*
X0034734Y0136302D01*
X0034250Y0135819D01*
X0034250Y0133884D01*
X0037197Y0136302D02*
X0039131Y0133400D01*
X0038648Y0139650D02*
X0039131Y0140134D01*
X0039131Y0142069D01*
X0038648Y0142552D01*
X0037197Y0142552D01*
X0037197Y0139650D01*
X0038648Y0139650D01*
X0040143Y0139650D02*
X0040143Y0140134D01*
X0042078Y0142069D01*
X0042078Y0142552D01*
X0040143Y0142552D01*
X0044250Y0142552D02*
X0044250Y0139650D01*
X0044250Y0140617D02*
X0045701Y0140617D01*
X0046185Y0141101D01*
X0046185Y0142069D01*
X0045701Y0142552D01*
X0044250Y0142552D01*
X0047197Y0142552D02*
X0047197Y0139650D01*
X0048648Y0139650D01*
X0049131Y0140134D01*
X0049131Y0142069D01*
X0048648Y0142552D01*
X0047197Y0142552D01*
X0050143Y0141101D02*
X0050143Y0140134D01*
X0050627Y0139650D01*
X0051594Y0139650D01*
X0052078Y0140134D01*
X0052078Y0140617D01*
X0051594Y0141101D01*
X0050143Y0141101D01*
X0051111Y0142069D01*
X0052078Y0142552D01*
X0057373Y0150632D02*
X0059791Y0150632D01*
X0060275Y0151116D01*
X0060275Y0152083D01*
X0059791Y0152567D01*
X0057373Y0152567D01*
X0057373Y0153578D02*
X0057373Y0155513D01*
X0057856Y0155513D01*
X0059791Y0153578D01*
X0060275Y0153578D01*
X0063625Y0150052D02*
X0065560Y0150052D01*
X0064592Y0150052D02*
X0064592Y0147150D01*
X0066572Y0147150D02*
X0068506Y0147150D01*
X0067539Y0147150D02*
X0067539Y0150052D01*
X0066572Y0149085D01*
X0078949Y0161315D02*
X0081001Y0163368D01*
X0079633Y0163368D01*
X0078265Y0161999D02*
X0079633Y0160631D01*
X0077549Y0162715D02*
X0076181Y0164083D01*
X0076865Y0163399D02*
X0078918Y0165451D01*
X0077549Y0165451D01*
X0077176Y0166508D02*
X0077176Y0167193D01*
X0076492Y0167877D01*
X0075808Y0167877D01*
X0074440Y0166508D01*
X0074440Y0165824D01*
X0075124Y0165140D01*
X0075808Y0165140D01*
X0073483Y0177273D02*
X0070747Y0177273D01*
X0070405Y0176931D01*
X0070031Y0177988D02*
X0069347Y0177988D01*
X0068663Y0178672D01*
X0068663Y0179356D01*
X0070031Y0180724D01*
X0070715Y0180724D01*
X0071400Y0180040D01*
X0071400Y0179356D01*
X0072457Y0178983D02*
X0073825Y0177615D01*
X0073483Y0177273D01*
X0090119Y0160849D02*
X0090803Y0160165D01*
X0090461Y0160507D02*
X0092514Y0162560D01*
X0092172Y0162902D02*
X0092856Y0162217D01*
X0093218Y0161171D02*
X0091850Y0159802D01*
X0091850Y0159118D01*
X0092534Y0158434D01*
X0093218Y0158434D01*
X0093592Y0157377D02*
X0094960Y0156008D01*
X0094276Y0156693D02*
X0096328Y0158745D01*
X0094960Y0158745D01*
X0094587Y0159802D02*
X0094587Y0160486D01*
X0093903Y0161171D01*
X0093218Y0161171D01*
X0102194Y0170664D02*
X0104931Y0170664D01*
X0105273Y0171006D01*
X0105273Y0171691D01*
X0104589Y0172375D01*
X0103905Y0172375D01*
X0103189Y0173090D02*
X0103189Y0173774D01*
X0102505Y0174458D01*
X0101821Y0174458D01*
X0100453Y0173090D01*
X0100453Y0172406D01*
X0101137Y0171722D01*
X0101821Y0171722D01*
X0102194Y0170664D02*
X0103563Y0169296D01*
X0099406Y0173453D02*
X0098722Y0174137D01*
X0099064Y0173795D02*
X0101116Y0175847D01*
X0100774Y0176189D02*
X0101458Y0175505D01*
X0121983Y0161331D02*
X0124035Y0163383D01*
X0125061Y0162357D01*
X0125061Y0161673D01*
X0124377Y0160989D01*
X0123693Y0160989D01*
X0122667Y0162015D01*
X0123351Y0161331D02*
X0123351Y0159963D01*
X0124408Y0159590D02*
X0124408Y0158905D01*
X0125092Y0158221D01*
X0125776Y0158221D01*
X0126118Y0158563D01*
X0126118Y0159248D01*
X0125092Y0160274D01*
X0124408Y0159590D01*
X0125092Y0160274D02*
X0126461Y0160274D01*
X0127487Y0159932D01*
X0129066Y0164248D02*
X0129408Y0164590D01*
X0132145Y0164590D01*
X0132487Y0164932D01*
X0131118Y0166300D01*
X0130061Y0166673D02*
X0129377Y0165989D01*
X0128693Y0165989D01*
X0127667Y0167015D01*
X0128351Y0166331D02*
X0128351Y0164963D01*
X0126983Y0166331D02*
X0129035Y0168383D01*
X0130061Y0167357D01*
X0130061Y0166673D01*
X0149673Y0154064D02*
X0150640Y0153097D01*
X0150156Y0152085D02*
X0152091Y0152085D01*
X0152575Y0151601D01*
X0152575Y0150634D01*
X0152091Y0150150D01*
X0150156Y0150150D01*
X0149673Y0150634D01*
X0149673Y0151601D01*
X0150156Y0152085D01*
X0151608Y0151117D02*
X0152575Y0152085D01*
X0152575Y0153097D02*
X0152575Y0155031D01*
X0152575Y0154064D02*
X0149673Y0154064D01*
X0167000Y0147177D02*
X0167000Y0144275D01*
X0168451Y0144275D01*
X0168935Y0144759D01*
X0168935Y0146694D01*
X0168451Y0147177D01*
X0167000Y0147177D01*
X0169947Y0146694D02*
X0170430Y0147177D01*
X0171398Y0147177D01*
X0171881Y0146694D01*
X0171881Y0146210D01*
X0171398Y0145726D01*
X0171881Y0145242D01*
X0171881Y0144759D01*
X0171398Y0144275D01*
X0170430Y0144275D01*
X0169947Y0144759D01*
X0170914Y0145726D02*
X0171398Y0145726D01*
X0177375Y0146302D02*
X0177375Y0143400D01*
X0177375Y0144367D02*
X0178826Y0144367D01*
X0179310Y0144851D01*
X0179310Y0145819D01*
X0178826Y0146302D01*
X0177375Y0146302D01*
X0180322Y0146302D02*
X0180322Y0143400D01*
X0180322Y0144851D02*
X0181289Y0144851D01*
X0180322Y0146302D02*
X0182256Y0146302D01*
X0183268Y0146302D02*
X0185203Y0146302D01*
X0185203Y0145819D01*
X0183268Y0143884D01*
X0183268Y0143400D01*
X0183418Y0136302D02*
X0181483Y0136302D01*
X0181483Y0133400D01*
X0183418Y0133400D01*
X0184429Y0133884D02*
X0184913Y0133400D01*
X0185880Y0133400D01*
X0186364Y0133884D01*
X0186364Y0134851D01*
X0185880Y0135335D01*
X0185397Y0135335D01*
X0184429Y0134851D01*
X0184429Y0136302D01*
X0186364Y0136302D01*
X0182450Y0134851D02*
X0181483Y0134851D01*
X0180471Y0134851D02*
X0180471Y0135819D01*
X0179987Y0136302D01*
X0178536Y0136302D01*
X0178536Y0133400D01*
X0178536Y0134367D02*
X0179987Y0134367D01*
X0180471Y0134851D01*
X0177525Y0136302D02*
X0175590Y0133400D01*
X0174578Y0133884D02*
X0174094Y0133400D01*
X0173127Y0133400D01*
X0172643Y0133884D01*
X0174578Y0135819D01*
X0174578Y0133884D01*
X0174578Y0135819D02*
X0174094Y0136302D01*
X0173127Y0136302D01*
X0172643Y0135819D01*
X0172643Y0133884D01*
X0170664Y0134851D02*
X0169697Y0134851D01*
X0168685Y0134851D02*
X0168201Y0134367D01*
X0166750Y0134367D01*
X0166750Y0133400D02*
X0166750Y0136302D01*
X0168201Y0136302D01*
X0168685Y0135819D01*
X0168685Y0134851D01*
X0169697Y0133400D02*
X0169697Y0136302D01*
X0171631Y0136302D01*
X0177375Y0126302D02*
X0177375Y0124851D01*
X0178342Y0125335D01*
X0178826Y0125335D01*
X0179310Y0124851D01*
X0179310Y0123884D01*
X0178826Y0123400D01*
X0177859Y0123400D01*
X0177375Y0123884D01*
X0177375Y0126302D02*
X0179310Y0126302D01*
X0180322Y0126302D02*
X0180322Y0124367D01*
X0181289Y0123400D01*
X0182256Y0124367D01*
X0182256Y0126302D01*
X0181594Y0116302D02*
X0180143Y0116302D01*
X0180143Y0113400D01*
X0181594Y0113400D01*
X0182078Y0113884D01*
X0182078Y0115819D01*
X0181594Y0116302D01*
X0179131Y0116302D02*
X0179131Y0113400D01*
X0177197Y0116302D01*
X0177197Y0113400D01*
X0176185Y0113884D02*
X0176185Y0114851D01*
X0175217Y0114851D01*
X0174250Y0113884D02*
X0174250Y0115819D01*
X0174734Y0116302D01*
X0175701Y0116302D01*
X0176185Y0115819D01*
X0176185Y0113884D02*
X0175701Y0113400D01*
X0174734Y0113400D01*
X0174250Y0113884D01*
X0162881Y0113742D02*
X0162881Y0113259D01*
X0162398Y0112775D01*
X0161430Y0112775D01*
X0160947Y0113259D01*
X0161914Y0114226D02*
X0162398Y0114226D01*
X0162881Y0113742D01*
X0162398Y0114226D02*
X0162881Y0114710D01*
X0162881Y0115194D01*
X0162398Y0115677D01*
X0161430Y0115677D01*
X0160947Y0115194D01*
X0159935Y0115677D02*
X0158000Y0115677D01*
X0158967Y0115677D02*
X0158967Y0112775D01*
X0153592Y0112441D02*
X0153592Y0113408D01*
X0153108Y0113892D01*
X0150689Y0113892D01*
X0151657Y0114904D02*
X0150689Y0115871D01*
X0153592Y0115871D01*
X0153592Y0114904D02*
X0153592Y0116839D01*
X0152141Y0117850D02*
X0152141Y0119785D01*
X0153592Y0119301D02*
X0150689Y0119301D01*
X0152141Y0117850D01*
X0153592Y0112441D02*
X0153108Y0111957D01*
X0150689Y0111957D01*
X0132357Y0104113D02*
X0132357Y0101210D01*
X0133324Y0101210D02*
X0131389Y0101210D01*
X0130378Y0101694D02*
X0130378Y0104113D01*
X0131389Y0103145D02*
X0132357Y0104113D01*
X0130378Y0101694D02*
X0129894Y0101210D01*
X0128927Y0101210D01*
X0128443Y0101694D01*
X0128443Y0104113D01*
X0119904Y0083906D02*
X0120388Y0083423D01*
X0120388Y0082455D01*
X0119904Y0081972D01*
X0119904Y0080960D02*
X0120388Y0080476D01*
X0120388Y0079509D01*
X0119904Y0079025D01*
X0117969Y0079025D01*
X0117486Y0079509D01*
X0117486Y0080476D01*
X0117969Y0080960D01*
X0117969Y0081972D02*
X0117486Y0082455D01*
X0117486Y0083423D01*
X0117969Y0083906D01*
X0118453Y0083906D01*
X0118937Y0083423D01*
X0119421Y0083906D01*
X0119904Y0083906D01*
X0118937Y0083423D02*
X0118937Y0082939D01*
X0086263Y0118444D02*
X0083361Y0118444D01*
X0083361Y0119896D01*
X0083844Y0120379D01*
X0085779Y0120379D01*
X0086263Y0119896D01*
X0086263Y0118444D01*
X0086263Y0121391D02*
X0084328Y0123326D01*
X0083844Y0123326D01*
X0083361Y0122842D01*
X0083361Y0121875D01*
X0083844Y0121391D01*
X0086263Y0121391D02*
X0086263Y0123326D01*
X0079575Y0104156D02*
X0079575Y0102222D01*
X0079575Y0103189D02*
X0076673Y0103189D01*
X0077640Y0102222D01*
X0076673Y0101210D02*
X0076673Y0099275D01*
X0079575Y0099275D01*
X0078124Y0099275D02*
X0078124Y0100242D01*
X0056712Y0097544D02*
X0056228Y0098028D01*
X0055745Y0098028D01*
X0055261Y0097544D01*
X0055261Y0096093D01*
X0056228Y0096093D01*
X0056712Y0096577D01*
X0056712Y0097544D01*
X0055261Y0096093D02*
X0054293Y0097061D01*
X0053810Y0098028D01*
X0054293Y0095082D02*
X0053810Y0094598D01*
X0053810Y0093630D01*
X0054293Y0093147D01*
X0056228Y0093147D01*
X0056712Y0093630D01*
X0056712Y0094598D01*
X0056228Y0095082D01*
X0049358Y0095127D02*
X0049358Y0093192D01*
X0047423Y0095127D01*
X0046940Y0095127D01*
X0046456Y0094643D01*
X0046456Y0093676D01*
X0046940Y0093192D01*
X0046456Y0092180D02*
X0048875Y0092180D01*
X0049358Y0091697D01*
X0049358Y0090729D01*
X0048875Y0090245D01*
X0046456Y0090245D01*
X0047688Y0115638D02*
X0049139Y0115638D01*
X0049623Y0116122D01*
X0049623Y0118057D01*
X0049139Y0118540D01*
X0047688Y0118540D01*
X0047688Y0115638D01*
X0050634Y0115638D02*
X0052569Y0115638D01*
X0051602Y0115638D02*
X0051602Y0118540D01*
X0050634Y0117573D01*
X0060948Y0126151D02*
X0063367Y0126151D01*
X0063851Y0126634D01*
X0063851Y0127602D01*
X0063367Y0128086D01*
X0060948Y0128086D01*
X0062400Y0129097D02*
X0062400Y0130548D01*
X0062883Y0131032D01*
X0063367Y0131032D01*
X0063851Y0130548D01*
X0063851Y0129581D01*
X0063367Y0129097D01*
X0062400Y0129097D01*
X0061432Y0130065D01*
X0060948Y0131032D01*
X0082717Y0147150D02*
X0082717Y0150052D01*
X0081750Y0150052D02*
X0083685Y0150052D01*
X0084697Y0149569D02*
X0085180Y0150052D01*
X0086148Y0150052D01*
X0086631Y0149569D01*
X0086631Y0149085D01*
X0084697Y0147150D01*
X0086631Y0147150D01*
X0052078Y0175134D02*
X0051594Y0174650D01*
X0050627Y0174650D01*
X0050143Y0175134D01*
X0050143Y0176101D02*
X0051111Y0176585D01*
X0051594Y0176585D01*
X0052078Y0176101D01*
X0052078Y0175134D01*
X0050143Y0176101D02*
X0050143Y0177552D01*
X0052078Y0177552D01*
X0049131Y0177069D02*
X0048648Y0177552D01*
X0047197Y0177552D01*
X0047197Y0174650D01*
X0048648Y0174650D01*
X0049131Y0175134D01*
X0049131Y0177069D01*
X0046185Y0177069D02*
X0046185Y0176101D01*
X0045701Y0175617D01*
X0044250Y0175617D01*
X0044250Y0174650D02*
X0044250Y0177552D01*
X0045701Y0177552D01*
X0046185Y0177069D01*
X0042078Y0177552D02*
X0040143Y0177552D01*
X0040143Y0176101D01*
X0041111Y0176585D01*
X0041594Y0176585D01*
X0042078Y0176101D01*
X0042078Y0175134D01*
X0041594Y0174650D01*
X0040627Y0174650D01*
X0040143Y0175134D01*
X0039131Y0175134D02*
X0038648Y0174650D01*
X0037680Y0174650D01*
X0037197Y0175134D01*
X0037197Y0177069D01*
X0037680Y0177552D01*
X0038648Y0177552D01*
X0039131Y0177069D01*
X0036185Y0177069D02*
X0036185Y0176101D01*
X0035701Y0175617D01*
X0034250Y0175617D01*
X0034250Y0174650D02*
X0034250Y0177552D01*
X0035701Y0177552D01*
X0036185Y0177069D01*
X0037680Y0182775D02*
X0038648Y0182775D01*
X0039131Y0183259D01*
X0040143Y0184226D02*
X0042078Y0184226D01*
X0041594Y0182775D02*
X0041594Y0185677D01*
X0040143Y0184226D01*
X0039131Y0185194D02*
X0038648Y0185677D01*
X0037680Y0185677D01*
X0037197Y0185194D01*
X0037197Y0183259D01*
X0037680Y0182775D01*
X0036185Y0184226D02*
X0035701Y0183742D01*
X0034250Y0183742D01*
X0034250Y0182775D02*
X0034250Y0185677D01*
X0035701Y0185677D01*
X0036185Y0185194D01*
X0036185Y0184226D01*
X0037680Y0193400D02*
X0038648Y0193400D01*
X0039131Y0193884D01*
X0040143Y0193884D02*
X0040627Y0193400D01*
X0041594Y0193400D01*
X0042078Y0193884D01*
X0042078Y0194367D01*
X0041594Y0194851D01*
X0041111Y0194851D01*
X0041594Y0194851D02*
X0042078Y0195335D01*
X0042078Y0195819D01*
X0041594Y0196302D01*
X0040627Y0196302D01*
X0040143Y0195819D01*
X0039131Y0195819D02*
X0038648Y0196302D01*
X0037680Y0196302D01*
X0037197Y0195819D01*
X0037197Y0193884D01*
X0037680Y0193400D01*
X0036185Y0194851D02*
X0035701Y0194367D01*
X0034250Y0194367D01*
X0034250Y0193400D02*
X0034250Y0196302D01*
X0035701Y0196302D01*
X0036185Y0195819D01*
X0036185Y0194851D01*
X0037680Y0203400D02*
X0038648Y0203400D01*
X0039131Y0203884D01*
X0040143Y0203400D02*
X0042078Y0205335D01*
X0042078Y0205819D01*
X0041594Y0206302D01*
X0040627Y0206302D01*
X0040143Y0205819D01*
X0039131Y0205819D02*
X0038648Y0206302D01*
X0037680Y0206302D01*
X0037197Y0205819D01*
X0037197Y0203884D01*
X0037680Y0203400D01*
X0036185Y0204851D02*
X0035701Y0204367D01*
X0034250Y0204367D01*
X0034250Y0203400D02*
X0034250Y0206302D01*
X0035701Y0206302D01*
X0036185Y0205819D01*
X0036185Y0204851D01*
X0040143Y0203400D02*
X0042078Y0203400D01*
X0042078Y0213400D02*
X0040143Y0213400D01*
X0041111Y0213400D02*
X0041111Y0216302D01*
X0040143Y0215335D01*
X0039131Y0215819D02*
X0038648Y0216302D01*
X0037680Y0216302D01*
X0037197Y0215819D01*
X0037197Y0213884D01*
X0037680Y0213400D01*
X0038648Y0213400D01*
X0039131Y0213884D01*
X0036185Y0214851D02*
X0035701Y0214367D01*
X0034250Y0214367D01*
X0034250Y0213400D02*
X0034250Y0216302D01*
X0035701Y0216302D01*
X0036185Y0215819D01*
X0036185Y0214851D01*
X0037680Y0223400D02*
X0038648Y0223400D01*
X0039131Y0223884D01*
X0040143Y0223884D02*
X0042078Y0225819D01*
X0042078Y0223884D01*
X0041594Y0223400D01*
X0040627Y0223400D01*
X0040143Y0223884D01*
X0040143Y0225819D01*
X0040627Y0226302D01*
X0041594Y0226302D01*
X0042078Y0225819D01*
X0039131Y0225819D02*
X0038648Y0226302D01*
X0037680Y0226302D01*
X0037197Y0225819D01*
X0037197Y0223884D01*
X0037680Y0223400D01*
X0036185Y0224851D02*
X0036185Y0225819D01*
X0035701Y0226302D01*
X0034250Y0226302D01*
X0034250Y0223400D01*
X0034250Y0224367D02*
X0035701Y0224367D01*
X0036185Y0224851D01*
X0048649Y0247317D02*
X0046938Y0249027D01*
X0048307Y0250395D02*
X0050017Y0248685D01*
X0050017Y0248001D01*
X0049333Y0247317D01*
X0048649Y0247317D01*
X0051074Y0249058D02*
X0052442Y0250427D01*
X0051758Y0249742D02*
X0049706Y0251795D01*
X0049706Y0250427D01*
X0051447Y0252852D02*
X0051447Y0253536D01*
X0052132Y0254220D01*
X0052816Y0254220D01*
X0052816Y0251484D01*
X0053500Y0251484D01*
X0054184Y0252168D01*
X0054184Y0252852D01*
X0052816Y0254220D01*
X0051447Y0252852D02*
X0052816Y0251484D01*
X0055406Y0200781D02*
X0054923Y0200298D01*
X0054923Y0199330D01*
X0055406Y0198847D01*
X0055890Y0198847D01*
X0056374Y0199330D01*
X0056374Y0200781D01*
X0057341Y0200781D02*
X0055406Y0200781D01*
X0057341Y0200781D02*
X0057825Y0200298D01*
X0057825Y0199330D01*
X0057341Y0198847D01*
X0057825Y0197835D02*
X0056858Y0196867D01*
X0056858Y0197351D02*
X0056858Y0195900D01*
X0057825Y0195900D02*
X0054923Y0195900D01*
X0054923Y0197351D01*
X0055406Y0197835D01*
X0056374Y0197835D01*
X0056858Y0197351D01*
X0013673Y0156863D02*
X0011738Y0156863D01*
X0011738Y0155412D01*
X0012705Y0155896D01*
X0013189Y0155896D01*
X0013673Y0155412D01*
X0013673Y0154445D01*
X0013189Y0153961D01*
X0012221Y0153961D01*
X0011738Y0154445D01*
X0010726Y0153961D02*
X0008791Y0153961D01*
X0009758Y0153961D02*
X0009758Y0156863D01*
X0008791Y0155896D01*
X0007779Y0156863D02*
X0007779Y0154445D01*
X0007296Y0153961D01*
X0006328Y0153961D01*
X0005844Y0154445D01*
X0005844Y0156863D01*
X0034250Y0142552D02*
X0034250Y0139650D01*
X0034250Y0140617D02*
X0035701Y0140617D01*
X0036185Y0141101D01*
X0036185Y0142069D01*
X0035701Y0142552D01*
X0034250Y0142552D01*
X0073342Y0068177D02*
X0074310Y0068177D01*
X0073826Y0068177D02*
X0073826Y0065759D01*
X0073342Y0065275D01*
X0072859Y0065275D01*
X0072375Y0065759D01*
X0075322Y0066726D02*
X0077256Y0066726D01*
X0076773Y0065275D02*
X0076773Y0068177D01*
X0075322Y0066726D01*
X0177375Y0153400D02*
X0177375Y0156302D01*
X0178826Y0156302D01*
X0179310Y0155819D01*
X0179310Y0154851D01*
X0178826Y0154367D01*
X0177375Y0154367D01*
X0180322Y0154851D02*
X0181289Y0154851D01*
X0180322Y0153400D02*
X0180322Y0156302D01*
X0182256Y0156302D01*
X0183268Y0154851D02*
X0184719Y0154851D01*
X0185203Y0154367D01*
X0185203Y0153884D01*
X0184719Y0153400D01*
X0183752Y0153400D01*
X0183268Y0153884D01*
X0183268Y0154851D01*
X0184236Y0155819D01*
X0185203Y0156302D01*
X0184719Y0163400D02*
X0183752Y0163400D01*
X0183268Y0163884D01*
X0183268Y0164851D02*
X0184236Y0165335D01*
X0184719Y0165335D01*
X0185203Y0164851D01*
X0185203Y0163884D01*
X0184719Y0163400D01*
X0183268Y0164851D02*
X0183268Y0166302D01*
X0185203Y0166302D01*
X0182256Y0166302D02*
X0180322Y0166302D01*
X0180322Y0163400D01*
X0180322Y0164851D02*
X0181289Y0164851D01*
X0179310Y0164851D02*
X0178826Y0164367D01*
X0177375Y0164367D01*
X0177375Y0163400D02*
X0177375Y0166302D01*
X0178826Y0166302D01*
X0179310Y0165819D01*
X0179310Y0164851D01*
X0180322Y0170275D02*
X0180322Y0173177D01*
X0182256Y0173177D01*
X0181289Y0171726D02*
X0180322Y0171726D01*
X0179310Y0171726D02*
X0178826Y0171242D01*
X0177375Y0171242D01*
X0177375Y0170275D02*
X0177375Y0173177D01*
X0178826Y0173177D01*
X0179310Y0172694D01*
X0179310Y0171726D01*
X0183268Y0171726D02*
X0185203Y0171726D01*
X0184719Y0170275D02*
X0184719Y0173177D01*
X0183268Y0171726D01*
X0183752Y0183400D02*
X0183268Y0183884D01*
X0183752Y0183400D02*
X0184719Y0183400D01*
X0185203Y0183884D01*
X0185203Y0184367D01*
X0184719Y0184851D01*
X0184236Y0184851D01*
X0184719Y0184851D02*
X0185203Y0185335D01*
X0185203Y0185819D01*
X0184719Y0186302D01*
X0183752Y0186302D01*
X0183268Y0185819D01*
X0182256Y0186302D02*
X0180322Y0186302D01*
X0180322Y0183400D01*
X0180322Y0184851D02*
X0181289Y0184851D01*
X0179310Y0184851D02*
X0178826Y0184367D01*
X0177375Y0184367D01*
X0177375Y0183400D02*
X0177375Y0186302D01*
X0178826Y0186302D01*
X0179310Y0185819D01*
X0179310Y0184851D01*
X0180322Y0193400D02*
X0180322Y0196302D01*
X0182256Y0196302D01*
X0183268Y0195819D02*
X0183752Y0196302D01*
X0184719Y0196302D01*
X0185203Y0195819D01*
X0185203Y0195335D01*
X0183268Y0193400D01*
X0185203Y0193400D01*
X0181289Y0194851D02*
X0180322Y0194851D01*
X0179310Y0194851D02*
X0178826Y0194367D01*
X0177375Y0194367D01*
X0177375Y0193400D02*
X0177375Y0196302D01*
X0178826Y0196302D01*
X0179310Y0195819D01*
X0179310Y0194851D01*
X0180322Y0203400D02*
X0180322Y0206302D01*
X0182256Y0206302D01*
X0183268Y0205335D02*
X0184236Y0206302D01*
X0184236Y0203400D01*
X0185203Y0203400D02*
X0183268Y0203400D01*
X0181289Y0204851D02*
X0180322Y0204851D01*
X0179310Y0204851D02*
X0178826Y0204367D01*
X0177375Y0204367D01*
X0177375Y0203400D02*
X0177375Y0206302D01*
X0178826Y0206302D01*
X0179310Y0205819D01*
X0179310Y0204851D01*
X0180322Y0213400D02*
X0182256Y0213400D01*
X0183268Y0213400D02*
X0185203Y0213400D01*
X0184236Y0213400D02*
X0184236Y0216302D01*
X0183268Y0215335D01*
X0182256Y0216302D02*
X0180322Y0216302D01*
X0180322Y0213400D01*
X0180322Y0214851D02*
X0181289Y0214851D01*
X0179310Y0214851D02*
X0178826Y0214367D01*
X0177375Y0214367D01*
X0177375Y0213400D02*
X0177375Y0216302D01*
X0178826Y0216302D01*
X0179310Y0215819D01*
X0179310Y0214851D01*
X0180322Y0223400D02*
X0182256Y0223400D01*
X0183268Y0223884D02*
X0185203Y0225819D01*
X0185203Y0223884D01*
X0184719Y0223400D01*
X0183752Y0223400D01*
X0183268Y0223884D01*
X0183268Y0225819D01*
X0183752Y0226302D01*
X0184719Y0226302D01*
X0185203Y0225819D01*
X0182256Y0226302D02*
X0180322Y0226302D01*
X0180322Y0223400D01*
X0180322Y0224851D02*
X0181289Y0224851D01*
X0179310Y0224851D02*
X0178826Y0224367D01*
X0177375Y0224367D01*
X0177375Y0223400D02*
X0177375Y0226302D01*
X0178826Y0226302D01*
X0179310Y0225819D01*
X0179310Y0224851D01*
X0176841Y0239900D02*
X0174423Y0239900D01*
X0174423Y0241835D02*
X0176841Y0241835D01*
X0177325Y0241351D01*
X0177325Y0240384D01*
X0176841Y0239900D01*
X0177325Y0242847D02*
X0177325Y0244781D01*
X0177325Y0243814D02*
X0174423Y0243814D01*
X0175390Y0242847D01*
X0174906Y0245793D02*
X0174423Y0246277D01*
X0174423Y0247244D01*
X0174906Y0247728D01*
X0175390Y0247728D01*
X0177325Y0245793D01*
X0177325Y0247728D01*
X0178918Y0251435D02*
X0180853Y0251435D01*
X0181337Y0251919D01*
X0181337Y0252887D01*
X0180853Y0253370D01*
X0181337Y0254382D02*
X0181337Y0256317D01*
X0181337Y0255349D02*
X0178435Y0255349D01*
X0179402Y0254382D01*
X0178918Y0253370D02*
X0178435Y0252887D01*
X0178435Y0251919D01*
X0178918Y0251435D01*
X0178918Y0257328D02*
X0178435Y0257812D01*
X0178435Y0258780D01*
X0178918Y0259263D01*
X0180853Y0259263D01*
X0181337Y0258780D01*
X0181337Y0257812D01*
X0180853Y0257328D01*
X0179886Y0257812D02*
X0179886Y0259263D01*
X0179886Y0257812D02*
X0179402Y0257328D01*
X0178918Y0257328D01*
X0153025Y0245221D02*
X0152541Y0245704D01*
X0152058Y0245704D01*
X0151574Y0245221D01*
X0151574Y0243769D01*
X0152541Y0243769D01*
X0153025Y0244253D01*
X0153025Y0245221D01*
X0151574Y0243769D02*
X0150606Y0244737D01*
X0150123Y0245704D01*
X0150123Y0241790D02*
X0153025Y0241790D01*
X0153025Y0240823D02*
X0153025Y0242758D01*
X0151090Y0240823D02*
X0150123Y0241790D01*
X0150606Y0239811D02*
X0150123Y0239328D01*
X0150123Y0238360D01*
X0150606Y0237876D01*
X0152541Y0237876D01*
X0153025Y0238360D01*
X0153025Y0239328D01*
X0152541Y0239811D01*
X0146665Y0240936D02*
X0146665Y0241620D01*
X0145297Y0242988D01*
X0144613Y0242988D01*
X0143928Y0242304D01*
X0143928Y0241620D01*
X0144271Y0241278D01*
X0144955Y0241278D01*
X0145981Y0242304D01*
X0146665Y0240936D02*
X0145981Y0240252D01*
X0145297Y0240252D01*
X0144581Y0239537D02*
X0142871Y0241247D01*
X0141503Y0239879D02*
X0143213Y0238168D01*
X0143897Y0238168D01*
X0144581Y0238852D01*
X0144581Y0239537D01*
X0130732Y0242367D02*
X0130732Y0243051D01*
X0129364Y0244420D01*
X0128680Y0244420D01*
X0127996Y0243736D01*
X0127996Y0243051D01*
X0128338Y0242709D01*
X0129022Y0242709D01*
X0130048Y0243736D01*
X0130732Y0242367D02*
X0130048Y0241683D01*
X0129364Y0241683D01*
X0128649Y0240968D02*
X0128649Y0240284D01*
X0127965Y0239600D01*
X0127280Y0239600D01*
X0125912Y0240968D01*
X0125912Y0241652D01*
X0126596Y0242336D01*
X0127280Y0242336D01*
X0152205Y0217775D02*
X0151521Y0217091D01*
X0151521Y0216407D01*
X0152889Y0215039D01*
X0153573Y0215039D01*
X0154257Y0215723D01*
X0154257Y0216407D01*
X0154973Y0217122D02*
X0154631Y0217464D01*
X0154631Y0218148D01*
X0155315Y0218832D01*
X0155999Y0218832D01*
X0156341Y0218490D01*
X0156341Y0217806D01*
X0155657Y0217122D01*
X0154973Y0217122D01*
X0154631Y0218148D02*
X0153947Y0218148D01*
X0153604Y0218490D01*
X0153604Y0219175D01*
X0154289Y0219859D01*
X0154973Y0219859D01*
X0155315Y0219517D01*
X0155315Y0218832D01*
X0152889Y0217775D02*
X0152205Y0217775D01*
X0158253Y0187477D02*
X0159220Y0187477D01*
X0158737Y0187477D02*
X0158737Y0185059D01*
X0158253Y0184575D01*
X0157769Y0184575D01*
X0157285Y0185059D01*
X0160232Y0185542D02*
X0161683Y0185542D01*
X0162167Y0186026D01*
X0162167Y0186994D01*
X0161683Y0187477D01*
X0160232Y0187477D01*
X0160232Y0184575D01*
X0163178Y0184575D02*
X0165113Y0184575D01*
X0164146Y0184575D02*
X0164146Y0187477D01*
X0163178Y0186510D01*
X0206638Y0188430D02*
X0209057Y0188430D01*
X0209541Y0188913D01*
X0209541Y0189881D01*
X0209057Y0190365D01*
X0206638Y0190365D01*
X0207606Y0191376D02*
X0206638Y0192344D01*
X0209541Y0192344D01*
X0209541Y0193311D02*
X0209541Y0191376D01*
X0209541Y0194323D02*
X0209541Y0196258D01*
X0209541Y0195290D02*
X0206638Y0195290D01*
X0207606Y0194323D01*
X0261486Y0172675D02*
X0261486Y0171707D01*
X0261969Y0171223D01*
X0261486Y0170212D02*
X0261486Y0169244D01*
X0261486Y0169728D02*
X0263904Y0169728D01*
X0264388Y0169244D01*
X0264388Y0168761D01*
X0263904Y0168277D01*
X0264388Y0171223D02*
X0262453Y0173158D01*
X0261969Y0173158D01*
X0261486Y0172675D01*
X0264388Y0173158D02*
X0264388Y0171223D01*
X0242117Y0136032D02*
X0242601Y0135548D01*
X0242601Y0134581D01*
X0242117Y0134097D01*
X0241150Y0134097D02*
X0240666Y0135065D01*
X0240666Y0135548D01*
X0241150Y0136032D01*
X0242117Y0136032D01*
X0241150Y0134097D02*
X0239698Y0134097D01*
X0239698Y0136032D01*
X0239698Y0133086D02*
X0242117Y0133086D01*
X0242601Y0132602D01*
X0242601Y0131634D01*
X0242117Y0131151D01*
X0239698Y0131151D01*
X0242234Y0126739D02*
X0241750Y0126256D01*
X0241750Y0124321D01*
X0242234Y0123837D01*
X0243201Y0123837D01*
X0243685Y0124321D01*
X0244697Y0123837D02*
X0246631Y0125772D01*
X0246631Y0126256D01*
X0246148Y0126739D01*
X0245180Y0126739D01*
X0244697Y0126256D01*
X0243685Y0126256D02*
X0243201Y0126739D01*
X0242234Y0126739D01*
X0244697Y0123837D02*
X0246631Y0123837D01*
X0260761Y0083791D02*
X0261729Y0083791D01*
X0261245Y0083791D02*
X0261245Y0081373D01*
X0260761Y0080889D01*
X0260278Y0080889D01*
X0259794Y0081373D01*
X0262740Y0081373D02*
X0262740Y0082340D01*
X0264192Y0082340D01*
X0264675Y0081856D01*
X0264675Y0081373D01*
X0264192Y0080889D01*
X0263224Y0080889D01*
X0262740Y0081373D01*
X0262740Y0082340D02*
X0263708Y0083308D01*
X0264675Y0083791D01*
X0264675Y0048791D02*
X0262740Y0048791D01*
X0262740Y0047340D01*
X0263708Y0047824D01*
X0264192Y0047824D01*
X0264675Y0047340D01*
X0264675Y0046373D01*
X0264192Y0045889D01*
X0263224Y0045889D01*
X0262740Y0046373D01*
X0261245Y0046373D02*
X0261245Y0048791D01*
X0260761Y0048791D02*
X0261729Y0048791D01*
X0261245Y0046373D02*
X0260761Y0045889D01*
X0260278Y0045889D01*
X0259794Y0046373D01*
X0260136Y0039416D02*
X0261104Y0039416D01*
X0260620Y0039416D02*
X0260620Y0036998D01*
X0260136Y0036514D01*
X0259653Y0036514D01*
X0259169Y0036998D01*
X0262115Y0036998D02*
X0262599Y0036514D01*
X0263567Y0036514D01*
X0264050Y0036998D01*
X0264050Y0037481D01*
X0263567Y0037965D01*
X0263083Y0037965D01*
X0263567Y0037965D02*
X0264050Y0038449D01*
X0264050Y0038933D01*
X0263567Y0039416D01*
X0262599Y0039416D01*
X0262115Y0038933D01*
X0232631Y0040384D02*
X0232148Y0039900D01*
X0231180Y0039900D01*
X0230697Y0040384D01*
X0230697Y0040867D01*
X0231180Y0041351D01*
X0232148Y0041351D01*
X0232631Y0040867D01*
X0232631Y0040384D01*
X0232148Y0041351D02*
X0232631Y0041835D01*
X0232631Y0042319D01*
X0232148Y0042802D01*
X0231180Y0042802D01*
X0230697Y0042319D01*
X0230697Y0041835D01*
X0231180Y0041351D01*
X0229685Y0040384D02*
X0229685Y0042802D01*
X0227750Y0042802D02*
X0227750Y0040384D01*
X0228234Y0039900D01*
X0229201Y0039900D01*
X0229685Y0040384D01*
X0213643Y0054900D02*
X0213643Y0055384D01*
X0215578Y0057319D01*
X0215578Y0057802D01*
X0213643Y0057802D01*
X0211664Y0057802D02*
X0211664Y0054900D01*
X0210697Y0054900D02*
X0212631Y0054900D01*
X0210697Y0056835D02*
X0211664Y0057802D01*
X0209685Y0057802D02*
X0209685Y0055384D01*
X0209201Y0054900D01*
X0208234Y0054900D01*
X0207750Y0055384D01*
X0207750Y0057802D01*
X0223250Y0019677D02*
X0223250Y0016775D01*
X0225185Y0016775D01*
X0226197Y0016775D02*
X0226197Y0019677D01*
X0228131Y0019677D01*
X0229143Y0019677D02*
X0229143Y0016775D01*
X0230594Y0016775D01*
X0231078Y0017259D01*
X0231078Y0019194D01*
X0230594Y0019677D01*
X0229143Y0019677D01*
X0227164Y0018226D02*
X0226197Y0018226D01*
X0226197Y0016775D02*
X0228131Y0016775D01*
X0232090Y0016775D02*
X0234025Y0016775D01*
X0233057Y0016775D02*
X0233057Y0019677D01*
X0232090Y0018710D01*
X0203015Y0104756D02*
X0200597Y0104756D01*
X0200597Y0106691D02*
X0203015Y0106691D01*
X0203499Y0106208D01*
X0203499Y0105240D01*
X0203015Y0104756D01*
X0203499Y0107703D02*
X0203499Y0109638D01*
X0203499Y0108670D02*
X0200597Y0108670D01*
X0201564Y0107703D01*
X0201080Y0110649D02*
X0200597Y0111133D01*
X0200597Y0112101D01*
X0201080Y0112584D01*
X0201564Y0112584D01*
X0202048Y0112101D01*
X0202532Y0112584D01*
X0203015Y0112584D01*
X0203499Y0112101D01*
X0203499Y0111133D01*
X0203015Y0110649D01*
X0202048Y0111617D02*
X0202048Y0112101D01*
D11*
X0204757Y0111600D02*
X0204757Y0104853D01*
X0215958Y0104853D02*
X0215958Y0111600D01*
X0227242Y0129900D02*
X0227242Y0136647D01*
X0238443Y0136647D02*
X0238443Y0129900D01*
X0188100Y0078250D02*
X0188104Y0078581D01*
X0188116Y0078912D01*
X0188137Y0079243D01*
X0188165Y0079573D01*
X0188202Y0079903D01*
X0188246Y0080231D01*
X0188299Y0080558D01*
X0188359Y0080884D01*
X0188428Y0081208D01*
X0188505Y0081530D01*
X0188589Y0081851D01*
X0188681Y0082169D01*
X0188781Y0082485D01*
X0188889Y0082798D01*
X0189005Y0083109D01*
X0189128Y0083416D01*
X0189258Y0083721D01*
X0189396Y0084022D01*
X0189541Y0084320D01*
X0189694Y0084614D01*
X0189854Y0084904D01*
X0190021Y0085190D01*
X0190194Y0085472D01*
X0190375Y0085750D01*
X0190563Y0086023D01*
X0190757Y0086292D01*
X0190957Y0086556D01*
X0191164Y0086814D01*
X0191378Y0087068D01*
X0191597Y0087316D01*
X0191823Y0087559D01*
X0192054Y0087796D01*
X0192291Y0088027D01*
X0192534Y0088253D01*
X0192782Y0088472D01*
X0193036Y0088686D01*
X0193294Y0088893D01*
X0193558Y0089093D01*
X0193827Y0089287D01*
X0194100Y0089475D01*
X0194378Y0089656D01*
X0194660Y0089829D01*
X0194946Y0089996D01*
X0195236Y0090156D01*
X0195530Y0090309D01*
X0195828Y0090454D01*
X0196129Y0090592D01*
X0196434Y0090722D01*
X0196741Y0090845D01*
X0197052Y0090961D01*
X0197365Y0091069D01*
X0197681Y0091169D01*
X0197999Y0091261D01*
X0198320Y0091345D01*
X0198642Y0091422D01*
X0198966Y0091491D01*
X0199292Y0091551D01*
X0199619Y0091604D01*
X0199947Y0091648D01*
X0200277Y0091685D01*
X0200607Y0091713D01*
X0200938Y0091734D01*
X0201269Y0091746D01*
X0201600Y0091750D01*
X0201931Y0091746D01*
X0202262Y0091734D01*
X0202593Y0091713D01*
X0202923Y0091685D01*
X0203253Y0091648D01*
X0203581Y0091604D01*
X0203908Y0091551D01*
X0204234Y0091491D01*
X0204558Y0091422D01*
X0204880Y0091345D01*
X0205201Y0091261D01*
X0205519Y0091169D01*
X0205835Y0091069D01*
X0206148Y0090961D01*
X0206459Y0090845D01*
X0206766Y0090722D01*
X0207071Y0090592D01*
X0207372Y0090454D01*
X0207670Y0090309D01*
X0207964Y0090156D01*
X0208254Y0089996D01*
X0208540Y0089829D01*
X0208822Y0089656D01*
X0209100Y0089475D01*
X0209373Y0089287D01*
X0209642Y0089093D01*
X0209906Y0088893D01*
X0210164Y0088686D01*
X0210418Y0088472D01*
X0210666Y0088253D01*
X0210909Y0088027D01*
X0211146Y0087796D01*
X0211377Y0087559D01*
X0211603Y0087316D01*
X0211822Y0087068D01*
X0212036Y0086814D01*
X0212243Y0086556D01*
X0212443Y0086292D01*
X0212637Y0086023D01*
X0212825Y0085750D01*
X0213006Y0085472D01*
X0213179Y0085190D01*
X0213346Y0084904D01*
X0213506Y0084614D01*
X0213659Y0084320D01*
X0213804Y0084022D01*
X0213942Y0083721D01*
X0214072Y0083416D01*
X0214195Y0083109D01*
X0214311Y0082798D01*
X0214419Y0082485D01*
X0214519Y0082169D01*
X0214611Y0081851D01*
X0214695Y0081530D01*
X0214772Y0081208D01*
X0214841Y0080884D01*
X0214901Y0080558D01*
X0214954Y0080231D01*
X0214998Y0079903D01*
X0215035Y0079573D01*
X0215063Y0079243D01*
X0215084Y0078912D01*
X0215096Y0078581D01*
X0215100Y0078250D01*
X0215096Y0077919D01*
X0215084Y0077588D01*
X0215063Y0077257D01*
X0215035Y0076927D01*
X0214998Y0076597D01*
X0214954Y0076269D01*
X0214901Y0075942D01*
X0214841Y0075616D01*
X0214772Y0075292D01*
X0214695Y0074970D01*
X0214611Y0074649D01*
X0214519Y0074331D01*
X0214419Y0074015D01*
X0214311Y0073702D01*
X0214195Y0073391D01*
X0214072Y0073084D01*
X0213942Y0072779D01*
X0213804Y0072478D01*
X0213659Y0072180D01*
X0213506Y0071886D01*
X0213346Y0071596D01*
X0213179Y0071310D01*
X0213006Y0071028D01*
X0212825Y0070750D01*
X0212637Y0070477D01*
X0212443Y0070208D01*
X0212243Y0069944D01*
X0212036Y0069686D01*
X0211822Y0069432D01*
X0211603Y0069184D01*
X0211377Y0068941D01*
X0211146Y0068704D01*
X0210909Y0068473D01*
X0210666Y0068247D01*
X0210418Y0068028D01*
X0210164Y0067814D01*
X0209906Y0067607D01*
X0209642Y0067407D01*
X0209373Y0067213D01*
X0209100Y0067025D01*
X0208822Y0066844D01*
X0208540Y0066671D01*
X0208254Y0066504D01*
X0207964Y0066344D01*
X0207670Y0066191D01*
X0207372Y0066046D01*
X0207071Y0065908D01*
X0206766Y0065778D01*
X0206459Y0065655D01*
X0206148Y0065539D01*
X0205835Y0065431D01*
X0205519Y0065331D01*
X0205201Y0065239D01*
X0204880Y0065155D01*
X0204558Y0065078D01*
X0204234Y0065009D01*
X0203908Y0064949D01*
X0203581Y0064896D01*
X0203253Y0064852D01*
X0202923Y0064815D01*
X0202593Y0064787D01*
X0202262Y0064766D01*
X0201931Y0064754D01*
X0201600Y0064750D01*
X0201269Y0064754D01*
X0200938Y0064766D01*
X0200607Y0064787D01*
X0200277Y0064815D01*
X0199947Y0064852D01*
X0199619Y0064896D01*
X0199292Y0064949D01*
X0198966Y0065009D01*
X0198642Y0065078D01*
X0198320Y0065155D01*
X0197999Y0065239D01*
X0197681Y0065331D01*
X0197365Y0065431D01*
X0197052Y0065539D01*
X0196741Y0065655D01*
X0196434Y0065778D01*
X0196129Y0065908D01*
X0195828Y0066046D01*
X0195530Y0066191D01*
X0195236Y0066344D01*
X0194946Y0066504D01*
X0194660Y0066671D01*
X0194378Y0066844D01*
X0194100Y0067025D01*
X0193827Y0067213D01*
X0193558Y0067407D01*
X0193294Y0067607D01*
X0193036Y0067814D01*
X0192782Y0068028D01*
X0192534Y0068247D01*
X0192291Y0068473D01*
X0192054Y0068704D01*
X0191823Y0068941D01*
X0191597Y0069184D01*
X0191378Y0069432D01*
X0191164Y0069686D01*
X0190957Y0069944D01*
X0190757Y0070208D01*
X0190563Y0070477D01*
X0190375Y0070750D01*
X0190194Y0071028D01*
X0190021Y0071310D01*
X0189854Y0071596D01*
X0189694Y0071886D01*
X0189541Y0072180D01*
X0189396Y0072478D01*
X0189258Y0072779D01*
X0189128Y0073084D01*
X0189005Y0073391D01*
X0188889Y0073702D01*
X0188781Y0074015D01*
X0188681Y0074331D01*
X0188589Y0074649D01*
X0188505Y0074970D01*
X0188428Y0075292D01*
X0188359Y0075616D01*
X0188299Y0075942D01*
X0188246Y0076269D01*
X0188202Y0076597D01*
X0188165Y0076927D01*
X0188137Y0077257D01*
X0188116Y0077588D01*
X0188104Y0077919D01*
X0188100Y0078250D01*
X0157973Y0143191D02*
X0156477Y0143191D01*
X0151477Y0145066D02*
X0151477Y0148309D01*
X0154223Y0148309D01*
X0160227Y0148309D02*
X0162973Y0148309D01*
X0162973Y0145066D01*
X0164100Y0158250D02*
X0159100Y0158250D01*
X0156600Y0160750D01*
X0154100Y0158250D01*
X0149100Y0158250D01*
X0146600Y0160750D01*
X0146600Y0175750D01*
X0149100Y0178250D01*
X0154100Y0178250D01*
X0156600Y0175750D01*
X0156600Y0160750D01*
X0164100Y0158250D02*
X0166600Y0160750D01*
X0166600Y0175750D01*
X0164100Y0178250D01*
X0159100Y0178250D01*
X0156600Y0175750D01*
X0166600Y0175750D02*
X0169100Y0178250D01*
X0174100Y0178250D01*
X0176600Y0175750D01*
X0176600Y0160750D01*
X0174100Y0158250D01*
X0169100Y0158250D01*
X0166600Y0160750D01*
X0145775Y0198250D02*
X0107803Y0160278D01*
X0105397Y0160278D01*
X0067425Y0198250D01*
X0106600Y0237425D01*
X0145775Y0198250D01*
X0104400Y0165511D02*
X0104402Y0165604D01*
X0104408Y0165698D01*
X0104418Y0165790D01*
X0104432Y0165883D01*
X0104449Y0165974D01*
X0104471Y0166065D01*
X0104496Y0166155D01*
X0104526Y0166244D01*
X0104559Y0166331D01*
X0104595Y0166417D01*
X0104636Y0166501D01*
X0104679Y0166584D01*
X0104727Y0166664D01*
X0104777Y0166743D01*
X0104831Y0166819D01*
X0104888Y0166893D01*
X0104949Y0166964D01*
X0105012Y0167033D01*
X0105078Y0167099D01*
X0105147Y0167162D01*
X0105218Y0167223D01*
X0105292Y0167280D01*
X0105368Y0167334D01*
X0105447Y0167384D01*
X0105527Y0167432D01*
X0105610Y0167475D01*
X0105694Y0167516D01*
X0105780Y0167552D01*
X0105867Y0167585D01*
X0105956Y0167615D01*
X0106046Y0167640D01*
X0106137Y0167662D01*
X0106228Y0167679D01*
X0106321Y0167693D01*
X0106413Y0167703D01*
X0106507Y0167709D01*
X0106600Y0167711D01*
X0106693Y0167709D01*
X0106787Y0167703D01*
X0106879Y0167693D01*
X0106972Y0167679D01*
X0107063Y0167662D01*
X0107154Y0167640D01*
X0107244Y0167615D01*
X0107333Y0167585D01*
X0107420Y0167552D01*
X0107506Y0167516D01*
X0107590Y0167475D01*
X0107673Y0167432D01*
X0107753Y0167384D01*
X0107832Y0167334D01*
X0107908Y0167280D01*
X0107982Y0167223D01*
X0108053Y0167162D01*
X0108122Y0167099D01*
X0108188Y0167033D01*
X0108251Y0166964D01*
X0108312Y0166893D01*
X0108369Y0166819D01*
X0108423Y0166743D01*
X0108473Y0166664D01*
X0108521Y0166584D01*
X0108564Y0166501D01*
X0108605Y0166417D01*
X0108641Y0166331D01*
X0108674Y0166244D01*
X0108704Y0166155D01*
X0108729Y0166065D01*
X0108751Y0165974D01*
X0108768Y0165883D01*
X0108782Y0165790D01*
X0108792Y0165698D01*
X0108798Y0165604D01*
X0108800Y0165511D01*
X0108798Y0165418D01*
X0108792Y0165324D01*
X0108782Y0165232D01*
X0108768Y0165139D01*
X0108751Y0165048D01*
X0108729Y0164957D01*
X0108704Y0164867D01*
X0108674Y0164778D01*
X0108641Y0164691D01*
X0108605Y0164605D01*
X0108564Y0164521D01*
X0108521Y0164438D01*
X0108473Y0164358D01*
X0108423Y0164279D01*
X0108369Y0164203D01*
X0108312Y0164129D01*
X0108251Y0164058D01*
X0108188Y0163989D01*
X0108122Y0163923D01*
X0108053Y0163860D01*
X0107982Y0163799D01*
X0107908Y0163742D01*
X0107832Y0163688D01*
X0107753Y0163638D01*
X0107673Y0163590D01*
X0107590Y0163547D01*
X0107506Y0163506D01*
X0107420Y0163470D01*
X0107333Y0163437D01*
X0107244Y0163407D01*
X0107154Y0163382D01*
X0107063Y0163360D01*
X0106972Y0163343D01*
X0106879Y0163329D01*
X0106787Y0163319D01*
X0106693Y0163313D01*
X0106600Y0163311D01*
X0106507Y0163313D01*
X0106413Y0163319D01*
X0106321Y0163329D01*
X0106228Y0163343D01*
X0106137Y0163360D01*
X0106046Y0163382D01*
X0105956Y0163407D01*
X0105867Y0163437D01*
X0105780Y0163470D01*
X0105694Y0163506D01*
X0105610Y0163547D01*
X0105527Y0163590D01*
X0105447Y0163638D01*
X0105368Y0163688D01*
X0105292Y0163742D01*
X0105218Y0163799D01*
X0105147Y0163860D01*
X0105078Y0163923D01*
X0105012Y0163989D01*
X0104949Y0164058D01*
X0104888Y0164129D01*
X0104831Y0164203D01*
X0104777Y0164279D01*
X0104727Y0164358D01*
X0104679Y0164438D01*
X0104636Y0164521D01*
X0104595Y0164605D01*
X0104559Y0164691D01*
X0104526Y0164778D01*
X0104496Y0164867D01*
X0104471Y0164957D01*
X0104449Y0165048D01*
X0104432Y0165139D01*
X0104418Y0165232D01*
X0104408Y0165324D01*
X0104402Y0165418D01*
X0104400Y0165511D01*
X0058443Y0132272D02*
X0058443Y0125525D01*
X0047242Y0125525D02*
X0047242Y0132272D01*
X0062205Y0226145D02*
X0049495Y0238855D01*
X0062181Y0247420D02*
X0062183Y0247504D01*
X0062189Y0247589D01*
X0062199Y0247672D01*
X0062213Y0247756D01*
X0062230Y0247838D01*
X0062252Y0247920D01*
X0062277Y0248000D01*
X0062306Y0248079D01*
X0062339Y0248157D01*
X0062375Y0248233D01*
X0062415Y0248308D01*
X0062459Y0248380D01*
X0062505Y0248451D01*
X0062555Y0248519D01*
X0062608Y0248584D01*
X0062664Y0248647D01*
X0062723Y0248708D01*
X0062785Y0248765D01*
X0062849Y0248820D01*
X0062916Y0248871D01*
X0062985Y0248920D01*
X0063057Y0248965D01*
X0063130Y0249006D01*
X0063205Y0249044D01*
X0063282Y0249079D01*
X0063361Y0249110D01*
X0063441Y0249137D01*
X0063522Y0249160D01*
X0063604Y0249180D01*
X0063687Y0249196D01*
X0063770Y0249208D01*
X0063855Y0249216D01*
X0063939Y0249220D01*
X0064023Y0249220D01*
X0064107Y0249216D01*
X0064192Y0249208D01*
X0064275Y0249196D01*
X0064358Y0249180D01*
X0064440Y0249160D01*
X0064521Y0249137D01*
X0064601Y0249110D01*
X0064680Y0249079D01*
X0064757Y0249044D01*
X0064832Y0249006D01*
X0064905Y0248965D01*
X0064977Y0248920D01*
X0065046Y0248871D01*
X0065113Y0248820D01*
X0065177Y0248765D01*
X0065239Y0248708D01*
X0065298Y0248647D01*
X0065354Y0248584D01*
X0065407Y0248519D01*
X0065457Y0248451D01*
X0065503Y0248380D01*
X0065547Y0248308D01*
X0065587Y0248233D01*
X0065623Y0248157D01*
X0065656Y0248079D01*
X0065685Y0248000D01*
X0065710Y0247920D01*
X0065732Y0247838D01*
X0065749Y0247756D01*
X0065763Y0247672D01*
X0065773Y0247589D01*
X0065779Y0247504D01*
X0065781Y0247420D01*
X0065779Y0247336D01*
X0065773Y0247251D01*
X0065763Y0247168D01*
X0065749Y0247084D01*
X0065732Y0247002D01*
X0065710Y0246920D01*
X0065685Y0246840D01*
X0065656Y0246761D01*
X0065623Y0246683D01*
X0065587Y0246607D01*
X0065547Y0246532D01*
X0065503Y0246460D01*
X0065457Y0246389D01*
X0065407Y0246321D01*
X0065354Y0246256D01*
X0065298Y0246193D01*
X0065239Y0246132D01*
X0065177Y0246075D01*
X0065113Y0246020D01*
X0065046Y0245969D01*
X0064977Y0245920D01*
X0064905Y0245875D01*
X0064832Y0245834D01*
X0064757Y0245796D01*
X0064680Y0245761D01*
X0064601Y0245730D01*
X0064521Y0245703D01*
X0064440Y0245680D01*
X0064358Y0245660D01*
X0064275Y0245644D01*
X0064192Y0245632D01*
X0064107Y0245624D01*
X0064023Y0245620D01*
X0063939Y0245620D01*
X0063855Y0245624D01*
X0063770Y0245632D01*
X0063687Y0245644D01*
X0063604Y0245660D01*
X0063522Y0245680D01*
X0063441Y0245703D01*
X0063361Y0245730D01*
X0063282Y0245761D01*
X0063205Y0245796D01*
X0063130Y0245834D01*
X0063057Y0245875D01*
X0062985Y0245920D01*
X0062916Y0245969D01*
X0062849Y0246020D01*
X0062785Y0246075D01*
X0062723Y0246132D01*
X0062664Y0246193D01*
X0062608Y0246256D01*
X0062555Y0246321D01*
X0062505Y0246389D01*
X0062459Y0246460D01*
X0062415Y0246532D01*
X0062375Y0246607D01*
X0062339Y0246683D01*
X0062306Y0246761D01*
X0062277Y0246840D01*
X0062252Y0246920D01*
X0062230Y0247002D01*
X0062213Y0247084D01*
X0062199Y0247168D01*
X0062189Y0247251D01*
X0062183Y0247336D01*
X0062181Y0247420D01*
X0063495Y0252855D02*
X0076205Y0240145D01*
X0018100Y0248250D02*
X0018104Y0248581D01*
X0018116Y0248912D01*
X0018137Y0249243D01*
X0018165Y0249573D01*
X0018202Y0249903D01*
X0018246Y0250231D01*
X0018299Y0250558D01*
X0018359Y0250884D01*
X0018428Y0251208D01*
X0018505Y0251530D01*
X0018589Y0251851D01*
X0018681Y0252169D01*
X0018781Y0252485D01*
X0018889Y0252798D01*
X0019005Y0253109D01*
X0019128Y0253416D01*
X0019258Y0253721D01*
X0019396Y0254022D01*
X0019541Y0254320D01*
X0019694Y0254614D01*
X0019854Y0254904D01*
X0020021Y0255190D01*
X0020194Y0255472D01*
X0020375Y0255750D01*
X0020563Y0256023D01*
X0020757Y0256292D01*
X0020957Y0256556D01*
X0021164Y0256814D01*
X0021378Y0257068D01*
X0021597Y0257316D01*
X0021823Y0257559D01*
X0022054Y0257796D01*
X0022291Y0258027D01*
X0022534Y0258253D01*
X0022782Y0258472D01*
X0023036Y0258686D01*
X0023294Y0258893D01*
X0023558Y0259093D01*
X0023827Y0259287D01*
X0024100Y0259475D01*
X0024378Y0259656D01*
X0024660Y0259829D01*
X0024946Y0259996D01*
X0025236Y0260156D01*
X0025530Y0260309D01*
X0025828Y0260454D01*
X0026129Y0260592D01*
X0026434Y0260722D01*
X0026741Y0260845D01*
X0027052Y0260961D01*
X0027365Y0261069D01*
X0027681Y0261169D01*
X0027999Y0261261D01*
X0028320Y0261345D01*
X0028642Y0261422D01*
X0028966Y0261491D01*
X0029292Y0261551D01*
X0029619Y0261604D01*
X0029947Y0261648D01*
X0030277Y0261685D01*
X0030607Y0261713D01*
X0030938Y0261734D01*
X0031269Y0261746D01*
X0031600Y0261750D01*
X0031931Y0261746D01*
X0032262Y0261734D01*
X0032593Y0261713D01*
X0032923Y0261685D01*
X0033253Y0261648D01*
X0033581Y0261604D01*
X0033908Y0261551D01*
X0034234Y0261491D01*
X0034558Y0261422D01*
X0034880Y0261345D01*
X0035201Y0261261D01*
X0035519Y0261169D01*
X0035835Y0261069D01*
X0036148Y0260961D01*
X0036459Y0260845D01*
X0036766Y0260722D01*
X0037071Y0260592D01*
X0037372Y0260454D01*
X0037670Y0260309D01*
X0037964Y0260156D01*
X0038254Y0259996D01*
X0038540Y0259829D01*
X0038822Y0259656D01*
X0039100Y0259475D01*
X0039373Y0259287D01*
X0039642Y0259093D01*
X0039906Y0258893D01*
X0040164Y0258686D01*
X0040418Y0258472D01*
X0040666Y0258253D01*
X0040909Y0258027D01*
X0041146Y0257796D01*
X0041377Y0257559D01*
X0041603Y0257316D01*
X0041822Y0257068D01*
X0042036Y0256814D01*
X0042243Y0256556D01*
X0042443Y0256292D01*
X0042637Y0256023D01*
X0042825Y0255750D01*
X0043006Y0255472D01*
X0043179Y0255190D01*
X0043346Y0254904D01*
X0043506Y0254614D01*
X0043659Y0254320D01*
X0043804Y0254022D01*
X0043942Y0253721D01*
X0044072Y0253416D01*
X0044195Y0253109D01*
X0044311Y0252798D01*
X0044419Y0252485D01*
X0044519Y0252169D01*
X0044611Y0251851D01*
X0044695Y0251530D01*
X0044772Y0251208D01*
X0044841Y0250884D01*
X0044901Y0250558D01*
X0044954Y0250231D01*
X0044998Y0249903D01*
X0045035Y0249573D01*
X0045063Y0249243D01*
X0045084Y0248912D01*
X0045096Y0248581D01*
X0045100Y0248250D01*
X0045096Y0247919D01*
X0045084Y0247588D01*
X0045063Y0247257D01*
X0045035Y0246927D01*
X0044998Y0246597D01*
X0044954Y0246269D01*
X0044901Y0245942D01*
X0044841Y0245616D01*
X0044772Y0245292D01*
X0044695Y0244970D01*
X0044611Y0244649D01*
X0044519Y0244331D01*
X0044419Y0244015D01*
X0044311Y0243702D01*
X0044195Y0243391D01*
X0044072Y0243084D01*
X0043942Y0242779D01*
X0043804Y0242478D01*
X0043659Y0242180D01*
X0043506Y0241886D01*
X0043346Y0241596D01*
X0043179Y0241310D01*
X0043006Y0241028D01*
X0042825Y0240750D01*
X0042637Y0240477D01*
X0042443Y0240208D01*
X0042243Y0239944D01*
X0042036Y0239686D01*
X0041822Y0239432D01*
X0041603Y0239184D01*
X0041377Y0238941D01*
X0041146Y0238704D01*
X0040909Y0238473D01*
X0040666Y0238247D01*
X0040418Y0238028D01*
X0040164Y0237814D01*
X0039906Y0237607D01*
X0039642Y0237407D01*
X0039373Y0237213D01*
X0039100Y0237025D01*
X0038822Y0236844D01*
X0038540Y0236671D01*
X0038254Y0236504D01*
X0037964Y0236344D01*
X0037670Y0236191D01*
X0037372Y0236046D01*
X0037071Y0235908D01*
X0036766Y0235778D01*
X0036459Y0235655D01*
X0036148Y0235539D01*
X0035835Y0235431D01*
X0035519Y0235331D01*
X0035201Y0235239D01*
X0034880Y0235155D01*
X0034558Y0235078D01*
X0034234Y0235009D01*
X0033908Y0234949D01*
X0033581Y0234896D01*
X0033253Y0234852D01*
X0032923Y0234815D01*
X0032593Y0234787D01*
X0032262Y0234766D01*
X0031931Y0234754D01*
X0031600Y0234750D01*
X0031269Y0234754D01*
X0030938Y0234766D01*
X0030607Y0234787D01*
X0030277Y0234815D01*
X0029947Y0234852D01*
X0029619Y0234896D01*
X0029292Y0234949D01*
X0028966Y0235009D01*
X0028642Y0235078D01*
X0028320Y0235155D01*
X0027999Y0235239D01*
X0027681Y0235331D01*
X0027365Y0235431D01*
X0027052Y0235539D01*
X0026741Y0235655D01*
X0026434Y0235778D01*
X0026129Y0235908D01*
X0025828Y0236046D01*
X0025530Y0236191D01*
X0025236Y0236344D01*
X0024946Y0236504D01*
X0024660Y0236671D01*
X0024378Y0236844D01*
X0024100Y0237025D01*
X0023827Y0237213D01*
X0023558Y0237407D01*
X0023294Y0237607D01*
X0023036Y0237814D01*
X0022782Y0238028D01*
X0022534Y0238247D01*
X0022291Y0238473D01*
X0022054Y0238704D01*
X0021823Y0238941D01*
X0021597Y0239184D01*
X0021378Y0239432D01*
X0021164Y0239686D01*
X0020957Y0239944D01*
X0020757Y0240208D01*
X0020563Y0240477D01*
X0020375Y0240750D01*
X0020194Y0241028D01*
X0020021Y0241310D01*
X0019854Y0241596D01*
X0019694Y0241886D01*
X0019541Y0242180D01*
X0019396Y0242478D01*
X0019258Y0242779D01*
X0019128Y0243084D01*
X0019005Y0243391D01*
X0018889Y0243702D01*
X0018781Y0244015D01*
X0018681Y0244331D01*
X0018589Y0244649D01*
X0018505Y0244970D01*
X0018428Y0245292D01*
X0018359Y0245616D01*
X0018299Y0245942D01*
X0018246Y0246269D01*
X0018202Y0246597D01*
X0018165Y0246927D01*
X0018137Y0247257D01*
X0018116Y0247588D01*
X0018104Y0247919D01*
X0018100Y0248250D01*
D12*
X0024907Y0248250D02*
X0024909Y0248414D01*
X0024915Y0248578D01*
X0024925Y0248742D01*
X0024939Y0248906D01*
X0024957Y0249069D01*
X0024979Y0249232D01*
X0025006Y0249394D01*
X0025036Y0249556D01*
X0025070Y0249716D01*
X0025108Y0249876D01*
X0025149Y0250035D01*
X0025195Y0250193D01*
X0025245Y0250349D01*
X0025298Y0250505D01*
X0025355Y0250659D01*
X0025416Y0250811D01*
X0025481Y0250962D01*
X0025550Y0251112D01*
X0025622Y0251259D01*
X0025697Y0251405D01*
X0025777Y0251549D01*
X0025859Y0251691D01*
X0025945Y0251831D01*
X0026035Y0251968D01*
X0026128Y0252104D01*
X0026224Y0252237D01*
X0026324Y0252368D01*
X0026426Y0252496D01*
X0026532Y0252622D01*
X0026641Y0252745D01*
X0026753Y0252865D01*
X0026867Y0252983D01*
X0026985Y0253097D01*
X0027105Y0253209D01*
X0027228Y0253318D01*
X0027354Y0253424D01*
X0027482Y0253526D01*
X0027613Y0253626D01*
X0027746Y0253722D01*
X0027882Y0253815D01*
X0028019Y0253905D01*
X0028159Y0253991D01*
X0028301Y0254073D01*
X0028445Y0254153D01*
X0028591Y0254228D01*
X0028738Y0254300D01*
X0028888Y0254369D01*
X0029039Y0254434D01*
X0029191Y0254495D01*
X0029345Y0254552D01*
X0029501Y0254605D01*
X0029657Y0254655D01*
X0029815Y0254701D01*
X0029974Y0254742D01*
X0030134Y0254780D01*
X0030294Y0254814D01*
X0030456Y0254844D01*
X0030618Y0254871D01*
X0030781Y0254893D01*
X0030944Y0254911D01*
X0031108Y0254925D01*
X0031272Y0254935D01*
X0031436Y0254941D01*
X0031600Y0254943D01*
X0031764Y0254941D01*
X0031928Y0254935D01*
X0032092Y0254925D01*
X0032256Y0254911D01*
X0032419Y0254893D01*
X0032582Y0254871D01*
X0032744Y0254844D01*
X0032906Y0254814D01*
X0033066Y0254780D01*
X0033226Y0254742D01*
X0033385Y0254701D01*
X0033543Y0254655D01*
X0033699Y0254605D01*
X0033855Y0254552D01*
X0034009Y0254495D01*
X0034161Y0254434D01*
X0034312Y0254369D01*
X0034462Y0254300D01*
X0034609Y0254228D01*
X0034755Y0254153D01*
X0034899Y0254073D01*
X0035041Y0253991D01*
X0035181Y0253905D01*
X0035318Y0253815D01*
X0035454Y0253722D01*
X0035587Y0253626D01*
X0035718Y0253526D01*
X0035846Y0253424D01*
X0035972Y0253318D01*
X0036095Y0253209D01*
X0036215Y0253097D01*
X0036333Y0252983D01*
X0036447Y0252865D01*
X0036559Y0252745D01*
X0036668Y0252622D01*
X0036774Y0252496D01*
X0036876Y0252368D01*
X0036976Y0252237D01*
X0037072Y0252104D01*
X0037165Y0251968D01*
X0037255Y0251831D01*
X0037341Y0251691D01*
X0037423Y0251549D01*
X0037503Y0251405D01*
X0037578Y0251259D01*
X0037650Y0251112D01*
X0037719Y0250962D01*
X0037784Y0250811D01*
X0037845Y0250659D01*
X0037902Y0250505D01*
X0037955Y0250349D01*
X0038005Y0250193D01*
X0038051Y0250035D01*
X0038092Y0249876D01*
X0038130Y0249716D01*
X0038164Y0249556D01*
X0038194Y0249394D01*
X0038221Y0249232D01*
X0038243Y0249069D01*
X0038261Y0248906D01*
X0038275Y0248742D01*
X0038285Y0248578D01*
X0038291Y0248414D01*
X0038293Y0248250D01*
X0038291Y0248086D01*
X0038285Y0247922D01*
X0038275Y0247758D01*
X0038261Y0247594D01*
X0038243Y0247431D01*
X0038221Y0247268D01*
X0038194Y0247106D01*
X0038164Y0246944D01*
X0038130Y0246784D01*
X0038092Y0246624D01*
X0038051Y0246465D01*
X0038005Y0246307D01*
X0037955Y0246151D01*
X0037902Y0245995D01*
X0037845Y0245841D01*
X0037784Y0245689D01*
X0037719Y0245538D01*
X0037650Y0245388D01*
X0037578Y0245241D01*
X0037503Y0245095D01*
X0037423Y0244951D01*
X0037341Y0244809D01*
X0037255Y0244669D01*
X0037165Y0244532D01*
X0037072Y0244396D01*
X0036976Y0244263D01*
X0036876Y0244132D01*
X0036774Y0244004D01*
X0036668Y0243878D01*
X0036559Y0243755D01*
X0036447Y0243635D01*
X0036333Y0243517D01*
X0036215Y0243403D01*
X0036095Y0243291D01*
X0035972Y0243182D01*
X0035846Y0243076D01*
X0035718Y0242974D01*
X0035587Y0242874D01*
X0035454Y0242778D01*
X0035318Y0242685D01*
X0035181Y0242595D01*
X0035041Y0242509D01*
X0034899Y0242427D01*
X0034755Y0242347D01*
X0034609Y0242272D01*
X0034462Y0242200D01*
X0034312Y0242131D01*
X0034161Y0242066D01*
X0034009Y0242005D01*
X0033855Y0241948D01*
X0033699Y0241895D01*
X0033543Y0241845D01*
X0033385Y0241799D01*
X0033226Y0241758D01*
X0033066Y0241720D01*
X0032906Y0241686D01*
X0032744Y0241656D01*
X0032582Y0241629D01*
X0032419Y0241607D01*
X0032256Y0241589D01*
X0032092Y0241575D01*
X0031928Y0241565D01*
X0031764Y0241559D01*
X0031600Y0241557D01*
X0031436Y0241559D01*
X0031272Y0241565D01*
X0031108Y0241575D01*
X0030944Y0241589D01*
X0030781Y0241607D01*
X0030618Y0241629D01*
X0030456Y0241656D01*
X0030294Y0241686D01*
X0030134Y0241720D01*
X0029974Y0241758D01*
X0029815Y0241799D01*
X0029657Y0241845D01*
X0029501Y0241895D01*
X0029345Y0241948D01*
X0029191Y0242005D01*
X0029039Y0242066D01*
X0028888Y0242131D01*
X0028738Y0242200D01*
X0028591Y0242272D01*
X0028445Y0242347D01*
X0028301Y0242427D01*
X0028159Y0242509D01*
X0028019Y0242595D01*
X0027882Y0242685D01*
X0027746Y0242778D01*
X0027613Y0242874D01*
X0027482Y0242974D01*
X0027354Y0243076D01*
X0027228Y0243182D01*
X0027105Y0243291D01*
X0026985Y0243403D01*
X0026867Y0243517D01*
X0026753Y0243635D01*
X0026641Y0243755D01*
X0026532Y0243878D01*
X0026426Y0244004D01*
X0026324Y0244132D01*
X0026224Y0244263D01*
X0026128Y0244396D01*
X0026035Y0244532D01*
X0025945Y0244669D01*
X0025859Y0244809D01*
X0025777Y0244951D01*
X0025697Y0245095D01*
X0025622Y0245241D01*
X0025550Y0245388D01*
X0025481Y0245538D01*
X0025416Y0245689D01*
X0025355Y0245841D01*
X0025298Y0245995D01*
X0025245Y0246151D01*
X0025195Y0246307D01*
X0025149Y0246465D01*
X0025108Y0246624D01*
X0025070Y0246784D01*
X0025036Y0246944D01*
X0025006Y0247106D01*
X0024979Y0247268D01*
X0024957Y0247431D01*
X0024939Y0247594D01*
X0024925Y0247758D01*
X0024915Y0247922D01*
X0024909Y0248086D01*
X0024907Y0248250D01*
X0024100Y0228250D02*
X0021600Y0225750D01*
X0021600Y0220750D01*
X0024100Y0218250D01*
X0021600Y0215750D01*
X0021600Y0210750D01*
X0024100Y0208250D01*
X0021600Y0205750D01*
X0021600Y0200750D01*
X0024100Y0198250D01*
X0021600Y0195750D01*
X0021600Y0190750D01*
X0024100Y0188250D01*
X0021600Y0185750D01*
X0021600Y0180750D01*
X0024100Y0178250D01*
X0021600Y0175750D01*
X0021600Y0170750D01*
X0024100Y0168250D01*
X0021600Y0165750D01*
X0021600Y0160750D01*
X0024100Y0158250D01*
X0021600Y0155750D01*
X0021600Y0150750D01*
X0024100Y0148250D01*
X0021600Y0145750D01*
X0021600Y0140750D01*
X0024100Y0138250D01*
X0021600Y0135750D01*
X0021600Y0130750D01*
X0024100Y0128250D01*
X0021600Y0125750D01*
X0021600Y0120750D01*
X0024100Y0118250D01*
X0021600Y0115750D01*
X0021600Y0110750D01*
X0024100Y0108250D01*
X0029100Y0108250D01*
X0031600Y0110750D01*
X0031600Y0115750D01*
X0029100Y0118250D01*
X0031600Y0120750D01*
X0031600Y0125750D01*
X0029100Y0128250D01*
X0031600Y0130750D01*
X0031600Y0135750D01*
X0029100Y0138250D01*
X0031600Y0140750D01*
X0031600Y0145750D01*
X0029100Y0148250D01*
X0031600Y0150750D01*
X0031600Y0155750D01*
X0029100Y0158250D01*
X0031600Y0160750D01*
X0031600Y0165750D01*
X0029100Y0168250D01*
X0031600Y0170750D01*
X0031600Y0175750D01*
X0029100Y0178250D01*
X0031600Y0180750D01*
X0031600Y0185750D01*
X0029100Y0188250D01*
X0031600Y0190750D01*
X0031600Y0195750D01*
X0029100Y0198250D01*
X0031600Y0200750D01*
X0031600Y0205750D01*
X0029100Y0208250D01*
X0031600Y0210750D01*
X0031600Y0215750D01*
X0029100Y0218250D01*
X0031600Y0220750D01*
X0031600Y0225750D01*
X0029100Y0228250D01*
X0024100Y0228250D01*
X0037151Y0165730D02*
X0037151Y0153988D01*
X0056049Y0153988D01*
X0056049Y0150770D01*
X0056049Y0153988D02*
X0056049Y0165730D01*
X0037151Y0153988D02*
X0037151Y0150770D01*
X0085475Y0092500D02*
X0085475Y0080000D01*
X0101475Y0080000D02*
X0101475Y0092500D01*
X0106876Y0092812D02*
X0106876Y0098718D01*
X0116324Y0098718D01*
X0116324Y0092812D01*
X0116324Y0084938D02*
X0116324Y0080607D01*
X0114750Y0079032D01*
X0108450Y0079032D01*
X0106876Y0080607D01*
X0106876Y0084938D01*
X0108844Y0119195D02*
X0108844Y0136715D01*
X0145529Y0131400D02*
X0145531Y0131458D01*
X0145537Y0131515D01*
X0145547Y0131572D01*
X0145561Y0131628D01*
X0145578Y0131683D01*
X0145600Y0131736D01*
X0145625Y0131788D01*
X0145653Y0131838D01*
X0145685Y0131886D01*
X0145720Y0131932D01*
X0145758Y0131975D01*
X0145800Y0132015D01*
X0145843Y0132053D01*
X0145890Y0132087D01*
X0145938Y0132118D01*
X0145989Y0132146D01*
X0146041Y0132170D01*
X0146095Y0132190D01*
X0146150Y0132207D01*
X0146206Y0132220D01*
X0146263Y0132229D01*
X0146321Y0132234D01*
X0146378Y0132235D01*
X0146436Y0132232D01*
X0146493Y0132225D01*
X0146550Y0132214D01*
X0146606Y0132199D01*
X0146660Y0132181D01*
X0146713Y0132158D01*
X0146765Y0132133D01*
X0146814Y0132103D01*
X0146862Y0132070D01*
X0146907Y0132034D01*
X0146949Y0131996D01*
X0146989Y0131954D01*
X0147026Y0131909D01*
X0147059Y0131862D01*
X0147090Y0131813D01*
X0147116Y0131762D01*
X0147140Y0131710D01*
X0147159Y0131655D01*
X0147175Y0131600D01*
X0147187Y0131543D01*
X0147195Y0131486D01*
X0147199Y0131429D01*
X0147199Y0131371D01*
X0147195Y0131314D01*
X0147187Y0131257D01*
X0147175Y0131200D01*
X0147159Y0131145D01*
X0147140Y0131090D01*
X0147116Y0131038D01*
X0147090Y0130987D01*
X0147059Y0130938D01*
X0147026Y0130891D01*
X0146989Y0130846D01*
X0146949Y0130804D01*
X0146907Y0130766D01*
X0146862Y0130730D01*
X0146814Y0130697D01*
X0146765Y0130667D01*
X0146713Y0130642D01*
X0146660Y0130619D01*
X0146606Y0130601D01*
X0146550Y0130586D01*
X0146493Y0130575D01*
X0146436Y0130568D01*
X0146378Y0130565D01*
X0146321Y0130566D01*
X0146263Y0130571D01*
X0146206Y0130580D01*
X0146150Y0130593D01*
X0146095Y0130610D01*
X0146041Y0130630D01*
X0145989Y0130654D01*
X0145938Y0130682D01*
X0145890Y0130713D01*
X0145843Y0130747D01*
X0145800Y0130785D01*
X0145758Y0130825D01*
X0145720Y0130868D01*
X0145685Y0130914D01*
X0145653Y0130962D01*
X0145625Y0131012D01*
X0145600Y0131064D01*
X0145578Y0131117D01*
X0145561Y0131172D01*
X0145547Y0131228D01*
X0145537Y0131285D01*
X0145531Y0131342D01*
X0145529Y0131400D01*
X0149317Y0136715D02*
X0149317Y0119392D01*
X0169307Y0137566D02*
X0170881Y0137566D01*
X0170881Y0142684D01*
X0176393Y0142684D01*
X0176393Y0137566D02*
X0170881Y0137566D01*
X0170881Y0142684D02*
X0169307Y0142684D01*
X0186600Y0140750D02*
X0186600Y0145750D01*
X0189100Y0148250D01*
X0186600Y0150750D01*
X0186600Y0155750D01*
X0189100Y0158250D01*
X0186600Y0160750D01*
X0186600Y0165750D01*
X0189100Y0168250D01*
X0186600Y0170750D01*
X0186600Y0175750D01*
X0189100Y0178250D01*
X0186600Y0180750D01*
X0186600Y0185750D01*
X0189100Y0188250D01*
X0186600Y0190750D01*
X0186600Y0195750D01*
X0189100Y0198250D01*
X0186600Y0200750D01*
X0186600Y0205750D01*
X0189100Y0208250D01*
X0186600Y0210750D01*
X0186600Y0215750D01*
X0189100Y0218250D01*
X0186600Y0220750D01*
X0186600Y0225750D01*
X0189100Y0228250D01*
X0194100Y0228250D01*
X0196600Y0225750D01*
X0196600Y0220750D01*
X0194100Y0218250D01*
X0196600Y0215750D01*
X0196600Y0210750D01*
X0194100Y0208250D01*
X0196600Y0205750D01*
X0196600Y0200750D01*
X0194100Y0198250D01*
X0196600Y0195750D01*
X0196600Y0190750D01*
X0194100Y0188250D01*
X0196600Y0185750D01*
X0196600Y0180750D01*
X0194100Y0178250D01*
X0196600Y0175750D01*
X0196600Y0170750D01*
X0194100Y0168250D01*
X0196600Y0165750D01*
X0196600Y0160750D01*
X0194100Y0158250D01*
X0196600Y0155750D01*
X0196600Y0150750D01*
X0194100Y0148250D01*
X0196600Y0145750D01*
X0196600Y0140750D01*
X0194100Y0138250D01*
X0196600Y0135750D01*
X0196600Y0130750D01*
X0194100Y0128250D01*
X0196600Y0125750D01*
X0196600Y0120750D01*
X0194100Y0118250D01*
X0196600Y0115750D01*
X0196600Y0110750D01*
X0194100Y0108250D01*
X0189100Y0108250D01*
X0186600Y0110750D01*
X0186600Y0115750D01*
X0189100Y0118250D01*
X0186600Y0120750D01*
X0186600Y0125750D01*
X0189100Y0128250D01*
X0186600Y0130750D01*
X0186600Y0135750D01*
X0189100Y0138250D01*
X0186600Y0140750D01*
X0241757Y0121400D02*
X0241757Y0115100D01*
X0243332Y0113526D01*
X0247663Y0113526D01*
X0255537Y0113526D02*
X0261443Y0113526D01*
X0261443Y0122974D01*
X0255537Y0122974D01*
X0247663Y0122974D02*
X0243332Y0122974D01*
X0241757Y0121400D01*
X0194907Y0078250D02*
X0194909Y0078414D01*
X0194915Y0078578D01*
X0194925Y0078742D01*
X0194939Y0078906D01*
X0194957Y0079069D01*
X0194979Y0079232D01*
X0195006Y0079394D01*
X0195036Y0079556D01*
X0195070Y0079716D01*
X0195108Y0079876D01*
X0195149Y0080035D01*
X0195195Y0080193D01*
X0195245Y0080349D01*
X0195298Y0080505D01*
X0195355Y0080659D01*
X0195416Y0080811D01*
X0195481Y0080962D01*
X0195550Y0081112D01*
X0195622Y0081259D01*
X0195697Y0081405D01*
X0195777Y0081549D01*
X0195859Y0081691D01*
X0195945Y0081831D01*
X0196035Y0081968D01*
X0196128Y0082104D01*
X0196224Y0082237D01*
X0196324Y0082368D01*
X0196426Y0082496D01*
X0196532Y0082622D01*
X0196641Y0082745D01*
X0196753Y0082865D01*
X0196867Y0082983D01*
X0196985Y0083097D01*
X0197105Y0083209D01*
X0197228Y0083318D01*
X0197354Y0083424D01*
X0197482Y0083526D01*
X0197613Y0083626D01*
X0197746Y0083722D01*
X0197882Y0083815D01*
X0198019Y0083905D01*
X0198159Y0083991D01*
X0198301Y0084073D01*
X0198445Y0084153D01*
X0198591Y0084228D01*
X0198738Y0084300D01*
X0198888Y0084369D01*
X0199039Y0084434D01*
X0199191Y0084495D01*
X0199345Y0084552D01*
X0199501Y0084605D01*
X0199657Y0084655D01*
X0199815Y0084701D01*
X0199974Y0084742D01*
X0200134Y0084780D01*
X0200294Y0084814D01*
X0200456Y0084844D01*
X0200618Y0084871D01*
X0200781Y0084893D01*
X0200944Y0084911D01*
X0201108Y0084925D01*
X0201272Y0084935D01*
X0201436Y0084941D01*
X0201600Y0084943D01*
X0201764Y0084941D01*
X0201928Y0084935D01*
X0202092Y0084925D01*
X0202256Y0084911D01*
X0202419Y0084893D01*
X0202582Y0084871D01*
X0202744Y0084844D01*
X0202906Y0084814D01*
X0203066Y0084780D01*
X0203226Y0084742D01*
X0203385Y0084701D01*
X0203543Y0084655D01*
X0203699Y0084605D01*
X0203855Y0084552D01*
X0204009Y0084495D01*
X0204161Y0084434D01*
X0204312Y0084369D01*
X0204462Y0084300D01*
X0204609Y0084228D01*
X0204755Y0084153D01*
X0204899Y0084073D01*
X0205041Y0083991D01*
X0205181Y0083905D01*
X0205318Y0083815D01*
X0205454Y0083722D01*
X0205587Y0083626D01*
X0205718Y0083526D01*
X0205846Y0083424D01*
X0205972Y0083318D01*
X0206095Y0083209D01*
X0206215Y0083097D01*
X0206333Y0082983D01*
X0206447Y0082865D01*
X0206559Y0082745D01*
X0206668Y0082622D01*
X0206774Y0082496D01*
X0206876Y0082368D01*
X0206976Y0082237D01*
X0207072Y0082104D01*
X0207165Y0081968D01*
X0207255Y0081831D01*
X0207341Y0081691D01*
X0207423Y0081549D01*
X0207503Y0081405D01*
X0207578Y0081259D01*
X0207650Y0081112D01*
X0207719Y0080962D01*
X0207784Y0080811D01*
X0207845Y0080659D01*
X0207902Y0080505D01*
X0207955Y0080349D01*
X0208005Y0080193D01*
X0208051Y0080035D01*
X0208092Y0079876D01*
X0208130Y0079716D01*
X0208164Y0079556D01*
X0208194Y0079394D01*
X0208221Y0079232D01*
X0208243Y0079069D01*
X0208261Y0078906D01*
X0208275Y0078742D01*
X0208285Y0078578D01*
X0208291Y0078414D01*
X0208293Y0078250D01*
X0208291Y0078086D01*
X0208285Y0077922D01*
X0208275Y0077758D01*
X0208261Y0077594D01*
X0208243Y0077431D01*
X0208221Y0077268D01*
X0208194Y0077106D01*
X0208164Y0076944D01*
X0208130Y0076784D01*
X0208092Y0076624D01*
X0208051Y0076465D01*
X0208005Y0076307D01*
X0207955Y0076151D01*
X0207902Y0075995D01*
X0207845Y0075841D01*
X0207784Y0075689D01*
X0207719Y0075538D01*
X0207650Y0075388D01*
X0207578Y0075241D01*
X0207503Y0075095D01*
X0207423Y0074951D01*
X0207341Y0074809D01*
X0207255Y0074669D01*
X0207165Y0074532D01*
X0207072Y0074396D01*
X0206976Y0074263D01*
X0206876Y0074132D01*
X0206774Y0074004D01*
X0206668Y0073878D01*
X0206559Y0073755D01*
X0206447Y0073635D01*
X0206333Y0073517D01*
X0206215Y0073403D01*
X0206095Y0073291D01*
X0205972Y0073182D01*
X0205846Y0073076D01*
X0205718Y0072974D01*
X0205587Y0072874D01*
X0205454Y0072778D01*
X0205318Y0072685D01*
X0205181Y0072595D01*
X0205041Y0072509D01*
X0204899Y0072427D01*
X0204755Y0072347D01*
X0204609Y0072272D01*
X0204462Y0072200D01*
X0204312Y0072131D01*
X0204161Y0072066D01*
X0204009Y0072005D01*
X0203855Y0071948D01*
X0203699Y0071895D01*
X0203543Y0071845D01*
X0203385Y0071799D01*
X0203226Y0071758D01*
X0203066Y0071720D01*
X0202906Y0071686D01*
X0202744Y0071656D01*
X0202582Y0071629D01*
X0202419Y0071607D01*
X0202256Y0071589D01*
X0202092Y0071575D01*
X0201928Y0071565D01*
X0201764Y0071559D01*
X0201600Y0071557D01*
X0201436Y0071559D01*
X0201272Y0071565D01*
X0201108Y0071575D01*
X0200944Y0071589D01*
X0200781Y0071607D01*
X0200618Y0071629D01*
X0200456Y0071656D01*
X0200294Y0071686D01*
X0200134Y0071720D01*
X0199974Y0071758D01*
X0199815Y0071799D01*
X0199657Y0071845D01*
X0199501Y0071895D01*
X0199345Y0071948D01*
X0199191Y0072005D01*
X0199039Y0072066D01*
X0198888Y0072131D01*
X0198738Y0072200D01*
X0198591Y0072272D01*
X0198445Y0072347D01*
X0198301Y0072427D01*
X0198159Y0072509D01*
X0198019Y0072595D01*
X0197882Y0072685D01*
X0197746Y0072778D01*
X0197613Y0072874D01*
X0197482Y0072974D01*
X0197354Y0073076D01*
X0197228Y0073182D01*
X0197105Y0073291D01*
X0196985Y0073403D01*
X0196867Y0073517D01*
X0196753Y0073635D01*
X0196641Y0073755D01*
X0196532Y0073878D01*
X0196426Y0074004D01*
X0196324Y0074132D01*
X0196224Y0074263D01*
X0196128Y0074396D01*
X0196035Y0074532D01*
X0195945Y0074669D01*
X0195859Y0074809D01*
X0195777Y0074951D01*
X0195697Y0075095D01*
X0195622Y0075241D01*
X0195550Y0075388D01*
X0195481Y0075538D01*
X0195416Y0075689D01*
X0195355Y0075841D01*
X0195298Y0075995D01*
X0195245Y0076151D01*
X0195195Y0076307D01*
X0195149Y0076465D01*
X0195108Y0076624D01*
X0195070Y0076784D01*
X0195036Y0076944D01*
X0195006Y0077106D01*
X0194979Y0077268D01*
X0194957Y0077431D01*
X0194939Y0077594D01*
X0194925Y0077758D01*
X0194915Y0077922D01*
X0194909Y0078086D01*
X0194907Y0078250D01*
X0207545Y0053959D02*
X0225655Y0053959D01*
X0220537Y0052187D02*
X0220537Y0044313D01*
X0225655Y0042541D02*
X0207545Y0042541D01*
X0207545Y0038959D02*
X0225655Y0038959D01*
X0220537Y0037187D02*
X0220537Y0029313D01*
X0225655Y0027541D02*
X0207545Y0027541D01*
X0216049Y0019110D02*
X0217209Y0018350D01*
X0217269Y0018250D02*
X0216049Y0017330D01*
X0217269Y0016439D02*
X0217269Y0018250D01*
X0217269Y0020061D01*
X0053692Y0013855D02*
X0053692Y0034249D01*
X0053692Y0052753D02*
X0053692Y0058146D01*
X0045424Y0058146D01*
X0026526Y0058146D02*
X0018258Y0058146D01*
X0018258Y0013855D01*
X0145247Y0224920D02*
X0146834Y0226507D01*
X0144746Y0231156D02*
X0142574Y0233328D01*
X0137842Y0235443D02*
X0136311Y0233912D01*
X0138399Y0229263D02*
X0140653Y0227008D01*
X0161000Y0241559D02*
X0161000Y0244941D01*
X0165543Y0246441D02*
X0167657Y0246441D01*
X0172200Y0244941D02*
X0172200Y0241559D01*
X0181876Y0239313D02*
X0181876Y0233407D01*
X0191324Y0233407D01*
X0191324Y0239313D01*
X0191324Y0247187D02*
X0191324Y0251518D01*
X0189750Y0253093D01*
X0183450Y0253093D01*
X0181876Y0251518D01*
X0181876Y0247187D01*
D13*
X0053692Y0013855D02*
X0018258Y0013855D01*
X0064100Y0001250D02*
X0064100Y0063250D01*
X0201600Y0063250D01*
X0201600Y0001250D01*
X0064100Y0001250D01*
X0045380Y0069377D02*
X0021757Y0069377D01*
X0021757Y0100873D01*
X0045380Y0100873D01*
X0045380Y0089062D01*
X0041443Y0089062D01*
X0041443Y0081188D01*
X0045380Y0081188D01*
X0045380Y0069377D01*
X0045380Y0081188D02*
X0045380Y0089062D01*
X0017506Y0134657D02*
X0005694Y0134657D01*
X0005694Y0141281D01*
X0009631Y0141281D01*
X0009631Y0145219D01*
X0005694Y0145219D01*
X0005694Y0151843D01*
X0017506Y0151843D01*
X0017506Y0134657D01*
X0005694Y0141281D02*
X0005694Y0145219D01*
X0107600Y0087375D02*
X0115600Y0087375D01*
X0133943Y0072502D02*
X0133943Y0103998D01*
X0185124Y0103998D01*
X0185124Y0072502D01*
X0133943Y0072502D01*
X0204100Y0153407D02*
X0204395Y0153407D01*
X0204100Y0153407D02*
X0204100Y0173093D01*
X0204395Y0173093D01*
X0208706Y0173093D02*
X0209494Y0173093D01*
X0213706Y0173093D02*
X0214100Y0173093D01*
X0214100Y0164628D01*
X0219100Y0164628D01*
X0219100Y0173093D01*
X0218706Y0173093D01*
X0219100Y0173093D02*
X0219494Y0173093D01*
X0223706Y0173093D02*
X0224494Y0173093D01*
X0228805Y0173093D02*
X0229100Y0173093D01*
X0229100Y0153407D01*
X0228805Y0153407D01*
X0224494Y0153407D02*
X0223706Y0153407D01*
X0219494Y0153407D02*
X0218706Y0153407D01*
X0214494Y0153407D02*
X0213706Y0153407D01*
X0209494Y0153407D02*
X0208706Y0153407D01*
X0214100Y0173093D02*
X0214494Y0173093D01*
X0214582Y0190745D02*
X0211630Y0190745D01*
X0211630Y0195666D01*
X0230350Y0175750D02*
X0230352Y0175820D01*
X0230358Y0175890D01*
X0230368Y0175959D01*
X0230381Y0176028D01*
X0230399Y0176096D01*
X0230420Y0176163D01*
X0230445Y0176228D01*
X0230474Y0176292D01*
X0230506Y0176355D01*
X0230542Y0176415D01*
X0230581Y0176473D01*
X0230623Y0176529D01*
X0230668Y0176583D01*
X0230716Y0176634D01*
X0230767Y0176682D01*
X0230821Y0176727D01*
X0230877Y0176769D01*
X0230935Y0176808D01*
X0230995Y0176844D01*
X0231058Y0176876D01*
X0231122Y0176905D01*
X0231187Y0176930D01*
X0231254Y0176951D01*
X0231322Y0176969D01*
X0231391Y0176982D01*
X0231460Y0176992D01*
X0231530Y0176998D01*
X0231600Y0177000D01*
X0231670Y0176998D01*
X0231740Y0176992D01*
X0231809Y0176982D01*
X0231878Y0176969D01*
X0231946Y0176951D01*
X0232013Y0176930D01*
X0232078Y0176905D01*
X0232142Y0176876D01*
X0232205Y0176844D01*
X0232265Y0176808D01*
X0232323Y0176769D01*
X0232379Y0176727D01*
X0232433Y0176682D01*
X0232484Y0176634D01*
X0232532Y0176583D01*
X0232577Y0176529D01*
X0232619Y0176473D01*
X0232658Y0176415D01*
X0232694Y0176355D01*
X0232726Y0176292D01*
X0232755Y0176228D01*
X0232780Y0176163D01*
X0232801Y0176096D01*
X0232819Y0176028D01*
X0232832Y0175959D01*
X0232842Y0175890D01*
X0232848Y0175820D01*
X0232850Y0175750D01*
X0232848Y0175680D01*
X0232842Y0175610D01*
X0232832Y0175541D01*
X0232819Y0175472D01*
X0232801Y0175404D01*
X0232780Y0175337D01*
X0232755Y0175272D01*
X0232726Y0175208D01*
X0232694Y0175145D01*
X0232658Y0175085D01*
X0232619Y0175027D01*
X0232577Y0174971D01*
X0232532Y0174917D01*
X0232484Y0174866D01*
X0232433Y0174818D01*
X0232379Y0174773D01*
X0232323Y0174731D01*
X0232265Y0174692D01*
X0232205Y0174656D01*
X0232142Y0174624D01*
X0232078Y0174595D01*
X0232013Y0174570D01*
X0231946Y0174549D01*
X0231878Y0174531D01*
X0231809Y0174518D01*
X0231740Y0174508D01*
X0231670Y0174502D01*
X0231600Y0174500D01*
X0231530Y0174502D01*
X0231460Y0174508D01*
X0231391Y0174518D01*
X0231322Y0174531D01*
X0231254Y0174549D01*
X0231187Y0174570D01*
X0231122Y0174595D01*
X0231058Y0174624D01*
X0230995Y0174656D01*
X0230935Y0174692D01*
X0230877Y0174731D01*
X0230821Y0174773D01*
X0230767Y0174818D01*
X0230716Y0174866D01*
X0230668Y0174917D01*
X0230623Y0174971D01*
X0230581Y0175027D01*
X0230542Y0175085D01*
X0230506Y0175145D01*
X0230474Y0175208D01*
X0230445Y0175272D01*
X0230420Y0175337D01*
X0230399Y0175404D01*
X0230381Y0175472D01*
X0230368Y0175541D01*
X0230358Y0175610D01*
X0230352Y0175680D01*
X0230350Y0175750D01*
X0232298Y0169855D02*
X0231848Y0169405D01*
X0231848Y0168504D01*
X0232298Y0168053D01*
X0232298Y0166909D02*
X0233199Y0166909D01*
X0233649Y0166458D01*
X0233649Y0165107D01*
X0234550Y0165107D02*
X0231848Y0165107D01*
X0231848Y0166458D01*
X0232298Y0166909D01*
X0234550Y0168053D02*
X0232748Y0169855D01*
X0232298Y0169855D01*
X0234550Y0169855D02*
X0234550Y0168053D01*
X0234100Y0163512D02*
X0231848Y0163512D01*
X0231848Y0163962D02*
X0231848Y0163061D01*
X0234100Y0163512D02*
X0234550Y0163061D01*
X0234550Y0162611D01*
X0234100Y0162160D01*
X0255921Y0190745D02*
X0259070Y0190745D01*
X0259070Y0195666D01*
X0267840Y0164490D02*
X0267840Y0132010D01*
X0250100Y0122250D02*
X0250100Y0114250D01*
X0246639Y0105593D02*
X0265931Y0105593D01*
X0265931Y0103624D01*
X0277742Y0103624D01*
X0277742Y0087876D01*
X0265931Y0087876D01*
X0265931Y0103624D01*
X0265931Y0087876D02*
X0265931Y0085907D01*
X0246639Y0085907D01*
X0237978Y0085907D02*
X0234435Y0085907D01*
X0234435Y0090632D01*
X0234435Y0100868D02*
X0234435Y0105593D01*
X0237978Y0105593D01*
X0237978Y0070593D02*
X0234435Y0070593D01*
X0234435Y0065868D01*
X0234435Y0055632D02*
X0234435Y0050907D01*
X0237978Y0050907D01*
X0246639Y0050907D02*
X0265931Y0050907D01*
X0265931Y0052876D01*
X0277742Y0052876D01*
X0277742Y0068624D01*
X0265931Y0068624D01*
X0265931Y0070593D01*
X0246639Y0070593D01*
X0265931Y0068624D02*
X0265931Y0052876D01*
X0265931Y0035593D02*
X0246639Y0035593D01*
X0237978Y0035593D02*
X0234435Y0035593D01*
X0234435Y0030868D01*
X0234435Y0020632D02*
X0234435Y0015907D01*
X0237978Y0015907D01*
X0246639Y0015907D02*
X0265931Y0015907D01*
X0265931Y0017876D01*
X0277742Y0017876D01*
X0277742Y0033624D01*
X0265931Y0033624D01*
X0265931Y0035593D01*
X0265931Y0033624D02*
X0265931Y0017876D01*
X0179100Y0178250D02*
X0179102Y0178349D01*
X0179108Y0178449D01*
X0179118Y0178548D01*
X0179132Y0178646D01*
X0179149Y0178744D01*
X0179171Y0178841D01*
X0179196Y0178937D01*
X0179225Y0179032D01*
X0179258Y0179126D01*
X0179295Y0179218D01*
X0179335Y0179309D01*
X0179379Y0179398D01*
X0179427Y0179486D01*
X0179478Y0179571D01*
X0179532Y0179654D01*
X0179589Y0179736D01*
X0179650Y0179814D01*
X0179714Y0179891D01*
X0179780Y0179964D01*
X0179850Y0180035D01*
X0179922Y0180103D01*
X0179997Y0180169D01*
X0180075Y0180231D01*
X0180155Y0180290D01*
X0180237Y0180346D01*
X0180321Y0180398D01*
X0180408Y0180447D01*
X0180496Y0180493D01*
X0180586Y0180535D01*
X0180678Y0180574D01*
X0180771Y0180609D01*
X0180865Y0180640D01*
X0180961Y0180667D01*
X0181058Y0180690D01*
X0181155Y0180710D01*
X0181253Y0180726D01*
X0181352Y0180738D01*
X0181451Y0180746D01*
X0181550Y0180750D01*
X0181650Y0180750D01*
X0181749Y0180746D01*
X0181848Y0180738D01*
X0181947Y0180726D01*
X0182045Y0180710D01*
X0182142Y0180690D01*
X0182239Y0180667D01*
X0182335Y0180640D01*
X0182429Y0180609D01*
X0182522Y0180574D01*
X0182614Y0180535D01*
X0182704Y0180493D01*
X0182792Y0180447D01*
X0182879Y0180398D01*
X0182963Y0180346D01*
X0183045Y0180290D01*
X0183125Y0180231D01*
X0183203Y0180169D01*
X0183278Y0180103D01*
X0183350Y0180035D01*
X0183420Y0179964D01*
X0183486Y0179891D01*
X0183550Y0179814D01*
X0183611Y0179736D01*
X0183668Y0179654D01*
X0183722Y0179571D01*
X0183773Y0179486D01*
X0183821Y0179398D01*
X0183865Y0179309D01*
X0183905Y0179218D01*
X0183942Y0179126D01*
X0183975Y0179032D01*
X0184004Y0178937D01*
X0184029Y0178841D01*
X0184051Y0178744D01*
X0184068Y0178646D01*
X0184082Y0178548D01*
X0184092Y0178449D01*
X0184098Y0178349D01*
X0184100Y0178250D01*
X0184098Y0178151D01*
X0184092Y0178051D01*
X0184082Y0177952D01*
X0184068Y0177854D01*
X0184051Y0177756D01*
X0184029Y0177659D01*
X0184004Y0177563D01*
X0183975Y0177468D01*
X0183942Y0177374D01*
X0183905Y0177282D01*
X0183865Y0177191D01*
X0183821Y0177102D01*
X0183773Y0177014D01*
X0183722Y0176929D01*
X0183668Y0176846D01*
X0183611Y0176764D01*
X0183550Y0176686D01*
X0183486Y0176609D01*
X0183420Y0176536D01*
X0183350Y0176465D01*
X0183278Y0176397D01*
X0183203Y0176331D01*
X0183125Y0176269D01*
X0183045Y0176210D01*
X0182963Y0176154D01*
X0182879Y0176102D01*
X0182792Y0176053D01*
X0182704Y0176007D01*
X0182614Y0175965D01*
X0182522Y0175926D01*
X0182429Y0175891D01*
X0182335Y0175860D01*
X0182239Y0175833D01*
X0182142Y0175810D01*
X0182045Y0175790D01*
X0181947Y0175774D01*
X0181848Y0175762D01*
X0181749Y0175754D01*
X0181650Y0175750D01*
X0181550Y0175750D01*
X0181451Y0175754D01*
X0181352Y0175762D01*
X0181253Y0175774D01*
X0181155Y0175790D01*
X0181058Y0175810D01*
X0180961Y0175833D01*
X0180865Y0175860D01*
X0180771Y0175891D01*
X0180678Y0175926D01*
X0180586Y0175965D01*
X0180496Y0176007D01*
X0180408Y0176053D01*
X0180321Y0176102D01*
X0180237Y0176154D01*
X0180155Y0176210D01*
X0180075Y0176269D01*
X0179997Y0176331D01*
X0179922Y0176397D01*
X0179850Y0176465D01*
X0179780Y0176536D01*
X0179714Y0176609D01*
X0179650Y0176686D01*
X0179589Y0176764D01*
X0179532Y0176846D01*
X0179478Y0176929D01*
X0179427Y0177014D01*
X0179379Y0177102D01*
X0179335Y0177191D01*
X0179295Y0177282D01*
X0179258Y0177374D01*
X0179225Y0177468D01*
X0179196Y0177563D01*
X0179171Y0177659D01*
X0179149Y0177756D01*
X0179132Y0177854D01*
X0179118Y0177952D01*
X0179108Y0178051D01*
X0179102Y0178151D01*
X0179100Y0178250D01*
X0145275Y0224892D02*
X0145247Y0224920D01*
X0142547Y0233300D02*
X0142574Y0233328D01*
X0182600Y0244750D02*
X0190600Y0244750D01*
X0211630Y0262005D02*
X0259070Y0262005D01*
X0259070Y0242910D01*
D14*
X0079395Y0089352D02*
X0079395Y0070455D01*
X0070340Y0070455D01*
X0062860Y0070455D02*
X0053805Y0070455D01*
X0053805Y0089352D01*
X0060498Y0096045D01*
X0062860Y0096045D01*
X0070340Y0096045D02*
X0072702Y0096045D01*
X0079395Y0089352D01*
X0062860Y0094865D02*
X0062577Y0094770D01*
X0062296Y0094668D01*
X0062019Y0094559D01*
X0061743Y0094444D01*
X0061471Y0094322D01*
X0061202Y0094193D01*
X0060936Y0094058D01*
X0060674Y0093916D01*
X0060415Y0093768D01*
X0060159Y0093614D01*
X0059908Y0093453D01*
X0059660Y0093286D01*
X0059417Y0093114D01*
X0059178Y0092935D01*
X0058943Y0092751D01*
X0058713Y0092561D01*
X0058488Y0092365D01*
X0058268Y0092164D01*
X0058052Y0091958D01*
X0057842Y0091746D01*
X0057637Y0091530D01*
X0057437Y0091308D01*
X0057243Y0091081D01*
X0057054Y0090850D01*
X0056871Y0090615D01*
X0056694Y0090375D01*
X0056523Y0090130D01*
X0056358Y0089882D01*
X0056199Y0089629D01*
X0056046Y0089373D01*
X0055899Y0089113D01*
X0055759Y0088850D01*
X0055625Y0088583D01*
X0055498Y0088313D01*
X0055378Y0088040D01*
X0055264Y0087765D01*
X0055157Y0087486D01*
X0055057Y0087205D01*
X0054964Y0086922D01*
X0054877Y0086636D01*
X0054798Y0086348D01*
X0054726Y0086059D01*
X0054661Y0085768D01*
X0054603Y0085475D01*
X0054552Y0085181D01*
X0054508Y0084886D01*
X0054472Y0084590D01*
X0054443Y0084293D01*
X0054421Y0083995D01*
X0054406Y0083697D01*
X0054399Y0083399D01*
X0054399Y0083101D01*
X0054406Y0082803D01*
X0054421Y0082505D01*
X0054443Y0082207D01*
X0054472Y0081910D01*
X0054508Y0081614D01*
X0054552Y0081319D01*
X0054603Y0081025D01*
X0054661Y0080732D01*
X0054726Y0080441D01*
X0054798Y0080152D01*
X0054877Y0079864D01*
X0054964Y0079578D01*
X0055057Y0079295D01*
X0055157Y0079014D01*
X0055264Y0078735D01*
X0055378Y0078460D01*
X0055498Y0078187D01*
X0055625Y0077917D01*
X0055759Y0077650D01*
X0055899Y0077387D01*
X0056046Y0077127D01*
X0056199Y0076871D01*
X0056358Y0076618D01*
X0056523Y0076370D01*
X0056694Y0076125D01*
X0056871Y0075885D01*
X0057054Y0075650D01*
X0057243Y0075419D01*
X0057437Y0075192D01*
X0057637Y0074970D01*
X0057842Y0074754D01*
X0058052Y0074542D01*
X0058268Y0074336D01*
X0058488Y0074135D01*
X0058713Y0073939D01*
X0058943Y0073749D01*
X0059178Y0073565D01*
X0059417Y0073386D01*
X0059660Y0073214D01*
X0059908Y0073047D01*
X0060159Y0072886D01*
X0060415Y0072732D01*
X0060674Y0072584D01*
X0060936Y0072442D01*
X0061202Y0072307D01*
X0061471Y0072178D01*
X0061743Y0072056D01*
X0062019Y0071941D01*
X0062296Y0071832D01*
X0062577Y0071730D01*
X0062860Y0071635D01*
X0070340Y0071635D02*
X0070623Y0071730D01*
X0070904Y0071832D01*
X0071181Y0071941D01*
X0071457Y0072056D01*
X0071729Y0072178D01*
X0071998Y0072307D01*
X0072264Y0072442D01*
X0072526Y0072584D01*
X0072785Y0072732D01*
X0073041Y0072886D01*
X0073292Y0073047D01*
X0073540Y0073214D01*
X0073783Y0073386D01*
X0074022Y0073565D01*
X0074257Y0073749D01*
X0074487Y0073939D01*
X0074712Y0074135D01*
X0074932Y0074336D01*
X0075148Y0074542D01*
X0075358Y0074754D01*
X0075563Y0074970D01*
X0075763Y0075192D01*
X0075957Y0075419D01*
X0076146Y0075650D01*
X0076329Y0075885D01*
X0076506Y0076125D01*
X0076677Y0076370D01*
X0076842Y0076618D01*
X0077001Y0076871D01*
X0077154Y0077127D01*
X0077301Y0077387D01*
X0077441Y0077650D01*
X0077575Y0077917D01*
X0077702Y0078187D01*
X0077822Y0078460D01*
X0077936Y0078735D01*
X0078043Y0079014D01*
X0078143Y0079295D01*
X0078236Y0079578D01*
X0078323Y0079864D01*
X0078402Y0080152D01*
X0078474Y0080441D01*
X0078539Y0080732D01*
X0078597Y0081025D01*
X0078648Y0081319D01*
X0078692Y0081614D01*
X0078728Y0081910D01*
X0078757Y0082207D01*
X0078779Y0082505D01*
X0078794Y0082803D01*
X0078801Y0083101D01*
X0078801Y0083399D01*
X0078794Y0083697D01*
X0078779Y0083995D01*
X0078757Y0084293D01*
X0078728Y0084590D01*
X0078692Y0084886D01*
X0078648Y0085181D01*
X0078597Y0085475D01*
X0078539Y0085768D01*
X0078474Y0086059D01*
X0078402Y0086348D01*
X0078323Y0086636D01*
X0078236Y0086922D01*
X0078143Y0087205D01*
X0078043Y0087486D01*
X0077936Y0087765D01*
X0077822Y0088040D01*
X0077702Y0088313D01*
X0077575Y0088583D01*
X0077441Y0088850D01*
X0077301Y0089113D01*
X0077154Y0089373D01*
X0077001Y0089629D01*
X0076842Y0089882D01*
X0076677Y0090130D01*
X0076506Y0090375D01*
X0076329Y0090615D01*
X0076146Y0090850D01*
X0075957Y0091081D01*
X0075763Y0091308D01*
X0075563Y0091530D01*
X0075358Y0091746D01*
X0075148Y0091958D01*
X0074932Y0092164D01*
X0074712Y0092365D01*
X0074487Y0092561D01*
X0074257Y0092751D01*
X0074022Y0092935D01*
X0073783Y0093114D01*
X0073540Y0093286D01*
X0073292Y0093453D01*
X0073041Y0093614D01*
X0072785Y0093768D01*
X0072526Y0093916D01*
X0072264Y0094058D01*
X0071998Y0094193D01*
X0071729Y0094322D01*
X0071457Y0094444D01*
X0071181Y0094559D01*
X0070904Y0094668D01*
X0070623Y0094770D01*
X0070340Y0094865D01*
D15*
X0084640Y0156915D02*
X0084810Y0157085D01*
X0067765Y0174415D02*
X0067935Y0174585D01*
X0132399Y0239219D02*
X0132569Y0239049D01*
X0150631Y0222237D02*
X0150801Y0222067D01*
X0155855Y0242566D02*
X0156095Y0242566D01*
D16*
X0130338Y0199439D02*
X0130338Y0197490D01*
X0106027Y0179534D02*
X0106029Y0179590D01*
X0106035Y0179645D01*
X0106045Y0179699D01*
X0106058Y0179753D01*
X0106076Y0179806D01*
X0106097Y0179857D01*
X0106121Y0179907D01*
X0106149Y0179955D01*
X0106181Y0180001D01*
X0106215Y0180045D01*
X0106253Y0180086D01*
X0106293Y0180124D01*
X0106336Y0180159D01*
X0106381Y0180191D01*
X0106429Y0180220D01*
X0106478Y0180246D01*
X0106529Y0180268D01*
X0106581Y0180286D01*
X0106635Y0180300D01*
X0106690Y0180311D01*
X0106745Y0180318D01*
X0106800Y0180321D01*
X0106856Y0180320D01*
X0106911Y0180315D01*
X0106966Y0180306D01*
X0107020Y0180294D01*
X0107073Y0180277D01*
X0107125Y0180257D01*
X0107175Y0180233D01*
X0107223Y0180206D01*
X0107270Y0180176D01*
X0107314Y0180142D01*
X0107356Y0180105D01*
X0107394Y0180065D01*
X0107431Y0180023D01*
X0107464Y0179978D01*
X0107493Y0179932D01*
X0107520Y0179883D01*
X0107542Y0179832D01*
X0107562Y0179780D01*
X0107577Y0179726D01*
X0107589Y0179672D01*
X0107597Y0179617D01*
X0107601Y0179562D01*
X0107601Y0179506D01*
X0107597Y0179451D01*
X0107589Y0179396D01*
X0107577Y0179342D01*
X0107562Y0179288D01*
X0107542Y0179236D01*
X0107520Y0179185D01*
X0107493Y0179136D01*
X0107464Y0179090D01*
X0107431Y0179045D01*
X0107394Y0179003D01*
X0107356Y0178963D01*
X0107314Y0178926D01*
X0107270Y0178892D01*
X0107223Y0178862D01*
X0107175Y0178835D01*
X0107125Y0178811D01*
X0107073Y0178791D01*
X0107020Y0178774D01*
X0106966Y0178762D01*
X0106911Y0178753D01*
X0106856Y0178748D01*
X0106800Y0178747D01*
X0106745Y0178750D01*
X0106690Y0178757D01*
X0106635Y0178768D01*
X0106581Y0178782D01*
X0106529Y0178800D01*
X0106478Y0178822D01*
X0106429Y0178848D01*
X0106381Y0178877D01*
X0106336Y0178909D01*
X0106293Y0178944D01*
X0106253Y0178982D01*
X0106215Y0179023D01*
X0106181Y0179067D01*
X0106149Y0179113D01*
X0106121Y0179161D01*
X0106097Y0179211D01*
X0106076Y0179262D01*
X0106058Y0179315D01*
X0106045Y0179369D01*
X0106035Y0179423D01*
X0106029Y0179478D01*
X0106027Y0179534D01*
X0105840Y0174941D02*
X0107789Y0174941D01*
X0083291Y0197490D02*
X0083291Y0199439D01*
X0105840Y0221988D02*
X0107789Y0221988D01*
X0094356Y0125081D02*
X0094356Y0116419D01*
X0088844Y0116419D02*
X0088844Y0125081D01*
X0055931Y0114131D02*
X0047269Y0114131D01*
X0047269Y0108619D02*
X0055931Y0108619D01*
D17*
X0091502Y0118388D03*
D18*
X0053962Y0111277D03*
D19*
X0057368Y0130568D03*
X0205832Y0106557D03*
X0237368Y0134943D03*
M02*
