G75*
%MOIN*%
%OFA0B0*%
%FSLAX25Y25*%
%IPPOS*%
%LPD*%
%AMOC8*
5,1,8,0,0,1.08239X$1,22.5*
%
%ADD10OC8,0.06000*%
%ADD11C,0.04724*%
%ADD12C,0.09449*%
%ADD13C,0.17000*%
%ADD14C,0.13843*%
%ADD15C,0.15811*%
%ADD16C,0.06600*%
%ADD17C,0.05906*%
%ADD18C,0.05315*%
%ADD19C,0.07400*%
%ADD20OC8,0.02400*%
D10*
X0151600Y0163250D03*
X0161600Y0163250D03*
X0161600Y0173250D03*
X0151600Y0173250D03*
X0171600Y0173250D03*
X0171600Y0163250D03*
D11*
X0181600Y0059234D03*
X0190616Y0059234D03*
X0173569Y0040258D03*
X0165576Y0040258D03*
X0157584Y0040258D03*
X0149592Y0040258D03*
X0153608Y0033250D03*
X0161600Y0033250D03*
X0169592Y0033250D03*
X0177584Y0033250D03*
X0145616Y0059234D03*
X0136600Y0059234D03*
X0128608Y0059234D03*
X0119592Y0059234D03*
X0111561Y0040258D03*
X0103569Y0040258D03*
X0095576Y0040258D03*
X0087584Y0040258D03*
X0091600Y0033250D03*
X0099592Y0033250D03*
X0107584Y0033250D03*
X0115576Y0033250D03*
X0083608Y0059234D03*
X0074592Y0059234D03*
D12*
X0069612Y0036754D03*
X0195596Y0036754D03*
D13*
X0035975Y0031571D03*
D14*
X0054479Y0043579D03*
D15*
X0035975Y0055390D03*
D16*
X0261600Y0057450D02*
X0261600Y0064050D01*
X0261600Y0092450D02*
X0261600Y0099050D01*
X0261600Y0029050D02*
X0261600Y0022450D01*
D17*
X0242309Y0018467D03*
X0234435Y0025750D03*
X0242309Y0033033D03*
X0242309Y0053467D03*
X0234435Y0060750D03*
X0242309Y0068033D03*
X0242309Y0088467D03*
X0234435Y0095750D03*
X0242309Y0103033D03*
D18*
X0262131Y0132600D02*
X0262131Y0137915D01*
X0262131Y0158585D02*
X0262131Y0163900D01*
D19*
X0191600Y0163250D03*
X0191600Y0153250D03*
X0191600Y0143250D03*
X0191600Y0133250D03*
X0191600Y0123250D03*
X0191600Y0113250D03*
X0191600Y0173250D03*
X0191600Y0183250D03*
X0191600Y0193250D03*
X0191600Y0203250D03*
X0191600Y0213250D03*
X0191600Y0223250D03*
X0026600Y0223250D03*
X0026600Y0213250D03*
X0026600Y0203250D03*
X0026600Y0193250D03*
X0026600Y0183250D03*
X0026600Y0173250D03*
X0026600Y0163250D03*
X0026600Y0153250D03*
X0026600Y0143250D03*
X0026600Y0133250D03*
X0026600Y0123250D03*
X0026600Y0113250D03*
D20*
X0017850Y0108250D03*
X0017850Y0105125D03*
X0017850Y0100750D03*
X0026600Y0102625D03*
X0044100Y0102625D03*
X0046600Y0097699D03*
X0055350Y0105125D03*
X0057850Y0102000D03*
X0061600Y0097625D03*
X0066600Y0108250D03*
X0057225Y0116375D03*
X0054100Y0117625D03*
X0051600Y0115750D03*
X0042225Y0121375D03*
X0039725Y0123875D03*
X0037225Y0126375D03*
X0037225Y0129500D03*
X0044100Y0129500D03*
X0045975Y0126375D03*
X0049100Y0129500D03*
X0052850Y0129500D03*
X0056600Y0129500D03*
X0061600Y0136375D03*
X0067850Y0133250D03*
X0075350Y0124500D03*
X0082225Y0131375D03*
X0082225Y0136375D03*
X0080350Y0140125D03*
X0075975Y0148250D03*
X0065350Y0148875D03*
X0061600Y0150750D03*
X0064725Y0157000D03*
X0059725Y0160750D03*
X0053475Y0160750D03*
X0049100Y0159500D03*
X0044100Y0159500D03*
X0039100Y0157000D03*
X0054725Y0177625D03*
X0062850Y0180125D03*
X0061600Y0185125D03*
X0052850Y0187000D03*
X0042225Y0180125D03*
X0038475Y0183250D03*
X0038475Y0187000D03*
X0038475Y0190750D03*
X0052225Y0208875D03*
X0046600Y0212000D03*
X0060975Y0213875D03*
X0060975Y0217625D03*
X0060975Y0221375D03*
X0065975Y0213250D03*
X0069725Y0213250D03*
X0074100Y0224500D03*
X0080350Y0222000D03*
X0081600Y0225125D03*
X0080975Y0229500D03*
X0085975Y0229500D03*
X0085350Y0233250D03*
X0084100Y0238875D03*
X0088475Y0240125D03*
X0095975Y0239500D03*
X0098475Y0242000D03*
X0101600Y0245125D03*
X0104725Y0248250D03*
X0099725Y0250125D03*
X0078475Y0260125D03*
X0075975Y0257625D03*
X0073475Y0255125D03*
X0070975Y0252625D03*
X0050975Y0255750D03*
X0040975Y0233250D03*
X0043475Y0230750D03*
X0038475Y0230125D03*
X0075350Y0196375D03*
X0082850Y0210750D03*
X0095350Y0198250D03*
X0092850Y0195750D03*
X0097850Y0200750D03*
X0100350Y0203250D03*
X0102850Y0205750D03*
X0104725Y0211375D03*
X0107850Y0212625D03*
X0110975Y0212625D03*
X0119725Y0221375D03*
X0115350Y0226375D03*
X0129725Y0228250D03*
X0130975Y0224500D03*
X0142190Y0218250D03*
X0150350Y0208250D03*
X0159725Y0224500D03*
X0162850Y0230125D03*
X0177225Y0228875D03*
X0180350Y0232000D03*
X0194100Y0232000D03*
X0194100Y0241375D03*
X0200350Y0247000D03*
X0199100Y0252625D03*
X0219725Y0247625D03*
X0222850Y0250750D03*
X0227850Y0254500D03*
X0230350Y0257000D03*
X0226600Y0258875D03*
X0230350Y0252000D03*
X0230350Y0247000D03*
X0230350Y0242000D03*
X0235350Y0237000D03*
X0238475Y0233875D03*
X0240350Y0237000D03*
X0245350Y0237000D03*
X0247225Y0233875D03*
X0250350Y0237000D03*
X0250975Y0228875D03*
X0244100Y0225750D03*
X0234100Y0225750D03*
X0222850Y0215125D03*
X0220350Y0211375D03*
X0230975Y0212625D03*
X0225350Y0200125D03*
X0220350Y0200125D03*
X0205975Y0185750D03*
X0197850Y0188250D03*
X0213475Y0180125D03*
X0222225Y0180125D03*
X0232850Y0170750D03*
X0238475Y0177000D03*
X0252850Y0170750D03*
X0257850Y0175750D03*
X0242225Y0200125D03*
X0202225Y0207000D03*
X0203475Y0218875D03*
X0176600Y0218250D03*
X0173475Y0213250D03*
X0174100Y0190750D03*
X0171600Y0181375D03*
X0166600Y0179500D03*
X0154100Y0187625D03*
X0145975Y0183250D03*
X0140350Y0179500D03*
X0140350Y0173875D03*
X0135350Y0175750D03*
X0143475Y0167625D03*
X0143475Y0163875D03*
X0140975Y0161375D03*
X0132850Y0165125D03*
X0145975Y0175125D03*
X0129100Y0186375D03*
X0118475Y0192000D03*
X0115350Y0193250D03*
X0105350Y0193250D03*
X0119100Y0174500D03*
X0115975Y0155750D03*
X0111600Y0151375D03*
X0118475Y0150125D03*
X0116600Y0145750D03*
X0126600Y0145750D03*
X0140975Y0148875D03*
X0146600Y0146375D03*
X0150350Y0133250D03*
X0146600Y0131375D03*
X0137850Y0131375D03*
X0138475Y0124500D03*
X0129725Y0125125D03*
X0123475Y0125125D03*
X0114100Y0132000D03*
X0100350Y0127000D03*
X0116600Y0111375D03*
X0120975Y0107625D03*
X0118475Y0105125D03*
X0124100Y0102625D03*
X0127850Y0095125D03*
X0132850Y0098250D03*
X0131600Y0108250D03*
X0129100Y0110750D03*
X0136600Y0110750D03*
X0146600Y0105125D03*
X0149725Y0104500D03*
X0157225Y0102625D03*
X0157850Y0107000D03*
X0169725Y0127000D03*
X0169725Y0131375D03*
X0159100Y0136375D03*
X0158475Y0129500D03*
X0169100Y0151375D03*
X0183475Y0138875D03*
X0200350Y0156375D03*
X0202225Y0164500D03*
X0201600Y0143250D03*
X0205350Y0143250D03*
X0205975Y0131375D03*
X0209100Y0129500D03*
X0209100Y0125750D03*
X0202225Y0131375D03*
X0217225Y0125750D03*
X0220350Y0129500D03*
X0225975Y0128875D03*
X0234100Y0142625D03*
X0229100Y0147000D03*
X0221600Y0144500D03*
X0244725Y0131375D03*
X0214100Y0116375D03*
X0207850Y0107625D03*
X0202850Y0113875D03*
X0194725Y0101375D03*
X0206600Y0095750D03*
X0214725Y0089500D03*
X0220975Y0092625D03*
X0220975Y0097625D03*
X0246600Y0082000D03*
X0251600Y0074500D03*
X0251600Y0047000D03*
X0231600Y0047000D03*
X0231600Y0041375D03*
X0231600Y0033250D03*
X0214100Y0033250D03*
X0208475Y0018875D03*
X0176600Y0025125D03*
X0169100Y0023250D03*
X0165350Y0027625D03*
X0152850Y0020125D03*
X0149100Y0029500D03*
X0116600Y0025125D03*
X0107850Y0023250D03*
X0104100Y0027000D03*
X0091600Y0020125D03*
X0086600Y0029500D03*
X0106600Y0055750D03*
X0109100Y0058250D03*
X0111600Y0060750D03*
X0114100Y0063250D03*
X0103475Y0063250D03*
X0115975Y0078250D03*
X0126600Y0073250D03*
X0130350Y0073250D03*
X0151600Y0078250D03*
X0151600Y0067625D03*
X0116600Y0045125D03*
X0078475Y0070750D03*
X0057225Y0073875D03*
X0056600Y0070125D03*
X0053475Y0068250D03*
X0051600Y0065125D03*
X0051600Y0061375D03*
X0091600Y0108250D03*
X0079725Y0113875D03*
X0104100Y0092625D03*
X0049100Y0137000D03*
X0075350Y0163250D03*
X0082225Y0164500D03*
X0086600Y0167000D03*
X0088475Y0160125D03*
X0087225Y0148250D03*
X0101600Y0153250D03*
X0103475Y0147625D03*
X0075350Y0173250D03*
X0064725Y0168875D03*
X0012225Y0143250D03*
X0007225Y0143875D03*
X0011600Y0133250D03*
X0129100Y0248875D03*
X0160350Y0252000D03*
X0220975Y0070125D03*
X0216600Y0052000D03*
X0203475Y0056375D03*
X0199100Y0051375D03*
M02*
