G75*
%MOIN*%
%OFA0B0*%
%FSLAX25Y25*%
%IPPOS*%
%LPD*%
%AMOC8*
5,1,8,0,0,1.08239X$1,22.5*
%
%ADD10R,0.07677X0.07677*%
%ADD11C,0.07677*%
%ADD12C,0.07400*%
%ADD13C,0.05906*%
%ADD14OC8,0.02400*%
%ADD15C,0.02400*%
%ADD16OC8,0.03400*%
D10*
X0057604Y0176000D03*
X0107604Y0176000D03*
X0157604Y0176000D03*
D11*
X0167604Y0176000D03*
X0177604Y0176000D03*
X0187604Y0176000D03*
X0137604Y0176000D03*
X0127604Y0176000D03*
X0117604Y0176000D03*
X0087604Y0176000D03*
X0077604Y0176000D03*
X0067604Y0176000D03*
X0057707Y0036299D03*
X0057707Y0008701D03*
D12*
X0032604Y0050000D03*
X0032604Y0060000D03*
X0032604Y0070000D03*
X0032604Y0080000D03*
X0032604Y0090000D03*
X0032604Y0100000D03*
X0032604Y0110000D03*
X0032604Y0120000D03*
X0032604Y0130000D03*
X0032604Y0140000D03*
X0032604Y0150000D03*
X0032604Y0160000D03*
X0197604Y0160000D03*
X0197604Y0150000D03*
X0197604Y0140000D03*
X0197604Y0130000D03*
X0197604Y0120000D03*
X0197604Y0110000D03*
X0197604Y0100000D03*
X0197604Y0090000D03*
X0197604Y0080000D03*
X0197604Y0070000D03*
X0197604Y0060000D03*
X0197604Y0050000D03*
D13*
X0047904Y0016594D02*
X0047904Y0010689D01*
X0047904Y0028406D02*
X0047904Y0034311D01*
D14*
X0075729Y0038750D03*
X0095729Y0065625D03*
X0098104Y0077000D03*
X0101354Y0080625D03*
X0093854Y0080625D03*
X0089479Y0080000D03*
X0081979Y0072500D03*
X0108604Y0090900D03*
X0119104Y0094300D03*
X0105104Y0103750D03*
X0100104Y0106250D03*
X0097604Y0103750D03*
X0107604Y0110000D03*
X0101979Y0119375D03*
X0097604Y0132500D03*
X0091354Y0133750D03*
X0087604Y0141000D03*
X0081979Y0141875D03*
X0075104Y0132500D03*
X0075104Y0127500D03*
X0070104Y0127500D03*
X0070104Y0132500D03*
X0058854Y0121250D03*
X0058854Y0117500D03*
X0056354Y0115000D03*
X0056354Y0110000D03*
X0058854Y0107500D03*
X0065104Y0112500D03*
X0070104Y0111250D03*
X0072604Y0113125D03*
X0077604Y0111250D03*
X0077604Y0116250D03*
X0083854Y0113750D03*
X0086979Y0110625D03*
X0083854Y0118750D03*
X0088229Y0123750D03*
X0073854Y0107500D03*
X0083854Y0098750D03*
X0115104Y0072500D03*
X0120104Y0072500D03*
X0120104Y0067500D03*
X0115104Y0067500D03*
X0112604Y0055625D03*
X0115104Y0053125D03*
X0118229Y0050625D03*
X0122604Y0055000D03*
X0128854Y0057500D03*
X0134479Y0045000D03*
X0130104Y0038750D03*
X0147604Y0047500D03*
X0166354Y0060625D03*
X0150104Y0077500D03*
X0158229Y0085000D03*
X0161354Y0087500D03*
X0155104Y0090000D03*
X0155104Y0093125D03*
X0151354Y0098750D03*
X0155104Y0103125D03*
X0158229Y0103125D03*
X0161354Y0103125D03*
X0166354Y0103125D03*
X0170729Y0108125D03*
X0174479Y0105625D03*
X0180729Y0105625D03*
X0183854Y0110000D03*
X0190104Y0115000D03*
X0188854Y0125000D03*
X0173854Y0117500D03*
X0168854Y0118750D03*
X0161979Y0123750D03*
X0160104Y0119375D03*
X0152604Y0115625D03*
X0146979Y0113125D03*
X0144479Y0115625D03*
X0145729Y0109375D03*
X0159479Y0112500D03*
X0150104Y0127500D03*
X0150104Y0132500D03*
X0145104Y0132500D03*
X0145104Y0127500D03*
X0130104Y0132500D03*
X0127604Y0125625D03*
X0130104Y0117500D03*
X0130104Y0112500D03*
X0122604Y0110000D03*
X0131354Y0141250D03*
X0130104Y0154375D03*
X0138604Y0169000D03*
X0146104Y0164500D03*
X0161354Y0141250D03*
X0167604Y0141250D03*
X0173854Y0137500D03*
X0166354Y0132500D03*
X0184604Y0151000D03*
X0173854Y0154750D03*
X0177604Y0164500D03*
X0187604Y0169000D03*
X0197604Y0181625D03*
X0212604Y0178000D03*
X0177604Y0098750D03*
X0183854Y0087500D03*
X0186354Y0085000D03*
X0137604Y0071875D03*
X0136104Y0077500D03*
X0183854Y0036250D03*
X0186354Y0038750D03*
X0079604Y0157500D03*
X0075104Y0161250D03*
X0070104Y0157500D03*
X0067604Y0164500D03*
X0057604Y0161250D03*
X0050104Y0160625D03*
X0050104Y0169500D03*
X0041979Y0170000D03*
X0027604Y0168750D03*
X0041354Y0146875D03*
X0052604Y0141250D03*
X0046354Y0133125D03*
X0048604Y0125000D03*
X0043854Y0118750D03*
X0041854Y0115750D03*
X0043854Y0108750D03*
X0045104Y0098750D03*
X0045104Y0091875D03*
X0045729Y0081875D03*
X0043229Y0079375D03*
X0040729Y0076875D03*
X0026354Y0125000D03*
X0087604Y0169500D03*
X0091354Y0167000D03*
X0091354Y0161000D03*
D15*
X0130056Y0190500D03*
X0206604Y0190500D03*
X0212604Y0134500D03*
X0212604Y0096500D03*
X0092604Y0044500D03*
X0075604Y0082500D03*
X0052604Y0115500D03*
X0044604Y0122500D03*
D16*
X0052604Y0098750D03*
M02*
