G75*
%MOIN*%
%OFA0B0*%
%FSLAX25Y25*%
%IPPOS*%
%LPD*%
%AMOC8*
5,1,8,0,0,1.08239X$1,22.5*
%
%ADD10R,0.03937X0.05512*%
%ADD11R,0.02953X0.05512*%
%ADD12R,0.11811X0.06299*%
%ADD13R,0.24409X0.22835*%
%ADD14R,0.06299X0.05512*%
%ADD15R,0.02362X0.08661*%
%ADD16R,0.03543X0.02756*%
%ADD17R,0.05512X0.11811*%
%ADD18R,0.02756X0.03543*%
%ADD19R,0.02200X0.04700*%
%ADD20R,0.04700X0.02200*%
%ADD21R,0.05118X0.04134*%
%ADD22R,0.05315X0.01575*%
%ADD23R,0.05512X0.06299*%
%ADD24R,0.05512X0.05512*%
%ADD25R,0.22000X0.09000*%
%ADD26R,0.01200X0.03900*%
%ADD27C,0.03346*%
%ADD28R,0.02165X0.04724*%
%ADD29C,0.00583*%
%ADD30R,0.02913X0.11024*%
%ADD31C,0.01181*%
%ADD32R,0.01772X0.02756*%
%ADD33R,0.02362X0.04331*%
%ADD34R,0.07098X0.06299*%
%ADD35C,0.00591*%
%ADD36R,0.02480X0.03268*%
%ADD37R,0.05000X0.08268*%
D10*
X0067860Y0138919D03*
X0075340Y0138919D03*
X0071600Y0147581D03*
X0087860Y0138919D03*
X0095340Y0138919D03*
X0091600Y0147581D03*
X0153485Y0141419D03*
X0160965Y0141419D03*
X0157225Y0150081D03*
X0162850Y0128206D03*
X0159110Y0119544D03*
X0166590Y0119544D03*
D11*
X0026600Y0073708D03*
X0031600Y0073708D03*
X0036600Y0073708D03*
X0041600Y0073708D03*
X0041600Y0096542D03*
X0036600Y0096542D03*
X0031600Y0096542D03*
X0026600Y0096542D03*
D12*
X0141817Y0097246D03*
X0141817Y0079254D03*
D13*
X0170084Y0088250D03*
D14*
X0111600Y0083363D03*
X0111600Y0094387D03*
X0186600Y0237738D03*
X0186600Y0248762D03*
D15*
X0146600Y0138486D03*
X0141600Y0138486D03*
X0136600Y0138486D03*
X0131600Y0138486D03*
X0126600Y0138486D03*
X0121600Y0138486D03*
X0116600Y0138486D03*
X0111600Y0138486D03*
X0111600Y0118014D03*
X0116600Y0118014D03*
X0121600Y0118014D03*
X0126600Y0118014D03*
X0131600Y0118014D03*
X0136600Y0118014D03*
X0141600Y0118014D03*
X0146600Y0118014D03*
X0054100Y0148014D03*
X0049100Y0148014D03*
X0044100Y0148014D03*
X0039100Y0148014D03*
X0039100Y0168486D03*
X0044100Y0168486D03*
X0049100Y0168486D03*
X0054100Y0168486D03*
D16*
X0051600Y0195691D03*
X0051600Y0200809D03*
X0155975Y0240007D03*
X0155975Y0245125D03*
D17*
X0066600Y0092699D03*
X0066600Y0073801D03*
D18*
G36*
X0133687Y0153666D02*
X0135636Y0151717D01*
X0133133Y0149214D01*
X0131184Y0151163D01*
X0133687Y0153666D01*
G37*
G36*
X0130067Y0157286D02*
X0132016Y0155337D01*
X0129513Y0152834D01*
X0127564Y0154783D01*
X0130067Y0157286D01*
G37*
G36*
X0135067Y0162286D02*
X0137016Y0160337D01*
X0134513Y0157834D01*
X0132564Y0159783D01*
X0135067Y0162286D01*
G37*
G36*
X0138687Y0158666D02*
X0140636Y0156717D01*
X0138133Y0154214D01*
X0136184Y0156163D01*
X0138687Y0158666D01*
G37*
G36*
X0086812Y0157416D02*
X0088761Y0155467D01*
X0086258Y0152964D01*
X0084309Y0154913D01*
X0086812Y0157416D01*
G37*
G36*
X0083192Y0161036D02*
X0085141Y0159087D01*
X0082638Y0156584D01*
X0080689Y0158533D01*
X0083192Y0161036D01*
G37*
G36*
X0069937Y0174916D02*
X0071886Y0172967D01*
X0069383Y0170464D01*
X0067434Y0172413D01*
X0069937Y0174916D01*
G37*
G36*
X0066317Y0178536D02*
X0068266Y0176587D01*
X0065763Y0174084D01*
X0063814Y0176033D01*
X0066317Y0178536D01*
G37*
G36*
X0132900Y0237047D02*
X0130951Y0235098D01*
X0128448Y0237601D01*
X0130397Y0239550D01*
X0132900Y0237047D01*
G37*
G36*
X0136519Y0240666D02*
X0134570Y0238717D01*
X0132067Y0241220D01*
X0134016Y0243169D01*
X0136519Y0240666D01*
G37*
G36*
X0150300Y0224238D02*
X0152249Y0226187D01*
X0154752Y0223684D01*
X0152803Y0221735D01*
X0150300Y0224238D01*
G37*
G36*
X0146681Y0220619D02*
X0148630Y0222568D01*
X0151133Y0220065D01*
X0149184Y0218116D01*
X0146681Y0220619D01*
G37*
D19*
G36*
X0136992Y0214608D02*
X0138548Y0213052D01*
X0135226Y0209730D01*
X0133670Y0211286D01*
X0136992Y0214608D01*
G37*
G36*
X0139219Y0212381D02*
X0140775Y0210825D01*
X0137453Y0207503D01*
X0135897Y0209059D01*
X0139219Y0212381D01*
G37*
G36*
X0141446Y0210154D02*
X0143002Y0208598D01*
X0139680Y0205276D01*
X0138124Y0206832D01*
X0141446Y0210154D01*
G37*
G36*
X0143674Y0207927D02*
X0145230Y0206371D01*
X0141908Y0203049D01*
X0140352Y0204605D01*
X0143674Y0207927D01*
G37*
G36*
X0145901Y0205700D02*
X0147457Y0204144D01*
X0144135Y0200822D01*
X0142579Y0202378D01*
X0145901Y0205700D01*
G37*
G36*
X0134765Y0216836D02*
X0136321Y0215280D01*
X0132999Y0211958D01*
X0131443Y0213514D01*
X0134765Y0216836D01*
G37*
G36*
X0132538Y0219063D02*
X0134094Y0217507D01*
X0130772Y0214185D01*
X0129216Y0215741D01*
X0132538Y0219063D01*
G37*
G36*
X0130311Y0221290D02*
X0131867Y0219734D01*
X0128545Y0216412D01*
X0126989Y0217968D01*
X0130311Y0221290D01*
G37*
G36*
X0128084Y0223517D02*
X0129640Y0221961D01*
X0126318Y0218639D01*
X0124762Y0220195D01*
X0128084Y0223517D01*
G37*
G36*
X0125857Y0225744D02*
X0127413Y0224188D01*
X0124091Y0220866D01*
X0122535Y0222422D01*
X0125857Y0225744D01*
G37*
G36*
X0123630Y0227971D02*
X0125186Y0226415D01*
X0121864Y0223093D01*
X0120308Y0224649D01*
X0123630Y0227971D01*
G37*
G36*
X0121402Y0230198D02*
X0122958Y0228642D01*
X0119636Y0225320D01*
X0118080Y0226876D01*
X0121402Y0230198D01*
G37*
G36*
X0119175Y0232425D02*
X0120731Y0230869D01*
X0117409Y0227547D01*
X0115853Y0229103D01*
X0119175Y0232425D01*
G37*
G36*
X0116948Y0234652D02*
X0118504Y0233096D01*
X0115182Y0229774D01*
X0113626Y0231330D01*
X0116948Y0234652D01*
G37*
G36*
X0114721Y0236880D02*
X0116277Y0235324D01*
X0112955Y0232002D01*
X0111399Y0233558D01*
X0114721Y0236880D01*
G37*
G36*
X0112494Y0239107D02*
X0114050Y0237551D01*
X0110728Y0234229D01*
X0109172Y0235785D01*
X0112494Y0239107D01*
G37*
G36*
X0069065Y0195678D02*
X0070621Y0194122D01*
X0067299Y0190800D01*
X0065743Y0192356D01*
X0069065Y0195678D01*
G37*
G36*
X0071292Y0193451D02*
X0072848Y0191895D01*
X0069526Y0188573D01*
X0067970Y0190129D01*
X0071292Y0193451D01*
G37*
G36*
X0073520Y0191224D02*
X0075076Y0189668D01*
X0071754Y0186346D01*
X0070198Y0187902D01*
X0073520Y0191224D01*
G37*
G36*
X0075747Y0188997D02*
X0077303Y0187441D01*
X0073981Y0184119D01*
X0072425Y0185675D01*
X0075747Y0188997D01*
G37*
G36*
X0077974Y0186770D02*
X0079530Y0185214D01*
X0076208Y0181892D01*
X0074652Y0183448D01*
X0077974Y0186770D01*
G37*
G36*
X0080201Y0184542D02*
X0081757Y0182986D01*
X0078435Y0179664D01*
X0076879Y0181220D01*
X0080201Y0184542D01*
G37*
G36*
X0082428Y0182315D02*
X0083984Y0180759D01*
X0080662Y0177437D01*
X0079106Y0178993D01*
X0082428Y0182315D01*
G37*
G36*
X0084655Y0180088D02*
X0086211Y0178532D01*
X0082889Y0175210D01*
X0081333Y0176766D01*
X0084655Y0180088D01*
G37*
G36*
X0086882Y0177861D02*
X0088438Y0176305D01*
X0085116Y0172983D01*
X0083560Y0174539D01*
X0086882Y0177861D01*
G37*
G36*
X0089109Y0175634D02*
X0090665Y0174078D01*
X0087343Y0170756D01*
X0085787Y0172312D01*
X0089109Y0175634D01*
G37*
G36*
X0091336Y0173407D02*
X0092892Y0171851D01*
X0089570Y0168529D01*
X0088014Y0170085D01*
X0091336Y0173407D01*
G37*
G36*
X0093564Y0171180D02*
X0095120Y0169624D01*
X0091798Y0166302D01*
X0090242Y0167858D01*
X0093564Y0171180D01*
G37*
G36*
X0095791Y0168953D02*
X0097347Y0167397D01*
X0094025Y0164075D01*
X0092469Y0165631D01*
X0095791Y0168953D01*
G37*
G36*
X0098018Y0166726D02*
X0099574Y0165170D01*
X0096252Y0161848D01*
X0094696Y0163404D01*
X0098018Y0166726D01*
G37*
G36*
X0100245Y0164498D02*
X0101801Y0162942D01*
X0098479Y0159620D01*
X0096923Y0161176D01*
X0100245Y0164498D01*
G37*
G36*
X0102472Y0162271D02*
X0104028Y0160715D01*
X0100706Y0157393D01*
X0099150Y0158949D01*
X0102472Y0162271D01*
G37*
D20*
G36*
X0110728Y0162271D02*
X0114050Y0158949D01*
X0112494Y0157393D01*
X0109172Y0160715D01*
X0110728Y0162271D01*
G37*
G36*
X0112955Y0164498D02*
X0116277Y0161176D01*
X0114721Y0159620D01*
X0111399Y0162942D01*
X0112955Y0164498D01*
G37*
G36*
X0115182Y0166726D02*
X0118504Y0163404D01*
X0116948Y0161848D01*
X0113626Y0165170D01*
X0115182Y0166726D01*
G37*
G36*
X0117409Y0168953D02*
X0120731Y0165631D01*
X0119175Y0164075D01*
X0115853Y0167397D01*
X0117409Y0168953D01*
G37*
G36*
X0119636Y0171180D02*
X0122958Y0167858D01*
X0121402Y0166302D01*
X0118080Y0169624D01*
X0119636Y0171180D01*
G37*
G36*
X0121864Y0173407D02*
X0125186Y0170085D01*
X0123630Y0168529D01*
X0120308Y0171851D01*
X0121864Y0173407D01*
G37*
G36*
X0124091Y0175634D02*
X0127413Y0172312D01*
X0125857Y0170756D01*
X0122535Y0174078D01*
X0124091Y0175634D01*
G37*
G36*
X0126318Y0177861D02*
X0129640Y0174539D01*
X0128084Y0172983D01*
X0124762Y0176305D01*
X0126318Y0177861D01*
G37*
G36*
X0128545Y0180088D02*
X0131867Y0176766D01*
X0130311Y0175210D01*
X0126989Y0178532D01*
X0128545Y0180088D01*
G37*
G36*
X0130772Y0182315D02*
X0134094Y0178993D01*
X0132538Y0177437D01*
X0129216Y0180759D01*
X0130772Y0182315D01*
G37*
G36*
X0132999Y0184542D02*
X0136321Y0181220D01*
X0134765Y0179664D01*
X0131443Y0182986D01*
X0132999Y0184542D01*
G37*
G36*
X0135226Y0186770D02*
X0138548Y0183448D01*
X0136992Y0181892D01*
X0133670Y0185214D01*
X0135226Y0186770D01*
G37*
G36*
X0137453Y0188997D02*
X0140775Y0185675D01*
X0139219Y0184119D01*
X0135897Y0187441D01*
X0137453Y0188997D01*
G37*
G36*
X0139680Y0191224D02*
X0143002Y0187902D01*
X0141446Y0186346D01*
X0138124Y0189668D01*
X0139680Y0191224D01*
G37*
G36*
X0141908Y0193451D02*
X0145230Y0190129D01*
X0143674Y0188573D01*
X0140352Y0191895D01*
X0141908Y0193451D01*
G37*
G36*
X0144135Y0195678D02*
X0147457Y0192356D01*
X0145901Y0190800D01*
X0142579Y0194122D01*
X0144135Y0195678D01*
G37*
G36*
X0100706Y0239107D02*
X0104028Y0235785D01*
X0102472Y0234229D01*
X0099150Y0237551D01*
X0100706Y0239107D01*
G37*
G36*
X0098479Y0236880D02*
X0101801Y0233558D01*
X0100245Y0232002D01*
X0096923Y0235324D01*
X0098479Y0236880D01*
G37*
G36*
X0096252Y0234652D02*
X0099574Y0231330D01*
X0098018Y0229774D01*
X0094696Y0233096D01*
X0096252Y0234652D01*
G37*
G36*
X0094025Y0232425D02*
X0097347Y0229103D01*
X0095791Y0227547D01*
X0092469Y0230869D01*
X0094025Y0232425D01*
G37*
G36*
X0091798Y0230198D02*
X0095120Y0226876D01*
X0093564Y0225320D01*
X0090242Y0228642D01*
X0091798Y0230198D01*
G37*
G36*
X0089570Y0227971D02*
X0092892Y0224649D01*
X0091336Y0223093D01*
X0088014Y0226415D01*
X0089570Y0227971D01*
G37*
G36*
X0087343Y0225744D02*
X0090665Y0222422D01*
X0089109Y0220866D01*
X0085787Y0224188D01*
X0087343Y0225744D01*
G37*
G36*
X0085116Y0223517D02*
X0088438Y0220195D01*
X0086882Y0218639D01*
X0083560Y0221961D01*
X0085116Y0223517D01*
G37*
G36*
X0082889Y0221290D02*
X0086211Y0217968D01*
X0084655Y0216412D01*
X0081333Y0219734D01*
X0082889Y0221290D01*
G37*
G36*
X0080662Y0219063D02*
X0083984Y0215741D01*
X0082428Y0214185D01*
X0079106Y0217507D01*
X0080662Y0219063D01*
G37*
G36*
X0078435Y0216836D02*
X0081757Y0213514D01*
X0080201Y0211958D01*
X0076879Y0215280D01*
X0078435Y0216836D01*
G37*
G36*
X0076208Y0214608D02*
X0079530Y0211286D01*
X0077974Y0209730D01*
X0074652Y0213052D01*
X0076208Y0214608D01*
G37*
G36*
X0073981Y0212381D02*
X0077303Y0209059D01*
X0075747Y0207503D01*
X0072425Y0210825D01*
X0073981Y0212381D01*
G37*
G36*
X0071754Y0210154D02*
X0075076Y0206832D01*
X0073520Y0205276D01*
X0070198Y0208598D01*
X0071754Y0210154D01*
G37*
G36*
X0069526Y0207927D02*
X0072848Y0204605D01*
X0071292Y0203049D01*
X0067970Y0206371D01*
X0069526Y0207927D01*
G37*
G36*
X0067299Y0205700D02*
X0070621Y0202378D01*
X0069065Y0200822D01*
X0065743Y0204144D01*
X0067299Y0205700D01*
G37*
D21*
G36*
X0135476Y0234218D02*
X0139094Y0230600D01*
X0136170Y0227676D01*
X0132552Y0231294D01*
X0135476Y0234218D01*
G37*
G36*
X0140627Y0239369D02*
X0144245Y0235751D01*
X0141321Y0232827D01*
X0137703Y0236445D01*
X0140627Y0239369D01*
G37*
G36*
X0147030Y0232966D02*
X0150648Y0229348D01*
X0147724Y0226424D01*
X0144106Y0230042D01*
X0147030Y0232966D01*
G37*
G36*
X0141879Y0227816D02*
X0145497Y0224198D01*
X0142573Y0221274D01*
X0138955Y0224892D01*
X0141879Y0227816D01*
G37*
D22*
X0251600Y0153368D03*
X0251600Y0150809D03*
X0251600Y0148250D03*
X0251600Y0145691D03*
X0251600Y0143132D03*
D23*
X0251600Y0135652D03*
X0246088Y0118250D03*
X0257112Y0118250D03*
X0251600Y0160848D03*
D24*
X0091600Y0128230D03*
X0091600Y0113270D03*
X0059080Y0111375D03*
X0044120Y0111375D03*
D25*
X0093475Y0101500D03*
X0093475Y0072500D03*
D26*
G36*
X0063741Y0226903D02*
X0064590Y0227752D01*
X0067347Y0224995D01*
X0066498Y0224146D01*
X0063741Y0226903D01*
G37*
G36*
X0065551Y0228712D02*
X0066400Y0229561D01*
X0069157Y0226804D01*
X0068308Y0225955D01*
X0065551Y0228712D01*
G37*
G36*
X0067360Y0230522D02*
X0068209Y0231371D01*
X0070966Y0228614D01*
X0070117Y0227765D01*
X0067360Y0230522D01*
G37*
G36*
X0069170Y0232331D02*
X0070019Y0233180D01*
X0072776Y0230423D01*
X0071927Y0229574D01*
X0069170Y0232331D01*
G37*
G36*
X0070979Y0234141D02*
X0071828Y0234990D01*
X0074585Y0232233D01*
X0073736Y0231384D01*
X0070979Y0234141D01*
G37*
G36*
X0072789Y0235950D02*
X0073638Y0236799D01*
X0076395Y0234042D01*
X0075546Y0233193D01*
X0072789Y0235950D01*
G37*
G36*
X0074598Y0237760D02*
X0075447Y0238609D01*
X0078204Y0235852D01*
X0077355Y0235003D01*
X0074598Y0237760D01*
G37*
G36*
X0058353Y0254005D02*
X0059202Y0254854D01*
X0061959Y0252097D01*
X0061110Y0251248D01*
X0058353Y0254005D01*
G37*
G36*
X0056543Y0252196D02*
X0057392Y0253045D01*
X0060149Y0250288D01*
X0059300Y0249439D01*
X0056543Y0252196D01*
G37*
G36*
X0054734Y0250386D02*
X0055583Y0251235D01*
X0058340Y0248478D01*
X0057491Y0247629D01*
X0054734Y0250386D01*
G37*
G36*
X0052924Y0248577D02*
X0053773Y0249426D01*
X0056530Y0246669D01*
X0055681Y0245820D01*
X0052924Y0248577D01*
G37*
G36*
X0051115Y0246767D02*
X0051964Y0247616D01*
X0054721Y0244859D01*
X0053872Y0244010D01*
X0051115Y0246767D01*
G37*
G36*
X0049305Y0244958D02*
X0050154Y0245807D01*
X0052911Y0243050D01*
X0052062Y0242201D01*
X0049305Y0244958D01*
G37*
G36*
X0047496Y0243148D02*
X0048345Y0243997D01*
X0051102Y0241240D01*
X0050253Y0240391D01*
X0047496Y0243148D01*
G37*
D27*
X0207398Y0243698D02*
X0215862Y0243698D01*
X0215862Y0248619D02*
X0207398Y0248619D01*
X0207398Y0253540D02*
X0215862Y0253540D01*
X0215862Y0258462D02*
X0207398Y0258462D01*
X0207398Y0238777D02*
X0215862Y0238777D01*
X0215862Y0233855D02*
X0207398Y0233855D01*
X0207398Y0228934D02*
X0215862Y0228934D01*
X0215862Y0224013D02*
X0207398Y0224013D01*
X0207398Y0219092D02*
X0215862Y0219092D01*
X0215862Y0214170D02*
X0207398Y0214170D01*
X0207398Y0209249D02*
X0215862Y0209249D01*
X0215862Y0204328D02*
X0207398Y0204328D01*
X0207398Y0199406D02*
X0215862Y0199406D01*
X0218126Y0194977D02*
X0218126Y0186513D01*
X0223047Y0186513D02*
X0223047Y0194977D01*
X0227968Y0194977D02*
X0227968Y0186513D01*
X0232889Y0186513D02*
X0232889Y0194977D01*
X0237811Y0194977D02*
X0237811Y0186513D01*
X0242732Y0186513D02*
X0242732Y0194977D01*
X0247653Y0194977D02*
X0247653Y0186513D01*
X0252574Y0186513D02*
X0252574Y0194977D01*
X0254838Y0199406D02*
X0263302Y0199406D01*
X0263302Y0204328D02*
X0254838Y0204328D01*
X0254838Y0209249D02*
X0263302Y0209249D01*
X0263302Y0214170D02*
X0254838Y0214170D01*
X0254838Y0219092D02*
X0263302Y0219092D01*
X0263302Y0224013D02*
X0254838Y0224013D01*
X0254838Y0228934D02*
X0263302Y0228934D01*
X0263302Y0233855D02*
X0254838Y0233855D01*
X0254838Y0238777D02*
X0263302Y0238777D01*
D28*
X0170340Y0238131D03*
X0166600Y0238131D03*
X0162860Y0238131D03*
X0162860Y0248369D03*
X0170340Y0248369D03*
D29*
X0225435Y0176463D02*
X0225435Y0166021D01*
X0225435Y0176463D02*
X0227765Y0176463D01*
X0227765Y0166021D01*
X0225435Y0166021D01*
X0225435Y0166603D02*
X0227765Y0166603D01*
X0227765Y0167185D02*
X0225435Y0167185D01*
X0225435Y0167767D02*
X0227765Y0167767D01*
X0227765Y0168349D02*
X0225435Y0168349D01*
X0225435Y0168931D02*
X0227765Y0168931D01*
X0227765Y0169513D02*
X0225435Y0169513D01*
X0225435Y0170095D02*
X0227765Y0170095D01*
X0227765Y0170677D02*
X0225435Y0170677D01*
X0225435Y0171259D02*
X0227765Y0171259D01*
X0227765Y0171841D02*
X0225435Y0171841D01*
X0225435Y0172423D02*
X0227765Y0172423D01*
X0227765Y0173005D02*
X0225435Y0173005D01*
X0225435Y0173587D02*
X0227765Y0173587D01*
X0227765Y0174169D02*
X0225435Y0174169D01*
X0225435Y0174751D02*
X0227765Y0174751D01*
X0227765Y0175333D02*
X0225435Y0175333D01*
X0225435Y0175915D02*
X0227765Y0175915D01*
D30*
X0221600Y0171242D03*
X0216600Y0171242D03*
X0211600Y0171242D03*
X0206600Y0171242D03*
X0206600Y0155258D03*
X0211600Y0155258D03*
X0216600Y0155258D03*
X0221600Y0155258D03*
X0226600Y0155258D03*
D31*
X0218675Y0019628D02*
X0218675Y0016872D01*
X0218675Y0019628D02*
X0221431Y0019628D01*
X0221431Y0016872D01*
X0218675Y0016872D01*
X0218675Y0018052D02*
X0221431Y0018052D01*
X0221431Y0019232D02*
X0218675Y0019232D01*
X0211769Y0019628D02*
X0211769Y0016872D01*
X0211769Y0019628D02*
X0214525Y0019628D01*
X0214525Y0016872D01*
X0211769Y0016872D01*
X0211769Y0018052D02*
X0214525Y0018052D01*
X0214525Y0019232D02*
X0211769Y0019232D01*
D32*
X0210350Y0103526D03*
X0206610Y0103526D03*
X0214090Y0103526D03*
X0214090Y0112974D03*
X0210350Y0112974D03*
X0206610Y0112974D03*
X0229110Y0128526D03*
X0232850Y0128526D03*
X0236590Y0128526D03*
X0236590Y0137974D03*
X0232850Y0137974D03*
X0229110Y0137974D03*
X0056590Y0133599D03*
X0052850Y0133599D03*
X0049110Y0133599D03*
X0049110Y0124151D03*
X0052850Y0124151D03*
X0056590Y0124151D03*
D33*
X0015340Y0137935D03*
X0011600Y0137935D03*
X0007860Y0137935D03*
X0007860Y0148565D03*
X0011600Y0148565D03*
X0015340Y0148565D03*
D34*
X0011600Y0113848D03*
X0011600Y0102652D03*
D35*
X0097419Y0185310D02*
X0097836Y0184893D01*
X0096305Y0183362D01*
X0095888Y0183779D01*
X0097419Y0185310D01*
X0096895Y0183952D02*
X0096061Y0183952D01*
X0096651Y0184542D02*
X0097485Y0184542D01*
X0097597Y0185132D02*
X0097241Y0185132D01*
X0096444Y0186285D02*
X0096027Y0186702D01*
X0096444Y0186285D02*
X0094913Y0184754D01*
X0094496Y0185171D01*
X0096027Y0186702D01*
X0095503Y0185344D02*
X0094669Y0185344D01*
X0095259Y0185934D02*
X0096093Y0185934D01*
X0096205Y0186524D02*
X0095849Y0186524D01*
X0095052Y0187677D02*
X0094635Y0188094D01*
X0095052Y0187677D02*
X0093521Y0186146D01*
X0093104Y0186563D01*
X0094635Y0188094D01*
X0094111Y0186736D02*
X0093277Y0186736D01*
X0093867Y0187326D02*
X0094701Y0187326D01*
X0094813Y0187916D02*
X0094457Y0187916D01*
X0093660Y0189069D02*
X0093243Y0189486D01*
X0093660Y0189069D02*
X0092129Y0187538D01*
X0091712Y0187955D01*
X0093243Y0189486D01*
X0092719Y0188128D02*
X0091885Y0188128D01*
X0092475Y0188718D02*
X0093309Y0188718D01*
X0093421Y0189308D02*
X0093065Y0189308D01*
X0092268Y0190461D02*
X0091851Y0190878D01*
X0092268Y0190461D02*
X0090737Y0188930D01*
X0090320Y0189347D01*
X0091851Y0190878D01*
X0091327Y0189520D02*
X0090493Y0189520D01*
X0091083Y0190110D02*
X0091917Y0190110D01*
X0092029Y0190700D02*
X0091673Y0190700D01*
X0090876Y0191853D02*
X0090459Y0192270D01*
X0090876Y0191853D02*
X0089345Y0190322D01*
X0088928Y0190739D01*
X0090459Y0192270D01*
X0089935Y0190912D02*
X0089101Y0190912D01*
X0089691Y0191502D02*
X0090525Y0191502D01*
X0090637Y0192092D02*
X0090281Y0192092D01*
X0089484Y0193245D02*
X0089067Y0193662D01*
X0089484Y0193245D02*
X0087953Y0191714D01*
X0087536Y0192131D01*
X0089067Y0193662D01*
X0088543Y0192304D02*
X0087709Y0192304D01*
X0088299Y0192894D02*
X0089133Y0192894D01*
X0089245Y0193484D02*
X0088889Y0193484D01*
X0088092Y0194637D02*
X0087675Y0195054D01*
X0088092Y0194637D02*
X0086561Y0193106D01*
X0086144Y0193523D01*
X0087675Y0195054D01*
X0087151Y0193696D02*
X0086317Y0193696D01*
X0086907Y0194286D02*
X0087741Y0194286D01*
X0087853Y0194876D02*
X0087497Y0194876D01*
X0086701Y0196029D02*
X0086284Y0196446D01*
X0086701Y0196029D02*
X0085170Y0194498D01*
X0084753Y0194915D01*
X0086284Y0196446D01*
X0085760Y0195088D02*
X0084926Y0195088D01*
X0085516Y0195678D02*
X0086350Y0195678D01*
X0086462Y0196268D02*
X0086106Y0196268D01*
X0085309Y0197421D02*
X0084892Y0197838D01*
X0085309Y0197421D02*
X0083778Y0195890D01*
X0083361Y0196307D01*
X0084892Y0197838D01*
X0084368Y0196480D02*
X0083534Y0196480D01*
X0084124Y0197070D02*
X0084958Y0197070D01*
X0085070Y0197660D02*
X0084714Y0197660D01*
X0085309Y0199508D02*
X0083778Y0201039D01*
X0085309Y0199508D02*
X0084892Y0199091D01*
X0083361Y0200622D01*
X0083778Y0201039D01*
X0084302Y0199681D02*
X0085136Y0199681D01*
X0084546Y0200271D02*
X0083712Y0200271D01*
X0083600Y0200861D02*
X0083956Y0200861D01*
X0085170Y0202431D02*
X0086701Y0200900D01*
X0086284Y0200483D01*
X0084753Y0202014D01*
X0085170Y0202431D01*
X0085694Y0201073D02*
X0086528Y0201073D01*
X0085938Y0201663D02*
X0085104Y0201663D01*
X0084992Y0202253D02*
X0085348Y0202253D01*
X0086561Y0203823D02*
X0088092Y0202292D01*
X0087675Y0201875D01*
X0086144Y0203406D01*
X0086561Y0203823D01*
X0087085Y0202465D02*
X0087919Y0202465D01*
X0087329Y0203055D02*
X0086495Y0203055D01*
X0086383Y0203645D02*
X0086739Y0203645D01*
X0087953Y0205215D02*
X0089484Y0203684D01*
X0089067Y0203267D01*
X0087536Y0204798D01*
X0087953Y0205215D01*
X0088477Y0203857D02*
X0089311Y0203857D01*
X0088721Y0204447D02*
X0087887Y0204447D01*
X0087775Y0205037D02*
X0088131Y0205037D01*
X0089345Y0206607D02*
X0090876Y0205076D01*
X0090459Y0204659D01*
X0088928Y0206190D01*
X0089345Y0206607D01*
X0089869Y0205249D02*
X0090703Y0205249D01*
X0090113Y0205839D02*
X0089279Y0205839D01*
X0089167Y0206429D02*
X0089523Y0206429D01*
X0090737Y0207999D02*
X0092268Y0206468D01*
X0091851Y0206051D01*
X0090320Y0207582D01*
X0090737Y0207999D01*
X0091261Y0206641D02*
X0092095Y0206641D01*
X0091505Y0207231D02*
X0090671Y0207231D01*
X0090559Y0207821D02*
X0090915Y0207821D01*
X0092129Y0209391D02*
X0093660Y0207860D01*
X0093243Y0207443D01*
X0091712Y0208974D01*
X0092129Y0209391D01*
X0092653Y0208033D02*
X0093487Y0208033D01*
X0092897Y0208623D02*
X0092063Y0208623D01*
X0091951Y0209213D02*
X0092307Y0209213D01*
X0093521Y0210783D02*
X0095052Y0209252D01*
X0094635Y0208835D01*
X0093104Y0210366D01*
X0093521Y0210783D01*
X0094045Y0209425D02*
X0094879Y0209425D01*
X0094289Y0210015D02*
X0093455Y0210015D01*
X0093343Y0210605D02*
X0093699Y0210605D01*
X0094913Y0212175D02*
X0096444Y0210644D01*
X0096027Y0210227D01*
X0094496Y0211758D01*
X0094913Y0212175D01*
X0095437Y0210817D02*
X0096271Y0210817D01*
X0095681Y0211407D02*
X0094847Y0211407D01*
X0094735Y0211997D02*
X0095091Y0211997D01*
X0096305Y0213567D02*
X0097836Y0212036D01*
X0097419Y0211619D01*
X0095888Y0213150D01*
X0096305Y0213567D01*
X0096829Y0212209D02*
X0097663Y0212209D01*
X0097073Y0212799D02*
X0096239Y0212799D01*
X0096127Y0213389D02*
X0096483Y0213389D01*
X0097697Y0214959D02*
X0099228Y0213428D01*
X0098811Y0213011D01*
X0097280Y0214542D01*
X0097697Y0214959D01*
X0098221Y0213601D02*
X0099055Y0213601D01*
X0098465Y0214191D02*
X0097631Y0214191D01*
X0097519Y0214781D02*
X0097875Y0214781D01*
X0099089Y0216351D02*
X0100620Y0214820D01*
X0100203Y0214403D01*
X0098672Y0215934D01*
X0099089Y0216351D01*
X0099613Y0214993D02*
X0100447Y0214993D01*
X0099857Y0215583D02*
X0099023Y0215583D01*
X0098911Y0216173D02*
X0099267Y0216173D01*
X0100481Y0217743D02*
X0102012Y0216212D01*
X0101595Y0215795D01*
X0100064Y0217326D01*
X0100481Y0217743D01*
X0101005Y0216385D02*
X0101839Y0216385D01*
X0101249Y0216975D02*
X0100415Y0216975D01*
X0100303Y0217565D02*
X0100659Y0217565D01*
X0101873Y0219134D02*
X0103404Y0217603D01*
X0102987Y0217186D01*
X0101456Y0218717D01*
X0101873Y0219134D01*
X0102397Y0217776D02*
X0103231Y0217776D01*
X0102641Y0218366D02*
X0101807Y0218366D01*
X0101695Y0218956D02*
X0102051Y0218956D01*
X0103265Y0220526D02*
X0104796Y0218995D01*
X0104379Y0218578D01*
X0102848Y0220109D01*
X0103265Y0220526D01*
X0103789Y0219168D02*
X0104623Y0219168D01*
X0104033Y0219758D02*
X0103199Y0219758D01*
X0103087Y0220348D02*
X0103443Y0220348D01*
X0104657Y0221918D02*
X0106188Y0220387D01*
X0105771Y0219970D01*
X0104240Y0221501D01*
X0104657Y0221918D01*
X0105181Y0220560D02*
X0106015Y0220560D01*
X0105425Y0221150D02*
X0104591Y0221150D01*
X0104479Y0221740D02*
X0104835Y0221740D01*
X0108972Y0221918D02*
X0109389Y0221501D01*
X0107858Y0219970D01*
X0107441Y0220387D01*
X0108972Y0221918D01*
X0108448Y0220560D02*
X0107614Y0220560D01*
X0108204Y0221150D02*
X0109038Y0221150D01*
X0109150Y0221740D02*
X0108794Y0221740D01*
X0110364Y0220526D02*
X0110781Y0220109D01*
X0109250Y0218578D01*
X0108833Y0218995D01*
X0110364Y0220526D01*
X0109840Y0219168D02*
X0109006Y0219168D01*
X0109596Y0219758D02*
X0110430Y0219758D01*
X0110542Y0220348D02*
X0110186Y0220348D01*
X0111756Y0219134D02*
X0112173Y0218717D01*
X0110642Y0217186D01*
X0110225Y0217603D01*
X0111756Y0219134D01*
X0111232Y0217776D02*
X0110398Y0217776D01*
X0110988Y0218366D02*
X0111822Y0218366D01*
X0111934Y0218956D02*
X0111578Y0218956D01*
X0113148Y0217743D02*
X0113565Y0217326D01*
X0112034Y0215795D01*
X0111617Y0216212D01*
X0113148Y0217743D01*
X0112624Y0216385D02*
X0111790Y0216385D01*
X0112380Y0216975D02*
X0113214Y0216975D01*
X0113326Y0217565D02*
X0112970Y0217565D01*
X0114540Y0216351D02*
X0114957Y0215934D01*
X0113426Y0214403D01*
X0113009Y0214820D01*
X0114540Y0216351D01*
X0114016Y0214993D02*
X0113182Y0214993D01*
X0113772Y0215583D02*
X0114606Y0215583D01*
X0114718Y0216173D02*
X0114362Y0216173D01*
X0115932Y0214959D02*
X0116349Y0214542D01*
X0114818Y0213011D01*
X0114401Y0213428D01*
X0115932Y0214959D01*
X0115408Y0213601D02*
X0114574Y0213601D01*
X0115164Y0214191D02*
X0115998Y0214191D01*
X0116110Y0214781D02*
X0115754Y0214781D01*
X0117324Y0213567D02*
X0117741Y0213150D01*
X0116210Y0211619D01*
X0115793Y0212036D01*
X0117324Y0213567D01*
X0116800Y0212209D02*
X0115966Y0212209D01*
X0116556Y0212799D02*
X0117390Y0212799D01*
X0117502Y0213389D02*
X0117146Y0213389D01*
X0118716Y0212175D02*
X0119133Y0211758D01*
X0117602Y0210227D01*
X0117185Y0210644D01*
X0118716Y0212175D01*
X0118192Y0210817D02*
X0117358Y0210817D01*
X0117948Y0211407D02*
X0118782Y0211407D01*
X0118894Y0211997D02*
X0118538Y0211997D01*
X0120108Y0210783D02*
X0120525Y0210366D01*
X0118994Y0208835D01*
X0118577Y0209252D01*
X0120108Y0210783D01*
X0119584Y0209425D02*
X0118750Y0209425D01*
X0119340Y0210015D02*
X0120174Y0210015D01*
X0120286Y0210605D02*
X0119930Y0210605D01*
X0121500Y0209391D02*
X0121917Y0208974D01*
X0120386Y0207443D01*
X0119969Y0207860D01*
X0121500Y0209391D01*
X0120976Y0208033D02*
X0120142Y0208033D01*
X0120732Y0208623D02*
X0121566Y0208623D01*
X0121678Y0209213D02*
X0121322Y0209213D01*
X0122892Y0207999D02*
X0123309Y0207582D01*
X0121778Y0206051D01*
X0121361Y0206468D01*
X0122892Y0207999D01*
X0122368Y0206641D02*
X0121534Y0206641D01*
X0122124Y0207231D02*
X0122958Y0207231D01*
X0123070Y0207821D02*
X0122714Y0207821D01*
X0124284Y0206607D02*
X0124701Y0206190D01*
X0123170Y0204659D01*
X0122753Y0205076D01*
X0124284Y0206607D01*
X0123760Y0205249D02*
X0122926Y0205249D01*
X0123516Y0205839D02*
X0124350Y0205839D01*
X0124462Y0206429D02*
X0124106Y0206429D01*
X0125676Y0205215D02*
X0126093Y0204798D01*
X0124562Y0203267D01*
X0124145Y0203684D01*
X0125676Y0205215D01*
X0125152Y0203857D02*
X0124318Y0203857D01*
X0124908Y0204447D02*
X0125742Y0204447D01*
X0125854Y0205037D02*
X0125498Y0205037D01*
X0127067Y0203823D02*
X0127484Y0203406D01*
X0125953Y0201875D01*
X0125536Y0202292D01*
X0127067Y0203823D01*
X0126543Y0202465D02*
X0125709Y0202465D01*
X0126299Y0203055D02*
X0127133Y0203055D01*
X0127245Y0203645D02*
X0126889Y0203645D01*
X0128459Y0202431D02*
X0128876Y0202014D01*
X0127345Y0200483D01*
X0126928Y0200900D01*
X0128459Y0202431D01*
X0127935Y0201073D02*
X0127101Y0201073D01*
X0127691Y0201663D02*
X0128525Y0201663D01*
X0128637Y0202253D02*
X0128281Y0202253D01*
X0129851Y0201039D02*
X0130268Y0200622D01*
X0128737Y0199091D01*
X0128320Y0199508D01*
X0129851Y0201039D01*
X0129327Y0199681D02*
X0128493Y0199681D01*
X0129083Y0200271D02*
X0129917Y0200271D01*
X0130029Y0200861D02*
X0129673Y0200861D01*
X0128737Y0197838D02*
X0130268Y0196307D01*
X0129851Y0195890D01*
X0128320Y0197421D01*
X0128737Y0197838D01*
X0129261Y0196480D02*
X0130095Y0196480D01*
X0129505Y0197070D02*
X0128671Y0197070D01*
X0128559Y0197660D02*
X0128915Y0197660D01*
X0127345Y0196446D02*
X0128876Y0194915D01*
X0128459Y0194498D01*
X0126928Y0196029D01*
X0127345Y0196446D01*
X0127869Y0195088D02*
X0128703Y0195088D01*
X0128113Y0195678D02*
X0127279Y0195678D01*
X0127167Y0196268D02*
X0127523Y0196268D01*
X0125953Y0195054D02*
X0127484Y0193523D01*
X0127067Y0193106D01*
X0125536Y0194637D01*
X0125953Y0195054D01*
X0126477Y0193696D02*
X0127311Y0193696D01*
X0126721Y0194286D02*
X0125887Y0194286D01*
X0125775Y0194876D02*
X0126131Y0194876D01*
X0124562Y0193662D02*
X0126093Y0192131D01*
X0125676Y0191714D01*
X0124145Y0193245D01*
X0124562Y0193662D01*
X0125086Y0192304D02*
X0125920Y0192304D01*
X0125330Y0192894D02*
X0124496Y0192894D01*
X0124384Y0193484D02*
X0124740Y0193484D01*
X0123170Y0192270D02*
X0124701Y0190739D01*
X0124284Y0190322D01*
X0122753Y0191853D01*
X0123170Y0192270D01*
X0123694Y0190912D02*
X0124528Y0190912D01*
X0123938Y0191502D02*
X0123104Y0191502D01*
X0122992Y0192092D02*
X0123348Y0192092D01*
X0121778Y0190878D02*
X0123309Y0189347D01*
X0122892Y0188930D01*
X0121361Y0190461D01*
X0121778Y0190878D01*
X0122302Y0189520D02*
X0123136Y0189520D01*
X0122546Y0190110D02*
X0121712Y0190110D01*
X0121600Y0190700D02*
X0121956Y0190700D01*
X0120386Y0189486D02*
X0121917Y0187955D01*
X0121500Y0187538D01*
X0119969Y0189069D01*
X0120386Y0189486D01*
X0120910Y0188128D02*
X0121744Y0188128D01*
X0121154Y0188718D02*
X0120320Y0188718D01*
X0120208Y0189308D02*
X0120564Y0189308D01*
X0118994Y0188094D02*
X0120525Y0186563D01*
X0120108Y0186146D01*
X0118577Y0187677D01*
X0118994Y0188094D01*
X0119518Y0186736D02*
X0120352Y0186736D01*
X0119762Y0187326D02*
X0118928Y0187326D01*
X0118816Y0187916D02*
X0119172Y0187916D01*
X0117602Y0186702D02*
X0119133Y0185171D01*
X0118716Y0184754D01*
X0117185Y0186285D01*
X0117602Y0186702D01*
X0118126Y0185344D02*
X0118960Y0185344D01*
X0118370Y0185934D02*
X0117536Y0185934D01*
X0117424Y0186524D02*
X0117780Y0186524D01*
X0116210Y0185310D02*
X0117741Y0183779D01*
X0117324Y0183362D01*
X0115793Y0184893D01*
X0116210Y0185310D01*
X0116734Y0183952D02*
X0117568Y0183952D01*
X0116978Y0184542D02*
X0116144Y0184542D01*
X0116032Y0185132D02*
X0116388Y0185132D01*
X0114818Y0183918D02*
X0116349Y0182387D01*
X0115932Y0181970D01*
X0114401Y0183501D01*
X0114818Y0183918D01*
X0115342Y0182560D02*
X0116176Y0182560D01*
X0115586Y0183150D02*
X0114752Y0183150D01*
X0114640Y0183740D02*
X0114996Y0183740D01*
X0113426Y0182526D02*
X0114957Y0180995D01*
X0114540Y0180578D01*
X0113009Y0182109D01*
X0113426Y0182526D01*
X0113950Y0181168D02*
X0114784Y0181168D01*
X0114194Y0181758D02*
X0113360Y0181758D01*
X0113248Y0182348D02*
X0113604Y0182348D01*
X0112034Y0181134D02*
X0113565Y0179603D01*
X0113148Y0179186D01*
X0111617Y0180717D01*
X0112034Y0181134D01*
X0112558Y0179776D02*
X0113392Y0179776D01*
X0112802Y0180366D02*
X0111968Y0180366D01*
X0111856Y0180956D02*
X0112212Y0180956D01*
X0110642Y0179742D02*
X0112173Y0178211D01*
X0111756Y0177794D01*
X0110225Y0179325D01*
X0110642Y0179742D01*
X0111166Y0178384D02*
X0112000Y0178384D01*
X0111410Y0178974D02*
X0110576Y0178974D01*
X0110464Y0179564D02*
X0110820Y0179564D01*
X0109250Y0178351D02*
X0110781Y0176820D01*
X0110364Y0176403D01*
X0108833Y0177934D01*
X0109250Y0178351D01*
X0109774Y0176993D02*
X0110608Y0176993D01*
X0110018Y0177583D02*
X0109184Y0177583D01*
X0109072Y0178173D02*
X0109428Y0178173D01*
X0107858Y0176959D02*
X0109389Y0175428D01*
X0108972Y0175011D01*
X0107441Y0176542D01*
X0107858Y0176959D01*
X0108382Y0175601D02*
X0109216Y0175601D01*
X0108626Y0176191D02*
X0107792Y0176191D01*
X0107680Y0176781D02*
X0108036Y0176781D01*
X0106188Y0176542D02*
X0105771Y0176959D01*
X0106188Y0176542D02*
X0104657Y0175011D01*
X0104240Y0175428D01*
X0105771Y0176959D01*
X0105247Y0175601D02*
X0104413Y0175601D01*
X0105003Y0176191D02*
X0105837Y0176191D01*
X0105949Y0176781D02*
X0105593Y0176781D01*
X0104796Y0177934D02*
X0104379Y0178351D01*
X0104796Y0177934D02*
X0103265Y0176403D01*
X0102848Y0176820D01*
X0104379Y0178351D01*
X0103855Y0176993D02*
X0103021Y0176993D01*
X0103611Y0177583D02*
X0104445Y0177583D01*
X0104557Y0178173D02*
X0104201Y0178173D01*
X0103404Y0179325D02*
X0102987Y0179742D01*
X0103404Y0179325D02*
X0101873Y0177794D01*
X0101456Y0178211D01*
X0102987Y0179742D01*
X0102463Y0178384D02*
X0101629Y0178384D01*
X0102219Y0178974D02*
X0103053Y0178974D01*
X0103165Y0179564D02*
X0102809Y0179564D01*
X0102012Y0180717D02*
X0101595Y0181134D01*
X0102012Y0180717D02*
X0100481Y0179186D01*
X0100064Y0179603D01*
X0101595Y0181134D01*
X0101071Y0179776D02*
X0100237Y0179776D01*
X0100827Y0180366D02*
X0101661Y0180366D01*
X0101773Y0180956D02*
X0101417Y0180956D01*
X0100620Y0182109D02*
X0100203Y0182526D01*
X0100620Y0182109D02*
X0099089Y0180578D01*
X0098672Y0180995D01*
X0100203Y0182526D01*
X0099679Y0181168D02*
X0098845Y0181168D01*
X0099435Y0181758D02*
X0100269Y0181758D01*
X0100381Y0182348D02*
X0100025Y0182348D01*
X0099228Y0183501D02*
X0098811Y0183918D01*
X0099228Y0183501D02*
X0097697Y0181970D01*
X0097280Y0182387D01*
X0098811Y0183918D01*
X0098287Y0182560D02*
X0097453Y0182560D01*
X0098043Y0183150D02*
X0098877Y0183150D01*
X0098989Y0183740D02*
X0098633Y0183740D01*
D36*
X0168322Y0140125D03*
X0177378Y0140125D03*
D37*
X0208785Y0048250D03*
X0208785Y0033250D03*
X0224415Y0033250D03*
X0224415Y0048250D03*
M02*
