G75*
%MOIN*%
%OFA0B0*%
%FSLAX24Y24*%
%IPPOS*%
%LPD*%
%AMOC8*
5,1,8,0,0,1.08239X$1,22.5*
%
%ADD10C,0.0030*%
%ADD11C,0.0098*%
%ADD12C,0.0060*%
%ADD13C,0.0180*%
%ADD14C,0.0080*%
%ADD15C,0.0050*%
%ADD16R,0.0160X0.0340*%
%ADD17R,0.0118X0.0236*%
%ADD18C,0.0160*%
%ADD19R,0.0236X0.0118*%
%ADD20R,0.0340X0.0160*%
%ADD21R,0.0187X0.0007*%
%ADD22R,0.0187X0.0007*%
%ADD23R,0.0041X0.0007*%
%ADD24R,0.0042X0.0007*%
%ADD25R,0.0041X0.0007*%
%ADD26R,0.0042X0.0007*%
%ADD27R,0.0187X0.0007*%
%ADD28R,0.0187X0.0007*%
%ADD29R,0.0090X0.0007*%
%ADD30R,0.0076X0.0007*%
%ADD31R,0.0180X0.0007*%
%ADD32R,0.0160X0.0007*%
%ADD33R,0.0243X0.0007*%
%ADD34R,0.0042X0.0007*%
%ADD35R,0.0201X0.0007*%
%ADD36R,0.0285X0.0007*%
%ADD37R,0.0042X0.0007*%
%ADD38R,0.0243X0.0007*%
%ADD39R,0.0326X0.0007*%
%ADD40R,0.0285X0.0007*%
%ADD41R,0.0354X0.0007*%
%ADD42R,0.0313X0.0007*%
%ADD43R,0.0389X0.0007*%
%ADD44R,0.0340X0.0007*%
%ADD45R,0.0417X0.0007*%
%ADD46R,0.0368X0.0007*%
%ADD47R,0.0444X0.0007*%
%ADD48R,0.0514X0.0007*%
%ADD49R,0.0410X0.0007*%
%ADD50R,0.0521X0.0007*%
%ADD51R,0.0430X0.0007*%
%ADD52R,0.0535X0.0007*%
%ADD53R,0.0451X0.0007*%
%ADD54R,0.0542X0.0007*%
%ADD55R,0.0472X0.0007*%
%ADD56R,0.0549X0.0007*%
%ADD57R,0.0486X0.0007*%
%ADD58R,0.0563X0.0007*%
%ADD59R,0.0500X0.0007*%
%ADD60R,0.0576X0.0007*%
%ADD61R,0.0514X0.0007*%
%ADD62R,0.0590X0.0007*%
%ADD63R,0.0528X0.0007*%
%ADD64R,0.0604X0.0007*%
%ADD65R,0.0591X0.0007*%
%ADD66R,0.0618X0.0007*%
%ADD67R,0.0598X0.0007*%
%ADD68R,0.0632X0.0007*%
%ADD69R,0.0605X0.0007*%
%ADD70R,0.0646X0.0007*%
%ADD71R,0.0611X0.0007*%
%ADD72R,0.0660X0.0007*%
%ADD73R,0.0674X0.0007*%
%ADD74R,0.0625X0.0007*%
%ADD75R,0.0687X0.0007*%
%ADD76R,0.0632X0.0007*%
%ADD77R,0.0694X0.0007*%
%ADD78R,0.0639X0.0007*%
%ADD79R,0.0708X0.0007*%
%ADD80R,0.0639X0.0007*%
%ADD81R,0.0715X0.0007*%
%ADD82R,0.0729X0.0007*%
%ADD83R,0.0653X0.0007*%
%ADD84R,0.0743X0.0007*%
%ADD85R,0.0653X0.0007*%
%ADD86R,0.0750X0.0007*%
%ADD87R,0.0660X0.0007*%
%ADD88R,0.0757X0.0007*%
%ADD89R,0.0292X0.0007*%
%ADD90R,0.0479X0.0007*%
%ADD91R,0.0236X0.0007*%
%ADD92R,0.0222X0.0007*%
%ADD93R,0.0444X0.0007*%
%ADD94R,0.0209X0.0007*%
%ADD95R,0.0215X0.0007*%
%ADD96R,0.0423X0.0007*%
%ADD97R,0.0188X0.0007*%
%ADD98R,0.0194X0.0007*%
%ADD99R,0.0402X0.0007*%
%ADD100R,0.0167X0.0007*%
%ADD101R,0.0188X0.0007*%
%ADD102R,0.0181X0.0007*%
%ADD103R,0.0389X0.0007*%
%ADD104R,0.0153X0.0007*%
%ADD105R,0.0174X0.0007*%
%ADD106R,0.0375X0.0007*%
%ADD107R,0.0139X0.0007*%
%ADD108R,0.0167X0.0007*%
%ADD109R,0.0361X0.0007*%
%ADD110R,0.0125X0.0007*%
%ADD111R,0.0167X0.0007*%
%ADD112R,0.0347X0.0007*%
%ADD113R,0.0111X0.0007*%
%ADD114R,0.0153X0.0007*%
%ADD115R,0.0340X0.0007*%
%ADD116R,0.0105X0.0007*%
%ADD117R,0.0146X0.0007*%
%ADD118R,0.0333X0.0007*%
%ADD119R,0.0091X0.0007*%
%ADD120R,0.0146X0.0007*%
%ADD121R,0.0333X0.0007*%
%ADD122R,0.0084X0.0007*%
%ADD123R,0.0132X0.0007*%
%ADD124R,0.0139X0.0007*%
%ADD125R,0.0070X0.0007*%
%ADD126R,0.0132X0.0007*%
%ADD127R,0.0132X0.0007*%
%ADD128R,0.0326X0.0007*%
%ADD129R,0.0063X0.0007*%
%ADD130R,0.0125X0.0007*%
%ADD131R,0.0056X0.0007*%
%ADD132R,0.0312X0.0007*%
%ADD133R,0.0049X0.0007*%
%ADD134R,0.0312X0.0007*%
%ADD135R,0.0118X0.0007*%
%ADD136R,0.0313X0.0007*%
%ADD137R,0.0118X0.0007*%
%ADD138R,0.0112X0.0007*%
%ADD139R,0.0111X0.0007*%
%ADD140R,0.0306X0.0007*%
%ADD141R,0.0306X0.0007*%
%ADD142R,0.0105X0.0007*%
%ADD143R,0.0112X0.0007*%
%ADD144R,0.0098X0.0007*%
%ADD145R,0.0098X0.0007*%
%ADD146R,0.0097X0.0007*%
%ADD147R,0.0347X0.0007*%
%ADD148R,0.0097X0.0007*%
%ADD149R,0.0347X0.0007*%
%ADD150R,0.0090X0.0007*%
%ADD151R,0.0097X0.0007*%
%ADD152R,0.0091X0.0007*%
%ADD153R,0.0083X0.0007*%
%ADD154R,0.0083X0.0007*%
%ADD155R,0.0299X0.0007*%
%ADD156R,0.0299X0.0007*%
%ADD157R,0.0299X0.0007*%
%ADD158R,0.0305X0.0007*%
%ADD159R,0.0305X0.0007*%
%ADD160R,0.0104X0.0007*%
%ADD161R,0.0319X0.0007*%
%ADD162R,0.0319X0.0007*%
%ADD163R,0.0063X0.0007*%
%ADD164R,0.0070X0.0007*%
%ADD165R,0.0319X0.0007*%
%ADD166R,0.0077X0.0007*%
%ADD167R,0.0139X0.0007*%
%ADD168R,0.0139X0.0007*%
%ADD169R,0.0160X0.0007*%
%ADD170R,0.0119X0.0007*%
%ADD171R,0.0361X0.0007*%
%ADD172R,0.0174X0.0007*%
%ADD173R,0.0375X0.0007*%
%ADD174R,0.0388X0.0007*%
%ADD175R,0.0174X0.0007*%
%ADD176R,0.0402X0.0007*%
%ADD177R,0.0195X0.0007*%
%ADD178R,0.0222X0.0007*%
%ADD179R,0.0223X0.0007*%
%ADD180R,0.0444X0.0007*%
%ADD181R,0.0250X0.0007*%
%ADD182R,0.0320X0.0007*%
%ADD183R,0.0798X0.0007*%
%ADD184R,0.0667X0.0007*%
%ADD185R,0.0736X0.0007*%
%ADD186R,0.0722X0.0007*%
%ADD187R,0.0646X0.0007*%
%ADD188R,0.0639X0.0007*%
%ADD189R,0.0694X0.0007*%
%ADD190R,0.0632X0.0007*%
%ADD191R,0.0680X0.0007*%
%ADD192R,0.0666X0.0007*%
%ADD193R,0.0625X0.0007*%
%ADD194R,0.0619X0.0007*%
%ADD195R,0.0612X0.0007*%
%ADD196R,0.0632X0.0007*%
%ADD197R,0.0605X0.0007*%
%ADD198R,0.0549X0.0007*%
%ADD199R,0.0604X0.0007*%
%ADD200R,0.0535X0.0007*%
%ADD201R,0.0577X0.0007*%
%ADD202R,0.0542X0.0007*%
%ADD203R,0.0465X0.0007*%
%ADD204R,0.0444X0.0007*%
%ADD205R,0.0528X0.0007*%
%ADD206R,0.0514X0.0007*%
%ADD207R,0.0403X0.0007*%
%ADD208R,0.0507X0.0007*%
%ADD209R,0.0382X0.0007*%
%ADD210R,0.0437X0.0007*%
%ADD211R,0.0410X0.0007*%
%ADD212R,0.0334X0.0007*%
%ADD213R,0.0354X0.0007*%
%ADD214R,0.0271X0.0007*%
%ADD215R,0.0278X0.0007*%
%ADD216R,0.0229X0.0007*%
%ADD217R,0.0166X0.0007*%
%ADD218C,0.0020*%
%ADD219C,0.0059*%
D10*
X003963Y004953D02*
X004156Y004953D01*
X004060Y004953D02*
X004060Y005243D01*
X003963Y005146D01*
X004258Y005194D02*
X004306Y005243D01*
X004403Y005243D01*
X004451Y005194D01*
X004451Y005146D01*
X004258Y004953D01*
X004451Y004953D01*
X004552Y005049D02*
X004649Y004953D01*
X004746Y005049D01*
X004746Y005243D01*
X004552Y005243D02*
X004552Y005049D01*
X004649Y005953D02*
X004746Y006049D01*
X004746Y006243D01*
X004552Y006243D02*
X004552Y006049D01*
X004649Y005953D01*
X004451Y005953D02*
X004258Y005953D01*
X004451Y006146D01*
X004451Y006194D01*
X004403Y006243D01*
X004306Y006243D01*
X004258Y006194D01*
X004060Y006243D02*
X004060Y005953D01*
X004156Y005953D02*
X003963Y005953D01*
X003963Y006146D02*
X004060Y006243D01*
X004011Y006953D02*
X004108Y006953D01*
X004156Y007001D01*
X004156Y007098D01*
X004060Y007098D01*
X004156Y007194D02*
X004108Y007243D01*
X004011Y007243D01*
X003963Y007194D01*
X003963Y007001D01*
X004011Y006953D01*
X004258Y006953D02*
X004258Y007243D01*
X004451Y006953D01*
X004451Y007243D01*
X004552Y007243D02*
X004552Y006953D01*
X004697Y006953D01*
X004746Y007001D01*
X004746Y007194D01*
X004697Y007243D01*
X004552Y007243D01*
X004601Y007953D02*
X004552Y008001D01*
X004601Y007953D02*
X004697Y007953D01*
X004746Y008001D01*
X004746Y008049D01*
X004697Y008098D01*
X004649Y008098D01*
X004697Y008098D02*
X004746Y008146D01*
X004746Y008194D01*
X004697Y008243D01*
X004601Y008243D01*
X004552Y008194D01*
X004451Y008194D02*
X004403Y008243D01*
X004306Y008243D01*
X004258Y008194D01*
X004258Y008146D01*
X004306Y008098D01*
X004403Y008098D01*
X004451Y008049D01*
X004451Y008001D01*
X004403Y007953D01*
X004306Y007953D01*
X004258Y008001D01*
X004156Y007953D02*
X004156Y008243D01*
X004060Y008146D01*
X003963Y008243D01*
X003963Y007953D01*
X004847Y007904D02*
X005040Y007904D01*
X005141Y007953D02*
X005335Y008146D01*
X005335Y008194D01*
X005287Y008243D01*
X005190Y008243D01*
X005141Y008194D01*
X005141Y007953D02*
X005335Y007953D01*
X005040Y008904D02*
X004847Y008904D01*
X004746Y008953D02*
X004552Y008953D01*
X004746Y009146D01*
X004746Y009194D01*
X004697Y009243D01*
X004601Y009243D01*
X004552Y009194D01*
X004451Y009194D02*
X004403Y009243D01*
X004306Y009243D01*
X004258Y009194D01*
X004258Y009146D01*
X004306Y009098D01*
X004403Y009098D01*
X004451Y009049D01*
X004451Y009001D01*
X004403Y008953D01*
X004306Y008953D01*
X004258Y009001D01*
X004156Y008953D02*
X004156Y009243D01*
X004060Y009146D01*
X003963Y009243D01*
X003963Y008953D01*
X005141Y008953D02*
X005335Y009146D01*
X005335Y009194D01*
X005287Y009243D01*
X005190Y009243D01*
X005141Y009194D01*
X005141Y008953D02*
X005335Y008953D01*
X005040Y010154D02*
X004847Y010154D01*
X004746Y010203D02*
X004552Y010203D01*
X004649Y010203D02*
X004649Y010493D01*
X004552Y010396D01*
X004451Y010444D02*
X004403Y010493D01*
X004306Y010493D01*
X004258Y010444D01*
X004258Y010396D01*
X004306Y010348D01*
X004403Y010348D01*
X004451Y010299D01*
X004451Y010251D01*
X004403Y010203D01*
X004306Y010203D01*
X004258Y010251D01*
X004156Y010203D02*
X004156Y010493D01*
X004060Y010396D01*
X003963Y010493D01*
X003963Y010203D01*
X003963Y010953D02*
X004108Y010953D01*
X004156Y011001D01*
X004156Y011194D01*
X004108Y011243D01*
X003963Y011243D01*
X003963Y010953D01*
X004258Y010953D02*
X004354Y010953D01*
X004306Y010953D02*
X004306Y011243D01*
X004258Y011243D02*
X004354Y011243D01*
X004454Y011243D02*
X004599Y011243D01*
X004647Y011194D01*
X004647Y011098D01*
X004599Y011049D01*
X004454Y011049D01*
X004454Y010953D02*
X004454Y011243D01*
X004551Y011049D02*
X004647Y010953D01*
X004749Y010904D02*
X004942Y010904D01*
X005043Y010953D02*
X005237Y011146D01*
X005237Y011194D01*
X005188Y011243D01*
X005092Y011243D01*
X005043Y011194D01*
X005043Y010953D02*
X005237Y010953D01*
X005190Y010493D02*
X005141Y010444D01*
X005190Y010493D02*
X005287Y010493D01*
X005335Y010444D01*
X005335Y010396D01*
X005141Y010203D01*
X005335Y010203D01*
X006300Y011151D02*
X006349Y011103D01*
X006445Y011103D01*
X006494Y011151D01*
X006595Y011151D02*
X006643Y011103D01*
X006740Y011103D01*
X006789Y011151D01*
X006789Y011248D01*
X006740Y011296D01*
X006692Y011296D01*
X006595Y011248D01*
X006595Y011393D01*
X006789Y011393D01*
X006494Y011344D02*
X006445Y011393D01*
X006349Y011393D01*
X006300Y011344D01*
X006300Y011151D01*
X005335Y011640D02*
X005141Y011640D01*
X005335Y011833D01*
X005335Y011882D01*
X005287Y011930D01*
X005190Y011930D01*
X005141Y011882D01*
X005040Y011592D02*
X004847Y011592D01*
X004746Y011640D02*
X004746Y011930D01*
X004552Y011930D02*
X004746Y011640D01*
X004552Y011640D02*
X004552Y011930D01*
X004451Y011930D02*
X004258Y011930D01*
X004258Y011640D01*
X004451Y011640D01*
X004354Y011785D02*
X004258Y011785D01*
X004156Y011785D02*
X003963Y011785D01*
X003963Y011833D02*
X004060Y011930D01*
X004156Y011833D01*
X004156Y011640D01*
X003963Y011640D02*
X003963Y011833D01*
X004550Y012262D02*
X004550Y012358D01*
X004598Y012407D01*
X004598Y012508D02*
X004550Y012556D01*
X004550Y012653D01*
X004598Y012701D01*
X004647Y012701D01*
X004695Y012653D01*
X004744Y012701D01*
X004792Y012701D01*
X004840Y012653D01*
X004840Y012556D01*
X004792Y012508D01*
X004792Y012407D02*
X004840Y012358D01*
X004840Y012262D01*
X004792Y012213D01*
X004598Y012213D01*
X004550Y012262D01*
X004695Y012605D02*
X004695Y012653D01*
X004847Y013092D02*
X005040Y013092D01*
X005141Y013140D02*
X005335Y013140D01*
X005238Y013140D02*
X005238Y013430D01*
X005141Y013333D01*
X004746Y013333D02*
X004697Y013285D01*
X004746Y013237D01*
X004746Y013188D01*
X004697Y013140D01*
X004601Y013140D01*
X004552Y013188D01*
X004451Y013188D02*
X004403Y013140D01*
X004306Y013140D01*
X004258Y013188D01*
X004306Y013285D02*
X004403Y013285D01*
X004451Y013237D01*
X004451Y013188D01*
X004306Y013285D02*
X004258Y013333D01*
X004258Y013382D01*
X004306Y013430D01*
X004403Y013430D01*
X004451Y013382D01*
X004552Y013382D02*
X004601Y013430D01*
X004697Y013430D01*
X004746Y013382D01*
X004746Y013333D01*
X004697Y013285D02*
X004649Y013285D01*
X004156Y013430D02*
X004156Y013140D01*
X003963Y013140D02*
X003963Y013430D01*
X004060Y013333D01*
X004156Y013430D01*
X004156Y013953D02*
X004156Y014243D01*
X004060Y014146D01*
X003963Y014243D01*
X003963Y013953D01*
X004258Y014001D02*
X004306Y013953D01*
X004403Y013953D01*
X004451Y014001D01*
X004451Y014049D01*
X004403Y014098D01*
X004306Y014098D01*
X004258Y014146D01*
X004258Y014194D01*
X004306Y014243D01*
X004403Y014243D01*
X004451Y014194D01*
X004552Y014194D02*
X004601Y014243D01*
X004697Y014243D01*
X004746Y014194D01*
X004746Y014146D01*
X004552Y013953D01*
X004746Y013953D01*
X004847Y013904D02*
X005040Y013904D01*
X005141Y013953D02*
X005335Y013953D01*
X005238Y013953D02*
X005238Y014243D01*
X005141Y014146D01*
X005040Y014904D02*
X004847Y014904D01*
X004746Y014953D02*
X004552Y014953D01*
X004649Y014953D02*
X004649Y015243D01*
X004552Y015146D01*
X004451Y015194D02*
X004403Y015243D01*
X004306Y015243D01*
X004258Y015194D01*
X004258Y015146D01*
X004306Y015098D01*
X004403Y015098D01*
X004451Y015049D01*
X004451Y015001D01*
X004403Y014953D01*
X004306Y014953D01*
X004258Y015001D01*
X004156Y014953D02*
X004156Y015243D01*
X004060Y015146D01*
X003963Y015243D01*
X003963Y014953D01*
X004749Y015904D02*
X004942Y015904D01*
X005043Y015953D02*
X005237Y015953D01*
X005140Y015953D02*
X005140Y016243D01*
X005043Y016146D01*
X004647Y016098D02*
X004599Y016049D01*
X004454Y016049D01*
X004454Y015953D02*
X004454Y016243D01*
X004599Y016243D01*
X004647Y016194D01*
X004647Y016098D01*
X004551Y016049D02*
X004647Y015953D01*
X004354Y015953D02*
X004258Y015953D01*
X004306Y015953D02*
X004306Y016243D01*
X004258Y016243D02*
X004354Y016243D01*
X004156Y016194D02*
X004156Y016001D01*
X004108Y015953D01*
X003963Y015953D01*
X003963Y016243D01*
X004108Y016243D01*
X004156Y016194D01*
X005141Y015146D02*
X005238Y015243D01*
X005238Y014953D01*
X005141Y014953D02*
X005335Y014953D01*
X005911Y015037D02*
X005911Y014843D01*
X005959Y014795D01*
X006056Y014795D01*
X006105Y014843D01*
X006206Y014795D02*
X006399Y014795D01*
X006302Y014795D02*
X006302Y015085D01*
X006206Y014988D01*
X006105Y015037D02*
X006056Y015085D01*
X005959Y015085D01*
X005911Y015037D01*
X005980Y016033D02*
X005883Y016129D01*
X005931Y016129D02*
X005786Y016129D01*
X005786Y016033D02*
X005786Y016323D01*
X005931Y016323D01*
X005980Y016274D01*
X005980Y016178D01*
X005931Y016129D01*
X006081Y016033D02*
X006274Y016033D01*
X006177Y016033D02*
X006177Y016323D01*
X006081Y016226D01*
X008417Y014132D02*
X008513Y014132D01*
X008465Y014132D02*
X008465Y013841D01*
X008417Y013841D02*
X008513Y013841D01*
X008613Y013890D02*
X008613Y014083D01*
X008661Y014132D01*
X008758Y014132D01*
X008807Y014083D01*
X008908Y014035D02*
X009004Y014132D01*
X009004Y013841D01*
X008908Y013841D02*
X009101Y013841D01*
X008807Y013890D02*
X008758Y013841D01*
X008661Y013841D01*
X008613Y013890D01*
X009022Y014795D02*
X009119Y014795D01*
X009167Y014843D01*
X009268Y014795D02*
X009462Y014988D01*
X009462Y015037D01*
X009413Y015085D01*
X009317Y015085D01*
X009268Y015037D01*
X009167Y015037D02*
X009119Y015085D01*
X009022Y015085D01*
X008974Y015037D01*
X008974Y014843D01*
X009022Y014795D01*
X009268Y014795D02*
X009462Y014795D01*
X009101Y015928D02*
X008908Y015928D01*
X009101Y016121D01*
X009101Y016169D01*
X009053Y016218D01*
X008956Y016218D01*
X008908Y016169D01*
X008806Y016169D02*
X008806Y016073D01*
X008758Y016024D01*
X008613Y016024D01*
X008613Y015928D02*
X008613Y016218D01*
X008758Y016218D01*
X008806Y016169D01*
X008710Y016024D02*
X008806Y015928D01*
X008835Y018658D02*
X008738Y018754D01*
X008787Y018754D02*
X008641Y018754D01*
X008641Y018658D02*
X008641Y018948D01*
X008787Y018948D01*
X008835Y018899D01*
X008835Y018803D01*
X008787Y018754D01*
X008936Y018658D02*
X009130Y018658D01*
X009033Y018658D02*
X009033Y018948D01*
X008936Y018851D01*
X009231Y018803D02*
X009231Y018706D01*
X009279Y018658D01*
X009376Y018658D01*
X009424Y018706D01*
X009424Y018754D01*
X009376Y018803D01*
X009231Y018803D01*
X009327Y018899D01*
X009424Y018948D01*
X010150Y018980D02*
X010150Y018690D01*
X010150Y018787D02*
X010295Y018787D01*
X010344Y018835D01*
X010344Y018932D01*
X010295Y018980D01*
X010150Y018980D01*
X010247Y018787D02*
X010344Y018690D01*
X010445Y018690D02*
X010639Y018690D01*
X010542Y018690D02*
X010542Y018980D01*
X010445Y018883D01*
X010740Y018980D02*
X010933Y018980D01*
X010933Y018932D01*
X010740Y018738D01*
X010740Y018690D01*
X011725Y018565D02*
X011919Y018565D01*
X012020Y018565D02*
X012214Y018565D01*
X012315Y018565D02*
X012460Y018565D01*
X012508Y018613D01*
X012508Y018807D01*
X012460Y018855D01*
X012315Y018855D01*
X012315Y018565D01*
X012117Y018710D02*
X012020Y018710D01*
X012020Y018855D02*
X012020Y018565D01*
X012020Y018855D02*
X012214Y018855D01*
X012609Y018807D02*
X012658Y018855D01*
X012754Y018855D01*
X012803Y018807D01*
X012803Y018758D01*
X012609Y018565D01*
X012803Y018565D01*
X013025Y019410D02*
X013219Y019410D01*
X011725Y018855D02*
X011725Y018565D01*
X013341Y016198D02*
X013389Y016198D01*
X013438Y016149D01*
X013486Y016198D01*
X013534Y016198D01*
X013583Y016149D01*
X013583Y016053D01*
X013534Y016004D01*
X013583Y015903D02*
X013583Y015710D01*
X013583Y015806D02*
X013293Y015806D01*
X013389Y015710D01*
X013341Y015608D02*
X013438Y015608D01*
X013486Y015560D01*
X013486Y015415D01*
X013486Y015512D02*
X013583Y015608D01*
X013583Y015415D02*
X013293Y015415D01*
X013293Y015560D01*
X013341Y015608D01*
X013341Y016004D02*
X013293Y016053D01*
X013293Y016149D01*
X013341Y016198D01*
X013438Y016149D02*
X013438Y016101D01*
X012490Y014898D02*
X012490Y014608D01*
X012393Y014608D02*
X012587Y014608D01*
X012393Y014801D02*
X012490Y014898D01*
X012195Y014898D02*
X012195Y014608D01*
X012099Y014608D02*
X012292Y014608D01*
X012099Y014801D02*
X012195Y014898D01*
X011997Y014849D02*
X011949Y014898D01*
X011852Y014898D01*
X011804Y014849D01*
X011804Y014656D01*
X011852Y014608D01*
X011949Y014608D01*
X011997Y014656D01*
X012792Y014069D02*
X012888Y014069D01*
X012840Y014069D02*
X012840Y013779D01*
X012792Y013779D02*
X012888Y013779D01*
X012988Y013827D02*
X013036Y013779D01*
X013133Y013779D01*
X013182Y013827D01*
X013283Y013827D02*
X013331Y013779D01*
X013428Y013779D01*
X013476Y013827D01*
X013476Y013876D01*
X013428Y013924D01*
X013379Y013924D01*
X013428Y013924D02*
X013476Y013972D01*
X013476Y014021D01*
X013428Y014069D01*
X013331Y014069D01*
X013283Y014021D01*
X013182Y014021D02*
X013133Y014069D01*
X013036Y014069D01*
X012988Y014021D01*
X012988Y013827D01*
X011903Y013278D02*
X011903Y013181D01*
X011854Y013133D01*
X011758Y013133D02*
X011709Y013230D01*
X011709Y013278D01*
X011758Y013326D01*
X011854Y013326D01*
X011903Y013278D01*
X011758Y013133D02*
X011613Y013133D01*
X011613Y013326D01*
X011613Y012935D02*
X011903Y012935D01*
X011903Y012838D02*
X011903Y013032D01*
X011709Y012838D02*
X011613Y012935D01*
X011661Y012737D02*
X011613Y012689D01*
X011613Y012592D01*
X011661Y012544D01*
X011854Y012544D01*
X011903Y012592D01*
X011903Y012689D01*
X011854Y012737D01*
X010652Y012272D02*
X010652Y012079D01*
X010652Y012176D02*
X010362Y012176D01*
X010458Y012079D01*
X010362Y011978D02*
X010603Y011978D01*
X010652Y011929D01*
X010652Y011833D01*
X010603Y011784D01*
X010362Y011784D01*
X012304Y011099D02*
X012304Y010906D01*
X012352Y010858D01*
X012449Y010858D01*
X012497Y010906D01*
X012599Y010858D02*
X012792Y010858D01*
X012695Y010858D02*
X012695Y011148D01*
X012599Y011051D01*
X012497Y011099D02*
X012449Y011148D01*
X012352Y011148D01*
X012304Y011099D01*
X012893Y011099D02*
X012942Y011148D01*
X013038Y011148D01*
X013087Y011099D01*
X013087Y011051D01*
X013038Y011003D01*
X013087Y010954D01*
X013087Y010906D01*
X013038Y010858D01*
X012942Y010858D01*
X012893Y010906D01*
X012990Y011003D02*
X013038Y011003D01*
X012976Y009718D02*
X012976Y009669D01*
X012783Y009476D01*
X012783Y009428D01*
X012681Y009428D02*
X012585Y009524D01*
X012633Y009524D02*
X012488Y009524D01*
X012488Y009428D02*
X012488Y009718D01*
X012633Y009718D01*
X012681Y009669D01*
X012681Y009573D01*
X012633Y009524D01*
X012783Y009718D02*
X012976Y009718D01*
X013147Y008648D02*
X013099Y008599D01*
X013099Y008406D01*
X013147Y008358D01*
X013244Y008358D01*
X013292Y008406D01*
X013393Y008406D02*
X013393Y008358D01*
X013393Y008406D02*
X013587Y008599D01*
X013587Y008648D01*
X013393Y008648D01*
X013292Y008599D02*
X013244Y008648D01*
X013147Y008648D01*
X011289Y008583D02*
X011240Y008632D01*
X011144Y008632D01*
X011095Y008583D01*
X010994Y008583D02*
X010946Y008632D01*
X010849Y008632D01*
X010801Y008583D01*
X010801Y008390D01*
X010849Y008341D01*
X010946Y008341D01*
X010994Y008390D01*
X011095Y008341D02*
X011289Y008535D01*
X011289Y008583D01*
X011289Y008341D02*
X011095Y008341D01*
X010701Y008341D02*
X010604Y008341D01*
X010652Y008341D02*
X010652Y008632D01*
X010604Y008632D02*
X010701Y008632D01*
X009354Y007264D02*
X009403Y007215D01*
X009403Y007119D01*
X009354Y007070D01*
X009161Y007264D01*
X009354Y007264D01*
X009161Y007264D02*
X009113Y007215D01*
X009113Y007119D01*
X009161Y007070D01*
X009354Y007070D01*
X009403Y006969D02*
X009403Y006776D01*
X009403Y006872D02*
X009113Y006872D01*
X009209Y006776D01*
X009161Y006675D02*
X009113Y006626D01*
X009113Y006529D01*
X009161Y006481D01*
X009354Y006481D01*
X009403Y006529D01*
X009403Y006626D01*
X009354Y006675D01*
X008538Y008295D02*
X008442Y008295D01*
X008393Y008343D01*
X008393Y008440D01*
X008538Y008440D01*
X008587Y008392D01*
X008587Y008343D01*
X008538Y008295D01*
X008393Y008440D02*
X008490Y008537D01*
X008587Y008585D01*
X008292Y008537D02*
X008244Y008585D01*
X008147Y008585D01*
X008099Y008537D01*
X008099Y008343D01*
X008147Y008295D01*
X008244Y008295D01*
X008292Y008343D01*
X008317Y009283D02*
X008268Y009331D01*
X008268Y009379D01*
X008317Y009428D01*
X008413Y009428D01*
X008462Y009379D01*
X008462Y009331D01*
X008413Y009283D01*
X008317Y009283D01*
X008317Y009428D02*
X008268Y009476D01*
X008268Y009524D01*
X008317Y009573D01*
X008413Y009573D01*
X008462Y009524D01*
X008462Y009476D01*
X008413Y009428D01*
X008167Y009428D02*
X008167Y009524D01*
X008119Y009573D01*
X007974Y009573D01*
X007974Y009283D01*
X007974Y009379D02*
X008119Y009379D01*
X008167Y009428D01*
X008070Y009379D02*
X008167Y009283D01*
X008215Y011128D02*
X008118Y011128D01*
X008070Y011176D01*
X008070Y011273D02*
X008167Y011321D01*
X008215Y011321D01*
X008264Y011273D01*
X008264Y011176D01*
X008215Y011128D01*
X008070Y011273D02*
X008070Y011418D01*
X008264Y011418D01*
X007969Y011369D02*
X007969Y011273D01*
X007920Y011224D01*
X007775Y011224D01*
X007775Y011128D02*
X007775Y011418D01*
X007920Y011418D01*
X007969Y011369D01*
X007872Y011224D02*
X007969Y011128D01*
X010974Y005143D02*
X010925Y005094D01*
X010925Y004901D01*
X010974Y004853D01*
X011070Y004853D01*
X011119Y004901D01*
X011220Y004901D02*
X011220Y004949D01*
X011268Y004998D01*
X011365Y004998D01*
X011414Y004949D01*
X011414Y004901D01*
X011365Y004853D01*
X011268Y004853D01*
X011220Y004901D01*
X011268Y004998D02*
X011220Y005046D01*
X011220Y005094D01*
X011268Y005143D01*
X011365Y005143D01*
X011414Y005094D01*
X011414Y005046D01*
X011365Y004998D01*
X011119Y005094D02*
X011070Y005143D01*
X010974Y005143D01*
X012436Y005123D02*
X012436Y004833D01*
X012436Y004929D02*
X012581Y004929D01*
X012630Y004978D01*
X012630Y005074D01*
X012581Y005123D01*
X012436Y005123D01*
X012533Y004929D02*
X012630Y004833D01*
X012731Y004881D02*
X012779Y004833D01*
X012876Y004833D01*
X012924Y004881D01*
X012924Y004929D01*
X012876Y004978D01*
X012731Y004978D01*
X012731Y004881D01*
X012731Y004978D02*
X012827Y005074D01*
X012924Y005123D01*
X015049Y005784D02*
X015291Y005784D01*
X015339Y005833D01*
X015339Y005929D01*
X015291Y005978D01*
X015049Y005978D01*
X015097Y006079D02*
X015049Y006127D01*
X015049Y006224D01*
X015097Y006272D01*
X015146Y006272D01*
X015339Y006079D01*
X015339Y006272D01*
X020463Y006243D02*
X020463Y006098D01*
X020560Y006146D01*
X020608Y006146D01*
X020656Y006098D01*
X020656Y006001D01*
X020608Y005953D01*
X020511Y005953D01*
X020463Y006001D01*
X020463Y006243D02*
X020656Y006243D01*
X020758Y006243D02*
X020758Y006049D01*
X020854Y005953D01*
X020951Y006049D01*
X020951Y006243D01*
X021101Y006953D02*
X021052Y007001D01*
X021101Y006953D02*
X021197Y006953D01*
X021246Y007001D01*
X021246Y007049D01*
X021197Y007098D01*
X021101Y007098D01*
X021052Y007146D01*
X021052Y007194D01*
X021101Y007243D01*
X021197Y007243D01*
X021246Y007194D01*
X021347Y007146D02*
X021444Y007146D01*
X021395Y007194D02*
X021395Y007001D01*
X021444Y006953D01*
X021543Y007001D02*
X021543Y007098D01*
X021592Y007146D01*
X021688Y007146D01*
X021737Y007098D01*
X021737Y007001D01*
X021688Y006953D01*
X021592Y006953D01*
X021543Y007001D01*
X021838Y006953D02*
X021983Y006953D01*
X022031Y007001D01*
X022031Y007098D01*
X021983Y007146D01*
X021838Y007146D01*
X021838Y006856D01*
X020951Y007098D02*
X020758Y007098D01*
X020656Y007243D02*
X020463Y007243D01*
X020463Y006953D01*
X020656Y006953D01*
X020560Y007098D02*
X020463Y007098D01*
X020511Y007953D02*
X020463Y008001D01*
X020511Y007953D02*
X020608Y007953D01*
X020656Y008001D01*
X020656Y008049D01*
X020608Y008098D01*
X020511Y008098D01*
X020463Y008146D01*
X020463Y008194D01*
X020511Y008243D01*
X020608Y008243D01*
X020656Y008194D01*
X020758Y008243D02*
X020951Y008243D01*
X020854Y008243D02*
X020854Y007953D01*
X021052Y007953D02*
X021052Y008243D01*
X021197Y008243D01*
X021246Y008194D01*
X021246Y008098D01*
X021197Y008049D01*
X021052Y008049D01*
X021347Y007904D02*
X021540Y007904D01*
X021641Y008001D02*
X021690Y007953D01*
X021787Y007953D01*
X021835Y008001D01*
X021835Y008049D01*
X021787Y008098D01*
X021738Y008098D01*
X021787Y008098D02*
X021835Y008146D01*
X021835Y008194D01*
X021787Y008243D01*
X021690Y008243D01*
X021641Y008194D01*
X021540Y008904D02*
X021347Y008904D01*
X021197Y009049D02*
X021246Y009098D01*
X021246Y009194D01*
X021197Y009243D01*
X021052Y009243D01*
X021052Y008953D01*
X021052Y009049D02*
X021197Y009049D01*
X020951Y009243D02*
X020758Y009243D01*
X020854Y009243D02*
X020854Y008953D01*
X020656Y009001D02*
X020608Y008953D01*
X020511Y008953D01*
X020463Y009001D01*
X020511Y009098D02*
X020608Y009098D01*
X020656Y009049D01*
X020656Y009001D01*
X020511Y009098D02*
X020463Y009146D01*
X020463Y009194D01*
X020511Y009243D01*
X020608Y009243D01*
X020656Y009194D01*
X020608Y009953D02*
X020511Y009953D01*
X020463Y010001D01*
X020511Y010098D02*
X020608Y010098D01*
X020656Y010049D01*
X020656Y010001D01*
X020608Y009953D01*
X020511Y010098D02*
X020463Y010146D01*
X020463Y010194D01*
X020511Y010243D01*
X020608Y010243D01*
X020656Y010194D01*
X020758Y010243D02*
X020951Y010243D01*
X020854Y010243D02*
X020854Y009953D01*
X021052Y009953D02*
X021052Y010243D01*
X021197Y010243D01*
X021246Y010194D01*
X021246Y010098D01*
X021197Y010049D01*
X021052Y010049D01*
X021347Y009904D02*
X021540Y009904D01*
X021641Y009953D02*
X021835Y009953D01*
X021738Y009953D02*
X021738Y010243D01*
X021641Y010146D01*
X021540Y010904D02*
X021347Y010904D01*
X021246Y011001D02*
X021197Y010953D01*
X021101Y010953D01*
X021052Y011001D01*
X020951Y011001D02*
X020903Y010953D01*
X020806Y010953D01*
X020758Y011001D01*
X020806Y011098D02*
X020903Y011098D01*
X020951Y011049D01*
X020951Y011001D01*
X020806Y011098D02*
X020758Y011146D01*
X020758Y011194D01*
X020806Y011243D01*
X020903Y011243D01*
X020951Y011194D01*
X021052Y011194D02*
X021101Y011243D01*
X021197Y011243D01*
X021246Y011194D01*
X021246Y011146D01*
X021197Y011098D01*
X021246Y011049D01*
X021246Y011001D01*
X021197Y011098D02*
X021149Y011098D01*
X021641Y011194D02*
X021690Y011243D01*
X021787Y011243D01*
X021835Y011194D01*
X021835Y011146D01*
X021787Y011098D01*
X021835Y011049D01*
X021835Y011001D01*
X021787Y010953D01*
X021690Y010953D01*
X021641Y011001D01*
X021738Y011098D02*
X021787Y011098D01*
X021540Y011904D02*
X021347Y011904D01*
X021246Y011953D02*
X021052Y011953D01*
X021246Y012146D01*
X021246Y012194D01*
X021197Y012243D01*
X021101Y012243D01*
X021052Y012194D01*
X020951Y012194D02*
X020903Y012243D01*
X020806Y012243D01*
X020758Y012194D01*
X020758Y012146D01*
X020806Y012098D01*
X020903Y012098D01*
X020951Y012049D01*
X020951Y012001D01*
X020903Y011953D01*
X020806Y011953D01*
X020758Y012001D01*
X020656Y011953D02*
X020656Y012243D01*
X020560Y012146D01*
X020463Y012243D01*
X020463Y011953D01*
X020463Y011243D02*
X020560Y011146D01*
X020656Y011243D01*
X020656Y010953D01*
X020463Y010953D02*
X020463Y011243D01*
X021641Y012001D02*
X021690Y011953D01*
X021787Y011953D01*
X021835Y012001D01*
X021835Y012049D01*
X021787Y012098D01*
X021738Y012098D01*
X021787Y012098D02*
X021835Y012146D01*
X021835Y012194D01*
X021787Y012243D01*
X021690Y012243D01*
X021641Y012194D01*
X021540Y012904D02*
X021347Y012904D01*
X021246Y012953D02*
X021052Y012953D01*
X021149Y012953D02*
X021149Y013243D01*
X021052Y013146D01*
X020951Y013194D02*
X020903Y013243D01*
X020806Y013243D01*
X020758Y013194D01*
X020758Y013146D01*
X020806Y013098D01*
X020903Y013098D01*
X020951Y013049D01*
X020951Y013001D01*
X020903Y012953D01*
X020806Y012953D01*
X020758Y013001D01*
X020656Y012953D02*
X020656Y013243D01*
X020560Y013146D01*
X020463Y013243D01*
X020463Y012953D01*
X020463Y013953D02*
X020608Y013953D01*
X020656Y014001D01*
X020656Y014194D01*
X020608Y014243D01*
X020463Y014243D01*
X020463Y013953D01*
X020758Y013953D02*
X020854Y013953D01*
X020806Y013953D02*
X020806Y014243D01*
X020758Y014243D02*
X020854Y014243D01*
X020954Y014243D02*
X021099Y014243D01*
X021147Y014194D01*
X021147Y014098D01*
X021099Y014049D01*
X020954Y014049D01*
X020954Y013953D02*
X020954Y014243D01*
X021051Y014049D02*
X021147Y013953D01*
X021249Y013904D02*
X021442Y013904D01*
X021543Y014001D02*
X021592Y013953D01*
X021688Y013953D01*
X021737Y014001D01*
X021737Y014049D01*
X021688Y014098D01*
X021640Y014098D01*
X021688Y014098D02*
X021737Y014146D01*
X021737Y014194D01*
X021688Y014243D01*
X021592Y014243D01*
X021543Y014194D01*
X021540Y014904D02*
X021347Y014904D01*
X021246Y014953D02*
X021246Y015243D01*
X021052Y015243D02*
X021052Y014953D01*
X020951Y014953D02*
X020758Y014953D01*
X020758Y015243D01*
X020951Y015243D01*
X021052Y015243D02*
X021246Y014953D01*
X020854Y015098D02*
X020758Y015098D01*
X020656Y015098D02*
X020463Y015098D01*
X020463Y015146D02*
X020463Y014953D01*
X020463Y015146D02*
X020560Y015243D01*
X020656Y015146D01*
X020656Y014953D01*
X021641Y015001D02*
X021690Y014953D01*
X021787Y014953D01*
X021835Y015001D01*
X021835Y015049D01*
X021787Y015098D01*
X021738Y015098D01*
X021787Y015098D02*
X021835Y015146D01*
X021835Y015194D01*
X021787Y015243D01*
X021690Y015243D01*
X021641Y015194D01*
X021540Y015904D02*
X021347Y015904D01*
X021246Y015953D02*
X021246Y016243D01*
X021052Y016243D02*
X021052Y015953D01*
X020951Y015953D02*
X020758Y015953D01*
X020758Y016243D01*
X020951Y016243D01*
X021052Y016243D02*
X021246Y015953D01*
X020854Y016098D02*
X020758Y016098D01*
X020656Y016098D02*
X020463Y016098D01*
X020463Y016146D02*
X020463Y015953D01*
X020463Y016146D02*
X020560Y016243D01*
X020656Y016146D01*
X020656Y015953D01*
X021641Y015953D02*
X021835Y015953D01*
X021738Y015953D02*
X021738Y016243D01*
X021641Y016146D01*
X021690Y013243D02*
X021787Y013243D01*
X021835Y013194D01*
X021835Y013146D01*
X021787Y013098D01*
X021835Y013049D01*
X021835Y013001D01*
X021787Y012953D01*
X021690Y012953D01*
X021641Y013001D01*
X021738Y013098D02*
X021787Y013098D01*
X021641Y013194D02*
X021690Y013243D01*
X017886Y012536D02*
X017886Y012440D01*
X017838Y012391D01*
X017741Y012391D02*
X017693Y012488D01*
X017693Y012536D01*
X017741Y012585D01*
X017838Y012585D01*
X017886Y012536D01*
X017741Y012391D02*
X017596Y012391D01*
X017596Y012585D01*
X017596Y012290D02*
X017838Y012290D01*
X017886Y012242D01*
X017886Y012145D01*
X017838Y012097D01*
X017596Y012097D01*
X015808Y011523D02*
X015615Y011523D01*
X015760Y011668D01*
X015760Y011378D01*
X015514Y011378D02*
X015320Y011378D01*
X015417Y011378D02*
X015417Y011668D01*
X015320Y011571D01*
X015219Y011619D02*
X015219Y011523D01*
X015170Y011474D01*
X015025Y011474D01*
X015025Y011378D02*
X015025Y011668D01*
X015170Y011668D01*
X015219Y011619D01*
X015122Y011474D02*
X015219Y011378D01*
X015352Y014420D02*
X015449Y014420D01*
X015497Y014468D01*
X015599Y014420D02*
X015792Y014420D01*
X015695Y014420D02*
X015695Y014710D01*
X015599Y014613D01*
X015497Y014662D02*
X015449Y014710D01*
X015352Y014710D01*
X015304Y014662D01*
X015304Y014468D01*
X015352Y014420D01*
X015893Y014420D02*
X016087Y014613D01*
X016087Y014662D01*
X016038Y014710D01*
X015942Y014710D01*
X015893Y014662D01*
X015893Y014420D02*
X016087Y014420D01*
X016129Y015928D02*
X016129Y016218D01*
X016033Y016121D01*
X015931Y016169D02*
X015931Y016073D01*
X015883Y016024D01*
X015738Y016024D01*
X015738Y015928D02*
X015738Y016218D01*
X015883Y016218D01*
X015931Y016169D01*
X015835Y016024D02*
X015931Y015928D01*
X016033Y015928D02*
X016226Y015928D01*
X016327Y015928D02*
X016521Y016121D01*
X016521Y016169D01*
X016472Y016218D01*
X016376Y016218D01*
X016327Y016169D01*
X016327Y015928D02*
X016521Y015928D01*
X016775Y018565D02*
X016969Y018565D01*
X017070Y018565D02*
X017070Y018855D01*
X017264Y018855D01*
X017365Y018855D02*
X017510Y018855D01*
X017558Y018807D01*
X017558Y018613D01*
X017510Y018565D01*
X017365Y018565D01*
X017365Y018855D01*
X017167Y018710D02*
X017070Y018710D01*
X017070Y018565D02*
X017264Y018565D01*
X017659Y018613D02*
X017708Y018565D01*
X017804Y018565D01*
X017853Y018613D01*
X017853Y018662D01*
X017804Y018710D01*
X017756Y018710D01*
X017804Y018710D02*
X017853Y018758D01*
X017853Y018807D01*
X017804Y018855D01*
X017708Y018855D01*
X017659Y018807D01*
X018150Y019410D02*
X018344Y019410D01*
X016775Y018855D02*
X016775Y018565D01*
X015808Y018738D02*
X015760Y018690D01*
X015663Y018690D01*
X015615Y018738D01*
X015615Y018787D01*
X015663Y018835D01*
X015760Y018835D01*
X015808Y018787D01*
X015808Y018738D01*
X015760Y018835D02*
X015808Y018883D01*
X015808Y018932D01*
X015760Y018980D01*
X015663Y018980D01*
X015615Y018932D01*
X015615Y018883D01*
X015663Y018835D01*
X015514Y018690D02*
X015320Y018690D01*
X015417Y018690D02*
X015417Y018980D01*
X015320Y018883D01*
X015219Y018835D02*
X015170Y018787D01*
X015025Y018787D01*
X015025Y018690D02*
X015025Y018980D01*
X015170Y018980D01*
X015219Y018932D01*
X015219Y018835D01*
X015122Y018787D02*
X015219Y018690D01*
X007903Y018565D02*
X007709Y018565D01*
X007806Y018565D02*
X007806Y018855D01*
X007709Y018758D01*
X007608Y018807D02*
X007608Y018613D01*
X007560Y018565D01*
X007415Y018565D01*
X007415Y018855D01*
X007560Y018855D01*
X007608Y018807D01*
X007314Y018855D02*
X007120Y018855D01*
X007120Y018565D01*
X007314Y018565D01*
X007217Y018710D02*
X007120Y018710D01*
X007019Y018565D02*
X006825Y018565D01*
X006825Y018855D01*
X006619Y019473D02*
X006425Y019473D01*
X021641Y009194D02*
X021690Y009243D01*
X021787Y009243D01*
X021835Y009194D01*
X021835Y009146D01*
X021641Y008953D01*
X021835Y008953D01*
X021197Y005243D02*
X021052Y005243D01*
X021052Y004953D01*
X021197Y004953D01*
X021246Y005001D01*
X021246Y005194D01*
X021197Y005243D01*
X020951Y005243D02*
X020951Y004953D01*
X020758Y005243D01*
X020758Y004953D01*
X020656Y005001D02*
X020656Y005098D01*
X020560Y005098D01*
X020656Y005194D02*
X020608Y005243D01*
X020511Y005243D01*
X020463Y005194D01*
X020463Y005001D01*
X020511Y004953D01*
X020608Y004953D01*
X020656Y005001D01*
X017368Y001105D02*
X017223Y001105D01*
X017223Y000815D01*
X017368Y000815D01*
X017416Y000863D01*
X017416Y000912D01*
X017368Y000960D01*
X017223Y000960D01*
X017122Y000960D02*
X016928Y000960D01*
X016827Y000815D02*
X016633Y000815D01*
X016730Y000815D02*
X016730Y001105D01*
X016633Y001008D01*
X016532Y001057D02*
X016532Y000863D01*
X016484Y000815D01*
X016387Y000815D01*
X016339Y000863D01*
X016532Y001057D01*
X016484Y001105D01*
X016387Y001105D01*
X016339Y001057D01*
X016339Y000863D01*
X016238Y000815D02*
X016044Y000815D01*
X016238Y001008D01*
X016238Y001057D01*
X016189Y001105D01*
X016093Y001105D01*
X016044Y001057D01*
X015943Y000960D02*
X015750Y000960D01*
X015648Y000815D02*
X015455Y001105D01*
X015354Y001105D02*
X015354Y000815D01*
X015455Y000815D02*
X015648Y001105D01*
X015354Y001105D02*
X015257Y001008D01*
X015160Y001105D01*
X015160Y000815D01*
X015059Y000815D02*
X015059Y001105D01*
X014866Y001105D02*
X014866Y000815D01*
X015059Y000815D02*
X014866Y001105D01*
X017368Y001105D02*
X017416Y001057D01*
X017416Y001008D01*
X017368Y000960D01*
D11*
X022050Y001548D02*
X021166Y001548D01*
X021166Y001549D02*
X021160Y001587D01*
X021150Y001625D01*
X021136Y001661D01*
X021119Y001696D01*
X021099Y001729D01*
X021075Y001760D01*
X021049Y001789D01*
X021020Y001815D01*
X020989Y001839D01*
X020956Y001859D01*
X020921Y001876D01*
X020885Y001890D01*
X020847Y001900D01*
X020809Y001906D01*
X020808Y002790D01*
X020809Y002790D01*
X020880Y002785D01*
X020951Y002777D01*
X021022Y002764D01*
X021091Y002748D01*
X021160Y002728D01*
X021227Y002704D01*
X021293Y002676D01*
X021357Y002645D01*
X021420Y002610D01*
X021480Y002572D01*
X021538Y002530D01*
X021594Y002485D01*
X021647Y002438D01*
X021698Y002387D01*
X021745Y002334D01*
X021790Y002278D01*
X021832Y002220D01*
X021870Y002160D01*
X021905Y002097D01*
X021936Y002033D01*
X021964Y001967D01*
X021988Y001900D01*
X022008Y001831D01*
X022024Y001762D01*
X022037Y001691D01*
X022045Y001620D01*
X022050Y001549D01*
X021958Y001549D01*
X021953Y001617D01*
X021945Y001686D01*
X021932Y001753D01*
X021916Y001820D01*
X021895Y001885D01*
X021871Y001950D01*
X021844Y002013D01*
X021813Y002074D01*
X021778Y002133D01*
X021740Y002190D01*
X021699Y002245D01*
X021655Y002298D01*
X021608Y002348D01*
X021558Y002395D01*
X021505Y002439D01*
X021450Y002480D01*
X021393Y002518D01*
X021334Y002553D01*
X021273Y002584D01*
X021210Y002611D01*
X021145Y002635D01*
X021080Y002656D01*
X021013Y002672D01*
X020946Y002685D01*
X020877Y002693D01*
X020809Y002698D01*
X020809Y002606D01*
X020874Y002601D01*
X020939Y002592D01*
X021004Y002580D01*
X021067Y002563D01*
X021130Y002543D01*
X021191Y002520D01*
X021251Y002492D01*
X021309Y002461D01*
X021365Y002427D01*
X021419Y002390D01*
X021470Y002349D01*
X021519Y002306D01*
X021566Y002259D01*
X021609Y002210D01*
X021650Y002159D01*
X021687Y002105D01*
X021721Y002049D01*
X021752Y001991D01*
X021780Y001931D01*
X021803Y001870D01*
X021823Y001807D01*
X021840Y001744D01*
X021852Y001679D01*
X021861Y001614D01*
X021866Y001549D01*
X021774Y001549D01*
X021769Y001611D01*
X021760Y001673D01*
X021748Y001734D01*
X021731Y001794D01*
X021712Y001853D01*
X021688Y001911D01*
X021661Y001967D01*
X021631Y002022D01*
X021597Y002074D01*
X021560Y002124D01*
X021520Y002172D01*
X021478Y002218D01*
X021432Y002260D01*
X021384Y002300D01*
X021334Y002337D01*
X021282Y002371D01*
X021227Y002401D01*
X021171Y002428D01*
X021113Y002452D01*
X021054Y002471D01*
X020994Y002488D01*
X020933Y002500D01*
X020871Y002509D01*
X020809Y002514D01*
X020809Y002422D01*
X020868Y002417D01*
X020926Y002408D01*
X020983Y002396D01*
X021040Y002380D01*
X021095Y002360D01*
X021149Y002337D01*
X021202Y002311D01*
X021252Y002281D01*
X021301Y002248D01*
X021347Y002212D01*
X021392Y002173D01*
X021433Y002132D01*
X021472Y002087D01*
X021508Y002041D01*
X021541Y001992D01*
X021571Y001942D01*
X021597Y001889D01*
X021620Y001835D01*
X021640Y001780D01*
X021656Y001723D01*
X021668Y001666D01*
X021677Y001608D01*
X021682Y001549D01*
X021590Y001549D01*
X021585Y001604D01*
X021576Y001658D01*
X021564Y001711D01*
X021548Y001764D01*
X021529Y001815D01*
X021506Y001865D01*
X021481Y001914D01*
X021452Y001960D01*
X021420Y002005D01*
X021385Y002048D01*
X021348Y002088D01*
X021308Y002125D01*
X021265Y002160D01*
X021220Y002192D01*
X021174Y002221D01*
X021125Y002246D01*
X021075Y002269D01*
X021024Y002288D01*
X020971Y002304D01*
X020918Y002316D01*
X020864Y002325D01*
X020809Y002330D01*
X020809Y002237D01*
X020862Y002232D01*
X020914Y002223D01*
X020966Y002210D01*
X021016Y002193D01*
X021065Y002173D01*
X021113Y002149D01*
X021159Y002122D01*
X021202Y002092D01*
X021244Y002059D01*
X021283Y002023D01*
X021319Y001984D01*
X021352Y001942D01*
X021382Y001899D01*
X021409Y001853D01*
X021433Y001805D01*
X021453Y001756D01*
X021470Y001706D01*
X021483Y001654D01*
X021492Y001602D01*
X021497Y001549D01*
X021405Y001549D01*
X021400Y001597D01*
X021391Y001644D01*
X021378Y001691D01*
X021362Y001737D01*
X021343Y001781D01*
X021320Y001824D01*
X021294Y001865D01*
X021266Y001903D01*
X021234Y001940D01*
X021200Y001974D01*
X021163Y002006D01*
X021125Y002034D01*
X021084Y002060D01*
X021041Y002083D01*
X020997Y002102D01*
X020951Y002118D01*
X020904Y002131D01*
X020857Y002140D01*
X020809Y002145D01*
X020809Y002053D01*
X020854Y002047D01*
X020899Y002037D01*
X020942Y002024D01*
X020984Y002008D01*
X021025Y001987D01*
X021064Y001964D01*
X021101Y001938D01*
X021136Y001908D01*
X021168Y001876D01*
X021198Y001841D01*
X021224Y001804D01*
X021247Y001765D01*
X021268Y001724D01*
X021284Y001682D01*
X021297Y001639D01*
X021307Y001594D01*
X021313Y001549D01*
X021220Y001549D01*
X021214Y001590D01*
X021204Y001631D01*
X021190Y001671D01*
X021173Y001709D01*
X021153Y001745D01*
X021129Y001780D01*
X021102Y001812D01*
X021072Y001842D01*
X021040Y001869D01*
X021005Y001893D01*
X020969Y001913D01*
X020931Y001930D01*
X020891Y001944D01*
X020850Y001954D01*
X020809Y001960D01*
X019470Y001452D02*
X020354Y001452D01*
X020354Y001451D02*
X020360Y001413D01*
X020370Y001375D01*
X020384Y001339D01*
X020401Y001304D01*
X020421Y001271D01*
X020445Y001240D01*
X020471Y001211D01*
X020500Y001185D01*
X020531Y001161D01*
X020564Y001141D01*
X020599Y001124D01*
X020635Y001110D01*
X020673Y001100D01*
X020711Y001094D01*
X020712Y000210D01*
X020711Y000210D01*
X020640Y000215D01*
X020569Y000223D01*
X020498Y000236D01*
X020429Y000252D01*
X020360Y000272D01*
X020293Y000296D01*
X020227Y000324D01*
X020163Y000355D01*
X020100Y000390D01*
X020040Y000428D01*
X019982Y000470D01*
X019926Y000515D01*
X019873Y000562D01*
X019822Y000613D01*
X019775Y000666D01*
X019730Y000722D01*
X019688Y000780D01*
X019650Y000840D01*
X019615Y000903D01*
X019584Y000967D01*
X019556Y001033D01*
X019532Y001100D01*
X019512Y001169D01*
X019496Y001238D01*
X019483Y001309D01*
X019475Y001380D01*
X019470Y001451D01*
X019562Y001451D01*
X019567Y001383D01*
X019575Y001314D01*
X019588Y001247D01*
X019604Y001180D01*
X019625Y001115D01*
X019649Y001050D01*
X019676Y000987D01*
X019707Y000926D01*
X019742Y000867D01*
X019780Y000810D01*
X019821Y000755D01*
X019865Y000702D01*
X019912Y000652D01*
X019962Y000605D01*
X020015Y000561D01*
X020070Y000520D01*
X020127Y000482D01*
X020186Y000447D01*
X020247Y000416D01*
X020310Y000389D01*
X020375Y000365D01*
X020440Y000344D01*
X020507Y000328D01*
X020574Y000315D01*
X020643Y000307D01*
X020711Y000302D01*
X020711Y000394D01*
X020646Y000399D01*
X020581Y000408D01*
X020516Y000420D01*
X020453Y000437D01*
X020390Y000457D01*
X020329Y000480D01*
X020269Y000508D01*
X020211Y000539D01*
X020155Y000573D01*
X020101Y000610D01*
X020050Y000651D01*
X020001Y000694D01*
X019954Y000741D01*
X019911Y000790D01*
X019870Y000841D01*
X019833Y000895D01*
X019799Y000951D01*
X019768Y001009D01*
X019740Y001069D01*
X019717Y001130D01*
X019697Y001193D01*
X019680Y001256D01*
X019668Y001321D01*
X019659Y001386D01*
X019654Y001451D01*
X019746Y001451D01*
X019751Y001389D01*
X019760Y001327D01*
X019772Y001266D01*
X019789Y001206D01*
X019808Y001147D01*
X019832Y001089D01*
X019859Y001033D01*
X019889Y000978D01*
X019923Y000926D01*
X019960Y000876D01*
X020000Y000828D01*
X020042Y000782D01*
X020088Y000740D01*
X020136Y000700D01*
X020186Y000663D01*
X020238Y000629D01*
X020293Y000599D01*
X020349Y000572D01*
X020407Y000548D01*
X020466Y000529D01*
X020526Y000512D01*
X020587Y000500D01*
X020649Y000491D01*
X020711Y000486D01*
X020711Y000578D01*
X020652Y000583D01*
X020594Y000592D01*
X020537Y000604D01*
X020480Y000620D01*
X020425Y000640D01*
X020371Y000663D01*
X020318Y000689D01*
X020268Y000719D01*
X020219Y000752D01*
X020173Y000788D01*
X020128Y000827D01*
X020087Y000868D01*
X020048Y000913D01*
X020012Y000959D01*
X019979Y001008D01*
X019949Y001058D01*
X019923Y001111D01*
X019900Y001165D01*
X019880Y001220D01*
X019864Y001277D01*
X019852Y001334D01*
X019843Y001392D01*
X019838Y001451D01*
X019930Y001451D01*
X019935Y001396D01*
X019944Y001342D01*
X019956Y001289D01*
X019972Y001236D01*
X019991Y001185D01*
X020014Y001135D01*
X020039Y001086D01*
X020068Y001040D01*
X020100Y000995D01*
X020135Y000952D01*
X020172Y000912D01*
X020212Y000875D01*
X020255Y000840D01*
X020300Y000808D01*
X020346Y000779D01*
X020395Y000754D01*
X020445Y000731D01*
X020496Y000712D01*
X020549Y000696D01*
X020602Y000684D01*
X020656Y000675D01*
X020711Y000670D01*
X020711Y000763D01*
X020658Y000768D01*
X020606Y000777D01*
X020554Y000790D01*
X020504Y000807D01*
X020455Y000827D01*
X020407Y000851D01*
X020361Y000878D01*
X020318Y000908D01*
X020276Y000941D01*
X020237Y000977D01*
X020201Y001016D01*
X020168Y001058D01*
X020138Y001101D01*
X020111Y001147D01*
X020087Y001195D01*
X020067Y001244D01*
X020050Y001294D01*
X020037Y001346D01*
X020028Y001398D01*
X020023Y001451D01*
X020115Y001451D01*
X020120Y001403D01*
X020129Y001356D01*
X020142Y001309D01*
X020158Y001263D01*
X020177Y001219D01*
X020200Y001176D01*
X020226Y001135D01*
X020254Y001097D01*
X020286Y001060D01*
X020320Y001026D01*
X020357Y000994D01*
X020395Y000966D01*
X020436Y000940D01*
X020479Y000917D01*
X020523Y000898D01*
X020569Y000882D01*
X020616Y000869D01*
X020663Y000860D01*
X020711Y000855D01*
X020711Y000947D01*
X020666Y000953D01*
X020621Y000963D01*
X020578Y000976D01*
X020536Y000992D01*
X020495Y001013D01*
X020456Y001036D01*
X020419Y001062D01*
X020384Y001092D01*
X020352Y001124D01*
X020322Y001159D01*
X020296Y001196D01*
X020273Y001235D01*
X020252Y001276D01*
X020236Y001318D01*
X020223Y001361D01*
X020213Y001406D01*
X020207Y001451D01*
X020300Y001451D01*
X020306Y001410D01*
X020316Y001369D01*
X020330Y001329D01*
X020347Y001291D01*
X020367Y001255D01*
X020391Y001220D01*
X020418Y001188D01*
X020448Y001158D01*
X020480Y001131D01*
X020515Y001107D01*
X020551Y001087D01*
X020589Y001070D01*
X020629Y001056D01*
X020670Y001046D01*
X020711Y001040D01*
X005050Y018548D02*
X004166Y018548D01*
X004166Y018549D02*
X004160Y018587D01*
X004150Y018625D01*
X004136Y018661D01*
X004119Y018696D01*
X004099Y018729D01*
X004075Y018760D01*
X004049Y018789D01*
X004020Y018815D01*
X003989Y018839D01*
X003956Y018859D01*
X003921Y018876D01*
X003885Y018890D01*
X003847Y018900D01*
X003809Y018906D01*
X003808Y019790D01*
X003809Y019790D01*
X003880Y019785D01*
X003951Y019777D01*
X004022Y019764D01*
X004091Y019748D01*
X004160Y019728D01*
X004227Y019704D01*
X004293Y019676D01*
X004357Y019645D01*
X004420Y019610D01*
X004480Y019572D01*
X004538Y019530D01*
X004594Y019485D01*
X004647Y019438D01*
X004698Y019387D01*
X004745Y019334D01*
X004790Y019278D01*
X004832Y019220D01*
X004870Y019160D01*
X004905Y019097D01*
X004936Y019033D01*
X004964Y018967D01*
X004988Y018900D01*
X005008Y018831D01*
X005024Y018762D01*
X005037Y018691D01*
X005045Y018620D01*
X005050Y018549D01*
X004958Y018549D01*
X004953Y018617D01*
X004945Y018686D01*
X004932Y018753D01*
X004916Y018820D01*
X004895Y018885D01*
X004871Y018950D01*
X004844Y019013D01*
X004813Y019074D01*
X004778Y019133D01*
X004740Y019190D01*
X004699Y019245D01*
X004655Y019298D01*
X004608Y019348D01*
X004558Y019395D01*
X004505Y019439D01*
X004450Y019480D01*
X004393Y019518D01*
X004334Y019553D01*
X004273Y019584D01*
X004210Y019611D01*
X004145Y019635D01*
X004080Y019656D01*
X004013Y019672D01*
X003946Y019685D01*
X003877Y019693D01*
X003809Y019698D01*
X003809Y019606D01*
X003874Y019601D01*
X003939Y019592D01*
X004004Y019580D01*
X004067Y019563D01*
X004130Y019543D01*
X004191Y019520D01*
X004251Y019492D01*
X004309Y019461D01*
X004365Y019427D01*
X004419Y019390D01*
X004470Y019349D01*
X004519Y019306D01*
X004566Y019259D01*
X004609Y019210D01*
X004650Y019159D01*
X004687Y019105D01*
X004721Y019049D01*
X004752Y018991D01*
X004780Y018931D01*
X004803Y018870D01*
X004823Y018807D01*
X004840Y018744D01*
X004852Y018679D01*
X004861Y018614D01*
X004866Y018549D01*
X004774Y018549D01*
X004769Y018611D01*
X004760Y018673D01*
X004748Y018734D01*
X004731Y018794D01*
X004712Y018853D01*
X004688Y018911D01*
X004661Y018967D01*
X004631Y019022D01*
X004597Y019074D01*
X004560Y019124D01*
X004520Y019172D01*
X004478Y019218D01*
X004432Y019260D01*
X004384Y019300D01*
X004334Y019337D01*
X004282Y019371D01*
X004227Y019401D01*
X004171Y019428D01*
X004113Y019452D01*
X004054Y019471D01*
X003994Y019488D01*
X003933Y019500D01*
X003871Y019509D01*
X003809Y019514D01*
X003809Y019422D01*
X003868Y019417D01*
X003926Y019408D01*
X003983Y019396D01*
X004040Y019380D01*
X004095Y019360D01*
X004149Y019337D01*
X004202Y019311D01*
X004252Y019281D01*
X004301Y019248D01*
X004347Y019212D01*
X004392Y019173D01*
X004433Y019132D01*
X004472Y019087D01*
X004508Y019041D01*
X004541Y018992D01*
X004571Y018942D01*
X004597Y018889D01*
X004620Y018835D01*
X004640Y018780D01*
X004656Y018723D01*
X004668Y018666D01*
X004677Y018608D01*
X004682Y018549D01*
X004590Y018549D01*
X004585Y018604D01*
X004576Y018658D01*
X004564Y018711D01*
X004548Y018764D01*
X004529Y018815D01*
X004506Y018865D01*
X004481Y018914D01*
X004452Y018960D01*
X004420Y019005D01*
X004385Y019048D01*
X004348Y019088D01*
X004308Y019125D01*
X004265Y019160D01*
X004220Y019192D01*
X004174Y019221D01*
X004125Y019246D01*
X004075Y019269D01*
X004024Y019288D01*
X003971Y019304D01*
X003918Y019316D01*
X003864Y019325D01*
X003809Y019330D01*
X003809Y019237D01*
X003862Y019232D01*
X003914Y019223D01*
X003966Y019210D01*
X004016Y019193D01*
X004065Y019173D01*
X004113Y019149D01*
X004159Y019122D01*
X004202Y019092D01*
X004244Y019059D01*
X004283Y019023D01*
X004319Y018984D01*
X004352Y018942D01*
X004382Y018899D01*
X004409Y018853D01*
X004433Y018805D01*
X004453Y018756D01*
X004470Y018706D01*
X004483Y018654D01*
X004492Y018602D01*
X004497Y018549D01*
X004405Y018549D01*
X004400Y018597D01*
X004391Y018644D01*
X004378Y018691D01*
X004362Y018737D01*
X004343Y018781D01*
X004320Y018824D01*
X004294Y018865D01*
X004266Y018903D01*
X004234Y018940D01*
X004200Y018974D01*
X004163Y019006D01*
X004125Y019034D01*
X004084Y019060D01*
X004041Y019083D01*
X003997Y019102D01*
X003951Y019118D01*
X003904Y019131D01*
X003857Y019140D01*
X003809Y019145D01*
X003809Y019053D01*
X003854Y019047D01*
X003899Y019037D01*
X003942Y019024D01*
X003984Y019008D01*
X004025Y018987D01*
X004064Y018964D01*
X004101Y018938D01*
X004136Y018908D01*
X004168Y018876D01*
X004198Y018841D01*
X004224Y018804D01*
X004247Y018765D01*
X004268Y018724D01*
X004284Y018682D01*
X004297Y018639D01*
X004307Y018594D01*
X004313Y018549D01*
X004220Y018549D01*
X004214Y018590D01*
X004204Y018631D01*
X004190Y018671D01*
X004173Y018709D01*
X004153Y018745D01*
X004129Y018780D01*
X004102Y018812D01*
X004072Y018842D01*
X004040Y018869D01*
X004005Y018893D01*
X003969Y018913D01*
X003931Y018930D01*
X003891Y018944D01*
X003850Y018954D01*
X003809Y018960D01*
X002470Y018452D02*
X003354Y018452D01*
X003354Y018451D02*
X003360Y018413D01*
X003370Y018375D01*
X003384Y018339D01*
X003401Y018304D01*
X003421Y018271D01*
X003445Y018240D01*
X003471Y018211D01*
X003500Y018185D01*
X003531Y018161D01*
X003564Y018141D01*
X003599Y018124D01*
X003635Y018110D01*
X003673Y018100D01*
X003711Y018094D01*
X003712Y017210D01*
X003711Y017210D01*
X003640Y017215D01*
X003569Y017223D01*
X003498Y017236D01*
X003429Y017252D01*
X003360Y017272D01*
X003293Y017296D01*
X003227Y017324D01*
X003163Y017355D01*
X003100Y017390D01*
X003040Y017428D01*
X002982Y017470D01*
X002926Y017515D01*
X002873Y017562D01*
X002822Y017613D01*
X002775Y017666D01*
X002730Y017722D01*
X002688Y017780D01*
X002650Y017840D01*
X002615Y017903D01*
X002584Y017967D01*
X002556Y018033D01*
X002532Y018100D01*
X002512Y018169D01*
X002496Y018238D01*
X002483Y018309D01*
X002475Y018380D01*
X002470Y018451D01*
X002562Y018451D01*
X002567Y018383D01*
X002575Y018314D01*
X002588Y018247D01*
X002604Y018180D01*
X002625Y018115D01*
X002649Y018050D01*
X002676Y017987D01*
X002707Y017926D01*
X002742Y017867D01*
X002780Y017810D01*
X002821Y017755D01*
X002865Y017702D01*
X002912Y017652D01*
X002962Y017605D01*
X003015Y017561D01*
X003070Y017520D01*
X003127Y017482D01*
X003186Y017447D01*
X003247Y017416D01*
X003310Y017389D01*
X003375Y017365D01*
X003440Y017344D01*
X003507Y017328D01*
X003574Y017315D01*
X003643Y017307D01*
X003711Y017302D01*
X003711Y017394D01*
X003646Y017399D01*
X003581Y017408D01*
X003516Y017420D01*
X003453Y017437D01*
X003390Y017457D01*
X003329Y017480D01*
X003269Y017508D01*
X003211Y017539D01*
X003155Y017573D01*
X003101Y017610D01*
X003050Y017651D01*
X003001Y017694D01*
X002954Y017741D01*
X002911Y017790D01*
X002870Y017841D01*
X002833Y017895D01*
X002799Y017951D01*
X002768Y018009D01*
X002740Y018069D01*
X002717Y018130D01*
X002697Y018193D01*
X002680Y018256D01*
X002668Y018321D01*
X002659Y018386D01*
X002654Y018451D01*
X002746Y018451D01*
X002751Y018389D01*
X002760Y018327D01*
X002772Y018266D01*
X002789Y018206D01*
X002808Y018147D01*
X002832Y018089D01*
X002859Y018033D01*
X002889Y017978D01*
X002923Y017926D01*
X002960Y017876D01*
X003000Y017828D01*
X003042Y017782D01*
X003088Y017740D01*
X003136Y017700D01*
X003186Y017663D01*
X003238Y017629D01*
X003293Y017599D01*
X003349Y017572D01*
X003407Y017548D01*
X003466Y017529D01*
X003526Y017512D01*
X003587Y017500D01*
X003649Y017491D01*
X003711Y017486D01*
X003711Y017578D01*
X003652Y017583D01*
X003594Y017592D01*
X003537Y017604D01*
X003480Y017620D01*
X003425Y017640D01*
X003371Y017663D01*
X003318Y017689D01*
X003268Y017719D01*
X003219Y017752D01*
X003173Y017788D01*
X003128Y017827D01*
X003087Y017868D01*
X003048Y017913D01*
X003012Y017959D01*
X002979Y018008D01*
X002949Y018058D01*
X002923Y018111D01*
X002900Y018165D01*
X002880Y018220D01*
X002864Y018277D01*
X002852Y018334D01*
X002843Y018392D01*
X002838Y018451D01*
X002930Y018451D01*
X002935Y018396D01*
X002944Y018342D01*
X002956Y018289D01*
X002972Y018236D01*
X002991Y018185D01*
X003014Y018135D01*
X003039Y018086D01*
X003068Y018040D01*
X003100Y017995D01*
X003135Y017952D01*
X003172Y017912D01*
X003212Y017875D01*
X003255Y017840D01*
X003300Y017808D01*
X003346Y017779D01*
X003395Y017754D01*
X003445Y017731D01*
X003496Y017712D01*
X003549Y017696D01*
X003602Y017684D01*
X003656Y017675D01*
X003711Y017670D01*
X003711Y017763D01*
X003658Y017768D01*
X003606Y017777D01*
X003554Y017790D01*
X003504Y017807D01*
X003455Y017827D01*
X003407Y017851D01*
X003361Y017878D01*
X003318Y017908D01*
X003276Y017941D01*
X003237Y017977D01*
X003201Y018016D01*
X003168Y018058D01*
X003138Y018101D01*
X003111Y018147D01*
X003087Y018195D01*
X003067Y018244D01*
X003050Y018294D01*
X003037Y018346D01*
X003028Y018398D01*
X003023Y018451D01*
X003115Y018451D01*
X003120Y018403D01*
X003129Y018356D01*
X003142Y018309D01*
X003158Y018263D01*
X003177Y018219D01*
X003200Y018176D01*
X003226Y018135D01*
X003254Y018097D01*
X003286Y018060D01*
X003320Y018026D01*
X003357Y017994D01*
X003395Y017966D01*
X003436Y017940D01*
X003479Y017917D01*
X003523Y017898D01*
X003569Y017882D01*
X003616Y017869D01*
X003663Y017860D01*
X003711Y017855D01*
X003711Y017947D01*
X003666Y017953D01*
X003621Y017963D01*
X003578Y017976D01*
X003536Y017992D01*
X003495Y018013D01*
X003456Y018036D01*
X003419Y018062D01*
X003384Y018092D01*
X003352Y018124D01*
X003322Y018159D01*
X003296Y018196D01*
X003273Y018235D01*
X003252Y018276D01*
X003236Y018318D01*
X003223Y018361D01*
X003213Y018406D01*
X003207Y018451D01*
X003300Y018451D01*
X003306Y018410D01*
X003316Y018369D01*
X003330Y018329D01*
X003347Y018291D01*
X003367Y018255D01*
X003391Y018220D01*
X003418Y018188D01*
X003448Y018158D01*
X003480Y018131D01*
X003515Y018107D01*
X003551Y018087D01*
X003589Y018070D01*
X003629Y018056D01*
X003670Y018046D01*
X003711Y018040D01*
D12*
X002410Y018500D02*
X002412Y018573D01*
X002418Y018646D01*
X002428Y018718D01*
X002442Y018790D01*
X002459Y018861D01*
X002481Y018931D01*
X002506Y019000D01*
X002535Y019067D01*
X002567Y019132D01*
X002603Y019196D01*
X002643Y019258D01*
X002685Y019317D01*
X002731Y019374D01*
X002780Y019428D01*
X002832Y019480D01*
X002886Y019529D01*
X002943Y019575D01*
X003002Y019617D01*
X003064Y019657D01*
X003128Y019693D01*
X003193Y019725D01*
X003260Y019754D01*
X003329Y019779D01*
X003399Y019801D01*
X003470Y019818D01*
X003542Y019832D01*
X003614Y019842D01*
X003687Y019848D01*
X003760Y019850D01*
X003833Y019848D01*
X003906Y019842D01*
X003978Y019832D01*
X004050Y019818D01*
X004121Y019801D01*
X004191Y019779D01*
X004260Y019754D01*
X004327Y019725D01*
X004392Y019693D01*
X004456Y019657D01*
X004518Y019617D01*
X004577Y019575D01*
X004634Y019529D01*
X004688Y019480D01*
X004740Y019428D01*
X004789Y019374D01*
X004835Y019317D01*
X004877Y019258D01*
X004917Y019196D01*
X004953Y019132D01*
X004985Y019067D01*
X005014Y019000D01*
X005039Y018931D01*
X005061Y018861D01*
X005078Y018790D01*
X005092Y018718D01*
X005102Y018646D01*
X005108Y018573D01*
X005110Y018500D01*
X005108Y018427D01*
X005102Y018354D01*
X005092Y018282D01*
X005078Y018210D01*
X005061Y018139D01*
X005039Y018069D01*
X005014Y018000D01*
X004985Y017933D01*
X004953Y017868D01*
X004917Y017804D01*
X004877Y017742D01*
X004835Y017683D01*
X004789Y017626D01*
X004740Y017572D01*
X004688Y017520D01*
X004634Y017471D01*
X004577Y017425D01*
X004518Y017383D01*
X004456Y017343D01*
X004392Y017307D01*
X004327Y017275D01*
X004260Y017246D01*
X004191Y017221D01*
X004121Y017199D01*
X004050Y017182D01*
X003978Y017168D01*
X003906Y017158D01*
X003833Y017152D01*
X003760Y017150D01*
X003687Y017152D01*
X003614Y017158D01*
X003542Y017168D01*
X003470Y017182D01*
X003399Y017199D01*
X003329Y017221D01*
X003260Y017246D01*
X003193Y017275D01*
X003128Y017307D01*
X003064Y017343D01*
X003002Y017383D01*
X002943Y017425D01*
X002886Y017471D01*
X002832Y017520D01*
X002780Y017572D01*
X002731Y017626D01*
X002685Y017683D01*
X002643Y017742D01*
X002603Y017804D01*
X002567Y017868D01*
X002535Y017933D01*
X002506Y018000D01*
X002481Y018069D01*
X002459Y018139D01*
X002442Y018210D01*
X002428Y018282D01*
X002418Y018354D01*
X002412Y018427D01*
X002410Y018500D01*
X005590Y015703D02*
X005930Y015703D01*
X005930Y015422D02*
X005590Y015422D01*
X005419Y014713D02*
X005226Y014713D01*
X005226Y014537D02*
X005419Y014537D01*
X005349Y012596D02*
X005349Y012404D01*
X005172Y012404D02*
X005172Y012596D01*
X006539Y010838D02*
X006732Y010838D01*
X006732Y010662D02*
X006539Y010662D01*
X007914Y010662D02*
X008107Y010662D01*
X008107Y010838D02*
X007914Y010838D01*
X009090Y009640D02*
X009430Y009640D01*
X009430Y009360D02*
X009090Y009360D01*
X009164Y008588D02*
X009357Y008588D01*
X009357Y008412D02*
X009164Y008412D01*
X008849Y007096D02*
X008849Y006904D01*
X008672Y006904D02*
X008672Y007096D01*
X011164Y004588D02*
X011357Y004588D01*
X011357Y004412D02*
X011164Y004412D01*
X012664Y004412D02*
X012857Y004412D01*
X012857Y004588D02*
X012664Y004588D01*
X014164Y008412D02*
X014357Y008412D01*
X014357Y008588D02*
X014164Y008588D01*
X013930Y009360D02*
X013590Y009360D01*
X013590Y009640D02*
X013930Y009640D01*
X013857Y010912D02*
X013664Y010912D01*
X013664Y011088D02*
X013857Y011088D01*
X015164Y011088D02*
X015357Y011088D01*
X015357Y010912D02*
X015164Y010912D01*
X012474Y012904D02*
X012474Y013096D01*
X012297Y013096D02*
X012297Y012904D01*
X013164Y014662D02*
X013357Y014662D01*
X013357Y014838D02*
X013164Y014838D01*
X013870Y015580D02*
X013870Y015920D01*
X014151Y015920D02*
X014151Y015580D01*
X016090Y015640D02*
X016430Y015640D01*
X016430Y015360D02*
X016090Y015360D01*
X016664Y014588D02*
X016857Y014588D01*
X016857Y014412D02*
X016664Y014412D01*
X015482Y019224D02*
X015289Y019224D01*
X015289Y019401D02*
X015482Y019401D01*
X010607Y019401D02*
X010414Y019401D01*
X010414Y019224D02*
X010607Y019224D01*
X009294Y019224D02*
X009101Y019224D01*
X009101Y019401D02*
X009294Y019401D01*
X008930Y015640D02*
X008590Y015640D01*
X008590Y015360D02*
X008930Y015360D01*
X009164Y014588D02*
X009357Y014588D01*
X009357Y014412D02*
X009164Y014412D01*
X019410Y001500D02*
X019412Y001573D01*
X019418Y001646D01*
X019428Y001718D01*
X019442Y001790D01*
X019459Y001861D01*
X019481Y001931D01*
X019506Y002000D01*
X019535Y002067D01*
X019567Y002132D01*
X019603Y002196D01*
X019643Y002258D01*
X019685Y002317D01*
X019731Y002374D01*
X019780Y002428D01*
X019832Y002480D01*
X019886Y002529D01*
X019943Y002575D01*
X020002Y002617D01*
X020064Y002657D01*
X020128Y002693D01*
X020193Y002725D01*
X020260Y002754D01*
X020329Y002779D01*
X020399Y002801D01*
X020470Y002818D01*
X020542Y002832D01*
X020614Y002842D01*
X020687Y002848D01*
X020760Y002850D01*
X020833Y002848D01*
X020906Y002842D01*
X020978Y002832D01*
X021050Y002818D01*
X021121Y002801D01*
X021191Y002779D01*
X021260Y002754D01*
X021327Y002725D01*
X021392Y002693D01*
X021456Y002657D01*
X021518Y002617D01*
X021577Y002575D01*
X021634Y002529D01*
X021688Y002480D01*
X021740Y002428D01*
X021789Y002374D01*
X021835Y002317D01*
X021877Y002258D01*
X021917Y002196D01*
X021953Y002132D01*
X021985Y002067D01*
X022014Y002000D01*
X022039Y001931D01*
X022061Y001861D01*
X022078Y001790D01*
X022092Y001718D01*
X022102Y001646D01*
X022108Y001573D01*
X022110Y001500D01*
X022108Y001427D01*
X022102Y001354D01*
X022092Y001282D01*
X022078Y001210D01*
X022061Y001139D01*
X022039Y001069D01*
X022014Y001000D01*
X021985Y000933D01*
X021953Y000868D01*
X021917Y000804D01*
X021877Y000742D01*
X021835Y000683D01*
X021789Y000626D01*
X021740Y000572D01*
X021688Y000520D01*
X021634Y000471D01*
X021577Y000425D01*
X021518Y000383D01*
X021456Y000343D01*
X021392Y000307D01*
X021327Y000275D01*
X021260Y000246D01*
X021191Y000221D01*
X021121Y000199D01*
X021050Y000182D01*
X020978Y000168D01*
X020906Y000158D01*
X020833Y000152D01*
X020760Y000150D01*
X020687Y000152D01*
X020614Y000158D01*
X020542Y000168D01*
X020470Y000182D01*
X020399Y000199D01*
X020329Y000221D01*
X020260Y000246D01*
X020193Y000275D01*
X020128Y000307D01*
X020064Y000343D01*
X020002Y000383D01*
X019943Y000425D01*
X019886Y000471D01*
X019832Y000520D01*
X019780Y000572D01*
X019731Y000626D01*
X019685Y000683D01*
X019643Y000742D01*
X019603Y000804D01*
X019567Y000868D01*
X019535Y000933D01*
X019506Y001000D01*
X019481Y001069D01*
X019459Y001139D01*
X019442Y001210D01*
X019428Y001282D01*
X019418Y001354D01*
X019412Y001427D01*
X019410Y001500D01*
D13*
X020460Y001500D02*
X020462Y001534D01*
X020468Y001568D01*
X020477Y001601D01*
X020491Y001632D01*
X020508Y001662D01*
X020528Y001690D01*
X020551Y001715D01*
X020577Y001738D01*
X020605Y001757D01*
X020635Y001773D01*
X020667Y001785D01*
X020700Y001794D01*
X020734Y001799D01*
X020769Y001800D01*
X020803Y001797D01*
X020836Y001790D01*
X020869Y001780D01*
X020900Y001765D01*
X020929Y001748D01*
X020956Y001727D01*
X020981Y001703D01*
X021003Y001676D01*
X021021Y001648D01*
X021036Y001617D01*
X021048Y001585D01*
X021056Y001551D01*
X021060Y001517D01*
X021060Y001483D01*
X021056Y001449D01*
X021048Y001415D01*
X021036Y001383D01*
X021021Y001352D01*
X021003Y001324D01*
X020981Y001297D01*
X020956Y001273D01*
X020929Y001252D01*
X020900Y001235D01*
X020869Y001220D01*
X020836Y001210D01*
X020803Y001203D01*
X020769Y001200D01*
X020734Y001201D01*
X020700Y001206D01*
X020667Y001215D01*
X020635Y001227D01*
X020605Y001243D01*
X020577Y001262D01*
X020551Y001285D01*
X020528Y001310D01*
X020508Y001338D01*
X020491Y001368D01*
X020477Y001399D01*
X020468Y001432D01*
X020462Y001466D01*
X020460Y001500D01*
X003460Y018500D02*
X003462Y018534D01*
X003468Y018568D01*
X003477Y018601D01*
X003491Y018632D01*
X003508Y018662D01*
X003528Y018690D01*
X003551Y018715D01*
X003577Y018738D01*
X003605Y018757D01*
X003635Y018773D01*
X003667Y018785D01*
X003700Y018794D01*
X003734Y018799D01*
X003769Y018800D01*
X003803Y018797D01*
X003836Y018790D01*
X003869Y018780D01*
X003900Y018765D01*
X003929Y018748D01*
X003956Y018727D01*
X003981Y018703D01*
X004003Y018676D01*
X004021Y018648D01*
X004036Y018617D01*
X004048Y018585D01*
X004056Y018551D01*
X004060Y018517D01*
X004060Y018483D01*
X004056Y018449D01*
X004048Y018415D01*
X004036Y018383D01*
X004021Y018352D01*
X004003Y018324D01*
X003981Y018297D01*
X003956Y018273D01*
X003929Y018252D01*
X003900Y018235D01*
X003869Y018220D01*
X003836Y018210D01*
X003803Y018203D01*
X003769Y018200D01*
X003734Y018201D01*
X003700Y018206D01*
X003667Y018215D01*
X003635Y018227D01*
X003605Y018243D01*
X003577Y018262D01*
X003551Y018285D01*
X003528Y018310D01*
X003508Y018338D01*
X003491Y018368D01*
X003477Y018399D01*
X003468Y018432D01*
X003462Y018466D01*
X003460Y018500D01*
D14*
X003091Y018500D02*
X003093Y018551D01*
X003099Y018602D01*
X003109Y018652D01*
X003122Y018702D01*
X003140Y018750D01*
X003160Y018797D01*
X003185Y018842D01*
X003213Y018885D01*
X003244Y018926D01*
X003278Y018964D01*
X003315Y018999D01*
X003354Y019032D01*
X003396Y019062D01*
X003440Y019088D01*
X003486Y019110D01*
X003534Y019130D01*
X003583Y019145D01*
X003633Y019157D01*
X003683Y019165D01*
X003734Y019169D01*
X003786Y019169D01*
X003837Y019165D01*
X003887Y019157D01*
X003937Y019145D01*
X003986Y019130D01*
X004034Y019110D01*
X004080Y019088D01*
X004124Y019062D01*
X004166Y019032D01*
X004205Y018999D01*
X004242Y018964D01*
X004276Y018926D01*
X004307Y018885D01*
X004335Y018842D01*
X004360Y018797D01*
X004380Y018750D01*
X004398Y018702D01*
X004411Y018652D01*
X004421Y018602D01*
X004427Y018551D01*
X004429Y018500D01*
X004427Y018449D01*
X004421Y018398D01*
X004411Y018348D01*
X004398Y018298D01*
X004380Y018250D01*
X004360Y018203D01*
X004335Y018158D01*
X004307Y018115D01*
X004276Y018074D01*
X004242Y018036D01*
X004205Y018001D01*
X004166Y017968D01*
X004124Y017938D01*
X004080Y017912D01*
X004034Y017890D01*
X003986Y017870D01*
X003937Y017855D01*
X003887Y017843D01*
X003837Y017835D01*
X003786Y017831D01*
X003734Y017831D01*
X003683Y017835D01*
X003633Y017843D01*
X003583Y017855D01*
X003534Y017870D01*
X003486Y017890D01*
X003440Y017912D01*
X003396Y017938D01*
X003354Y017968D01*
X003315Y018001D01*
X003278Y018036D01*
X003244Y018074D01*
X003213Y018115D01*
X003185Y018158D01*
X003160Y018203D01*
X003140Y018250D01*
X003122Y018298D01*
X003109Y018348D01*
X003099Y018398D01*
X003093Y018449D01*
X003091Y018500D01*
X007256Y019069D02*
X007256Y019250D01*
X007378Y019342D01*
X007256Y019431D02*
X007256Y019250D01*
X007262Y019240D02*
X007378Y019164D01*
X012205Y019158D02*
X012327Y019250D01*
X012327Y019431D01*
X012205Y019336D02*
X012321Y019260D01*
X012327Y019250D02*
X012327Y019069D01*
X017268Y019158D02*
X017390Y019250D01*
X017390Y019431D01*
X017268Y019336D02*
X017384Y019260D01*
X017390Y019250D02*
X017390Y019069D01*
X015705Y013944D02*
X013816Y013944D01*
X014051Y013944D01*
X013816Y013944D02*
X013816Y013709D01*
X013816Y013944D02*
X013816Y012056D01*
X013816Y012291D01*
X013816Y012056D02*
X014051Y012056D01*
X013816Y012056D02*
X015705Y012056D01*
X015470Y012056D01*
X015705Y012056D02*
X015705Y012291D01*
X015705Y012056D02*
X015705Y013944D01*
X015705Y013709D01*
X015705Y013944D02*
X015470Y013944D01*
X012705Y007944D02*
X010816Y007944D01*
X011051Y007944D01*
X010816Y007944D02*
X010816Y007709D01*
X010816Y007944D02*
X010816Y006056D01*
X010816Y006291D01*
X010816Y006056D02*
X011051Y006056D01*
X010816Y006056D02*
X012705Y006056D01*
X012470Y006056D01*
X012705Y006056D02*
X012705Y006291D01*
X012705Y006056D02*
X012705Y007944D01*
X012705Y007709D01*
X012705Y007944D02*
X012470Y007944D01*
X008205Y012056D02*
X007970Y012056D01*
X008205Y012056D02*
X008205Y012291D01*
X008205Y012056D02*
X008205Y013944D01*
X008205Y013709D01*
X008205Y013944D02*
X007970Y013944D01*
X008205Y013944D02*
X006316Y013944D01*
X006551Y013944D01*
X006316Y013944D02*
X006316Y013709D01*
X006316Y013944D02*
X006316Y012056D01*
X006316Y012291D01*
X006316Y012056D02*
X006551Y012056D01*
X006316Y012056D02*
X008205Y012056D01*
X020091Y001500D02*
X020093Y001551D01*
X020099Y001602D01*
X020109Y001652D01*
X020122Y001702D01*
X020140Y001750D01*
X020160Y001797D01*
X020185Y001842D01*
X020213Y001885D01*
X020244Y001926D01*
X020278Y001964D01*
X020315Y001999D01*
X020354Y002032D01*
X020396Y002062D01*
X020440Y002088D01*
X020486Y002110D01*
X020534Y002130D01*
X020583Y002145D01*
X020633Y002157D01*
X020683Y002165D01*
X020734Y002169D01*
X020786Y002169D01*
X020837Y002165D01*
X020887Y002157D01*
X020937Y002145D01*
X020986Y002130D01*
X021034Y002110D01*
X021080Y002088D01*
X021124Y002062D01*
X021166Y002032D01*
X021205Y001999D01*
X021242Y001964D01*
X021276Y001926D01*
X021307Y001885D01*
X021335Y001842D01*
X021360Y001797D01*
X021380Y001750D01*
X021398Y001702D01*
X021411Y001652D01*
X021421Y001602D01*
X021427Y001551D01*
X021429Y001500D01*
X021427Y001449D01*
X021421Y001398D01*
X021411Y001348D01*
X021398Y001298D01*
X021380Y001250D01*
X021360Y001203D01*
X021335Y001158D01*
X021307Y001115D01*
X021276Y001074D01*
X021242Y001036D01*
X021205Y001001D01*
X021166Y000968D01*
X021124Y000938D01*
X021080Y000912D01*
X021034Y000890D01*
X020986Y000870D01*
X020937Y000855D01*
X020887Y000843D01*
X020837Y000835D01*
X020786Y000831D01*
X020734Y000831D01*
X020683Y000835D01*
X020633Y000843D01*
X020583Y000855D01*
X020534Y000870D01*
X020486Y000890D01*
X020440Y000912D01*
X020396Y000938D01*
X020354Y000968D01*
X020315Y001001D01*
X020278Y001036D01*
X020244Y001074D01*
X020213Y001115D01*
X020185Y001158D01*
X020160Y001203D01*
X020140Y001250D01*
X020122Y001298D01*
X020109Y001348D01*
X020099Y001398D01*
X020093Y001449D01*
X020091Y001500D01*
D15*
X014976Y005252D02*
X013795Y005252D01*
X013795Y006748D01*
X013992Y006748D01*
X013795Y006748D02*
X013795Y005626D01*
X014307Y005252D02*
X014464Y005252D01*
X014976Y005252D02*
X014976Y006748D01*
X014976Y005606D01*
X014976Y006748D02*
X013795Y006748D01*
X014759Y006748D02*
X014976Y006748D01*
X010597Y008078D02*
X010599Y008094D01*
X010604Y008109D01*
X010613Y008123D01*
X010625Y008134D01*
X010639Y008142D01*
X010655Y008147D01*
X010671Y008148D01*
X010687Y008145D01*
X010702Y008139D01*
X010715Y008129D01*
X010725Y008116D01*
X010733Y008102D01*
X010737Y008086D01*
X010737Y008070D01*
X010733Y008054D01*
X010725Y008040D01*
X010715Y008027D01*
X010702Y008017D01*
X010687Y008011D01*
X010671Y008008D01*
X010655Y008009D01*
X010639Y008014D01*
X010625Y008022D01*
X010613Y008033D01*
X010604Y008047D01*
X010599Y008062D01*
X010597Y008078D01*
X010226Y011252D02*
X009045Y011252D01*
X009045Y012748D01*
X009242Y012748D01*
X009045Y012748D02*
X009045Y011626D01*
X009557Y011252D02*
X009714Y011252D01*
X010226Y011252D02*
X010226Y012748D01*
X010226Y011606D01*
X010226Y012748D02*
X009045Y012748D01*
X010009Y012748D02*
X010226Y012748D01*
X013597Y014078D02*
X013599Y014094D01*
X013604Y014109D01*
X013613Y014123D01*
X013625Y014134D01*
X013639Y014142D01*
X013655Y014147D01*
X013671Y014148D01*
X013687Y014145D01*
X013702Y014139D01*
X013715Y014129D01*
X013725Y014116D01*
X013733Y014102D01*
X013737Y014086D01*
X013737Y014070D01*
X013733Y014054D01*
X013725Y014040D01*
X013715Y014027D01*
X013702Y014017D01*
X013687Y014011D01*
X013671Y014008D01*
X013655Y014009D01*
X013639Y014014D01*
X013625Y014022D01*
X013613Y014033D01*
X013604Y014047D01*
X013599Y014062D01*
X013597Y014078D01*
X016279Y012748D02*
X016279Y011626D01*
X016279Y011252D02*
X017460Y011252D01*
X017460Y012748D01*
X017460Y011606D01*
X016948Y011252D02*
X016791Y011252D01*
X016279Y011252D02*
X016279Y012748D01*
X016476Y012748D01*
X016279Y012748D02*
X017460Y012748D01*
X017244Y012748D01*
X006097Y014078D02*
X006099Y014094D01*
X006104Y014109D01*
X006113Y014123D01*
X006125Y014134D01*
X006139Y014142D01*
X006155Y014147D01*
X006171Y014148D01*
X006187Y014145D01*
X006202Y014139D01*
X006215Y014129D01*
X006225Y014116D01*
X006233Y014102D01*
X006237Y014086D01*
X006237Y014070D01*
X006233Y014054D01*
X006225Y014040D01*
X006215Y014027D01*
X006202Y014017D01*
X006187Y014011D01*
X006171Y014008D01*
X006155Y014009D01*
X006139Y014014D01*
X006125Y014022D01*
X006113Y014033D01*
X006104Y014047D01*
X006099Y014062D01*
X006097Y014078D01*
D16*
X006010Y015563D03*
X005510Y015563D03*
X008510Y015500D03*
X009010Y015500D03*
X009010Y009500D03*
X009510Y009500D03*
X013510Y009500D03*
X014010Y009500D03*
X016010Y015500D03*
X016510Y015500D03*
D17*
X016599Y014502D03*
X016919Y014502D03*
X013419Y014752D03*
X013099Y014752D03*
X009419Y014502D03*
X009099Y014502D03*
X005482Y014627D03*
X005162Y014627D03*
X006476Y010748D03*
X006796Y010748D03*
X007849Y010748D03*
X008169Y010748D03*
X009099Y008502D03*
X009419Y008502D03*
X013599Y011002D03*
X013919Y011002D03*
X015099Y010998D03*
X015419Y010998D03*
X014419Y008502D03*
X014099Y008502D03*
X012921Y004502D03*
X012601Y004502D03*
X011421Y004498D03*
X011101Y004498D03*
X010669Y019311D03*
X010349Y019311D03*
X009359Y019314D03*
X009039Y019314D03*
X015224Y019311D03*
X015544Y019311D03*
D18*
X013260Y014762D02*
X013260Y014738D01*
X012397Y013000D02*
X012373Y013000D01*
X013760Y011012D02*
X013760Y010988D01*
X014260Y008512D02*
X014260Y008488D01*
X011260Y004512D02*
X011260Y004488D01*
X008772Y007000D02*
X008748Y007000D01*
X009260Y008488D02*
X009260Y008512D01*
X006635Y010738D02*
X006635Y010762D01*
X005272Y012500D02*
X005248Y012500D01*
X005323Y014613D02*
X005323Y014637D01*
X009260Y014512D02*
X009260Y014488D01*
X016760Y014488D02*
X016760Y014512D01*
D19*
X012383Y013159D03*
X012383Y012839D03*
X008758Y007159D03*
X008758Y006839D03*
X005258Y012339D03*
X005258Y012659D03*
D20*
X014010Y015500D03*
X014010Y016000D03*
D21*
X015936Y003351D03*
X015936Y003330D03*
X015936Y003316D03*
X015936Y001580D03*
X015936Y001566D03*
X015936Y001552D03*
D22*
X015936Y001559D03*
X015936Y001573D03*
X015936Y001587D03*
X015936Y003323D03*
X015936Y003337D03*
X015936Y003344D03*
D23*
X015863Y003309D03*
X015863Y003295D03*
X015863Y003282D03*
X015863Y003275D03*
X015863Y003261D03*
X015863Y003247D03*
X015863Y003233D03*
X015863Y003219D03*
X015863Y003205D03*
X015863Y003198D03*
X015863Y003184D03*
X015863Y003170D03*
X015863Y003157D03*
X015863Y003150D03*
X015863Y003136D03*
X015717Y003136D03*
X015717Y003150D03*
X015717Y003157D03*
X015717Y003170D03*
X015717Y003184D03*
X015717Y003198D03*
X015717Y003205D03*
X015717Y003219D03*
X015717Y003233D03*
X015717Y003247D03*
X015717Y003261D03*
X015717Y003275D03*
X015717Y003282D03*
X015717Y003295D03*
X015717Y003309D03*
X015717Y003323D03*
X015717Y003337D03*
X015717Y003344D03*
X015717Y003358D03*
X015717Y003372D03*
X015717Y003386D03*
X015717Y003400D03*
X015717Y003407D03*
X015717Y003420D03*
X015717Y003434D03*
X015717Y003448D03*
X015717Y003462D03*
X015717Y003469D03*
X015717Y003483D03*
X015717Y003497D03*
X015717Y003511D03*
X015717Y003518D03*
X015717Y003532D03*
X015717Y003545D03*
X015717Y003559D03*
X015717Y003573D03*
X015717Y003580D03*
X015717Y003594D03*
X015717Y003608D03*
X015717Y003622D03*
X015717Y003636D03*
X015717Y003650D03*
X015717Y003657D03*
X015717Y003670D03*
X015717Y003684D03*
X015717Y003698D03*
X015717Y003712D03*
X015717Y003719D03*
X015717Y003733D03*
X015717Y003747D03*
X015717Y003761D03*
X015717Y003775D03*
X015717Y003782D03*
X015717Y003795D03*
X015717Y003809D03*
X015717Y003823D03*
X015717Y003837D03*
X015717Y003844D03*
X015717Y003858D03*
X015717Y003872D03*
X015717Y003886D03*
X015717Y003900D03*
X015717Y003907D03*
X015717Y003920D03*
X015717Y003934D03*
X015717Y003948D03*
X015717Y003962D03*
X015717Y003969D03*
X015717Y003983D03*
X015717Y003997D03*
X015717Y003122D03*
X015717Y003108D03*
X015717Y003094D03*
X015717Y003087D03*
X015717Y003073D03*
X015717Y003059D03*
X015717Y003045D03*
X015717Y003032D03*
X015717Y003025D03*
X015717Y003011D03*
X015717Y002997D03*
X015717Y002983D03*
X015717Y002969D03*
X015717Y002955D03*
X015717Y002948D03*
X015863Y002657D03*
X015863Y002650D03*
X015863Y002636D03*
X015863Y002622D03*
X015863Y002608D03*
X015863Y002594D03*
X015863Y002587D03*
X015863Y002573D03*
X015863Y002559D03*
X015863Y002545D03*
X015863Y002532D03*
X015863Y002525D03*
X015863Y002511D03*
X015863Y002497D03*
X015863Y002483D03*
X015863Y002469D03*
X015863Y002455D03*
X015863Y002448D03*
X015863Y002434D03*
X015863Y002420D03*
X015863Y002407D03*
X015863Y002400D03*
X015863Y002386D03*
X015863Y002372D03*
X015863Y002358D03*
X015863Y002344D03*
X015863Y002330D03*
X015863Y002323D03*
X015863Y002309D03*
X015863Y002295D03*
X015863Y002282D03*
X015863Y002275D03*
X015863Y002261D03*
X015863Y002247D03*
X015863Y002233D03*
X015863Y002219D03*
X015863Y002212D03*
X015863Y002198D03*
X015863Y002184D03*
X015863Y002170D03*
X015863Y002157D03*
X015863Y002150D03*
X015863Y002136D03*
X015863Y002122D03*
X015863Y002108D03*
X015863Y002094D03*
X015863Y002080D03*
X015863Y002073D03*
X015863Y002059D03*
X015863Y002045D03*
X015863Y002032D03*
X015863Y002025D03*
X015863Y002011D03*
X015863Y001997D03*
X015863Y001983D03*
X015863Y001969D03*
X015863Y001962D03*
X015863Y001948D03*
X015863Y001934D03*
X015863Y001920D03*
X015863Y001907D03*
X015863Y001900D03*
X015863Y001886D03*
X015863Y001872D03*
X015863Y001858D03*
X015863Y001844D03*
X015863Y001837D03*
X015863Y001823D03*
X015863Y001809D03*
X015863Y001795D03*
X015863Y001782D03*
X015863Y001775D03*
X015863Y001761D03*
X015863Y001747D03*
X015863Y001733D03*
X015863Y001719D03*
X015863Y001705D03*
X015863Y001698D03*
X015863Y001684D03*
X015863Y001670D03*
X015863Y001657D03*
X015863Y001643D03*
X015863Y001636D03*
X015863Y001622D03*
X015863Y001608D03*
X015863Y001594D03*
X015717Y002282D03*
X015717Y002295D03*
X015717Y002309D03*
X015717Y002323D03*
X015717Y002330D03*
X015717Y002344D03*
X015717Y002358D03*
X015717Y002372D03*
X015717Y002386D03*
X015717Y002400D03*
X015717Y002407D03*
X015717Y002420D03*
X015717Y002434D03*
X015717Y002448D03*
X015717Y002455D03*
X015717Y002469D03*
D24*
X016008Y002372D03*
X016008Y002358D03*
X016008Y002344D03*
X016008Y002330D03*
X016008Y002323D03*
X016008Y002309D03*
X016008Y002295D03*
X016008Y002282D03*
X016008Y002275D03*
X016008Y002261D03*
X016008Y002247D03*
X016008Y002233D03*
X016008Y002219D03*
X016008Y002212D03*
X016008Y002198D03*
X016008Y002184D03*
X016008Y002170D03*
X016008Y002157D03*
X016008Y002150D03*
X016008Y002136D03*
X016008Y002122D03*
X016008Y002108D03*
X016008Y002094D03*
X016008Y002080D03*
X016008Y002073D03*
X016008Y002059D03*
X016008Y002045D03*
X016008Y002032D03*
X016008Y002025D03*
X016008Y002011D03*
X016008Y001997D03*
X016008Y001983D03*
X016008Y001969D03*
X016008Y001962D03*
X016008Y001948D03*
X016008Y001934D03*
X016008Y001920D03*
X016008Y001907D03*
X016008Y001900D03*
X016008Y001886D03*
X016008Y001872D03*
X016008Y001858D03*
X016008Y001844D03*
X016008Y001837D03*
X016008Y001823D03*
X016008Y001809D03*
X016008Y001795D03*
X016008Y001782D03*
X016008Y001775D03*
X016008Y001761D03*
X016008Y001747D03*
X016008Y001733D03*
X016008Y001719D03*
X016008Y001705D03*
X016008Y001698D03*
X016008Y001684D03*
X016008Y001670D03*
X016008Y001657D03*
X016008Y001643D03*
X016008Y001636D03*
X016008Y001622D03*
X016008Y001608D03*
X016008Y001594D03*
X016008Y002587D03*
X016008Y002594D03*
X016008Y002608D03*
X016008Y002622D03*
X016008Y002636D03*
X016008Y002650D03*
X016008Y002657D03*
X016008Y002670D03*
X016008Y002684D03*
X016008Y002698D03*
X016008Y002712D03*
X016008Y002719D03*
X016008Y002733D03*
X016008Y002747D03*
X016008Y002761D03*
X016008Y002775D03*
X016008Y002782D03*
X016008Y002795D03*
X016008Y002809D03*
X016008Y002823D03*
X016008Y002837D03*
X016008Y002844D03*
X016008Y002858D03*
X016008Y003282D03*
X016008Y003295D03*
X016008Y003309D03*
D25*
X015863Y003302D03*
X015863Y003288D03*
X015863Y003268D03*
X015863Y003254D03*
X015863Y003240D03*
X015863Y003226D03*
X015863Y003212D03*
X015863Y003191D03*
X015863Y003177D03*
X015863Y003163D03*
X015863Y003143D03*
X015717Y003143D03*
X015717Y003129D03*
X015717Y003115D03*
X015717Y003101D03*
X015717Y003080D03*
X015717Y003066D03*
X015717Y003052D03*
X015717Y003038D03*
X015717Y003018D03*
X015717Y003004D03*
X015717Y002990D03*
X015717Y002976D03*
X015717Y002962D03*
X015717Y003163D03*
X015717Y003177D03*
X015717Y003191D03*
X015717Y003212D03*
X015717Y003226D03*
X015717Y003240D03*
X015717Y003254D03*
X015717Y003268D03*
X015717Y003288D03*
X015717Y003302D03*
X015717Y003316D03*
X015717Y003330D03*
X015717Y003351D03*
X015717Y003365D03*
X015717Y003379D03*
X015717Y003393D03*
X015717Y003413D03*
X015717Y003427D03*
X015717Y003441D03*
X015717Y003455D03*
X015717Y003476D03*
X015717Y003490D03*
X015717Y003504D03*
X015717Y003525D03*
X015717Y003538D03*
X015717Y003552D03*
X015717Y003566D03*
X015717Y003587D03*
X015717Y003601D03*
X015717Y003615D03*
X015717Y003629D03*
X015717Y003643D03*
X015717Y003663D03*
X015717Y003677D03*
X015717Y003691D03*
X015717Y003705D03*
X015717Y003726D03*
X015717Y003740D03*
X015717Y003754D03*
X015717Y003768D03*
X015717Y003788D03*
X015717Y003802D03*
X015717Y003816D03*
X015717Y003830D03*
X015717Y003851D03*
X015717Y003865D03*
X015717Y003879D03*
X015717Y003893D03*
X015717Y003913D03*
X015717Y003927D03*
X015717Y003941D03*
X015717Y003955D03*
X015717Y003976D03*
X015717Y003990D03*
X015717Y004004D03*
X015863Y002643D03*
X015863Y002629D03*
X015863Y002615D03*
X015863Y002601D03*
X015863Y002580D03*
X015863Y002566D03*
X015863Y002552D03*
X015863Y002538D03*
X015863Y002518D03*
X015863Y002504D03*
X015863Y002490D03*
X015863Y002476D03*
X015863Y002462D03*
X015863Y002441D03*
X015863Y002427D03*
X015863Y002413D03*
X015863Y002393D03*
X015863Y002379D03*
X015863Y002365D03*
X015863Y002351D03*
X015863Y002337D03*
X015863Y002316D03*
X015863Y002302D03*
X015863Y002288D03*
X015863Y002268D03*
X015863Y002254D03*
X015863Y002240D03*
X015863Y002226D03*
X015863Y002205D03*
X015863Y002191D03*
X015863Y002177D03*
X015863Y002163D03*
X015863Y002143D03*
X015863Y002129D03*
X015863Y002115D03*
X015863Y002101D03*
X015863Y002087D03*
X015863Y002066D03*
X015863Y002052D03*
X015863Y002038D03*
X015863Y002018D03*
X015863Y002004D03*
X015863Y001990D03*
X015863Y001976D03*
X015863Y001955D03*
X015863Y001941D03*
X015863Y001927D03*
X015863Y001913D03*
X015863Y001893D03*
X015863Y001879D03*
X015863Y001865D03*
X015863Y001851D03*
X015863Y001830D03*
X015863Y001816D03*
X015863Y001802D03*
X015863Y001788D03*
X015863Y001768D03*
X015863Y001754D03*
X015863Y001740D03*
X015863Y001726D03*
X015863Y001712D03*
X015863Y001691D03*
X015863Y001677D03*
X015863Y001663D03*
X015863Y001650D03*
X015863Y001629D03*
X015863Y001615D03*
X015863Y001601D03*
X015717Y002288D03*
X015717Y002302D03*
X015717Y002316D03*
X015717Y002337D03*
X015717Y002351D03*
X015717Y002365D03*
X015717Y002379D03*
X015717Y002393D03*
X015717Y002413D03*
X015717Y002427D03*
X015717Y002441D03*
X015717Y002462D03*
X015717Y002476D03*
D26*
X016008Y002379D03*
X016008Y002365D03*
X016008Y002351D03*
X016008Y002337D03*
X016008Y002316D03*
X016008Y002302D03*
X016008Y002288D03*
X016008Y002268D03*
X016008Y002254D03*
X016008Y002240D03*
X016008Y002226D03*
X016008Y002205D03*
X016008Y002191D03*
X016008Y002177D03*
X016008Y002163D03*
X016008Y002143D03*
X016008Y002129D03*
X016008Y002115D03*
X016008Y002101D03*
X016008Y002087D03*
X016008Y002066D03*
X016008Y002052D03*
X016008Y002038D03*
X016008Y002018D03*
X016008Y002004D03*
X016008Y001990D03*
X016008Y001976D03*
X016008Y001955D03*
X016008Y001941D03*
X016008Y001927D03*
X016008Y001913D03*
X016008Y001893D03*
X016008Y001879D03*
X016008Y001865D03*
X016008Y001851D03*
X016008Y001830D03*
X016008Y001816D03*
X016008Y001802D03*
X016008Y001788D03*
X016008Y001768D03*
X016008Y001754D03*
X016008Y001740D03*
X016008Y001726D03*
X016008Y001712D03*
X016008Y001691D03*
X016008Y001677D03*
X016008Y001663D03*
X016008Y001650D03*
X016008Y001629D03*
X016008Y001615D03*
X016008Y001601D03*
X016008Y002601D03*
X016008Y002615D03*
X016008Y002629D03*
X016008Y002643D03*
X016008Y002663D03*
X016008Y002677D03*
X016008Y002691D03*
X016008Y002705D03*
X016008Y002726D03*
X016008Y002740D03*
X016008Y002754D03*
X016008Y002768D03*
X016008Y002788D03*
X016008Y002802D03*
X016008Y002816D03*
X016008Y002830D03*
X016008Y002851D03*
X016008Y003288D03*
X016008Y003302D03*
D27*
X015644Y004018D03*
X015644Y004038D03*
X015644Y002268D03*
X015644Y002254D03*
X015644Y002240D03*
D28*
X015644Y002247D03*
X015644Y002261D03*
X015644Y002275D03*
X015644Y004011D03*
X015644Y004025D03*
X015644Y004032D03*
X015644Y004045D03*
D29*
X014887Y002879D03*
X014887Y002865D03*
X014887Y002851D03*
X014887Y002830D03*
X014887Y002788D03*
X014887Y002768D03*
X014887Y002754D03*
X014887Y002740D03*
X015310Y002268D03*
X016678Y002677D03*
X016678Y002691D03*
X016685Y002705D03*
X016685Y002726D03*
X016685Y002740D03*
X016685Y002851D03*
X016685Y002865D03*
X016685Y002879D03*
X016678Y002900D03*
D30*
X016310Y002268D03*
D31*
X015307Y002275D03*
D32*
X014984Y002525D03*
X014977Y002532D03*
X014970Y003073D03*
X015512Y003094D03*
X016310Y002275D03*
X016595Y003073D03*
D33*
X016109Y002483D03*
X015311Y002282D03*
X015047Y002483D03*
D34*
X015571Y002323D03*
X015571Y002309D03*
X015571Y002295D03*
X015571Y002282D03*
X015571Y002761D03*
X015571Y002775D03*
X015571Y002782D03*
X015571Y002795D03*
X015571Y002809D03*
X015571Y002823D03*
X015571Y002837D03*
X015571Y002844D03*
X015571Y002858D03*
X015571Y002872D03*
X015571Y002886D03*
X015571Y002893D03*
X015571Y002907D03*
X015571Y002920D03*
X015571Y002934D03*
X015571Y002948D03*
X015571Y002955D03*
X015571Y002969D03*
X015571Y002983D03*
X015571Y002997D03*
X015571Y003011D03*
X015571Y003219D03*
X015571Y003233D03*
X015571Y003247D03*
X015571Y003261D03*
X015571Y003275D03*
X015571Y003282D03*
X015571Y003295D03*
X015571Y003309D03*
X015571Y003323D03*
X015571Y003337D03*
X015571Y003344D03*
X015571Y003358D03*
X015571Y003372D03*
X015571Y003386D03*
X015571Y003400D03*
X015571Y003407D03*
X015571Y003420D03*
X015571Y003434D03*
X015571Y003448D03*
X015571Y003462D03*
X015571Y003469D03*
X015571Y003483D03*
X015571Y003497D03*
X015571Y003511D03*
X015571Y003518D03*
X015571Y003532D03*
X015571Y003545D03*
X015571Y003559D03*
X015571Y003573D03*
X015571Y003580D03*
X015571Y003594D03*
X015571Y003608D03*
X015571Y003622D03*
X015571Y003636D03*
X015571Y003650D03*
X015571Y003657D03*
X015571Y003670D03*
X015571Y003684D03*
X015571Y003698D03*
X015571Y003712D03*
X015571Y003719D03*
X015571Y003733D03*
X015571Y003747D03*
X015571Y003761D03*
X015571Y003775D03*
X015571Y003782D03*
X015571Y003795D03*
X015571Y003809D03*
X015571Y003823D03*
X015571Y003837D03*
X015571Y003844D03*
X015571Y003858D03*
X015571Y003872D03*
X015571Y003886D03*
X015571Y003900D03*
X015571Y003907D03*
X015571Y003920D03*
X015571Y003934D03*
X015571Y003948D03*
X015571Y003962D03*
X015571Y003969D03*
X015571Y003983D03*
X015571Y003997D03*
D35*
X015262Y003323D03*
X015012Y003108D03*
X015019Y002497D03*
X016311Y002282D03*
X016568Y002497D03*
X016554Y003108D03*
D36*
X015311Y002288D03*
D37*
X015571Y002288D03*
X015571Y002302D03*
X015571Y002316D03*
X015571Y002754D03*
X015571Y002768D03*
X015571Y002788D03*
X015571Y002802D03*
X015571Y002816D03*
X015571Y002830D03*
X015571Y002851D03*
X015571Y002865D03*
X015571Y002879D03*
X015571Y002900D03*
X015571Y002913D03*
X015571Y002927D03*
X015571Y002941D03*
X015571Y002962D03*
X015571Y002976D03*
X015571Y002990D03*
X015571Y003004D03*
X015571Y003018D03*
X015571Y003226D03*
X015571Y003240D03*
X015571Y003254D03*
X015571Y003268D03*
X015571Y003288D03*
X015571Y003302D03*
X015571Y003316D03*
X015571Y003330D03*
X015571Y003351D03*
X015571Y003365D03*
X015571Y003379D03*
X015571Y003393D03*
X015571Y003413D03*
X015571Y003427D03*
X015571Y003441D03*
X015571Y003455D03*
X015571Y003476D03*
X015571Y003490D03*
X015571Y003504D03*
X015571Y003525D03*
X015571Y003538D03*
X015571Y003552D03*
X015571Y003566D03*
X015571Y003587D03*
X015571Y003601D03*
X015571Y003615D03*
X015571Y003629D03*
X015571Y003643D03*
X015571Y003663D03*
X015571Y003677D03*
X015571Y003691D03*
X015571Y003705D03*
X015571Y003726D03*
X015571Y003740D03*
X015571Y003754D03*
X015571Y003768D03*
X015571Y003788D03*
X015571Y003802D03*
X015571Y003816D03*
X015571Y003830D03*
X015571Y003851D03*
X015571Y003865D03*
X015571Y003879D03*
X015571Y003893D03*
X015571Y003913D03*
X015571Y003927D03*
X015571Y003941D03*
X015571Y003955D03*
X015571Y003976D03*
X015571Y003990D03*
X015571Y004004D03*
D38*
X015262Y003316D03*
X016311Y002288D03*
D39*
X015609Y002573D03*
X015595Y002559D03*
X015310Y002295D03*
X015984Y003045D03*
D40*
X016311Y002295D03*
D41*
X015310Y002302D03*
D42*
X015637Y002601D03*
X015936Y003004D03*
X016311Y002302D03*
D43*
X016307Y002323D03*
X015314Y002309D03*
D44*
X015720Y002733D03*
X015859Y002872D03*
X015866Y002934D03*
X015998Y003059D03*
X016310Y002309D03*
D45*
X015314Y002316D03*
D46*
X016310Y002316D03*
D47*
X015314Y002323D03*
D48*
X015335Y002330D03*
X015265Y003233D03*
D49*
X016310Y002330D03*
D50*
X015332Y002337D03*
D51*
X016307Y002337D03*
X015265Y003268D03*
D52*
X015325Y002344D03*
D53*
X016311Y002344D03*
D54*
X015321Y002351D03*
D55*
X016307Y002351D03*
D56*
X015318Y002358D03*
D57*
X016307Y002358D03*
X016085Y003122D03*
X015265Y003247D03*
D58*
X016262Y003240D03*
X015311Y002365D03*
D59*
X016307Y002365D03*
X015265Y003240D03*
D60*
X015310Y002372D03*
D61*
X016307Y002372D03*
D62*
X015310Y002379D03*
X016262Y003226D03*
D63*
X016307Y002379D03*
D64*
X015310Y002386D03*
D65*
X016283Y002386D03*
D66*
X016296Y002413D03*
X016262Y003212D03*
X015310Y002393D03*
D67*
X016286Y002393D03*
D68*
X015310Y002400D03*
X015276Y003184D03*
D69*
X016290Y002400D03*
D70*
X016310Y002448D03*
X016262Y003198D03*
X015310Y002407D03*
D71*
X016293Y002407D03*
D72*
X015310Y002413D03*
X015262Y003143D03*
D73*
X015310Y002420D03*
D74*
X016300Y002420D03*
D75*
X015311Y002427D03*
D76*
X016303Y002427D03*
D77*
X015307Y002434D03*
D78*
X016307Y002434D03*
D79*
X016265Y003163D03*
X015307Y002441D03*
D80*
X016307Y002441D03*
D81*
X016262Y003157D03*
X015311Y002448D03*
D82*
X015311Y002455D03*
D83*
X015266Y003150D03*
X015266Y003157D03*
X016314Y002455D03*
D84*
X015311Y002462D03*
D85*
X016314Y002462D03*
X016266Y003191D03*
D86*
X016265Y003136D03*
X015307Y002469D03*
D87*
X016317Y002469D03*
D88*
X015311Y002476D03*
D89*
X016133Y002476D03*
X016508Y002476D03*
D90*
X015498Y002483D03*
D91*
X016536Y002483D03*
D92*
X015029Y002490D03*
D93*
X015515Y002490D03*
D94*
X016092Y002490D03*
D95*
X016554Y002490D03*
D96*
X016054Y003108D03*
X015526Y002497D03*
D97*
X016081Y002497D03*
D98*
X016564Y003101D03*
X015001Y003101D03*
X015008Y002504D03*
D99*
X015536Y002504D03*
D100*
X016071Y002504D03*
D101*
X016574Y002504D03*
D102*
X016585Y002511D03*
X016571Y003094D03*
X014995Y003094D03*
X015002Y002511D03*
D103*
X015543Y002511D03*
D104*
X016064Y002511D03*
X016606Y002532D03*
X016606Y003059D03*
X014967Y002545D03*
D105*
X014991Y002518D03*
D106*
X015550Y002518D03*
D107*
X016057Y002518D03*
X014960Y002552D03*
D108*
X016592Y002518D03*
X016592Y003080D03*
D109*
X015557Y002525D03*
D110*
X016050Y002525D03*
X016634Y002573D03*
X016641Y003011D03*
X014939Y003032D03*
X014932Y002594D03*
X014939Y002587D03*
X014946Y002573D03*
D111*
X016599Y002525D03*
D112*
X015724Y002747D03*
X015564Y002532D03*
D113*
X016043Y002532D03*
X016648Y002594D03*
X016648Y002997D03*
X014918Y002997D03*
X014918Y002622D03*
D114*
X014974Y002538D03*
D115*
X015567Y002538D03*
X015713Y002677D03*
X015720Y002740D03*
X015859Y002879D03*
X016005Y003066D03*
D116*
X016040Y002538D03*
X016658Y002615D03*
X016665Y002629D03*
X014915Y002976D03*
X014908Y002962D03*
D117*
X014963Y003066D03*
X015262Y003330D03*
X016609Y002538D03*
D118*
X015863Y002886D03*
X015863Y002893D03*
X015863Y002907D03*
X015863Y002920D03*
X015717Y002719D03*
X015717Y002712D03*
X015717Y002698D03*
X015717Y002684D03*
X015578Y002545D03*
D119*
X016033Y002545D03*
X014894Y002712D03*
X014894Y002907D03*
X014894Y002920D03*
D120*
X014956Y003059D03*
X015519Y003087D03*
X016616Y002545D03*
D121*
X015988Y003052D03*
X015863Y002927D03*
X015863Y002913D03*
X015863Y002900D03*
X015717Y002726D03*
X015717Y002705D03*
X015717Y002691D03*
X015585Y002552D03*
D122*
X016029Y002552D03*
D123*
X016623Y002552D03*
X016623Y003038D03*
X014942Y003038D03*
X014942Y002580D03*
D124*
X014953Y002559D03*
D125*
X016022Y002559D03*
D126*
X016630Y002559D03*
X016630Y003025D03*
X016630Y003032D03*
X014949Y003045D03*
D127*
X014949Y002566D03*
X015526Y003080D03*
D128*
X015602Y002566D03*
D129*
X016019Y002566D03*
D130*
X016634Y002566D03*
X016641Y002580D03*
X016634Y003018D03*
D131*
X016015Y002573D03*
X015564Y003025D03*
X015265Y003337D03*
D132*
X015616Y002580D03*
D133*
X016012Y002580D03*
D134*
X015623Y002587D03*
D135*
X014928Y002608D03*
X014928Y003011D03*
X014935Y003025D03*
X016644Y002587D03*
D136*
X016262Y003309D03*
X015644Y002608D03*
X015630Y002594D03*
D137*
X014928Y002601D03*
X014928Y003018D03*
X016644Y003004D03*
X016651Y002990D03*
X016651Y002601D03*
D138*
X016654Y002608D03*
X016661Y002622D03*
X016654Y002983D03*
D139*
X014925Y003004D03*
X014918Y002990D03*
X014918Y002629D03*
X014925Y002615D03*
D140*
X015647Y002615D03*
X015661Y002629D03*
X015668Y002643D03*
X015751Y002754D03*
X015779Y002788D03*
X015786Y002802D03*
X015800Y002816D03*
X015807Y002830D03*
X015904Y002962D03*
X015925Y002990D03*
X015265Y003302D03*
D141*
X015814Y002837D03*
X015793Y002809D03*
X015772Y002782D03*
X015765Y002775D03*
X015758Y002761D03*
X015682Y002657D03*
X015675Y002650D03*
X015668Y002636D03*
X015654Y002622D03*
X015897Y002948D03*
X015897Y002955D03*
X015911Y002969D03*
X015918Y002983D03*
X015932Y002997D03*
D142*
X016658Y002969D03*
X016665Y002955D03*
X016665Y002948D03*
X016665Y002636D03*
X014915Y002636D03*
X014908Y002650D03*
X014908Y002657D03*
X014908Y002969D03*
X014915Y002983D03*
D143*
X014911Y002643D03*
X015536Y003066D03*
X016654Y002976D03*
X016661Y002962D03*
D144*
X016668Y002941D03*
X016668Y002643D03*
X014904Y002663D03*
X014897Y002677D03*
X014897Y002691D03*
X014897Y002927D03*
X014897Y002941D03*
D145*
X014897Y002934D03*
X014904Y002948D03*
X014904Y002955D03*
X014897Y002698D03*
X014897Y002684D03*
X014904Y002670D03*
X015543Y003059D03*
X016668Y002650D03*
D146*
X016675Y002657D03*
X016675Y002670D03*
X016675Y002920D03*
X014891Y002719D03*
D147*
X015710Y002663D03*
X015856Y002865D03*
X015870Y002941D03*
D148*
X016675Y002927D03*
X016675Y002913D03*
X016675Y002663D03*
X014891Y002726D03*
D149*
X015710Y002670D03*
X016016Y003073D03*
D150*
X016678Y002907D03*
X016685Y002872D03*
X016685Y002858D03*
X016685Y002844D03*
X016685Y002837D03*
X016685Y002747D03*
X016685Y002733D03*
X016685Y002719D03*
X016685Y002712D03*
X016678Y002684D03*
X014887Y002733D03*
X014887Y002747D03*
X014887Y002761D03*
X014887Y002775D03*
X014887Y002782D03*
X014887Y002837D03*
X014887Y002844D03*
X014887Y002858D03*
X014887Y002872D03*
X014887Y002886D03*
X014887Y002893D03*
D151*
X016682Y002893D03*
X016682Y002886D03*
X016682Y002698D03*
D152*
X015547Y003052D03*
X014894Y002913D03*
X014894Y002900D03*
X014894Y002705D03*
D153*
X014884Y002802D03*
X014884Y002816D03*
X016689Y002816D03*
X016689Y002802D03*
X016689Y002788D03*
X016689Y002768D03*
X016689Y002754D03*
X016689Y002830D03*
D154*
X016689Y002823D03*
X016689Y002809D03*
X016689Y002795D03*
X016689Y002782D03*
X016689Y002775D03*
X016689Y002761D03*
X014884Y002795D03*
X014884Y002809D03*
X014884Y002823D03*
D155*
X015762Y002768D03*
X015915Y002976D03*
D156*
X015818Y002844D03*
X015783Y002795D03*
D157*
X015804Y002823D03*
D158*
X015821Y002851D03*
X015078Y003129D03*
D159*
X015828Y002858D03*
D160*
X016671Y002934D03*
D161*
X015967Y003032D03*
X015960Y003025D03*
X015946Y003011D03*
D162*
X015953Y003018D03*
D163*
X015561Y003032D03*
X016262Y003337D03*
D164*
X015557Y003038D03*
D165*
X015974Y003038D03*
D166*
X015554Y003045D03*
D167*
X016620Y003045D03*
D168*
X016613Y003052D03*
X014953Y003052D03*
D169*
X014977Y003080D03*
X016602Y003066D03*
D170*
X015533Y003073D03*
D171*
X015266Y003288D03*
X016023Y003080D03*
D172*
X016581Y003087D03*
X014984Y003087D03*
D173*
X016030Y003087D03*
D174*
X016036Y003094D03*
D175*
X015505Y003101D03*
D176*
X016043Y003101D03*
D177*
X015495Y003108D03*
D178*
X015022Y003115D03*
X016543Y003115D03*
D179*
X015481Y003115D03*
D180*
X016064Y003115D03*
D181*
X016522Y003122D03*
X015467Y003122D03*
X015043Y003122D03*
D182*
X015432Y003129D03*
D183*
X016241Y003129D03*
D184*
X015259Y003136D03*
D185*
X016265Y003143D03*
D186*
X016265Y003150D03*
D187*
X015269Y003163D03*
D188*
X015273Y003170D03*
D189*
X016265Y003170D03*
D190*
X015276Y003177D03*
D191*
X016265Y003177D03*
D192*
X016265Y003184D03*
D193*
X015280Y003191D03*
D194*
X015283Y003198D03*
D195*
X015286Y003205D03*
D196*
X016262Y003205D03*
D197*
X015290Y003212D03*
D198*
X015269Y003219D03*
D199*
X016262Y003219D03*
D200*
X016255Y003254D03*
X015269Y003226D03*
D201*
X016262Y003233D03*
D202*
X016258Y003247D03*
D203*
X015269Y003254D03*
D204*
X015265Y003261D03*
D205*
X016251Y003261D03*
D206*
X016244Y003268D03*
D207*
X015266Y003275D03*
D208*
X016241Y003275D03*
D209*
X016262Y003295D03*
X015262Y003282D03*
D210*
X016262Y003282D03*
D211*
X016262Y003288D03*
D212*
X015265Y003295D03*
D213*
X016262Y003302D03*
D214*
X015262Y003309D03*
D215*
X016265Y003316D03*
D216*
X016262Y003323D03*
D217*
X016265Y003330D03*
D218*
X016297Y003612D02*
X016297Y003759D01*
X016297Y003686D02*
X016371Y003759D01*
X016407Y003759D01*
X016481Y003722D02*
X016481Y003649D01*
X016518Y003612D01*
X016628Y003612D01*
X016702Y003649D02*
X016739Y003612D01*
X016812Y003612D01*
X016849Y003686D02*
X016702Y003686D01*
X016702Y003722D02*
X016739Y003759D01*
X016812Y003759D01*
X016849Y003722D01*
X016849Y003686D01*
X016923Y003759D02*
X017033Y003759D01*
X017070Y003722D01*
X017070Y003649D01*
X017033Y003612D01*
X016923Y003612D01*
X016923Y003539D02*
X016923Y003759D01*
X017144Y003759D02*
X017218Y003759D01*
X017181Y003796D02*
X017181Y003649D01*
X017218Y003612D01*
X017292Y003612D02*
X017365Y003612D01*
X017328Y003612D02*
X017328Y003759D01*
X017292Y003759D01*
X017328Y003833D02*
X017328Y003869D01*
X017439Y003722D02*
X017439Y003649D01*
X017476Y003612D01*
X017549Y003612D01*
X017586Y003649D01*
X017586Y003722D01*
X017549Y003759D01*
X017476Y003759D01*
X017439Y003722D01*
X017660Y003759D02*
X017660Y003612D01*
X017807Y003612D02*
X017807Y003722D01*
X017770Y003759D01*
X017660Y003759D01*
X016702Y003722D02*
X016702Y003649D01*
X016628Y003759D02*
X016518Y003759D01*
X016481Y003722D01*
X016223Y003722D02*
X016223Y003686D01*
X016076Y003686D01*
X016076Y003722D02*
X016113Y003759D01*
X016186Y003759D01*
X016223Y003722D01*
X016186Y003612D02*
X016113Y003612D01*
X016076Y003649D01*
X016076Y003722D01*
X016002Y003722D02*
X016002Y003649D01*
X015965Y003612D01*
X015855Y003612D01*
X015855Y003539D02*
X015855Y003759D01*
X015965Y003759D01*
X016002Y003722D01*
X015424Y002079D02*
X015424Y002043D01*
X015424Y001969D02*
X015424Y001822D01*
X015460Y001822D02*
X015387Y001822D01*
X015313Y001822D02*
X015313Y001932D01*
X015276Y001969D01*
X015239Y001932D01*
X015203Y001969D01*
X015166Y001969D01*
X015166Y001822D01*
X015239Y001822D02*
X015239Y001932D01*
X015092Y001932D02*
X015092Y001822D01*
X014982Y001822D01*
X014945Y001859D01*
X014982Y001896D01*
X015092Y001896D01*
X015092Y001932D02*
X015055Y001969D01*
X014982Y001969D01*
X014871Y001932D02*
X014871Y001822D01*
X014871Y001932D02*
X014834Y001969D01*
X014724Y001969D01*
X014724Y001822D01*
X014650Y001822D02*
X014540Y001822D01*
X014503Y001859D01*
X014503Y001969D01*
X014429Y001969D02*
X014319Y001969D01*
X014282Y001932D01*
X014282Y001859D01*
X014319Y001822D01*
X014429Y001822D01*
X014429Y002043D01*
X014650Y001969D02*
X014650Y001786D01*
X014613Y001749D01*
X014576Y001749D01*
X015387Y001969D02*
X015424Y001969D01*
X015534Y001932D02*
X015534Y001859D01*
X015571Y001822D01*
X015681Y001822D01*
X015681Y001969D02*
X015571Y001969D01*
X015534Y001932D01*
D219*
X002615Y001159D02*
X002424Y001178D01*
X002424Y001322D01*
X002615Y001341D01*
X002635Y001405D01*
X002666Y001465D01*
X002545Y001614D01*
X002647Y001715D01*
X002795Y001594D01*
X002855Y001625D01*
X002919Y001646D01*
X002938Y001836D01*
X003082Y001836D01*
X003102Y001646D01*
X003166Y001625D01*
X003226Y001594D01*
X003374Y001715D01*
X003476Y001614D01*
X003355Y001465D01*
X003385Y001405D01*
X003406Y001341D01*
X003596Y001322D01*
X003596Y001178D01*
X003406Y001159D01*
X003385Y001095D01*
X003355Y001035D01*
X003476Y000886D01*
X003374Y000785D01*
X003226Y000906D01*
X003166Y000875D01*
X003081Y001079D01*
X003119Y001101D01*
X003152Y001131D01*
X003176Y001168D01*
X003190Y001210D01*
X003195Y001254D01*
X003189Y001298D01*
X003172Y001339D01*
X003146Y001375D01*
X003113Y001403D01*
X003073Y001423D01*
X003030Y001433D01*
X002986Y001433D01*
X002943Y001422D01*
X002904Y001401D01*
X002634Y001401D01*
X002615Y001344D02*
X002852Y001344D01*
X002847Y001335D02*
X002872Y001372D01*
X002904Y001401D01*
X002847Y001335D02*
X002831Y001294D01*
X002826Y001250D01*
X002831Y001207D01*
X002846Y001166D01*
X002870Y001130D01*
X002902Y001101D01*
X002940Y001079D01*
X002855Y000875D01*
X002795Y000906D01*
X002647Y000785D01*
X002545Y000886D01*
X002666Y001035D01*
X002635Y001095D01*
X002615Y001159D01*
X002629Y001113D02*
X002888Y001113D01*
X002930Y001056D02*
X002655Y001056D01*
X002636Y000998D02*
X002906Y000998D01*
X002882Y000941D02*
X002589Y000941D01*
X002548Y000883D02*
X002768Y000883D01*
X002839Y000883D02*
X002858Y000883D01*
X002697Y000826D02*
X002606Y000826D01*
X002494Y001171D02*
X002844Y001171D01*
X002828Y001228D02*
X002424Y001228D01*
X002424Y001286D02*
X002830Y001286D01*
X002663Y001459D02*
X003358Y001459D01*
X003387Y001401D02*
X003116Y001401D01*
X003169Y001344D02*
X003405Y001344D01*
X003396Y001516D02*
X002624Y001516D01*
X002577Y001574D02*
X003443Y001574D01*
X003458Y001631D02*
X003271Y001631D01*
X003341Y001689D02*
X003400Y001689D01*
X003146Y001631D02*
X002874Y001631D01*
X002923Y001689D02*
X003097Y001689D01*
X003091Y001746D02*
X002929Y001746D01*
X002935Y001804D02*
X003086Y001804D01*
X002750Y001631D02*
X002563Y001631D01*
X002620Y001689D02*
X002679Y001689D01*
X003190Y001286D02*
X003596Y001286D01*
X003596Y001228D02*
X003192Y001228D01*
X003177Y001171D02*
X003526Y001171D01*
X003391Y001113D02*
X003132Y001113D01*
X003091Y001056D02*
X003365Y001056D01*
X003385Y000998D02*
X003115Y000998D01*
X003138Y000941D02*
X003431Y000941D01*
X003472Y000883D02*
X003253Y000883D01*
X003182Y000883D02*
X003162Y000883D01*
X003324Y000826D02*
X003415Y000826D01*
M02*
