G75*
%MOIN*%
%OFA0B0*%
%FSLAX24Y24*%
%IPPOS*%
%LPD*%
%AMOC8*
5,1,8,0,0,1.08239X$1,22.5*
%
%ADD10C,0.0000*%
D10*
X001660Y001325D02*
X001660Y005825D01*
X000160Y005825D01*
X000160Y026325D01*
X026660Y026325D01*
X026660Y001325D01*
X001660Y001325D01*
X007020Y002325D02*
X007022Y002375D01*
X007028Y002425D01*
X007038Y002474D01*
X007051Y002523D01*
X007069Y002570D01*
X007090Y002616D01*
X007114Y002659D01*
X007142Y002701D01*
X007173Y002741D01*
X007207Y002778D01*
X007244Y002812D01*
X007284Y002843D01*
X007326Y002871D01*
X007369Y002895D01*
X007415Y002916D01*
X007462Y002934D01*
X007511Y002947D01*
X007560Y002957D01*
X007610Y002963D01*
X007660Y002965D01*
X007710Y002963D01*
X007760Y002957D01*
X007809Y002947D01*
X007858Y002934D01*
X007905Y002916D01*
X007951Y002895D01*
X007994Y002871D01*
X008036Y002843D01*
X008076Y002812D01*
X008113Y002778D01*
X008147Y002741D01*
X008178Y002701D01*
X008206Y002659D01*
X008230Y002616D01*
X008251Y002570D01*
X008269Y002523D01*
X008282Y002474D01*
X008292Y002425D01*
X008298Y002375D01*
X008300Y002325D01*
X008298Y002275D01*
X008292Y002225D01*
X008282Y002176D01*
X008269Y002127D01*
X008251Y002080D01*
X008230Y002034D01*
X008206Y001991D01*
X008178Y001949D01*
X008147Y001909D01*
X008113Y001872D01*
X008076Y001838D01*
X008036Y001807D01*
X007994Y001779D01*
X007951Y001755D01*
X007905Y001734D01*
X007858Y001716D01*
X007809Y001703D01*
X007760Y001693D01*
X007710Y001687D01*
X007660Y001685D01*
X007610Y001687D01*
X007560Y001693D01*
X007511Y001703D01*
X007462Y001716D01*
X007415Y001734D01*
X007369Y001755D01*
X007326Y001779D01*
X007284Y001807D01*
X007244Y001838D01*
X007207Y001872D01*
X007173Y001909D01*
X007142Y001949D01*
X007114Y001991D01*
X007090Y002034D01*
X007069Y002080D01*
X007051Y002127D01*
X007038Y002176D01*
X007028Y002225D01*
X007022Y002275D01*
X007020Y002325D01*
X018221Y002325D02*
X018223Y002375D01*
X018229Y002425D01*
X018239Y002474D01*
X018252Y002523D01*
X018270Y002570D01*
X018291Y002616D01*
X018315Y002659D01*
X018343Y002701D01*
X018374Y002741D01*
X018408Y002778D01*
X018445Y002812D01*
X018485Y002843D01*
X018527Y002871D01*
X018570Y002895D01*
X018616Y002916D01*
X018663Y002934D01*
X018712Y002947D01*
X018761Y002957D01*
X018811Y002963D01*
X018861Y002965D01*
X018911Y002963D01*
X018961Y002957D01*
X019010Y002947D01*
X019059Y002934D01*
X019106Y002916D01*
X019152Y002895D01*
X019195Y002871D01*
X019237Y002843D01*
X019277Y002812D01*
X019314Y002778D01*
X019348Y002741D01*
X019379Y002701D01*
X019407Y002659D01*
X019431Y002616D01*
X019452Y002570D01*
X019470Y002523D01*
X019483Y002474D01*
X019493Y002425D01*
X019499Y002375D01*
X019501Y002325D01*
X019499Y002275D01*
X019493Y002225D01*
X019483Y002176D01*
X019470Y002127D01*
X019452Y002080D01*
X019431Y002034D01*
X019407Y001991D01*
X019379Y001949D01*
X019348Y001909D01*
X019314Y001872D01*
X019277Y001838D01*
X019237Y001807D01*
X019195Y001779D01*
X019152Y001755D01*
X019106Y001734D01*
X019059Y001716D01*
X019010Y001703D01*
X018961Y001693D01*
X018911Y001687D01*
X018861Y001685D01*
X018811Y001687D01*
X018761Y001693D01*
X018712Y001703D01*
X018663Y001716D01*
X018616Y001734D01*
X018570Y001755D01*
X018527Y001779D01*
X018485Y001807D01*
X018445Y001838D01*
X018408Y001872D01*
X018374Y001909D01*
X018343Y001949D01*
X018315Y001991D01*
X018291Y002034D01*
X018270Y002080D01*
X018252Y002127D01*
X018239Y002176D01*
X018229Y002225D01*
X018223Y002275D01*
X018221Y002325D01*
X019530Y007825D02*
X019532Y007875D01*
X019538Y007925D01*
X019548Y007974D01*
X019562Y008022D01*
X019579Y008069D01*
X019600Y008114D01*
X019625Y008158D01*
X019653Y008199D01*
X019685Y008238D01*
X019719Y008275D01*
X019756Y008309D01*
X019796Y008339D01*
X019838Y008366D01*
X019882Y008390D01*
X019928Y008411D01*
X019975Y008427D01*
X020023Y008440D01*
X020073Y008449D01*
X020122Y008454D01*
X020173Y008455D01*
X020223Y008452D01*
X020272Y008445D01*
X020321Y008434D01*
X020369Y008419D01*
X020415Y008401D01*
X020460Y008379D01*
X020503Y008353D01*
X020544Y008324D01*
X020583Y008292D01*
X020619Y008257D01*
X020651Y008219D01*
X020681Y008179D01*
X020708Y008136D01*
X020731Y008092D01*
X020750Y008046D01*
X020766Y007998D01*
X020778Y007949D01*
X020786Y007900D01*
X020790Y007850D01*
X020790Y007800D01*
X020786Y007750D01*
X020778Y007701D01*
X020766Y007652D01*
X020750Y007604D01*
X020731Y007558D01*
X020708Y007514D01*
X020681Y007471D01*
X020651Y007431D01*
X020619Y007393D01*
X020583Y007358D01*
X020544Y007326D01*
X020503Y007297D01*
X020460Y007271D01*
X020415Y007249D01*
X020369Y007231D01*
X020321Y007216D01*
X020272Y007205D01*
X020223Y007198D01*
X020173Y007195D01*
X020122Y007196D01*
X020073Y007201D01*
X020023Y007210D01*
X019975Y007223D01*
X019928Y007239D01*
X019882Y007260D01*
X019838Y007284D01*
X019796Y007311D01*
X019756Y007341D01*
X019719Y007375D01*
X019685Y007412D01*
X019653Y007451D01*
X019625Y007492D01*
X019600Y007536D01*
X019579Y007581D01*
X019562Y007628D01*
X019548Y007676D01*
X019538Y007725D01*
X019532Y007775D01*
X019530Y007825D01*
X024979Y006075D02*
X024981Y006105D01*
X024987Y006135D01*
X024996Y006164D01*
X025009Y006191D01*
X025026Y006216D01*
X025045Y006239D01*
X025068Y006260D01*
X025093Y006277D01*
X025119Y006291D01*
X025148Y006301D01*
X025177Y006308D01*
X025207Y006311D01*
X025238Y006310D01*
X025268Y006305D01*
X025297Y006296D01*
X025324Y006284D01*
X025350Y006269D01*
X025374Y006250D01*
X025395Y006228D01*
X025413Y006204D01*
X025428Y006177D01*
X025439Y006149D01*
X025447Y006120D01*
X025451Y006090D01*
X025451Y006060D01*
X025447Y006030D01*
X025439Y006001D01*
X025428Y005973D01*
X025413Y005946D01*
X025395Y005922D01*
X025374Y005900D01*
X025350Y005881D01*
X025324Y005866D01*
X025297Y005854D01*
X025268Y005845D01*
X025238Y005840D01*
X025207Y005839D01*
X025177Y005842D01*
X025148Y005849D01*
X025119Y005859D01*
X025093Y005873D01*
X025068Y005890D01*
X025045Y005911D01*
X025026Y005934D01*
X025009Y005959D01*
X024996Y005986D01*
X024987Y006015D01*
X024981Y006045D01*
X024979Y006075D01*
X024979Y002575D02*
X024981Y002605D01*
X024987Y002635D01*
X024996Y002664D01*
X025009Y002691D01*
X025026Y002716D01*
X025045Y002739D01*
X025068Y002760D01*
X025093Y002777D01*
X025119Y002791D01*
X025148Y002801D01*
X025177Y002808D01*
X025207Y002811D01*
X025238Y002810D01*
X025268Y002805D01*
X025297Y002796D01*
X025324Y002784D01*
X025350Y002769D01*
X025374Y002750D01*
X025395Y002728D01*
X025413Y002704D01*
X025428Y002677D01*
X025439Y002649D01*
X025447Y002620D01*
X025451Y002590D01*
X025451Y002560D01*
X025447Y002530D01*
X025439Y002501D01*
X025428Y002473D01*
X025413Y002446D01*
X025395Y002422D01*
X025374Y002400D01*
X025350Y002381D01*
X025324Y002366D01*
X025297Y002354D01*
X025268Y002345D01*
X025238Y002340D01*
X025207Y002339D01*
X025177Y002342D01*
X025148Y002349D01*
X025119Y002359D01*
X025093Y002373D01*
X025068Y002390D01*
X025045Y002411D01*
X025026Y002434D01*
X025009Y002459D01*
X024996Y002486D01*
X024987Y002515D01*
X024981Y002545D01*
X024979Y002575D01*
X024979Y009575D02*
X024981Y009605D01*
X024987Y009635D01*
X024996Y009664D01*
X025009Y009691D01*
X025026Y009716D01*
X025045Y009739D01*
X025068Y009760D01*
X025093Y009777D01*
X025119Y009791D01*
X025148Y009801D01*
X025177Y009808D01*
X025207Y009811D01*
X025238Y009810D01*
X025268Y009805D01*
X025297Y009796D01*
X025324Y009784D01*
X025350Y009769D01*
X025374Y009750D01*
X025395Y009728D01*
X025413Y009704D01*
X025428Y009677D01*
X025439Y009649D01*
X025447Y009620D01*
X025451Y009590D01*
X025451Y009560D01*
X025447Y009530D01*
X025439Y009501D01*
X025428Y009473D01*
X025413Y009446D01*
X025395Y009422D01*
X025374Y009400D01*
X025350Y009381D01*
X025324Y009366D01*
X025297Y009354D01*
X025268Y009345D01*
X025238Y009340D01*
X025207Y009339D01*
X025177Y009342D01*
X025148Y009349D01*
X025119Y009359D01*
X025093Y009373D01*
X025068Y009390D01*
X025045Y009411D01*
X025026Y009434D01*
X025009Y009459D01*
X024996Y009486D01*
X024987Y009515D01*
X024981Y009545D01*
X024979Y009575D01*
X002530Y024825D02*
X002532Y024875D01*
X002538Y024925D01*
X002548Y024974D01*
X002562Y025022D01*
X002579Y025069D01*
X002600Y025114D01*
X002625Y025158D01*
X002653Y025199D01*
X002685Y025238D01*
X002719Y025275D01*
X002756Y025309D01*
X002796Y025339D01*
X002838Y025366D01*
X002882Y025390D01*
X002928Y025411D01*
X002975Y025427D01*
X003023Y025440D01*
X003073Y025449D01*
X003122Y025454D01*
X003173Y025455D01*
X003223Y025452D01*
X003272Y025445D01*
X003321Y025434D01*
X003369Y025419D01*
X003415Y025401D01*
X003460Y025379D01*
X003503Y025353D01*
X003544Y025324D01*
X003583Y025292D01*
X003619Y025257D01*
X003651Y025219D01*
X003681Y025179D01*
X003708Y025136D01*
X003731Y025092D01*
X003750Y025046D01*
X003766Y024998D01*
X003778Y024949D01*
X003786Y024900D01*
X003790Y024850D01*
X003790Y024800D01*
X003786Y024750D01*
X003778Y024701D01*
X003766Y024652D01*
X003750Y024604D01*
X003731Y024558D01*
X003708Y024514D01*
X003681Y024471D01*
X003651Y024431D01*
X003619Y024393D01*
X003583Y024358D01*
X003544Y024326D01*
X003503Y024297D01*
X003460Y024271D01*
X003415Y024249D01*
X003369Y024231D01*
X003321Y024216D01*
X003272Y024205D01*
X003223Y024198D01*
X003173Y024195D01*
X003122Y024196D01*
X003073Y024201D01*
X003023Y024210D01*
X002975Y024223D01*
X002928Y024239D01*
X002882Y024260D01*
X002838Y024284D01*
X002796Y024311D01*
X002756Y024341D01*
X002719Y024375D01*
X002685Y024412D01*
X002653Y024451D01*
X002625Y024492D01*
X002600Y024536D01*
X002579Y024581D01*
X002562Y024628D01*
X002548Y024676D01*
X002538Y024725D01*
X002532Y024775D01*
X002530Y024825D01*
M02*
