G75*
%MOIN*%
%OFA0B0*%
%FSLAX24Y24*%
%IPPOS*%
%LPD*%
%AMOC8*
5,1,8,0,0,1.08239X$1,22.5*
%
%ADD10C,0.1320*%
%ADD11R,0.0454X0.0611*%
%ADD12OC8,0.0660*%
%ADD13C,0.0532*%
%ADD14C,0.1340*%
%ADD15C,0.1005*%
%ADD16C,0.1760*%
%ADD17C,0.1444*%
%ADD18C,0.1641*%
%ADD19C,0.0720*%
%ADD20C,0.0651*%
%ADD21R,0.0355X0.0611*%
%ADD22R,0.1241X0.0690*%
%ADD23R,0.2501X0.2343*%
%ADD24R,0.0690X0.0611*%
%ADD25R,0.0296X0.0926*%
%ADD26R,0.0414X0.0336*%
%ADD27R,0.0611X0.1241*%
%ADD28R,0.0336X0.0414*%
%ADD29R,0.0280X0.0530*%
%ADD30R,0.0530X0.0280*%
%ADD31R,0.0572X0.0473*%
%ADD32R,0.0591X0.0217*%
%ADD33R,0.0611X0.0690*%
%ADD34C,0.0591*%
%ADD35R,0.0611X0.0611*%
%ADD36R,0.2260X0.0960*%
%ADD37R,0.0180X0.0450*%
%ADD38C,0.0395*%
%ADD39R,0.0277X0.0532*%
%ADD40C,0.0070*%
%ADD41R,0.0351X0.1162*%
%ADD42C,0.0136*%
%ADD43C,0.0800*%
%ADD44R,0.0237X0.0336*%
%ADD45R,0.0296X0.0493*%
%ADD46R,0.0770X0.0690*%
%ADD47C,0.0089*%
%ADD48R,0.0308X0.0387*%
%ADD49C,0.0050*%
%ADD50R,0.0560X0.0887*%
D10*
X020160Y007825D03*
X003160Y024825D03*
D11*
X007160Y014758D03*
X006786Y013892D03*
X007534Y013892D03*
X008786Y013892D03*
X009534Y013892D03*
X009160Y014758D03*
X015348Y014142D03*
X016097Y014142D03*
X015723Y015008D03*
X016285Y012821D03*
X015911Y011954D03*
X016659Y011954D03*
D12*
X016160Y016325D03*
X015160Y016325D03*
X015160Y017325D03*
X016160Y017325D03*
X017160Y017325D03*
X017160Y016325D03*
D13*
X025215Y009575D03*
X025215Y006075D03*
X025215Y002575D03*
X019062Y005923D03*
X018160Y005923D03*
X017357Y004026D03*
X016558Y004026D03*
X015758Y004026D03*
X014959Y004026D03*
X015361Y003325D03*
X016160Y003325D03*
X016959Y003325D03*
X017758Y003325D03*
X014562Y005923D03*
X013660Y005923D03*
X012861Y005923D03*
X011959Y005923D03*
X011156Y004026D03*
X010357Y004026D03*
X009558Y004026D03*
X008758Y004026D03*
X009160Y003325D03*
X009959Y003325D03*
X010758Y003325D03*
X011558Y003325D03*
X008361Y005923D03*
X007459Y005923D03*
D14*
X007660Y002325D03*
X018861Y002325D03*
D15*
X019560Y003675D03*
X006961Y003675D03*
D16*
X003598Y003157D03*
D17*
X005448Y004358D03*
D18*
X003598Y005539D03*
D19*
X026160Y005745D02*
X026160Y006405D01*
X026160Y009245D02*
X026160Y009905D01*
X026160Y002905D02*
X026160Y002245D01*
D20*
X024231Y001847D03*
X023443Y002575D03*
X024231Y003303D03*
X024231Y005347D03*
X023443Y006075D03*
X024231Y006803D03*
X024231Y008847D03*
X023443Y009575D03*
X024231Y010303D03*
D21*
X004160Y009654D03*
X003660Y009654D03*
X003160Y009654D03*
X002660Y009654D03*
X002660Y007371D03*
X003160Y007371D03*
X003660Y007371D03*
X004160Y007371D03*
D22*
X014182Y007925D03*
X014182Y009725D03*
D23*
X017008Y008825D03*
D24*
X011160Y008336D03*
X011160Y009439D03*
X018660Y023774D03*
X018660Y024876D03*
D25*
X014660Y013849D03*
X014160Y013849D03*
X013660Y013849D03*
X013160Y013849D03*
X012660Y013849D03*
X012160Y013849D03*
X011660Y013849D03*
X011160Y013849D03*
X011160Y011801D03*
X011660Y011801D03*
X012160Y011801D03*
X012660Y011801D03*
X013160Y011801D03*
X013660Y011801D03*
X014160Y011801D03*
X014660Y011801D03*
X005410Y014801D03*
X004910Y014801D03*
X004410Y014801D03*
X003910Y014801D03*
X003910Y016849D03*
X004410Y016849D03*
X004910Y016849D03*
X005410Y016849D03*
D26*
X005160Y019569D03*
X005160Y020081D03*
X015598Y024001D03*
X015598Y024513D03*
D27*
X006660Y009270D03*
X006660Y007380D03*
D28*
G36*
X013368Y015409D02*
X013606Y015171D01*
X013314Y014879D01*
X013076Y015117D01*
X013368Y015409D01*
G37*
G36*
X013006Y015771D02*
X013244Y015533D01*
X012952Y015241D01*
X012714Y015479D01*
X013006Y015771D01*
G37*
G36*
X013506Y016271D02*
X013744Y016033D01*
X013452Y015741D01*
X013214Y015979D01*
X013506Y016271D01*
G37*
G36*
X013868Y015909D02*
X014106Y015671D01*
X013814Y015379D01*
X013576Y015617D01*
X013868Y015909D01*
G37*
G36*
X008680Y015784D02*
X008918Y015546D01*
X008626Y015254D01*
X008388Y015492D01*
X008680Y015784D01*
G37*
G36*
X008319Y016146D02*
X008557Y015908D01*
X008265Y015616D01*
X008027Y015854D01*
X008319Y016146D01*
G37*
G36*
X006993Y017534D02*
X007231Y017296D01*
X006939Y017004D01*
X006701Y017242D01*
X006993Y017534D01*
G37*
G36*
X006631Y017896D02*
X006869Y017658D01*
X006577Y017366D01*
X006339Y017604D01*
X006631Y017896D01*
G37*
G36*
X013332Y023705D02*
X013094Y023467D01*
X012802Y023759D01*
X013040Y023997D01*
X013332Y023705D01*
G37*
G36*
X013694Y024067D02*
X013456Y023829D01*
X013164Y024121D01*
X013402Y024359D01*
X013694Y024067D01*
G37*
G36*
X014988Y022423D02*
X015226Y022661D01*
X015518Y022369D01*
X015280Y022131D01*
X014988Y022423D01*
G37*
G36*
X014626Y022061D02*
X014864Y022299D01*
X015156Y022007D01*
X014918Y021769D01*
X014626Y022061D01*
G37*
D29*
G36*
X013699Y021503D02*
X013897Y021305D01*
X013523Y020931D01*
X013325Y021129D01*
X013699Y021503D01*
G37*
G36*
X013476Y021726D02*
X013674Y021528D01*
X013300Y021154D01*
X013102Y021352D01*
X013476Y021726D01*
G37*
G36*
X013253Y021948D02*
X013451Y021750D01*
X013077Y021376D01*
X012879Y021574D01*
X013253Y021948D01*
G37*
G36*
X013031Y022171D02*
X013229Y021973D01*
X012855Y021599D01*
X012657Y021797D01*
X013031Y022171D01*
G37*
G36*
X012808Y022394D02*
X013006Y022196D01*
X012632Y021822D01*
X012434Y022020D01*
X012808Y022394D01*
G37*
G36*
X012585Y022616D02*
X012783Y022418D01*
X012409Y022044D01*
X012211Y022242D01*
X012585Y022616D01*
G37*
G36*
X012363Y022839D02*
X012561Y022641D01*
X012187Y022267D01*
X011989Y022465D01*
X012363Y022839D01*
G37*
G36*
X012140Y023062D02*
X012338Y022864D01*
X011964Y022490D01*
X011766Y022688D01*
X012140Y023062D01*
G37*
G36*
X011917Y023285D02*
X012115Y023087D01*
X011741Y022713D01*
X011543Y022911D01*
X011917Y023285D01*
G37*
G36*
X011695Y023507D02*
X011893Y023309D01*
X011519Y022935D01*
X011321Y023133D01*
X011695Y023507D01*
G37*
G36*
X011472Y023730D02*
X011670Y023532D01*
X011296Y023158D01*
X011098Y023356D01*
X011472Y023730D01*
G37*
G36*
X011249Y023953D02*
X011447Y023755D01*
X011073Y023381D01*
X010875Y023579D01*
X011249Y023953D01*
G37*
G36*
X013922Y021280D02*
X014120Y021082D01*
X013746Y020708D01*
X013548Y020906D01*
X013922Y021280D01*
G37*
G36*
X014144Y021058D02*
X014342Y020860D01*
X013968Y020486D01*
X013770Y020684D01*
X014144Y021058D01*
G37*
G36*
X014367Y020835D02*
X014565Y020637D01*
X014191Y020263D01*
X013993Y020461D01*
X014367Y020835D01*
G37*
G36*
X014590Y020612D02*
X014788Y020414D01*
X014414Y020040D01*
X014216Y020238D01*
X014590Y020612D01*
G37*
G36*
X010247Y016269D02*
X010445Y016071D01*
X010071Y015697D01*
X009873Y015895D01*
X010247Y016269D01*
G37*
G36*
X010024Y016492D02*
X010222Y016294D01*
X009848Y015920D01*
X009650Y016118D01*
X010024Y016492D01*
G37*
G36*
X009801Y016715D02*
X009999Y016517D01*
X009625Y016143D01*
X009427Y016341D01*
X009801Y016715D01*
G37*
G36*
X009579Y016937D02*
X009777Y016739D01*
X009403Y016365D01*
X009205Y016563D01*
X009579Y016937D01*
G37*
G36*
X009356Y017160D02*
X009554Y016962D01*
X009180Y016588D01*
X008982Y016786D01*
X009356Y017160D01*
G37*
G36*
X009133Y017383D02*
X009331Y017185D01*
X008957Y016811D01*
X008759Y017009D01*
X009133Y017383D01*
G37*
G36*
X008911Y017606D02*
X009109Y017408D01*
X008735Y017034D01*
X008537Y017232D01*
X008911Y017606D01*
G37*
G36*
X008688Y017828D02*
X008886Y017630D01*
X008512Y017256D01*
X008314Y017454D01*
X008688Y017828D01*
G37*
G36*
X008465Y018051D02*
X008663Y017853D01*
X008289Y017479D01*
X008091Y017677D01*
X008465Y018051D01*
G37*
G36*
X008243Y018274D02*
X008441Y018076D01*
X008067Y017702D01*
X007869Y017900D01*
X008243Y018274D01*
G37*
G36*
X008020Y018496D02*
X008218Y018298D01*
X007844Y017924D01*
X007646Y018122D01*
X008020Y018496D01*
G37*
G36*
X007797Y018719D02*
X007995Y018521D01*
X007621Y018147D01*
X007423Y018345D01*
X007797Y018719D01*
G37*
G36*
X007574Y018942D02*
X007772Y018744D01*
X007398Y018370D01*
X007200Y018568D01*
X007574Y018942D01*
G37*
G36*
X007352Y019164D02*
X007550Y018966D01*
X007176Y018592D01*
X006978Y018790D01*
X007352Y019164D01*
G37*
G36*
X007129Y019387D02*
X007327Y019189D01*
X006953Y018815D01*
X006755Y019013D01*
X007129Y019387D01*
G37*
G36*
X006906Y019610D02*
X007104Y019412D01*
X006730Y019038D01*
X006532Y019236D01*
X006906Y019610D01*
G37*
D30*
G36*
X006730Y020612D02*
X007104Y020238D01*
X006906Y020040D01*
X006532Y020414D01*
X006730Y020612D01*
G37*
G36*
X006953Y020835D02*
X007327Y020461D01*
X007129Y020263D01*
X006755Y020637D01*
X006953Y020835D01*
G37*
G36*
X007176Y021058D02*
X007550Y020684D01*
X007352Y020486D01*
X006978Y020860D01*
X007176Y021058D01*
G37*
G36*
X007398Y021280D02*
X007772Y020906D01*
X007574Y020708D01*
X007200Y021082D01*
X007398Y021280D01*
G37*
G36*
X007621Y021503D02*
X007995Y021129D01*
X007797Y020931D01*
X007423Y021305D01*
X007621Y021503D01*
G37*
G36*
X007844Y021726D02*
X008218Y021352D01*
X008020Y021154D01*
X007646Y021528D01*
X007844Y021726D01*
G37*
G36*
X008067Y021948D02*
X008441Y021574D01*
X008243Y021376D01*
X007869Y021750D01*
X008067Y021948D01*
G37*
G36*
X008289Y022171D02*
X008663Y021797D01*
X008465Y021599D01*
X008091Y021973D01*
X008289Y022171D01*
G37*
G36*
X008512Y022394D02*
X008886Y022020D01*
X008688Y021822D01*
X008314Y022196D01*
X008512Y022394D01*
G37*
G36*
X008735Y022616D02*
X009109Y022242D01*
X008911Y022044D01*
X008537Y022418D01*
X008735Y022616D01*
G37*
G36*
X008957Y022839D02*
X009331Y022465D01*
X009133Y022267D01*
X008759Y022641D01*
X008957Y022839D01*
G37*
G36*
X009180Y023062D02*
X009554Y022688D01*
X009356Y022490D01*
X008982Y022864D01*
X009180Y023062D01*
G37*
G36*
X009403Y023285D02*
X009777Y022911D01*
X009579Y022713D01*
X009205Y023087D01*
X009403Y023285D01*
G37*
G36*
X009625Y023507D02*
X009999Y023133D01*
X009801Y022935D01*
X009427Y023309D01*
X009625Y023507D01*
G37*
G36*
X009848Y023730D02*
X010222Y023356D01*
X010024Y023158D01*
X009650Y023532D01*
X009848Y023730D01*
G37*
G36*
X010071Y023953D02*
X010445Y023579D01*
X010247Y023381D01*
X009873Y023755D01*
X010071Y023953D01*
G37*
G36*
X014414Y019610D02*
X014788Y019236D01*
X014590Y019038D01*
X014216Y019412D01*
X014414Y019610D01*
G37*
G36*
X014191Y019387D02*
X014565Y019013D01*
X014367Y018815D01*
X013993Y019189D01*
X014191Y019387D01*
G37*
G36*
X013968Y019164D02*
X014342Y018790D01*
X014144Y018592D01*
X013770Y018966D01*
X013968Y019164D01*
G37*
G36*
X013746Y018942D02*
X014120Y018568D01*
X013922Y018370D01*
X013548Y018744D01*
X013746Y018942D01*
G37*
G36*
X013523Y018719D02*
X013897Y018345D01*
X013699Y018147D01*
X013325Y018521D01*
X013523Y018719D01*
G37*
G36*
X013300Y018496D02*
X013674Y018122D01*
X013476Y017924D01*
X013102Y018298D01*
X013300Y018496D01*
G37*
G36*
X013077Y018274D02*
X013451Y017900D01*
X013253Y017702D01*
X012879Y018076D01*
X013077Y018274D01*
G37*
G36*
X012855Y018051D02*
X013229Y017677D01*
X013031Y017479D01*
X012657Y017853D01*
X012855Y018051D01*
G37*
G36*
X012632Y017828D02*
X013006Y017454D01*
X012808Y017256D01*
X012434Y017630D01*
X012632Y017828D01*
G37*
G36*
X012409Y017606D02*
X012783Y017232D01*
X012585Y017034D01*
X012211Y017408D01*
X012409Y017606D01*
G37*
G36*
X012187Y017383D02*
X012561Y017009D01*
X012363Y016811D01*
X011989Y017185D01*
X012187Y017383D01*
G37*
G36*
X011964Y017160D02*
X012338Y016786D01*
X012140Y016588D01*
X011766Y016962D01*
X011964Y017160D01*
G37*
G36*
X011741Y016937D02*
X012115Y016563D01*
X011917Y016365D01*
X011543Y016739D01*
X011741Y016937D01*
G37*
G36*
X011519Y016715D02*
X011893Y016341D01*
X011695Y016143D01*
X011321Y016517D01*
X011519Y016715D01*
G37*
G36*
X011296Y016492D02*
X011670Y016118D01*
X011472Y015920D01*
X011098Y016294D01*
X011296Y016492D01*
G37*
G36*
X011073Y016269D02*
X011447Y015895D01*
X011249Y015697D01*
X010875Y016071D01*
X011073Y016269D01*
G37*
D31*
G36*
X014188Y022823D02*
X014592Y022419D01*
X014258Y022085D01*
X013854Y022489D01*
X014188Y022823D01*
G37*
G36*
X014703Y023338D02*
X015107Y022934D01*
X014773Y022600D01*
X014369Y023004D01*
X014703Y023338D01*
G37*
G36*
X014062Y023979D02*
X014466Y023575D01*
X014132Y023241D01*
X013728Y023645D01*
X014062Y023979D01*
G37*
G36*
X013547Y023464D02*
X013951Y023060D01*
X013617Y022726D01*
X013213Y023130D01*
X013547Y023464D01*
G37*
D32*
X025160Y015337D03*
X025160Y015081D03*
X025160Y014825D03*
X025160Y014569D03*
X025160Y014313D03*
D33*
X025160Y013565D03*
X024609Y011825D03*
X025711Y011825D03*
X025160Y016085D03*
D34*
X026213Y015858D02*
X026213Y016390D01*
X026213Y013792D02*
X026213Y013260D01*
D35*
X009160Y012823D03*
X009160Y011327D03*
X005908Y011138D03*
X004412Y011138D03*
D36*
X009348Y010150D03*
X009348Y007250D03*
D37*
G36*
X006332Y022690D02*
X006459Y022817D01*
X006776Y022500D01*
X006649Y022373D01*
X006332Y022690D01*
G37*
G36*
X006513Y022871D02*
X006640Y022998D01*
X006957Y022681D01*
X006830Y022554D01*
X006513Y022871D01*
G37*
G36*
X006694Y023052D02*
X006821Y023179D01*
X007138Y022862D01*
X007011Y022735D01*
X006694Y023052D01*
G37*
G36*
X006875Y023233D02*
X007002Y023360D01*
X007319Y023043D01*
X007192Y022916D01*
X006875Y023233D01*
G37*
G36*
X007056Y023414D02*
X007183Y023541D01*
X007500Y023224D01*
X007373Y023097D01*
X007056Y023414D01*
G37*
G36*
X007237Y023595D02*
X007364Y023722D01*
X007681Y023405D01*
X007554Y023278D01*
X007237Y023595D01*
G37*
G36*
X007418Y023776D02*
X007545Y023903D01*
X007862Y023586D01*
X007735Y023459D01*
X007418Y023776D01*
G37*
G36*
X005794Y025400D02*
X005921Y025527D01*
X006238Y025210D01*
X006111Y025083D01*
X005794Y025400D01*
G37*
G36*
X005613Y025219D02*
X005740Y025346D01*
X006057Y025029D01*
X005930Y024902D01*
X005613Y025219D01*
G37*
G36*
X005432Y025038D02*
X005559Y025165D01*
X005876Y024848D01*
X005749Y024721D01*
X005432Y025038D01*
G37*
G36*
X005251Y024857D02*
X005378Y024984D01*
X005695Y024667D01*
X005568Y024540D01*
X005251Y024857D01*
G37*
G36*
X005070Y024676D02*
X005197Y024803D01*
X005514Y024486D01*
X005387Y024359D01*
X005070Y024676D01*
G37*
G36*
X004889Y024495D02*
X005016Y024622D01*
X005333Y024305D01*
X005206Y024178D01*
X004889Y024495D01*
G37*
G36*
X004708Y024314D02*
X004835Y024441D01*
X005152Y024124D01*
X005025Y023997D01*
X004708Y024314D01*
G37*
D38*
X020740Y024370D02*
X021586Y024370D01*
X020740Y024370D02*
X020740Y024370D01*
X021586Y024370D01*
X021586Y024370D01*
X021586Y024862D02*
X020740Y024862D01*
X020740Y024862D01*
X021586Y024862D01*
X021586Y024862D01*
X021586Y025354D02*
X020740Y025354D01*
X020740Y025354D01*
X021586Y025354D01*
X021586Y025354D01*
X021586Y025846D02*
X020740Y025846D01*
X020740Y025846D01*
X021586Y025846D01*
X021586Y025846D01*
X021586Y023878D02*
X020740Y023878D01*
X020740Y023878D01*
X021586Y023878D01*
X021586Y023878D01*
X021586Y023386D02*
X020740Y023386D01*
X020740Y023386D01*
X021586Y023386D01*
X021586Y023386D01*
X021586Y022893D02*
X020740Y022893D01*
X020740Y022893D01*
X021586Y022893D01*
X021586Y022893D01*
X021586Y022401D02*
X020740Y022401D01*
X020740Y022401D01*
X021586Y022401D01*
X021586Y022401D01*
X021586Y021909D02*
X020740Y021909D01*
X020740Y021909D01*
X021586Y021909D01*
X021586Y021909D01*
X021586Y021417D02*
X020740Y021417D01*
X020740Y021417D01*
X021586Y021417D01*
X021586Y021417D01*
X021586Y020925D02*
X020740Y020925D01*
X020740Y020925D01*
X021586Y020925D01*
X021586Y020925D01*
X021586Y020433D02*
X020740Y020433D01*
X020740Y020433D01*
X021586Y020433D01*
X021586Y020433D01*
X021586Y019941D02*
X020740Y019941D01*
X020740Y019941D01*
X021586Y019941D01*
X021586Y019941D01*
X021813Y019498D02*
X021813Y018652D01*
X021813Y018652D01*
X021813Y019498D01*
X021813Y019498D01*
X021813Y019046D02*
X021813Y019046D01*
X021813Y019440D02*
X021813Y019440D01*
X022305Y019498D02*
X022305Y018652D01*
X022305Y018652D01*
X022305Y019498D01*
X022305Y019498D01*
X022305Y019046D02*
X022305Y019046D01*
X022305Y019440D02*
X022305Y019440D01*
X022797Y019498D02*
X022797Y018652D01*
X022797Y018652D01*
X022797Y019498D01*
X022797Y019498D01*
X022797Y019046D02*
X022797Y019046D01*
X022797Y019440D02*
X022797Y019440D01*
X023289Y019498D02*
X023289Y018652D01*
X023289Y018652D01*
X023289Y019498D01*
X023289Y019498D01*
X023289Y019046D02*
X023289Y019046D01*
X023289Y019440D02*
X023289Y019440D01*
X023781Y019498D02*
X023781Y018652D01*
X023781Y018652D01*
X023781Y019498D01*
X023781Y019498D01*
X023781Y019046D02*
X023781Y019046D01*
X023781Y019440D02*
X023781Y019440D01*
X024273Y019498D02*
X024273Y018652D01*
X024273Y018652D01*
X024273Y019498D01*
X024273Y019498D01*
X024273Y019046D02*
X024273Y019046D01*
X024273Y019440D02*
X024273Y019440D01*
X024765Y019498D02*
X024765Y018652D01*
X024765Y018652D01*
X024765Y019498D01*
X024765Y019498D01*
X024765Y019046D02*
X024765Y019046D01*
X024765Y019440D02*
X024765Y019440D01*
X025257Y019498D02*
X025257Y018652D01*
X025257Y018652D01*
X025257Y019498D01*
X025257Y019498D01*
X025257Y019046D02*
X025257Y019046D01*
X025257Y019440D02*
X025257Y019440D01*
X025484Y019941D02*
X026330Y019941D01*
X026330Y019941D01*
X025484Y019941D01*
X025484Y019941D01*
X025484Y020433D02*
X026330Y020433D01*
X026330Y020433D01*
X025484Y020433D01*
X025484Y020433D01*
X025484Y020925D02*
X026330Y020925D01*
X026330Y020925D01*
X025484Y020925D01*
X025484Y020925D01*
X025484Y021417D02*
X026330Y021417D01*
X026330Y021417D01*
X025484Y021417D01*
X025484Y021417D01*
X025484Y021909D02*
X026330Y021909D01*
X026330Y021909D01*
X025484Y021909D01*
X025484Y021909D01*
X025484Y022401D02*
X026330Y022401D01*
X026330Y022401D01*
X025484Y022401D01*
X025484Y022401D01*
X025484Y022893D02*
X026330Y022893D01*
X026330Y022893D01*
X025484Y022893D01*
X025484Y022893D01*
X025484Y023386D02*
X026330Y023386D01*
X026330Y023386D01*
X025484Y023386D01*
X025484Y023386D01*
X025484Y023878D02*
X026330Y023878D01*
X026330Y023878D01*
X025484Y023878D01*
X025484Y023878D01*
D39*
X017034Y023813D03*
X016660Y023813D03*
X016286Y023813D03*
X016286Y024837D03*
X017034Y024837D03*
D40*
X022520Y017670D02*
X022520Y016578D01*
X022520Y017670D02*
X022800Y017670D01*
X022800Y016578D01*
X022520Y016578D01*
X022520Y016647D02*
X022800Y016647D01*
X022800Y016716D02*
X022520Y016716D01*
X022520Y016785D02*
X022800Y016785D01*
X022800Y016854D02*
X022520Y016854D01*
X022520Y016923D02*
X022800Y016923D01*
X022800Y016992D02*
X022520Y016992D01*
X022520Y017061D02*
X022800Y017061D01*
X022800Y017130D02*
X022520Y017130D01*
X022520Y017199D02*
X022800Y017199D01*
X022800Y017268D02*
X022520Y017268D01*
X022520Y017337D02*
X022800Y017337D01*
X022800Y017406D02*
X022520Y017406D01*
X022520Y017475D02*
X022800Y017475D01*
X022800Y017544D02*
X022520Y017544D01*
X022520Y017613D02*
X022800Y017613D01*
D41*
X022160Y017124D03*
X021660Y017124D03*
X021160Y017124D03*
X020660Y017124D03*
X020660Y015526D03*
X021160Y015526D03*
X021660Y015526D03*
X022160Y015526D03*
X022660Y015526D03*
D42*
X021846Y001984D02*
X021846Y001666D01*
X021846Y001984D02*
X022164Y001984D01*
X022164Y001666D01*
X021846Y001666D01*
X021846Y001801D02*
X022164Y001801D01*
X022164Y001936D02*
X021846Y001936D01*
X021156Y001984D02*
X021156Y001666D01*
X021156Y001984D02*
X021474Y001984D01*
X021474Y001666D01*
X021156Y001666D01*
X021156Y001801D02*
X021474Y001801D01*
X021474Y001936D02*
X021156Y001936D01*
D43*
X019160Y011325D03*
X019160Y012325D03*
X019160Y013325D03*
X019160Y014325D03*
X019160Y015325D03*
X019160Y016325D03*
X019160Y017325D03*
X019160Y018325D03*
X019160Y019325D03*
X019160Y020325D03*
X019160Y021325D03*
X019160Y022325D03*
X002660Y022325D03*
X002660Y021325D03*
X002660Y020325D03*
X002660Y019325D03*
X002660Y018325D03*
X002660Y017325D03*
X002660Y016325D03*
X002660Y015325D03*
X002660Y014325D03*
X002660Y013325D03*
X002660Y012325D03*
X002660Y011325D03*
D44*
X004911Y012415D03*
X005285Y012415D03*
X005659Y012415D03*
X005659Y013360D03*
X005285Y013360D03*
X004911Y013360D03*
X020661Y011297D03*
X021035Y011297D03*
X021409Y011297D03*
X021409Y010353D03*
X021035Y010353D03*
X020661Y010353D03*
X022911Y012853D03*
X023285Y012853D03*
X023659Y012853D03*
X023659Y013797D03*
X023285Y013797D03*
X022911Y013797D03*
D45*
X001534Y013794D03*
X001160Y013794D03*
X000786Y013794D03*
X000786Y014856D03*
X001160Y014856D03*
X001534Y014856D03*
D46*
X001160Y011385D03*
X001160Y010265D03*
D47*
X009741Y018553D02*
X009805Y018489D01*
X009631Y018315D01*
X009567Y018379D01*
X009741Y018553D01*
X009719Y018403D02*
X009591Y018403D01*
X009679Y018491D02*
X009803Y018491D01*
X009880Y018413D02*
X009944Y018349D01*
X009770Y018175D01*
X009706Y018239D01*
X009880Y018413D01*
X009858Y018263D02*
X009730Y018263D01*
X009818Y018351D02*
X009942Y018351D01*
X010020Y018274D02*
X010084Y018210D01*
X009910Y018036D01*
X009846Y018100D01*
X010020Y018274D01*
X009998Y018124D02*
X009870Y018124D01*
X009958Y018212D02*
X010082Y018212D01*
X010159Y018135D02*
X010223Y018071D01*
X010049Y017897D01*
X009985Y017961D01*
X010159Y018135D01*
X010137Y017985D02*
X010009Y017985D01*
X010097Y018073D02*
X010221Y018073D01*
X010298Y017996D02*
X010362Y017932D01*
X010188Y017758D01*
X010124Y017822D01*
X010298Y017996D01*
X010276Y017846D02*
X010148Y017846D01*
X010236Y017934D02*
X010360Y017934D01*
X010437Y017857D02*
X010501Y017793D01*
X010327Y017619D01*
X010263Y017683D01*
X010437Y017857D01*
X010415Y017707D02*
X010287Y017707D01*
X010375Y017795D02*
X010499Y017795D01*
X010576Y017717D02*
X010640Y017653D01*
X010466Y017479D01*
X010402Y017543D01*
X010576Y017717D01*
X010554Y017567D02*
X010426Y017567D01*
X010514Y017655D02*
X010638Y017655D01*
X010787Y017717D02*
X010961Y017543D01*
X010897Y017479D01*
X010723Y017653D01*
X010787Y017717D01*
X010809Y017567D02*
X010937Y017567D01*
X010849Y017655D02*
X010725Y017655D01*
X010926Y017857D02*
X011100Y017683D01*
X011036Y017619D01*
X010862Y017793D01*
X010926Y017857D01*
X010948Y017707D02*
X011076Y017707D01*
X010988Y017795D02*
X010864Y017795D01*
X011065Y017996D02*
X011239Y017822D01*
X011175Y017758D01*
X011001Y017932D01*
X011065Y017996D01*
X011087Y017846D02*
X011215Y017846D01*
X011127Y017934D02*
X011003Y017934D01*
X011204Y018135D02*
X011378Y017961D01*
X011314Y017897D01*
X011140Y018071D01*
X011204Y018135D01*
X011226Y017985D02*
X011354Y017985D01*
X011266Y018073D02*
X011142Y018073D01*
X011343Y018274D02*
X011517Y018100D01*
X011453Y018036D01*
X011279Y018210D01*
X011343Y018274D01*
X011365Y018124D02*
X011493Y018124D01*
X011405Y018212D02*
X011281Y018212D01*
X011482Y018413D02*
X011656Y018239D01*
X011592Y018175D01*
X011418Y018349D01*
X011482Y018413D01*
X011504Y018263D02*
X011632Y018263D01*
X011544Y018351D02*
X011420Y018351D01*
X011622Y018553D02*
X011796Y018379D01*
X011732Y018315D01*
X011558Y018489D01*
X011622Y018553D01*
X011644Y018403D02*
X011772Y018403D01*
X011684Y018491D02*
X011560Y018491D01*
X011761Y018692D02*
X011935Y018518D01*
X011871Y018454D01*
X011697Y018628D01*
X011761Y018692D01*
X011783Y018542D02*
X011911Y018542D01*
X011823Y018630D02*
X011699Y018630D01*
X011900Y018831D02*
X012074Y018657D01*
X012010Y018593D01*
X011836Y018767D01*
X011900Y018831D01*
X011922Y018681D02*
X012050Y018681D01*
X011962Y018769D02*
X011838Y018769D01*
X012039Y018970D02*
X012213Y018796D01*
X012149Y018732D01*
X011975Y018906D01*
X012039Y018970D01*
X012061Y018820D02*
X012189Y018820D01*
X012101Y018908D02*
X011977Y018908D01*
X012178Y019109D02*
X012352Y018935D01*
X012288Y018871D01*
X012114Y019045D01*
X012178Y019109D01*
X012200Y018959D02*
X012328Y018959D01*
X012240Y019047D02*
X012116Y019047D01*
X012318Y019249D02*
X012492Y019075D01*
X012428Y019011D01*
X012254Y019185D01*
X012318Y019249D01*
X012340Y019099D02*
X012468Y019099D01*
X012380Y019187D02*
X012256Y019187D01*
X012457Y019388D02*
X012631Y019214D01*
X012567Y019150D01*
X012393Y019324D01*
X012457Y019388D01*
X012479Y019238D02*
X012607Y019238D01*
X012519Y019326D02*
X012395Y019326D01*
X012596Y019527D02*
X012770Y019353D01*
X012706Y019289D01*
X012532Y019463D01*
X012596Y019527D01*
X012618Y019377D02*
X012746Y019377D01*
X012658Y019465D02*
X012534Y019465D01*
X012735Y019666D02*
X012909Y019492D01*
X012845Y019428D01*
X012671Y019602D01*
X012735Y019666D01*
X012757Y019516D02*
X012885Y019516D01*
X012797Y019604D02*
X012673Y019604D01*
X012874Y019805D02*
X013048Y019631D01*
X012984Y019567D01*
X012810Y019741D01*
X012874Y019805D01*
X012896Y019655D02*
X013024Y019655D01*
X012936Y019743D02*
X012812Y019743D01*
X013048Y020062D02*
X012984Y020126D01*
X013048Y020062D02*
X012874Y019888D01*
X012810Y019952D01*
X012984Y020126D01*
X012962Y019976D02*
X012834Y019976D01*
X012922Y020064D02*
X013046Y020064D01*
X012909Y020201D02*
X012845Y020265D01*
X012909Y020201D02*
X012735Y020027D01*
X012671Y020091D01*
X012845Y020265D01*
X012823Y020115D02*
X012695Y020115D01*
X012783Y020203D02*
X012907Y020203D01*
X012770Y020340D02*
X012706Y020404D01*
X012770Y020340D02*
X012596Y020166D01*
X012532Y020230D01*
X012706Y020404D01*
X012684Y020254D02*
X012556Y020254D01*
X012644Y020342D02*
X012768Y020342D01*
X012631Y020479D02*
X012567Y020543D01*
X012631Y020479D02*
X012457Y020305D01*
X012393Y020369D01*
X012567Y020543D01*
X012545Y020393D02*
X012417Y020393D01*
X012505Y020481D02*
X012629Y020481D01*
X012492Y020618D02*
X012428Y020682D01*
X012492Y020618D02*
X012318Y020444D01*
X012254Y020508D01*
X012428Y020682D01*
X012406Y020532D02*
X012278Y020532D01*
X012366Y020620D02*
X012490Y020620D01*
X012352Y020757D02*
X012288Y020821D01*
X012352Y020757D02*
X012178Y020583D01*
X012114Y020647D01*
X012288Y020821D01*
X012266Y020671D02*
X012138Y020671D01*
X012226Y020759D02*
X012350Y020759D01*
X012213Y020897D02*
X012149Y020961D01*
X012213Y020897D02*
X012039Y020723D01*
X011975Y020787D01*
X012149Y020961D01*
X012127Y020811D02*
X011999Y020811D01*
X012087Y020899D02*
X012211Y020899D01*
X012074Y021036D02*
X012010Y021100D01*
X012074Y021036D02*
X011900Y020862D01*
X011836Y020926D01*
X012010Y021100D01*
X011988Y020950D02*
X011860Y020950D01*
X011948Y021038D02*
X012072Y021038D01*
X011935Y021175D02*
X011871Y021239D01*
X011935Y021175D02*
X011761Y021001D01*
X011697Y021065D01*
X011871Y021239D01*
X011849Y021089D02*
X011721Y021089D01*
X011809Y021177D02*
X011933Y021177D01*
X011796Y021314D02*
X011732Y021378D01*
X011796Y021314D02*
X011622Y021140D01*
X011558Y021204D01*
X011732Y021378D01*
X011710Y021228D02*
X011582Y021228D01*
X011670Y021316D02*
X011794Y021316D01*
X011656Y021453D02*
X011592Y021517D01*
X011656Y021453D02*
X011482Y021279D01*
X011418Y021343D01*
X011592Y021517D01*
X011570Y021367D02*
X011442Y021367D01*
X011530Y021455D02*
X011654Y021455D01*
X011517Y021593D02*
X011453Y021657D01*
X011517Y021593D02*
X011343Y021419D01*
X011279Y021483D01*
X011453Y021657D01*
X011431Y021507D02*
X011303Y021507D01*
X011391Y021595D02*
X011515Y021595D01*
X011378Y021732D02*
X011314Y021796D01*
X011378Y021732D02*
X011204Y021558D01*
X011140Y021622D01*
X011314Y021796D01*
X011292Y021646D02*
X011164Y021646D01*
X011252Y021734D02*
X011376Y021734D01*
X011239Y021871D02*
X011175Y021935D01*
X011239Y021871D02*
X011065Y021697D01*
X011001Y021761D01*
X011175Y021935D01*
X011153Y021785D02*
X011025Y021785D01*
X011113Y021873D02*
X011237Y021873D01*
X011100Y022010D02*
X011036Y022074D01*
X011100Y022010D02*
X010926Y021836D01*
X010862Y021900D01*
X011036Y022074D01*
X011014Y021924D02*
X010886Y021924D01*
X010974Y022012D02*
X011098Y022012D01*
X010961Y022149D02*
X010897Y022213D01*
X010961Y022149D02*
X010787Y021975D01*
X010723Y022039D01*
X010897Y022213D01*
X010875Y022063D02*
X010747Y022063D01*
X010835Y022151D02*
X010959Y022151D01*
X010640Y022039D02*
X010466Y022213D01*
X010640Y022039D02*
X010576Y021975D01*
X010402Y022149D01*
X010466Y022213D01*
X010488Y022063D02*
X010616Y022063D01*
X010528Y022151D02*
X010404Y022151D01*
X010327Y022074D02*
X010501Y021900D01*
X010437Y021836D01*
X010263Y022010D01*
X010327Y022074D01*
X010349Y021924D02*
X010477Y021924D01*
X010389Y022012D02*
X010265Y022012D01*
X010188Y021935D02*
X010362Y021761D01*
X010298Y021697D01*
X010124Y021871D01*
X010188Y021935D01*
X010210Y021785D02*
X010338Y021785D01*
X010250Y021873D02*
X010126Y021873D01*
X010049Y021796D02*
X010223Y021622D01*
X010159Y021558D01*
X009985Y021732D01*
X010049Y021796D01*
X010071Y021646D02*
X010199Y021646D01*
X010111Y021734D02*
X009987Y021734D01*
X009910Y021657D02*
X010084Y021483D01*
X010020Y021419D01*
X009846Y021593D01*
X009910Y021657D01*
X009932Y021507D02*
X010060Y021507D01*
X009972Y021595D02*
X009848Y021595D01*
X009770Y021517D02*
X009944Y021343D01*
X009880Y021279D01*
X009706Y021453D01*
X009770Y021517D01*
X009792Y021367D02*
X009920Y021367D01*
X009832Y021455D02*
X009708Y021455D01*
X009631Y021378D02*
X009805Y021204D01*
X009741Y021140D01*
X009567Y021314D01*
X009631Y021378D01*
X009653Y021228D02*
X009781Y021228D01*
X009693Y021316D02*
X009569Y021316D01*
X009492Y021239D02*
X009666Y021065D01*
X009602Y021001D01*
X009428Y021175D01*
X009492Y021239D01*
X009514Y021089D02*
X009642Y021089D01*
X009554Y021177D02*
X009430Y021177D01*
X009353Y021100D02*
X009527Y020926D01*
X009463Y020862D01*
X009289Y021036D01*
X009353Y021100D01*
X009375Y020950D02*
X009503Y020950D01*
X009415Y021038D02*
X009291Y021038D01*
X009214Y020961D02*
X009388Y020787D01*
X009324Y020723D01*
X009150Y020897D01*
X009214Y020961D01*
X009236Y020811D02*
X009364Y020811D01*
X009276Y020899D02*
X009152Y020899D01*
X009074Y020821D02*
X009248Y020647D01*
X009184Y020583D01*
X009010Y020757D01*
X009074Y020821D01*
X009096Y020671D02*
X009224Y020671D01*
X009136Y020759D02*
X009012Y020759D01*
X008935Y020682D02*
X009109Y020508D01*
X009045Y020444D01*
X008871Y020618D01*
X008935Y020682D01*
X008957Y020532D02*
X009085Y020532D01*
X008997Y020620D02*
X008873Y020620D01*
X008796Y020543D02*
X008970Y020369D01*
X008906Y020305D01*
X008732Y020479D01*
X008796Y020543D01*
X008818Y020393D02*
X008946Y020393D01*
X008858Y020481D02*
X008734Y020481D01*
X008657Y020404D02*
X008831Y020230D01*
X008767Y020166D01*
X008593Y020340D01*
X008657Y020404D01*
X008679Y020254D02*
X008807Y020254D01*
X008719Y020342D02*
X008595Y020342D01*
X008518Y020265D02*
X008692Y020091D01*
X008628Y020027D01*
X008454Y020201D01*
X008518Y020265D01*
X008540Y020115D02*
X008668Y020115D01*
X008580Y020203D02*
X008456Y020203D01*
X008378Y020126D02*
X008552Y019952D01*
X008488Y019888D01*
X008314Y020062D01*
X008378Y020126D01*
X008400Y019976D02*
X008528Y019976D01*
X008440Y020064D02*
X008316Y020064D01*
X008488Y019805D02*
X008552Y019741D01*
X008378Y019567D01*
X008314Y019631D01*
X008488Y019805D01*
X008466Y019655D02*
X008338Y019655D01*
X008426Y019743D02*
X008550Y019743D01*
X008628Y019666D02*
X008692Y019602D01*
X008518Y019428D01*
X008454Y019492D01*
X008628Y019666D01*
X008606Y019516D02*
X008478Y019516D01*
X008566Y019604D02*
X008690Y019604D01*
X008767Y019527D02*
X008831Y019463D01*
X008657Y019289D01*
X008593Y019353D01*
X008767Y019527D01*
X008745Y019377D02*
X008617Y019377D01*
X008705Y019465D02*
X008829Y019465D01*
X008906Y019388D02*
X008970Y019324D01*
X008796Y019150D01*
X008732Y019214D01*
X008906Y019388D01*
X008884Y019238D02*
X008756Y019238D01*
X008844Y019326D02*
X008968Y019326D01*
X009045Y019249D02*
X009109Y019185D01*
X008935Y019011D01*
X008871Y019075D01*
X009045Y019249D01*
X009023Y019099D02*
X008895Y019099D01*
X008983Y019187D02*
X009107Y019187D01*
X009184Y019109D02*
X009248Y019045D01*
X009074Y018871D01*
X009010Y018935D01*
X009184Y019109D01*
X009162Y018959D02*
X009034Y018959D01*
X009122Y019047D02*
X009246Y019047D01*
X009324Y018970D02*
X009388Y018906D01*
X009214Y018732D01*
X009150Y018796D01*
X009324Y018970D01*
X009302Y018820D02*
X009174Y018820D01*
X009262Y018908D02*
X009386Y018908D01*
X009463Y018831D02*
X009527Y018767D01*
X009353Y018593D01*
X009289Y018657D01*
X009463Y018831D01*
X009441Y018681D02*
X009313Y018681D01*
X009401Y018769D02*
X009525Y018769D01*
X009602Y018692D02*
X009666Y018628D01*
X009492Y018454D01*
X009428Y018518D01*
X009602Y018692D01*
X009580Y018542D02*
X009452Y018542D01*
X009540Y018630D02*
X009664Y018630D01*
D48*
X016832Y014013D03*
X017738Y014013D03*
D49*
X022907Y008127D02*
X022858Y008078D01*
X022819Y008022D01*
X022790Y007960D01*
X022772Y007893D01*
X022766Y007825D01*
X022772Y007757D01*
X022790Y007690D01*
X022819Y007628D01*
X022858Y007572D01*
X022907Y007523D01*
X022963Y007484D01*
X023025Y007455D01*
X023092Y007437D01*
X023160Y007431D01*
X023228Y007437D01*
X023295Y007455D01*
X023357Y007484D01*
X023413Y007523D01*
X023462Y007572D01*
X023501Y007628D01*
X023530Y007690D01*
X023548Y007757D01*
X023554Y007825D01*
X023548Y007893D01*
X023530Y007960D01*
X023501Y008022D01*
X023462Y008078D01*
X023413Y008127D01*
X023357Y008166D01*
X023295Y008195D01*
X023228Y008213D01*
X023160Y008219D01*
X023092Y008213D01*
X023025Y008195D01*
X022963Y008166D01*
X022907Y008127D01*
X022895Y008115D02*
X023425Y008115D01*
X023470Y008067D02*
X022850Y008067D01*
X022817Y008018D02*
X023503Y008018D01*
X023525Y007970D02*
X022795Y007970D01*
X022780Y007921D02*
X023540Y007921D01*
X023550Y007873D02*
X022770Y007873D01*
X022766Y007824D02*
X023554Y007824D01*
X023549Y007776D02*
X022771Y007776D01*
X022780Y007727D02*
X023540Y007727D01*
X023524Y007679D02*
X022796Y007679D01*
X022818Y007630D02*
X023502Y007630D01*
X023468Y007582D02*
X022852Y007582D01*
X022897Y007533D02*
X023423Y007533D01*
X023358Y007485D02*
X022962Y007485D01*
X023106Y007436D02*
X023214Y007436D01*
X023360Y008164D02*
X022960Y008164D01*
X023089Y008212D02*
X023231Y008212D01*
X001462Y025072D02*
X001501Y025128D01*
X001530Y025190D01*
X001548Y025257D01*
X001554Y025325D01*
X001548Y025393D01*
X001530Y025460D01*
X001501Y025522D01*
X001462Y025578D01*
X001413Y025627D01*
X001357Y025666D01*
X001295Y025695D01*
X001228Y025713D01*
X001160Y025719D01*
X001092Y025713D01*
X001025Y025695D01*
X000963Y025666D01*
X000907Y025627D01*
X000858Y025578D01*
X000819Y025522D01*
X000790Y025460D01*
X000772Y025393D01*
X000766Y025325D01*
X000772Y025257D01*
X000790Y025190D01*
X000819Y025128D01*
X000858Y025072D01*
X000907Y025023D01*
X000963Y024984D01*
X001025Y024955D01*
X001092Y024937D01*
X001160Y024931D01*
X001228Y024937D01*
X001295Y024955D01*
X001357Y024984D01*
X001413Y025023D01*
X001462Y025072D01*
X001474Y025090D02*
X000846Y025090D01*
X000814Y025139D02*
X001506Y025139D01*
X001528Y025187D02*
X000792Y025187D01*
X000778Y025236D02*
X001542Y025236D01*
X001550Y025284D02*
X000770Y025284D01*
X000767Y025333D02*
X001553Y025333D01*
X001549Y025381D02*
X000771Y025381D01*
X000782Y025430D02*
X001538Y025430D01*
X001521Y025478D02*
X000799Y025478D01*
X000822Y025527D02*
X001498Y025527D01*
X001464Y025575D02*
X000856Y025575D01*
X000904Y025624D02*
X001416Y025624D01*
X001344Y025672D02*
X000976Y025672D01*
X000889Y025042D02*
X001431Y025042D01*
X001370Y024993D02*
X000950Y024993D01*
X001064Y024945D02*
X001256Y024945D01*
D50*
X020879Y004825D03*
X020879Y003325D03*
X022441Y003325D03*
X022441Y004825D03*
M02*
