G75*
%MOIN*%
%OFA0B0*%
%FSLAX24Y24*%
%IPPOS*%
%LPD*%
%AMOC8*
5,1,8,0,0,1.08239X$1,22.5*
%
%ADD10R,0.0394X0.0551*%
%ADD11R,0.0295X0.0551*%
%ADD12R,0.1181X0.0630*%
%ADD13R,0.2441X0.2283*%
%ADD14R,0.0630X0.0551*%
%ADD15R,0.0236X0.0866*%
%ADD16R,0.0354X0.0276*%
%ADD17R,0.0315X0.0157*%
%ADD18R,0.0551X0.1181*%
%ADD19R,0.0276X0.0354*%
%ADD20R,0.0157X0.0236*%
%ADD21R,0.0220X0.0470*%
%ADD22R,0.0470X0.0220*%
%ADD23R,0.0512X0.0413*%
%ADD24R,0.0531X0.0157*%
%ADD25R,0.0551X0.0630*%
%ADD26R,0.0157X0.0315*%
%ADD27R,0.0551X0.0551*%
%ADD28R,0.2200X0.0900*%
%ADD29R,0.0120X0.0390*%
%ADD30C,0.0335*%
%ADD31R,0.0217X0.0472*%
%ADD32R,0.0236X0.0157*%
%ADD33C,0.0058*%
%ADD34R,0.0291X0.1102*%
%ADD35C,0.0118*%
%ADD36R,0.0177X0.0276*%
%ADD37R,0.0236X0.0433*%
%ADD38R,0.0710X0.0630*%
%ADD39R,0.0551X0.0236*%
%ADD40C,0.0059*%
%ADD41R,0.0248X0.0327*%
%ADD42R,0.0500X0.0827*%
D10*
X006786Y013892D03*
X007534Y013892D03*
X007160Y014758D03*
X008786Y013892D03*
X009534Y013892D03*
X009160Y014758D03*
X015348Y014142D03*
X016097Y014142D03*
X015723Y015008D03*
X016285Y012821D03*
X015911Y011954D03*
X016659Y011954D03*
D11*
X002660Y007371D03*
X003160Y007371D03*
X003660Y007371D03*
X004160Y007371D03*
X004160Y009654D03*
X003660Y009654D03*
X003160Y009654D03*
X002660Y009654D03*
D12*
X014182Y009725D03*
X014182Y007925D03*
D13*
X017008Y008825D03*
D14*
X011160Y008336D03*
X011160Y009439D03*
X018660Y023774D03*
X018660Y024876D03*
D15*
X014660Y013849D03*
X014160Y013849D03*
X013660Y013849D03*
X013160Y013849D03*
X012660Y013849D03*
X012160Y013849D03*
X011660Y013849D03*
X011160Y013849D03*
X011160Y011801D03*
X011660Y011801D03*
X012160Y011801D03*
X012660Y011801D03*
X013160Y011801D03*
X013660Y011801D03*
X014160Y011801D03*
X014660Y011801D03*
X005410Y014801D03*
X004910Y014801D03*
X004410Y014801D03*
X003910Y014801D03*
X003910Y016849D03*
X004410Y016849D03*
X004910Y016849D03*
X005410Y016849D03*
D16*
X005160Y019569D03*
X005160Y020081D03*
X015598Y024001D03*
X015598Y024513D03*
D17*
X005160Y019825D03*
D18*
X006660Y009270D03*
X006660Y007380D03*
D19*
G36*
X013368Y015366D02*
X013563Y015171D01*
X013314Y014922D01*
X013119Y015117D01*
X013368Y015366D01*
G37*
G36*
X013006Y015728D02*
X013201Y015533D01*
X012952Y015284D01*
X012757Y015479D01*
X013006Y015728D01*
G37*
G36*
X013506Y016228D02*
X013701Y016033D01*
X013452Y015784D01*
X013257Y015979D01*
X013506Y016228D01*
G37*
G36*
X013868Y015866D02*
X014063Y015671D01*
X013814Y015422D01*
X013619Y015617D01*
X013868Y015866D01*
G37*
G36*
X008680Y015741D02*
X008875Y015546D01*
X008626Y015297D01*
X008431Y015492D01*
X008680Y015741D01*
G37*
G36*
X008319Y016103D02*
X008514Y015908D01*
X008265Y015659D01*
X008070Y015854D01*
X008319Y016103D01*
G37*
G36*
X006993Y017491D02*
X007188Y017296D01*
X006939Y017047D01*
X006744Y017242D01*
X006993Y017491D01*
G37*
G36*
X006631Y017853D02*
X006826Y017658D01*
X006577Y017409D01*
X006382Y017604D01*
X006631Y017853D01*
G37*
G36*
X013289Y023705D02*
X013094Y023510D01*
X012845Y023759D01*
X013040Y023954D01*
X013289Y023705D01*
G37*
G36*
X013651Y024067D02*
X013456Y023872D01*
X013207Y024121D01*
X013402Y024316D01*
X013651Y024067D01*
G37*
G36*
X015031Y022423D02*
X015226Y022618D01*
X015475Y022369D01*
X015280Y022174D01*
X015031Y022423D01*
G37*
G36*
X014669Y022061D02*
X014864Y022256D01*
X015113Y022007D01*
X014918Y021812D01*
X014669Y022061D01*
G37*
D20*
G36*
X014934Y022243D02*
X015044Y022353D01*
X015210Y022187D01*
X015100Y022077D01*
X014934Y022243D01*
G37*
G36*
X013386Y023885D02*
X013276Y023775D01*
X013110Y023941D01*
X013220Y024051D01*
X013386Y023885D01*
G37*
G36*
X006813Y017588D02*
X006923Y017478D01*
X006757Y017312D01*
X006647Y017422D01*
X006813Y017588D01*
G37*
G36*
X008501Y015838D02*
X008611Y015728D01*
X008445Y015562D01*
X008335Y015672D01*
X008501Y015838D01*
G37*
D21*
G36*
X009579Y016894D02*
X009734Y016739D01*
X009403Y016408D01*
X009248Y016563D01*
X009579Y016894D01*
G37*
G36*
X009356Y017117D02*
X009511Y016962D01*
X009180Y016631D01*
X009025Y016786D01*
X009356Y017117D01*
G37*
G36*
X009133Y017340D02*
X009288Y017185D01*
X008957Y016854D01*
X008802Y017009D01*
X009133Y017340D01*
G37*
G36*
X008911Y017563D02*
X009066Y017408D01*
X008735Y017077D01*
X008580Y017232D01*
X008911Y017563D01*
G37*
G36*
X008688Y017785D02*
X008843Y017630D01*
X008512Y017299D01*
X008357Y017454D01*
X008688Y017785D01*
G37*
G36*
X008465Y018008D02*
X008620Y017853D01*
X008289Y017522D01*
X008134Y017677D01*
X008465Y018008D01*
G37*
G36*
X008243Y018231D02*
X008398Y018076D01*
X008067Y017745D01*
X007912Y017900D01*
X008243Y018231D01*
G37*
G36*
X008020Y018453D02*
X008175Y018298D01*
X007844Y017967D01*
X007689Y018122D01*
X008020Y018453D01*
G37*
G36*
X007797Y018676D02*
X007952Y018521D01*
X007621Y018190D01*
X007466Y018345D01*
X007797Y018676D01*
G37*
G36*
X007574Y018899D02*
X007729Y018744D01*
X007398Y018413D01*
X007243Y018568D01*
X007574Y018899D01*
G37*
G36*
X007352Y019121D02*
X007507Y018966D01*
X007176Y018635D01*
X007021Y018790D01*
X007352Y019121D01*
G37*
G36*
X007129Y019344D02*
X007284Y019189D01*
X006953Y018858D01*
X006798Y019013D01*
X007129Y019344D01*
G37*
G36*
X006906Y019567D02*
X007061Y019412D01*
X006730Y019081D01*
X006575Y019236D01*
X006906Y019567D01*
G37*
G36*
X009801Y016672D02*
X009956Y016517D01*
X009625Y016186D01*
X009470Y016341D01*
X009801Y016672D01*
G37*
G36*
X010024Y016449D02*
X010179Y016294D01*
X009848Y015963D01*
X009693Y016118D01*
X010024Y016449D01*
G37*
G36*
X010247Y016226D02*
X010402Y016071D01*
X010071Y015740D01*
X009916Y015895D01*
X010247Y016226D01*
G37*
G36*
X014590Y020569D02*
X014745Y020414D01*
X014414Y020083D01*
X014259Y020238D01*
X014590Y020569D01*
G37*
G36*
X014367Y020792D02*
X014522Y020637D01*
X014191Y020306D01*
X014036Y020461D01*
X014367Y020792D01*
G37*
G36*
X014144Y021015D02*
X014299Y020860D01*
X013968Y020529D01*
X013813Y020684D01*
X014144Y021015D01*
G37*
G36*
X013922Y021237D02*
X014077Y021082D01*
X013746Y020751D01*
X013591Y020906D01*
X013922Y021237D01*
G37*
G36*
X013699Y021460D02*
X013854Y021305D01*
X013523Y020974D01*
X013368Y021129D01*
X013699Y021460D01*
G37*
G36*
X013476Y021683D02*
X013631Y021528D01*
X013300Y021197D01*
X013145Y021352D01*
X013476Y021683D01*
G37*
G36*
X013253Y021905D02*
X013408Y021750D01*
X013077Y021419D01*
X012922Y021574D01*
X013253Y021905D01*
G37*
G36*
X013031Y022128D02*
X013186Y021973D01*
X012855Y021642D01*
X012700Y021797D01*
X013031Y022128D01*
G37*
G36*
X012808Y022351D02*
X012963Y022196D01*
X012632Y021865D01*
X012477Y022020D01*
X012808Y022351D01*
G37*
G36*
X012585Y022573D02*
X012740Y022418D01*
X012409Y022087D01*
X012254Y022242D01*
X012585Y022573D01*
G37*
G36*
X012363Y022796D02*
X012518Y022641D01*
X012187Y022310D01*
X012032Y022465D01*
X012363Y022796D01*
G37*
G36*
X012140Y023019D02*
X012295Y022864D01*
X011964Y022533D01*
X011809Y022688D01*
X012140Y023019D01*
G37*
G36*
X011917Y023242D02*
X012072Y023087D01*
X011741Y022756D01*
X011586Y022911D01*
X011917Y023242D01*
G37*
G36*
X011695Y023464D02*
X011850Y023309D01*
X011519Y022978D01*
X011364Y023133D01*
X011695Y023464D01*
G37*
G36*
X011472Y023687D02*
X011627Y023532D01*
X011296Y023201D01*
X011141Y023356D01*
X011472Y023687D01*
G37*
G36*
X011249Y023910D02*
X011404Y023755D01*
X011073Y023424D01*
X010918Y023579D01*
X011249Y023910D01*
G37*
D22*
G36*
X010071Y023910D02*
X010402Y023579D01*
X010247Y023424D01*
X009916Y023755D01*
X010071Y023910D01*
G37*
G36*
X009848Y023687D02*
X010179Y023356D01*
X010024Y023201D01*
X009693Y023532D01*
X009848Y023687D01*
G37*
G36*
X009625Y023464D02*
X009956Y023133D01*
X009801Y022978D01*
X009470Y023309D01*
X009625Y023464D01*
G37*
G36*
X009403Y023242D02*
X009734Y022911D01*
X009579Y022756D01*
X009248Y023087D01*
X009403Y023242D01*
G37*
G36*
X009180Y023019D02*
X009511Y022688D01*
X009356Y022533D01*
X009025Y022864D01*
X009180Y023019D01*
G37*
G36*
X008957Y022796D02*
X009288Y022465D01*
X009133Y022310D01*
X008802Y022641D01*
X008957Y022796D01*
G37*
G36*
X008735Y022573D02*
X009066Y022242D01*
X008911Y022087D01*
X008580Y022418D01*
X008735Y022573D01*
G37*
G36*
X008512Y022351D02*
X008843Y022020D01*
X008688Y021865D01*
X008357Y022196D01*
X008512Y022351D01*
G37*
G36*
X008289Y022128D02*
X008620Y021797D01*
X008465Y021642D01*
X008134Y021973D01*
X008289Y022128D01*
G37*
G36*
X008067Y021905D02*
X008398Y021574D01*
X008243Y021419D01*
X007912Y021750D01*
X008067Y021905D01*
G37*
G36*
X007844Y021683D02*
X008175Y021352D01*
X008020Y021197D01*
X007689Y021528D01*
X007844Y021683D01*
G37*
G36*
X007621Y021460D02*
X007952Y021129D01*
X007797Y020974D01*
X007466Y021305D01*
X007621Y021460D01*
G37*
G36*
X007398Y021237D02*
X007729Y020906D01*
X007574Y020751D01*
X007243Y021082D01*
X007398Y021237D01*
G37*
G36*
X007176Y021015D02*
X007507Y020684D01*
X007352Y020529D01*
X007021Y020860D01*
X007176Y021015D01*
G37*
G36*
X006953Y020792D02*
X007284Y020461D01*
X007129Y020306D01*
X006798Y020637D01*
X006953Y020792D01*
G37*
G36*
X006730Y020569D02*
X007061Y020238D01*
X006906Y020083D01*
X006575Y020414D01*
X006730Y020569D01*
G37*
G36*
X011296Y016449D02*
X011627Y016118D01*
X011472Y015963D01*
X011141Y016294D01*
X011296Y016449D01*
G37*
G36*
X011519Y016672D02*
X011850Y016341D01*
X011695Y016186D01*
X011364Y016517D01*
X011519Y016672D01*
G37*
G36*
X011741Y016894D02*
X012072Y016563D01*
X011917Y016408D01*
X011586Y016739D01*
X011741Y016894D01*
G37*
G36*
X011964Y017117D02*
X012295Y016786D01*
X012140Y016631D01*
X011809Y016962D01*
X011964Y017117D01*
G37*
G36*
X012187Y017340D02*
X012518Y017009D01*
X012363Y016854D01*
X012032Y017185D01*
X012187Y017340D01*
G37*
G36*
X012409Y017563D02*
X012740Y017232D01*
X012585Y017077D01*
X012254Y017408D01*
X012409Y017563D01*
G37*
G36*
X012632Y017785D02*
X012963Y017454D01*
X012808Y017299D01*
X012477Y017630D01*
X012632Y017785D01*
G37*
G36*
X012855Y018008D02*
X013186Y017677D01*
X013031Y017522D01*
X012700Y017853D01*
X012855Y018008D01*
G37*
G36*
X013077Y018231D02*
X013408Y017900D01*
X013253Y017745D01*
X012922Y018076D01*
X013077Y018231D01*
G37*
G36*
X013300Y018453D02*
X013631Y018122D01*
X013476Y017967D01*
X013145Y018298D01*
X013300Y018453D01*
G37*
G36*
X013523Y018676D02*
X013854Y018345D01*
X013699Y018190D01*
X013368Y018521D01*
X013523Y018676D01*
G37*
G36*
X013746Y018899D02*
X014077Y018568D01*
X013922Y018413D01*
X013591Y018744D01*
X013746Y018899D01*
G37*
G36*
X013968Y019121D02*
X014299Y018790D01*
X014144Y018635D01*
X013813Y018966D01*
X013968Y019121D01*
G37*
G36*
X014191Y019344D02*
X014522Y019013D01*
X014367Y018858D01*
X014036Y019189D01*
X014191Y019344D01*
G37*
G36*
X014414Y019567D02*
X014745Y019236D01*
X014590Y019081D01*
X014259Y019412D01*
X014414Y019567D01*
G37*
G36*
X011073Y016226D02*
X011404Y015895D01*
X011249Y015740D01*
X010918Y016071D01*
X011073Y016226D01*
G37*
D23*
G36*
X014188Y022780D02*
X014549Y022419D01*
X014258Y022128D01*
X013897Y022489D01*
X014188Y022780D01*
G37*
G36*
X014703Y023295D02*
X015064Y022934D01*
X014773Y022643D01*
X014412Y023004D01*
X014703Y023295D01*
G37*
G36*
X014062Y023936D02*
X014423Y023575D01*
X014132Y023284D01*
X013771Y023645D01*
X014062Y023936D01*
G37*
G36*
X013547Y023421D02*
X013908Y023060D01*
X013617Y022769D01*
X013256Y023130D01*
X013547Y023421D01*
G37*
D24*
X025160Y015337D03*
X025160Y015081D03*
X025160Y014825D03*
X025160Y014569D03*
X025160Y014313D03*
D25*
X025160Y013565D03*
X024609Y011825D03*
X025711Y011825D03*
X025160Y016085D03*
D26*
G36*
X013715Y015991D02*
X013826Y015880D01*
X013605Y015659D01*
X013494Y015770D01*
X013715Y015991D01*
G37*
G36*
X013215Y015491D02*
X013326Y015380D01*
X013105Y015159D01*
X012994Y015270D01*
X013215Y015491D01*
G37*
D27*
X009160Y012823D03*
X009160Y011327D03*
X005908Y011138D03*
X004412Y011138D03*
D28*
X009348Y010150D03*
X009348Y007250D03*
D29*
G36*
X006374Y022690D02*
X006459Y022775D01*
X006734Y022500D01*
X006649Y022415D01*
X006374Y022690D01*
G37*
G36*
X006555Y022871D02*
X006640Y022956D01*
X006915Y022681D01*
X006830Y022596D01*
X006555Y022871D01*
G37*
G36*
X006736Y023052D02*
X006821Y023137D01*
X007096Y022862D01*
X007011Y022777D01*
X006736Y023052D01*
G37*
G36*
X006917Y023233D02*
X007002Y023318D01*
X007277Y023043D01*
X007192Y022958D01*
X006917Y023233D01*
G37*
G36*
X007098Y023414D02*
X007183Y023499D01*
X007458Y023224D01*
X007373Y023139D01*
X007098Y023414D01*
G37*
G36*
X007279Y023595D02*
X007364Y023680D01*
X007639Y023405D01*
X007554Y023320D01*
X007279Y023595D01*
G37*
G36*
X007460Y023776D02*
X007545Y023861D01*
X007820Y023586D01*
X007735Y023501D01*
X007460Y023776D01*
G37*
G36*
X005836Y025400D02*
X005921Y025485D01*
X006196Y025210D01*
X006111Y025125D01*
X005836Y025400D01*
G37*
G36*
X005655Y025219D02*
X005740Y025304D01*
X006015Y025029D01*
X005930Y024944D01*
X005655Y025219D01*
G37*
G36*
X005474Y025038D02*
X005559Y025123D01*
X005834Y024848D01*
X005749Y024763D01*
X005474Y025038D01*
G37*
G36*
X005293Y024857D02*
X005378Y024942D01*
X005653Y024667D01*
X005568Y024582D01*
X005293Y024857D01*
G37*
G36*
X005112Y024676D02*
X005197Y024761D01*
X005472Y024486D01*
X005387Y024401D01*
X005112Y024676D01*
G37*
G36*
X004931Y024495D02*
X005016Y024580D01*
X005291Y024305D01*
X005206Y024220D01*
X004931Y024495D01*
G37*
G36*
X004750Y024314D02*
X004835Y024399D01*
X005110Y024124D01*
X005025Y024039D01*
X004750Y024314D01*
G37*
D30*
X020740Y024370D02*
X021586Y024370D01*
X020740Y024370D02*
X020740Y024370D01*
X021586Y024370D01*
X021586Y024370D01*
X021586Y024862D02*
X020740Y024862D01*
X020740Y024862D01*
X021586Y024862D01*
X021586Y024862D01*
X021586Y025354D02*
X020740Y025354D01*
X020740Y025354D01*
X021586Y025354D01*
X021586Y025354D01*
X021586Y025846D02*
X020740Y025846D01*
X020740Y025846D01*
X021586Y025846D01*
X021586Y025846D01*
X021586Y023878D02*
X020740Y023878D01*
X020740Y023878D01*
X021586Y023878D01*
X021586Y023878D01*
X021586Y023386D02*
X020740Y023386D01*
X020740Y023386D01*
X021586Y023386D01*
X021586Y023386D01*
X021586Y022893D02*
X020740Y022893D01*
X020740Y022893D01*
X021586Y022893D01*
X021586Y022893D01*
X021586Y022401D02*
X020740Y022401D01*
X020740Y022401D01*
X021586Y022401D01*
X021586Y022401D01*
X021586Y021909D02*
X020740Y021909D01*
X020740Y021909D01*
X021586Y021909D01*
X021586Y021909D01*
X021586Y021417D02*
X020740Y021417D01*
X020740Y021417D01*
X021586Y021417D01*
X021586Y021417D01*
X021586Y020925D02*
X020740Y020925D01*
X020740Y020925D01*
X021586Y020925D01*
X021586Y020925D01*
X021586Y020433D02*
X020740Y020433D01*
X020740Y020433D01*
X021586Y020433D01*
X021586Y020433D01*
X021586Y019941D02*
X020740Y019941D01*
X020740Y019941D01*
X021586Y019941D01*
X021586Y019941D01*
X021813Y019498D02*
X021813Y018652D01*
X021813Y018652D01*
X021813Y019498D01*
X021813Y019498D01*
X021813Y018986D02*
X021813Y018986D01*
X021813Y019320D02*
X021813Y019320D01*
X022305Y019498D02*
X022305Y018652D01*
X022305Y018652D01*
X022305Y019498D01*
X022305Y019498D01*
X022305Y018986D02*
X022305Y018986D01*
X022305Y019320D02*
X022305Y019320D01*
X022797Y019498D02*
X022797Y018652D01*
X022797Y018652D01*
X022797Y019498D01*
X022797Y019498D01*
X022797Y018986D02*
X022797Y018986D01*
X022797Y019320D02*
X022797Y019320D01*
X023289Y019498D02*
X023289Y018652D01*
X023289Y018652D01*
X023289Y019498D01*
X023289Y019498D01*
X023289Y018986D02*
X023289Y018986D01*
X023289Y019320D02*
X023289Y019320D01*
X023781Y019498D02*
X023781Y018652D01*
X023781Y018652D01*
X023781Y019498D01*
X023781Y019498D01*
X023781Y018986D02*
X023781Y018986D01*
X023781Y019320D02*
X023781Y019320D01*
X024273Y019498D02*
X024273Y018652D01*
X024273Y018652D01*
X024273Y019498D01*
X024273Y019498D01*
X024273Y018986D02*
X024273Y018986D01*
X024273Y019320D02*
X024273Y019320D01*
X024765Y019498D02*
X024765Y018652D01*
X024765Y018652D01*
X024765Y019498D01*
X024765Y019498D01*
X024765Y018986D02*
X024765Y018986D01*
X024765Y019320D02*
X024765Y019320D01*
X025257Y019498D02*
X025257Y018652D01*
X025257Y018652D01*
X025257Y019498D01*
X025257Y019498D01*
X025257Y018986D02*
X025257Y018986D01*
X025257Y019320D02*
X025257Y019320D01*
X025484Y019941D02*
X026330Y019941D01*
X026330Y019941D01*
X025484Y019941D01*
X025484Y019941D01*
X025484Y020433D02*
X026330Y020433D01*
X026330Y020433D01*
X025484Y020433D01*
X025484Y020433D01*
X025484Y020925D02*
X026330Y020925D01*
X026330Y020925D01*
X025484Y020925D01*
X025484Y020925D01*
X025484Y021417D02*
X026330Y021417D01*
X026330Y021417D01*
X025484Y021417D01*
X025484Y021417D01*
X025484Y021909D02*
X026330Y021909D01*
X026330Y021909D01*
X025484Y021909D01*
X025484Y021909D01*
X025484Y022401D02*
X026330Y022401D01*
X026330Y022401D01*
X025484Y022401D01*
X025484Y022401D01*
X025484Y022893D02*
X026330Y022893D01*
X026330Y022893D01*
X025484Y022893D01*
X025484Y022893D01*
X025484Y023386D02*
X026330Y023386D01*
X026330Y023386D01*
X025484Y023386D01*
X025484Y023386D01*
X025484Y023878D02*
X026330Y023878D01*
X026330Y023878D01*
X025484Y023878D01*
X025484Y023878D01*
D31*
X017034Y023813D03*
X016660Y023813D03*
X016286Y023813D03*
X016286Y024837D03*
X017034Y024837D03*
D32*
X015598Y024257D03*
D33*
X022544Y017646D02*
X022544Y016602D01*
X022544Y017646D02*
X022776Y017646D01*
X022776Y016602D01*
X022544Y016602D01*
X022544Y016659D02*
X022776Y016659D01*
X022776Y016716D02*
X022544Y016716D01*
X022544Y016773D02*
X022776Y016773D01*
X022776Y016830D02*
X022544Y016830D01*
X022544Y016887D02*
X022776Y016887D01*
X022776Y016944D02*
X022544Y016944D01*
X022544Y017001D02*
X022776Y017001D01*
X022776Y017058D02*
X022544Y017058D01*
X022544Y017115D02*
X022776Y017115D01*
X022776Y017172D02*
X022544Y017172D01*
X022544Y017229D02*
X022776Y017229D01*
X022776Y017286D02*
X022544Y017286D01*
X022544Y017343D02*
X022776Y017343D01*
X022776Y017400D02*
X022544Y017400D01*
X022544Y017457D02*
X022776Y017457D01*
X022776Y017514D02*
X022544Y017514D01*
X022544Y017571D02*
X022776Y017571D01*
X022776Y017628D02*
X022544Y017628D01*
D34*
X022160Y017124D03*
X021660Y017124D03*
X021160Y017124D03*
X020660Y017124D03*
X020660Y015526D03*
X021160Y015526D03*
X021660Y015526D03*
X022160Y015526D03*
X022660Y015526D03*
D35*
X021867Y001963D02*
X021867Y001687D01*
X021867Y001963D02*
X022143Y001963D01*
X022143Y001687D01*
X021867Y001687D01*
X021867Y001804D02*
X022143Y001804D01*
X022143Y001921D02*
X021867Y001921D01*
X021177Y001963D02*
X021177Y001687D01*
X021177Y001963D02*
X021453Y001963D01*
X021453Y001687D01*
X021177Y001687D01*
X021177Y001804D02*
X021453Y001804D01*
X021453Y001921D02*
X021177Y001921D01*
D36*
X021035Y010353D03*
X020661Y010353D03*
X021409Y010353D03*
X021409Y011297D03*
X021035Y011297D03*
X020661Y011297D03*
X022911Y012853D03*
X023285Y012853D03*
X023659Y012853D03*
X023659Y013797D03*
X023285Y013797D03*
X022911Y013797D03*
X005659Y013360D03*
X005285Y013360D03*
X004911Y013360D03*
X004911Y012415D03*
X005285Y012415D03*
X005659Y012415D03*
D37*
X001534Y013794D03*
X001160Y013794D03*
X000786Y013794D03*
X000786Y014856D03*
X001160Y014856D03*
X001534Y014856D03*
D38*
X001160Y011385D03*
X001160Y010265D03*
D39*
X001160Y010825D03*
D40*
X009463Y018810D02*
X009506Y018767D01*
X009353Y018614D01*
X009310Y018657D01*
X009463Y018810D01*
X009411Y018672D02*
X009325Y018672D01*
X009383Y018730D02*
X009469Y018730D01*
X009485Y018788D02*
X009441Y018788D01*
X009367Y018906D02*
X009324Y018949D01*
X009367Y018906D02*
X009214Y018753D01*
X009171Y018796D01*
X009324Y018949D01*
X009272Y018811D02*
X009186Y018811D01*
X009244Y018869D02*
X009330Y018869D01*
X009346Y018927D02*
X009302Y018927D01*
X009227Y019045D02*
X009184Y019088D01*
X009227Y019045D02*
X009074Y018892D01*
X009031Y018935D01*
X009184Y019088D01*
X009132Y018950D02*
X009046Y018950D01*
X009104Y019008D02*
X009190Y019008D01*
X009206Y019066D02*
X009162Y019066D01*
X009088Y019185D02*
X009045Y019228D01*
X009088Y019185D02*
X008935Y019032D01*
X008892Y019075D01*
X009045Y019228D01*
X008993Y019090D02*
X008907Y019090D01*
X008965Y019148D02*
X009051Y019148D01*
X009067Y019206D02*
X009023Y019206D01*
X008949Y019324D02*
X008906Y019367D01*
X008949Y019324D02*
X008796Y019171D01*
X008753Y019214D01*
X008906Y019367D01*
X008854Y019229D02*
X008768Y019229D01*
X008826Y019287D02*
X008912Y019287D01*
X008928Y019345D02*
X008884Y019345D01*
X008810Y019463D02*
X008767Y019506D01*
X008810Y019463D02*
X008657Y019310D01*
X008614Y019353D01*
X008767Y019506D01*
X008715Y019368D02*
X008629Y019368D01*
X008687Y019426D02*
X008773Y019426D01*
X008789Y019484D02*
X008745Y019484D01*
X008671Y019602D02*
X008628Y019645D01*
X008671Y019602D02*
X008518Y019449D01*
X008475Y019492D01*
X008628Y019645D01*
X008576Y019507D02*
X008490Y019507D01*
X008548Y019565D02*
X008634Y019565D01*
X008650Y019623D02*
X008606Y019623D01*
X008531Y019741D02*
X008488Y019784D01*
X008531Y019741D02*
X008378Y019588D01*
X008335Y019631D01*
X008488Y019784D01*
X008436Y019646D02*
X008350Y019646D01*
X008408Y019704D02*
X008494Y019704D01*
X008510Y019762D02*
X008466Y019762D01*
X008531Y019952D02*
X008378Y020105D01*
X008531Y019952D02*
X008488Y019909D01*
X008335Y020062D01*
X008378Y020105D01*
X008430Y019967D02*
X008516Y019967D01*
X008458Y020025D02*
X008372Y020025D01*
X008356Y020083D02*
X008400Y020083D01*
X008518Y020244D02*
X008671Y020091D01*
X008628Y020048D01*
X008475Y020201D01*
X008518Y020244D01*
X008570Y020106D02*
X008656Y020106D01*
X008598Y020164D02*
X008512Y020164D01*
X008496Y020222D02*
X008540Y020222D01*
X008657Y020383D02*
X008810Y020230D01*
X008767Y020187D01*
X008614Y020340D01*
X008657Y020383D01*
X008709Y020245D02*
X008795Y020245D01*
X008737Y020303D02*
X008651Y020303D01*
X008635Y020361D02*
X008679Y020361D01*
X008796Y020522D02*
X008949Y020369D01*
X008906Y020326D01*
X008753Y020479D01*
X008796Y020522D01*
X008848Y020384D02*
X008934Y020384D01*
X008876Y020442D02*
X008790Y020442D01*
X008774Y020500D02*
X008818Y020500D01*
X008935Y020661D02*
X009088Y020508D01*
X009045Y020465D01*
X008892Y020618D01*
X008935Y020661D01*
X008987Y020523D02*
X009073Y020523D01*
X009015Y020581D02*
X008929Y020581D01*
X008913Y020639D02*
X008957Y020639D01*
X009074Y020800D02*
X009227Y020647D01*
X009184Y020604D01*
X009031Y020757D01*
X009074Y020800D01*
X009126Y020662D02*
X009212Y020662D01*
X009154Y020720D02*
X009068Y020720D01*
X009052Y020778D02*
X009096Y020778D01*
X009214Y020940D02*
X009367Y020787D01*
X009324Y020744D01*
X009171Y020897D01*
X009214Y020940D01*
X009266Y020802D02*
X009352Y020802D01*
X009294Y020860D02*
X009208Y020860D01*
X009192Y020918D02*
X009236Y020918D01*
X009353Y021079D02*
X009506Y020926D01*
X009463Y020883D01*
X009310Y021036D01*
X009353Y021079D01*
X009405Y020941D02*
X009491Y020941D01*
X009433Y020999D02*
X009347Y020999D01*
X009331Y021057D02*
X009375Y021057D01*
X009492Y021218D02*
X009645Y021065D01*
X009602Y021022D01*
X009449Y021175D01*
X009492Y021218D01*
X009544Y021080D02*
X009630Y021080D01*
X009572Y021138D02*
X009486Y021138D01*
X009470Y021196D02*
X009514Y021196D01*
X009631Y021357D02*
X009784Y021204D01*
X009741Y021161D01*
X009588Y021314D01*
X009631Y021357D01*
X009683Y021219D02*
X009769Y021219D01*
X009711Y021277D02*
X009625Y021277D01*
X009609Y021335D02*
X009653Y021335D01*
X009770Y021496D02*
X009923Y021343D01*
X009880Y021300D01*
X009727Y021453D01*
X009770Y021496D01*
X009822Y021358D02*
X009908Y021358D01*
X009850Y021416D02*
X009764Y021416D01*
X009748Y021474D02*
X009792Y021474D01*
X009910Y021636D02*
X010063Y021483D01*
X010020Y021440D01*
X009867Y021593D01*
X009910Y021636D01*
X009962Y021498D02*
X010048Y021498D01*
X009990Y021556D02*
X009904Y021556D01*
X009888Y021614D02*
X009932Y021614D01*
X010049Y021775D02*
X010202Y021622D01*
X010159Y021579D01*
X010006Y021732D01*
X010049Y021775D01*
X010101Y021637D02*
X010187Y021637D01*
X010129Y021695D02*
X010043Y021695D01*
X010027Y021753D02*
X010071Y021753D01*
X010188Y021914D02*
X010341Y021761D01*
X010298Y021718D01*
X010145Y021871D01*
X010188Y021914D01*
X010240Y021776D02*
X010326Y021776D01*
X010268Y021834D02*
X010182Y021834D01*
X010166Y021892D02*
X010210Y021892D01*
X010327Y022053D02*
X010480Y021900D01*
X010437Y021857D01*
X010284Y022010D01*
X010327Y022053D01*
X010379Y021915D02*
X010465Y021915D01*
X010407Y021973D02*
X010321Y021973D01*
X010305Y022031D02*
X010349Y022031D01*
X010466Y022192D02*
X010619Y022039D01*
X010576Y021996D01*
X010423Y022149D01*
X010466Y022192D01*
X010518Y022054D02*
X010604Y022054D01*
X010546Y022112D02*
X010460Y022112D01*
X010444Y022170D02*
X010488Y022170D01*
X010897Y022192D02*
X010940Y022149D01*
X010787Y021996D01*
X010744Y022039D01*
X010897Y022192D01*
X010845Y022054D02*
X010759Y022054D01*
X010817Y022112D02*
X010903Y022112D01*
X010919Y022170D02*
X010875Y022170D01*
X011036Y022053D02*
X011079Y022010D01*
X010926Y021857D01*
X010883Y021900D01*
X011036Y022053D01*
X010984Y021915D02*
X010898Y021915D01*
X010956Y021973D02*
X011042Y021973D01*
X011058Y022031D02*
X011014Y022031D01*
X011175Y021914D02*
X011218Y021871D01*
X011065Y021718D01*
X011022Y021761D01*
X011175Y021914D01*
X011123Y021776D02*
X011037Y021776D01*
X011095Y021834D02*
X011181Y021834D01*
X011197Y021892D02*
X011153Y021892D01*
X011314Y021775D02*
X011357Y021732D01*
X011204Y021579D01*
X011161Y021622D01*
X011314Y021775D01*
X011262Y021637D02*
X011176Y021637D01*
X011234Y021695D02*
X011320Y021695D01*
X011336Y021753D02*
X011292Y021753D01*
X011453Y021636D02*
X011496Y021593D01*
X011343Y021440D01*
X011300Y021483D01*
X011453Y021636D01*
X011401Y021498D02*
X011315Y021498D01*
X011373Y021556D02*
X011459Y021556D01*
X011475Y021614D02*
X011431Y021614D01*
X011592Y021496D02*
X011635Y021453D01*
X011482Y021300D01*
X011439Y021343D01*
X011592Y021496D01*
X011540Y021358D02*
X011454Y021358D01*
X011512Y021416D02*
X011598Y021416D01*
X011614Y021474D02*
X011570Y021474D01*
X011732Y021357D02*
X011775Y021314D01*
X011622Y021161D01*
X011579Y021204D01*
X011732Y021357D01*
X011680Y021219D02*
X011594Y021219D01*
X011652Y021277D02*
X011738Y021277D01*
X011754Y021335D02*
X011710Y021335D01*
X011871Y021218D02*
X011914Y021175D01*
X011761Y021022D01*
X011718Y021065D01*
X011871Y021218D01*
X011819Y021080D02*
X011733Y021080D01*
X011791Y021138D02*
X011877Y021138D01*
X011893Y021196D02*
X011849Y021196D01*
X012010Y021079D02*
X012053Y021036D01*
X011900Y020883D01*
X011857Y020926D01*
X012010Y021079D01*
X011958Y020941D02*
X011872Y020941D01*
X011930Y020999D02*
X012016Y020999D01*
X012032Y021057D02*
X011988Y021057D01*
X012149Y020940D02*
X012192Y020897D01*
X012039Y020744D01*
X011996Y020787D01*
X012149Y020940D01*
X012097Y020802D02*
X012011Y020802D01*
X012069Y020860D02*
X012155Y020860D01*
X012171Y020918D02*
X012127Y020918D01*
X012288Y020800D02*
X012331Y020757D01*
X012178Y020604D01*
X012135Y020647D01*
X012288Y020800D01*
X012236Y020662D02*
X012150Y020662D01*
X012208Y020720D02*
X012294Y020720D01*
X012310Y020778D02*
X012266Y020778D01*
X012428Y020661D02*
X012471Y020618D01*
X012318Y020465D01*
X012275Y020508D01*
X012428Y020661D01*
X012376Y020523D02*
X012290Y020523D01*
X012348Y020581D02*
X012434Y020581D01*
X012450Y020639D02*
X012406Y020639D01*
X012567Y020522D02*
X012610Y020479D01*
X012457Y020326D01*
X012414Y020369D01*
X012567Y020522D01*
X012515Y020384D02*
X012429Y020384D01*
X012487Y020442D02*
X012573Y020442D01*
X012589Y020500D02*
X012545Y020500D01*
X012706Y020383D02*
X012749Y020340D01*
X012596Y020187D01*
X012553Y020230D01*
X012706Y020383D01*
X012654Y020245D02*
X012568Y020245D01*
X012626Y020303D02*
X012712Y020303D01*
X012728Y020361D02*
X012684Y020361D01*
X012845Y020244D02*
X012888Y020201D01*
X012735Y020048D01*
X012692Y020091D01*
X012845Y020244D01*
X012793Y020106D02*
X012707Y020106D01*
X012765Y020164D02*
X012851Y020164D01*
X012867Y020222D02*
X012823Y020222D01*
X012984Y020105D02*
X013027Y020062D01*
X012874Y019909D01*
X012831Y019952D01*
X012984Y020105D01*
X012932Y019967D02*
X012846Y019967D01*
X012904Y020025D02*
X012990Y020025D01*
X013006Y020083D02*
X012962Y020083D01*
X012874Y019784D02*
X013027Y019631D01*
X012984Y019588D01*
X012831Y019741D01*
X012874Y019784D01*
X012926Y019646D02*
X013012Y019646D01*
X012954Y019704D02*
X012868Y019704D01*
X012852Y019762D02*
X012896Y019762D01*
X012735Y019645D02*
X012888Y019492D01*
X012845Y019449D01*
X012692Y019602D01*
X012735Y019645D01*
X012787Y019507D02*
X012873Y019507D01*
X012815Y019565D02*
X012729Y019565D01*
X012713Y019623D02*
X012757Y019623D01*
X012596Y019506D02*
X012749Y019353D01*
X012706Y019310D01*
X012553Y019463D01*
X012596Y019506D01*
X012648Y019368D02*
X012734Y019368D01*
X012676Y019426D02*
X012590Y019426D01*
X012574Y019484D02*
X012618Y019484D01*
X012457Y019367D02*
X012610Y019214D01*
X012567Y019171D01*
X012414Y019324D01*
X012457Y019367D01*
X012509Y019229D02*
X012595Y019229D01*
X012537Y019287D02*
X012451Y019287D01*
X012435Y019345D02*
X012479Y019345D01*
X012318Y019228D02*
X012471Y019075D01*
X012428Y019032D01*
X012275Y019185D01*
X012318Y019228D01*
X012370Y019090D02*
X012456Y019090D01*
X012398Y019148D02*
X012312Y019148D01*
X012296Y019206D02*
X012340Y019206D01*
X012178Y019088D02*
X012331Y018935D01*
X012288Y018892D01*
X012135Y019045D01*
X012178Y019088D01*
X012230Y018950D02*
X012316Y018950D01*
X012258Y019008D02*
X012172Y019008D01*
X012156Y019066D02*
X012200Y019066D01*
X012039Y018949D02*
X012192Y018796D01*
X012149Y018753D01*
X011996Y018906D01*
X012039Y018949D01*
X012091Y018811D02*
X012177Y018811D01*
X012119Y018869D02*
X012033Y018869D01*
X012017Y018927D02*
X012061Y018927D01*
X011900Y018810D02*
X012053Y018657D01*
X012010Y018614D01*
X011857Y018767D01*
X011900Y018810D01*
X011952Y018672D02*
X012038Y018672D01*
X011980Y018730D02*
X011894Y018730D01*
X011878Y018788D02*
X011922Y018788D01*
X011761Y018671D02*
X011914Y018518D01*
X011871Y018475D01*
X011718Y018628D01*
X011761Y018671D01*
X011813Y018533D02*
X011899Y018533D01*
X011841Y018591D02*
X011755Y018591D01*
X011739Y018649D02*
X011783Y018649D01*
X011622Y018532D02*
X011775Y018379D01*
X011732Y018336D01*
X011579Y018489D01*
X011622Y018532D01*
X011674Y018394D02*
X011760Y018394D01*
X011702Y018452D02*
X011616Y018452D01*
X011600Y018510D02*
X011644Y018510D01*
X011482Y018392D02*
X011635Y018239D01*
X011592Y018196D01*
X011439Y018349D01*
X011482Y018392D01*
X011534Y018254D02*
X011620Y018254D01*
X011562Y018312D02*
X011476Y018312D01*
X011460Y018370D02*
X011504Y018370D01*
X011343Y018253D02*
X011496Y018100D01*
X011453Y018057D01*
X011300Y018210D01*
X011343Y018253D01*
X011395Y018115D02*
X011481Y018115D01*
X011423Y018173D02*
X011337Y018173D01*
X011321Y018231D02*
X011365Y018231D01*
X011204Y018114D02*
X011357Y017961D01*
X011314Y017918D01*
X011161Y018071D01*
X011204Y018114D01*
X011256Y017976D02*
X011342Y017976D01*
X011284Y018034D02*
X011198Y018034D01*
X011182Y018092D02*
X011226Y018092D01*
X011065Y017975D02*
X011218Y017822D01*
X011175Y017779D01*
X011022Y017932D01*
X011065Y017975D01*
X011117Y017837D02*
X011203Y017837D01*
X011145Y017895D02*
X011059Y017895D01*
X011043Y017953D02*
X011087Y017953D01*
X010926Y017836D02*
X011079Y017683D01*
X011036Y017640D01*
X010883Y017793D01*
X010926Y017836D01*
X010978Y017698D02*
X011064Y017698D01*
X011006Y017756D02*
X010920Y017756D01*
X010904Y017814D02*
X010948Y017814D01*
X010787Y017696D02*
X010940Y017543D01*
X010897Y017500D01*
X010744Y017653D01*
X010787Y017696D01*
X010839Y017558D02*
X010925Y017558D01*
X010867Y017616D02*
X010781Y017616D01*
X010765Y017674D02*
X010809Y017674D01*
X010619Y017653D02*
X010576Y017696D01*
X010619Y017653D02*
X010466Y017500D01*
X010423Y017543D01*
X010576Y017696D01*
X010524Y017558D02*
X010438Y017558D01*
X010496Y017616D02*
X010582Y017616D01*
X010598Y017674D02*
X010554Y017674D01*
X010480Y017793D02*
X010437Y017836D01*
X010480Y017793D02*
X010327Y017640D01*
X010284Y017683D01*
X010437Y017836D01*
X010385Y017698D02*
X010299Y017698D01*
X010357Y017756D02*
X010443Y017756D01*
X010459Y017814D02*
X010415Y017814D01*
X010341Y017932D02*
X010298Y017975D01*
X010341Y017932D02*
X010188Y017779D01*
X010145Y017822D01*
X010298Y017975D01*
X010246Y017837D02*
X010160Y017837D01*
X010218Y017895D02*
X010304Y017895D01*
X010320Y017953D02*
X010276Y017953D01*
X010202Y018071D02*
X010159Y018114D01*
X010202Y018071D02*
X010049Y017918D01*
X010006Y017961D01*
X010159Y018114D01*
X010107Y017976D02*
X010021Y017976D01*
X010079Y018034D02*
X010165Y018034D01*
X010181Y018092D02*
X010137Y018092D01*
X010063Y018210D02*
X010020Y018253D01*
X010063Y018210D02*
X009910Y018057D01*
X009867Y018100D01*
X010020Y018253D01*
X009968Y018115D02*
X009882Y018115D01*
X009940Y018173D02*
X010026Y018173D01*
X010042Y018231D02*
X009998Y018231D01*
X009923Y018349D02*
X009880Y018392D01*
X009923Y018349D02*
X009770Y018196D01*
X009727Y018239D01*
X009880Y018392D01*
X009828Y018254D02*
X009742Y018254D01*
X009800Y018312D02*
X009886Y018312D01*
X009902Y018370D02*
X009858Y018370D01*
X009784Y018489D02*
X009741Y018532D01*
X009784Y018489D02*
X009631Y018336D01*
X009588Y018379D01*
X009741Y018532D01*
X009689Y018394D02*
X009603Y018394D01*
X009661Y018452D02*
X009747Y018452D01*
X009763Y018510D02*
X009719Y018510D01*
X009645Y018628D02*
X009602Y018671D01*
X009645Y018628D02*
X009492Y018475D01*
X009449Y018518D01*
X009602Y018671D01*
X009550Y018533D02*
X009464Y018533D01*
X009522Y018591D02*
X009608Y018591D01*
X009624Y018649D02*
X009580Y018649D01*
D41*
X016832Y014013D03*
X017738Y014013D03*
D42*
X020879Y004825D03*
X020879Y003325D03*
X022441Y003325D03*
X022441Y004825D03*
M02*
