G75*
%MOIN*%
%OFA0B0*%
%FSLAX24Y24*%
%IPPOS*%
%LPD*%
%AMOC8*
5,1,8,0,0,1.08239X$1,22.5*
%
%ADD10C,0.0030*%
%ADD11C,0.0060*%
%ADD12C,0.0080*%
%ADD13C,0.0050*%
%ADD14C,0.0040*%
%ADD15C,0.0160*%
%ADD16C,0.0079*%
%ADD17C,0.0100*%
D10*
X001822Y005955D02*
X001870Y005955D01*
X001918Y006003D01*
X001918Y006245D01*
X001870Y006245D02*
X001967Y006245D01*
X002068Y006148D02*
X002165Y006245D01*
X002165Y005955D01*
X002261Y005955D02*
X002068Y005955D01*
X001822Y005955D02*
X001773Y006003D01*
X001353Y008819D02*
X001062Y008819D01*
X001062Y008964D01*
X001111Y009012D01*
X001207Y009012D01*
X001256Y008964D01*
X001256Y008819D01*
X001256Y008915D02*
X001353Y009012D01*
X001353Y009113D02*
X001353Y009307D01*
X001353Y009210D02*
X001062Y009210D01*
X001159Y009113D01*
X001159Y009408D02*
X001111Y009408D01*
X001062Y009456D01*
X001062Y009553D01*
X001111Y009601D01*
X001159Y009601D01*
X001207Y009553D01*
X001207Y009456D01*
X001159Y009408D01*
X001207Y009456D02*
X001256Y009408D01*
X001304Y009408D01*
X001353Y009456D01*
X001353Y009553D01*
X001304Y009601D01*
X001256Y009601D01*
X001207Y009553D01*
X003300Y011340D02*
X003493Y011340D01*
X003397Y011340D02*
X003397Y011630D01*
X003300Y011533D01*
X003595Y011582D02*
X003643Y011630D01*
X003740Y011630D01*
X003788Y011582D01*
X003788Y011533D01*
X003595Y011340D01*
X003788Y011340D01*
X003889Y011437D02*
X003986Y011340D01*
X004083Y011437D01*
X004083Y011630D01*
X003889Y011630D02*
X003889Y011437D01*
X003913Y012340D02*
X003720Y012340D01*
X003913Y012533D01*
X003913Y012582D01*
X003865Y012630D01*
X003768Y012630D01*
X003720Y012582D01*
X003522Y012630D02*
X003522Y012340D01*
X003618Y012340D02*
X003425Y012340D01*
X003425Y012533D02*
X003522Y012630D01*
X004014Y012630D02*
X004014Y012437D01*
X004111Y012340D01*
X004208Y012437D01*
X004208Y012630D01*
X004159Y013340D02*
X004208Y013388D01*
X004208Y013582D01*
X004159Y013630D01*
X004014Y013630D01*
X004014Y013340D01*
X004159Y013340D01*
X003913Y013340D02*
X003913Y013630D01*
X003720Y013630D02*
X003720Y013340D01*
X003618Y013388D02*
X003618Y013485D01*
X003522Y013485D01*
X003618Y013388D02*
X003570Y013340D01*
X003473Y013340D01*
X003425Y013388D01*
X003425Y013582D01*
X003473Y013630D01*
X003570Y013630D01*
X003618Y013582D01*
X003720Y013630D02*
X003913Y013340D01*
X003865Y013965D02*
X003913Y014013D01*
X003913Y014207D01*
X003865Y014255D01*
X003720Y014255D01*
X003720Y013965D01*
X003865Y013965D01*
X004014Y013965D02*
X004014Y014013D01*
X004208Y014207D01*
X004208Y014255D01*
X004014Y014255D01*
X004425Y014255D02*
X004425Y013965D01*
X004425Y014062D02*
X004570Y014062D01*
X004618Y014110D01*
X004618Y014207D01*
X004570Y014255D01*
X004425Y014255D01*
X004720Y014255D02*
X004720Y013965D01*
X004865Y013965D01*
X004913Y014013D01*
X004913Y014207D01*
X004865Y014255D01*
X004720Y014255D01*
X005014Y014110D02*
X005014Y014013D01*
X005063Y013965D01*
X005159Y013965D01*
X005208Y014013D01*
X005208Y014062D01*
X005159Y014110D01*
X005014Y014110D01*
X005111Y014207D01*
X005208Y014255D01*
X005737Y015063D02*
X005979Y015063D01*
X006028Y015112D01*
X006028Y015208D01*
X005979Y015257D01*
X005737Y015257D01*
X005737Y015358D02*
X005737Y015551D01*
X005786Y015551D01*
X005979Y015358D01*
X006028Y015358D01*
X006363Y015005D02*
X006556Y015005D01*
X006459Y015005D02*
X006459Y014715D01*
X006657Y014715D02*
X006851Y014715D01*
X006754Y014715D02*
X006754Y015005D01*
X006657Y014908D01*
X007895Y016132D02*
X008100Y016337D01*
X007963Y016337D01*
X007826Y016200D02*
X007963Y016063D01*
X007755Y016271D02*
X007618Y016408D01*
X007687Y016340D02*
X007892Y016545D01*
X007755Y016545D01*
X007718Y016651D02*
X007718Y016719D01*
X007649Y016788D01*
X007581Y016788D01*
X007444Y016651D01*
X007444Y016582D01*
X007512Y016514D01*
X007581Y016514D01*
X007348Y017727D02*
X007075Y017727D01*
X007040Y017693D01*
X007003Y017799D02*
X006935Y017799D01*
X006866Y017867D01*
X006866Y017936D01*
X007003Y018072D01*
X007072Y018072D01*
X007140Y018004D01*
X007140Y017936D01*
X007246Y017898D02*
X007383Y017761D01*
X007348Y017727D01*
X009012Y016085D02*
X009080Y016017D01*
X009046Y016051D02*
X009251Y016256D01*
X009217Y016290D02*
X009286Y016222D01*
X009322Y016117D02*
X009185Y015980D01*
X009185Y015912D01*
X009253Y015843D01*
X009322Y015843D01*
X009359Y015738D02*
X009496Y015601D01*
X009428Y015669D02*
X009633Y015874D01*
X009496Y015874D01*
X009459Y015980D02*
X009459Y016049D01*
X009390Y016117D01*
X009322Y016117D01*
X010219Y017066D02*
X010493Y017066D01*
X010527Y017101D01*
X010527Y017169D01*
X010459Y017237D01*
X010390Y017237D01*
X010319Y017309D02*
X010319Y017377D01*
X010251Y017446D01*
X010182Y017446D01*
X010045Y017309D01*
X010045Y017241D01*
X010114Y017172D01*
X010182Y017172D01*
X010219Y017066D02*
X010356Y016930D01*
X009941Y017345D02*
X009872Y017414D01*
X009906Y017379D02*
X010112Y017585D01*
X010077Y017619D02*
X010146Y017551D01*
X012198Y016133D02*
X012403Y016338D01*
X012506Y016236D01*
X012506Y016167D01*
X012438Y016099D01*
X012369Y016099D01*
X012267Y016202D01*
X012335Y016133D02*
X012335Y015996D01*
X012441Y015959D02*
X012441Y015891D01*
X012509Y015822D01*
X012578Y015822D01*
X012612Y015856D01*
X012612Y015925D01*
X012509Y016027D01*
X012441Y015959D01*
X012509Y016027D02*
X012646Y016027D01*
X012749Y015993D01*
X012907Y016425D02*
X012941Y016459D01*
X013214Y016459D01*
X013249Y016493D01*
X013112Y016630D01*
X013006Y016667D02*
X012938Y016599D01*
X012869Y016599D01*
X012767Y016702D01*
X012835Y016633D02*
X012835Y016496D01*
X012698Y016633D02*
X012903Y016838D01*
X013006Y016736D01*
X013006Y016667D01*
X014967Y015406D02*
X015064Y015310D01*
X015016Y015208D02*
X015209Y015208D01*
X015258Y015160D01*
X015258Y015063D01*
X015209Y015015D01*
X015016Y015015D01*
X014967Y015063D01*
X014967Y015160D01*
X015016Y015208D01*
X015161Y015112D02*
X015258Y015208D01*
X015258Y015310D02*
X015258Y015503D01*
X015258Y015406D02*
X014967Y015406D01*
X016700Y014718D02*
X016700Y014428D01*
X016845Y014428D01*
X016893Y014476D01*
X016893Y014669D01*
X016845Y014718D01*
X016700Y014718D01*
X016995Y014669D02*
X017043Y014718D01*
X017140Y014718D01*
X017188Y014669D01*
X017188Y014621D01*
X017140Y014573D01*
X017188Y014524D01*
X017188Y014476D01*
X017140Y014428D01*
X017043Y014428D01*
X016995Y014476D01*
X017091Y014573D02*
X017140Y014573D01*
X017738Y014630D02*
X017738Y014340D01*
X017738Y014437D02*
X017883Y014437D01*
X017931Y014485D01*
X017931Y014582D01*
X017883Y014630D01*
X017738Y014630D01*
X018032Y014630D02*
X018032Y014340D01*
X018032Y014485D02*
X018129Y014485D01*
X018032Y014630D02*
X018226Y014630D01*
X018327Y014630D02*
X018520Y014630D01*
X018520Y014582D01*
X018327Y014388D01*
X018327Y014340D01*
X018342Y013630D02*
X018148Y013630D01*
X018148Y013340D01*
X018342Y013340D01*
X018443Y013388D02*
X018491Y013340D01*
X018588Y013340D01*
X018636Y013388D01*
X018636Y013485D01*
X018588Y013533D01*
X018540Y013533D01*
X018443Y013485D01*
X018443Y013630D01*
X018636Y013630D01*
X018245Y013485D02*
X018148Y013485D01*
X018047Y013485D02*
X018047Y013582D01*
X017999Y013630D01*
X017854Y013630D01*
X017854Y013340D01*
X017854Y013437D02*
X017999Y013437D01*
X018047Y013485D01*
X017752Y013630D02*
X017559Y013340D01*
X017458Y013388D02*
X017409Y013340D01*
X017313Y013340D01*
X017264Y013388D01*
X017458Y013582D01*
X017458Y013388D01*
X017264Y013388D02*
X017264Y013582D01*
X017313Y013630D01*
X017409Y013630D01*
X017458Y013582D01*
X017163Y013630D02*
X016970Y013630D01*
X016970Y013340D01*
X016970Y013485D02*
X017066Y013485D01*
X016868Y013485D02*
X016868Y013582D01*
X016820Y013630D01*
X016675Y013630D01*
X016675Y013340D01*
X016675Y013437D02*
X016820Y013437D01*
X016868Y013485D01*
X017738Y012630D02*
X017738Y012485D01*
X017834Y012533D01*
X017883Y012533D01*
X017931Y012485D01*
X017931Y012388D01*
X017883Y012340D01*
X017786Y012340D01*
X017738Y012388D01*
X017738Y012630D02*
X017931Y012630D01*
X018032Y012630D02*
X018032Y012437D01*
X018129Y012340D01*
X018226Y012437D01*
X018226Y012630D01*
X018159Y011630D02*
X018014Y011630D01*
X018014Y011340D01*
X018159Y011340D01*
X018208Y011388D01*
X018208Y011582D01*
X018159Y011630D01*
X017913Y011630D02*
X017913Y011340D01*
X017720Y011630D01*
X017720Y011340D01*
X017618Y011388D02*
X017618Y011485D01*
X017522Y011485D01*
X017618Y011388D02*
X017570Y011340D01*
X017473Y011340D01*
X017425Y011388D01*
X017425Y011582D01*
X017473Y011630D01*
X017570Y011630D01*
X017618Y011582D01*
X016288Y011519D02*
X016288Y011471D01*
X016240Y011423D01*
X016288Y011374D01*
X016288Y011326D01*
X016240Y011278D01*
X016143Y011278D01*
X016095Y011326D01*
X016191Y011423D02*
X016240Y011423D01*
X016288Y011519D02*
X016240Y011568D01*
X016143Y011568D01*
X016095Y011519D01*
X015993Y011568D02*
X015800Y011568D01*
X015897Y011568D02*
X015897Y011278D01*
X015359Y011244D02*
X015359Y011341D01*
X015311Y011389D01*
X015069Y011389D01*
X015166Y011490D02*
X015069Y011587D01*
X015359Y011587D01*
X015359Y011490D02*
X015359Y011684D01*
X015214Y011785D02*
X015214Y011979D01*
X015069Y011930D02*
X015214Y011785D01*
X015359Y011930D02*
X015069Y011930D01*
X015069Y011196D02*
X015311Y011196D01*
X015359Y011244D01*
X013236Y010411D02*
X013236Y010121D01*
X013332Y010121D02*
X013139Y010121D01*
X013038Y010169D02*
X013038Y010411D01*
X013139Y010315D02*
X013236Y010411D01*
X013038Y010169D02*
X012989Y010121D01*
X012893Y010121D01*
X012844Y010169D01*
X012844Y010411D01*
X011990Y008391D02*
X012039Y008342D01*
X012039Y008246D01*
X011990Y008197D01*
X011990Y008096D02*
X012039Y008048D01*
X012039Y007951D01*
X011990Y007903D01*
X011797Y007903D01*
X011749Y007951D01*
X011749Y008048D01*
X011797Y008096D01*
X011797Y008197D02*
X011749Y008246D01*
X011749Y008342D01*
X011797Y008391D01*
X011845Y008391D01*
X011894Y008342D01*
X011942Y008391D01*
X011990Y008391D01*
X011894Y008342D02*
X011894Y008294D01*
X008626Y011844D02*
X008336Y011844D01*
X008336Y011990D01*
X008384Y012038D01*
X008578Y012038D01*
X008626Y011990D01*
X008626Y011844D01*
X008626Y012139D02*
X008433Y012333D01*
X008384Y012333D01*
X008336Y012284D01*
X008336Y012187D01*
X008384Y012139D01*
X008626Y012139D02*
X008626Y012333D01*
X007958Y010416D02*
X007958Y010222D01*
X007958Y010319D02*
X007667Y010319D01*
X007764Y010222D01*
X007667Y010121D02*
X007667Y009928D01*
X007958Y009928D01*
X007812Y009928D02*
X007812Y010024D01*
X005671Y009754D02*
X005623Y009803D01*
X005574Y009803D01*
X005526Y009754D01*
X005526Y009609D01*
X005623Y009609D01*
X005671Y009658D01*
X005671Y009754D01*
X005526Y009609D02*
X005429Y009706D01*
X005381Y009803D01*
X005429Y009508D02*
X005381Y009460D01*
X005381Y009363D01*
X005429Y009315D01*
X005623Y009315D01*
X005671Y009363D01*
X005671Y009460D01*
X005623Y009508D01*
X004936Y009513D02*
X004936Y009319D01*
X004742Y009513D01*
X004694Y009513D01*
X004646Y009464D01*
X004646Y009368D01*
X004694Y009319D01*
X004646Y009218D02*
X004887Y009218D01*
X004936Y009170D01*
X004936Y009073D01*
X004887Y009025D01*
X004646Y009025D01*
X004769Y011564D02*
X004914Y011564D01*
X004962Y011612D01*
X004962Y011806D01*
X004914Y011854D01*
X004769Y011854D01*
X004769Y011564D01*
X005063Y011564D02*
X005257Y011564D01*
X005160Y011564D02*
X005160Y011854D01*
X005063Y011757D01*
X006095Y012615D02*
X006337Y012615D01*
X006385Y012663D01*
X006385Y012760D01*
X006337Y012809D01*
X006095Y012809D01*
X006240Y012910D02*
X006240Y013055D01*
X006288Y013103D01*
X006337Y013103D01*
X006385Y013055D01*
X006385Y012958D01*
X006337Y012910D01*
X006240Y012910D01*
X006143Y013006D01*
X006095Y013103D01*
X008272Y014715D02*
X008272Y015005D01*
X008368Y015005D02*
X008175Y015005D01*
X008470Y014957D02*
X008518Y015005D01*
X008615Y015005D01*
X008663Y014957D01*
X008663Y014908D01*
X008470Y014715D01*
X008663Y014715D01*
X005208Y017513D02*
X005159Y017465D01*
X005063Y017465D01*
X005014Y017513D01*
X005014Y017610D02*
X005111Y017658D01*
X005159Y017658D01*
X005208Y017610D01*
X005208Y017513D01*
X005014Y017610D02*
X005014Y017755D01*
X005208Y017755D01*
X004913Y017707D02*
X004865Y017755D01*
X004720Y017755D01*
X004720Y017465D01*
X004865Y017465D01*
X004913Y017513D01*
X004913Y017707D01*
X004618Y017707D02*
X004618Y017610D01*
X004570Y017562D01*
X004425Y017562D01*
X004425Y017465D02*
X004425Y017755D01*
X004570Y017755D01*
X004618Y017707D01*
X004208Y017755D02*
X004014Y017755D01*
X004014Y017610D01*
X004111Y017658D01*
X004159Y017658D01*
X004208Y017610D01*
X004208Y017513D01*
X004159Y017465D01*
X004063Y017465D01*
X004014Y017513D01*
X003913Y017513D02*
X003865Y017465D01*
X003768Y017465D01*
X003720Y017513D01*
X003720Y017707D01*
X003768Y017755D01*
X003865Y017755D01*
X003913Y017707D01*
X003618Y017707D02*
X003618Y017610D01*
X003570Y017562D01*
X003425Y017562D01*
X003425Y017465D02*
X003425Y017755D01*
X003570Y017755D01*
X003618Y017707D01*
X003768Y018278D02*
X003865Y018278D01*
X003913Y018326D01*
X004014Y018423D02*
X004208Y018423D01*
X004159Y018278D02*
X004159Y018568D01*
X004014Y018423D01*
X003913Y018519D02*
X003865Y018568D01*
X003768Y018568D01*
X003720Y018519D01*
X003720Y018326D01*
X003768Y018278D01*
X003618Y018423D02*
X003570Y018374D01*
X003425Y018374D01*
X003425Y018278D02*
X003425Y018568D01*
X003570Y018568D01*
X003618Y018519D01*
X003618Y018423D01*
X003768Y019340D02*
X003865Y019340D01*
X003913Y019388D01*
X004014Y019388D02*
X004063Y019340D01*
X004159Y019340D01*
X004208Y019388D01*
X004208Y019437D01*
X004159Y019485D01*
X004111Y019485D01*
X004159Y019485D02*
X004208Y019533D01*
X004208Y019582D01*
X004159Y019630D01*
X004063Y019630D01*
X004014Y019582D01*
X003913Y019582D02*
X003865Y019630D01*
X003768Y019630D01*
X003720Y019582D01*
X003720Y019388D01*
X003768Y019340D01*
X003618Y019485D02*
X003570Y019437D01*
X003425Y019437D01*
X003425Y019340D02*
X003425Y019630D01*
X003570Y019630D01*
X003618Y019582D01*
X003618Y019485D01*
X003768Y020340D02*
X003865Y020340D01*
X003913Y020388D01*
X004014Y020340D02*
X004208Y020533D01*
X004208Y020582D01*
X004159Y020630D01*
X004063Y020630D01*
X004014Y020582D01*
X003913Y020582D02*
X003865Y020630D01*
X003768Y020630D01*
X003720Y020582D01*
X003720Y020388D01*
X003768Y020340D01*
X003618Y020485D02*
X003570Y020437D01*
X003425Y020437D01*
X003425Y020340D02*
X003425Y020630D01*
X003570Y020630D01*
X003618Y020582D01*
X003618Y020485D01*
X004014Y020340D02*
X004208Y020340D01*
X004208Y021340D02*
X004014Y021340D01*
X004111Y021340D02*
X004111Y021630D01*
X004014Y021533D01*
X003913Y021582D02*
X003865Y021630D01*
X003768Y021630D01*
X003720Y021582D01*
X003720Y021388D01*
X003768Y021340D01*
X003865Y021340D01*
X003913Y021388D01*
X003618Y021485D02*
X003570Y021437D01*
X003425Y021437D01*
X003425Y021340D02*
X003425Y021630D01*
X003570Y021630D01*
X003618Y021582D01*
X003618Y021485D01*
X003768Y022340D02*
X003865Y022340D01*
X003913Y022388D01*
X004014Y022388D02*
X004208Y022582D01*
X004208Y022388D01*
X004159Y022340D01*
X004063Y022340D01*
X004014Y022388D01*
X004014Y022582D01*
X004063Y022630D01*
X004159Y022630D01*
X004208Y022582D01*
X003913Y022582D02*
X003865Y022630D01*
X003768Y022630D01*
X003720Y022582D01*
X003720Y022388D01*
X003768Y022340D01*
X003618Y022485D02*
X003618Y022582D01*
X003570Y022630D01*
X003425Y022630D01*
X003425Y022340D01*
X003425Y022437D02*
X003570Y022437D01*
X003618Y022485D01*
X004865Y024732D02*
X004694Y024903D01*
X004831Y025040D02*
X005002Y024869D01*
X005002Y024800D01*
X004933Y024732D01*
X004865Y024732D01*
X005107Y024906D02*
X005244Y025043D01*
X005176Y024974D02*
X004971Y025179D01*
X004971Y025043D01*
X005145Y025285D02*
X005145Y025354D01*
X005213Y025422D01*
X005282Y025422D01*
X005282Y025148D01*
X005350Y025148D01*
X005418Y025217D01*
X005418Y025285D01*
X005282Y025422D01*
X005145Y025285D02*
X005282Y025148D01*
X005541Y020078D02*
X005492Y020030D01*
X005492Y019933D01*
X005541Y019885D01*
X005589Y019885D01*
X005637Y019933D01*
X005637Y020078D01*
X005541Y020078D02*
X005734Y020078D01*
X005783Y020030D01*
X005783Y019933D01*
X005734Y019885D01*
X005783Y019783D02*
X005686Y019687D01*
X005686Y019735D02*
X005686Y019590D01*
X005783Y019590D02*
X005492Y019590D01*
X005492Y019735D01*
X005541Y019783D01*
X005637Y019783D01*
X005686Y019735D01*
X001367Y015686D02*
X001174Y015686D01*
X001174Y015541D01*
X001271Y015590D01*
X001319Y015590D01*
X001367Y015541D01*
X001367Y015444D01*
X001319Y015396D01*
X001222Y015396D01*
X001174Y015444D01*
X001073Y015396D02*
X000879Y015396D01*
X000976Y015396D02*
X000976Y015686D01*
X000879Y015590D01*
X000778Y015686D02*
X000778Y015444D01*
X000730Y015396D01*
X000633Y015396D01*
X000584Y015444D01*
X000584Y015686D01*
X003425Y014255D02*
X003425Y013965D01*
X003425Y014062D02*
X003570Y014062D01*
X003618Y014110D01*
X003618Y014207D01*
X003570Y014255D01*
X003425Y014255D01*
X007334Y006818D02*
X007431Y006818D01*
X007383Y006818D02*
X007383Y006576D01*
X007334Y006528D01*
X007286Y006528D01*
X007238Y006576D01*
X007532Y006673D02*
X007726Y006673D01*
X007677Y006818D02*
X007532Y006673D01*
X007677Y006528D02*
X007677Y006818D01*
X017738Y015340D02*
X017738Y015630D01*
X017883Y015630D01*
X017931Y015582D01*
X017931Y015485D01*
X017883Y015437D01*
X017738Y015437D01*
X018032Y015485D02*
X018129Y015485D01*
X018032Y015340D02*
X018032Y015630D01*
X018226Y015630D01*
X018327Y015485D02*
X018472Y015485D01*
X018520Y015437D01*
X018520Y015388D01*
X018472Y015340D01*
X018375Y015340D01*
X018327Y015388D01*
X018327Y015485D01*
X018424Y015582D01*
X018520Y015630D01*
X018472Y016340D02*
X018375Y016340D01*
X018327Y016388D01*
X018327Y016485D02*
X018424Y016533D01*
X018472Y016533D01*
X018520Y016485D01*
X018520Y016388D01*
X018472Y016340D01*
X018327Y016485D02*
X018327Y016630D01*
X018520Y016630D01*
X018226Y016630D02*
X018032Y016630D01*
X018032Y016340D01*
X018032Y016485D02*
X018129Y016485D01*
X017931Y016485D02*
X017883Y016437D01*
X017738Y016437D01*
X017738Y016340D02*
X017738Y016630D01*
X017883Y016630D01*
X017931Y016582D01*
X017931Y016485D01*
X018032Y017028D02*
X018032Y017318D01*
X018226Y017318D01*
X018129Y017173D02*
X018032Y017173D01*
X017931Y017173D02*
X017883Y017124D01*
X017738Y017124D01*
X017738Y017028D02*
X017738Y017318D01*
X017883Y017318D01*
X017931Y017269D01*
X017931Y017173D01*
X018327Y017173D02*
X018520Y017173D01*
X018472Y017028D02*
X018472Y017318D01*
X018327Y017173D01*
X018375Y018340D02*
X018327Y018388D01*
X018375Y018340D02*
X018472Y018340D01*
X018520Y018388D01*
X018520Y018437D01*
X018472Y018485D01*
X018424Y018485D01*
X018472Y018485D02*
X018520Y018533D01*
X018520Y018582D01*
X018472Y018630D01*
X018375Y018630D01*
X018327Y018582D01*
X018226Y018630D02*
X018032Y018630D01*
X018032Y018340D01*
X018032Y018485D02*
X018129Y018485D01*
X017931Y018485D02*
X017883Y018437D01*
X017738Y018437D01*
X017738Y018340D02*
X017738Y018630D01*
X017883Y018630D01*
X017931Y018582D01*
X017931Y018485D01*
X018032Y019340D02*
X018032Y019630D01*
X018226Y019630D01*
X018327Y019582D02*
X018375Y019630D01*
X018472Y019630D01*
X018520Y019582D01*
X018520Y019533D01*
X018327Y019340D01*
X018520Y019340D01*
X018129Y019485D02*
X018032Y019485D01*
X017931Y019485D02*
X017883Y019437D01*
X017738Y019437D01*
X017738Y019340D02*
X017738Y019630D01*
X017883Y019630D01*
X017931Y019582D01*
X017931Y019485D01*
X018032Y020340D02*
X018032Y020630D01*
X018226Y020630D01*
X018327Y020533D02*
X018424Y020630D01*
X018424Y020340D01*
X018520Y020340D02*
X018327Y020340D01*
X018129Y020485D02*
X018032Y020485D01*
X017931Y020485D02*
X017883Y020437D01*
X017738Y020437D01*
X017738Y020340D02*
X017738Y020630D01*
X017883Y020630D01*
X017931Y020582D01*
X017931Y020485D01*
X018032Y021340D02*
X018226Y021340D01*
X018327Y021340D02*
X018520Y021340D01*
X018424Y021340D02*
X018424Y021630D01*
X018327Y021533D01*
X018226Y021630D02*
X018032Y021630D01*
X018032Y021340D01*
X018032Y021485D02*
X018129Y021485D01*
X017931Y021485D02*
X017883Y021437D01*
X017738Y021437D01*
X017738Y021340D02*
X017738Y021630D01*
X017883Y021630D01*
X017931Y021582D01*
X017931Y021485D01*
X018032Y022340D02*
X018226Y022340D01*
X018327Y022388D02*
X018520Y022582D01*
X018520Y022388D01*
X018472Y022340D01*
X018375Y022340D01*
X018327Y022388D01*
X018327Y022582D01*
X018375Y022630D01*
X018472Y022630D01*
X018520Y022582D01*
X018226Y022630D02*
X018032Y022630D01*
X018032Y022340D01*
X018032Y022485D02*
X018129Y022485D01*
X017931Y022485D02*
X017883Y022437D01*
X017738Y022437D01*
X017738Y022340D02*
X017738Y022630D01*
X017883Y022630D01*
X017931Y022582D01*
X017931Y022485D01*
X017684Y023990D02*
X017442Y023990D01*
X017442Y024183D02*
X017684Y024183D01*
X017733Y024135D01*
X017733Y024038D01*
X017684Y023990D01*
X017733Y024285D02*
X017733Y024478D01*
X017733Y024381D02*
X017442Y024381D01*
X017539Y024285D01*
X017491Y024579D02*
X017442Y024628D01*
X017442Y024724D01*
X017491Y024773D01*
X017539Y024773D01*
X017733Y024579D01*
X017733Y024773D01*
X017892Y025144D02*
X018085Y025144D01*
X018134Y025192D01*
X018134Y025289D01*
X018085Y025337D01*
X018134Y025438D02*
X018134Y025632D01*
X018134Y025535D02*
X017843Y025535D01*
X017940Y025438D01*
X017892Y025337D02*
X017843Y025289D01*
X017843Y025192D01*
X017892Y025144D01*
X017892Y025733D02*
X017843Y025781D01*
X017843Y025878D01*
X017892Y025926D01*
X018085Y025926D01*
X018134Y025878D01*
X018134Y025781D01*
X018085Y025733D01*
X017989Y025781D02*
X017989Y025926D01*
X017989Y025781D02*
X017940Y025733D01*
X017892Y025733D01*
X015303Y024522D02*
X015254Y024570D01*
X015206Y024570D01*
X015157Y024522D01*
X015157Y024377D01*
X015254Y024377D01*
X015303Y024425D01*
X015303Y024522D01*
X015157Y024377D02*
X015061Y024474D01*
X015012Y024570D01*
X015012Y024179D02*
X015303Y024179D01*
X015303Y024082D02*
X015303Y024276D01*
X015109Y024082D02*
X015012Y024179D01*
X015061Y023981D02*
X015012Y023933D01*
X015012Y023836D01*
X015061Y023788D01*
X015254Y023788D01*
X015303Y023836D01*
X015303Y023933D01*
X015254Y023981D01*
X014666Y024094D02*
X014666Y024162D01*
X014530Y024299D01*
X014461Y024299D01*
X014393Y024230D01*
X014393Y024162D01*
X014427Y024128D01*
X014495Y024128D01*
X014598Y024230D01*
X014666Y024094D02*
X014598Y024025D01*
X014530Y024025D01*
X014458Y023954D02*
X014287Y024125D01*
X014150Y023988D02*
X014321Y023817D01*
X014390Y023817D01*
X014458Y023885D01*
X014458Y023954D01*
X013073Y024237D02*
X013073Y024305D01*
X012936Y024442D01*
X012868Y024442D01*
X012800Y024374D01*
X012800Y024305D01*
X012834Y024271D01*
X012902Y024271D01*
X013005Y024374D01*
X013073Y024237D02*
X013005Y024168D01*
X012936Y024168D01*
X012865Y024097D02*
X012865Y024028D01*
X012796Y023960D01*
X012728Y023960D01*
X012591Y024097D01*
X012591Y024165D01*
X012660Y024234D01*
X012728Y024234D01*
X015221Y021778D02*
X015152Y021709D01*
X015152Y021641D01*
X015289Y021504D01*
X015357Y021504D01*
X015426Y021572D01*
X015426Y021641D01*
X015497Y021712D02*
X015463Y021746D01*
X015463Y021815D01*
X015531Y021883D01*
X015600Y021883D01*
X015634Y021849D01*
X015634Y021781D01*
X015566Y021712D01*
X015497Y021712D01*
X015463Y021815D02*
X015395Y021815D01*
X015360Y021849D01*
X015360Y021917D01*
X015429Y021986D01*
X015497Y021986D01*
X015531Y021952D01*
X015531Y021883D01*
X015289Y021778D02*
X015221Y021778D01*
X015825Y018748D02*
X015922Y018748D01*
X015874Y018748D02*
X015874Y018506D01*
X015825Y018458D01*
X015777Y018458D01*
X015729Y018506D01*
X016023Y018554D02*
X016168Y018554D01*
X016217Y018603D01*
X016217Y018699D01*
X016168Y018748D01*
X016023Y018748D01*
X016023Y018458D01*
X016318Y018458D02*
X016511Y018458D01*
X016415Y018458D02*
X016415Y018748D01*
X016318Y018651D01*
X020664Y018843D02*
X020906Y018843D01*
X020954Y018891D01*
X020954Y018988D01*
X020906Y019036D01*
X020664Y019036D01*
X020761Y019138D02*
X020664Y019234D01*
X020954Y019234D01*
X020954Y019138D02*
X020954Y019331D01*
X020954Y019432D02*
X020954Y019626D01*
X020954Y019529D02*
X020664Y019529D01*
X020761Y019432D01*
X026149Y017267D02*
X026149Y017171D01*
X026197Y017122D01*
X026149Y017021D02*
X026149Y016924D01*
X026149Y016973D02*
X026390Y016973D01*
X026439Y016924D01*
X026439Y016876D01*
X026390Y016828D01*
X026439Y017122D02*
X026245Y017316D01*
X026197Y017316D01*
X026149Y017267D01*
X026439Y017316D02*
X026439Y017122D01*
X024212Y013603D02*
X024260Y013555D01*
X024260Y013458D01*
X024212Y013410D01*
X024115Y013410D02*
X024067Y013506D01*
X024067Y013555D01*
X024115Y013603D01*
X024212Y013603D01*
X024115Y013410D02*
X023970Y013410D01*
X023970Y013603D01*
X023970Y013309D02*
X024212Y013309D01*
X024260Y013260D01*
X024260Y013163D01*
X024212Y013115D01*
X023970Y013115D01*
X024223Y012674D02*
X024175Y012626D01*
X024175Y012432D01*
X024223Y012384D01*
X024320Y012384D01*
X024368Y012432D01*
X024470Y012384D02*
X024663Y012577D01*
X024663Y012626D01*
X024615Y012674D01*
X024518Y012674D01*
X024470Y012626D01*
X024368Y012626D02*
X024320Y012674D01*
X024223Y012674D01*
X024470Y012384D02*
X024663Y012384D01*
X026076Y008379D02*
X026173Y008379D01*
X026125Y008379D02*
X026125Y008137D01*
X026076Y008089D01*
X026028Y008089D01*
X025979Y008137D01*
X026274Y008137D02*
X026274Y008234D01*
X026419Y008234D01*
X026468Y008186D01*
X026468Y008137D01*
X026419Y008089D01*
X026322Y008089D01*
X026274Y008137D01*
X026274Y008234D02*
X026371Y008331D01*
X026468Y008379D01*
X026468Y004879D02*
X026274Y004879D01*
X026274Y004734D01*
X026371Y004782D01*
X026419Y004782D01*
X026468Y004734D01*
X026468Y004637D01*
X026419Y004589D01*
X026322Y004589D01*
X026274Y004637D01*
X026125Y004637D02*
X026125Y004879D01*
X026173Y004879D02*
X026076Y004879D01*
X026125Y004637D02*
X026076Y004589D01*
X026028Y004589D01*
X025979Y004637D01*
X026014Y003942D02*
X026110Y003942D01*
X026062Y003942D02*
X026062Y003700D01*
X026014Y003651D01*
X025965Y003651D01*
X025917Y003700D01*
X026212Y003700D02*
X026260Y003651D01*
X026357Y003651D01*
X026405Y003700D01*
X026405Y003748D01*
X026357Y003797D01*
X026308Y003797D01*
X026357Y003797D02*
X026405Y003845D01*
X026405Y003893D01*
X026357Y003942D01*
X026260Y003942D01*
X026212Y003893D01*
X023263Y004038D02*
X023215Y003990D01*
X023118Y003990D01*
X023070Y004038D01*
X023070Y004087D01*
X023118Y004135D01*
X023215Y004135D01*
X023263Y004087D01*
X023263Y004038D01*
X023215Y004135D02*
X023263Y004183D01*
X023263Y004232D01*
X023215Y004280D01*
X023118Y004280D01*
X023070Y004232D01*
X023070Y004183D01*
X023118Y004135D01*
X022968Y004038D02*
X022968Y004280D01*
X022775Y004280D02*
X022775Y004038D01*
X022823Y003990D01*
X022920Y003990D01*
X022968Y004038D01*
X021364Y005490D02*
X021364Y005538D01*
X021558Y005732D01*
X021558Y005780D01*
X021364Y005780D01*
X021166Y005780D02*
X021166Y005490D01*
X021070Y005490D02*
X021263Y005490D01*
X021070Y005683D02*
X021166Y005780D01*
X020968Y005780D02*
X020968Y005538D01*
X020920Y005490D01*
X020823Y005490D01*
X020775Y005538D01*
X020775Y005780D01*
X022325Y001968D02*
X022325Y001678D01*
X022518Y001678D01*
X022620Y001678D02*
X022620Y001968D01*
X022813Y001968D01*
X022914Y001968D02*
X022914Y001678D01*
X023059Y001678D01*
X023108Y001726D01*
X023108Y001919D01*
X023059Y001968D01*
X022914Y001968D01*
X022716Y001823D02*
X022620Y001823D01*
X022620Y001678D02*
X022813Y001678D01*
X023209Y001678D02*
X023402Y001678D01*
X023306Y001678D02*
X023306Y001968D01*
X023209Y001871D01*
X020302Y010476D02*
X020060Y010476D01*
X020060Y010669D02*
X020302Y010669D01*
X020350Y010621D01*
X020350Y010524D01*
X020302Y010476D01*
X020350Y010770D02*
X020350Y010964D01*
X020350Y010867D02*
X020060Y010867D01*
X020156Y010770D01*
X020108Y011065D02*
X020060Y011113D01*
X020060Y011210D01*
X020108Y011258D01*
X020156Y011258D01*
X020205Y011210D01*
X020253Y011258D01*
X020302Y011258D01*
X020350Y011210D01*
X020350Y011113D01*
X020302Y011065D01*
X020205Y011162D02*
X020205Y011210D01*
D11*
X020476Y011160D02*
X020476Y010485D01*
X021596Y010485D02*
X021596Y011160D01*
X022724Y012990D02*
X022724Y013665D01*
X023844Y013665D02*
X023844Y012990D01*
X018810Y007825D02*
X018812Y007898D01*
X018818Y007971D01*
X018828Y008043D01*
X018842Y008115D01*
X018859Y008186D01*
X018881Y008256D01*
X018906Y008325D01*
X018935Y008392D01*
X018967Y008457D01*
X019003Y008521D01*
X019043Y008583D01*
X019085Y008642D01*
X019131Y008699D01*
X019180Y008753D01*
X019232Y008805D01*
X019286Y008854D01*
X019343Y008900D01*
X019402Y008942D01*
X019464Y008982D01*
X019528Y009018D01*
X019593Y009050D01*
X019660Y009079D01*
X019729Y009104D01*
X019799Y009126D01*
X019870Y009143D01*
X019942Y009157D01*
X020014Y009167D01*
X020087Y009173D01*
X020160Y009175D01*
X020233Y009173D01*
X020306Y009167D01*
X020378Y009157D01*
X020450Y009143D01*
X020521Y009126D01*
X020591Y009104D01*
X020660Y009079D01*
X020727Y009050D01*
X020792Y009018D01*
X020856Y008982D01*
X020918Y008942D01*
X020977Y008900D01*
X021034Y008854D01*
X021088Y008805D01*
X021140Y008753D01*
X021189Y008699D01*
X021235Y008642D01*
X021277Y008583D01*
X021317Y008521D01*
X021353Y008457D01*
X021385Y008392D01*
X021414Y008325D01*
X021439Y008256D01*
X021461Y008186D01*
X021478Y008115D01*
X021492Y008043D01*
X021502Y007971D01*
X021508Y007898D01*
X021510Y007825D01*
X021508Y007752D01*
X021502Y007679D01*
X021492Y007607D01*
X021478Y007535D01*
X021461Y007464D01*
X021439Y007394D01*
X021414Y007325D01*
X021385Y007258D01*
X021353Y007193D01*
X021317Y007129D01*
X021277Y007067D01*
X021235Y007008D01*
X021189Y006951D01*
X021140Y006897D01*
X021088Y006845D01*
X021034Y006796D01*
X020977Y006750D01*
X020918Y006708D01*
X020856Y006668D01*
X020792Y006632D01*
X020727Y006600D01*
X020660Y006571D01*
X020591Y006546D01*
X020521Y006524D01*
X020450Y006507D01*
X020378Y006493D01*
X020306Y006483D01*
X020233Y006477D01*
X020160Y006475D01*
X020087Y006477D01*
X020014Y006483D01*
X019942Y006493D01*
X019870Y006507D01*
X019799Y006524D01*
X019729Y006546D01*
X019660Y006571D01*
X019593Y006600D01*
X019528Y006632D01*
X019464Y006668D01*
X019402Y006708D01*
X019343Y006750D01*
X019286Y006796D01*
X019232Y006845D01*
X019180Y006897D01*
X019131Y006951D01*
X019085Y007008D01*
X019043Y007067D01*
X019003Y007129D01*
X018967Y007193D01*
X018935Y007258D01*
X018906Y007325D01*
X018881Y007394D01*
X018859Y007464D01*
X018842Y007535D01*
X018828Y007607D01*
X018818Y007679D01*
X018812Y007752D01*
X018810Y007825D01*
X016297Y014319D02*
X015148Y014319D01*
X015148Y014831D01*
X016297Y014831D01*
X016297Y014319D01*
X016410Y015825D02*
X015910Y015825D01*
X015660Y016075D01*
X015410Y015825D01*
X014910Y015825D01*
X014660Y016075D01*
X014660Y017575D01*
X014910Y017825D01*
X015410Y017825D01*
X015660Y017575D01*
X015660Y016075D01*
X016410Y015825D02*
X016660Y016075D01*
X016660Y017575D01*
X016410Y017825D01*
X015910Y017825D01*
X015660Y017575D01*
X016660Y017575D02*
X016910Y017825D01*
X017410Y017825D01*
X017660Y017575D01*
X017660Y016075D01*
X017410Y015825D01*
X016910Y015825D01*
X016660Y016075D01*
X014577Y019825D02*
X010780Y016028D01*
X010540Y016028D01*
X006743Y019825D01*
X010660Y023742D01*
X014577Y019825D01*
X010440Y016551D02*
X010442Y016580D01*
X010448Y016609D01*
X010457Y016637D01*
X010471Y016663D01*
X010487Y016687D01*
X010507Y016709D01*
X010530Y016728D01*
X010554Y016744D01*
X010581Y016756D01*
X010609Y016765D01*
X010638Y016770D01*
X010667Y016771D01*
X010697Y016768D01*
X010725Y016761D01*
X010753Y016751D01*
X010778Y016736D01*
X010802Y016719D01*
X010823Y016699D01*
X010841Y016676D01*
X010856Y016650D01*
X010868Y016623D01*
X010876Y016595D01*
X010880Y016566D01*
X010880Y016536D01*
X010876Y016507D01*
X010868Y016479D01*
X010856Y016452D01*
X010841Y016426D01*
X010823Y016403D01*
X010802Y016383D01*
X010778Y016366D01*
X010753Y016351D01*
X010725Y016341D01*
X010697Y016334D01*
X010667Y016331D01*
X010638Y016332D01*
X010609Y016337D01*
X010581Y016346D01*
X010554Y016358D01*
X010530Y016374D01*
X010507Y016393D01*
X010487Y016415D01*
X010471Y016439D01*
X010457Y016465D01*
X010448Y016493D01*
X010442Y016522D01*
X010440Y016551D01*
X005844Y013227D02*
X005844Y012552D01*
X004724Y012552D02*
X004724Y013227D01*
X006220Y022614D02*
X004949Y023885D01*
X006218Y024742D02*
X006220Y024768D01*
X006226Y024794D01*
X006235Y024818D01*
X006248Y024841D01*
X006264Y024862D01*
X006283Y024880D01*
X006304Y024896D01*
X006328Y024908D01*
X006352Y024916D01*
X006378Y024921D01*
X006405Y024922D01*
X006431Y024919D01*
X006456Y024912D01*
X006480Y024902D01*
X006503Y024888D01*
X006523Y024872D01*
X006540Y024852D01*
X006555Y024830D01*
X006566Y024806D01*
X006574Y024781D01*
X006578Y024755D01*
X006578Y024729D01*
X006574Y024703D01*
X006566Y024678D01*
X006555Y024654D01*
X006540Y024632D01*
X006523Y024612D01*
X006503Y024596D01*
X006480Y024582D01*
X006456Y024572D01*
X006431Y024565D01*
X006405Y024562D01*
X006378Y024563D01*
X006352Y024568D01*
X006328Y024576D01*
X006304Y024588D01*
X006283Y024604D01*
X006264Y024622D01*
X006248Y024643D01*
X006235Y024666D01*
X006226Y024690D01*
X006220Y024716D01*
X006218Y024742D01*
X006350Y025286D02*
X007621Y024015D01*
X001810Y024825D02*
X001812Y024898D01*
X001818Y024971D01*
X001828Y025043D01*
X001842Y025115D01*
X001859Y025186D01*
X001881Y025256D01*
X001906Y025325D01*
X001935Y025392D01*
X001967Y025457D01*
X002003Y025521D01*
X002043Y025583D01*
X002085Y025642D01*
X002131Y025699D01*
X002180Y025753D01*
X002232Y025805D01*
X002286Y025854D01*
X002343Y025900D01*
X002402Y025942D01*
X002464Y025982D01*
X002528Y026018D01*
X002593Y026050D01*
X002660Y026079D01*
X002729Y026104D01*
X002799Y026126D01*
X002870Y026143D01*
X002942Y026157D01*
X003014Y026167D01*
X003087Y026173D01*
X003160Y026175D01*
X003233Y026173D01*
X003306Y026167D01*
X003378Y026157D01*
X003450Y026143D01*
X003521Y026126D01*
X003591Y026104D01*
X003660Y026079D01*
X003727Y026050D01*
X003792Y026018D01*
X003856Y025982D01*
X003918Y025942D01*
X003977Y025900D01*
X004034Y025854D01*
X004088Y025805D01*
X004140Y025753D01*
X004189Y025699D01*
X004235Y025642D01*
X004277Y025583D01*
X004317Y025521D01*
X004353Y025457D01*
X004385Y025392D01*
X004414Y025325D01*
X004439Y025256D01*
X004461Y025186D01*
X004478Y025115D01*
X004492Y025043D01*
X004502Y024971D01*
X004508Y024898D01*
X004510Y024825D01*
X004508Y024752D01*
X004502Y024679D01*
X004492Y024607D01*
X004478Y024535D01*
X004461Y024464D01*
X004439Y024394D01*
X004414Y024325D01*
X004385Y024258D01*
X004353Y024193D01*
X004317Y024129D01*
X004277Y024067D01*
X004235Y024008D01*
X004189Y023951D01*
X004140Y023897D01*
X004088Y023845D01*
X004034Y023796D01*
X003977Y023750D01*
X003918Y023708D01*
X003856Y023668D01*
X003792Y023632D01*
X003727Y023600D01*
X003660Y023571D01*
X003591Y023546D01*
X003521Y023524D01*
X003450Y023507D01*
X003378Y023493D01*
X003306Y023483D01*
X003233Y023477D01*
X003160Y023475D01*
X003087Y023477D01*
X003014Y023483D01*
X002942Y023493D01*
X002870Y023507D01*
X002799Y023524D01*
X002729Y023546D01*
X002660Y023571D01*
X002593Y023600D01*
X002528Y023632D01*
X002464Y023668D01*
X002402Y023708D01*
X002343Y023750D01*
X002286Y023796D01*
X002232Y023845D01*
X002180Y023897D01*
X002131Y023951D01*
X002085Y024008D01*
X002043Y024067D01*
X002003Y024129D01*
X001967Y024193D01*
X001935Y024258D01*
X001906Y024325D01*
X001881Y024394D01*
X001859Y024464D01*
X001842Y024535D01*
X001828Y024607D01*
X001818Y024679D01*
X001812Y024752D01*
X001810Y024825D01*
D12*
X002491Y024825D02*
X002493Y024876D01*
X002499Y024927D01*
X002509Y024977D01*
X002522Y025027D01*
X002540Y025075D01*
X002560Y025122D01*
X002585Y025167D01*
X002613Y025210D01*
X002644Y025251D01*
X002678Y025289D01*
X002715Y025324D01*
X002754Y025357D01*
X002796Y025387D01*
X002840Y025413D01*
X002886Y025435D01*
X002934Y025455D01*
X002983Y025470D01*
X003033Y025482D01*
X003083Y025490D01*
X003134Y025494D01*
X003186Y025494D01*
X003237Y025490D01*
X003287Y025482D01*
X003337Y025470D01*
X003386Y025455D01*
X003434Y025435D01*
X003480Y025413D01*
X003524Y025387D01*
X003566Y025357D01*
X003605Y025324D01*
X003642Y025289D01*
X003676Y025251D01*
X003707Y025210D01*
X003735Y025167D01*
X003760Y025122D01*
X003780Y025075D01*
X003798Y025027D01*
X003811Y024977D01*
X003821Y024927D01*
X003827Y024876D01*
X003829Y024825D01*
X003827Y024774D01*
X003821Y024723D01*
X003811Y024673D01*
X003798Y024623D01*
X003780Y024575D01*
X003760Y024528D01*
X003735Y024483D01*
X003707Y024440D01*
X003676Y024399D01*
X003642Y024361D01*
X003605Y024326D01*
X003566Y024293D01*
X003524Y024263D01*
X003480Y024237D01*
X003434Y024215D01*
X003386Y024195D01*
X003337Y024180D01*
X003287Y024168D01*
X003237Y024160D01*
X003186Y024156D01*
X003134Y024156D01*
X003083Y024160D01*
X003033Y024168D01*
X002983Y024180D01*
X002934Y024195D01*
X002886Y024215D01*
X002840Y024237D01*
X002796Y024263D01*
X002754Y024293D01*
X002715Y024326D01*
X002678Y024361D01*
X002644Y024399D01*
X002613Y024440D01*
X002585Y024483D01*
X002560Y024528D01*
X002540Y024575D01*
X002522Y024623D01*
X002509Y024673D01*
X002499Y024723D01*
X002493Y024774D01*
X002491Y024825D01*
X002410Y022825D02*
X002160Y022575D01*
X002160Y022075D01*
X002410Y021825D01*
X002160Y021575D01*
X002160Y021075D01*
X002410Y020825D01*
X002160Y020575D01*
X002160Y020075D01*
X002410Y019825D01*
X002160Y019575D01*
X002160Y019075D01*
X002410Y018825D01*
X002160Y018575D01*
X002160Y018075D01*
X002410Y017825D01*
X002160Y017575D01*
X002160Y017075D01*
X002410Y016825D01*
X002160Y016575D01*
X002160Y016075D01*
X002410Y015825D01*
X002160Y015575D01*
X002160Y015075D01*
X002410Y014825D01*
X002160Y014575D01*
X002160Y014075D01*
X002410Y013825D01*
X002160Y013575D01*
X002160Y013075D01*
X002410Y012825D01*
X002160Y012575D01*
X002160Y012075D01*
X002410Y011825D01*
X002160Y011575D01*
X002160Y011075D01*
X002410Y010825D01*
X002910Y010825D01*
X003160Y011075D01*
X003160Y011575D01*
X002910Y011825D01*
X003160Y012075D01*
X003160Y012575D01*
X002910Y012825D01*
X003160Y013075D01*
X003160Y013575D01*
X002910Y013825D01*
X003160Y014075D01*
X003160Y014575D01*
X002910Y014825D01*
X003160Y015075D01*
X003160Y015575D01*
X002910Y015825D01*
X003160Y016075D01*
X003160Y016575D01*
X002910Y016825D01*
X003160Y017075D01*
X003160Y017575D01*
X002910Y017825D01*
X003160Y018075D01*
X003160Y018575D01*
X002910Y018825D01*
X003160Y019075D01*
X003160Y019575D01*
X002910Y019825D01*
X003160Y020075D01*
X003160Y020575D01*
X002910Y020825D01*
X003160Y021075D01*
X003160Y021575D01*
X002910Y021825D01*
X003160Y022075D01*
X003160Y022575D01*
X002910Y022825D01*
X002410Y022825D01*
X010884Y013671D02*
X010884Y011919D01*
X010688Y009872D02*
X011632Y009872D01*
X011632Y009281D01*
X011632Y008494D02*
X011632Y008061D01*
X011475Y007903D01*
X010845Y007903D01*
X010688Y008061D01*
X010688Y008494D01*
X010148Y008000D02*
X010148Y009250D01*
X010688Y009281D02*
X010688Y009872D01*
X008548Y009250D02*
X008548Y008000D01*
X005369Y005815D02*
X005369Y005275D01*
X005369Y005815D02*
X004542Y005815D01*
X002653Y005815D02*
X001826Y005815D01*
X001826Y001385D01*
X005369Y001385D02*
X005369Y003425D01*
X014932Y011939D02*
X014932Y013671D01*
X014552Y013140D02*
X014554Y013158D01*
X014560Y013175D01*
X014569Y013191D01*
X014582Y013204D01*
X014597Y013214D01*
X014614Y013221D01*
X014631Y013224D01*
X014650Y013223D01*
X014667Y013218D01*
X014683Y013210D01*
X014697Y013198D01*
X014708Y013183D01*
X014716Y013167D01*
X014720Y013149D01*
X014720Y013131D01*
X014716Y013113D01*
X014708Y013097D01*
X014697Y013082D01*
X014683Y013070D01*
X014667Y013062D01*
X014650Y013057D01*
X014631Y013056D01*
X014614Y013059D01*
X014597Y013066D01*
X014582Y013076D01*
X014569Y013089D01*
X014560Y013105D01*
X014554Y013122D01*
X014552Y013140D01*
X016931Y013757D02*
X017088Y013757D01*
X017088Y014268D01*
X017639Y014268D01*
X017639Y013757D02*
X017088Y013757D01*
X017088Y014268D02*
X016931Y014268D01*
X018660Y014075D02*
X018660Y014575D01*
X018910Y014825D01*
X018660Y015075D01*
X018660Y015575D01*
X018910Y015825D01*
X018660Y016075D01*
X018660Y016575D01*
X018910Y016825D01*
X018660Y017075D01*
X018660Y017575D01*
X018910Y017825D01*
X018660Y018075D01*
X018660Y018575D01*
X018910Y018825D01*
X018660Y019075D01*
X018660Y019575D01*
X018910Y019825D01*
X018660Y020075D01*
X018660Y020575D01*
X018910Y020825D01*
X018660Y021075D01*
X018660Y021575D01*
X018910Y021825D01*
X018660Y022075D01*
X018660Y022575D01*
X018910Y022825D01*
X019410Y022825D01*
X019660Y022575D01*
X019660Y022075D01*
X019410Y021825D01*
X019660Y021575D01*
X019660Y021075D01*
X019410Y020825D01*
X019660Y020575D01*
X019660Y020075D01*
X019410Y019825D01*
X019660Y019575D01*
X019660Y019075D01*
X019410Y018825D01*
X019660Y018575D01*
X019660Y018075D01*
X019410Y017825D01*
X019660Y017575D01*
X019660Y017075D01*
X019410Y016825D01*
X019660Y016575D01*
X019660Y016075D01*
X019410Y015825D01*
X019660Y015575D01*
X019660Y015075D01*
X019410Y014825D01*
X019660Y014575D01*
X019660Y014075D01*
X019410Y013825D01*
X019660Y013575D01*
X019660Y013075D01*
X019410Y012825D01*
X019660Y012575D01*
X019660Y012075D01*
X019410Y011825D01*
X019660Y011575D01*
X019660Y011075D01*
X019410Y010825D01*
X018910Y010825D01*
X018660Y011075D01*
X018660Y011575D01*
X018910Y011825D01*
X018660Y012075D01*
X018660Y012575D01*
X018910Y012825D01*
X018660Y013075D01*
X018660Y013575D01*
X018910Y013825D01*
X018660Y014075D01*
X024176Y012140D02*
X024176Y011510D01*
X024333Y011353D01*
X024766Y011353D01*
X025554Y011353D02*
X026144Y011353D01*
X026144Y012297D01*
X025554Y012297D01*
X024766Y012297D02*
X024333Y012297D01*
X024176Y012140D01*
X019491Y007825D02*
X019493Y007876D01*
X019499Y007927D01*
X019509Y007977D01*
X019522Y008027D01*
X019540Y008075D01*
X019560Y008122D01*
X019585Y008167D01*
X019613Y008210D01*
X019644Y008251D01*
X019678Y008289D01*
X019715Y008324D01*
X019754Y008357D01*
X019796Y008387D01*
X019840Y008413D01*
X019886Y008435D01*
X019934Y008455D01*
X019983Y008470D01*
X020033Y008482D01*
X020083Y008490D01*
X020134Y008494D01*
X020186Y008494D01*
X020237Y008490D01*
X020287Y008482D01*
X020337Y008470D01*
X020386Y008455D01*
X020434Y008435D01*
X020480Y008413D01*
X020524Y008387D01*
X020566Y008357D01*
X020605Y008324D01*
X020642Y008289D01*
X020676Y008251D01*
X020707Y008210D01*
X020735Y008167D01*
X020760Y008122D01*
X020780Y008075D01*
X020798Y008027D01*
X020811Y007977D01*
X020821Y007927D01*
X020827Y007876D01*
X020829Y007825D01*
X020827Y007774D01*
X020821Y007723D01*
X020811Y007673D01*
X020798Y007623D01*
X020780Y007575D01*
X020760Y007528D01*
X020735Y007483D01*
X020707Y007440D01*
X020676Y007399D01*
X020642Y007361D01*
X020605Y007326D01*
X020566Y007293D01*
X020524Y007263D01*
X020480Y007237D01*
X020434Y007215D01*
X020386Y007195D01*
X020337Y007180D01*
X020287Y007168D01*
X020237Y007160D01*
X020186Y007156D01*
X020134Y007156D01*
X020083Y007160D01*
X020033Y007168D01*
X019983Y007180D01*
X019934Y007195D01*
X019886Y007215D01*
X019840Y007237D01*
X019796Y007263D01*
X019754Y007293D01*
X019715Y007326D01*
X019678Y007361D01*
X019644Y007399D01*
X019613Y007440D01*
X019585Y007483D01*
X019560Y007528D01*
X019540Y007575D01*
X019522Y007623D01*
X019509Y007673D01*
X019499Y007723D01*
X019493Y007774D01*
X019491Y007825D01*
X020754Y005396D02*
X022566Y005396D01*
X022054Y005219D02*
X022054Y004431D01*
X022566Y004254D02*
X020754Y004254D01*
X020754Y003896D02*
X022566Y003896D01*
X022054Y003719D02*
X022054Y002931D01*
X022566Y002754D02*
X020754Y002754D01*
X021605Y001911D02*
X021721Y001835D01*
X021727Y001825D02*
X021605Y001733D01*
X021727Y001644D02*
X021727Y001825D01*
X021727Y002006D01*
X014525Y022492D02*
X014683Y022651D01*
X014475Y023116D02*
X014257Y023333D01*
X013784Y023544D02*
X013631Y023391D01*
X013840Y022926D02*
X014065Y022701D01*
X016100Y024156D02*
X016100Y024494D01*
X016554Y024644D02*
X016766Y024644D01*
X017220Y024494D02*
X017220Y024156D01*
X018188Y023931D02*
X018188Y023341D01*
X019132Y023341D01*
X019132Y023931D01*
X019132Y024719D02*
X019132Y025152D01*
X018975Y025309D01*
X018345Y025309D01*
X018188Y025152D01*
X018188Y024719D01*
D13*
X005369Y001385D02*
X001826Y001385D01*
X006410Y000125D02*
X006410Y006325D01*
X020160Y006325D01*
X020160Y000125D01*
X006410Y000125D01*
X004538Y006938D02*
X002176Y006938D01*
X002176Y010087D01*
X004538Y010087D01*
X004538Y008906D01*
X004144Y008906D01*
X004144Y008119D01*
X004538Y008119D01*
X004538Y006938D01*
X004538Y008119D02*
X004538Y008906D01*
X001751Y013466D02*
X000569Y013466D01*
X000569Y014128D01*
X000963Y014128D01*
X000963Y014522D01*
X000569Y014522D01*
X000569Y015184D01*
X001751Y015184D01*
X001751Y013466D01*
X000569Y014128D02*
X000569Y014522D01*
X010760Y008738D02*
X011560Y008738D01*
X013394Y007250D02*
X013394Y010400D01*
X018512Y010400D01*
X018512Y007250D01*
X013394Y007250D01*
X020410Y015341D02*
X020440Y015341D01*
X020410Y015341D02*
X020410Y017309D01*
X020440Y017309D01*
X020871Y017309D02*
X020949Y017309D01*
X021371Y017309D02*
X021410Y017309D01*
X021410Y016463D01*
X021910Y016463D01*
X021910Y017309D01*
X021871Y017309D01*
X021910Y017309D02*
X021949Y017309D01*
X022371Y017309D02*
X022449Y017309D01*
X022880Y017309D02*
X022910Y017309D01*
X022910Y015341D01*
X022880Y015341D01*
X022449Y015341D02*
X022371Y015341D01*
X021949Y015341D02*
X021871Y015341D01*
X021449Y015341D02*
X021371Y015341D01*
X020949Y015341D02*
X020871Y015341D01*
X021410Y017309D02*
X021449Y017309D01*
X021458Y019075D02*
X021163Y019075D01*
X021163Y019567D01*
X023230Y016986D02*
X023185Y016940D01*
X023185Y016850D01*
X023230Y016805D01*
X023230Y016691D02*
X023320Y016691D01*
X023365Y016646D01*
X023365Y016511D01*
X023455Y016511D02*
X023185Y016511D01*
X023185Y016646D01*
X023230Y016691D01*
X023455Y016805D02*
X023275Y016986D01*
X023230Y016986D01*
X023455Y016986D02*
X023455Y016805D01*
X023410Y016351D02*
X023185Y016351D01*
X023185Y016306D02*
X023185Y016396D01*
X023410Y016351D02*
X023455Y016306D01*
X023455Y016261D01*
X023410Y016216D01*
X025592Y019075D02*
X025907Y019075D01*
X025907Y019567D01*
X026784Y016449D02*
X026784Y013201D01*
X025010Y012225D02*
X025010Y011425D01*
X024664Y010559D02*
X026593Y010559D01*
X026593Y010362D01*
X027774Y010362D01*
X027774Y008788D01*
X026593Y008788D01*
X026593Y010362D01*
X026593Y008788D02*
X026593Y008591D01*
X024664Y008591D01*
X023798Y008591D02*
X023443Y008591D01*
X023443Y009063D01*
X023443Y010087D02*
X023443Y010559D01*
X023798Y010559D01*
X023798Y007059D02*
X023443Y007059D01*
X023443Y006587D01*
X023443Y005563D02*
X023443Y005091D01*
X023798Y005091D01*
X024664Y005091D02*
X026593Y005091D01*
X026593Y005288D01*
X027774Y005288D01*
X027774Y006862D01*
X026593Y006862D01*
X026593Y007059D01*
X024664Y007059D01*
X026593Y006862D02*
X026593Y005288D01*
X026593Y003559D02*
X024664Y003559D01*
X023798Y003559D02*
X023443Y003559D01*
X023443Y003087D01*
X023443Y002063D02*
X023443Y001591D01*
X023798Y001591D01*
X024664Y001591D02*
X026593Y001591D01*
X026593Y001788D01*
X027774Y001788D01*
X027774Y003362D01*
X026593Y003362D01*
X026593Y003559D01*
X026593Y003362D02*
X026593Y001788D01*
X017910Y017825D02*
X017912Y017856D01*
X017918Y017887D01*
X017928Y017917D01*
X017941Y017945D01*
X017958Y017972D01*
X017978Y017996D01*
X018001Y018018D01*
X018026Y018036D01*
X018054Y018051D01*
X018083Y018063D01*
X018113Y018071D01*
X018144Y018075D01*
X018176Y018075D01*
X018207Y018071D01*
X018237Y018063D01*
X018266Y018051D01*
X018294Y018036D01*
X018319Y018018D01*
X018342Y017996D01*
X018362Y017972D01*
X018379Y017945D01*
X018392Y017917D01*
X018402Y017887D01*
X018408Y017856D01*
X018410Y017825D01*
X018408Y017794D01*
X018402Y017763D01*
X018392Y017733D01*
X018379Y017705D01*
X018362Y017678D01*
X018342Y017654D01*
X018319Y017632D01*
X018294Y017614D01*
X018266Y017599D01*
X018237Y017587D01*
X018207Y017579D01*
X018176Y017575D01*
X018144Y017575D01*
X018113Y017579D01*
X018083Y017587D01*
X018054Y017599D01*
X018026Y017614D01*
X018001Y017632D01*
X017978Y017654D01*
X017958Y017678D01*
X017941Y017705D01*
X017928Y017733D01*
X017918Y017763D01*
X017912Y017794D01*
X017910Y017825D01*
X014527Y022489D02*
X014525Y022492D01*
X014255Y023330D02*
X014257Y023333D01*
X018260Y024475D02*
X019060Y024475D01*
X021163Y026200D02*
X025907Y026200D01*
X025907Y024291D01*
D14*
X007940Y008935D02*
X007940Y007045D01*
X007034Y007045D01*
X006286Y007045D02*
X005380Y007045D01*
X005380Y008935D01*
X006050Y009605D01*
X006286Y009605D01*
X007034Y009605D02*
X007270Y009605D01*
X007940Y008935D01*
X006286Y009486D02*
X006222Y009464D01*
X006159Y009437D01*
X006097Y009407D01*
X006038Y009374D01*
X005980Y009338D01*
X005924Y009298D01*
X005871Y009255D01*
X005820Y009210D01*
X005772Y009162D01*
X005727Y009111D01*
X005684Y009057D01*
X005645Y009001D01*
X005608Y008944D01*
X005575Y008884D01*
X005546Y008822D01*
X005520Y008759D01*
X005497Y008695D01*
X005478Y008629D01*
X005463Y008562D01*
X005452Y008495D01*
X005444Y008427D01*
X005440Y008359D01*
X005440Y008291D01*
X005444Y008223D01*
X005452Y008155D01*
X005463Y008088D01*
X005478Y008021D01*
X005497Y007955D01*
X005520Y007891D01*
X005546Y007828D01*
X005575Y007766D01*
X005608Y007706D01*
X005645Y007649D01*
X005684Y007593D01*
X005727Y007539D01*
X005772Y007488D01*
X005820Y007440D01*
X005871Y007395D01*
X005924Y007352D01*
X005980Y007312D01*
X006038Y007276D01*
X006097Y007243D01*
X006159Y007213D01*
X006222Y007186D01*
X006286Y007164D01*
X007034Y007164D02*
X007098Y007186D01*
X007161Y007213D01*
X007223Y007243D01*
X007282Y007276D01*
X007340Y007312D01*
X007396Y007352D01*
X007449Y007395D01*
X007500Y007440D01*
X007548Y007488D01*
X007593Y007539D01*
X007636Y007593D01*
X007675Y007649D01*
X007712Y007706D01*
X007745Y007766D01*
X007774Y007828D01*
X007800Y007891D01*
X007823Y007955D01*
X007842Y008021D01*
X007857Y008088D01*
X007868Y008155D01*
X007876Y008223D01*
X007880Y008291D01*
X007880Y008359D01*
X007876Y008427D01*
X007868Y008495D01*
X007857Y008562D01*
X007842Y008629D01*
X007823Y008695D01*
X007800Y008759D01*
X007774Y008822D01*
X007745Y008884D01*
X007712Y008944D01*
X007675Y009001D01*
X007636Y009057D01*
X007593Y009111D01*
X007548Y009162D01*
X007500Y009210D01*
X007449Y009255D01*
X007396Y009298D01*
X007340Y009338D01*
X007282Y009374D01*
X007223Y009407D01*
X007161Y009437D01*
X007098Y009464D01*
X007034Y009486D01*
D15*
X008464Y015692D02*
X008481Y015708D01*
X006777Y017442D02*
X006793Y017458D01*
X013240Y023922D02*
X013257Y023905D01*
X015063Y022224D02*
X015080Y022207D01*
X015585Y024257D02*
X015610Y024257D01*
D16*
X023737Y013494D03*
X020583Y010656D03*
X005737Y013057D03*
D17*
X010584Y017494D02*
X010779Y017494D01*
X010602Y017953D02*
X010604Y017971D01*
X010610Y017987D01*
X010619Y018002D01*
X010632Y018015D01*
X010647Y018024D01*
X010663Y018030D01*
X010681Y018032D01*
X010699Y018030D01*
X010715Y018024D01*
X010730Y018015D01*
X010743Y018002D01*
X010752Y017987D01*
X010758Y017971D01*
X010760Y017953D01*
X010758Y017935D01*
X010752Y017919D01*
X010743Y017904D01*
X010730Y017891D01*
X010715Y017882D01*
X010699Y017876D01*
X010681Y017874D01*
X010663Y017876D01*
X010647Y017882D01*
X010632Y017891D01*
X010619Y017904D01*
X010610Y017919D01*
X010604Y017935D01*
X010602Y017953D01*
X013034Y019749D02*
X013034Y019944D01*
X010779Y022199D02*
X010584Y022199D01*
X008329Y019944D02*
X008329Y019749D01*
M02*
