G75*
%MOIN*%
%OFA0B0*%
%FSLAX25Y25*%
%IPPOS*%
%LPD*%
%AMOC8*
5,1,8,0,0,1.08239X$1,22.5*
%
%ADD10C,0.13198*%
%ADD11R,0.04143X0.03356*%
%ADD12R,0.08277X0.08277*%
%ADD13C,0.08277*%
%ADD14R,0.03356X0.04143*%
%ADD15C,0.08000*%
%ADD16R,0.06112X0.12411*%
%ADD17R,0.06899X0.06112*%
%ADD18C,0.06506*%
%ADD19OC8,0.04000*%
D10*
X0037604Y0185000D03*
X0207604Y0015000D03*
D11*
X0142604Y0047441D03*
X0142604Y0052559D03*
X0142604Y0062441D03*
X0142604Y0067559D03*
X0133229Y0062559D03*
X0133229Y0057441D03*
X0087604Y0067441D03*
X0087604Y0072559D03*
X0092604Y0106816D03*
X0092604Y0111934D03*
X0092604Y0123066D03*
X0092604Y0128184D03*
X0123854Y0127441D03*
X0123854Y0132559D03*
X0172604Y0128184D03*
X0172604Y0123066D03*
X0177604Y0115059D03*
X0177604Y0109941D03*
X0066979Y0038809D03*
X0066979Y0033691D03*
X0052604Y0122441D03*
X0052604Y0127559D03*
D12*
X0057604Y0176000D03*
X0107604Y0176000D03*
X0157604Y0176000D03*
D13*
X0167604Y0176000D03*
X0177604Y0176000D03*
X0187604Y0176000D03*
X0137604Y0176000D03*
X0127604Y0176000D03*
X0117604Y0176000D03*
X0087604Y0176000D03*
X0077604Y0176000D03*
X0067604Y0176000D03*
X0057707Y0036299D03*
X0057707Y0008701D03*
D14*
X0165044Y0113125D03*
X0170163Y0113125D03*
X0095163Y0117500D03*
X0090044Y0117500D03*
D15*
X0032604Y0120000D03*
X0032604Y0110000D03*
X0032604Y0100000D03*
X0032604Y0090000D03*
X0032604Y0080000D03*
X0032604Y0070000D03*
X0032604Y0060000D03*
X0032604Y0050000D03*
X0032604Y0130000D03*
X0032604Y0140000D03*
X0032604Y0150000D03*
X0032604Y0160000D03*
X0197604Y0160000D03*
X0197604Y0150000D03*
X0197604Y0140000D03*
X0197604Y0130000D03*
X0197604Y0120000D03*
X0197604Y0110000D03*
X0197604Y0100000D03*
X0197604Y0090000D03*
X0197604Y0080000D03*
X0197604Y0070000D03*
X0197604Y0060000D03*
X0197604Y0050000D03*
D16*
X0058854Y0050551D03*
X0058854Y0069449D03*
D17*
X0177604Y0060512D03*
X0177604Y0049488D03*
D18*
X0047904Y0016594D02*
X0047904Y0010689D01*
X0047904Y0028406D02*
X0047904Y0034311D01*
D19*
X0052604Y0098750D03*
M02*
