G75*
%MOIN*%
%OFA0B0*%
%FSLAX25Y25*%
%IPPOS*%
%LPD*%
%AMOC8*
5,1,8,0,0,1.08239X$1,22.5*
%
%ADD10R,0.03543X0.02756*%
%ADD11R,0.07677X0.07677*%
%ADD12C,0.07677*%
%ADD13R,0.02756X0.03543*%
%ADD14C,0.07400*%
%ADD15R,0.05512X0.11811*%
%ADD16R,0.06299X0.05512*%
%ADD17C,0.05906*%
%ADD18C,0.01000*%
%ADD19OC8,0.02400*%
%ADD20C,0.02400*%
%ADD21C,0.00800*%
%ADD22OC8,0.03400*%
%ADD23C,0.05000*%
%ADD24C,0.02500*%
%ADD25C,0.01200*%
D10*
X0066979Y0033691D03*
X0066979Y0038809D03*
X0087604Y0067441D03*
X0087604Y0072559D03*
X0092604Y0106816D03*
X0092604Y0111934D03*
X0092604Y0123066D03*
X0092604Y0128184D03*
X0123854Y0127441D03*
X0123854Y0132559D03*
X0172604Y0128184D03*
X0172604Y0123066D03*
X0177604Y0115059D03*
X0177604Y0109941D03*
X0142604Y0067559D03*
X0142604Y0062441D03*
X0133229Y0062559D03*
X0133229Y0057441D03*
X0142604Y0052559D03*
X0142604Y0047441D03*
X0052604Y0122441D03*
X0052604Y0127559D03*
D11*
X0057604Y0176000D03*
X0107604Y0176000D03*
X0157604Y0176000D03*
D12*
X0167604Y0176000D03*
X0177604Y0176000D03*
X0187604Y0176000D03*
X0137604Y0176000D03*
X0127604Y0176000D03*
X0117604Y0176000D03*
X0087604Y0176000D03*
X0077604Y0176000D03*
X0067604Y0176000D03*
X0057707Y0036299D03*
X0057707Y0008701D03*
D13*
X0165044Y0113125D03*
X0170163Y0113125D03*
X0095163Y0117500D03*
X0090044Y0117500D03*
D14*
X0032604Y0120000D03*
X0032604Y0110000D03*
X0032604Y0100000D03*
X0032604Y0090000D03*
X0032604Y0080000D03*
X0032604Y0070000D03*
X0032604Y0060000D03*
X0032604Y0050000D03*
X0032604Y0130000D03*
X0032604Y0140000D03*
X0032604Y0150000D03*
X0032604Y0160000D03*
X0197604Y0160000D03*
X0197604Y0150000D03*
X0197604Y0140000D03*
X0197604Y0130000D03*
X0197604Y0120000D03*
X0197604Y0110000D03*
X0197604Y0100000D03*
X0197604Y0090000D03*
X0197604Y0080000D03*
X0197604Y0070000D03*
X0197604Y0060000D03*
X0197604Y0050000D03*
D15*
X0058854Y0050551D03*
X0058854Y0069449D03*
D16*
X0177604Y0060512D03*
X0177604Y0049488D03*
D17*
X0047904Y0034311D02*
X0047904Y0028406D01*
X0047904Y0016594D02*
X0047904Y0010689D01*
D18*
X0024604Y0004500D02*
X0024604Y0178968D01*
X0025873Y0176477D01*
X0029081Y0173269D01*
X0033123Y0171210D01*
X0037604Y0170500D01*
X0039679Y0170829D01*
X0039679Y0169047D01*
X0040226Y0168500D01*
X0037732Y0168500D01*
X0036854Y0167621D01*
X0033893Y0164661D01*
X0033558Y0164800D01*
X0031649Y0164800D01*
X0029885Y0164069D01*
X0028534Y0162719D01*
X0027804Y0160955D01*
X0027804Y0159045D01*
X0028534Y0157281D01*
X0029885Y0155931D01*
X0031649Y0155200D01*
X0033558Y0155200D01*
X0035323Y0155931D01*
X0036673Y0157281D01*
X0037404Y0159045D01*
X0037404Y0160955D01*
X0036673Y0162719D01*
X0036433Y0162958D01*
X0038975Y0165500D01*
X0065280Y0165500D01*
X0065254Y0165473D01*
X0065254Y0163600D01*
X0056630Y0163600D01*
X0055254Y0162223D01*
X0055254Y0160277D01*
X0056630Y0158900D01*
X0068180Y0158900D01*
X0067754Y0158473D01*
X0067754Y0156527D01*
X0069130Y0155150D01*
X0080577Y0155150D01*
X0081954Y0156527D01*
X0081954Y0158473D01*
X0080577Y0159850D01*
X0077027Y0159850D01*
X0077454Y0160277D01*
X0077454Y0162150D01*
X0082630Y0162150D01*
X0085254Y0159527D01*
X0085254Y0140027D01*
X0086630Y0138650D01*
X0088577Y0138650D01*
X0089854Y0139927D01*
X0089854Y0135503D01*
X0089054Y0134703D01*
X0089054Y0132797D01*
X0090401Y0131450D01*
X0092306Y0131450D01*
X0093654Y0132797D01*
X0093654Y0134703D01*
X0092854Y0135503D01*
X0092854Y0159247D01*
X0093654Y0160047D01*
X0093654Y0161953D01*
X0092306Y0163300D01*
X0090401Y0163300D01*
X0089264Y0162163D01*
X0088577Y0162850D01*
X0085927Y0165500D01*
X0089601Y0165500D01*
X0090401Y0164700D01*
X0092306Y0164700D01*
X0093654Y0166047D01*
X0093654Y0167953D01*
X0092306Y0169300D01*
X0090401Y0169300D01*
X0089954Y0168853D01*
X0089954Y0170473D01*
X0089137Y0171290D01*
X0090401Y0171813D01*
X0091790Y0173203D01*
X0092542Y0175018D01*
X0092542Y0176982D01*
X0091790Y0178797D01*
X0090463Y0180125D01*
X0102665Y0180125D01*
X0102665Y0171706D01*
X0103309Y0171061D01*
X0111898Y0171061D01*
X0112542Y0171706D01*
X0112542Y0180125D01*
X0114744Y0180125D01*
X0113417Y0178797D01*
X0112665Y0176982D01*
X0112665Y0175018D01*
X0113417Y0173203D01*
X0114806Y0171813D01*
X0116621Y0171061D01*
X0118586Y0171061D01*
X0120401Y0171813D01*
X0121790Y0173203D01*
X0122542Y0175018D01*
X0122542Y0176982D01*
X0121790Y0178797D01*
X0120463Y0180125D01*
X0124744Y0180125D01*
X0123417Y0178797D01*
X0122665Y0176982D01*
X0122665Y0175018D01*
X0123417Y0173203D01*
X0124806Y0171813D01*
X0126621Y0171061D01*
X0128586Y0171061D01*
X0130401Y0171813D01*
X0131790Y0173203D01*
X0132542Y0175018D01*
X0132542Y0176982D01*
X0131790Y0178797D01*
X0130463Y0180125D01*
X0134744Y0180125D01*
X0133417Y0178797D01*
X0132665Y0176982D01*
X0132665Y0175018D01*
X0133417Y0173203D01*
X0134806Y0171813D01*
X0136621Y0171061D01*
X0137342Y0171061D01*
X0136254Y0169973D01*
X0136254Y0168027D01*
X0137630Y0166650D01*
X0144930Y0166650D01*
X0143754Y0165473D01*
X0143754Y0163527D01*
X0145130Y0162150D01*
X0178577Y0162150D01*
X0179954Y0163527D01*
X0179954Y0165473D01*
X0178777Y0166650D01*
X0188577Y0166650D01*
X0189954Y0168027D01*
X0189954Y0169973D01*
X0188784Y0171143D01*
X0190401Y0171813D01*
X0191790Y0173203D01*
X0192542Y0175018D01*
X0192542Y0176982D01*
X0191790Y0178797D01*
X0190463Y0180125D01*
X0195851Y0180125D01*
X0196651Y0179325D01*
X0198556Y0179325D01*
X0199904Y0180672D01*
X0199904Y0182578D01*
X0198556Y0183925D01*
X0196651Y0183925D01*
X0195851Y0183125D01*
X0053232Y0183125D01*
X0051538Y0181431D01*
X0052104Y0185000D01*
X0051394Y0189481D01*
X0049334Y0193523D01*
X0046126Y0196731D01*
X0043635Y0198000D01*
X0220604Y0198000D01*
X0220604Y0021032D01*
X0219334Y0023523D01*
X0216126Y0026731D01*
X0212084Y0028790D01*
X0207604Y0029500D01*
X0203123Y0028790D01*
X0199081Y0026731D01*
X0199081Y0026731D01*
X0195873Y0023523D01*
X0195873Y0023523D01*
X0193813Y0019481D01*
X0193813Y0019481D01*
X0193104Y0015000D01*
X0193813Y0010519D01*
X0195873Y0006477D01*
X0197850Y0004500D01*
X0060327Y0004500D01*
X0060924Y0004934D01*
X0061474Y0005484D01*
X0061931Y0006112D01*
X0062283Y0006805D01*
X0062524Y0007544D01*
X0062628Y0008201D01*
X0058207Y0008201D01*
X0058207Y0009201D01*
X0062628Y0009201D01*
X0062524Y0009857D01*
X0062283Y0010597D01*
X0061931Y0011289D01*
X0061474Y0011918D01*
X0060924Y0012468D01*
X0060295Y0012925D01*
X0059602Y0013278D01*
X0058863Y0013518D01*
X0058207Y0013622D01*
X0058207Y0009201D01*
X0057207Y0009201D01*
X0057207Y0013622D01*
X0056550Y0013518D01*
X0055811Y0013278D01*
X0055118Y0012925D01*
X0054489Y0012468D01*
X0053940Y0011918D01*
X0053483Y0011289D01*
X0053130Y0010597D01*
X0052890Y0009857D01*
X0052786Y0009201D01*
X0057207Y0009201D01*
X0057207Y0008201D01*
X0052786Y0008201D01*
X0052890Y0007544D01*
X0053130Y0006805D01*
X0053483Y0006112D01*
X0053940Y0005484D01*
X0054489Y0004934D01*
X0055087Y0004500D01*
X0024604Y0004500D01*
X0024604Y0005496D02*
X0053931Y0005496D01*
X0053288Y0006494D02*
X0024604Y0006494D01*
X0024604Y0007493D02*
X0045393Y0007493D01*
X0045320Y0007541D02*
X0045984Y0007097D01*
X0046721Y0006792D01*
X0047419Y0006653D01*
X0047419Y0013157D01*
X0048388Y0013157D01*
X0048388Y0006653D01*
X0049086Y0006792D01*
X0049823Y0007097D01*
X0050487Y0007541D01*
X0051052Y0008105D01*
X0051495Y0008769D01*
X0051801Y0009507D01*
X0051956Y0010290D01*
X0051956Y0013157D01*
X0048388Y0013157D01*
X0048388Y0014126D01*
X0051956Y0014126D01*
X0051956Y0016994D01*
X0051801Y0017777D01*
X0051495Y0018514D01*
X0051052Y0019178D01*
X0050487Y0019742D01*
X0049823Y0020186D01*
X0049086Y0020491D01*
X0048388Y0020630D01*
X0048388Y0014126D01*
X0047419Y0014126D01*
X0047419Y0013157D01*
X0043851Y0013157D01*
X0043851Y0010290D01*
X0044007Y0009507D01*
X0044312Y0008769D01*
X0044756Y0008105D01*
X0045320Y0007541D01*
X0044498Y0008491D02*
X0024604Y0008491D01*
X0024604Y0009490D02*
X0044014Y0009490D01*
X0043851Y0010488D02*
X0024604Y0010488D01*
X0024604Y0011487D02*
X0043851Y0011487D01*
X0043851Y0012485D02*
X0024604Y0012485D01*
X0024604Y0013484D02*
X0047419Y0013484D01*
X0047419Y0014126D02*
X0043851Y0014126D01*
X0043851Y0016994D01*
X0044007Y0017777D01*
X0044312Y0018514D01*
X0044756Y0019178D01*
X0045320Y0019742D01*
X0045984Y0020186D01*
X0046721Y0020491D01*
X0047419Y0020630D01*
X0047419Y0014126D01*
X0047419Y0014482D02*
X0048388Y0014482D01*
X0048388Y0013484D02*
X0056445Y0013484D01*
X0057207Y0013484D02*
X0058207Y0013484D01*
X0058968Y0013484D02*
X0193344Y0013484D01*
X0193186Y0014482D02*
X0051956Y0014482D01*
X0051956Y0015481D02*
X0193180Y0015481D01*
X0193104Y0015000D02*
X0193104Y0015000D01*
X0193338Y0016479D02*
X0051956Y0016479D01*
X0051860Y0017478D02*
X0193496Y0017478D01*
X0193654Y0018476D02*
X0051511Y0018476D01*
X0050755Y0019475D02*
X0193812Y0019475D01*
X0194319Y0020473D02*
X0049130Y0020473D01*
X0048388Y0020473D02*
X0047419Y0020473D01*
X0046677Y0020473D02*
X0024604Y0020473D01*
X0024604Y0019475D02*
X0045052Y0019475D01*
X0044296Y0018476D02*
X0024604Y0018476D01*
X0024604Y0017478D02*
X0043947Y0017478D01*
X0043851Y0016479D02*
X0024604Y0016479D01*
X0024604Y0015481D02*
X0043851Y0015481D01*
X0043851Y0014482D02*
X0024604Y0014482D01*
X0024604Y0021472D02*
X0194828Y0021472D01*
X0195336Y0022470D02*
X0024604Y0022470D01*
X0024604Y0023469D02*
X0195845Y0023469D01*
X0196817Y0024467D02*
X0048986Y0024467D01*
X0048710Y0024353D02*
X0050199Y0024970D01*
X0051339Y0026110D01*
X0051956Y0027599D01*
X0051956Y0028500D01*
X0063850Y0028500D01*
X0065208Y0029858D01*
X0065267Y0029858D01*
X0066622Y0031213D01*
X0069206Y0031213D01*
X0069850Y0031857D01*
X0069850Y0034441D01*
X0070159Y0034750D01*
X0182101Y0034750D01*
X0182901Y0033950D01*
X0184806Y0033950D01*
X0186154Y0035297D01*
X0186154Y0036450D01*
X0187306Y0036450D01*
X0188654Y0037797D01*
X0188654Y0039703D01*
X0187306Y0041050D01*
X0185401Y0041050D01*
X0184801Y0040450D01*
X0131656Y0040450D01*
X0131056Y0041050D01*
X0129151Y0041050D01*
X0128551Y0040450D01*
X0077281Y0040450D01*
X0076681Y0041050D01*
X0074776Y0041050D01*
X0074235Y0040509D01*
X0069850Y0040509D01*
X0069850Y0040643D01*
X0069206Y0041287D01*
X0064751Y0041287D01*
X0064107Y0040643D01*
X0064107Y0036975D01*
X0064751Y0036331D01*
X0067497Y0036331D01*
X0067335Y0036169D01*
X0064751Y0036169D01*
X0064107Y0035525D01*
X0064107Y0032941D01*
X0064025Y0032858D01*
X0063965Y0032858D01*
X0063087Y0031980D01*
X0062607Y0031500D01*
X0059025Y0031500D01*
X0060504Y0032112D01*
X0061893Y0033502D01*
X0062645Y0035317D01*
X0062645Y0037282D01*
X0061893Y0039097D01*
X0060504Y0040486D01*
X0058689Y0041238D01*
X0056724Y0041238D01*
X0054909Y0040486D01*
X0053520Y0039097D01*
X0052768Y0037282D01*
X0052768Y0035317D01*
X0053520Y0033502D01*
X0054909Y0032112D01*
X0056388Y0031500D01*
X0051956Y0031500D01*
X0051956Y0035117D01*
X0051339Y0036607D01*
X0050199Y0037747D01*
X0048710Y0038364D01*
X0047097Y0038364D01*
X0045608Y0037747D01*
X0044468Y0036607D01*
X0043851Y0035117D01*
X0043851Y0027599D01*
X0044468Y0026110D01*
X0045608Y0024970D01*
X0047097Y0024353D01*
X0048710Y0024353D01*
X0046821Y0024467D02*
X0024604Y0024467D01*
X0024604Y0025466D02*
X0045112Y0025466D01*
X0044321Y0026464D02*
X0024604Y0026464D01*
X0024604Y0027463D02*
X0043907Y0027463D01*
X0043851Y0028461D02*
X0024604Y0028461D01*
X0024604Y0029460D02*
X0043851Y0029460D01*
X0043851Y0030458D02*
X0024604Y0030458D01*
X0024604Y0031457D02*
X0043851Y0031457D01*
X0043851Y0032455D02*
X0024604Y0032455D01*
X0024604Y0033454D02*
X0043851Y0033454D01*
X0043851Y0034452D02*
X0024604Y0034452D01*
X0024604Y0035451D02*
X0043989Y0035451D01*
X0044403Y0036449D02*
X0024604Y0036449D01*
X0024604Y0037448D02*
X0045309Y0037448D01*
X0050498Y0037448D02*
X0052837Y0037448D01*
X0052768Y0036449D02*
X0051404Y0036449D01*
X0051818Y0035451D02*
X0052768Y0035451D01*
X0053126Y0034452D02*
X0051956Y0034452D01*
X0051956Y0033454D02*
X0053568Y0033454D01*
X0054566Y0032455D02*
X0051956Y0032455D01*
X0051956Y0028461D02*
X0202477Y0028461D01*
X0200517Y0027463D02*
X0051900Y0027463D01*
X0051486Y0026464D02*
X0198814Y0026464D01*
X0197816Y0025466D02*
X0050695Y0025466D01*
X0048388Y0019475D02*
X0047419Y0019475D01*
X0047419Y0018476D02*
X0048388Y0018476D01*
X0048388Y0017478D02*
X0047419Y0017478D01*
X0047419Y0016479D02*
X0048388Y0016479D01*
X0048388Y0015481D02*
X0047419Y0015481D01*
X0047419Y0012485D02*
X0048388Y0012485D01*
X0048388Y0011487D02*
X0047419Y0011487D01*
X0047419Y0010488D02*
X0048388Y0010488D01*
X0048388Y0009490D02*
X0047419Y0009490D01*
X0047419Y0008491D02*
X0048388Y0008491D01*
X0048388Y0007493D02*
X0047419Y0007493D01*
X0050415Y0007493D02*
X0052907Y0007493D01*
X0051309Y0008491D02*
X0057207Y0008491D01*
X0057207Y0009490D02*
X0058207Y0009490D01*
X0058207Y0010488D02*
X0057207Y0010488D01*
X0057207Y0011487D02*
X0058207Y0011487D01*
X0058207Y0012485D02*
X0057207Y0012485D01*
X0054513Y0012485D02*
X0051956Y0012485D01*
X0051956Y0011487D02*
X0053626Y0011487D01*
X0053095Y0010488D02*
X0051956Y0010488D01*
X0051793Y0009490D02*
X0052831Y0009490D01*
X0058207Y0008491D02*
X0194847Y0008491D01*
X0195355Y0007493D02*
X0062507Y0007493D01*
X0062125Y0006494D02*
X0195864Y0006494D01*
X0195873Y0006477D02*
X0195873Y0006477D01*
X0196854Y0005496D02*
X0061482Y0005496D01*
X0062582Y0009490D02*
X0194338Y0009490D01*
X0193829Y0010488D02*
X0062319Y0010488D01*
X0061787Y0011487D02*
X0193660Y0011487D01*
X0193813Y0010519D02*
X0193813Y0010519D01*
X0193502Y0012485D02*
X0060900Y0012485D01*
X0064810Y0029460D02*
X0207350Y0029460D01*
X0207857Y0029460D02*
X0220604Y0029460D01*
X0220604Y0030458D02*
X0065867Y0030458D01*
X0063563Y0032455D02*
X0060847Y0032455D01*
X0061846Y0033454D02*
X0064107Y0033454D01*
X0064107Y0034452D02*
X0062287Y0034452D01*
X0062645Y0035451D02*
X0064107Y0035451D01*
X0064633Y0036449D02*
X0062645Y0036449D01*
X0062576Y0037448D02*
X0064107Y0037448D01*
X0064107Y0038446D02*
X0062163Y0038446D01*
X0061545Y0039445D02*
X0064107Y0039445D01*
X0064107Y0040443D02*
X0060547Y0040443D01*
X0062065Y0043546D02*
X0062709Y0044190D01*
X0062709Y0056912D01*
X0062065Y0057557D01*
X0055642Y0057557D01*
X0054998Y0056912D01*
X0054998Y0054151D01*
X0035125Y0054151D01*
X0033558Y0054800D01*
X0031649Y0054800D01*
X0029885Y0054069D01*
X0028534Y0052719D01*
X0027804Y0050955D01*
X0027804Y0049045D01*
X0028534Y0047281D01*
X0029885Y0045931D01*
X0031649Y0045200D01*
X0033558Y0045200D01*
X0035323Y0045931D01*
X0036343Y0046951D01*
X0054998Y0046951D01*
X0054998Y0044190D01*
X0055642Y0043546D01*
X0062065Y0043546D01*
X0062709Y0044437D02*
X0132179Y0044437D01*
X0132179Y0044047D02*
X0132179Y0045953D01*
X0132779Y0046553D01*
X0132779Y0050079D01*
X0135904Y0053204D01*
X0136199Y0053500D01*
X0124356Y0053500D01*
X0123556Y0052700D01*
X0121651Y0052700D01*
X0120304Y0054047D01*
X0120304Y0055953D01*
X0121651Y0057300D01*
X0123556Y0057300D01*
X0124356Y0056500D01*
X0126601Y0056500D01*
X0126554Y0056547D01*
X0126554Y0058453D01*
X0127901Y0059800D01*
X0129806Y0059800D01*
X0130357Y0059249D01*
X0130357Y0059275D01*
X0131001Y0059919D01*
X0135456Y0059919D01*
X0136100Y0059275D01*
X0136100Y0056868D01*
X0139786Y0060554D01*
X0139732Y0060607D01*
X0139732Y0064275D01*
X0140376Y0064919D01*
X0144831Y0064919D01*
X0145475Y0064275D01*
X0145475Y0060607D01*
X0144831Y0059963D01*
X0143438Y0059963D01*
X0137854Y0054379D01*
X0137675Y0054200D01*
X0139732Y0054200D01*
X0139732Y0054393D01*
X0140376Y0055037D01*
X0144831Y0055037D01*
X0145475Y0054393D01*
X0145475Y0050725D01*
X0144831Y0050081D01*
X0140376Y0050081D01*
X0139732Y0050725D01*
X0139732Y0050800D01*
X0138308Y0050800D01*
X0136179Y0048671D01*
X0136179Y0046553D01*
X0136779Y0045953D01*
X0136779Y0044047D01*
X0135431Y0042700D01*
X0133526Y0042700D01*
X0132179Y0044047D01*
X0132787Y0043439D02*
X0024604Y0043439D01*
X0024604Y0044437D02*
X0054998Y0044437D01*
X0054998Y0045436D02*
X0034128Y0045436D01*
X0035826Y0046434D02*
X0054998Y0046434D01*
X0054867Y0040443D02*
X0024604Y0040443D01*
X0024604Y0039445D02*
X0053868Y0039445D01*
X0053251Y0038446D02*
X0024604Y0038446D01*
X0024604Y0041442D02*
X0220604Y0041442D01*
X0220604Y0042440D02*
X0024604Y0042440D01*
X0024604Y0045436D02*
X0031079Y0045436D01*
X0029381Y0046434D02*
X0024604Y0046434D01*
X0024604Y0047433D02*
X0028471Y0047433D01*
X0028058Y0048432D02*
X0024604Y0048432D01*
X0024604Y0049430D02*
X0027804Y0049430D01*
X0027804Y0050429D02*
X0024604Y0050429D01*
X0024604Y0051427D02*
X0027999Y0051427D01*
X0028413Y0052426D02*
X0024604Y0052426D01*
X0024604Y0053424D02*
X0029239Y0053424D01*
X0030738Y0054423D02*
X0024604Y0054423D01*
X0024604Y0055421D02*
X0031115Y0055421D01*
X0031649Y0055200D02*
X0029885Y0055931D01*
X0028534Y0057281D01*
X0027804Y0059045D01*
X0027804Y0060955D01*
X0028534Y0062719D01*
X0029885Y0064069D01*
X0031649Y0064800D01*
X0033558Y0064800D01*
X0035323Y0064069D01*
X0036673Y0062719D01*
X0037404Y0060955D01*
X0037404Y0059045D01*
X0036673Y0057281D01*
X0035323Y0055931D01*
X0033558Y0055200D01*
X0031649Y0055200D01*
X0034092Y0055421D02*
X0054998Y0055421D01*
X0054998Y0054423D02*
X0034469Y0054423D01*
X0035811Y0056420D02*
X0054998Y0056420D01*
X0055503Y0057418D02*
X0036730Y0057418D01*
X0037143Y0058417D02*
X0072354Y0058417D01*
X0072354Y0059415D02*
X0037404Y0059415D01*
X0037404Y0060414D02*
X0072354Y0060414D01*
X0072354Y0061412D02*
X0037214Y0061412D01*
X0036800Y0062411D02*
X0072354Y0062411D01*
X0072354Y0063409D02*
X0062709Y0063409D01*
X0062709Y0063398D02*
X0062709Y0068949D01*
X0059354Y0068949D01*
X0059354Y0069949D01*
X0062709Y0069949D01*
X0062709Y0074648D01*
X0072354Y0065004D01*
X0072354Y0053754D01*
X0076982Y0049125D01*
X0116476Y0049125D01*
X0117276Y0048325D01*
X0119181Y0048325D01*
X0120529Y0049672D01*
X0120529Y0051578D01*
X0119181Y0052925D01*
X0117404Y0052925D01*
X0117404Y0054078D01*
X0116056Y0055425D01*
X0114904Y0055425D01*
X0114904Y0056578D01*
X0113556Y0057925D01*
X0111651Y0057925D01*
X0110851Y0057125D01*
X0079475Y0057125D01*
X0079104Y0057496D01*
X0079104Y0068746D01*
X0071225Y0076625D01*
X0086982Y0076625D01*
X0087607Y0076000D01*
X0091350Y0076000D01*
X0093675Y0078325D01*
X0094806Y0078325D01*
X0095754Y0079272D01*
X0095754Y0076027D01*
X0097130Y0074650D01*
X0099077Y0074650D01*
X0100454Y0076027D01*
X0100454Y0078325D01*
X0102306Y0078325D01*
X0103106Y0079125D01*
X0128232Y0079125D01*
X0135304Y0072054D01*
X0135304Y0070922D01*
X0136651Y0069575D01*
X0138556Y0069575D01*
X0139904Y0070922D01*
X0139904Y0072828D01*
X0138556Y0074175D01*
X0137425Y0074175D01*
X0136450Y0075150D01*
X0137077Y0075150D01*
X0138454Y0076527D01*
X0138454Y0088458D01*
X0138642Y0088846D01*
X0138454Y0089394D01*
X0138454Y0089973D01*
X0138148Y0090278D01*
X0138008Y0090686D01*
X0137487Y0090940D01*
X0137077Y0091350D01*
X0136646Y0091350D01*
X0133587Y0092840D01*
X0133177Y0093250D01*
X0132746Y0093250D01*
X0132358Y0093439D01*
X0131810Y0093250D01*
X0121377Y0093250D01*
X0121454Y0093327D01*
X0121454Y0095150D01*
X0153876Y0095150D01*
X0152804Y0094078D01*
X0152804Y0092172D01*
X0153413Y0091562D01*
X0152804Y0090953D01*
X0152804Y0089047D01*
X0154151Y0087700D01*
X0156056Y0087700D01*
X0156856Y0088500D01*
X0159101Y0088500D01*
X0159054Y0088453D01*
X0159054Y0087300D01*
X0157276Y0087300D01*
X0155929Y0085953D01*
X0155929Y0084047D01*
X0157276Y0082700D01*
X0159181Y0082700D01*
X0159981Y0083500D01*
X0184601Y0083500D01*
X0185401Y0082700D01*
X0187306Y0082700D01*
X0188654Y0084047D01*
X0188654Y0085953D01*
X0187306Y0087300D01*
X0186154Y0087300D01*
X0186154Y0088453D01*
X0186106Y0088500D01*
X0193029Y0088500D01*
X0193534Y0087281D01*
X0194885Y0085931D01*
X0196649Y0085200D01*
X0198558Y0085200D01*
X0200323Y0085931D01*
X0201673Y0087281D01*
X0202404Y0089045D01*
X0202404Y0090955D01*
X0201673Y0092719D01*
X0200323Y0094069D01*
X0198558Y0094800D01*
X0196649Y0094800D01*
X0194885Y0094069D01*
X0193534Y0092719D01*
X0193029Y0091500D01*
X0156856Y0091500D01*
X0156794Y0091562D01*
X0156856Y0091625D01*
X0181975Y0091625D01*
X0182854Y0092504D01*
X0188850Y0098500D01*
X0193029Y0098500D01*
X0193534Y0097281D01*
X0194885Y0095931D01*
X0196649Y0095200D01*
X0198558Y0095200D01*
X0200323Y0095931D01*
X0201673Y0097281D01*
X0202404Y0099045D01*
X0202404Y0100955D01*
X0201673Y0102719D01*
X0200323Y0104069D01*
X0198558Y0104800D01*
X0196649Y0104800D01*
X0194885Y0104069D01*
X0193534Y0102719D01*
X0193029Y0101500D01*
X0187607Y0101500D01*
X0180732Y0094625D01*
X0156856Y0094625D01*
X0156331Y0095150D01*
X0178320Y0095150D01*
X0179643Y0095698D01*
X0180655Y0096711D01*
X0181204Y0098034D01*
X0181204Y0099466D01*
X0180655Y0100789D01*
X0179643Y0101802D01*
X0178320Y0102350D01*
X0168654Y0102350D01*
X0168654Y0104078D01*
X0167306Y0105425D01*
X0166744Y0105425D01*
X0166744Y0110253D01*
X0166878Y0110253D01*
X0167522Y0110898D01*
X0167522Y0115352D01*
X0166878Y0115997D01*
X0166744Y0115997D01*
X0166744Y0117606D01*
X0167901Y0116450D01*
X0169806Y0116450D01*
X0171154Y0117797D01*
X0171154Y0118500D01*
X0171601Y0118500D01*
X0171554Y0118453D01*
X0171554Y0116547D01*
X0172901Y0115200D01*
X0174732Y0115200D01*
X0174732Y0113225D01*
X0175376Y0112581D01*
X0179831Y0112581D01*
X0180475Y0113225D01*
X0180475Y0116893D01*
X0179831Y0117537D01*
X0177530Y0117537D01*
X0176863Y0118204D01*
X0175867Y0119200D01*
X0175800Y0119200D01*
X0175979Y0119379D01*
X0177229Y0120629D01*
X0177229Y0126379D01*
X0187804Y0115804D01*
X0187804Y0114047D01*
X0189151Y0112700D01*
X0191056Y0112700D01*
X0192404Y0114047D01*
X0192404Y0115953D01*
X0191056Y0117300D01*
X0190550Y0117300D01*
X0176600Y0131250D01*
X0177229Y0131879D01*
X0183850Y0138500D01*
X0193029Y0138500D01*
X0193534Y0137281D01*
X0194885Y0135931D01*
X0196649Y0135200D01*
X0198558Y0135200D01*
X0200323Y0135931D01*
X0201673Y0137281D01*
X0202404Y0139045D01*
X0202404Y0140955D01*
X0201673Y0142719D01*
X0200323Y0144069D01*
X0198558Y0144800D01*
X0196649Y0144800D01*
X0194885Y0144069D01*
X0193534Y0142719D01*
X0193029Y0141500D01*
X0182607Y0141500D01*
X0175107Y0134000D01*
X0168106Y0134000D01*
X0167306Y0134800D01*
X0165401Y0134800D01*
X0164054Y0133453D01*
X0164054Y0131547D01*
X0165401Y0130200D01*
X0167306Y0130200D01*
X0168106Y0131000D01*
X0168357Y0131000D01*
X0163169Y0125812D01*
X0162931Y0126050D01*
X0161026Y0126050D01*
X0159679Y0124703D01*
X0159679Y0122797D01*
X0160801Y0121675D01*
X0159151Y0121675D01*
X0157804Y0120328D01*
X0157804Y0118422D01*
X0159151Y0117075D01*
X0161056Y0117075D01*
X0161656Y0117675D01*
X0163344Y0117675D01*
X0163344Y0115997D01*
X0163211Y0115997D01*
X0162567Y0115352D01*
X0162567Y0110898D01*
X0163211Y0110253D01*
X0163344Y0110253D01*
X0163344Y0104387D01*
X0162306Y0105425D01*
X0161358Y0105425D01*
X0159104Y0108055D01*
X0159104Y0108121D01*
X0158705Y0108520D01*
X0158338Y0108948D01*
X0158272Y0108953D01*
X0158225Y0109000D01*
X0157661Y0109000D01*
X0157099Y0109043D01*
X0157049Y0109000D01*
X0151982Y0109000D01*
X0151357Y0108375D01*
X0148100Y0108375D01*
X0148479Y0108754D01*
X0148479Y0108799D01*
X0152552Y0113325D01*
X0153556Y0113325D01*
X0154904Y0114672D01*
X0154904Y0116578D01*
X0153556Y0117925D01*
X0151651Y0117925D01*
X0150304Y0116578D01*
X0150304Y0115312D01*
X0149233Y0114123D01*
X0147931Y0115425D01*
X0146779Y0115425D01*
X0146779Y0116578D01*
X0145431Y0117925D01*
X0143526Y0117925D01*
X0142726Y0117125D01*
X0140732Y0117125D01*
X0138857Y0115250D01*
X0137979Y0114371D01*
X0137979Y0106254D01*
X0139607Y0104625D01*
X0111350Y0104625D01*
X0108325Y0107650D01*
X0123577Y0107650D01*
X0124954Y0109027D01*
X0124954Y0110973D01*
X0123577Y0112350D01*
X0106630Y0112350D01*
X0105979Y0111698D01*
X0105979Y0117496D01*
X0104279Y0119196D01*
X0104279Y0120328D01*
X0102931Y0121675D01*
X0101026Y0121675D01*
X0099679Y0120328D01*
X0099679Y0118422D01*
X0101026Y0117075D01*
X0102157Y0117075D01*
X0102979Y0116254D01*
X0102979Y0108754D01*
X0103857Y0107875D01*
X0109382Y0102350D01*
X0051887Y0102350D01*
X0050564Y0101802D01*
X0049552Y0100789D01*
X0049004Y0099466D01*
X0049004Y0098034D01*
X0049552Y0096711D01*
X0050564Y0095698D01*
X0051887Y0095150D01*
X0101846Y0095150D01*
X0097257Y0091350D01*
X0097130Y0091350D01*
X0096520Y0090740D01*
X0095855Y0090189D01*
X0095843Y0090063D01*
X0095754Y0089973D01*
X0095754Y0089110D01*
X0095673Y0088251D01*
X0095754Y0088153D01*
X0095754Y0081978D01*
X0094806Y0082925D01*
X0092901Y0082925D01*
X0091554Y0081578D01*
X0091554Y0081178D01*
X0090431Y0082300D01*
X0088526Y0082300D01*
X0087726Y0081500D01*
X0077856Y0081500D01*
X0077904Y0081547D01*
X0077904Y0083453D01*
X0076556Y0084800D01*
X0074651Y0084800D01*
X0073304Y0083453D01*
X0073304Y0082536D01*
X0072355Y0081745D01*
X0065725Y0088375D01*
X0044475Y0088375D01*
X0042854Y0089996D01*
X0042854Y0106497D01*
X0042901Y0106450D01*
X0044032Y0106450D01*
X0044482Y0106000D01*
X0057101Y0106000D01*
X0057901Y0105200D01*
X0059806Y0105200D01*
X0061154Y0106547D01*
X0061154Y0108453D01*
X0059806Y0109800D01*
X0058654Y0109800D01*
X0058654Y0110953D01*
X0058606Y0111000D01*
X0063351Y0111000D01*
X0064151Y0110200D01*
X0066056Y0110200D01*
X0067404Y0111547D01*
X0067404Y0113079D01*
X0068042Y0112441D01*
X0067804Y0112203D01*
X0067804Y0110297D01*
X0069151Y0108950D01*
X0071056Y0108950D01*
X0072404Y0110297D01*
X0072404Y0110825D01*
X0073556Y0110825D01*
X0074904Y0112172D01*
X0074904Y0114078D01*
X0073556Y0115425D01*
X0072425Y0115425D01*
X0068850Y0119000D01*
X0060606Y0119000D01*
X0060231Y0119375D01*
X0061154Y0120297D01*
X0061154Y0122203D01*
X0059806Y0123550D01*
X0057901Y0123550D01*
X0057101Y0122750D01*
X0055475Y0122750D01*
X0055475Y0124275D01*
X0054831Y0124919D01*
X0051846Y0124919D01*
X0052008Y0125081D01*
X0054831Y0125081D01*
X0055475Y0125725D01*
X0055475Y0129393D01*
X0054954Y0129914D01*
X0054954Y0138900D01*
X0082327Y0138900D01*
X0084329Y0140902D01*
X0084329Y0142848D01*
X0082952Y0144225D01*
X0081005Y0144225D01*
X0080380Y0143600D01*
X0051630Y0143600D01*
X0050254Y0142223D01*
X0050254Y0129914D01*
X0050248Y0129909D01*
X0050189Y0129909D01*
X0046254Y0125973D01*
X0046254Y0124103D01*
X0045556Y0124800D01*
X0043651Y0124800D01*
X0042304Y0123453D01*
X0042304Y0121547D01*
X0042851Y0121000D01*
X0041554Y0119703D01*
X0041554Y0118050D01*
X0040901Y0118050D01*
X0039554Y0116703D01*
X0039554Y0115171D01*
X0036899Y0117826D01*
X0037404Y0119045D01*
X0037404Y0120955D01*
X0036673Y0122719D01*
X0035323Y0124069D01*
X0033558Y0124800D01*
X0031649Y0124800D01*
X0029885Y0124069D01*
X0028534Y0122719D01*
X0027804Y0120955D01*
X0027804Y0119045D01*
X0028534Y0117281D01*
X0029885Y0115931D01*
X0031649Y0115200D01*
X0033558Y0115200D01*
X0034777Y0115705D01*
X0039854Y0110629D01*
X0039854Y0104871D01*
X0036899Y0107826D01*
X0037404Y0109045D01*
X0037404Y0110955D01*
X0036673Y0112719D01*
X0035323Y0114069D01*
X0033558Y0114800D01*
X0031649Y0114800D01*
X0029885Y0114069D01*
X0028534Y0112719D01*
X0027804Y0110955D01*
X0027804Y0109045D01*
X0028534Y0107281D01*
X0029885Y0105931D01*
X0031649Y0105200D01*
X0033558Y0105200D01*
X0034777Y0105705D01*
X0037354Y0103129D01*
X0037354Y0101075D01*
X0036673Y0102719D01*
X0035323Y0104069D01*
X0033558Y0104800D01*
X0031649Y0104800D01*
X0029885Y0104069D01*
X0028534Y0102719D01*
X0027804Y0100955D01*
X0027804Y0099045D01*
X0028534Y0097281D01*
X0029885Y0095931D01*
X0031649Y0095200D01*
X0033558Y0095200D01*
X0035323Y0095931D01*
X0036673Y0097281D01*
X0037354Y0098925D01*
X0037354Y0091075D01*
X0036673Y0092719D01*
X0035323Y0094069D01*
X0033558Y0094800D01*
X0031649Y0094800D01*
X0029885Y0094069D01*
X0028534Y0092719D01*
X0027804Y0090955D01*
X0027804Y0089045D01*
X0028534Y0087281D01*
X0029885Y0085931D01*
X0031649Y0085200D01*
X0033558Y0085200D01*
X0035323Y0085931D01*
X0036673Y0087281D01*
X0037354Y0088925D01*
X0037354Y0088129D01*
X0041729Y0083754D01*
X0042607Y0082875D01*
X0043476Y0082875D01*
X0043429Y0082828D01*
X0043429Y0081675D01*
X0042276Y0081675D01*
X0040929Y0080328D01*
X0040929Y0079175D01*
X0039776Y0079175D01*
X0038429Y0077828D01*
X0038429Y0075922D01*
X0039776Y0074575D01*
X0041681Y0074575D01*
X0042481Y0075375D01*
X0054998Y0075375D01*
X0054998Y0069949D01*
X0058353Y0069949D01*
X0058353Y0068949D01*
X0054998Y0068949D01*
X0054998Y0063398D01*
X0055073Y0063119D01*
X0055217Y0062868D01*
X0055422Y0062663D01*
X0055673Y0062518D01*
X0055953Y0062443D01*
X0058354Y0062443D01*
X0058354Y0068949D01*
X0059354Y0068949D01*
X0059354Y0062443D01*
X0061754Y0062443D01*
X0062034Y0062518D01*
X0062285Y0062663D01*
X0062490Y0062868D01*
X0062634Y0063119D01*
X0062709Y0063398D01*
X0062709Y0064408D02*
X0072354Y0064408D01*
X0071951Y0065406D02*
X0062709Y0065406D01*
X0062709Y0066405D02*
X0070952Y0066405D01*
X0069954Y0067403D02*
X0062709Y0067403D01*
X0062709Y0068402D02*
X0068955Y0068402D01*
X0067957Y0069400D02*
X0059354Y0069400D01*
X0059354Y0068402D02*
X0058354Y0068402D01*
X0058353Y0069400D02*
X0037368Y0069400D01*
X0037384Y0069500D02*
X0033104Y0069500D01*
X0033104Y0070500D01*
X0037384Y0070500D01*
X0037285Y0071124D01*
X0037052Y0071843D01*
X0036709Y0072516D01*
X0036265Y0073127D01*
X0035731Y0073661D01*
X0035119Y0074105D01*
X0034446Y0074448D01*
X0033728Y0074682D01*
X0033104Y0074781D01*
X0033104Y0070500D01*
X0032104Y0070500D01*
X0032104Y0074781D01*
X0031480Y0074682D01*
X0030761Y0074448D01*
X0030088Y0074105D01*
X0029477Y0073661D01*
X0028942Y0073127D01*
X0028498Y0072516D01*
X0028155Y0071843D01*
X0027922Y0071124D01*
X0027823Y0070500D01*
X0032103Y0070500D01*
X0032103Y0069500D01*
X0027823Y0069500D01*
X0027922Y0068876D01*
X0028155Y0068157D01*
X0028498Y0067484D01*
X0028942Y0066873D01*
X0029477Y0066339D01*
X0030088Y0065895D01*
X0030761Y0065552D01*
X0031480Y0065318D01*
X0032104Y0065219D01*
X0032104Y0069500D01*
X0033104Y0069500D01*
X0033104Y0065219D01*
X0033728Y0065318D01*
X0034446Y0065552D01*
X0035119Y0065895D01*
X0035731Y0066339D01*
X0036265Y0066873D01*
X0036709Y0067484D01*
X0037052Y0068157D01*
X0037285Y0068876D01*
X0037384Y0069500D01*
X0037131Y0068402D02*
X0054998Y0068402D01*
X0054998Y0067403D02*
X0036650Y0067403D01*
X0035796Y0066405D02*
X0054998Y0066405D01*
X0054998Y0065406D02*
X0033998Y0065406D01*
X0033104Y0065406D02*
X0032104Y0065406D01*
X0031209Y0065406D02*
X0024604Y0065406D01*
X0024604Y0064408D02*
X0030702Y0064408D01*
X0029225Y0063409D02*
X0024604Y0063409D01*
X0024604Y0062411D02*
X0028407Y0062411D01*
X0027993Y0061412D02*
X0024604Y0061412D01*
X0024604Y0060414D02*
X0027804Y0060414D01*
X0027804Y0059415D02*
X0024604Y0059415D01*
X0024604Y0058417D02*
X0028064Y0058417D01*
X0028477Y0057418D02*
X0024604Y0057418D01*
X0024604Y0056420D02*
X0029396Y0056420D01*
X0034505Y0064408D02*
X0054998Y0064408D01*
X0054998Y0063409D02*
X0035983Y0063409D01*
X0033104Y0066405D02*
X0032104Y0066405D01*
X0032104Y0067403D02*
X0033104Y0067403D01*
X0033104Y0068402D02*
X0032104Y0068402D01*
X0032104Y0069400D02*
X0033104Y0069400D01*
X0033104Y0070399D02*
X0054998Y0070399D01*
X0054998Y0071397D02*
X0037197Y0071397D01*
X0036770Y0072396D02*
X0054998Y0072396D01*
X0054998Y0073394D02*
X0035997Y0073394D01*
X0034555Y0074393D02*
X0054998Y0074393D01*
X0062709Y0074393D02*
X0062964Y0074393D01*
X0062709Y0073394D02*
X0063963Y0073394D01*
X0064961Y0072396D02*
X0062709Y0072396D01*
X0062709Y0071397D02*
X0065960Y0071397D01*
X0066958Y0070399D02*
X0062709Y0070399D01*
X0059354Y0067403D02*
X0058354Y0067403D01*
X0058354Y0066405D02*
X0059354Y0066405D01*
X0059354Y0065406D02*
X0058354Y0065406D01*
X0058354Y0064408D02*
X0059354Y0064408D01*
X0059354Y0063409D02*
X0058354Y0063409D01*
X0062204Y0057418D02*
X0072354Y0057418D01*
X0072354Y0056420D02*
X0062709Y0056420D01*
X0062709Y0055421D02*
X0072354Y0055421D01*
X0072354Y0054423D02*
X0062709Y0054423D01*
X0062709Y0053424D02*
X0072683Y0053424D01*
X0073682Y0052426D02*
X0062709Y0052426D01*
X0062709Y0051427D02*
X0074680Y0051427D01*
X0075679Y0050429D02*
X0062709Y0050429D01*
X0062709Y0049430D02*
X0076677Y0049430D01*
X0079182Y0057418D02*
X0111144Y0057418D01*
X0114063Y0057418D02*
X0126554Y0057418D01*
X0126554Y0058417D02*
X0079104Y0058417D01*
X0079104Y0059415D02*
X0127516Y0059415D01*
X0130191Y0059415D02*
X0130498Y0059415D01*
X0131032Y0060156D02*
X0131312Y0060081D01*
X0133040Y0060081D01*
X0133040Y0062370D01*
X0133418Y0062370D01*
X0133418Y0062748D01*
X0136100Y0062748D01*
X0136100Y0064082D01*
X0136025Y0064362D01*
X0135880Y0064612D01*
X0135676Y0064817D01*
X0135425Y0064962D01*
X0135145Y0065037D01*
X0133418Y0065037D01*
X0133418Y0062748D01*
X0133040Y0062748D01*
X0133040Y0065037D01*
X0131312Y0065037D01*
X0131032Y0064962D01*
X0130781Y0064817D01*
X0130577Y0064612D01*
X0130432Y0064362D01*
X0130357Y0064082D01*
X0130357Y0062748D01*
X0133039Y0062748D01*
X0133039Y0062370D01*
X0130357Y0062370D01*
X0130357Y0061036D01*
X0130432Y0060757D01*
X0130577Y0060506D01*
X0130781Y0060301D01*
X0131032Y0060156D01*
X0130669Y0060414D02*
X0079104Y0060414D01*
X0079104Y0061412D02*
X0130357Y0061412D01*
X0130357Y0063409D02*
X0096765Y0063409D01*
X0096681Y0063325D02*
X0098029Y0064672D01*
X0098029Y0066578D01*
X0096681Y0067925D01*
X0095550Y0067925D01*
X0094534Y0068941D01*
X0090475Y0068941D01*
X0090475Y0069275D01*
X0089831Y0069919D01*
X0085376Y0069919D01*
X0084732Y0069275D01*
X0084732Y0065607D01*
X0085376Y0064963D01*
X0089831Y0064963D01*
X0090475Y0065607D01*
X0090475Y0065941D01*
X0093291Y0065941D01*
X0093429Y0065804D01*
X0093429Y0064672D01*
X0094776Y0063325D01*
X0096681Y0063325D01*
X0097764Y0064408D02*
X0130458Y0064408D01*
X0133040Y0064408D02*
X0133418Y0064408D01*
X0133418Y0063409D02*
X0133040Y0063409D01*
X0133039Y0062411D02*
X0079104Y0062411D01*
X0079104Y0063409D02*
X0094692Y0063409D01*
X0093693Y0064408D02*
X0079104Y0064408D01*
X0079104Y0065406D02*
X0084933Y0065406D01*
X0084732Y0066405D02*
X0079104Y0066405D01*
X0079104Y0067403D02*
X0084732Y0067403D01*
X0084732Y0068402D02*
X0079104Y0068402D01*
X0078450Y0069400D02*
X0084858Y0069400D01*
X0085376Y0070081D02*
X0089831Y0070081D01*
X0090475Y0070725D01*
X0090475Y0074393D01*
X0132964Y0074393D01*
X0131966Y0075391D02*
X0099818Y0075391D01*
X0100454Y0076390D02*
X0130967Y0076390D01*
X0129969Y0077388D02*
X0100454Y0077388D01*
X0102368Y0078387D02*
X0128970Y0078387D01*
X0133963Y0073394D02*
X0090475Y0073394D01*
X0090475Y0072396D02*
X0134961Y0072396D01*
X0135304Y0071397D02*
X0090475Y0071397D01*
X0090148Y0070399D02*
X0135827Y0070399D01*
X0139380Y0070399D02*
X0192804Y0070399D01*
X0192804Y0070955D02*
X0192804Y0069045D01*
X0193534Y0067281D01*
X0194885Y0065931D01*
X0196649Y0065200D01*
X0198558Y0065200D01*
X0200323Y0065931D01*
X0201673Y0067281D01*
X0202404Y0069045D01*
X0202404Y0070955D01*
X0201673Y0072719D01*
X0200323Y0074069D01*
X0198558Y0074800D01*
X0196649Y0074800D01*
X0194885Y0074069D01*
X0193534Y0072719D01*
X0192804Y0070955D01*
X0192987Y0071397D02*
X0139904Y0071397D01*
X0139904Y0072396D02*
X0193400Y0072396D01*
X0194210Y0073394D02*
X0139337Y0073394D01*
X0137207Y0074393D02*
X0195666Y0074393D01*
X0196187Y0075391D02*
X0137318Y0075391D01*
X0138317Y0076390D02*
X0194425Y0076390D01*
X0194885Y0075931D02*
X0196649Y0075200D01*
X0198558Y0075200D01*
X0200323Y0075931D01*
X0201673Y0077281D01*
X0202404Y0079045D01*
X0202404Y0080955D01*
X0201673Y0082719D01*
X0200323Y0084069D01*
X0198558Y0084800D01*
X0196649Y0084800D01*
X0194885Y0084069D01*
X0193534Y0082719D01*
X0192804Y0080955D01*
X0192804Y0079045D01*
X0193534Y0077281D01*
X0194885Y0075931D01*
X0193490Y0077388D02*
X0138454Y0077388D01*
X0138454Y0078387D02*
X0193076Y0078387D01*
X0192804Y0079385D02*
X0138454Y0079385D01*
X0138454Y0080384D02*
X0192804Y0080384D01*
X0192981Y0081382D02*
X0138454Y0081382D01*
X0138454Y0082381D02*
X0193394Y0082381D01*
X0194195Y0083379D02*
X0187986Y0083379D01*
X0188654Y0084378D02*
X0195630Y0084378D01*
X0196223Y0085376D02*
X0188654Y0085376D01*
X0188231Y0086375D02*
X0194440Y0086375D01*
X0193496Y0087373D02*
X0186154Y0087373D01*
X0186154Y0088372D02*
X0193082Y0088372D01*
X0193388Y0092366D02*
X0182716Y0092366D01*
X0183714Y0093365D02*
X0194180Y0093365D01*
X0195594Y0094363D02*
X0184713Y0094363D01*
X0185711Y0095362D02*
X0196259Y0095362D01*
X0194455Y0096360D02*
X0186710Y0096360D01*
X0187708Y0097359D02*
X0193502Y0097359D01*
X0193089Y0098357D02*
X0188707Y0098357D01*
X0186461Y0100354D02*
X0180836Y0100354D01*
X0181204Y0099356D02*
X0185463Y0099356D01*
X0184464Y0098357D02*
X0181204Y0098357D01*
X0180924Y0097359D02*
X0183466Y0097359D01*
X0182467Y0096360D02*
X0180305Y0096360D01*
X0181469Y0095362D02*
X0178830Y0095362D01*
X0180092Y0101353D02*
X0187460Y0101353D01*
X0183029Y0104672D02*
X0183029Y0106578D01*
X0181681Y0107925D01*
X0180277Y0107925D01*
X0180400Y0108138D01*
X0180475Y0108418D01*
X0180475Y0109752D01*
X0177793Y0109752D01*
X0177793Y0110130D01*
X0180475Y0110130D01*
X0180475Y0111464D01*
X0180400Y0111743D01*
X0180255Y0111994D01*
X0180051Y0112199D01*
X0179800Y0112344D01*
X0179520Y0112419D01*
X0177793Y0112419D01*
X0177793Y0110130D01*
X0177415Y0110130D01*
X0177415Y0112419D01*
X0175687Y0112419D01*
X0175407Y0112344D01*
X0175156Y0112199D01*
X0174952Y0111994D01*
X0174807Y0111743D01*
X0174732Y0111464D01*
X0174732Y0110130D01*
X0177414Y0110130D01*
X0177414Y0109752D01*
X0174732Y0109752D01*
X0174732Y0108418D01*
X0174807Y0108138D01*
X0174930Y0107925D01*
X0173526Y0107925D01*
X0173029Y0107428D01*
X0173029Y0109078D01*
X0172229Y0109878D01*
X0172229Y0110486D01*
X0172641Y0110898D01*
X0172641Y0115352D01*
X0171996Y0115997D01*
X0170894Y0115997D01*
X0170753Y0116057D01*
X0170600Y0115997D01*
X0168329Y0115997D01*
X0167685Y0115352D01*
X0167685Y0110898D01*
X0168329Y0110253D01*
X0169229Y0110253D01*
X0169229Y0109878D01*
X0168429Y0109078D01*
X0168429Y0107172D01*
X0169776Y0105825D01*
X0171681Y0105825D01*
X0172179Y0106322D01*
X0172179Y0104672D01*
X0173526Y0103325D01*
X0175431Y0103325D01*
X0176231Y0104125D01*
X0178976Y0104125D01*
X0179776Y0103325D01*
X0181681Y0103325D01*
X0183029Y0104672D01*
X0182704Y0104348D02*
X0195558Y0104348D01*
X0196295Y0105347D02*
X0183029Y0105347D01*
X0183029Y0106345D02*
X0194470Y0106345D01*
X0194885Y0105931D02*
X0196649Y0105200D01*
X0198558Y0105200D01*
X0200323Y0105931D01*
X0201673Y0107281D01*
X0202404Y0109045D01*
X0202404Y0110955D01*
X0201673Y0112719D01*
X0200323Y0114069D01*
X0198558Y0114800D01*
X0196649Y0114800D01*
X0194885Y0114069D01*
X0193534Y0112719D01*
X0193029Y0111500D01*
X0185606Y0111500D01*
X0184806Y0112300D01*
X0182901Y0112300D01*
X0181554Y0110953D01*
X0181554Y0109047D01*
X0182901Y0107700D01*
X0184806Y0107700D01*
X0185606Y0108500D01*
X0193029Y0108500D01*
X0193534Y0107281D01*
X0194885Y0105931D01*
X0193508Y0107344D02*
X0182263Y0107344D01*
X0182259Y0108342D02*
X0180455Y0108342D01*
X0180475Y0109341D02*
X0181554Y0109341D01*
X0181554Y0110339D02*
X0180475Y0110339D01*
X0180475Y0111338D02*
X0181939Y0111338D01*
X0179813Y0112336D02*
X0193376Y0112336D01*
X0194150Y0113335D02*
X0191691Y0113335D01*
X0192404Y0114333D02*
X0195522Y0114333D01*
X0196331Y0115332D02*
X0192404Y0115332D01*
X0192026Y0116330D02*
X0194485Y0116330D01*
X0194885Y0115931D02*
X0196649Y0115200D01*
X0198558Y0115200D01*
X0200323Y0115931D01*
X0201673Y0117281D01*
X0202404Y0119045D01*
X0202404Y0120955D01*
X0201673Y0122719D01*
X0200323Y0124069D01*
X0198558Y0124800D01*
X0196649Y0124800D01*
X0194885Y0124069D01*
X0193534Y0122719D01*
X0192804Y0120955D01*
X0192804Y0119045D01*
X0193534Y0117281D01*
X0194885Y0115931D01*
X0193515Y0117329D02*
X0190521Y0117329D01*
X0189523Y0118327D02*
X0193101Y0118327D01*
X0192804Y0119326D02*
X0188524Y0119326D01*
X0187526Y0120324D02*
X0192804Y0120324D01*
X0192956Y0121323D02*
X0186527Y0121323D01*
X0185528Y0122321D02*
X0193370Y0122321D01*
X0194135Y0123320D02*
X0184530Y0123320D01*
X0183531Y0124318D02*
X0195486Y0124318D01*
X0196367Y0125317D02*
X0182533Y0125317D01*
X0181534Y0126315D02*
X0194500Y0126315D01*
X0194885Y0125931D02*
X0196649Y0125200D01*
X0198558Y0125200D01*
X0200323Y0125931D01*
X0201673Y0127281D01*
X0202404Y0129045D01*
X0202404Y0130955D01*
X0201673Y0132719D01*
X0200323Y0134069D01*
X0198558Y0134800D01*
X0196649Y0134800D01*
X0194885Y0134069D01*
X0193534Y0132719D01*
X0192804Y0130955D01*
X0192804Y0129045D01*
X0193534Y0127281D01*
X0194885Y0125931D01*
X0193521Y0127314D02*
X0180536Y0127314D01*
X0179537Y0128312D02*
X0193107Y0128312D01*
X0192804Y0129311D02*
X0178539Y0129311D01*
X0177540Y0130309D02*
X0192804Y0130309D01*
X0192950Y0131308D02*
X0176658Y0131308D01*
X0177656Y0132306D02*
X0193363Y0132306D01*
X0194120Y0133305D02*
X0178655Y0133305D01*
X0179653Y0134303D02*
X0195450Y0134303D01*
X0196402Y0135302D02*
X0180652Y0135302D01*
X0181650Y0136301D02*
X0194515Y0136301D01*
X0193527Y0137299D02*
X0182649Y0137299D01*
X0183647Y0138298D02*
X0193113Y0138298D01*
X0193357Y0142292D02*
X0176204Y0142292D01*
X0176204Y0143290D02*
X0194105Y0143290D01*
X0195414Y0144289D02*
X0176204Y0144289D01*
X0176204Y0145287D02*
X0196438Y0145287D01*
X0196649Y0145200D02*
X0198558Y0145200D01*
X0200323Y0145931D01*
X0201673Y0147281D01*
X0202404Y0149045D01*
X0202404Y0150955D01*
X0201673Y0152719D01*
X0200323Y0154069D01*
X0198558Y0154800D01*
X0196649Y0154800D01*
X0195430Y0154295D01*
X0189104Y0160621D01*
X0188225Y0161500D01*
X0126357Y0161500D01*
X0118857Y0154000D01*
X0117979Y0153121D01*
X0117979Y0130629D01*
X0119229Y0129379D01*
X0120107Y0128500D01*
X0120982Y0128500D01*
X0120982Y0125607D01*
X0121626Y0124963D01*
X0125304Y0124963D01*
X0125304Y0124672D01*
X0126651Y0123325D01*
X0128556Y0123325D01*
X0129904Y0124672D01*
X0129904Y0126578D01*
X0128556Y0127925D01*
X0127425Y0127925D01*
X0127288Y0128062D01*
X0127288Y0128062D01*
X0126850Y0128500D01*
X0128225Y0128500D01*
X0129925Y0130200D01*
X0131056Y0130200D01*
X0132404Y0131547D01*
X0132404Y0133453D01*
X0131056Y0134800D01*
X0129151Y0134800D01*
X0127804Y0133453D01*
X0127804Y0132321D01*
X0126982Y0131500D01*
X0126725Y0131500D01*
X0126725Y0133298D01*
X0132327Y0138900D01*
X0162327Y0138900D01*
X0163704Y0140277D01*
X0163704Y0142223D01*
X0162327Y0143600D01*
X0130380Y0143600D01*
X0129004Y0142223D01*
X0121817Y0135037D01*
X0121626Y0135037D01*
X0120982Y0134393D01*
X0120982Y0131868D01*
X0120979Y0131871D01*
X0120979Y0151879D01*
X0127600Y0158500D01*
X0186982Y0158500D01*
X0193308Y0152174D01*
X0192804Y0150955D01*
X0192804Y0149045D01*
X0193534Y0147281D01*
X0194885Y0145931D01*
X0196649Y0145200D01*
X0198769Y0145287D02*
X0220604Y0145287D01*
X0220604Y0144289D02*
X0199793Y0144289D01*
X0201102Y0143290D02*
X0220604Y0143290D01*
X0220604Y0142292D02*
X0201850Y0142292D01*
X0202263Y0141293D02*
X0220604Y0141293D01*
X0220604Y0140295D02*
X0202404Y0140295D01*
X0202404Y0139296D02*
X0220604Y0139296D01*
X0220604Y0138298D02*
X0202094Y0138298D01*
X0201680Y0137299D02*
X0220604Y0137299D01*
X0220604Y0136301D02*
X0200692Y0136301D01*
X0198805Y0135302D02*
X0220604Y0135302D01*
X0220604Y0134303D02*
X0199757Y0134303D01*
X0201087Y0133305D02*
X0220604Y0133305D01*
X0220604Y0132306D02*
X0201844Y0132306D01*
X0202257Y0131308D02*
X0220604Y0131308D01*
X0220604Y0130309D02*
X0202404Y0130309D01*
X0202404Y0129311D02*
X0220604Y0129311D01*
X0220604Y0128312D02*
X0202100Y0128312D01*
X0201686Y0127314D02*
X0220604Y0127314D01*
X0220604Y0126315D02*
X0200707Y0126315D01*
X0198841Y0125317D02*
X0220604Y0125317D01*
X0220604Y0124318D02*
X0199721Y0124318D01*
X0201072Y0123320D02*
X0220604Y0123320D01*
X0220604Y0122321D02*
X0201837Y0122321D01*
X0202251Y0121323D02*
X0220604Y0121323D01*
X0220604Y0120324D02*
X0202404Y0120324D01*
X0202404Y0119326D02*
X0220604Y0119326D01*
X0220604Y0118327D02*
X0202106Y0118327D01*
X0201693Y0117329D02*
X0220604Y0117329D01*
X0220604Y0116330D02*
X0200722Y0116330D01*
X0198876Y0115332D02*
X0220604Y0115332D01*
X0220604Y0114333D02*
X0199685Y0114333D01*
X0201057Y0113335D02*
X0220604Y0113335D01*
X0220604Y0112336D02*
X0201831Y0112336D01*
X0202245Y0111338D02*
X0220604Y0111338D01*
X0220604Y0110339D02*
X0202404Y0110339D01*
X0202404Y0109341D02*
X0220604Y0109341D01*
X0220604Y0108342D02*
X0202112Y0108342D01*
X0201699Y0107344D02*
X0220604Y0107344D01*
X0220604Y0106345D02*
X0200737Y0106345D01*
X0198912Y0105347D02*
X0220604Y0105347D01*
X0220604Y0104348D02*
X0199649Y0104348D01*
X0201042Y0103350D02*
X0220604Y0103350D01*
X0220604Y0102351D02*
X0201825Y0102351D01*
X0202239Y0101353D02*
X0220604Y0101353D01*
X0220604Y0100354D02*
X0202404Y0100354D01*
X0202404Y0099356D02*
X0220604Y0099356D01*
X0220604Y0098357D02*
X0202118Y0098357D01*
X0201705Y0097359D02*
X0220604Y0097359D01*
X0220604Y0096360D02*
X0200752Y0096360D01*
X0198948Y0095362D02*
X0220604Y0095362D01*
X0220604Y0094363D02*
X0199613Y0094363D01*
X0201027Y0093365D02*
X0220604Y0093365D01*
X0220604Y0092366D02*
X0201819Y0092366D01*
X0202233Y0091368D02*
X0220604Y0091368D01*
X0220604Y0090369D02*
X0202404Y0090369D01*
X0202404Y0089370D02*
X0220604Y0089370D01*
X0220604Y0088372D02*
X0202125Y0088372D01*
X0201711Y0087373D02*
X0220604Y0087373D01*
X0220604Y0086375D02*
X0200767Y0086375D01*
X0198984Y0085376D02*
X0220604Y0085376D01*
X0220604Y0084378D02*
X0199577Y0084378D01*
X0201012Y0083379D02*
X0220604Y0083379D01*
X0220604Y0082381D02*
X0201813Y0082381D01*
X0202226Y0081382D02*
X0220604Y0081382D01*
X0220604Y0080384D02*
X0202404Y0080384D01*
X0202404Y0079385D02*
X0220604Y0079385D01*
X0220604Y0078387D02*
X0202131Y0078387D01*
X0201717Y0077388D02*
X0220604Y0077388D01*
X0220604Y0076390D02*
X0200782Y0076390D01*
X0199020Y0075391D02*
X0220604Y0075391D01*
X0220604Y0074393D02*
X0199541Y0074393D01*
X0200997Y0073394D02*
X0220604Y0073394D01*
X0220604Y0072396D02*
X0201807Y0072396D01*
X0202220Y0071397D02*
X0220604Y0071397D01*
X0220604Y0070399D02*
X0202404Y0070399D01*
X0202404Y0069400D02*
X0220604Y0069400D01*
X0220604Y0068402D02*
X0202137Y0068402D01*
X0201723Y0067403D02*
X0220604Y0067403D01*
X0220604Y0066405D02*
X0200796Y0066405D01*
X0199056Y0065406D02*
X0220604Y0065406D01*
X0220604Y0064408D02*
X0199505Y0064408D01*
X0200323Y0064069D02*
X0198558Y0064800D01*
X0196649Y0064800D01*
X0194885Y0064069D01*
X0193534Y0062719D01*
X0193324Y0062212D01*
X0181853Y0062212D01*
X0181853Y0063723D01*
X0181209Y0064368D01*
X0173998Y0064368D01*
X0173354Y0063723D01*
X0173354Y0062255D01*
X0167922Y0062309D01*
X0167306Y0062925D01*
X0165401Y0062925D01*
X0164054Y0061578D01*
X0164054Y0059672D01*
X0165401Y0058325D01*
X0167306Y0058325D01*
X0167891Y0058909D01*
X0173354Y0058854D01*
X0173354Y0057300D01*
X0173998Y0056656D01*
X0181209Y0056656D01*
X0181853Y0057300D01*
X0181853Y0058812D01*
X0192900Y0058812D01*
X0193534Y0057281D01*
X0194885Y0055931D01*
X0196649Y0055200D01*
X0198558Y0055200D01*
X0200323Y0055931D01*
X0201673Y0057281D01*
X0202404Y0059045D01*
X0202404Y0060955D01*
X0201673Y0062719D01*
X0200323Y0064069D01*
X0200983Y0063409D02*
X0220604Y0063409D01*
X0220604Y0062411D02*
X0201800Y0062411D01*
X0202214Y0061412D02*
X0220604Y0061412D01*
X0220604Y0060414D02*
X0202404Y0060414D01*
X0202404Y0059415D02*
X0220604Y0059415D01*
X0220604Y0058417D02*
X0202143Y0058417D01*
X0201730Y0057418D02*
X0220604Y0057418D01*
X0220604Y0056420D02*
X0200811Y0056420D01*
X0199092Y0055421D02*
X0220604Y0055421D01*
X0220604Y0054423D02*
X0199497Y0054423D01*
X0199446Y0054448D02*
X0200119Y0054105D01*
X0200731Y0053661D01*
X0201265Y0053127D01*
X0201709Y0052516D01*
X0202052Y0051843D01*
X0202285Y0051124D01*
X0202384Y0050500D01*
X0198104Y0050500D01*
X0198104Y0049500D01*
X0202384Y0049500D01*
X0202285Y0048876D01*
X0202052Y0048157D01*
X0201709Y0047484D01*
X0201265Y0046873D01*
X0200731Y0046339D01*
X0200119Y0045895D01*
X0199446Y0045552D01*
X0198728Y0045318D01*
X0198104Y0045219D01*
X0198104Y0049500D01*
X0197104Y0049500D01*
X0197104Y0045219D01*
X0196480Y0045318D01*
X0195761Y0045552D01*
X0195088Y0045895D01*
X0194477Y0046339D01*
X0193942Y0046873D01*
X0193498Y0047484D01*
X0193155Y0048157D01*
X0192922Y0048876D01*
X0192823Y0049500D01*
X0197103Y0049500D01*
X0197103Y0050500D01*
X0192823Y0050500D01*
X0192922Y0051124D01*
X0193155Y0051843D01*
X0193498Y0052516D01*
X0193942Y0053127D01*
X0194477Y0053661D01*
X0195088Y0054105D01*
X0195761Y0054448D01*
X0196480Y0054682D01*
X0197104Y0054781D01*
X0197104Y0050500D01*
X0198104Y0050500D01*
X0198104Y0054781D01*
X0198728Y0054682D01*
X0199446Y0054448D01*
X0198104Y0054423D02*
X0197104Y0054423D01*
X0197104Y0053424D02*
X0198104Y0053424D01*
X0198104Y0052426D02*
X0197104Y0052426D01*
X0197104Y0051427D02*
X0198104Y0051427D01*
X0198104Y0050429D02*
X0220604Y0050429D01*
X0220604Y0051427D02*
X0202187Y0051427D01*
X0201755Y0052426D02*
X0220604Y0052426D01*
X0220604Y0053424D02*
X0200968Y0053424D01*
X0202373Y0049430D02*
X0220604Y0049430D01*
X0220604Y0048432D02*
X0202141Y0048432D01*
X0201672Y0047433D02*
X0220604Y0047433D01*
X0220604Y0046434D02*
X0200826Y0046434D01*
X0199090Y0045436D02*
X0220604Y0045436D01*
X0220604Y0044437D02*
X0136779Y0044437D01*
X0136779Y0045436D02*
X0139903Y0045436D01*
X0139732Y0045607D02*
X0140376Y0044963D01*
X0144831Y0044963D01*
X0145475Y0045607D01*
X0145475Y0045941D01*
X0145910Y0045941D01*
X0146651Y0045200D01*
X0148556Y0045200D01*
X0149904Y0046547D01*
X0149904Y0048453D01*
X0148556Y0049800D01*
X0146651Y0049800D01*
X0145792Y0048941D01*
X0145475Y0048941D01*
X0145475Y0049275D01*
X0144831Y0049919D01*
X0140376Y0049919D01*
X0139732Y0049275D01*
X0139732Y0045607D01*
X0139732Y0046434D02*
X0136297Y0046434D01*
X0136179Y0047433D02*
X0139732Y0047433D01*
X0139732Y0048432D02*
X0136179Y0048432D01*
X0136938Y0049430D02*
X0139887Y0049430D01*
X0140029Y0050429D02*
X0137936Y0050429D01*
X0135125Y0052426D02*
X0119681Y0052426D01*
X0120529Y0051427D02*
X0134126Y0051427D01*
X0133128Y0050429D02*
X0120529Y0050429D01*
X0120286Y0049430D02*
X0132779Y0049430D01*
X0132779Y0048432D02*
X0119288Y0048432D01*
X0117169Y0048432D02*
X0062709Y0048432D01*
X0062709Y0047433D02*
X0132779Y0047433D01*
X0132660Y0046434D02*
X0062709Y0046434D01*
X0062709Y0045436D02*
X0132179Y0045436D01*
X0136170Y0043439D02*
X0220604Y0043439D01*
X0220604Y0040443D02*
X0187913Y0040443D01*
X0188654Y0039445D02*
X0220604Y0039445D01*
X0220604Y0038446D02*
X0188654Y0038446D01*
X0188304Y0037448D02*
X0220604Y0037448D01*
X0220604Y0036449D02*
X0186154Y0036449D01*
X0186154Y0035451D02*
X0220604Y0035451D01*
X0220604Y0034452D02*
X0185309Y0034452D01*
X0182398Y0034452D02*
X0069861Y0034452D01*
X0069850Y0033454D02*
X0220604Y0033454D01*
X0220604Y0032455D02*
X0069850Y0032455D01*
X0069450Y0031457D02*
X0220604Y0031457D01*
X0220604Y0028461D02*
X0212730Y0028461D01*
X0212084Y0028790D02*
X0212084Y0028790D01*
X0214690Y0027463D02*
X0220604Y0027463D01*
X0220604Y0026464D02*
X0216393Y0026464D01*
X0216126Y0026731D02*
X0216126Y0026731D01*
X0217391Y0025466D02*
X0220604Y0025466D01*
X0220604Y0024467D02*
X0218390Y0024467D01*
X0219334Y0023523D02*
X0219334Y0023523D01*
X0219334Y0023523D01*
X0219362Y0023469D02*
X0220604Y0023469D01*
X0220604Y0022470D02*
X0219871Y0022470D01*
X0220379Y0021472D02*
X0220604Y0021472D01*
X0198104Y0045436D02*
X0197104Y0045436D01*
X0196117Y0045436D02*
X0148792Y0045436D01*
X0149791Y0046434D02*
X0173395Y0046434D01*
X0173429Y0046308D02*
X0173354Y0046587D01*
X0173354Y0048988D01*
X0177103Y0048988D01*
X0177103Y0049988D01*
X0173354Y0049988D01*
X0173354Y0052389D01*
X0173429Y0052669D01*
X0173574Y0052920D01*
X0173779Y0053124D01*
X0174029Y0053269D01*
X0174309Y0053344D01*
X0177104Y0053344D01*
X0177104Y0049988D01*
X0178104Y0049988D01*
X0181853Y0049988D01*
X0181853Y0052389D01*
X0181778Y0052669D01*
X0181633Y0052920D01*
X0181429Y0053124D01*
X0181178Y0053269D01*
X0180898Y0053344D01*
X0178104Y0053344D01*
X0178104Y0049988D01*
X0178104Y0048988D01*
X0181853Y0048988D01*
X0181853Y0046587D01*
X0181778Y0046308D01*
X0181633Y0046057D01*
X0181429Y0045852D01*
X0181178Y0045707D01*
X0180898Y0045632D01*
X0178104Y0045632D01*
X0178104Y0048988D01*
X0177104Y0048988D01*
X0177104Y0045632D01*
X0174309Y0045632D01*
X0174029Y0045707D01*
X0173779Y0045852D01*
X0173574Y0046057D01*
X0173429Y0046308D01*
X0173354Y0047433D02*
X0149904Y0047433D01*
X0149904Y0048432D02*
X0173354Y0048432D01*
X0173354Y0050429D02*
X0145178Y0050429D01*
X0145320Y0049430D02*
X0146281Y0049430D01*
X0145475Y0051427D02*
X0173354Y0051427D01*
X0173364Y0052426D02*
X0145475Y0052426D01*
X0145475Y0053424D02*
X0194239Y0053424D01*
X0193452Y0052426D02*
X0181843Y0052426D01*
X0181853Y0051427D02*
X0193020Y0051427D01*
X0192834Y0049430D02*
X0178104Y0049430D01*
X0178104Y0048432D02*
X0177104Y0048432D01*
X0177103Y0049430D02*
X0148926Y0049430D01*
X0146415Y0045436D02*
X0145304Y0045436D01*
X0136123Y0053424D02*
X0124280Y0053424D01*
X0120927Y0053424D02*
X0117404Y0053424D01*
X0117059Y0054423D02*
X0120304Y0054423D01*
X0120304Y0055421D02*
X0116060Y0055421D01*
X0114904Y0056420D02*
X0120770Y0056420D01*
X0133040Y0060414D02*
X0133418Y0060414D01*
X0133418Y0060081D02*
X0135145Y0060081D01*
X0135425Y0060156D01*
X0135676Y0060301D01*
X0135880Y0060506D01*
X0136025Y0060757D01*
X0136100Y0061036D01*
X0136100Y0062370D01*
X0133418Y0062370D01*
X0133418Y0060081D01*
X0133418Y0061412D02*
X0133040Y0061412D01*
X0133418Y0062411D02*
X0139732Y0062411D01*
X0139732Y0063409D02*
X0136100Y0063409D01*
X0135999Y0064408D02*
X0139865Y0064408D01*
X0140407Y0065156D02*
X0140687Y0065081D01*
X0142415Y0065081D01*
X0142415Y0067370D01*
X0142793Y0067370D01*
X0142793Y0067748D01*
X0145475Y0067748D01*
X0145475Y0069082D01*
X0145400Y0069362D01*
X0145255Y0069612D01*
X0145051Y0069817D01*
X0144800Y0069962D01*
X0144520Y0070037D01*
X0142793Y0070037D01*
X0142793Y0067748D01*
X0142415Y0067748D01*
X0142415Y0070037D01*
X0140687Y0070037D01*
X0140407Y0069962D01*
X0140156Y0069817D01*
X0139952Y0069612D01*
X0139807Y0069362D01*
X0139732Y0069082D01*
X0139732Y0067748D01*
X0142414Y0067748D01*
X0142414Y0067370D01*
X0139732Y0067370D01*
X0139732Y0066036D01*
X0139807Y0065757D01*
X0139952Y0065506D01*
X0140156Y0065301D01*
X0140407Y0065156D01*
X0140051Y0065406D02*
X0098029Y0065406D01*
X0098029Y0066405D02*
X0139732Y0066405D01*
X0139732Y0068402D02*
X0095073Y0068402D01*
X0097203Y0067403D02*
X0142414Y0067403D01*
X0142793Y0067403D02*
X0193484Y0067403D01*
X0193070Y0068402D02*
X0145475Y0068402D01*
X0145378Y0069400D02*
X0192804Y0069400D01*
X0194411Y0066405D02*
X0145475Y0066405D01*
X0145475Y0066036D02*
X0145475Y0067370D01*
X0142793Y0067370D01*
X0142793Y0065081D01*
X0144520Y0065081D01*
X0144800Y0065156D01*
X0145051Y0065301D01*
X0145255Y0065506D01*
X0145400Y0065757D01*
X0145475Y0066036D01*
X0145156Y0065406D02*
X0196151Y0065406D01*
X0195702Y0064408D02*
X0145342Y0064408D01*
X0145475Y0063409D02*
X0173354Y0063409D01*
X0173354Y0062411D02*
X0167821Y0062411D01*
X0164887Y0062411D02*
X0145475Y0062411D01*
X0145475Y0061412D02*
X0164054Y0061412D01*
X0164054Y0060414D02*
X0145281Y0060414D01*
X0142890Y0059415D02*
X0164311Y0059415D01*
X0165309Y0058417D02*
X0141891Y0058417D01*
X0140893Y0057418D02*
X0173354Y0057418D01*
X0173354Y0058417D02*
X0167398Y0058417D01*
X0177104Y0052426D02*
X0178104Y0052426D01*
X0178104Y0051427D02*
X0177104Y0051427D01*
X0177104Y0050429D02*
X0178104Y0050429D01*
X0178104Y0047433D02*
X0177104Y0047433D01*
X0177104Y0046434D02*
X0178104Y0046434D01*
X0181812Y0046434D02*
X0194381Y0046434D01*
X0193535Y0047433D02*
X0181853Y0047433D01*
X0181853Y0048432D02*
X0193066Y0048432D01*
X0197104Y0048432D02*
X0198104Y0048432D01*
X0198104Y0049430D02*
X0197104Y0049430D01*
X0197103Y0050429D02*
X0181853Y0050429D01*
X0181853Y0057418D02*
X0193477Y0057418D01*
X0193064Y0058417D02*
X0181853Y0058417D01*
X0181853Y0062411D02*
X0193407Y0062411D01*
X0194225Y0063409D02*
X0181853Y0063409D01*
X0194396Y0056420D02*
X0139894Y0056420D01*
X0138896Y0055421D02*
X0196115Y0055421D01*
X0195710Y0054423D02*
X0145445Y0054423D01*
X0139762Y0054423D02*
X0137897Y0054423D01*
X0136650Y0057418D02*
X0136100Y0057418D01*
X0136100Y0058417D02*
X0137649Y0058417D01*
X0138647Y0059415D02*
X0135960Y0059415D01*
X0135788Y0060414D02*
X0139646Y0060414D01*
X0139732Y0061412D02*
X0136100Y0061412D01*
X0142415Y0065406D02*
X0142793Y0065406D01*
X0142793Y0066405D02*
X0142415Y0066405D01*
X0142415Y0068402D02*
X0142793Y0068402D01*
X0142793Y0069400D02*
X0142415Y0069400D01*
X0139829Y0069400D02*
X0090349Y0069400D01*
X0090274Y0065406D02*
X0093429Y0065406D01*
X0085376Y0070081D02*
X0085307Y0070150D01*
X0081005Y0070150D01*
X0079629Y0071527D01*
X0079629Y0073473D01*
X0081005Y0074850D01*
X0085189Y0074850D01*
X0085376Y0075037D01*
X0089831Y0075037D01*
X0090475Y0074393D01*
X0091740Y0076390D02*
X0095754Y0076390D01*
X0095754Y0077388D02*
X0092738Y0077388D01*
X0094868Y0078387D02*
X0095754Y0078387D01*
X0096389Y0075391D02*
X0072459Y0075391D01*
X0073457Y0074393D02*
X0080548Y0074393D01*
X0079629Y0073394D02*
X0074456Y0073394D01*
X0075454Y0072396D02*
X0079629Y0072396D01*
X0079758Y0071397D02*
X0076453Y0071397D01*
X0077451Y0070399D02*
X0080756Y0070399D01*
X0087217Y0076390D02*
X0071460Y0076390D01*
X0071719Y0082381D02*
X0073118Y0082381D01*
X0073304Y0083379D02*
X0070720Y0083379D01*
X0069722Y0084378D02*
X0074229Y0084378D01*
X0076978Y0084378D02*
X0095754Y0084378D01*
X0095754Y0085376D02*
X0068723Y0085376D01*
X0067725Y0086375D02*
X0095754Y0086375D01*
X0095754Y0087373D02*
X0066726Y0087373D01*
X0065728Y0088372D02*
X0095684Y0088372D01*
X0095754Y0089370D02*
X0043479Y0089370D01*
X0042854Y0090369D02*
X0096072Y0090369D01*
X0097278Y0091368D02*
X0042854Y0091368D01*
X0042854Y0092366D02*
X0098484Y0092366D01*
X0099689Y0093365D02*
X0042854Y0093365D01*
X0042854Y0094363D02*
X0100895Y0094363D01*
X0109381Y0102351D02*
X0042854Y0102351D01*
X0042854Y0101353D02*
X0050115Y0101353D01*
X0049371Y0100354D02*
X0042854Y0100354D01*
X0042854Y0099356D02*
X0049004Y0099356D01*
X0049004Y0098357D02*
X0042854Y0098357D01*
X0042854Y0097359D02*
X0049283Y0097359D01*
X0049902Y0096360D02*
X0042854Y0096360D01*
X0042854Y0095362D02*
X0051377Y0095362D01*
X0042854Y0103350D02*
X0108383Y0103350D01*
X0107384Y0104348D02*
X0101454Y0104348D01*
X0101056Y0103950D02*
X0102404Y0105297D01*
X0102404Y0107203D01*
X0101056Y0108550D01*
X0099925Y0108550D01*
X0095475Y0113000D01*
X0095475Y0113768D01*
X0094831Y0114412D01*
X0090376Y0114412D01*
X0089732Y0113768D01*
X0089732Y0110276D01*
X0089279Y0110729D01*
X0089279Y0111578D01*
X0088679Y0112178D01*
X0088679Y0113730D01*
X0089577Y0114628D01*
X0091878Y0114628D01*
X0092522Y0115273D01*
X0092522Y0119727D01*
X0092237Y0120012D01*
X0092813Y0120588D01*
X0094831Y0120588D01*
X0095475Y0121232D01*
X0095475Y0124900D01*
X0094831Y0125544D01*
X0092427Y0125544D01*
X0092589Y0125706D01*
X0094831Y0125706D01*
X0095475Y0126350D01*
X0095475Y0128435D01*
X0097496Y0130200D01*
X0098556Y0130200D01*
X0099904Y0131547D01*
X0099904Y0133453D01*
X0098556Y0134800D01*
X0096651Y0134800D01*
X0095304Y0133453D01*
X0095304Y0132800D01*
X0092856Y0130662D01*
X0090376Y0130662D01*
X0089732Y0130018D01*
X0089732Y0127658D01*
X0088124Y0126050D01*
X0087276Y0126050D01*
X0085929Y0124703D01*
X0085929Y0122797D01*
X0086655Y0122071D01*
X0086394Y0122067D01*
X0085898Y0122140D01*
X0085789Y0122059D01*
X0085653Y0122058D01*
X0085303Y0121698D01*
X0084432Y0121050D01*
X0082901Y0121050D01*
X0081554Y0119703D01*
X0081554Y0117797D01*
X0082901Y0116450D01*
X0084806Y0116450D01*
X0086154Y0117797D01*
X0086154Y0118592D01*
X0086800Y0119073D01*
X0087567Y0119083D01*
X0087567Y0117426D01*
X0086274Y0116134D01*
X0085279Y0115138D01*
X0085279Y0112178D01*
X0084679Y0111578D01*
X0084679Y0109672D01*
X0086026Y0108325D01*
X0086874Y0108325D01*
X0089732Y0105467D01*
X0089732Y0104982D01*
X0090376Y0104338D01*
X0094831Y0104338D01*
X0095475Y0104982D01*
X0095475Y0108650D01*
X0094831Y0109294D01*
X0090714Y0109294D01*
X0090552Y0109456D01*
X0094776Y0109456D01*
X0097804Y0106429D01*
X0097804Y0105297D01*
X0099151Y0103950D01*
X0101056Y0103950D01*
X0102404Y0105347D02*
X0106386Y0105347D01*
X0105387Y0106345D02*
X0102404Y0106345D01*
X0102263Y0107344D02*
X0104389Y0107344D01*
X0103390Y0108342D02*
X0101264Y0108342D01*
X0102979Y0109341D02*
X0099134Y0109341D01*
X0098136Y0110339D02*
X0102979Y0110339D01*
X0102979Y0111338D02*
X0097137Y0111338D01*
X0096139Y0112336D02*
X0102979Y0112336D01*
X0102979Y0113335D02*
X0095475Y0113335D01*
X0094910Y0114333D02*
X0102979Y0114333D01*
X0102979Y0115332D02*
X0097573Y0115332D01*
X0097566Y0115304D02*
X0097641Y0115584D01*
X0097641Y0117311D01*
X0095352Y0117311D01*
X0095352Y0117689D01*
X0097641Y0117689D01*
X0097641Y0119416D01*
X0097566Y0119696D01*
X0097421Y0119947D01*
X0097216Y0120152D01*
X0096965Y0120297D01*
X0096685Y0120372D01*
X0095352Y0120372D01*
X0095352Y0117689D01*
X0094974Y0117689D01*
X0094974Y0120372D01*
X0093640Y0120372D01*
X0093360Y0120297D01*
X0093109Y0120152D01*
X0092904Y0119947D01*
X0092760Y0119696D01*
X0092685Y0119416D01*
X0092685Y0117689D01*
X0094974Y0117689D01*
X0094974Y0117311D01*
X0095352Y0117311D01*
X0095352Y0114628D01*
X0096685Y0114628D01*
X0096965Y0114703D01*
X0097216Y0114848D01*
X0097421Y0115053D01*
X0097566Y0115304D01*
X0097641Y0116330D02*
X0102902Y0116330D01*
X0100772Y0117329D02*
X0095352Y0117329D01*
X0094974Y0117329D02*
X0092522Y0117329D01*
X0092685Y0117311D02*
X0092685Y0115584D01*
X0092760Y0115304D01*
X0092904Y0115053D01*
X0093109Y0114848D01*
X0093360Y0114703D01*
X0093640Y0114628D01*
X0094974Y0114628D01*
X0094974Y0117311D01*
X0092685Y0117311D01*
X0092685Y0116330D02*
X0092522Y0116330D01*
X0092522Y0115332D02*
X0092752Y0115332D01*
X0094974Y0115332D02*
X0095352Y0115332D01*
X0095352Y0116330D02*
X0094974Y0116330D01*
X0094974Y0118327D02*
X0095352Y0118327D01*
X0095352Y0119326D02*
X0094974Y0119326D01*
X0094974Y0120324D02*
X0095352Y0120324D01*
X0095475Y0121323D02*
X0100674Y0121323D01*
X0099679Y0120324D02*
X0096862Y0120324D01*
X0097641Y0119326D02*
X0099679Y0119326D01*
X0099774Y0118327D02*
X0097641Y0118327D01*
X0095475Y0122321D02*
X0160154Y0122321D01*
X0159679Y0123320D02*
X0095475Y0123320D01*
X0095475Y0124318D02*
X0125657Y0124318D01*
X0129550Y0124318D02*
X0159679Y0124318D01*
X0160293Y0125317D02*
X0129904Y0125317D01*
X0129904Y0126315D02*
X0163673Y0126315D01*
X0164671Y0127314D02*
X0129167Y0127314D01*
X0129036Y0129311D02*
X0166668Y0129311D01*
X0167416Y0130309D02*
X0167667Y0130309D01*
X0165291Y0130309D02*
X0131166Y0130309D01*
X0132164Y0131308D02*
X0164293Y0131308D01*
X0164054Y0132306D02*
X0132404Y0132306D01*
X0132404Y0133305D02*
X0164054Y0133305D01*
X0164904Y0134303D02*
X0131553Y0134303D01*
X0129727Y0136301D02*
X0171730Y0136301D01*
X0171504Y0136527D02*
X0172880Y0135150D01*
X0174827Y0135150D01*
X0176204Y0136527D01*
X0176204Y0155723D01*
X0174827Y0157100D01*
X0172880Y0157100D01*
X0171504Y0155723D01*
X0171504Y0136527D01*
X0171504Y0137299D02*
X0130726Y0137299D01*
X0131724Y0138298D02*
X0171504Y0138298D01*
X0171504Y0139296D02*
X0162723Y0139296D01*
X0163704Y0140295D02*
X0171504Y0140295D01*
X0171504Y0141293D02*
X0163704Y0141293D01*
X0163635Y0142292D02*
X0171504Y0142292D01*
X0171504Y0143290D02*
X0162637Y0143290D01*
X0171504Y0144289D02*
X0120979Y0144289D01*
X0120979Y0145287D02*
X0171504Y0145287D01*
X0171504Y0146286D02*
X0120979Y0146286D01*
X0120979Y0147284D02*
X0171504Y0147284D01*
X0171504Y0148283D02*
X0120979Y0148283D01*
X0120979Y0149281D02*
X0171504Y0149281D01*
X0171504Y0150280D02*
X0120979Y0150280D01*
X0120979Y0151278D02*
X0171504Y0151278D01*
X0171504Y0152277D02*
X0121377Y0152277D01*
X0122375Y0153275D02*
X0171504Y0153275D01*
X0171504Y0154274D02*
X0123374Y0154274D01*
X0124372Y0155272D02*
X0171504Y0155272D01*
X0172051Y0156271D02*
X0125371Y0156271D01*
X0126369Y0157269D02*
X0188213Y0157269D01*
X0189211Y0156271D02*
X0175656Y0156271D01*
X0176204Y0155272D02*
X0190210Y0155272D01*
X0191208Y0154274D02*
X0176204Y0154274D01*
X0176204Y0153275D02*
X0192207Y0153275D01*
X0193206Y0152277D02*
X0176204Y0152277D01*
X0176204Y0151278D02*
X0192938Y0151278D01*
X0192804Y0150280D02*
X0176204Y0150280D01*
X0176204Y0149281D02*
X0192804Y0149281D01*
X0193119Y0148283D02*
X0176204Y0148283D01*
X0176204Y0147284D02*
X0193533Y0147284D01*
X0194530Y0146286D02*
X0176204Y0146286D01*
X0176204Y0141293D02*
X0182400Y0141293D01*
X0181402Y0140295D02*
X0176204Y0140295D01*
X0176204Y0139296D02*
X0180403Y0139296D01*
X0179405Y0138298D02*
X0176204Y0138298D01*
X0176204Y0137299D02*
X0178406Y0137299D01*
X0177408Y0136301D02*
X0175977Y0136301D01*
X0176409Y0135302D02*
X0174979Y0135302D01*
X0175411Y0134303D02*
X0167803Y0134303D01*
X0172728Y0135302D02*
X0128729Y0135302D01*
X0128654Y0134303D02*
X0127730Y0134303D01*
X0127804Y0133305D02*
X0126732Y0133305D01*
X0126725Y0132306D02*
X0127789Y0132306D01*
X0127037Y0128312D02*
X0165670Y0128312D01*
X0158799Y0121323D02*
X0103283Y0121323D01*
X0104279Y0120324D02*
X0157804Y0120324D01*
X0157804Y0119326D02*
X0104279Y0119326D01*
X0105148Y0118327D02*
X0157899Y0118327D01*
X0158897Y0117329D02*
X0154152Y0117329D01*
X0154904Y0116330D02*
X0163344Y0116330D01*
X0163344Y0117329D02*
X0161310Y0117329D01*
X0162567Y0115332D02*
X0154904Y0115332D01*
X0154564Y0114333D02*
X0162567Y0114333D01*
X0162567Y0113335D02*
X0153566Y0113335D01*
X0151662Y0112336D02*
X0162567Y0112336D01*
X0162567Y0111338D02*
X0150763Y0111338D01*
X0149864Y0110339D02*
X0163125Y0110339D01*
X0163344Y0109341D02*
X0148966Y0109341D01*
X0149023Y0114333D02*
X0149423Y0114333D01*
X0150304Y0115332D02*
X0148024Y0115332D01*
X0146779Y0116330D02*
X0150304Y0116330D01*
X0151055Y0117329D02*
X0146027Y0117329D01*
X0142930Y0117329D02*
X0105979Y0117329D01*
X0105979Y0116330D02*
X0139938Y0116330D01*
X0138939Y0115332D02*
X0105979Y0115332D01*
X0105979Y0114333D02*
X0137979Y0114333D01*
X0137979Y0113335D02*
X0105979Y0113335D01*
X0105979Y0112336D02*
X0106616Y0112336D01*
X0108631Y0107344D02*
X0137979Y0107344D01*
X0137979Y0108342D02*
X0124269Y0108342D01*
X0124954Y0109341D02*
X0137979Y0109341D01*
X0137979Y0110339D02*
X0124954Y0110339D01*
X0124589Y0111338D02*
X0137979Y0111338D01*
X0137979Y0112336D02*
X0123591Y0112336D01*
X0110628Y0105347D02*
X0138886Y0105347D01*
X0137979Y0106345D02*
X0109630Y0106345D01*
X0098753Y0104348D02*
X0094841Y0104348D01*
X0095475Y0105347D02*
X0097804Y0105347D01*
X0097804Y0106345D02*
X0095475Y0106345D01*
X0095475Y0107344D02*
X0096889Y0107344D01*
X0095890Y0108342D02*
X0095475Y0108342D01*
X0094891Y0109341D02*
X0090667Y0109341D01*
X0089732Y0110339D02*
X0089668Y0110339D01*
X0089732Y0111338D02*
X0089279Y0111338D01*
X0089732Y0112336D02*
X0088679Y0112336D01*
X0088679Y0113335D02*
X0089732Y0113335D01*
X0089282Y0114333D02*
X0090298Y0114333D01*
X0087469Y0117329D02*
X0085685Y0117329D01*
X0086154Y0118327D02*
X0087567Y0118327D01*
X0086471Y0116330D02*
X0079904Y0116330D01*
X0079904Y0117203D02*
X0079904Y0115297D01*
X0079104Y0114497D01*
X0079104Y0113003D01*
X0079904Y0112203D01*
X0079904Y0110297D01*
X0078556Y0108950D01*
X0076651Y0108950D01*
X0075304Y0110297D01*
X0075304Y0112203D01*
X0076104Y0113003D01*
X0076104Y0114497D01*
X0075304Y0115297D01*
X0075304Y0117203D01*
X0076651Y0118550D01*
X0078556Y0118550D01*
X0079904Y0117203D01*
X0079777Y0117329D02*
X0082022Y0117329D01*
X0081554Y0118327D02*
X0078779Y0118327D01*
X0076428Y0118327D02*
X0069523Y0118327D01*
X0070521Y0117329D02*
X0075430Y0117329D01*
X0075304Y0116330D02*
X0071520Y0116330D01*
X0073649Y0115332D02*
X0075304Y0115332D01*
X0074648Y0114333D02*
X0076104Y0114333D01*
X0076104Y0113335D02*
X0074904Y0113335D01*
X0074904Y0112336D02*
X0075437Y0112336D01*
X0075304Y0111338D02*
X0074069Y0111338D01*
X0075304Y0110339D02*
X0072404Y0110339D01*
X0071447Y0109341D02*
X0076260Y0109341D01*
X0078947Y0109341D02*
X0085010Y0109341D01*
X0084679Y0110339D02*
X0079904Y0110339D01*
X0079904Y0111338D02*
X0084679Y0111338D01*
X0085279Y0112336D02*
X0079770Y0112336D01*
X0079104Y0113335D02*
X0085279Y0113335D01*
X0085279Y0114333D02*
X0079104Y0114333D01*
X0079904Y0115332D02*
X0085472Y0115332D01*
X0081554Y0119326D02*
X0060280Y0119326D01*
X0061154Y0120324D02*
X0082175Y0120324D01*
X0084799Y0121323D02*
X0061154Y0121323D01*
X0061035Y0122321D02*
X0086404Y0122321D01*
X0085929Y0123320D02*
X0060036Y0123320D01*
X0057671Y0123320D02*
X0055475Y0123320D01*
X0055431Y0124318D02*
X0085929Y0124318D01*
X0086543Y0125317D02*
X0055067Y0125317D01*
X0055475Y0126315D02*
X0088390Y0126315D01*
X0089388Y0127314D02*
X0055475Y0127314D01*
X0055475Y0128312D02*
X0089732Y0128312D01*
X0089732Y0129311D02*
X0055475Y0129311D01*
X0054954Y0130309D02*
X0090024Y0130309D01*
X0089544Y0132306D02*
X0054954Y0132306D01*
X0054954Y0131308D02*
X0093596Y0131308D01*
X0093163Y0132306D02*
X0094739Y0132306D01*
X0095304Y0133305D02*
X0093654Y0133305D01*
X0093654Y0134303D02*
X0096154Y0134303D01*
X0093054Y0135302D02*
X0117979Y0135302D01*
X0117979Y0136301D02*
X0092854Y0136301D01*
X0092854Y0137299D02*
X0117979Y0137299D01*
X0117979Y0138298D02*
X0092854Y0138298D01*
X0092854Y0139296D02*
X0117979Y0139296D01*
X0117979Y0140295D02*
X0092854Y0140295D01*
X0092854Y0141293D02*
X0117979Y0141293D01*
X0117979Y0142292D02*
X0092854Y0142292D01*
X0092854Y0143290D02*
X0117979Y0143290D01*
X0117979Y0144289D02*
X0092854Y0144289D01*
X0092854Y0145287D02*
X0117979Y0145287D01*
X0117979Y0146286D02*
X0092854Y0146286D01*
X0092854Y0147284D02*
X0117979Y0147284D01*
X0117979Y0148283D02*
X0092854Y0148283D01*
X0092854Y0149281D02*
X0117979Y0149281D01*
X0117979Y0150280D02*
X0092854Y0150280D01*
X0092854Y0151278D02*
X0117979Y0151278D01*
X0117979Y0152277D02*
X0092854Y0152277D01*
X0092854Y0153275D02*
X0118132Y0153275D01*
X0119131Y0154274D02*
X0092854Y0154274D01*
X0092854Y0155272D02*
X0120129Y0155272D01*
X0121128Y0156271D02*
X0092854Y0156271D01*
X0092854Y0157269D02*
X0122126Y0157269D01*
X0123125Y0158268D02*
X0092854Y0158268D01*
X0092873Y0159266D02*
X0124123Y0159266D01*
X0125122Y0160265D02*
X0093654Y0160265D01*
X0093654Y0161263D02*
X0126121Y0161263D01*
X0127368Y0158268D02*
X0187214Y0158268D01*
X0189460Y0160265D02*
X0192804Y0160265D01*
X0192804Y0160955D02*
X0192804Y0159045D01*
X0193534Y0157281D01*
X0194885Y0155931D01*
X0196649Y0155200D01*
X0198558Y0155200D01*
X0200323Y0155931D01*
X0201673Y0157281D01*
X0202404Y0159045D01*
X0202404Y0160955D01*
X0201673Y0162719D01*
X0200323Y0164069D01*
X0198558Y0164800D01*
X0196649Y0164800D01*
X0194885Y0164069D01*
X0193534Y0162719D01*
X0192804Y0160955D01*
X0192931Y0161263D02*
X0188462Y0161263D01*
X0190459Y0159266D02*
X0192804Y0159266D01*
X0193126Y0158268D02*
X0191457Y0158268D01*
X0192456Y0157269D02*
X0193546Y0157269D01*
X0193454Y0156271D02*
X0194545Y0156271D01*
X0194453Y0155272D02*
X0196474Y0155272D01*
X0198733Y0155272D02*
X0220604Y0155272D01*
X0220604Y0154274D02*
X0199829Y0154274D01*
X0201117Y0153275D02*
X0220604Y0153275D01*
X0220604Y0152277D02*
X0201856Y0152277D01*
X0202270Y0151278D02*
X0220604Y0151278D01*
X0220604Y0150280D02*
X0202404Y0150280D01*
X0202404Y0149281D02*
X0220604Y0149281D01*
X0220604Y0148283D02*
X0202088Y0148283D01*
X0201674Y0147284D02*
X0220604Y0147284D01*
X0220604Y0146286D02*
X0200677Y0146286D01*
X0200662Y0156271D02*
X0220604Y0156271D01*
X0220604Y0157269D02*
X0201661Y0157269D01*
X0202081Y0158268D02*
X0220604Y0158268D01*
X0220604Y0159266D02*
X0202404Y0159266D01*
X0202404Y0160265D02*
X0220604Y0160265D01*
X0220604Y0161263D02*
X0202276Y0161263D01*
X0201862Y0162262D02*
X0220604Y0162262D01*
X0220604Y0163260D02*
X0201131Y0163260D01*
X0199865Y0164259D02*
X0220604Y0164259D01*
X0220604Y0165257D02*
X0179954Y0165257D01*
X0179954Y0164259D02*
X0195342Y0164259D01*
X0194076Y0163260D02*
X0179687Y0163260D01*
X0178689Y0162262D02*
X0193345Y0162262D01*
X0189181Y0167254D02*
X0220604Y0167254D01*
X0220604Y0166256D02*
X0179171Y0166256D01*
X0189954Y0168253D02*
X0220604Y0168253D01*
X0220604Y0169251D02*
X0189954Y0169251D01*
X0189677Y0170250D02*
X0220604Y0170250D01*
X0220604Y0171248D02*
X0189037Y0171248D01*
X0190835Y0172247D02*
X0220604Y0172247D01*
X0220604Y0173245D02*
X0191808Y0173245D01*
X0192222Y0174244D02*
X0220604Y0174244D01*
X0220604Y0175242D02*
X0192542Y0175242D01*
X0192542Y0176241D02*
X0220604Y0176241D01*
X0220604Y0177239D02*
X0192436Y0177239D01*
X0192022Y0178238D02*
X0220604Y0178238D01*
X0220604Y0179237D02*
X0191351Y0179237D01*
X0195956Y0183231D02*
X0051823Y0183231D01*
X0051981Y0184229D02*
X0220604Y0184229D01*
X0220604Y0183231D02*
X0199251Y0183231D01*
X0199904Y0182232D02*
X0220604Y0182232D01*
X0220604Y0181234D02*
X0199904Y0181234D01*
X0199466Y0180235D02*
X0220604Y0180235D01*
X0220604Y0185228D02*
X0052067Y0185228D01*
X0051909Y0186226D02*
X0220604Y0186226D01*
X0220604Y0187225D02*
X0051751Y0187225D01*
X0051593Y0188223D02*
X0129080Y0188223D01*
X0129104Y0188200D02*
X0131009Y0188200D01*
X0131809Y0189000D01*
X0204851Y0189000D01*
X0205651Y0188200D01*
X0207556Y0188200D01*
X0208904Y0189547D01*
X0208904Y0191453D01*
X0207556Y0192800D01*
X0205651Y0192800D01*
X0204851Y0192000D01*
X0131809Y0192000D01*
X0131009Y0192800D01*
X0129104Y0192800D01*
X0127756Y0191453D01*
X0127756Y0189547D01*
X0129104Y0188200D01*
X0128082Y0189222D02*
X0051435Y0189222D01*
X0051394Y0189481D02*
X0051394Y0189481D01*
X0051017Y0190220D02*
X0127756Y0190220D01*
X0127756Y0191219D02*
X0050508Y0191219D01*
X0050000Y0192217D02*
X0128521Y0192217D01*
X0131592Y0192217D02*
X0205068Y0192217D01*
X0208139Y0192217D02*
X0220604Y0192217D01*
X0220604Y0191219D02*
X0208904Y0191219D01*
X0208904Y0190220D02*
X0220604Y0190220D01*
X0220604Y0189222D02*
X0208578Y0189222D01*
X0207579Y0188223D02*
X0220604Y0188223D01*
X0220604Y0193216D02*
X0049491Y0193216D01*
X0049334Y0193523D02*
X0049334Y0193523D01*
X0048643Y0194214D02*
X0220604Y0194214D01*
X0220604Y0195213D02*
X0047644Y0195213D01*
X0046646Y0196211D02*
X0220604Y0196211D01*
X0220604Y0197210D02*
X0045186Y0197210D01*
X0046126Y0196731D02*
X0046126Y0196731D01*
X0051665Y0182232D02*
X0052339Y0182232D01*
X0039679Y0170250D02*
X0024604Y0170250D01*
X0024604Y0171248D02*
X0033047Y0171248D01*
X0033123Y0171210D02*
X0033123Y0171210D01*
X0031087Y0172247D02*
X0024604Y0172247D01*
X0024604Y0173245D02*
X0029127Y0173245D01*
X0029081Y0173269D02*
X0029081Y0173269D01*
X0028106Y0174244D02*
X0024604Y0174244D01*
X0024604Y0175242D02*
X0027107Y0175242D01*
X0026109Y0176241D02*
X0024604Y0176241D01*
X0024604Y0177239D02*
X0025484Y0177239D01*
X0025873Y0176477D02*
X0025873Y0176477D01*
X0024976Y0178238D02*
X0024604Y0178238D01*
X0024604Y0169251D02*
X0039679Y0169251D01*
X0037485Y0168253D02*
X0024604Y0168253D01*
X0024604Y0167254D02*
X0036487Y0167254D01*
X0035488Y0166256D02*
X0024604Y0166256D01*
X0024604Y0165257D02*
X0034490Y0165257D01*
X0036735Y0163260D02*
X0056290Y0163260D01*
X0055292Y0162262D02*
X0036862Y0162262D01*
X0037276Y0161263D02*
X0055254Y0161263D01*
X0055265Y0160265D02*
X0037404Y0160265D01*
X0037404Y0159266D02*
X0056264Y0159266D01*
X0065254Y0164259D02*
X0037734Y0164259D01*
X0038732Y0165257D02*
X0065254Y0165257D01*
X0067754Y0158268D02*
X0037081Y0158268D01*
X0036661Y0157269D02*
X0067754Y0157269D01*
X0068009Y0156271D02*
X0035663Y0156271D01*
X0034829Y0154274D02*
X0085254Y0154274D01*
X0085254Y0155272D02*
X0080699Y0155272D01*
X0081698Y0156271D02*
X0085254Y0156271D01*
X0085254Y0157269D02*
X0081954Y0157269D01*
X0081954Y0158268D02*
X0085254Y0158268D01*
X0085254Y0159266D02*
X0081161Y0159266D01*
X0083517Y0161263D02*
X0077454Y0161263D01*
X0077442Y0160265D02*
X0084515Y0160265D01*
X0088167Y0163260D02*
X0090361Y0163260D01*
X0089363Y0162262D02*
X0089165Y0162262D01*
X0087168Y0164259D02*
X0143754Y0164259D01*
X0143754Y0165257D02*
X0092864Y0165257D01*
X0093654Y0166256D02*
X0144536Y0166256D01*
X0144020Y0163260D02*
X0092346Y0163260D01*
X0093344Y0162262D02*
X0145018Y0162262D01*
X0137026Y0167254D02*
X0093654Y0167254D01*
X0093353Y0168253D02*
X0136254Y0168253D01*
X0136254Y0169251D02*
X0092355Y0169251D01*
X0090352Y0169251D02*
X0089954Y0169251D01*
X0089954Y0170250D02*
X0136530Y0170250D01*
X0136170Y0171248D02*
X0129037Y0171248D01*
X0130835Y0172247D02*
X0134372Y0172247D01*
X0133399Y0173245D02*
X0131808Y0173245D01*
X0132222Y0174244D02*
X0132985Y0174244D01*
X0132665Y0175242D02*
X0132542Y0175242D01*
X0132542Y0176241D02*
X0132665Y0176241D01*
X0132771Y0177239D02*
X0132436Y0177239D01*
X0132022Y0178238D02*
X0133185Y0178238D01*
X0133856Y0179237D02*
X0131351Y0179237D01*
X0123856Y0179237D02*
X0121351Y0179237D01*
X0122022Y0178238D02*
X0123185Y0178238D01*
X0122771Y0177239D02*
X0122436Y0177239D01*
X0122542Y0176241D02*
X0122665Y0176241D01*
X0122665Y0175242D02*
X0122542Y0175242D01*
X0122222Y0174244D02*
X0122985Y0174244D01*
X0123399Y0173245D02*
X0121808Y0173245D01*
X0120835Y0172247D02*
X0124372Y0172247D01*
X0126170Y0171248D02*
X0119037Y0171248D01*
X0116170Y0171248D02*
X0112085Y0171248D01*
X0112542Y0172247D02*
X0114372Y0172247D01*
X0113399Y0173245D02*
X0112542Y0173245D01*
X0112542Y0174244D02*
X0112985Y0174244D01*
X0112665Y0175242D02*
X0112542Y0175242D01*
X0112542Y0176241D02*
X0112665Y0176241D01*
X0112771Y0177239D02*
X0112542Y0177239D01*
X0112542Y0178238D02*
X0113185Y0178238D01*
X0112542Y0179237D02*
X0113856Y0179237D01*
X0103122Y0171248D02*
X0089179Y0171248D01*
X0090835Y0172247D02*
X0102665Y0172247D01*
X0102665Y0173245D02*
X0091808Y0173245D01*
X0092222Y0174244D02*
X0102665Y0174244D01*
X0102665Y0175242D02*
X0092542Y0175242D01*
X0092542Y0176241D02*
X0102665Y0176241D01*
X0102665Y0177239D02*
X0092436Y0177239D01*
X0092022Y0178238D02*
X0102665Y0178238D01*
X0102665Y0179237D02*
X0091351Y0179237D01*
X0089844Y0165257D02*
X0086170Y0165257D01*
X0085254Y0153275D02*
X0036117Y0153275D01*
X0036673Y0152719D02*
X0035323Y0154069D01*
X0033558Y0154800D01*
X0031649Y0154800D01*
X0029885Y0154069D01*
X0028534Y0152719D01*
X0027804Y0150955D01*
X0027804Y0149045D01*
X0028534Y0147281D01*
X0029885Y0145931D01*
X0031649Y0145200D01*
X0033558Y0145200D01*
X0035323Y0145931D01*
X0036673Y0147281D01*
X0037404Y0149045D01*
X0037404Y0150955D01*
X0036673Y0152719D01*
X0036856Y0152277D02*
X0085254Y0152277D01*
X0085254Y0151278D02*
X0037270Y0151278D01*
X0037404Y0150280D02*
X0085254Y0150280D01*
X0085254Y0149281D02*
X0037404Y0149281D01*
X0037088Y0148283D02*
X0039509Y0148283D01*
X0039054Y0147828D02*
X0039054Y0145922D01*
X0039854Y0145122D01*
X0039854Y0137504D01*
X0044054Y0133304D01*
X0044054Y0132172D01*
X0045401Y0130825D01*
X0047306Y0130825D01*
X0048654Y0132172D01*
X0048654Y0134078D01*
X0047306Y0135425D01*
X0046175Y0135425D01*
X0042854Y0138746D01*
X0042854Y0145122D01*
X0043654Y0145922D01*
X0043654Y0147828D01*
X0042306Y0149175D01*
X0040401Y0149175D01*
X0039054Y0147828D01*
X0039054Y0147284D02*
X0036674Y0147284D01*
X0035677Y0146286D02*
X0039054Y0146286D01*
X0039689Y0145287D02*
X0033769Y0145287D01*
X0033558Y0144800D02*
X0031649Y0144800D01*
X0029885Y0144069D01*
X0028534Y0142719D01*
X0027804Y0140955D01*
X0027804Y0139045D01*
X0028534Y0137281D01*
X0029885Y0135931D01*
X0031649Y0135200D01*
X0033558Y0135200D01*
X0035323Y0135931D01*
X0036673Y0137281D01*
X0037404Y0139045D01*
X0037404Y0140955D01*
X0036673Y0142719D01*
X0035323Y0144069D01*
X0033558Y0144800D01*
X0034793Y0144289D02*
X0039854Y0144289D01*
X0039854Y0143290D02*
X0036102Y0143290D01*
X0036850Y0142292D02*
X0039854Y0142292D01*
X0039854Y0141293D02*
X0037263Y0141293D01*
X0037404Y0140295D02*
X0039854Y0140295D01*
X0039854Y0139296D02*
X0037404Y0139296D01*
X0037094Y0138298D02*
X0039854Y0138298D01*
X0040058Y0137299D02*
X0036680Y0137299D01*
X0035692Y0136301D02*
X0041057Y0136301D01*
X0042055Y0135302D02*
X0033805Y0135302D01*
X0033558Y0134800D02*
X0031649Y0134800D01*
X0029885Y0134069D01*
X0028534Y0132719D01*
X0027804Y0130955D01*
X0027804Y0129045D01*
X0028534Y0127281D01*
X0029885Y0125931D01*
X0031649Y0125200D01*
X0033558Y0125200D01*
X0035323Y0125931D01*
X0036673Y0127281D01*
X0037404Y0129045D01*
X0037404Y0130955D01*
X0036673Y0132719D01*
X0035323Y0134069D01*
X0033558Y0134800D01*
X0034757Y0134303D02*
X0043054Y0134303D01*
X0044052Y0133305D02*
X0036087Y0133305D01*
X0036844Y0132306D02*
X0044054Y0132306D01*
X0044918Y0131308D02*
X0037257Y0131308D01*
X0037404Y0130309D02*
X0050254Y0130309D01*
X0050254Y0131308D02*
X0047789Y0131308D01*
X0048654Y0132306D02*
X0050254Y0132306D01*
X0050254Y0133305D02*
X0048654Y0133305D01*
X0048428Y0134303D02*
X0050254Y0134303D01*
X0050254Y0135302D02*
X0047429Y0135302D01*
X0045299Y0136301D02*
X0050254Y0136301D01*
X0050254Y0137299D02*
X0044301Y0137299D01*
X0043302Y0138298D02*
X0050254Y0138298D01*
X0050254Y0139296D02*
X0042854Y0139296D01*
X0042854Y0140295D02*
X0050254Y0140295D01*
X0050254Y0141293D02*
X0042854Y0141293D01*
X0042854Y0142292D02*
X0050322Y0142292D01*
X0051320Y0143290D02*
X0042854Y0143290D01*
X0042854Y0144289D02*
X0085254Y0144289D01*
X0085254Y0145287D02*
X0043018Y0145287D01*
X0043654Y0146286D02*
X0085254Y0146286D01*
X0085254Y0147284D02*
X0043654Y0147284D01*
X0043199Y0148283D02*
X0085254Y0148283D01*
X0085254Y0143290D02*
X0083887Y0143290D01*
X0084329Y0142292D02*
X0085254Y0142292D01*
X0085254Y0141293D02*
X0084329Y0141293D01*
X0083722Y0140295D02*
X0085254Y0140295D01*
X0085984Y0139296D02*
X0082723Y0139296D01*
X0089223Y0139296D02*
X0089854Y0139296D01*
X0089854Y0138298D02*
X0054954Y0138298D01*
X0054954Y0137299D02*
X0089854Y0137299D01*
X0089854Y0136301D02*
X0054954Y0136301D01*
X0054954Y0135302D02*
X0089653Y0135302D01*
X0089054Y0134303D02*
X0054954Y0134303D01*
X0054954Y0133305D02*
X0089054Y0133305D01*
X0095475Y0128312D02*
X0120982Y0128312D01*
X0120982Y0127314D02*
X0095475Y0127314D01*
X0095440Y0126315D02*
X0120982Y0126315D01*
X0121272Y0125317D02*
X0095058Y0125317D01*
X0096478Y0129311D02*
X0119296Y0129311D01*
X0118298Y0130309D02*
X0098666Y0130309D01*
X0099664Y0131308D02*
X0117979Y0131308D01*
X0117979Y0132306D02*
X0099904Y0132306D01*
X0099904Y0133305D02*
X0117979Y0133305D01*
X0117979Y0134303D02*
X0099053Y0134303D01*
X0093463Y0120324D02*
X0092549Y0120324D01*
X0092522Y0119326D02*
X0092685Y0119326D01*
X0092685Y0118327D02*
X0092522Y0118327D01*
X0086009Y0108342D02*
X0061154Y0108342D01*
X0061154Y0107344D02*
X0087856Y0107344D01*
X0088854Y0106345D02*
X0060951Y0106345D01*
X0059953Y0105347D02*
X0089732Y0105347D01*
X0090366Y0104348D02*
X0042854Y0104348D01*
X0042854Y0105347D02*
X0057754Y0105347D01*
X0060266Y0109341D02*
X0068760Y0109341D01*
X0067804Y0110339D02*
X0066195Y0110339D01*
X0067194Y0111338D02*
X0067804Y0111338D01*
X0067937Y0112336D02*
X0067404Y0112336D01*
X0064012Y0110339D02*
X0058654Y0110339D01*
X0044137Y0106345D02*
X0042854Y0106345D01*
X0039854Y0106345D02*
X0038380Y0106345D01*
X0039378Y0105347D02*
X0039854Y0105347D01*
X0039854Y0107344D02*
X0037381Y0107344D01*
X0037112Y0108342D02*
X0039854Y0108342D01*
X0039854Y0109341D02*
X0037404Y0109341D01*
X0037404Y0110339D02*
X0039854Y0110339D01*
X0039144Y0111338D02*
X0037245Y0111338D01*
X0036831Y0112336D02*
X0038146Y0112336D01*
X0037147Y0113335D02*
X0036057Y0113335D01*
X0036149Y0114333D02*
X0034685Y0114333D01*
X0035150Y0115332D02*
X0033876Y0115332D01*
X0037396Y0117329D02*
X0040180Y0117329D01*
X0039554Y0116330D02*
X0038395Y0116330D01*
X0039393Y0115332D02*
X0039554Y0115332D01*
X0041554Y0118327D02*
X0037106Y0118327D01*
X0037404Y0119326D02*
X0041554Y0119326D01*
X0042175Y0120324D02*
X0037404Y0120324D01*
X0037251Y0121323D02*
X0042528Y0121323D01*
X0042304Y0122321D02*
X0036837Y0122321D01*
X0036072Y0123320D02*
X0042304Y0123320D01*
X0043169Y0124318D02*
X0034721Y0124318D01*
X0033841Y0125317D02*
X0046254Y0125317D01*
X0046254Y0124318D02*
X0046038Y0124318D01*
X0046596Y0126315D02*
X0035707Y0126315D01*
X0036686Y0127314D02*
X0047594Y0127314D01*
X0048593Y0128312D02*
X0037100Y0128312D01*
X0037404Y0129311D02*
X0049591Y0129311D01*
X0031402Y0135302D02*
X0024604Y0135302D01*
X0024604Y0136301D02*
X0029515Y0136301D01*
X0028527Y0137299D02*
X0024604Y0137299D01*
X0024604Y0138298D02*
X0028113Y0138298D01*
X0027804Y0139296D02*
X0024604Y0139296D01*
X0024604Y0140295D02*
X0027804Y0140295D01*
X0027944Y0141293D02*
X0024604Y0141293D01*
X0024604Y0142292D02*
X0028357Y0142292D01*
X0029105Y0143290D02*
X0024604Y0143290D01*
X0024604Y0144289D02*
X0030414Y0144289D01*
X0031438Y0145287D02*
X0024604Y0145287D01*
X0024604Y0146286D02*
X0029530Y0146286D01*
X0028533Y0147284D02*
X0024604Y0147284D01*
X0024604Y0148283D02*
X0028119Y0148283D01*
X0027804Y0149281D02*
X0024604Y0149281D01*
X0024604Y0150280D02*
X0027804Y0150280D01*
X0027938Y0151278D02*
X0024604Y0151278D01*
X0024604Y0152277D02*
X0028351Y0152277D01*
X0029091Y0153275D02*
X0024604Y0153275D01*
X0024604Y0154274D02*
X0030378Y0154274D01*
X0031474Y0155272D02*
X0024604Y0155272D01*
X0024604Y0156271D02*
X0029545Y0156271D01*
X0028546Y0157269D02*
X0024604Y0157269D01*
X0024604Y0158268D02*
X0028126Y0158268D01*
X0027804Y0159266D02*
X0024604Y0159266D01*
X0024604Y0160265D02*
X0027804Y0160265D01*
X0027931Y0161263D02*
X0024604Y0161263D01*
X0024604Y0162262D02*
X0028345Y0162262D01*
X0029076Y0163260D02*
X0024604Y0163260D01*
X0024604Y0164259D02*
X0030342Y0164259D01*
X0037604Y0170500D02*
X0037604Y0170500D01*
X0033733Y0155272D02*
X0069008Y0155272D01*
X0030450Y0134303D02*
X0024604Y0134303D01*
X0024604Y0133305D02*
X0029120Y0133305D01*
X0028363Y0132306D02*
X0024604Y0132306D01*
X0024604Y0131308D02*
X0027950Y0131308D01*
X0027804Y0130309D02*
X0024604Y0130309D01*
X0024604Y0129311D02*
X0027804Y0129311D01*
X0028107Y0128312D02*
X0024604Y0128312D01*
X0024604Y0127314D02*
X0028521Y0127314D01*
X0029500Y0126315D02*
X0024604Y0126315D01*
X0024604Y0125317D02*
X0031367Y0125317D01*
X0030486Y0124318D02*
X0024604Y0124318D01*
X0024604Y0123320D02*
X0029135Y0123320D01*
X0028370Y0122321D02*
X0024604Y0122321D01*
X0024604Y0121323D02*
X0027956Y0121323D01*
X0027804Y0120324D02*
X0024604Y0120324D01*
X0024604Y0119326D02*
X0027804Y0119326D01*
X0028101Y0118327D02*
X0024604Y0118327D01*
X0024604Y0117329D02*
X0028515Y0117329D01*
X0029485Y0116330D02*
X0024604Y0116330D01*
X0024604Y0115332D02*
X0031331Y0115332D01*
X0030522Y0114333D02*
X0024604Y0114333D01*
X0024604Y0113335D02*
X0029150Y0113335D01*
X0028376Y0112336D02*
X0024604Y0112336D01*
X0024604Y0111338D02*
X0027962Y0111338D01*
X0027804Y0110339D02*
X0024604Y0110339D01*
X0024604Y0109341D02*
X0027804Y0109341D01*
X0028095Y0108342D02*
X0024604Y0108342D01*
X0024604Y0107344D02*
X0028508Y0107344D01*
X0029470Y0106345D02*
X0024604Y0106345D01*
X0024604Y0105347D02*
X0031295Y0105347D01*
X0030558Y0104348D02*
X0024604Y0104348D01*
X0024604Y0103350D02*
X0029165Y0103350D01*
X0028382Y0102351D02*
X0024604Y0102351D01*
X0024604Y0101353D02*
X0027968Y0101353D01*
X0027804Y0100354D02*
X0024604Y0100354D01*
X0024604Y0099356D02*
X0027804Y0099356D01*
X0028089Y0098357D02*
X0024604Y0098357D01*
X0024604Y0097359D02*
X0028502Y0097359D01*
X0029455Y0096360D02*
X0024604Y0096360D01*
X0024604Y0095362D02*
X0031259Y0095362D01*
X0030594Y0094363D02*
X0024604Y0094363D01*
X0024604Y0093365D02*
X0029180Y0093365D01*
X0028388Y0092366D02*
X0024604Y0092366D01*
X0024604Y0091368D02*
X0027975Y0091368D01*
X0027804Y0090369D02*
X0024604Y0090369D01*
X0024604Y0089370D02*
X0027804Y0089370D01*
X0028082Y0088372D02*
X0024604Y0088372D01*
X0024604Y0087373D02*
X0028496Y0087373D01*
X0029440Y0086375D02*
X0024604Y0086375D01*
X0024604Y0085376D02*
X0031223Y0085376D01*
X0031649Y0084800D02*
X0029885Y0084069D01*
X0028534Y0082719D01*
X0027804Y0080955D01*
X0027804Y0079045D01*
X0028534Y0077281D01*
X0029885Y0075931D01*
X0031649Y0075200D01*
X0033558Y0075200D01*
X0035323Y0075931D01*
X0036673Y0077281D01*
X0037404Y0079045D01*
X0037404Y0080955D01*
X0036673Y0082719D01*
X0035323Y0084069D01*
X0033558Y0084800D01*
X0031649Y0084800D01*
X0030630Y0084378D02*
X0024604Y0084378D01*
X0024604Y0083379D02*
X0029195Y0083379D01*
X0028394Y0082381D02*
X0024604Y0082381D01*
X0024604Y0081382D02*
X0027981Y0081382D01*
X0027804Y0080384D02*
X0024604Y0080384D01*
X0024604Y0079385D02*
X0027804Y0079385D01*
X0028076Y0078387D02*
X0024604Y0078387D01*
X0024604Y0077388D02*
X0028490Y0077388D01*
X0029425Y0076390D02*
X0024604Y0076390D01*
X0024604Y0075391D02*
X0031187Y0075391D01*
X0030652Y0074393D02*
X0024604Y0074393D01*
X0024604Y0073394D02*
X0029210Y0073394D01*
X0028437Y0072396D02*
X0024604Y0072396D01*
X0024604Y0071397D02*
X0028011Y0071397D01*
X0027839Y0069400D02*
X0024604Y0069400D01*
X0024604Y0068402D02*
X0028076Y0068402D01*
X0028557Y0067403D02*
X0024604Y0067403D01*
X0024604Y0066405D02*
X0029411Y0066405D01*
X0032103Y0070399D02*
X0024604Y0070399D01*
X0032104Y0071397D02*
X0033104Y0071397D01*
X0033104Y0072396D02*
X0032104Y0072396D01*
X0032104Y0073394D02*
X0033104Y0073394D01*
X0033104Y0074393D02*
X0032104Y0074393D01*
X0034020Y0075391D02*
X0038960Y0075391D01*
X0038429Y0076390D02*
X0035782Y0076390D01*
X0036717Y0077388D02*
X0038429Y0077388D01*
X0038988Y0078387D02*
X0037131Y0078387D01*
X0037404Y0079385D02*
X0040929Y0079385D01*
X0040985Y0080384D02*
X0037404Y0080384D01*
X0037226Y0081382D02*
X0041983Y0081382D01*
X0043429Y0082381D02*
X0036813Y0082381D01*
X0036012Y0083379D02*
X0042103Y0083379D01*
X0041104Y0084378D02*
X0034577Y0084378D01*
X0033984Y0085376D02*
X0040106Y0085376D01*
X0039107Y0086375D02*
X0035767Y0086375D01*
X0036711Y0087373D02*
X0038109Y0087373D01*
X0037354Y0088372D02*
X0037125Y0088372D01*
X0037233Y0091368D02*
X0037354Y0091368D01*
X0037354Y0092366D02*
X0036819Y0092366D01*
X0037354Y0093365D02*
X0036027Y0093365D01*
X0037354Y0094363D02*
X0034613Y0094363D01*
X0033948Y0095362D02*
X0037354Y0095362D01*
X0037354Y0096360D02*
X0035752Y0096360D01*
X0036705Y0097359D02*
X0037354Y0097359D01*
X0037354Y0098357D02*
X0037118Y0098357D01*
X0037239Y0101353D02*
X0037354Y0101353D01*
X0037354Y0102351D02*
X0036825Y0102351D01*
X0037133Y0103350D02*
X0036042Y0103350D01*
X0036134Y0104348D02*
X0034649Y0104348D01*
X0035136Y0105347D02*
X0033912Y0105347D01*
X0077904Y0083379D02*
X0095754Y0083379D01*
X0095754Y0082381D02*
X0095350Y0082381D01*
X0092357Y0082381D02*
X0077904Y0082381D01*
X0091349Y0081382D02*
X0091554Y0081382D01*
X0121454Y0093365D02*
X0132142Y0093365D01*
X0132510Y0093365D02*
X0152804Y0093365D01*
X0152804Y0092366D02*
X0134560Y0092366D01*
X0136610Y0091368D02*
X0153218Y0091368D01*
X0152804Y0090369D02*
X0138117Y0090369D01*
X0138462Y0089370D02*
X0152804Y0089370D01*
X0153479Y0088372D02*
X0138454Y0088372D01*
X0138454Y0087373D02*
X0159054Y0087373D01*
X0159054Y0088372D02*
X0156728Y0088372D01*
X0156351Y0086375D02*
X0138454Y0086375D01*
X0138454Y0085376D02*
X0155929Y0085376D01*
X0155929Y0084378D02*
X0138454Y0084378D01*
X0138454Y0083379D02*
X0156596Y0083379D01*
X0159861Y0083379D02*
X0184721Y0083379D01*
X0193382Y0102351D02*
X0168654Y0102351D01*
X0168654Y0103350D02*
X0173501Y0103350D01*
X0172503Y0104348D02*
X0168383Y0104348D01*
X0167385Y0105347D02*
X0172179Y0105347D01*
X0169256Y0106345D02*
X0166744Y0106345D01*
X0166744Y0107344D02*
X0168429Y0107344D01*
X0168429Y0108342D02*
X0166744Y0108342D01*
X0166744Y0109341D02*
X0168692Y0109341D01*
X0168243Y0110339D02*
X0166964Y0110339D01*
X0167522Y0111338D02*
X0167685Y0111338D01*
X0167685Y0112336D02*
X0167522Y0112336D01*
X0167522Y0113335D02*
X0167685Y0113335D01*
X0167685Y0114333D02*
X0167522Y0114333D01*
X0167522Y0115332D02*
X0167685Y0115332D01*
X0166744Y0116330D02*
X0171771Y0116330D01*
X0171554Y0117329D02*
X0170685Y0117329D01*
X0171154Y0118327D02*
X0171554Y0118327D01*
X0172641Y0115332D02*
X0172769Y0115332D01*
X0172641Y0114333D02*
X0174732Y0114333D01*
X0174732Y0113335D02*
X0172641Y0113335D01*
X0172641Y0112336D02*
X0175394Y0112336D01*
X0174732Y0111338D02*
X0172641Y0111338D01*
X0172229Y0110339D02*
X0174732Y0110339D01*
X0174732Y0109341D02*
X0172766Y0109341D01*
X0173029Y0108342D02*
X0174752Y0108342D01*
X0175893Y0107463D02*
X0177415Y0107463D01*
X0177415Y0109752D01*
X0177793Y0109752D01*
X0177793Y0107463D01*
X0179314Y0107463D01*
X0178976Y0107125D01*
X0176231Y0107125D01*
X0175893Y0107463D01*
X0176013Y0107344D02*
X0179195Y0107344D01*
X0177793Y0108342D02*
X0177415Y0108342D01*
X0177415Y0109341D02*
X0177793Y0109341D01*
X0177793Y0110339D02*
X0177415Y0110339D01*
X0177415Y0111338D02*
X0177793Y0111338D01*
X0177793Y0112336D02*
X0177415Y0112336D01*
X0180475Y0113335D02*
X0188516Y0113335D01*
X0187804Y0114333D02*
X0180475Y0114333D01*
X0180475Y0115332D02*
X0187804Y0115332D01*
X0187277Y0116330D02*
X0180475Y0116330D01*
X0180039Y0117329D02*
X0186278Y0117329D01*
X0185280Y0118327D02*
X0176739Y0118327D01*
X0175926Y0119326D02*
X0184281Y0119326D01*
X0183283Y0120324D02*
X0176924Y0120324D01*
X0177229Y0121323D02*
X0182284Y0121323D01*
X0181286Y0122321D02*
X0177229Y0122321D01*
X0177229Y0123320D02*
X0180287Y0123320D01*
X0179289Y0124318D02*
X0177229Y0124318D01*
X0177229Y0125317D02*
X0178290Y0125317D01*
X0177292Y0126315D02*
X0177229Y0126315D01*
X0167022Y0117329D02*
X0166744Y0117329D01*
X0163344Y0108342D02*
X0158883Y0108342D01*
X0159713Y0107344D02*
X0163344Y0107344D01*
X0163344Y0106345D02*
X0160569Y0106345D01*
X0162385Y0105347D02*
X0163344Y0105347D01*
X0175456Y0103350D02*
X0179751Y0103350D01*
X0181706Y0103350D02*
X0194165Y0103350D01*
X0193095Y0108342D02*
X0185448Y0108342D01*
X0153089Y0094363D02*
X0121454Y0094363D01*
X0120979Y0132306D02*
X0120982Y0132306D01*
X0120979Y0133305D02*
X0120982Y0133305D01*
X0120979Y0134303D02*
X0120982Y0134303D01*
X0120979Y0135302D02*
X0122082Y0135302D01*
X0123081Y0136301D02*
X0120979Y0136301D01*
X0120979Y0137299D02*
X0124079Y0137299D01*
X0125078Y0138298D02*
X0120979Y0138298D01*
X0120979Y0139296D02*
X0126076Y0139296D01*
X0127075Y0140295D02*
X0120979Y0140295D01*
X0120979Y0141293D02*
X0128073Y0141293D01*
X0129072Y0142292D02*
X0120979Y0142292D01*
X0120979Y0143290D02*
X0130070Y0143290D01*
X0131032Y0188223D02*
X0205628Y0188223D01*
X0198104Y0047433D02*
X0197104Y0047433D01*
X0197104Y0046434D02*
X0198104Y0046434D01*
D19*
X0186354Y0038750D03*
X0183854Y0036250D03*
X0166354Y0060625D03*
X0150104Y0077500D03*
X0158229Y0085000D03*
X0161354Y0087500D03*
X0155104Y0090000D03*
X0155104Y0093125D03*
X0151354Y0098750D03*
X0155104Y0103125D03*
X0158229Y0103125D03*
X0161354Y0103125D03*
X0166354Y0103125D03*
X0170729Y0108125D03*
X0174479Y0105625D03*
X0180729Y0105625D03*
X0183854Y0110000D03*
X0190104Y0115000D03*
X0188854Y0125000D03*
X0173854Y0117500D03*
X0168854Y0118750D03*
X0161979Y0123750D03*
X0160104Y0119375D03*
X0152604Y0115625D03*
X0146979Y0113125D03*
X0144479Y0115625D03*
X0145729Y0109375D03*
X0159479Y0112500D03*
X0150104Y0127500D03*
X0150104Y0132500D03*
X0145104Y0132500D03*
X0145104Y0127500D03*
X0130104Y0132500D03*
X0127604Y0125625D03*
X0130104Y0117500D03*
X0130104Y0112500D03*
X0122604Y0110000D03*
X0107604Y0110000D03*
X0105104Y0103750D03*
X0100104Y0106250D03*
X0097604Y0103750D03*
X0086979Y0110625D03*
X0083854Y0113750D03*
X0083854Y0118750D03*
X0088229Y0123750D03*
X0097604Y0132500D03*
X0091354Y0133750D03*
X0087604Y0141000D03*
X0081979Y0141875D03*
X0075104Y0132500D03*
X0075104Y0127500D03*
X0070104Y0127500D03*
X0070104Y0132500D03*
X0058854Y0121250D03*
X0058854Y0117500D03*
X0056354Y0115000D03*
X0056354Y0110000D03*
X0058854Y0107500D03*
X0065104Y0112500D03*
X0070104Y0111250D03*
X0072604Y0113125D03*
X0077604Y0111250D03*
X0077604Y0116250D03*
X0073854Y0107500D03*
X0083854Y0098750D03*
X0093854Y0080625D03*
X0089479Y0080000D03*
X0098104Y0077000D03*
X0101354Y0080625D03*
X0108604Y0090900D03*
X0119104Y0094300D03*
X0136104Y0077500D03*
X0137604Y0071875D03*
X0128854Y0057500D03*
X0122604Y0055000D03*
X0118229Y0050625D03*
X0115104Y0053125D03*
X0112604Y0055625D03*
X0115104Y0067500D03*
X0120104Y0067500D03*
X0120104Y0072500D03*
X0115104Y0072500D03*
X0095729Y0065625D03*
X0081979Y0072500D03*
X0075729Y0038750D03*
X0040729Y0076875D03*
X0043229Y0079375D03*
X0045729Y0081875D03*
X0045104Y0091875D03*
X0045104Y0098750D03*
X0043854Y0108750D03*
X0041854Y0115750D03*
X0043854Y0118750D03*
X0048604Y0125000D03*
X0046354Y0133125D03*
X0052604Y0141250D03*
X0041354Y0146875D03*
X0050104Y0160625D03*
X0057604Y0161250D03*
X0050104Y0169500D03*
X0041979Y0170000D03*
X0027604Y0168750D03*
X0067604Y0164500D03*
X0070104Y0157500D03*
X0075104Y0161250D03*
X0079604Y0157500D03*
X0091354Y0161000D03*
X0091354Y0167000D03*
X0087604Y0169500D03*
X0130104Y0154375D03*
X0131354Y0141250D03*
X0146104Y0164500D03*
X0138604Y0169000D03*
X0161354Y0141250D03*
X0167604Y0141250D03*
X0173854Y0137500D03*
X0166354Y0132500D03*
X0184604Y0151000D03*
X0173854Y0154750D03*
X0177604Y0164500D03*
X0187604Y0169000D03*
X0197604Y0181625D03*
X0212604Y0178000D03*
X0177604Y0098750D03*
X0183854Y0087500D03*
X0186354Y0085000D03*
X0147604Y0047500D03*
X0134479Y0045000D03*
X0130104Y0038750D03*
X0101979Y0119375D03*
X0026354Y0125000D03*
D20*
X0044604Y0122500D03*
X0052604Y0115500D03*
X0075604Y0082500D03*
X0092604Y0044500D03*
X0212604Y0096500D03*
X0212604Y0134500D03*
X0206604Y0190500D03*
X0130056Y0190500D03*
D21*
X0206604Y0190500D01*
X0197604Y0181625D02*
X0053854Y0181625D01*
X0051979Y0179750D01*
X0051979Y0176250D01*
X0045729Y0170000D01*
X0041979Y0170000D01*
X0038354Y0167000D02*
X0091354Y0167000D01*
X0091354Y0161000D02*
X0091354Y0133750D01*
X0092604Y0123066D02*
X0092544Y0122441D01*
X0090729Y0120625D01*
X0086294Y0120566D01*
X0083854Y0118750D01*
X0077604Y0116250D02*
X0077604Y0111250D01*
X0072604Y0113125D02*
X0068229Y0117500D01*
X0058854Y0117500D01*
X0056354Y0115000D02*
X0067604Y0115000D01*
X0070104Y0112500D01*
X0070104Y0111250D01*
X0065104Y0112500D02*
X0050104Y0112500D01*
X0043854Y0118750D01*
X0041854Y0115750D02*
X0047604Y0110000D01*
X0056354Y0110000D01*
X0058854Y0107500D02*
X0045104Y0107500D01*
X0043854Y0108750D01*
X0041354Y0111250D02*
X0032604Y0120000D01*
X0041354Y0111250D02*
X0041354Y0089375D01*
X0043854Y0086875D01*
X0065104Y0086875D01*
X0071979Y0080000D01*
X0072604Y0080000D01*
X0075604Y0082500D01*
X0072604Y0080000D02*
X0089479Y0080000D01*
X0087604Y0078125D02*
X0088229Y0077500D01*
X0090729Y0077500D01*
X0093854Y0080625D01*
X0087604Y0078125D02*
X0070729Y0078125D01*
X0064479Y0084375D01*
X0043229Y0084375D01*
X0038854Y0088750D01*
X0038854Y0103750D01*
X0032604Y0110000D01*
X0044604Y0122500D02*
X0051604Y0115500D01*
X0052604Y0115500D01*
X0055044Y0121250D02*
X0052604Y0122441D01*
X0055044Y0121250D02*
X0058854Y0121250D01*
X0046354Y0133125D02*
X0041354Y0138125D01*
X0041354Y0146875D01*
X0032604Y0160000D02*
X0032604Y0161250D01*
X0038354Y0167000D01*
X0092604Y0111934D02*
X0094419Y0111934D01*
X0100104Y0106250D01*
X0104479Y0109375D02*
X0104479Y0116875D01*
X0101979Y0119375D01*
X0104479Y0109375D02*
X0110729Y0103125D01*
X0155104Y0103125D01*
X0155729Y0105625D02*
X0153854Y0105625D01*
X0153229Y0105000D01*
X0141354Y0105000D01*
X0139479Y0106875D01*
X0139479Y0113750D01*
X0141354Y0115625D01*
X0144479Y0115625D01*
X0143229Y0113125D02*
X0141979Y0111875D01*
X0141979Y0108125D01*
X0143229Y0106875D01*
X0151979Y0106875D01*
X0152604Y0107500D01*
X0157604Y0107500D01*
X0161354Y0103125D01*
X0158229Y0103125D02*
X0155729Y0105625D01*
X0146979Y0109375D02*
X0152604Y0115625D01*
X0146979Y0113125D02*
X0143229Y0113125D01*
X0145729Y0109375D02*
X0146979Y0109375D01*
X0161979Y0123750D02*
X0163229Y0123750D01*
X0170104Y0130625D01*
X0175104Y0130625D01*
X0190104Y0115625D01*
X0190104Y0115000D01*
X0183854Y0110000D02*
X0197604Y0110000D01*
X0197604Y0100000D02*
X0188229Y0100000D01*
X0181354Y0093125D01*
X0155104Y0093125D01*
X0155104Y0090000D02*
X0197604Y0090000D01*
X0186354Y0085000D02*
X0158229Y0085000D01*
X0161354Y0087500D02*
X0183854Y0087500D01*
X0180729Y0105625D02*
X0174479Y0105625D01*
X0170729Y0108125D02*
X0170729Y0114434D01*
X0170163Y0113125D01*
X0168854Y0118750D02*
X0170104Y0120000D01*
X0174479Y0120000D01*
X0175729Y0121250D01*
X0175729Y0126250D01*
X0174419Y0127559D01*
X0172604Y0128184D01*
X0175729Y0132500D02*
X0166354Y0132500D01*
X0175729Y0132500D02*
X0183229Y0140000D01*
X0197604Y0140000D01*
X0197604Y0150000D02*
X0187604Y0160000D01*
X0126979Y0160000D01*
X0119479Y0152500D01*
X0119479Y0131250D01*
X0120729Y0130000D01*
X0127604Y0130000D01*
X0130104Y0132500D01*
X0125788Y0127441D02*
X0127604Y0125625D01*
X0125788Y0127441D02*
X0123854Y0127441D01*
X0128854Y0080625D02*
X0101354Y0080625D01*
X0093913Y0067441D02*
X0087604Y0067441D01*
X0093913Y0067441D02*
X0095729Y0065625D01*
X0112604Y0055625D02*
X0078854Y0055625D01*
X0077604Y0056875D01*
X0077604Y0068125D01*
X0063854Y0081875D01*
X0045729Y0081875D01*
X0043229Y0079375D02*
X0063229Y0079375D01*
X0075729Y0066875D01*
X0075729Y0055625D01*
X0078229Y0053125D01*
X0115104Y0053125D01*
X0118229Y0050625D02*
X0077604Y0050625D01*
X0073854Y0054375D01*
X0073854Y0065625D01*
X0062604Y0076875D01*
X0040729Y0076875D01*
X0069538Y0036250D02*
X0183854Y0036250D01*
X0147604Y0047500D02*
X0147544Y0047441D01*
X0142604Y0047441D01*
X0136354Y0055000D02*
X0122604Y0055000D01*
X0136354Y0055000D02*
X0142604Y0061250D01*
X0142604Y0062441D01*
X0137604Y0071875D02*
X0128854Y0080625D01*
X0069538Y0036250D02*
X0066979Y0033691D01*
X0064646Y0031358D01*
X0064587Y0031358D01*
X0063229Y0030000D01*
X0049479Y0030000D01*
X0047904Y0031358D01*
D22*
X0052604Y0098750D03*
D23*
X0083854Y0098750D01*
X0151354Y0098750D01*
X0177604Y0098750D01*
X0058854Y0050551D02*
X0032604Y0050551D01*
D24*
X0032604Y0050000D01*
X0081979Y0072500D02*
X0087544Y0072500D01*
X0087604Y0072559D01*
X0098104Y0077000D02*
X0098104Y0089000D01*
X0104504Y0094300D01*
X0119104Y0094300D01*
X0108604Y0090900D02*
X0132204Y0090900D01*
X0136104Y0089000D01*
X0136104Y0077500D01*
X0122604Y0110000D02*
X0107604Y0110000D01*
X0123854Y0132559D02*
X0123854Y0133750D01*
X0131354Y0141250D01*
X0161354Y0141250D01*
X0173854Y0137500D02*
X0173854Y0154750D01*
X0177604Y0164500D02*
X0146104Y0164500D01*
X0138604Y0169000D02*
X0187604Y0169000D01*
X0087604Y0169500D02*
X0050104Y0169500D01*
X0057604Y0161250D02*
X0075104Y0161250D01*
X0079604Y0157500D02*
X0070104Y0157500D01*
X0067604Y0164500D02*
X0083604Y0164500D01*
X0087604Y0160500D01*
X0087604Y0141000D01*
X0081979Y0141875D02*
X0081354Y0141250D01*
X0052604Y0141250D01*
X0052604Y0127559D01*
X0051163Y0127559D01*
X0048604Y0125000D01*
D25*
X0086979Y0114434D02*
X0086979Y0110625D01*
X0090788Y0106816D01*
X0092604Y0106816D01*
X0086979Y0114434D02*
X0090044Y0117500D01*
X0088229Y0123750D02*
X0092038Y0127559D01*
X0092604Y0128184D01*
X0097544Y0132500D01*
X0097604Y0132500D01*
X0160104Y0119375D02*
X0164985Y0119375D01*
X0165044Y0119316D01*
X0168229Y0122500D01*
X0172544Y0122500D01*
X0172604Y0123066D01*
X0173854Y0117500D02*
X0175163Y0117500D01*
X0177604Y0115059D01*
X0165044Y0113125D02*
X0165044Y0104434D01*
X0166354Y0103125D01*
X0165044Y0113125D02*
X0165044Y0119316D01*
X0166354Y0060625D02*
X0177604Y0060512D01*
X0197092Y0060512D01*
X0197604Y0060000D01*
X0186354Y0038750D02*
X0130104Y0038750D01*
X0075729Y0038750D01*
X0075729Y0038809D01*
X0066979Y0038809D01*
X0128854Y0057500D02*
X0133169Y0057500D01*
X0133229Y0057441D01*
X0137604Y0052500D02*
X0142544Y0052500D01*
X0142604Y0052559D01*
X0137604Y0052500D02*
X0134479Y0049375D01*
X0134479Y0045000D01*
M02*
