G75*
%MOIN*%
%OFA0B0*%
%FSLAX25Y25*%
%IPPOS*%
%LPD*%
%AMOC8*
5,1,8,0,0,1.08239X$1,22.5*
%
%ADD10C,0.00000*%
D10*
X0022604Y0002500D02*
X0022604Y0200000D01*
X0222604Y0200000D01*
X0222604Y0002500D01*
X0022604Y0002500D01*
X0201305Y0015000D02*
X0201307Y0015158D01*
X0201313Y0015316D01*
X0201323Y0015474D01*
X0201337Y0015632D01*
X0201355Y0015789D01*
X0201376Y0015946D01*
X0201402Y0016102D01*
X0201432Y0016258D01*
X0201465Y0016413D01*
X0201503Y0016566D01*
X0201544Y0016719D01*
X0201589Y0016871D01*
X0201638Y0017022D01*
X0201691Y0017171D01*
X0201747Y0017319D01*
X0201807Y0017465D01*
X0201871Y0017610D01*
X0201939Y0017753D01*
X0202010Y0017895D01*
X0202084Y0018035D01*
X0202162Y0018172D01*
X0202244Y0018308D01*
X0202328Y0018442D01*
X0202417Y0018573D01*
X0202508Y0018702D01*
X0202603Y0018829D01*
X0202700Y0018954D01*
X0202801Y0019076D01*
X0202905Y0019195D01*
X0203012Y0019312D01*
X0203122Y0019426D01*
X0203235Y0019537D01*
X0203350Y0019646D01*
X0203468Y0019751D01*
X0203589Y0019853D01*
X0203712Y0019953D01*
X0203838Y0020049D01*
X0203966Y0020142D01*
X0204096Y0020232D01*
X0204229Y0020318D01*
X0204364Y0020402D01*
X0204500Y0020481D01*
X0204639Y0020558D01*
X0204780Y0020630D01*
X0204922Y0020700D01*
X0205066Y0020765D01*
X0205212Y0020827D01*
X0205359Y0020885D01*
X0205508Y0020940D01*
X0205658Y0020991D01*
X0205809Y0021038D01*
X0205961Y0021081D01*
X0206114Y0021120D01*
X0206269Y0021156D01*
X0206424Y0021187D01*
X0206580Y0021215D01*
X0206736Y0021239D01*
X0206893Y0021259D01*
X0207051Y0021275D01*
X0207208Y0021287D01*
X0207367Y0021295D01*
X0207525Y0021299D01*
X0207683Y0021299D01*
X0207841Y0021295D01*
X0208000Y0021287D01*
X0208157Y0021275D01*
X0208315Y0021259D01*
X0208472Y0021239D01*
X0208628Y0021215D01*
X0208784Y0021187D01*
X0208939Y0021156D01*
X0209094Y0021120D01*
X0209247Y0021081D01*
X0209399Y0021038D01*
X0209550Y0020991D01*
X0209700Y0020940D01*
X0209849Y0020885D01*
X0209996Y0020827D01*
X0210142Y0020765D01*
X0210286Y0020700D01*
X0210428Y0020630D01*
X0210569Y0020558D01*
X0210708Y0020481D01*
X0210844Y0020402D01*
X0210979Y0020318D01*
X0211112Y0020232D01*
X0211242Y0020142D01*
X0211370Y0020049D01*
X0211496Y0019953D01*
X0211619Y0019853D01*
X0211740Y0019751D01*
X0211858Y0019646D01*
X0211973Y0019537D01*
X0212086Y0019426D01*
X0212196Y0019312D01*
X0212303Y0019195D01*
X0212407Y0019076D01*
X0212508Y0018954D01*
X0212605Y0018829D01*
X0212700Y0018702D01*
X0212791Y0018573D01*
X0212880Y0018442D01*
X0212964Y0018308D01*
X0213046Y0018172D01*
X0213124Y0018035D01*
X0213198Y0017895D01*
X0213269Y0017753D01*
X0213337Y0017610D01*
X0213401Y0017465D01*
X0213461Y0017319D01*
X0213517Y0017171D01*
X0213570Y0017022D01*
X0213619Y0016871D01*
X0213664Y0016719D01*
X0213705Y0016566D01*
X0213743Y0016413D01*
X0213776Y0016258D01*
X0213806Y0016102D01*
X0213832Y0015946D01*
X0213853Y0015789D01*
X0213871Y0015632D01*
X0213885Y0015474D01*
X0213895Y0015316D01*
X0213901Y0015158D01*
X0213903Y0015000D01*
X0213901Y0014842D01*
X0213895Y0014684D01*
X0213885Y0014526D01*
X0213871Y0014368D01*
X0213853Y0014211D01*
X0213832Y0014054D01*
X0213806Y0013898D01*
X0213776Y0013742D01*
X0213743Y0013587D01*
X0213705Y0013434D01*
X0213664Y0013281D01*
X0213619Y0013129D01*
X0213570Y0012978D01*
X0213517Y0012829D01*
X0213461Y0012681D01*
X0213401Y0012535D01*
X0213337Y0012390D01*
X0213269Y0012247D01*
X0213198Y0012105D01*
X0213124Y0011965D01*
X0213046Y0011828D01*
X0212964Y0011692D01*
X0212880Y0011558D01*
X0212791Y0011427D01*
X0212700Y0011298D01*
X0212605Y0011171D01*
X0212508Y0011046D01*
X0212407Y0010924D01*
X0212303Y0010805D01*
X0212196Y0010688D01*
X0212086Y0010574D01*
X0211973Y0010463D01*
X0211858Y0010354D01*
X0211740Y0010249D01*
X0211619Y0010147D01*
X0211496Y0010047D01*
X0211370Y0009951D01*
X0211242Y0009858D01*
X0211112Y0009768D01*
X0210979Y0009682D01*
X0210844Y0009598D01*
X0210708Y0009519D01*
X0210569Y0009442D01*
X0210428Y0009370D01*
X0210286Y0009300D01*
X0210142Y0009235D01*
X0209996Y0009173D01*
X0209849Y0009115D01*
X0209700Y0009060D01*
X0209550Y0009009D01*
X0209399Y0008962D01*
X0209247Y0008919D01*
X0209094Y0008880D01*
X0208939Y0008844D01*
X0208784Y0008813D01*
X0208628Y0008785D01*
X0208472Y0008761D01*
X0208315Y0008741D01*
X0208157Y0008725D01*
X0208000Y0008713D01*
X0207841Y0008705D01*
X0207683Y0008701D01*
X0207525Y0008701D01*
X0207367Y0008705D01*
X0207208Y0008713D01*
X0207051Y0008725D01*
X0206893Y0008741D01*
X0206736Y0008761D01*
X0206580Y0008785D01*
X0206424Y0008813D01*
X0206269Y0008844D01*
X0206114Y0008880D01*
X0205961Y0008919D01*
X0205809Y0008962D01*
X0205658Y0009009D01*
X0205508Y0009060D01*
X0205359Y0009115D01*
X0205212Y0009173D01*
X0205066Y0009235D01*
X0204922Y0009300D01*
X0204780Y0009370D01*
X0204639Y0009442D01*
X0204500Y0009519D01*
X0204364Y0009598D01*
X0204229Y0009682D01*
X0204096Y0009768D01*
X0203966Y0009858D01*
X0203838Y0009951D01*
X0203712Y0010047D01*
X0203589Y0010147D01*
X0203468Y0010249D01*
X0203350Y0010354D01*
X0203235Y0010463D01*
X0203122Y0010574D01*
X0203012Y0010688D01*
X0202905Y0010805D01*
X0202801Y0010924D01*
X0202700Y0011046D01*
X0202603Y0011171D01*
X0202508Y0011298D01*
X0202417Y0011427D01*
X0202328Y0011558D01*
X0202244Y0011692D01*
X0202162Y0011828D01*
X0202084Y0011965D01*
X0202010Y0012105D01*
X0201939Y0012247D01*
X0201871Y0012390D01*
X0201807Y0012535D01*
X0201747Y0012681D01*
X0201691Y0012829D01*
X0201638Y0012978D01*
X0201589Y0013129D01*
X0201544Y0013281D01*
X0201503Y0013434D01*
X0201465Y0013587D01*
X0201432Y0013742D01*
X0201402Y0013898D01*
X0201376Y0014054D01*
X0201355Y0014211D01*
X0201337Y0014368D01*
X0201323Y0014526D01*
X0201313Y0014684D01*
X0201307Y0014842D01*
X0201305Y0015000D01*
X0031305Y0185000D02*
X0031307Y0185158D01*
X0031313Y0185316D01*
X0031323Y0185474D01*
X0031337Y0185632D01*
X0031355Y0185789D01*
X0031376Y0185946D01*
X0031402Y0186102D01*
X0031432Y0186258D01*
X0031465Y0186413D01*
X0031503Y0186566D01*
X0031544Y0186719D01*
X0031589Y0186871D01*
X0031638Y0187022D01*
X0031691Y0187171D01*
X0031747Y0187319D01*
X0031807Y0187465D01*
X0031871Y0187610D01*
X0031939Y0187753D01*
X0032010Y0187895D01*
X0032084Y0188035D01*
X0032162Y0188172D01*
X0032244Y0188308D01*
X0032328Y0188442D01*
X0032417Y0188573D01*
X0032508Y0188702D01*
X0032603Y0188829D01*
X0032700Y0188954D01*
X0032801Y0189076D01*
X0032905Y0189195D01*
X0033012Y0189312D01*
X0033122Y0189426D01*
X0033235Y0189537D01*
X0033350Y0189646D01*
X0033468Y0189751D01*
X0033589Y0189853D01*
X0033712Y0189953D01*
X0033838Y0190049D01*
X0033966Y0190142D01*
X0034096Y0190232D01*
X0034229Y0190318D01*
X0034364Y0190402D01*
X0034500Y0190481D01*
X0034639Y0190558D01*
X0034780Y0190630D01*
X0034922Y0190700D01*
X0035066Y0190765D01*
X0035212Y0190827D01*
X0035359Y0190885D01*
X0035508Y0190940D01*
X0035658Y0190991D01*
X0035809Y0191038D01*
X0035961Y0191081D01*
X0036114Y0191120D01*
X0036269Y0191156D01*
X0036424Y0191187D01*
X0036580Y0191215D01*
X0036736Y0191239D01*
X0036893Y0191259D01*
X0037051Y0191275D01*
X0037208Y0191287D01*
X0037367Y0191295D01*
X0037525Y0191299D01*
X0037683Y0191299D01*
X0037841Y0191295D01*
X0038000Y0191287D01*
X0038157Y0191275D01*
X0038315Y0191259D01*
X0038472Y0191239D01*
X0038628Y0191215D01*
X0038784Y0191187D01*
X0038939Y0191156D01*
X0039094Y0191120D01*
X0039247Y0191081D01*
X0039399Y0191038D01*
X0039550Y0190991D01*
X0039700Y0190940D01*
X0039849Y0190885D01*
X0039996Y0190827D01*
X0040142Y0190765D01*
X0040286Y0190700D01*
X0040428Y0190630D01*
X0040569Y0190558D01*
X0040708Y0190481D01*
X0040844Y0190402D01*
X0040979Y0190318D01*
X0041112Y0190232D01*
X0041242Y0190142D01*
X0041370Y0190049D01*
X0041496Y0189953D01*
X0041619Y0189853D01*
X0041740Y0189751D01*
X0041858Y0189646D01*
X0041973Y0189537D01*
X0042086Y0189426D01*
X0042196Y0189312D01*
X0042303Y0189195D01*
X0042407Y0189076D01*
X0042508Y0188954D01*
X0042605Y0188829D01*
X0042700Y0188702D01*
X0042791Y0188573D01*
X0042880Y0188442D01*
X0042964Y0188308D01*
X0043046Y0188172D01*
X0043124Y0188035D01*
X0043198Y0187895D01*
X0043269Y0187753D01*
X0043337Y0187610D01*
X0043401Y0187465D01*
X0043461Y0187319D01*
X0043517Y0187171D01*
X0043570Y0187022D01*
X0043619Y0186871D01*
X0043664Y0186719D01*
X0043705Y0186566D01*
X0043743Y0186413D01*
X0043776Y0186258D01*
X0043806Y0186102D01*
X0043832Y0185946D01*
X0043853Y0185789D01*
X0043871Y0185632D01*
X0043885Y0185474D01*
X0043895Y0185316D01*
X0043901Y0185158D01*
X0043903Y0185000D01*
X0043901Y0184842D01*
X0043895Y0184684D01*
X0043885Y0184526D01*
X0043871Y0184368D01*
X0043853Y0184211D01*
X0043832Y0184054D01*
X0043806Y0183898D01*
X0043776Y0183742D01*
X0043743Y0183587D01*
X0043705Y0183434D01*
X0043664Y0183281D01*
X0043619Y0183129D01*
X0043570Y0182978D01*
X0043517Y0182829D01*
X0043461Y0182681D01*
X0043401Y0182535D01*
X0043337Y0182390D01*
X0043269Y0182247D01*
X0043198Y0182105D01*
X0043124Y0181965D01*
X0043046Y0181828D01*
X0042964Y0181692D01*
X0042880Y0181558D01*
X0042791Y0181427D01*
X0042700Y0181298D01*
X0042605Y0181171D01*
X0042508Y0181046D01*
X0042407Y0180924D01*
X0042303Y0180805D01*
X0042196Y0180688D01*
X0042086Y0180574D01*
X0041973Y0180463D01*
X0041858Y0180354D01*
X0041740Y0180249D01*
X0041619Y0180147D01*
X0041496Y0180047D01*
X0041370Y0179951D01*
X0041242Y0179858D01*
X0041112Y0179768D01*
X0040979Y0179682D01*
X0040844Y0179598D01*
X0040708Y0179519D01*
X0040569Y0179442D01*
X0040428Y0179370D01*
X0040286Y0179300D01*
X0040142Y0179235D01*
X0039996Y0179173D01*
X0039849Y0179115D01*
X0039700Y0179060D01*
X0039550Y0179009D01*
X0039399Y0178962D01*
X0039247Y0178919D01*
X0039094Y0178880D01*
X0038939Y0178844D01*
X0038784Y0178813D01*
X0038628Y0178785D01*
X0038472Y0178761D01*
X0038315Y0178741D01*
X0038157Y0178725D01*
X0038000Y0178713D01*
X0037841Y0178705D01*
X0037683Y0178701D01*
X0037525Y0178701D01*
X0037367Y0178705D01*
X0037208Y0178713D01*
X0037051Y0178725D01*
X0036893Y0178741D01*
X0036736Y0178761D01*
X0036580Y0178785D01*
X0036424Y0178813D01*
X0036269Y0178844D01*
X0036114Y0178880D01*
X0035961Y0178919D01*
X0035809Y0178962D01*
X0035658Y0179009D01*
X0035508Y0179060D01*
X0035359Y0179115D01*
X0035212Y0179173D01*
X0035066Y0179235D01*
X0034922Y0179300D01*
X0034780Y0179370D01*
X0034639Y0179442D01*
X0034500Y0179519D01*
X0034364Y0179598D01*
X0034229Y0179682D01*
X0034096Y0179768D01*
X0033966Y0179858D01*
X0033838Y0179951D01*
X0033712Y0180047D01*
X0033589Y0180147D01*
X0033468Y0180249D01*
X0033350Y0180354D01*
X0033235Y0180463D01*
X0033122Y0180574D01*
X0033012Y0180688D01*
X0032905Y0180805D01*
X0032801Y0180924D01*
X0032700Y0181046D01*
X0032603Y0181171D01*
X0032508Y0181298D01*
X0032417Y0181427D01*
X0032328Y0181558D01*
X0032244Y0181692D01*
X0032162Y0181828D01*
X0032084Y0181965D01*
X0032010Y0182105D01*
X0031939Y0182247D01*
X0031871Y0182390D01*
X0031807Y0182535D01*
X0031747Y0182681D01*
X0031691Y0182829D01*
X0031638Y0182978D01*
X0031589Y0183129D01*
X0031544Y0183281D01*
X0031503Y0183434D01*
X0031465Y0183587D01*
X0031432Y0183742D01*
X0031402Y0183898D01*
X0031376Y0184054D01*
X0031355Y0184211D01*
X0031337Y0184368D01*
X0031323Y0184526D01*
X0031313Y0184684D01*
X0031307Y0184842D01*
X0031305Y0185000D01*
M02*
