G75*
%MOIN*%
%OFA0B0*%
%FSLAX25Y25*%
%IPPOS*%
%LPD*%
%AMOC8*
5,1,8,0,0,1.08239X$1,22.5*
%
%ADD10C,0.00300*%
%ADD11C,0.00600*%
%ADD12C,0.00800*%
%ADD13C,0.00500*%
%ADD14C,0.01600*%
%ADD15R,0.01870X0.00070*%
%ADD16R,0.01870X0.00069*%
%ADD17R,0.00410X0.00069*%
%ADD18R,0.00420X0.00069*%
%ADD19R,0.00410X0.00070*%
%ADD20R,0.00420X0.00070*%
%ADD21R,0.01870X0.00070*%
%ADD22R,0.01870X0.00069*%
%ADD23R,0.00900X0.00070*%
%ADD24R,0.00760X0.00070*%
%ADD25R,0.01800X0.00069*%
%ADD26R,0.01600X0.00069*%
%ADD27R,0.02430X0.00069*%
%ADD28R,0.00420X0.00069*%
%ADD29R,0.02010X0.00069*%
%ADD30R,0.02850X0.00070*%
%ADD31R,0.00420X0.00070*%
%ADD32R,0.02430X0.00070*%
%ADD33R,0.03260X0.00069*%
%ADD34R,0.02850X0.00069*%
%ADD35R,0.03540X0.00070*%
%ADD36R,0.03130X0.00070*%
%ADD37R,0.03890X0.00069*%
%ADD38R,0.03400X0.00069*%
%ADD39R,0.04170X0.00070*%
%ADD40R,0.03680X0.00070*%
%ADD41R,0.04440X0.00069*%
%ADD42R,0.05140X0.00069*%
%ADD43R,0.04100X0.00069*%
%ADD44R,0.05210X0.00070*%
%ADD45R,0.04300X0.00070*%
%ADD46R,0.05350X0.00069*%
%ADD47R,0.04510X0.00069*%
%ADD48R,0.05420X0.00070*%
%ADD49R,0.04720X0.00070*%
%ADD50R,0.05490X0.00069*%
%ADD51R,0.04860X0.00069*%
%ADD52R,0.05630X0.00070*%
%ADD53R,0.05000X0.00070*%
%ADD54R,0.05760X0.00069*%
%ADD55R,0.05140X0.00069*%
%ADD56R,0.05900X0.00070*%
%ADD57R,0.05280X0.00070*%
%ADD58R,0.06040X0.00069*%
%ADD59R,0.05910X0.00069*%
%ADD60R,0.06180X0.00070*%
%ADD61R,0.05980X0.00070*%
%ADD62R,0.06320X0.00069*%
%ADD63R,0.06050X0.00069*%
%ADD64R,0.06460X0.00069*%
%ADD65R,0.06110X0.00069*%
%ADD66R,0.06600X0.00070*%
%ADD67R,0.06740X0.00069*%
%ADD68R,0.06250X0.00069*%
%ADD69R,0.06870X0.00070*%
%ADD70R,0.06320X0.00070*%
%ADD71R,0.06940X0.00069*%
%ADD72R,0.06390X0.00069*%
%ADD73R,0.07080X0.00070*%
%ADD74R,0.06390X0.00070*%
%ADD75R,0.07150X0.00069*%
%ADD76R,0.07290X0.00069*%
%ADD77R,0.06530X0.00069*%
%ADD78R,0.07430X0.00070*%
%ADD79R,0.06530X0.00070*%
%ADD80R,0.07500X0.00069*%
%ADD81R,0.06600X0.00069*%
%ADD82R,0.07570X0.00070*%
%ADD83R,0.02920X0.00070*%
%ADD84R,0.04790X0.00069*%
%ADD85R,0.02360X0.00069*%
%ADD86R,0.02220X0.00070*%
%ADD87R,0.04440X0.00070*%
%ADD88R,0.02090X0.00070*%
%ADD89R,0.02150X0.00070*%
%ADD90R,0.04230X0.00069*%
%ADD91R,0.01880X0.00069*%
%ADD92R,0.01940X0.00070*%
%ADD93R,0.04020X0.00070*%
%ADD94R,0.01670X0.00070*%
%ADD95R,0.01880X0.00070*%
%ADD96R,0.01810X0.00069*%
%ADD97R,0.03890X0.00069*%
%ADD98R,0.01530X0.00069*%
%ADD99R,0.01740X0.00070*%
%ADD100R,0.03750X0.00070*%
%ADD101R,0.01390X0.00070*%
%ADD102R,0.01670X0.00070*%
%ADD103R,0.03610X0.00069*%
%ADD104R,0.01250X0.00069*%
%ADD105R,0.01670X0.00069*%
%ADD106R,0.03470X0.00069*%
%ADD107R,0.01110X0.00069*%
%ADD108R,0.01530X0.00070*%
%ADD109R,0.03400X0.00070*%
%ADD110R,0.01050X0.00070*%
%ADD111R,0.01460X0.00070*%
%ADD112R,0.03330X0.00069*%
%ADD113R,0.00910X0.00069*%
%ADD114R,0.01460X0.00069*%
%ADD115R,0.03330X0.00070*%
%ADD116R,0.00840X0.00070*%
%ADD117R,0.01320X0.00070*%
%ADD118R,0.01390X0.00069*%
%ADD119R,0.00700X0.00069*%
%ADD120R,0.01320X0.00069*%
%ADD121R,0.01320X0.00070*%
%ADD122R,0.03260X0.00070*%
%ADD123R,0.00630X0.00070*%
%ADD124R,0.01250X0.00070*%
%ADD125R,0.00560X0.00069*%
%ADD126R,0.03120X0.00070*%
%ADD127R,0.00490X0.00070*%
%ADD128R,0.03120X0.00069*%
%ADD129R,0.01180X0.00069*%
%ADD130R,0.03130X0.00069*%
%ADD131R,0.01180X0.00070*%
%ADD132R,0.01120X0.00069*%
%ADD133R,0.01110X0.00070*%
%ADD134R,0.03060X0.00070*%
%ADD135R,0.03060X0.00069*%
%ADD136R,0.01050X0.00069*%
%ADD137R,0.01120X0.00070*%
%ADD138R,0.00980X0.00070*%
%ADD139R,0.00980X0.00069*%
%ADD140R,0.00970X0.00069*%
%ADD141R,0.03470X0.00070*%
%ADD142R,0.00970X0.00070*%
%ADD143R,0.03470X0.00069*%
%ADD144R,0.00900X0.00069*%
%ADD145R,0.00970X0.00069*%
%ADD146R,0.00910X0.00070*%
%ADD147R,0.00830X0.00070*%
%ADD148R,0.00830X0.00069*%
%ADD149R,0.02990X0.00070*%
%ADD150R,0.02990X0.00069*%
%ADD151R,0.02990X0.00069*%
%ADD152R,0.03050X0.00070*%
%ADD153R,0.03050X0.00069*%
%ADD154R,0.01040X0.00069*%
%ADD155R,0.03190X0.00069*%
%ADD156R,0.03190X0.00070*%
%ADD157R,0.00630X0.00069*%
%ADD158R,0.00700X0.00070*%
%ADD159R,0.03190X0.00070*%
%ADD160R,0.00770X0.00069*%
%ADD161R,0.01390X0.00069*%
%ADD162R,0.01390X0.00070*%
%ADD163R,0.01600X0.00070*%
%ADD164R,0.01190X0.00069*%
%ADD165R,0.03610X0.00070*%
%ADD166R,0.01740X0.00069*%
%ADD167R,0.03750X0.00069*%
%ADD168R,0.03880X0.00069*%
%ADD169R,0.01740X0.00070*%
%ADD170R,0.04020X0.00070*%
%ADD171R,0.01950X0.00069*%
%ADD172R,0.02220X0.00070*%
%ADD173R,0.02230X0.00070*%
%ADD174R,0.04440X0.00070*%
%ADD175R,0.02500X0.00069*%
%ADD176R,0.03200X0.00070*%
%ADD177R,0.07980X0.00070*%
%ADD178R,0.06670X0.00069*%
%ADD179R,0.07360X0.00070*%
%ADD180R,0.07220X0.00069*%
%ADD181R,0.06460X0.00070*%
%ADD182R,0.06390X0.00069*%
%ADD183R,0.06940X0.00069*%
%ADD184R,0.06320X0.00070*%
%ADD185R,0.06800X0.00070*%
%ADD186R,0.06660X0.00069*%
%ADD187R,0.06250X0.00070*%
%ADD188R,0.06190X0.00069*%
%ADD189R,0.06120X0.00069*%
%ADD190R,0.06320X0.00069*%
%ADD191R,0.06050X0.00070*%
%ADD192R,0.05490X0.00069*%
%ADD193R,0.06040X0.00069*%
%ADD194R,0.05350X0.00070*%
%ADD195R,0.05770X0.00069*%
%ADD196R,0.05420X0.00069*%
%ADD197R,0.04650X0.00070*%
%ADD198R,0.04440X0.00069*%
%ADD199R,0.05280X0.00069*%
%ADD200R,0.05140X0.00070*%
%ADD201R,0.04030X0.00069*%
%ADD202R,0.05070X0.00069*%
%ADD203R,0.03820X0.00069*%
%ADD204R,0.04370X0.00069*%
%ADD205R,0.04100X0.00070*%
%ADD206R,0.03340X0.00069*%
%ADD207R,0.03540X0.00070*%
%ADD208R,0.02710X0.00069*%
%ADD209R,0.02780X0.00070*%
%ADD210R,0.02290X0.00069*%
%ADD211R,0.01660X0.00070*%
%ADD212C,0.00200*%
%ADD213C,0.00591*%
%ADD214R,0.02500X0.02500*%
D10*
X0039629Y0049525D02*
X0041564Y0049525D01*
X0040596Y0049525D02*
X0040596Y0052427D01*
X0039629Y0051460D01*
X0042575Y0051944D02*
X0043059Y0052427D01*
X0044026Y0052427D01*
X0044510Y0051944D01*
X0044510Y0051460D01*
X0042575Y0049525D01*
X0044510Y0049525D01*
X0045522Y0050492D02*
X0046489Y0049525D01*
X0047457Y0050492D01*
X0047457Y0052427D01*
X0045522Y0052427D02*
X0045522Y0050492D01*
X0046489Y0059525D02*
X0047457Y0060492D01*
X0047457Y0062427D01*
X0045522Y0062427D02*
X0045522Y0060492D01*
X0046489Y0059525D01*
X0044510Y0059525D02*
X0042575Y0059525D01*
X0044510Y0061460D01*
X0044510Y0061944D01*
X0044026Y0062427D01*
X0043059Y0062427D01*
X0042575Y0061944D01*
X0040596Y0062427D02*
X0040596Y0059525D01*
X0039629Y0059525D02*
X0041564Y0059525D01*
X0039629Y0061460D02*
X0040596Y0062427D01*
X0040112Y0069525D02*
X0041080Y0069525D01*
X0041564Y0070009D01*
X0041564Y0070976D01*
X0040596Y0070976D01*
X0039629Y0070009D02*
X0040112Y0069525D01*
X0039629Y0070009D02*
X0039629Y0071944D01*
X0040112Y0072427D01*
X0041080Y0072427D01*
X0041564Y0071944D01*
X0042575Y0072427D02*
X0044510Y0069525D01*
X0044510Y0072427D01*
X0045522Y0072427D02*
X0045522Y0069525D01*
X0046973Y0069525D01*
X0047457Y0070009D01*
X0047457Y0071944D01*
X0046973Y0072427D01*
X0045522Y0072427D01*
X0042575Y0072427D02*
X0042575Y0069525D01*
X0043059Y0079525D02*
X0042575Y0080009D01*
X0043059Y0079525D02*
X0044026Y0079525D01*
X0044510Y0080009D01*
X0044510Y0080492D01*
X0044026Y0080976D01*
X0043059Y0080976D01*
X0042575Y0081460D01*
X0042575Y0081944D01*
X0043059Y0082427D01*
X0044026Y0082427D01*
X0044510Y0081944D01*
X0045522Y0081944D02*
X0046005Y0082427D01*
X0046973Y0082427D01*
X0047457Y0081944D01*
X0047457Y0081460D01*
X0046973Y0080976D01*
X0047457Y0080492D01*
X0047457Y0080009D01*
X0046973Y0079525D01*
X0046005Y0079525D01*
X0045522Y0080009D01*
X0046489Y0080976D02*
X0046973Y0080976D01*
X0048468Y0079041D02*
X0050403Y0079041D01*
X0051415Y0079525D02*
X0053350Y0081460D01*
X0053350Y0081944D01*
X0052866Y0082427D01*
X0051898Y0082427D01*
X0051415Y0081944D01*
X0051415Y0079525D02*
X0053350Y0079525D01*
X0050403Y0089041D02*
X0048468Y0089041D01*
X0047457Y0089525D02*
X0045522Y0089525D01*
X0047457Y0091460D01*
X0047457Y0091944D01*
X0046973Y0092427D01*
X0046005Y0092427D01*
X0045522Y0091944D01*
X0044510Y0091944D02*
X0044026Y0092427D01*
X0043059Y0092427D01*
X0042575Y0091944D01*
X0042575Y0091460D01*
X0043059Y0090976D01*
X0044026Y0090976D01*
X0044510Y0090492D01*
X0044510Y0090009D01*
X0044026Y0089525D01*
X0043059Y0089525D01*
X0042575Y0090009D01*
X0041564Y0089525D02*
X0041564Y0092427D01*
X0040596Y0091460D01*
X0039629Y0092427D01*
X0039629Y0089525D01*
X0039629Y0082427D02*
X0040596Y0081460D01*
X0041564Y0082427D01*
X0041564Y0079525D01*
X0039629Y0079525D02*
X0039629Y0082427D01*
X0051415Y0089525D02*
X0053350Y0091460D01*
X0053350Y0091944D01*
X0052866Y0092427D01*
X0051898Y0092427D01*
X0051415Y0091944D01*
X0051415Y0089525D02*
X0053350Y0089525D01*
X0050403Y0101541D02*
X0048468Y0101541D01*
X0047457Y0102025D02*
X0045522Y0102025D01*
X0046489Y0102025D02*
X0046489Y0104927D01*
X0045522Y0103960D01*
X0044510Y0104444D02*
X0044026Y0104927D01*
X0043059Y0104927D01*
X0042575Y0104444D01*
X0042575Y0103960D01*
X0043059Y0103476D01*
X0044026Y0103476D01*
X0044510Y0102992D01*
X0044510Y0102509D01*
X0044026Y0102025D01*
X0043059Y0102025D01*
X0042575Y0102509D01*
X0041564Y0102025D02*
X0041564Y0104927D01*
X0040596Y0103960D01*
X0039629Y0104927D01*
X0039629Y0102025D01*
X0039629Y0109525D02*
X0041080Y0109525D01*
X0041564Y0110009D01*
X0041564Y0111944D01*
X0041080Y0112427D01*
X0039629Y0112427D01*
X0039629Y0109525D01*
X0042575Y0109525D02*
X0043543Y0109525D01*
X0043059Y0109525D02*
X0043059Y0112427D01*
X0042575Y0112427D02*
X0043543Y0112427D01*
X0044539Y0112427D02*
X0045991Y0112427D01*
X0046474Y0111944D01*
X0046474Y0110976D01*
X0045991Y0110492D01*
X0044539Y0110492D01*
X0044539Y0109525D02*
X0044539Y0112427D01*
X0045507Y0110492D02*
X0046474Y0109525D01*
X0047486Y0109041D02*
X0049421Y0109041D01*
X0050432Y0109525D02*
X0052367Y0111460D01*
X0052367Y0111944D01*
X0051884Y0112427D01*
X0050916Y0112427D01*
X0050432Y0111944D01*
X0050432Y0109525D02*
X0052367Y0109525D01*
X0051898Y0104927D02*
X0051415Y0104444D01*
X0051898Y0104927D02*
X0052866Y0104927D01*
X0053350Y0104444D01*
X0053350Y0103960D01*
X0051415Y0102025D01*
X0053350Y0102025D01*
X0063004Y0111509D02*
X0063487Y0111025D01*
X0064455Y0111025D01*
X0064939Y0111509D01*
X0065950Y0111509D02*
X0066434Y0111025D01*
X0067401Y0111025D01*
X0067885Y0111509D01*
X0067885Y0112476D01*
X0067401Y0112960D01*
X0066918Y0112960D01*
X0065950Y0112476D01*
X0065950Y0113927D01*
X0067885Y0113927D01*
X0064939Y0113444D02*
X0064455Y0113927D01*
X0063487Y0113927D01*
X0063004Y0113444D01*
X0063004Y0111509D01*
X0053350Y0116400D02*
X0051415Y0116400D01*
X0053350Y0118335D01*
X0053350Y0118819D01*
X0052866Y0119302D01*
X0051898Y0119302D01*
X0051415Y0118819D01*
X0050403Y0115916D02*
X0048468Y0115916D01*
X0047457Y0116400D02*
X0047457Y0119302D01*
X0045522Y0119302D02*
X0047457Y0116400D01*
X0045522Y0116400D02*
X0045522Y0119302D01*
X0044510Y0119302D02*
X0042575Y0119302D01*
X0042575Y0116400D01*
X0044510Y0116400D01*
X0043543Y0117851D02*
X0042575Y0117851D01*
X0041564Y0117851D02*
X0039629Y0117851D01*
X0039629Y0118335D02*
X0040596Y0119302D01*
X0041564Y0118335D01*
X0041564Y0116400D01*
X0039629Y0116400D02*
X0039629Y0118335D01*
X0045501Y0122616D02*
X0045501Y0123583D01*
X0045985Y0124067D01*
X0045985Y0125078D02*
X0045501Y0125562D01*
X0045501Y0126530D01*
X0045985Y0127013D01*
X0046469Y0127013D01*
X0046952Y0126530D01*
X0047436Y0127013D01*
X0047920Y0127013D01*
X0048404Y0126530D01*
X0048404Y0125562D01*
X0047920Y0125078D01*
X0047920Y0124067D02*
X0048404Y0123583D01*
X0048404Y0122616D01*
X0047920Y0122132D01*
X0045985Y0122132D01*
X0045501Y0122616D01*
X0046952Y0126046D02*
X0046952Y0126530D01*
X0048468Y0130916D02*
X0050403Y0130916D01*
X0051415Y0131400D02*
X0053350Y0131400D01*
X0052382Y0131400D02*
X0052382Y0134302D01*
X0051415Y0133335D01*
X0047457Y0133335D02*
X0046973Y0132851D01*
X0047457Y0132367D01*
X0047457Y0131884D01*
X0046973Y0131400D01*
X0046005Y0131400D01*
X0045522Y0131884D01*
X0044510Y0131884D02*
X0044026Y0131400D01*
X0043059Y0131400D01*
X0042575Y0131884D01*
X0043059Y0132851D02*
X0042575Y0133335D01*
X0042575Y0133819D01*
X0043059Y0134302D01*
X0044026Y0134302D01*
X0044510Y0133819D01*
X0045522Y0133819D02*
X0046005Y0134302D01*
X0046973Y0134302D01*
X0047457Y0133819D01*
X0047457Y0133335D01*
X0046973Y0132851D02*
X0046489Y0132851D01*
X0044510Y0132367D02*
X0044510Y0131884D01*
X0044510Y0132367D02*
X0044026Y0132851D01*
X0043059Y0132851D01*
X0041564Y0134302D02*
X0041564Y0131400D01*
X0039629Y0131400D02*
X0039629Y0134302D01*
X0040596Y0133335D01*
X0041564Y0134302D01*
X0041564Y0139525D02*
X0041564Y0142427D01*
X0040596Y0141460D01*
X0039629Y0142427D01*
X0039629Y0139525D01*
X0042575Y0140009D02*
X0043059Y0139525D01*
X0044026Y0139525D01*
X0044510Y0140009D01*
X0044510Y0140492D01*
X0044026Y0140976D01*
X0043059Y0140976D01*
X0042575Y0141460D01*
X0042575Y0141944D01*
X0043059Y0142427D01*
X0044026Y0142427D01*
X0044510Y0141944D01*
X0045522Y0141944D02*
X0046005Y0142427D01*
X0046973Y0142427D01*
X0047457Y0141944D01*
X0047457Y0141460D01*
X0045522Y0139525D01*
X0047457Y0139525D01*
X0048468Y0139041D02*
X0050403Y0139041D01*
X0051415Y0139525D02*
X0053350Y0139525D01*
X0052382Y0139525D02*
X0052382Y0142427D01*
X0051415Y0141460D01*
X0050403Y0149041D02*
X0048468Y0149041D01*
X0047457Y0149525D02*
X0045522Y0149525D01*
X0046489Y0149525D02*
X0046489Y0152427D01*
X0045522Y0151460D01*
X0044510Y0151944D02*
X0044026Y0152427D01*
X0043059Y0152427D01*
X0042575Y0151944D01*
X0042575Y0151460D01*
X0043059Y0150976D01*
X0044026Y0150976D01*
X0044510Y0150492D01*
X0044510Y0150009D01*
X0044026Y0149525D01*
X0043059Y0149525D01*
X0042575Y0150009D01*
X0041564Y0149525D02*
X0041564Y0152427D01*
X0040596Y0151460D01*
X0039629Y0152427D01*
X0039629Y0149525D01*
X0047486Y0159041D02*
X0049421Y0159041D01*
X0050432Y0159525D02*
X0052367Y0159525D01*
X0051400Y0159525D02*
X0051400Y0162427D01*
X0050432Y0161460D01*
X0046474Y0161944D02*
X0046474Y0160976D01*
X0045991Y0160492D01*
X0044539Y0160492D01*
X0044539Y0159525D02*
X0044539Y0162427D01*
X0045991Y0162427D01*
X0046474Y0161944D01*
X0045507Y0160492D02*
X0046474Y0159525D01*
X0043543Y0159525D02*
X0042575Y0159525D01*
X0043059Y0159525D02*
X0043059Y0162427D01*
X0042575Y0162427D02*
X0043543Y0162427D01*
X0041564Y0161944D02*
X0041564Y0160009D01*
X0041080Y0159525D01*
X0039629Y0159525D01*
X0039629Y0162427D01*
X0041080Y0162427D01*
X0041564Y0161944D01*
X0051415Y0151460D02*
X0052382Y0152427D01*
X0052382Y0149525D01*
X0051415Y0149525D02*
X0053350Y0149525D01*
X0059111Y0150369D02*
X0059111Y0148434D01*
X0059594Y0147950D01*
X0060562Y0147950D01*
X0061045Y0148434D01*
X0062057Y0147950D02*
X0063992Y0147950D01*
X0063025Y0147950D02*
X0063025Y0150852D01*
X0062057Y0149885D01*
X0061045Y0150369D02*
X0060562Y0150852D01*
X0059594Y0150852D01*
X0059111Y0150369D01*
X0059795Y0160325D02*
X0058828Y0161292D01*
X0059312Y0161292D02*
X0057861Y0161292D01*
X0057861Y0160325D02*
X0057861Y0163227D01*
X0059312Y0163227D01*
X0059795Y0162744D01*
X0059795Y0161776D01*
X0059312Y0161292D01*
X0060807Y0160325D02*
X0062742Y0160325D01*
X0061775Y0160325D02*
X0061775Y0163227D01*
X0060807Y0162260D01*
X0084166Y0141315D02*
X0085133Y0141315D01*
X0084650Y0141315D02*
X0084650Y0138413D01*
X0085133Y0138413D02*
X0084166Y0138413D01*
X0086130Y0138897D02*
X0086130Y0140832D01*
X0086614Y0141315D01*
X0087582Y0141315D01*
X0088065Y0140832D01*
X0089077Y0140348D02*
X0090044Y0141315D01*
X0090044Y0138413D01*
X0089077Y0138413D02*
X0091012Y0138413D01*
X0088065Y0138897D02*
X0087582Y0138413D01*
X0086614Y0138413D01*
X0086130Y0138897D01*
X0090219Y0147950D02*
X0091187Y0147950D01*
X0091670Y0148434D01*
X0092682Y0147950D02*
X0094617Y0149885D01*
X0094617Y0150369D01*
X0094133Y0150852D01*
X0093166Y0150852D01*
X0092682Y0150369D01*
X0091670Y0150369D02*
X0091187Y0150852D01*
X0090219Y0150852D01*
X0089736Y0150369D01*
X0089736Y0148434D01*
X0090219Y0147950D01*
X0092682Y0147950D02*
X0094617Y0147950D01*
X0091010Y0159275D02*
X0089075Y0159275D01*
X0091010Y0161210D01*
X0091010Y0161694D01*
X0090526Y0162177D01*
X0089559Y0162177D01*
X0089075Y0161694D01*
X0088064Y0161694D02*
X0088064Y0160726D01*
X0087580Y0160242D01*
X0086129Y0160242D01*
X0086129Y0159275D02*
X0086129Y0162177D01*
X0087580Y0162177D01*
X0088064Y0161694D01*
X0087096Y0160242D02*
X0088064Y0159275D01*
X0088349Y0186575D02*
X0087381Y0187542D01*
X0087865Y0187542D02*
X0086414Y0187542D01*
X0086414Y0186575D02*
X0086414Y0189477D01*
X0087865Y0189477D01*
X0088349Y0188994D01*
X0088349Y0188026D01*
X0087865Y0187542D01*
X0089361Y0186575D02*
X0091295Y0186575D01*
X0090328Y0186575D02*
X0090328Y0189477D01*
X0089361Y0188510D01*
X0092307Y0188026D02*
X0092307Y0187059D01*
X0092791Y0186575D01*
X0093758Y0186575D01*
X0094242Y0187059D01*
X0094242Y0187542D01*
X0093758Y0188026D01*
X0092307Y0188026D01*
X0093275Y0188994D01*
X0094242Y0189477D01*
X0101504Y0189802D02*
X0101504Y0186900D01*
X0101504Y0187867D02*
X0102955Y0187867D01*
X0103439Y0188351D01*
X0103439Y0189319D01*
X0102955Y0189802D01*
X0101504Y0189802D01*
X0102471Y0187867D02*
X0103439Y0186900D01*
X0104450Y0186900D02*
X0106385Y0186900D01*
X0105418Y0186900D02*
X0105418Y0189802D01*
X0104450Y0188835D01*
X0107397Y0189802D02*
X0109332Y0189802D01*
X0109332Y0189319D01*
X0107397Y0187384D01*
X0107397Y0186900D01*
X0117254Y0185650D02*
X0119189Y0185650D01*
X0120200Y0185650D02*
X0122135Y0185650D01*
X0123147Y0185650D02*
X0124598Y0185650D01*
X0125082Y0186134D01*
X0125082Y0188069D01*
X0124598Y0188552D01*
X0123147Y0188552D01*
X0123147Y0185650D01*
X0121168Y0187101D02*
X0120200Y0187101D01*
X0120200Y0188552D02*
X0120200Y0185650D01*
X0120200Y0188552D02*
X0122135Y0188552D01*
X0126093Y0188069D02*
X0126577Y0188552D01*
X0127544Y0188552D01*
X0128028Y0188069D01*
X0128028Y0187585D01*
X0126093Y0185650D01*
X0128028Y0185650D01*
X0130254Y0194101D02*
X0132189Y0194101D01*
X0117254Y0188552D02*
X0117254Y0185650D01*
X0133410Y0161978D02*
X0133894Y0161978D01*
X0134377Y0161494D01*
X0134861Y0161978D01*
X0135345Y0161978D01*
X0135829Y0161494D01*
X0135829Y0160527D01*
X0135345Y0160043D01*
X0135829Y0159031D02*
X0135829Y0157097D01*
X0135829Y0158064D02*
X0132926Y0158064D01*
X0133894Y0157097D01*
X0134377Y0156085D02*
X0134861Y0155601D01*
X0134861Y0154150D01*
X0134861Y0155117D02*
X0135829Y0156085D01*
X0134377Y0156085D02*
X0133410Y0156085D01*
X0132926Y0155601D01*
X0132926Y0154150D01*
X0135829Y0154150D01*
X0133410Y0160043D02*
X0132926Y0160527D01*
X0132926Y0161494D01*
X0133410Y0161978D01*
X0134377Y0161494D02*
X0134377Y0161011D01*
X0124900Y0148977D02*
X0124900Y0146075D01*
X0125867Y0146075D02*
X0123932Y0146075D01*
X0122920Y0146075D02*
X0120986Y0146075D01*
X0121953Y0146075D02*
X0121953Y0148977D01*
X0120986Y0148010D01*
X0119974Y0148494D02*
X0119490Y0148977D01*
X0118523Y0148977D01*
X0118039Y0148494D01*
X0118039Y0146559D01*
X0118523Y0146075D01*
X0119490Y0146075D01*
X0119974Y0146559D01*
X0123932Y0148010D02*
X0124900Y0148977D01*
X0127916Y0140690D02*
X0128883Y0140690D01*
X0128400Y0140690D02*
X0128400Y0137788D01*
X0128883Y0137788D02*
X0127916Y0137788D01*
X0129880Y0138272D02*
X0130364Y0137788D01*
X0131332Y0137788D01*
X0131815Y0138272D01*
X0132827Y0138272D02*
X0133311Y0137788D01*
X0134278Y0137788D01*
X0134762Y0138272D01*
X0134762Y0138755D01*
X0134278Y0139239D01*
X0133794Y0139239D01*
X0134278Y0139239D02*
X0134762Y0139723D01*
X0134762Y0140207D01*
X0134278Y0140690D01*
X0133311Y0140690D01*
X0132827Y0140207D01*
X0131815Y0140207D02*
X0131332Y0140690D01*
X0130364Y0140690D01*
X0129880Y0140207D01*
X0129880Y0138272D01*
X0119029Y0132780D02*
X0119029Y0131812D01*
X0118545Y0131328D01*
X0117577Y0131328D02*
X0117094Y0132296D01*
X0117094Y0132780D01*
X0117577Y0133263D01*
X0118545Y0133263D01*
X0119029Y0132780D01*
X0117577Y0131328D02*
X0116126Y0131328D01*
X0116126Y0133263D01*
X0116126Y0129349D02*
X0119029Y0129349D01*
X0119029Y0128382D02*
X0119029Y0130317D01*
X0117094Y0128382D02*
X0116126Y0129349D01*
X0116610Y0127370D02*
X0116126Y0126887D01*
X0116126Y0125919D01*
X0116610Y0125435D01*
X0118545Y0125435D01*
X0119029Y0125919D01*
X0119029Y0126887D01*
X0118545Y0127370D01*
X0106519Y0122723D02*
X0106519Y0120788D01*
X0106519Y0121756D02*
X0103616Y0121756D01*
X0104584Y0120788D01*
X0103616Y0119777D02*
X0106035Y0119777D01*
X0106519Y0119293D01*
X0106519Y0118326D01*
X0106035Y0117842D01*
X0103616Y0117842D01*
X0123039Y0110994D02*
X0123039Y0109059D01*
X0123523Y0108575D01*
X0124490Y0108575D01*
X0124974Y0109059D01*
X0125986Y0108575D02*
X0127920Y0108575D01*
X0126953Y0108575D02*
X0126953Y0111477D01*
X0125986Y0110510D01*
X0124974Y0110994D02*
X0124490Y0111477D01*
X0123523Y0111477D01*
X0123039Y0110994D01*
X0128932Y0110994D02*
X0129416Y0111477D01*
X0130383Y0111477D01*
X0130867Y0110994D01*
X0130867Y0110510D01*
X0130383Y0110026D01*
X0130867Y0109542D01*
X0130867Y0109059D01*
X0130383Y0108575D01*
X0129416Y0108575D01*
X0128932Y0109059D01*
X0129900Y0110026D02*
X0130383Y0110026D01*
X0129760Y0097177D02*
X0129760Y0096694D01*
X0127825Y0094759D01*
X0127825Y0094275D01*
X0126814Y0094275D02*
X0125846Y0095242D01*
X0126330Y0095242D02*
X0124879Y0095242D01*
X0124879Y0094275D02*
X0124879Y0097177D01*
X0126330Y0097177D01*
X0126814Y0096694D01*
X0126814Y0095726D01*
X0126330Y0095242D01*
X0127825Y0097177D02*
X0129760Y0097177D01*
X0131469Y0086477D02*
X0130986Y0085994D01*
X0130986Y0084059D01*
X0131469Y0083575D01*
X0132437Y0083575D01*
X0132920Y0084059D01*
X0133932Y0084059D02*
X0133932Y0083575D01*
X0133932Y0084059D02*
X0135867Y0085994D01*
X0135867Y0086477D01*
X0133932Y0086477D01*
X0132920Y0085994D02*
X0132437Y0086477D01*
X0131469Y0086477D01*
X0112887Y0085832D02*
X0112403Y0086315D01*
X0111436Y0086315D01*
X0110952Y0085832D01*
X0109940Y0085832D02*
X0109457Y0086315D01*
X0108489Y0086315D01*
X0108005Y0085832D01*
X0108005Y0083897D01*
X0108489Y0083413D01*
X0109457Y0083413D01*
X0109940Y0083897D01*
X0110952Y0083413D02*
X0112887Y0085348D01*
X0112887Y0085832D01*
X0112887Y0083413D02*
X0110952Y0083413D01*
X0107008Y0083413D02*
X0106041Y0083413D01*
X0106525Y0083413D02*
X0106525Y0086315D01*
X0107008Y0086315D02*
X0106041Y0086315D01*
X0093545Y0072638D02*
X0094029Y0072155D01*
X0094029Y0071187D01*
X0093545Y0070703D01*
X0091610Y0072638D01*
X0093545Y0072638D01*
X0093545Y0070703D02*
X0091610Y0070703D01*
X0091126Y0071187D01*
X0091126Y0072155D01*
X0091610Y0072638D01*
X0094029Y0069692D02*
X0094029Y0067757D01*
X0094029Y0068724D02*
X0091126Y0068724D01*
X0092094Y0067757D01*
X0091610Y0066745D02*
X0091126Y0066262D01*
X0091126Y0065294D01*
X0091610Y0064810D01*
X0093545Y0064810D01*
X0094029Y0065294D01*
X0094029Y0066262D01*
X0093545Y0066745D01*
X0085383Y0082950D02*
X0084416Y0082950D01*
X0083932Y0083434D01*
X0083932Y0084401D01*
X0085383Y0084401D01*
X0085867Y0083917D01*
X0085867Y0083434D01*
X0085383Y0082950D01*
X0083932Y0084401D02*
X0084900Y0085369D01*
X0085867Y0085852D01*
X0082920Y0085369D02*
X0082437Y0085852D01*
X0081469Y0085852D01*
X0080986Y0085369D01*
X0080986Y0083434D01*
X0081469Y0082950D01*
X0082437Y0082950D01*
X0082920Y0083434D01*
X0083166Y0092825D02*
X0082682Y0093309D01*
X0082682Y0093792D01*
X0083166Y0094276D01*
X0084133Y0094276D01*
X0084617Y0093792D01*
X0084617Y0093309D01*
X0084133Y0092825D01*
X0083166Y0092825D01*
X0083166Y0094276D02*
X0082682Y0094760D01*
X0082682Y0095244D01*
X0083166Y0095727D01*
X0084133Y0095727D01*
X0084617Y0095244D01*
X0084617Y0094760D01*
X0084133Y0094276D01*
X0081670Y0094276D02*
X0081670Y0095244D01*
X0081187Y0095727D01*
X0079736Y0095727D01*
X0079736Y0092825D01*
X0079736Y0093792D02*
X0081187Y0093792D01*
X0081670Y0094276D01*
X0080703Y0093792D02*
X0081670Y0092825D01*
X0082151Y0111275D02*
X0081184Y0111275D01*
X0080700Y0111759D01*
X0080700Y0112726D02*
X0081668Y0113210D01*
X0082151Y0113210D01*
X0082635Y0112726D01*
X0082635Y0111759D01*
X0082151Y0111275D01*
X0080700Y0112726D02*
X0080700Y0114177D01*
X0082635Y0114177D01*
X0079689Y0113694D02*
X0079689Y0112726D01*
X0079205Y0112242D01*
X0077754Y0112242D01*
X0077754Y0111275D02*
X0077754Y0114177D01*
X0079205Y0114177D01*
X0079689Y0113694D01*
X0078721Y0112242D02*
X0079689Y0111275D01*
X0109737Y0051427D02*
X0109254Y0050944D01*
X0109254Y0049009D01*
X0109737Y0048525D01*
X0110705Y0048525D01*
X0111189Y0049009D01*
X0112200Y0049009D02*
X0112200Y0049492D01*
X0112684Y0049976D01*
X0113651Y0049976D01*
X0114135Y0049492D01*
X0114135Y0049009D01*
X0113651Y0048525D01*
X0112684Y0048525D01*
X0112200Y0049009D01*
X0112684Y0049976D02*
X0112200Y0050460D01*
X0112200Y0050944D01*
X0112684Y0051427D01*
X0113651Y0051427D01*
X0114135Y0050944D01*
X0114135Y0050460D01*
X0113651Y0049976D01*
X0111189Y0050944D02*
X0110705Y0051427D01*
X0109737Y0051427D01*
X0124361Y0051227D02*
X0124361Y0048325D01*
X0124361Y0049292D02*
X0125812Y0049292D01*
X0126295Y0049776D01*
X0126295Y0050744D01*
X0125812Y0051227D01*
X0124361Y0051227D01*
X0125328Y0049292D02*
X0126295Y0048325D01*
X0127307Y0048809D02*
X0127791Y0048325D01*
X0128758Y0048325D01*
X0129242Y0048809D01*
X0129242Y0049292D01*
X0128758Y0049776D01*
X0127307Y0049776D01*
X0127307Y0048809D01*
X0127307Y0049776D02*
X0128275Y0050744D01*
X0129242Y0051227D01*
X0150491Y0057842D02*
X0152910Y0057842D01*
X0153394Y0058326D01*
X0153394Y0059293D01*
X0152910Y0059777D01*
X0150491Y0059777D01*
X0150975Y0060788D02*
X0150491Y0061272D01*
X0150491Y0062240D01*
X0150975Y0062723D01*
X0151459Y0062723D01*
X0153394Y0060788D01*
X0153394Y0062723D01*
X0204629Y0062427D02*
X0204629Y0060976D01*
X0205596Y0061460D01*
X0206080Y0061460D01*
X0206564Y0060976D01*
X0206564Y0060009D01*
X0206080Y0059525D01*
X0205112Y0059525D01*
X0204629Y0060009D01*
X0204629Y0062427D02*
X0206564Y0062427D01*
X0207575Y0062427D02*
X0207575Y0060492D01*
X0208543Y0059525D01*
X0209510Y0060492D01*
X0209510Y0062427D01*
X0211005Y0069525D02*
X0210522Y0070009D01*
X0211005Y0069525D02*
X0211973Y0069525D01*
X0212457Y0070009D01*
X0212457Y0070492D01*
X0211973Y0070976D01*
X0211005Y0070976D01*
X0210522Y0071460D01*
X0210522Y0071944D01*
X0211005Y0072427D01*
X0211973Y0072427D01*
X0212457Y0071944D01*
X0213468Y0071460D02*
X0214436Y0071460D01*
X0213952Y0071944D02*
X0213952Y0070009D01*
X0214436Y0069525D01*
X0215432Y0070009D02*
X0215432Y0070976D01*
X0215916Y0071460D01*
X0216884Y0071460D01*
X0217367Y0070976D01*
X0217367Y0070009D01*
X0216884Y0069525D01*
X0215916Y0069525D01*
X0215432Y0070009D01*
X0218379Y0069525D02*
X0219830Y0069525D01*
X0220314Y0070009D01*
X0220314Y0070976D01*
X0219830Y0071460D01*
X0218379Y0071460D01*
X0218379Y0068558D01*
X0209510Y0070976D02*
X0207575Y0070976D01*
X0206564Y0069525D02*
X0204629Y0069525D01*
X0204629Y0072427D01*
X0206564Y0072427D01*
X0205596Y0070976D02*
X0204629Y0070976D01*
X0205112Y0079525D02*
X0204629Y0080009D01*
X0205112Y0079525D02*
X0206080Y0079525D01*
X0206564Y0080009D01*
X0206564Y0080492D01*
X0206080Y0080976D01*
X0205112Y0080976D01*
X0204629Y0081460D01*
X0204629Y0081944D01*
X0205112Y0082427D01*
X0206080Y0082427D01*
X0206564Y0081944D01*
X0207575Y0082427D02*
X0209510Y0082427D01*
X0208543Y0082427D02*
X0208543Y0079525D01*
X0210522Y0079525D02*
X0210522Y0082427D01*
X0211973Y0082427D01*
X0212457Y0081944D01*
X0212457Y0080976D01*
X0211973Y0080492D01*
X0210522Y0080492D01*
X0213468Y0079041D02*
X0215403Y0079041D01*
X0216415Y0080009D02*
X0216898Y0079525D01*
X0217866Y0079525D01*
X0218350Y0080009D01*
X0218350Y0080492D01*
X0217866Y0080976D01*
X0217382Y0080976D01*
X0217866Y0080976D02*
X0218350Y0081460D01*
X0218350Y0081944D01*
X0217866Y0082427D01*
X0216898Y0082427D01*
X0216415Y0081944D01*
X0215403Y0089041D02*
X0213468Y0089041D01*
X0211973Y0090492D02*
X0212457Y0090976D01*
X0212457Y0091944D01*
X0211973Y0092427D01*
X0210522Y0092427D01*
X0210522Y0089525D01*
X0210522Y0090492D02*
X0211973Y0090492D01*
X0209510Y0092427D02*
X0207575Y0092427D01*
X0208543Y0092427D02*
X0208543Y0089525D01*
X0206564Y0090009D02*
X0206080Y0089525D01*
X0205112Y0089525D01*
X0204629Y0090009D01*
X0205112Y0090976D02*
X0206080Y0090976D01*
X0206564Y0090492D01*
X0206564Y0090009D01*
X0205112Y0090976D02*
X0204629Y0091460D01*
X0204629Y0091944D01*
X0205112Y0092427D01*
X0206080Y0092427D01*
X0206564Y0091944D01*
X0206080Y0099525D02*
X0205112Y0099525D01*
X0204629Y0100009D01*
X0205112Y0100976D02*
X0206080Y0100976D01*
X0206564Y0100492D01*
X0206564Y0100009D01*
X0206080Y0099525D01*
X0205112Y0100976D02*
X0204629Y0101460D01*
X0204629Y0101944D01*
X0205112Y0102427D01*
X0206080Y0102427D01*
X0206564Y0101944D01*
X0207575Y0102427D02*
X0209510Y0102427D01*
X0208543Y0102427D02*
X0208543Y0099525D01*
X0210522Y0099525D02*
X0210522Y0102427D01*
X0211973Y0102427D01*
X0212457Y0101944D01*
X0212457Y0100976D01*
X0211973Y0100492D01*
X0210522Y0100492D01*
X0213468Y0099041D02*
X0215403Y0099041D01*
X0216415Y0099525D02*
X0218350Y0099525D01*
X0217382Y0099525D02*
X0217382Y0102427D01*
X0216415Y0101460D01*
X0215403Y0109041D02*
X0213468Y0109041D01*
X0212457Y0110009D02*
X0211973Y0109525D01*
X0211005Y0109525D01*
X0210522Y0110009D01*
X0209510Y0110009D02*
X0209026Y0109525D01*
X0208059Y0109525D01*
X0207575Y0110009D01*
X0208059Y0110976D02*
X0209026Y0110976D01*
X0209510Y0110492D01*
X0209510Y0110009D01*
X0208059Y0110976D02*
X0207575Y0111460D01*
X0207575Y0111944D01*
X0208059Y0112427D01*
X0209026Y0112427D01*
X0209510Y0111944D01*
X0210522Y0111944D02*
X0211005Y0112427D01*
X0211973Y0112427D01*
X0212457Y0111944D01*
X0212457Y0111460D01*
X0211973Y0110976D01*
X0212457Y0110492D01*
X0212457Y0110009D01*
X0211973Y0110976D02*
X0211489Y0110976D01*
X0216415Y0110009D02*
X0216898Y0109525D01*
X0217866Y0109525D01*
X0218350Y0110009D01*
X0218350Y0110492D01*
X0217866Y0110976D01*
X0217382Y0110976D01*
X0217866Y0110976D02*
X0218350Y0111460D01*
X0218350Y0111944D01*
X0217866Y0112427D01*
X0216898Y0112427D01*
X0216415Y0111944D01*
X0215403Y0119041D02*
X0213468Y0119041D01*
X0212457Y0119525D02*
X0210522Y0119525D01*
X0212457Y0121460D01*
X0212457Y0121944D01*
X0211973Y0122427D01*
X0211005Y0122427D01*
X0210522Y0121944D01*
X0209510Y0121944D02*
X0209026Y0122427D01*
X0208059Y0122427D01*
X0207575Y0121944D01*
X0207575Y0121460D01*
X0208059Y0120976D01*
X0209026Y0120976D01*
X0209510Y0120492D01*
X0209510Y0120009D01*
X0209026Y0119525D01*
X0208059Y0119525D01*
X0207575Y0120009D01*
X0206564Y0119525D02*
X0206564Y0122427D01*
X0205596Y0121460D01*
X0204629Y0122427D01*
X0204629Y0119525D01*
X0204629Y0112427D02*
X0205596Y0111460D01*
X0206564Y0112427D01*
X0206564Y0109525D01*
X0204629Y0109525D02*
X0204629Y0112427D01*
X0216415Y0120009D02*
X0216898Y0119525D01*
X0217866Y0119525D01*
X0218350Y0120009D01*
X0218350Y0120492D01*
X0217866Y0120976D01*
X0217382Y0120976D01*
X0217866Y0120976D02*
X0218350Y0121460D01*
X0218350Y0121944D01*
X0217866Y0122427D01*
X0216898Y0122427D01*
X0216415Y0121944D01*
X0215403Y0129041D02*
X0213468Y0129041D01*
X0212457Y0129525D02*
X0210522Y0129525D01*
X0211489Y0129525D02*
X0211489Y0132427D01*
X0210522Y0131460D01*
X0209510Y0131944D02*
X0209026Y0132427D01*
X0208059Y0132427D01*
X0207575Y0131944D01*
X0207575Y0131460D01*
X0208059Y0130976D01*
X0209026Y0130976D01*
X0209510Y0130492D01*
X0209510Y0130009D01*
X0209026Y0129525D01*
X0208059Y0129525D01*
X0207575Y0130009D01*
X0206564Y0129525D02*
X0206564Y0132427D01*
X0205596Y0131460D01*
X0204629Y0132427D01*
X0204629Y0129525D01*
X0204629Y0139525D02*
X0206080Y0139525D01*
X0206564Y0140009D01*
X0206564Y0141944D01*
X0206080Y0142427D01*
X0204629Y0142427D01*
X0204629Y0139525D01*
X0207575Y0139525D02*
X0208543Y0139525D01*
X0208059Y0139525D02*
X0208059Y0142427D01*
X0207575Y0142427D02*
X0208543Y0142427D01*
X0209539Y0142427D02*
X0210991Y0142427D01*
X0211474Y0141944D01*
X0211474Y0140976D01*
X0210991Y0140492D01*
X0209539Y0140492D01*
X0209539Y0139525D02*
X0209539Y0142427D01*
X0210507Y0140492D02*
X0211474Y0139525D01*
X0212486Y0139041D02*
X0214421Y0139041D01*
X0215432Y0140009D02*
X0215916Y0139525D01*
X0216884Y0139525D01*
X0217367Y0140009D01*
X0217367Y0140492D01*
X0216884Y0140976D01*
X0216400Y0140976D01*
X0216884Y0140976D02*
X0217367Y0141460D01*
X0217367Y0141944D01*
X0216884Y0142427D01*
X0215916Y0142427D01*
X0215432Y0141944D01*
X0215403Y0149041D02*
X0213468Y0149041D01*
X0212457Y0149525D02*
X0212457Y0152427D01*
X0210522Y0152427D02*
X0210522Y0149525D01*
X0209510Y0149525D02*
X0207575Y0149525D01*
X0207575Y0152427D01*
X0209510Y0152427D01*
X0210522Y0152427D02*
X0212457Y0149525D01*
X0208543Y0150976D02*
X0207575Y0150976D01*
X0206564Y0150976D02*
X0204629Y0150976D01*
X0204629Y0151460D02*
X0204629Y0149525D01*
X0206564Y0149525D02*
X0206564Y0151460D01*
X0205596Y0152427D01*
X0204629Y0151460D01*
X0204629Y0159525D02*
X0204629Y0161460D01*
X0205596Y0162427D01*
X0206564Y0161460D01*
X0206564Y0159525D01*
X0207575Y0159525D02*
X0209510Y0159525D01*
X0210522Y0159525D02*
X0210522Y0162427D01*
X0212457Y0159525D01*
X0212457Y0162427D01*
X0209510Y0162427D02*
X0207575Y0162427D01*
X0207575Y0159525D01*
X0207575Y0160976D02*
X0208543Y0160976D01*
X0206564Y0160976D02*
X0204629Y0160976D01*
X0213468Y0159041D02*
X0215403Y0159041D01*
X0216415Y0159525D02*
X0218350Y0159525D01*
X0217382Y0159525D02*
X0217382Y0162427D01*
X0216415Y0161460D01*
X0216898Y0152427D02*
X0217866Y0152427D01*
X0218350Y0151944D01*
X0218350Y0151460D01*
X0217866Y0150976D01*
X0218350Y0150492D01*
X0218350Y0150009D01*
X0217866Y0149525D01*
X0216898Y0149525D01*
X0216415Y0150009D01*
X0217382Y0150976D02*
X0217866Y0150976D01*
X0216415Y0151944D02*
X0216898Y0152427D01*
X0216898Y0132427D02*
X0217866Y0132427D01*
X0218350Y0131944D01*
X0218350Y0131460D01*
X0217866Y0130976D01*
X0218350Y0130492D01*
X0218350Y0130009D01*
X0217866Y0129525D01*
X0216898Y0129525D01*
X0216415Y0130009D01*
X0217382Y0130976D02*
X0217866Y0130976D01*
X0216415Y0131944D02*
X0216898Y0132427D01*
X0178862Y0125365D02*
X0178862Y0124397D01*
X0178379Y0123913D01*
X0177411Y0123913D02*
X0176927Y0124881D01*
X0176927Y0125365D01*
X0177411Y0125848D01*
X0178379Y0125848D01*
X0178862Y0125365D01*
X0177411Y0123913D02*
X0175960Y0123913D01*
X0175960Y0125848D01*
X0175960Y0122902D02*
X0178379Y0122902D01*
X0178862Y0122418D01*
X0178862Y0121451D01*
X0178379Y0120967D01*
X0175960Y0120967D01*
X0158082Y0115226D02*
X0156147Y0115226D01*
X0157598Y0116677D01*
X0157598Y0113775D01*
X0155135Y0113775D02*
X0153200Y0113775D01*
X0154168Y0113775D02*
X0154168Y0116677D01*
X0153200Y0115710D01*
X0152189Y0116194D02*
X0152189Y0115226D01*
X0151705Y0114742D01*
X0150254Y0114742D01*
X0150254Y0113775D02*
X0150254Y0116677D01*
X0151705Y0116677D01*
X0152189Y0116194D01*
X0151221Y0114742D02*
X0152189Y0113775D01*
X0153523Y0144200D02*
X0154490Y0144200D01*
X0154974Y0144684D01*
X0155986Y0144200D02*
X0157920Y0144200D01*
X0156953Y0144200D02*
X0156953Y0147102D01*
X0155986Y0146135D01*
X0154974Y0146619D02*
X0154490Y0147102D01*
X0153523Y0147102D01*
X0153039Y0146619D01*
X0153039Y0144684D01*
X0153523Y0144200D01*
X0158932Y0144200D02*
X0160867Y0146135D01*
X0160867Y0146619D01*
X0160383Y0147102D01*
X0159416Y0147102D01*
X0158932Y0146619D01*
X0158932Y0144200D02*
X0160867Y0144200D01*
X0161293Y0159275D02*
X0161293Y0162177D01*
X0160325Y0161210D01*
X0159314Y0161694D02*
X0159314Y0160726D01*
X0158830Y0160242D01*
X0157379Y0160242D01*
X0157379Y0159275D02*
X0157379Y0162177D01*
X0158830Y0162177D01*
X0159314Y0161694D01*
X0158346Y0160242D02*
X0159314Y0159275D01*
X0160325Y0159275D02*
X0162260Y0159275D01*
X0163272Y0159275D02*
X0165207Y0161210D01*
X0165207Y0161694D01*
X0164723Y0162177D01*
X0163755Y0162177D01*
X0163272Y0161694D01*
X0163272Y0159275D02*
X0165207Y0159275D01*
X0167754Y0185650D02*
X0169689Y0185650D01*
X0170700Y0185650D02*
X0170700Y0188552D01*
X0172635Y0188552D01*
X0173647Y0188552D02*
X0175098Y0188552D01*
X0175582Y0188069D01*
X0175582Y0186134D01*
X0175098Y0185650D01*
X0173647Y0185650D01*
X0173647Y0188552D01*
X0171668Y0187101D02*
X0170700Y0187101D01*
X0170700Y0185650D02*
X0172635Y0185650D01*
X0176593Y0186134D02*
X0177077Y0185650D01*
X0178044Y0185650D01*
X0178528Y0186134D01*
X0178528Y0186617D01*
X0178044Y0187101D01*
X0177561Y0187101D01*
X0178044Y0187101D02*
X0178528Y0187585D01*
X0178528Y0188069D01*
X0178044Y0188552D01*
X0177077Y0188552D01*
X0176593Y0188069D01*
X0181504Y0194101D02*
X0183439Y0194101D01*
X0167754Y0188552D02*
X0167754Y0185650D01*
X0158082Y0187384D02*
X0157598Y0186900D01*
X0156630Y0186900D01*
X0156147Y0187384D01*
X0156147Y0187867D01*
X0156630Y0188351D01*
X0157598Y0188351D01*
X0158082Y0187867D01*
X0158082Y0187384D01*
X0157598Y0188351D02*
X0158082Y0188835D01*
X0158082Y0189319D01*
X0157598Y0189802D01*
X0156630Y0189802D01*
X0156147Y0189319D01*
X0156147Y0188835D01*
X0156630Y0188351D01*
X0155135Y0186900D02*
X0153200Y0186900D01*
X0154168Y0186900D02*
X0154168Y0189802D01*
X0153200Y0188835D01*
X0152189Y0189319D02*
X0151705Y0189802D01*
X0150254Y0189802D01*
X0150254Y0186900D01*
X0150254Y0187867D02*
X0151705Y0187867D01*
X0152189Y0188351D01*
X0152189Y0189319D01*
X0151221Y0187867D02*
X0152189Y0186900D01*
X0079028Y0185650D02*
X0077093Y0185650D01*
X0078061Y0185650D02*
X0078061Y0188552D01*
X0077093Y0187585D01*
X0076082Y0188069D02*
X0076082Y0186134D01*
X0075598Y0185650D01*
X0074147Y0185650D01*
X0074147Y0188552D01*
X0075598Y0188552D01*
X0076082Y0188069D01*
X0073135Y0188552D02*
X0071200Y0188552D01*
X0071200Y0185650D01*
X0073135Y0185650D01*
X0072168Y0187101D02*
X0071200Y0187101D01*
X0070189Y0185650D02*
X0068254Y0185650D01*
X0068254Y0188552D01*
X0066189Y0194726D02*
X0064254Y0194726D01*
X0216415Y0091944D02*
X0216898Y0092427D01*
X0217866Y0092427D01*
X0218350Y0091944D01*
X0218350Y0091460D01*
X0216415Y0089525D01*
X0218350Y0089525D01*
X0211973Y0052427D02*
X0210522Y0052427D01*
X0210522Y0049525D01*
X0211973Y0049525D01*
X0212457Y0050009D01*
X0212457Y0051944D01*
X0211973Y0052427D01*
X0209510Y0052427D02*
X0209510Y0049525D01*
X0207575Y0052427D01*
X0207575Y0049525D01*
X0206564Y0050009D02*
X0206564Y0050976D01*
X0205596Y0050976D01*
X0204629Y0050009D02*
X0204629Y0051944D01*
X0205112Y0052427D01*
X0206080Y0052427D01*
X0206564Y0051944D01*
X0206564Y0050009D02*
X0206080Y0049525D01*
X0205112Y0049525D01*
X0204629Y0050009D01*
X0177302Y0011052D02*
X0176335Y0010085D01*
X0175323Y0010569D02*
X0173388Y0008634D01*
X0173872Y0008150D01*
X0174839Y0008150D01*
X0175323Y0008634D01*
X0175323Y0010569D01*
X0174839Y0011052D01*
X0173872Y0011052D01*
X0173388Y0010569D01*
X0173388Y0008634D01*
X0172377Y0008150D02*
X0170442Y0008150D01*
X0172377Y0010085D01*
X0172377Y0010569D01*
X0171893Y0011052D01*
X0170925Y0011052D01*
X0170442Y0010569D01*
X0169430Y0009601D02*
X0167495Y0009601D01*
X0166484Y0008150D02*
X0164549Y0011052D01*
X0163537Y0011052D02*
X0163537Y0008150D01*
X0164549Y0008150D02*
X0166484Y0011052D01*
X0163537Y0011052D02*
X0162570Y0010085D01*
X0161602Y0011052D01*
X0161602Y0008150D01*
X0160591Y0008150D02*
X0160591Y0011052D01*
X0158656Y0011052D02*
X0158656Y0008150D01*
X0160591Y0008150D02*
X0158656Y0011052D01*
X0176335Y0008150D02*
X0178270Y0008150D01*
X0177302Y0008150D02*
X0177302Y0011052D01*
D11*
X0194104Y0015000D02*
X0194108Y0015331D01*
X0194120Y0015662D01*
X0194141Y0015993D01*
X0194169Y0016323D01*
X0194206Y0016653D01*
X0194250Y0016981D01*
X0194303Y0017308D01*
X0194363Y0017634D01*
X0194432Y0017958D01*
X0194509Y0018280D01*
X0194593Y0018601D01*
X0194685Y0018919D01*
X0194785Y0019235D01*
X0194893Y0019548D01*
X0195009Y0019859D01*
X0195132Y0020166D01*
X0195262Y0020471D01*
X0195400Y0020772D01*
X0195545Y0021070D01*
X0195698Y0021364D01*
X0195858Y0021654D01*
X0196025Y0021940D01*
X0196198Y0022222D01*
X0196379Y0022500D01*
X0196567Y0022773D01*
X0196761Y0023042D01*
X0196961Y0023306D01*
X0197168Y0023564D01*
X0197382Y0023818D01*
X0197601Y0024066D01*
X0197827Y0024309D01*
X0198058Y0024546D01*
X0198295Y0024777D01*
X0198538Y0025003D01*
X0198786Y0025222D01*
X0199040Y0025436D01*
X0199298Y0025643D01*
X0199562Y0025843D01*
X0199831Y0026037D01*
X0200104Y0026225D01*
X0200382Y0026406D01*
X0200664Y0026579D01*
X0200950Y0026746D01*
X0201240Y0026906D01*
X0201534Y0027059D01*
X0201832Y0027204D01*
X0202133Y0027342D01*
X0202438Y0027472D01*
X0202745Y0027595D01*
X0203056Y0027711D01*
X0203369Y0027819D01*
X0203685Y0027919D01*
X0204003Y0028011D01*
X0204324Y0028095D01*
X0204646Y0028172D01*
X0204970Y0028241D01*
X0205296Y0028301D01*
X0205623Y0028354D01*
X0205951Y0028398D01*
X0206281Y0028435D01*
X0206611Y0028463D01*
X0206942Y0028484D01*
X0207273Y0028496D01*
X0207604Y0028500D01*
X0207935Y0028496D01*
X0208266Y0028484D01*
X0208597Y0028463D01*
X0208927Y0028435D01*
X0209257Y0028398D01*
X0209585Y0028354D01*
X0209912Y0028301D01*
X0210238Y0028241D01*
X0210562Y0028172D01*
X0210884Y0028095D01*
X0211205Y0028011D01*
X0211523Y0027919D01*
X0211839Y0027819D01*
X0212152Y0027711D01*
X0212463Y0027595D01*
X0212770Y0027472D01*
X0213075Y0027342D01*
X0213376Y0027204D01*
X0213674Y0027059D01*
X0213968Y0026906D01*
X0214258Y0026746D01*
X0214544Y0026579D01*
X0214826Y0026406D01*
X0215104Y0026225D01*
X0215377Y0026037D01*
X0215646Y0025843D01*
X0215910Y0025643D01*
X0216168Y0025436D01*
X0216422Y0025222D01*
X0216670Y0025003D01*
X0216913Y0024777D01*
X0217150Y0024546D01*
X0217381Y0024309D01*
X0217607Y0024066D01*
X0217826Y0023818D01*
X0218040Y0023564D01*
X0218247Y0023306D01*
X0218447Y0023042D01*
X0218641Y0022773D01*
X0218829Y0022500D01*
X0219010Y0022222D01*
X0219183Y0021940D01*
X0219350Y0021654D01*
X0219510Y0021364D01*
X0219663Y0021070D01*
X0219808Y0020772D01*
X0219946Y0020471D01*
X0220076Y0020166D01*
X0220199Y0019859D01*
X0220315Y0019548D01*
X0220423Y0019235D01*
X0220523Y0018919D01*
X0220615Y0018601D01*
X0220699Y0018280D01*
X0220776Y0017958D01*
X0220845Y0017634D01*
X0220905Y0017308D01*
X0220958Y0016981D01*
X0221002Y0016653D01*
X0221039Y0016323D01*
X0221067Y0015993D01*
X0221088Y0015662D01*
X0221100Y0015331D01*
X0221104Y0015000D01*
X0221100Y0014669D01*
X0221088Y0014338D01*
X0221067Y0014007D01*
X0221039Y0013677D01*
X0221002Y0013347D01*
X0220958Y0013019D01*
X0220905Y0012692D01*
X0220845Y0012366D01*
X0220776Y0012042D01*
X0220699Y0011720D01*
X0220615Y0011399D01*
X0220523Y0011081D01*
X0220423Y0010765D01*
X0220315Y0010452D01*
X0220199Y0010141D01*
X0220076Y0009834D01*
X0219946Y0009529D01*
X0219808Y0009228D01*
X0219663Y0008930D01*
X0219510Y0008636D01*
X0219350Y0008346D01*
X0219183Y0008060D01*
X0219010Y0007778D01*
X0218829Y0007500D01*
X0218641Y0007227D01*
X0218447Y0006958D01*
X0218247Y0006694D01*
X0218040Y0006436D01*
X0217826Y0006182D01*
X0217607Y0005934D01*
X0217381Y0005691D01*
X0217150Y0005454D01*
X0216913Y0005223D01*
X0216670Y0004997D01*
X0216422Y0004778D01*
X0216168Y0004564D01*
X0215910Y0004357D01*
X0215646Y0004157D01*
X0215377Y0003963D01*
X0215104Y0003775D01*
X0214826Y0003594D01*
X0214544Y0003421D01*
X0214258Y0003254D01*
X0213968Y0003094D01*
X0213674Y0002941D01*
X0213376Y0002796D01*
X0213075Y0002658D01*
X0212770Y0002528D01*
X0212463Y0002405D01*
X0212152Y0002289D01*
X0211839Y0002181D01*
X0211523Y0002081D01*
X0211205Y0001989D01*
X0210884Y0001905D01*
X0210562Y0001828D01*
X0210238Y0001759D01*
X0209912Y0001699D01*
X0209585Y0001646D01*
X0209257Y0001602D01*
X0208927Y0001565D01*
X0208597Y0001537D01*
X0208266Y0001516D01*
X0207935Y0001504D01*
X0207604Y0001500D01*
X0207273Y0001504D01*
X0206942Y0001516D01*
X0206611Y0001537D01*
X0206281Y0001565D01*
X0205951Y0001602D01*
X0205623Y0001646D01*
X0205296Y0001699D01*
X0204970Y0001759D01*
X0204646Y0001828D01*
X0204324Y0001905D01*
X0204003Y0001989D01*
X0203685Y0002081D01*
X0203369Y0002181D01*
X0203056Y0002289D01*
X0202745Y0002405D01*
X0202438Y0002528D01*
X0202133Y0002658D01*
X0201832Y0002796D01*
X0201534Y0002941D01*
X0201240Y0003094D01*
X0200950Y0003254D01*
X0200664Y0003421D01*
X0200382Y0003594D01*
X0200104Y0003775D01*
X0199831Y0003963D01*
X0199562Y0004157D01*
X0199298Y0004357D01*
X0199040Y0004564D01*
X0198786Y0004778D01*
X0198538Y0004997D01*
X0198295Y0005223D01*
X0198058Y0005454D01*
X0197827Y0005691D01*
X0197601Y0005934D01*
X0197382Y0006182D01*
X0197168Y0006436D01*
X0196961Y0006694D01*
X0196761Y0006958D01*
X0196567Y0007227D01*
X0196379Y0007500D01*
X0196198Y0007778D01*
X0196025Y0008060D01*
X0195858Y0008346D01*
X0195698Y0008636D01*
X0195545Y0008930D01*
X0195400Y0009228D01*
X0195262Y0009529D01*
X0195132Y0009834D01*
X0195009Y0010141D01*
X0194893Y0010452D01*
X0194785Y0010765D01*
X0194685Y0011081D01*
X0194593Y0011399D01*
X0194509Y0011720D01*
X0194432Y0012042D01*
X0194363Y0012366D01*
X0194303Y0012692D01*
X0194250Y0013019D01*
X0194206Y0013347D01*
X0194169Y0013677D01*
X0194141Y0014007D01*
X0194120Y0014338D01*
X0194108Y0014669D01*
X0194104Y0015000D01*
X0024104Y0185000D02*
X0024108Y0185331D01*
X0024120Y0185662D01*
X0024141Y0185993D01*
X0024169Y0186323D01*
X0024206Y0186653D01*
X0024250Y0186981D01*
X0024303Y0187308D01*
X0024363Y0187634D01*
X0024432Y0187958D01*
X0024509Y0188280D01*
X0024593Y0188601D01*
X0024685Y0188919D01*
X0024785Y0189235D01*
X0024893Y0189548D01*
X0025009Y0189859D01*
X0025132Y0190166D01*
X0025262Y0190471D01*
X0025400Y0190772D01*
X0025545Y0191070D01*
X0025698Y0191364D01*
X0025858Y0191654D01*
X0026025Y0191940D01*
X0026198Y0192222D01*
X0026379Y0192500D01*
X0026567Y0192773D01*
X0026761Y0193042D01*
X0026961Y0193306D01*
X0027168Y0193564D01*
X0027382Y0193818D01*
X0027601Y0194066D01*
X0027827Y0194309D01*
X0028058Y0194546D01*
X0028295Y0194777D01*
X0028538Y0195003D01*
X0028786Y0195222D01*
X0029040Y0195436D01*
X0029298Y0195643D01*
X0029562Y0195843D01*
X0029831Y0196037D01*
X0030104Y0196225D01*
X0030382Y0196406D01*
X0030664Y0196579D01*
X0030950Y0196746D01*
X0031240Y0196906D01*
X0031534Y0197059D01*
X0031832Y0197204D01*
X0032133Y0197342D01*
X0032438Y0197472D01*
X0032745Y0197595D01*
X0033056Y0197711D01*
X0033369Y0197819D01*
X0033685Y0197919D01*
X0034003Y0198011D01*
X0034324Y0198095D01*
X0034646Y0198172D01*
X0034970Y0198241D01*
X0035296Y0198301D01*
X0035623Y0198354D01*
X0035951Y0198398D01*
X0036281Y0198435D01*
X0036611Y0198463D01*
X0036942Y0198484D01*
X0037273Y0198496D01*
X0037604Y0198500D01*
X0037935Y0198496D01*
X0038266Y0198484D01*
X0038597Y0198463D01*
X0038927Y0198435D01*
X0039257Y0198398D01*
X0039585Y0198354D01*
X0039912Y0198301D01*
X0040238Y0198241D01*
X0040562Y0198172D01*
X0040884Y0198095D01*
X0041205Y0198011D01*
X0041523Y0197919D01*
X0041839Y0197819D01*
X0042152Y0197711D01*
X0042463Y0197595D01*
X0042770Y0197472D01*
X0043075Y0197342D01*
X0043376Y0197204D01*
X0043674Y0197059D01*
X0043968Y0196906D01*
X0044258Y0196746D01*
X0044544Y0196579D01*
X0044826Y0196406D01*
X0045104Y0196225D01*
X0045377Y0196037D01*
X0045646Y0195843D01*
X0045910Y0195643D01*
X0046168Y0195436D01*
X0046422Y0195222D01*
X0046670Y0195003D01*
X0046913Y0194777D01*
X0047150Y0194546D01*
X0047381Y0194309D01*
X0047607Y0194066D01*
X0047826Y0193818D01*
X0048040Y0193564D01*
X0048247Y0193306D01*
X0048447Y0193042D01*
X0048641Y0192773D01*
X0048829Y0192500D01*
X0049010Y0192222D01*
X0049183Y0191940D01*
X0049350Y0191654D01*
X0049510Y0191364D01*
X0049663Y0191070D01*
X0049808Y0190772D01*
X0049946Y0190471D01*
X0050076Y0190166D01*
X0050199Y0189859D01*
X0050315Y0189548D01*
X0050423Y0189235D01*
X0050523Y0188919D01*
X0050615Y0188601D01*
X0050699Y0188280D01*
X0050776Y0187958D01*
X0050845Y0187634D01*
X0050905Y0187308D01*
X0050958Y0186981D01*
X0051002Y0186653D01*
X0051039Y0186323D01*
X0051067Y0185993D01*
X0051088Y0185662D01*
X0051100Y0185331D01*
X0051104Y0185000D01*
X0051100Y0184669D01*
X0051088Y0184338D01*
X0051067Y0184007D01*
X0051039Y0183677D01*
X0051002Y0183347D01*
X0050958Y0183019D01*
X0050905Y0182692D01*
X0050845Y0182366D01*
X0050776Y0182042D01*
X0050699Y0181720D01*
X0050615Y0181399D01*
X0050523Y0181081D01*
X0050423Y0180765D01*
X0050315Y0180452D01*
X0050199Y0180141D01*
X0050076Y0179834D01*
X0049946Y0179529D01*
X0049808Y0179228D01*
X0049663Y0178930D01*
X0049510Y0178636D01*
X0049350Y0178346D01*
X0049183Y0178060D01*
X0049010Y0177778D01*
X0048829Y0177500D01*
X0048641Y0177227D01*
X0048447Y0176958D01*
X0048247Y0176694D01*
X0048040Y0176436D01*
X0047826Y0176182D01*
X0047607Y0175934D01*
X0047381Y0175691D01*
X0047150Y0175454D01*
X0046913Y0175223D01*
X0046670Y0174997D01*
X0046422Y0174778D01*
X0046168Y0174564D01*
X0045910Y0174357D01*
X0045646Y0174157D01*
X0045377Y0173963D01*
X0045104Y0173775D01*
X0044826Y0173594D01*
X0044544Y0173421D01*
X0044258Y0173254D01*
X0043968Y0173094D01*
X0043674Y0172941D01*
X0043376Y0172796D01*
X0043075Y0172658D01*
X0042770Y0172528D01*
X0042463Y0172405D01*
X0042152Y0172289D01*
X0041839Y0172181D01*
X0041523Y0172081D01*
X0041205Y0171989D01*
X0040884Y0171905D01*
X0040562Y0171828D01*
X0040238Y0171759D01*
X0039912Y0171699D01*
X0039585Y0171646D01*
X0039257Y0171602D01*
X0038927Y0171565D01*
X0038597Y0171537D01*
X0038266Y0171516D01*
X0037935Y0171504D01*
X0037604Y0171500D01*
X0037273Y0171504D01*
X0036942Y0171516D01*
X0036611Y0171537D01*
X0036281Y0171565D01*
X0035951Y0171602D01*
X0035623Y0171646D01*
X0035296Y0171699D01*
X0034970Y0171759D01*
X0034646Y0171828D01*
X0034324Y0171905D01*
X0034003Y0171989D01*
X0033685Y0172081D01*
X0033369Y0172181D01*
X0033056Y0172289D01*
X0032745Y0172405D01*
X0032438Y0172528D01*
X0032133Y0172658D01*
X0031832Y0172796D01*
X0031534Y0172941D01*
X0031240Y0173094D01*
X0030950Y0173254D01*
X0030664Y0173421D01*
X0030382Y0173594D01*
X0030104Y0173775D01*
X0029831Y0173963D01*
X0029562Y0174157D01*
X0029298Y0174357D01*
X0029040Y0174564D01*
X0028786Y0174778D01*
X0028538Y0174997D01*
X0028295Y0175223D01*
X0028058Y0175454D01*
X0027827Y0175691D01*
X0027601Y0175934D01*
X0027382Y0176182D01*
X0027168Y0176436D01*
X0026961Y0176694D01*
X0026761Y0176958D01*
X0026567Y0177227D01*
X0026379Y0177500D01*
X0026198Y0177778D01*
X0026025Y0178060D01*
X0025858Y0178346D01*
X0025698Y0178636D01*
X0025545Y0178930D01*
X0025400Y0179228D01*
X0025262Y0179529D01*
X0025132Y0179834D01*
X0025009Y0180141D01*
X0024893Y0180452D01*
X0024785Y0180765D01*
X0024685Y0181081D01*
X0024593Y0181399D01*
X0024509Y0181720D01*
X0024432Y0182042D01*
X0024363Y0182366D01*
X0024303Y0182692D01*
X0024250Y0183019D01*
X0024206Y0183347D01*
X0024169Y0183677D01*
X0024141Y0184007D01*
X0024120Y0184338D01*
X0024108Y0184669D01*
X0024104Y0185000D01*
D12*
X0030911Y0185000D02*
X0030913Y0185164D01*
X0030919Y0185328D01*
X0030929Y0185492D01*
X0030943Y0185656D01*
X0030961Y0185819D01*
X0030983Y0185982D01*
X0031010Y0186144D01*
X0031040Y0186306D01*
X0031074Y0186466D01*
X0031112Y0186626D01*
X0031153Y0186785D01*
X0031199Y0186943D01*
X0031249Y0187099D01*
X0031302Y0187255D01*
X0031359Y0187409D01*
X0031420Y0187561D01*
X0031485Y0187712D01*
X0031554Y0187862D01*
X0031626Y0188009D01*
X0031701Y0188155D01*
X0031781Y0188299D01*
X0031863Y0188441D01*
X0031949Y0188581D01*
X0032039Y0188718D01*
X0032132Y0188854D01*
X0032228Y0188987D01*
X0032328Y0189118D01*
X0032430Y0189246D01*
X0032536Y0189372D01*
X0032645Y0189495D01*
X0032757Y0189615D01*
X0032871Y0189733D01*
X0032989Y0189847D01*
X0033109Y0189959D01*
X0033232Y0190068D01*
X0033358Y0190174D01*
X0033486Y0190276D01*
X0033617Y0190376D01*
X0033750Y0190472D01*
X0033886Y0190565D01*
X0034023Y0190655D01*
X0034163Y0190741D01*
X0034305Y0190823D01*
X0034449Y0190903D01*
X0034595Y0190978D01*
X0034742Y0191050D01*
X0034892Y0191119D01*
X0035043Y0191184D01*
X0035195Y0191245D01*
X0035349Y0191302D01*
X0035505Y0191355D01*
X0035661Y0191405D01*
X0035819Y0191451D01*
X0035978Y0191492D01*
X0036138Y0191530D01*
X0036298Y0191564D01*
X0036460Y0191594D01*
X0036622Y0191621D01*
X0036785Y0191643D01*
X0036948Y0191661D01*
X0037112Y0191675D01*
X0037276Y0191685D01*
X0037440Y0191691D01*
X0037604Y0191693D01*
X0037768Y0191691D01*
X0037932Y0191685D01*
X0038096Y0191675D01*
X0038260Y0191661D01*
X0038423Y0191643D01*
X0038586Y0191621D01*
X0038748Y0191594D01*
X0038910Y0191564D01*
X0039070Y0191530D01*
X0039230Y0191492D01*
X0039389Y0191451D01*
X0039547Y0191405D01*
X0039703Y0191355D01*
X0039859Y0191302D01*
X0040013Y0191245D01*
X0040165Y0191184D01*
X0040316Y0191119D01*
X0040466Y0191050D01*
X0040613Y0190978D01*
X0040759Y0190903D01*
X0040903Y0190823D01*
X0041045Y0190741D01*
X0041185Y0190655D01*
X0041322Y0190565D01*
X0041458Y0190472D01*
X0041591Y0190376D01*
X0041722Y0190276D01*
X0041850Y0190174D01*
X0041976Y0190068D01*
X0042099Y0189959D01*
X0042219Y0189847D01*
X0042337Y0189733D01*
X0042451Y0189615D01*
X0042563Y0189495D01*
X0042672Y0189372D01*
X0042778Y0189246D01*
X0042880Y0189118D01*
X0042980Y0188987D01*
X0043076Y0188854D01*
X0043169Y0188718D01*
X0043259Y0188581D01*
X0043345Y0188441D01*
X0043427Y0188299D01*
X0043507Y0188155D01*
X0043582Y0188009D01*
X0043654Y0187862D01*
X0043723Y0187712D01*
X0043788Y0187561D01*
X0043849Y0187409D01*
X0043906Y0187255D01*
X0043959Y0187099D01*
X0044009Y0186943D01*
X0044055Y0186785D01*
X0044096Y0186626D01*
X0044134Y0186466D01*
X0044168Y0186306D01*
X0044198Y0186144D01*
X0044225Y0185982D01*
X0044247Y0185819D01*
X0044265Y0185656D01*
X0044279Y0185492D01*
X0044289Y0185328D01*
X0044295Y0185164D01*
X0044297Y0185000D01*
X0044295Y0184836D01*
X0044289Y0184672D01*
X0044279Y0184508D01*
X0044265Y0184344D01*
X0044247Y0184181D01*
X0044225Y0184018D01*
X0044198Y0183856D01*
X0044168Y0183694D01*
X0044134Y0183534D01*
X0044096Y0183374D01*
X0044055Y0183215D01*
X0044009Y0183057D01*
X0043959Y0182901D01*
X0043906Y0182745D01*
X0043849Y0182591D01*
X0043788Y0182439D01*
X0043723Y0182288D01*
X0043654Y0182138D01*
X0043582Y0181991D01*
X0043507Y0181845D01*
X0043427Y0181701D01*
X0043345Y0181559D01*
X0043259Y0181419D01*
X0043169Y0181282D01*
X0043076Y0181146D01*
X0042980Y0181013D01*
X0042880Y0180882D01*
X0042778Y0180754D01*
X0042672Y0180628D01*
X0042563Y0180505D01*
X0042451Y0180385D01*
X0042337Y0180267D01*
X0042219Y0180153D01*
X0042099Y0180041D01*
X0041976Y0179932D01*
X0041850Y0179826D01*
X0041722Y0179724D01*
X0041591Y0179624D01*
X0041458Y0179528D01*
X0041322Y0179435D01*
X0041185Y0179345D01*
X0041045Y0179259D01*
X0040903Y0179177D01*
X0040759Y0179097D01*
X0040613Y0179022D01*
X0040466Y0178950D01*
X0040316Y0178881D01*
X0040165Y0178816D01*
X0040013Y0178755D01*
X0039859Y0178698D01*
X0039703Y0178645D01*
X0039547Y0178595D01*
X0039389Y0178549D01*
X0039230Y0178508D01*
X0039070Y0178470D01*
X0038910Y0178436D01*
X0038748Y0178406D01*
X0038586Y0178379D01*
X0038423Y0178357D01*
X0038260Y0178339D01*
X0038096Y0178325D01*
X0037932Y0178315D01*
X0037768Y0178309D01*
X0037604Y0178307D01*
X0037440Y0178309D01*
X0037276Y0178315D01*
X0037112Y0178325D01*
X0036948Y0178339D01*
X0036785Y0178357D01*
X0036622Y0178379D01*
X0036460Y0178406D01*
X0036298Y0178436D01*
X0036138Y0178470D01*
X0035978Y0178508D01*
X0035819Y0178549D01*
X0035661Y0178595D01*
X0035505Y0178645D01*
X0035349Y0178698D01*
X0035195Y0178755D01*
X0035043Y0178816D01*
X0034892Y0178881D01*
X0034742Y0178950D01*
X0034595Y0179022D01*
X0034449Y0179097D01*
X0034305Y0179177D01*
X0034163Y0179259D01*
X0034023Y0179345D01*
X0033886Y0179435D01*
X0033750Y0179528D01*
X0033617Y0179624D01*
X0033486Y0179724D01*
X0033358Y0179826D01*
X0033232Y0179932D01*
X0033109Y0180041D01*
X0032989Y0180153D01*
X0032871Y0180267D01*
X0032757Y0180385D01*
X0032645Y0180505D01*
X0032536Y0180628D01*
X0032430Y0180754D01*
X0032328Y0180882D01*
X0032228Y0181013D01*
X0032132Y0181146D01*
X0032039Y0181282D01*
X0031949Y0181419D01*
X0031863Y0181559D01*
X0031781Y0181701D01*
X0031701Y0181845D01*
X0031626Y0181991D01*
X0031554Y0182138D01*
X0031485Y0182288D01*
X0031420Y0182439D01*
X0031359Y0182591D01*
X0031302Y0182745D01*
X0031249Y0182901D01*
X0031199Y0183057D01*
X0031153Y0183215D01*
X0031112Y0183374D01*
X0031074Y0183534D01*
X0031040Y0183694D01*
X0031010Y0183856D01*
X0030983Y0184018D01*
X0030961Y0184181D01*
X0030943Y0184344D01*
X0030929Y0184508D01*
X0030919Y0184672D01*
X0030913Y0184836D01*
X0030911Y0185000D01*
X0072559Y0190689D02*
X0072559Y0192500D01*
X0073780Y0193420D01*
X0072559Y0194311D02*
X0072559Y0192500D01*
X0072620Y0192400D02*
X0073780Y0191640D01*
X0122052Y0191580D02*
X0123273Y0192500D01*
X0123273Y0194311D01*
X0122052Y0193360D02*
X0123212Y0192600D01*
X0123273Y0192500D02*
X0123273Y0190689D01*
X0172677Y0191580D02*
X0173898Y0192500D01*
X0173898Y0194311D01*
X0172677Y0193360D02*
X0173837Y0192600D01*
X0173898Y0192500D02*
X0173898Y0190689D01*
X0157046Y0139443D02*
X0154696Y0139443D01*
X0157046Y0139443D02*
X0157046Y0137093D01*
X0157046Y0122907D02*
X0157046Y0120557D01*
X0154696Y0120557D01*
X0140511Y0120557D02*
X0138161Y0120557D01*
X0138161Y0122907D01*
X0138161Y0137093D02*
X0138161Y0139443D01*
X0140511Y0139443D01*
X0082046Y0139443D02*
X0082046Y0137093D01*
X0082046Y0139443D02*
X0079696Y0139443D01*
X0065511Y0139443D02*
X0063161Y0139443D01*
X0063161Y0137093D01*
X0063161Y0122907D02*
X0063161Y0120557D01*
X0065511Y0120557D01*
X0079696Y0120557D02*
X0082046Y0120557D01*
X0082046Y0122907D01*
X0108161Y0079443D02*
X0110511Y0079443D01*
X0108161Y0079443D02*
X0108161Y0077093D01*
X0108161Y0062907D02*
X0108161Y0060557D01*
X0110511Y0060557D01*
X0124696Y0060557D02*
X0127046Y0060557D01*
X0127046Y0062907D01*
X0127046Y0077093D02*
X0127046Y0079443D01*
X0124696Y0079443D01*
X0200911Y0015000D02*
X0200913Y0015164D01*
X0200919Y0015328D01*
X0200929Y0015492D01*
X0200943Y0015656D01*
X0200961Y0015819D01*
X0200983Y0015982D01*
X0201010Y0016144D01*
X0201040Y0016306D01*
X0201074Y0016466D01*
X0201112Y0016626D01*
X0201153Y0016785D01*
X0201199Y0016943D01*
X0201249Y0017099D01*
X0201302Y0017255D01*
X0201359Y0017409D01*
X0201420Y0017561D01*
X0201485Y0017712D01*
X0201554Y0017862D01*
X0201626Y0018009D01*
X0201701Y0018155D01*
X0201781Y0018299D01*
X0201863Y0018441D01*
X0201949Y0018581D01*
X0202039Y0018718D01*
X0202132Y0018854D01*
X0202228Y0018987D01*
X0202328Y0019118D01*
X0202430Y0019246D01*
X0202536Y0019372D01*
X0202645Y0019495D01*
X0202757Y0019615D01*
X0202871Y0019733D01*
X0202989Y0019847D01*
X0203109Y0019959D01*
X0203232Y0020068D01*
X0203358Y0020174D01*
X0203486Y0020276D01*
X0203617Y0020376D01*
X0203750Y0020472D01*
X0203886Y0020565D01*
X0204023Y0020655D01*
X0204163Y0020741D01*
X0204305Y0020823D01*
X0204449Y0020903D01*
X0204595Y0020978D01*
X0204742Y0021050D01*
X0204892Y0021119D01*
X0205043Y0021184D01*
X0205195Y0021245D01*
X0205349Y0021302D01*
X0205505Y0021355D01*
X0205661Y0021405D01*
X0205819Y0021451D01*
X0205978Y0021492D01*
X0206138Y0021530D01*
X0206298Y0021564D01*
X0206460Y0021594D01*
X0206622Y0021621D01*
X0206785Y0021643D01*
X0206948Y0021661D01*
X0207112Y0021675D01*
X0207276Y0021685D01*
X0207440Y0021691D01*
X0207604Y0021693D01*
X0207768Y0021691D01*
X0207932Y0021685D01*
X0208096Y0021675D01*
X0208260Y0021661D01*
X0208423Y0021643D01*
X0208586Y0021621D01*
X0208748Y0021594D01*
X0208910Y0021564D01*
X0209070Y0021530D01*
X0209230Y0021492D01*
X0209389Y0021451D01*
X0209547Y0021405D01*
X0209703Y0021355D01*
X0209859Y0021302D01*
X0210013Y0021245D01*
X0210165Y0021184D01*
X0210316Y0021119D01*
X0210466Y0021050D01*
X0210613Y0020978D01*
X0210759Y0020903D01*
X0210903Y0020823D01*
X0211045Y0020741D01*
X0211185Y0020655D01*
X0211322Y0020565D01*
X0211458Y0020472D01*
X0211591Y0020376D01*
X0211722Y0020276D01*
X0211850Y0020174D01*
X0211976Y0020068D01*
X0212099Y0019959D01*
X0212219Y0019847D01*
X0212337Y0019733D01*
X0212451Y0019615D01*
X0212563Y0019495D01*
X0212672Y0019372D01*
X0212778Y0019246D01*
X0212880Y0019118D01*
X0212980Y0018987D01*
X0213076Y0018854D01*
X0213169Y0018718D01*
X0213259Y0018581D01*
X0213345Y0018441D01*
X0213427Y0018299D01*
X0213507Y0018155D01*
X0213582Y0018009D01*
X0213654Y0017862D01*
X0213723Y0017712D01*
X0213788Y0017561D01*
X0213849Y0017409D01*
X0213906Y0017255D01*
X0213959Y0017099D01*
X0214009Y0016943D01*
X0214055Y0016785D01*
X0214096Y0016626D01*
X0214134Y0016466D01*
X0214168Y0016306D01*
X0214198Y0016144D01*
X0214225Y0015982D01*
X0214247Y0015819D01*
X0214265Y0015656D01*
X0214279Y0015492D01*
X0214289Y0015328D01*
X0214295Y0015164D01*
X0214297Y0015000D01*
X0214295Y0014836D01*
X0214289Y0014672D01*
X0214279Y0014508D01*
X0214265Y0014344D01*
X0214247Y0014181D01*
X0214225Y0014018D01*
X0214198Y0013856D01*
X0214168Y0013694D01*
X0214134Y0013534D01*
X0214096Y0013374D01*
X0214055Y0013215D01*
X0214009Y0013057D01*
X0213959Y0012901D01*
X0213906Y0012745D01*
X0213849Y0012591D01*
X0213788Y0012439D01*
X0213723Y0012288D01*
X0213654Y0012138D01*
X0213582Y0011991D01*
X0213507Y0011845D01*
X0213427Y0011701D01*
X0213345Y0011559D01*
X0213259Y0011419D01*
X0213169Y0011282D01*
X0213076Y0011146D01*
X0212980Y0011013D01*
X0212880Y0010882D01*
X0212778Y0010754D01*
X0212672Y0010628D01*
X0212563Y0010505D01*
X0212451Y0010385D01*
X0212337Y0010267D01*
X0212219Y0010153D01*
X0212099Y0010041D01*
X0211976Y0009932D01*
X0211850Y0009826D01*
X0211722Y0009724D01*
X0211591Y0009624D01*
X0211458Y0009528D01*
X0211322Y0009435D01*
X0211185Y0009345D01*
X0211045Y0009259D01*
X0210903Y0009177D01*
X0210759Y0009097D01*
X0210613Y0009022D01*
X0210466Y0008950D01*
X0210316Y0008881D01*
X0210165Y0008816D01*
X0210013Y0008755D01*
X0209859Y0008698D01*
X0209703Y0008645D01*
X0209547Y0008595D01*
X0209389Y0008549D01*
X0209230Y0008508D01*
X0209070Y0008470D01*
X0208910Y0008436D01*
X0208748Y0008406D01*
X0208586Y0008379D01*
X0208423Y0008357D01*
X0208260Y0008339D01*
X0208096Y0008325D01*
X0207932Y0008315D01*
X0207768Y0008309D01*
X0207604Y0008307D01*
X0207440Y0008309D01*
X0207276Y0008315D01*
X0207112Y0008325D01*
X0206948Y0008339D01*
X0206785Y0008357D01*
X0206622Y0008379D01*
X0206460Y0008406D01*
X0206298Y0008436D01*
X0206138Y0008470D01*
X0205978Y0008508D01*
X0205819Y0008549D01*
X0205661Y0008595D01*
X0205505Y0008645D01*
X0205349Y0008698D01*
X0205195Y0008755D01*
X0205043Y0008816D01*
X0204892Y0008881D01*
X0204742Y0008950D01*
X0204595Y0009022D01*
X0204449Y0009097D01*
X0204305Y0009177D01*
X0204163Y0009259D01*
X0204023Y0009345D01*
X0203886Y0009435D01*
X0203750Y0009528D01*
X0203617Y0009624D01*
X0203486Y0009724D01*
X0203358Y0009826D01*
X0203232Y0009932D01*
X0203109Y0010041D01*
X0202989Y0010153D01*
X0202871Y0010267D01*
X0202757Y0010385D01*
X0202645Y0010505D01*
X0202536Y0010628D01*
X0202430Y0010754D01*
X0202328Y0010882D01*
X0202228Y0011013D01*
X0202132Y0011146D01*
X0202039Y0011282D01*
X0201949Y0011419D01*
X0201863Y0011559D01*
X0201781Y0011701D01*
X0201701Y0011845D01*
X0201626Y0011991D01*
X0201554Y0012138D01*
X0201485Y0012288D01*
X0201420Y0012439D01*
X0201359Y0012591D01*
X0201302Y0012745D01*
X0201249Y0012901D01*
X0201199Y0013057D01*
X0201153Y0013215D01*
X0201112Y0013374D01*
X0201074Y0013534D01*
X0201040Y0013694D01*
X0201010Y0013856D01*
X0200983Y0014018D01*
X0200961Y0014181D01*
X0200943Y0014344D01*
X0200929Y0014508D01*
X0200919Y0014672D01*
X0200913Y0014836D01*
X0200911Y0015000D01*
D13*
X0153281Y0015500D02*
X0153281Y0012495D01*
X0132021Y0012495D01*
X0132021Y0015500D01*
X0138854Y0016750D02*
X0138854Y0019250D01*
X0146354Y0019250D01*
X0146354Y0016750D01*
X0138854Y0016750D01*
X0138854Y0021750D02*
X0138854Y0024250D01*
X0146354Y0024250D01*
X0146354Y0021750D01*
X0138854Y0021750D01*
X0132021Y0025500D02*
X0132021Y0028480D01*
X0153281Y0028480D01*
X0153281Y0025500D01*
X0144641Y0052520D02*
X0143066Y0052520D01*
X0137948Y0056260D02*
X0137948Y0067480D01*
X0139917Y0067480D01*
X0147594Y0067480D02*
X0149759Y0067480D01*
X0149759Y0056063D01*
X0113281Y0028480D02*
X0113281Y0025500D01*
X0113281Y0028480D02*
X0092021Y0028480D01*
X0092021Y0025500D01*
X0098854Y0024250D02*
X0098854Y0021750D01*
X0106354Y0021750D01*
X0106354Y0024250D01*
X0098854Y0024250D01*
X0098854Y0019250D02*
X0106354Y0019250D01*
X0106354Y0016750D01*
X0098854Y0016750D01*
X0098854Y0019250D01*
X0092021Y0015500D02*
X0092021Y0012495D01*
X0113281Y0012495D01*
X0113281Y0015500D01*
X0105967Y0080781D02*
X0105969Y0080833D01*
X0105975Y0080885D01*
X0105985Y0080937D01*
X0105998Y0080987D01*
X0106015Y0081036D01*
X0106036Y0081084D01*
X0106061Y0081131D01*
X0106088Y0081175D01*
X0106119Y0081217D01*
X0106154Y0081256D01*
X0106191Y0081293D01*
X0106230Y0081328D01*
X0106272Y0081359D01*
X0106317Y0081386D01*
X0106363Y0081411D01*
X0106411Y0081432D01*
X0106460Y0081449D01*
X0106510Y0081462D01*
X0106562Y0081472D01*
X0106614Y0081478D01*
X0106666Y0081480D01*
X0106718Y0081478D01*
X0106770Y0081472D01*
X0106822Y0081462D01*
X0106872Y0081449D01*
X0106921Y0081432D01*
X0106969Y0081411D01*
X0107016Y0081386D01*
X0107060Y0081359D01*
X0107102Y0081328D01*
X0107141Y0081293D01*
X0107178Y0081256D01*
X0107213Y0081217D01*
X0107244Y0081175D01*
X0107271Y0081130D01*
X0107296Y0081084D01*
X0107317Y0081036D01*
X0107334Y0080987D01*
X0107347Y0080937D01*
X0107357Y0080885D01*
X0107363Y0080833D01*
X0107365Y0080781D01*
X0107363Y0080729D01*
X0107357Y0080677D01*
X0107347Y0080625D01*
X0107334Y0080575D01*
X0107317Y0080526D01*
X0107296Y0080478D01*
X0107271Y0080431D01*
X0107244Y0080387D01*
X0107213Y0080345D01*
X0107178Y0080306D01*
X0107141Y0080269D01*
X0107102Y0080234D01*
X0107060Y0080203D01*
X0107015Y0080176D01*
X0106969Y0080151D01*
X0106921Y0080130D01*
X0106872Y0080113D01*
X0106822Y0080100D01*
X0106770Y0080090D01*
X0106718Y0080084D01*
X0106666Y0080082D01*
X0106614Y0080084D01*
X0106562Y0080090D01*
X0106510Y0080100D01*
X0106460Y0080113D01*
X0106411Y0080130D01*
X0106363Y0080151D01*
X0106316Y0080176D01*
X0106272Y0080203D01*
X0106230Y0080234D01*
X0106191Y0080269D01*
X0106154Y0080306D01*
X0106119Y0080345D01*
X0106088Y0080387D01*
X0106061Y0080432D01*
X0106036Y0080478D01*
X0106015Y0080526D01*
X0105998Y0080575D01*
X0105985Y0080625D01*
X0105975Y0080677D01*
X0105969Y0080729D01*
X0105967Y0080781D01*
X0097141Y0112520D02*
X0095566Y0112520D01*
X0090448Y0116260D02*
X0090448Y0127480D01*
X0092417Y0127480D01*
X0100094Y0127480D02*
X0102259Y0127480D01*
X0102259Y0116063D01*
X0135967Y0140781D02*
X0135969Y0140833D01*
X0135975Y0140885D01*
X0135985Y0140937D01*
X0135998Y0140987D01*
X0136015Y0141036D01*
X0136036Y0141084D01*
X0136061Y0141131D01*
X0136088Y0141175D01*
X0136119Y0141217D01*
X0136154Y0141256D01*
X0136191Y0141293D01*
X0136230Y0141328D01*
X0136272Y0141359D01*
X0136317Y0141386D01*
X0136363Y0141411D01*
X0136411Y0141432D01*
X0136460Y0141449D01*
X0136510Y0141462D01*
X0136562Y0141472D01*
X0136614Y0141478D01*
X0136666Y0141480D01*
X0136718Y0141478D01*
X0136770Y0141472D01*
X0136822Y0141462D01*
X0136872Y0141449D01*
X0136921Y0141432D01*
X0136969Y0141411D01*
X0137016Y0141386D01*
X0137060Y0141359D01*
X0137102Y0141328D01*
X0137141Y0141293D01*
X0137178Y0141256D01*
X0137213Y0141217D01*
X0137244Y0141175D01*
X0137271Y0141130D01*
X0137296Y0141084D01*
X0137317Y0141036D01*
X0137334Y0140987D01*
X0137347Y0140937D01*
X0137357Y0140885D01*
X0137363Y0140833D01*
X0137365Y0140781D01*
X0137363Y0140729D01*
X0137357Y0140677D01*
X0137347Y0140625D01*
X0137334Y0140575D01*
X0137317Y0140526D01*
X0137296Y0140478D01*
X0137271Y0140431D01*
X0137244Y0140387D01*
X0137213Y0140345D01*
X0137178Y0140306D01*
X0137141Y0140269D01*
X0137102Y0140234D01*
X0137060Y0140203D01*
X0137015Y0140176D01*
X0136969Y0140151D01*
X0136921Y0140130D01*
X0136872Y0140113D01*
X0136822Y0140100D01*
X0136770Y0140090D01*
X0136718Y0140084D01*
X0136666Y0140082D01*
X0136614Y0140084D01*
X0136562Y0140090D01*
X0136510Y0140100D01*
X0136460Y0140113D01*
X0136411Y0140130D01*
X0136363Y0140151D01*
X0136316Y0140176D01*
X0136272Y0140203D01*
X0136230Y0140234D01*
X0136191Y0140269D01*
X0136154Y0140306D01*
X0136119Y0140345D01*
X0136088Y0140387D01*
X0136061Y0140432D01*
X0136036Y0140478D01*
X0136015Y0140526D01*
X0135998Y0140575D01*
X0135985Y0140625D01*
X0135975Y0140677D01*
X0135969Y0140729D01*
X0135967Y0140781D01*
X0162792Y0127480D02*
X0162792Y0116260D01*
X0167910Y0112520D02*
X0169485Y0112520D01*
X0174603Y0116063D02*
X0174603Y0127480D01*
X0172437Y0127480D01*
X0164760Y0127480D02*
X0162792Y0127480D01*
X0060967Y0140781D02*
X0060969Y0140833D01*
X0060975Y0140885D01*
X0060985Y0140937D01*
X0060998Y0140987D01*
X0061015Y0141036D01*
X0061036Y0141084D01*
X0061061Y0141131D01*
X0061088Y0141175D01*
X0061119Y0141217D01*
X0061154Y0141256D01*
X0061191Y0141293D01*
X0061230Y0141328D01*
X0061272Y0141359D01*
X0061317Y0141386D01*
X0061363Y0141411D01*
X0061411Y0141432D01*
X0061460Y0141449D01*
X0061510Y0141462D01*
X0061562Y0141472D01*
X0061614Y0141478D01*
X0061666Y0141480D01*
X0061718Y0141478D01*
X0061770Y0141472D01*
X0061822Y0141462D01*
X0061872Y0141449D01*
X0061921Y0141432D01*
X0061969Y0141411D01*
X0062016Y0141386D01*
X0062060Y0141359D01*
X0062102Y0141328D01*
X0062141Y0141293D01*
X0062178Y0141256D01*
X0062213Y0141217D01*
X0062244Y0141175D01*
X0062271Y0141130D01*
X0062296Y0141084D01*
X0062317Y0141036D01*
X0062334Y0140987D01*
X0062347Y0140937D01*
X0062357Y0140885D01*
X0062363Y0140833D01*
X0062365Y0140781D01*
X0062363Y0140729D01*
X0062357Y0140677D01*
X0062347Y0140625D01*
X0062334Y0140575D01*
X0062317Y0140526D01*
X0062296Y0140478D01*
X0062271Y0140431D01*
X0062244Y0140387D01*
X0062213Y0140345D01*
X0062178Y0140306D01*
X0062141Y0140269D01*
X0062102Y0140234D01*
X0062060Y0140203D01*
X0062015Y0140176D01*
X0061969Y0140151D01*
X0061921Y0140130D01*
X0061872Y0140113D01*
X0061822Y0140100D01*
X0061770Y0140090D01*
X0061718Y0140084D01*
X0061666Y0140082D01*
X0061614Y0140084D01*
X0061562Y0140090D01*
X0061510Y0140100D01*
X0061460Y0140113D01*
X0061411Y0140130D01*
X0061363Y0140151D01*
X0061316Y0140176D01*
X0061272Y0140203D01*
X0061230Y0140234D01*
X0061191Y0140269D01*
X0061154Y0140306D01*
X0061119Y0140345D01*
X0061088Y0140387D01*
X0061061Y0140432D01*
X0061036Y0140478D01*
X0061015Y0140526D01*
X0060998Y0140575D01*
X0060985Y0140625D01*
X0060975Y0140677D01*
X0060969Y0140729D01*
X0060967Y0140781D01*
D14*
X0053229Y0146130D02*
X0053229Y0146370D01*
X0052724Y0125000D02*
X0052483Y0125000D01*
X0066354Y0107620D02*
X0066354Y0107380D01*
X0092604Y0085120D02*
X0092604Y0084880D01*
X0087724Y0070000D02*
X0087483Y0070000D01*
X0112604Y0045120D02*
X0112604Y0044880D01*
X0142604Y0084880D02*
X0142604Y0085120D01*
X0137604Y0109880D02*
X0137604Y0110120D01*
X0123974Y0130000D02*
X0123733Y0130000D01*
X0132604Y0147380D02*
X0132604Y0147620D01*
X0167604Y0145120D02*
X0167604Y0144880D01*
X0092604Y0144880D02*
X0092604Y0145120D01*
D15*
X0174357Y0028510D03*
X0174357Y0028302D03*
X0174357Y0028163D03*
X0174357Y0010802D03*
X0174357Y0010663D03*
X0174357Y0010524D03*
D16*
X0174357Y0010593D03*
X0174357Y0010732D03*
X0174357Y0010871D03*
X0174357Y0028232D03*
X0174357Y0028371D03*
X0174357Y0028440D03*
D17*
X0173627Y0028093D03*
X0173627Y0027954D03*
X0173627Y0027815D03*
X0173627Y0027746D03*
X0173627Y0027607D03*
X0173627Y0027468D03*
X0173627Y0027329D03*
X0173627Y0027190D03*
X0173627Y0027051D03*
X0173627Y0026982D03*
X0173627Y0026843D03*
X0173627Y0026704D03*
X0173627Y0026565D03*
X0173627Y0026496D03*
X0173627Y0026357D03*
X0172167Y0026357D03*
X0172167Y0026218D03*
X0172167Y0026079D03*
X0172167Y0025940D03*
X0172167Y0025871D03*
X0172167Y0025732D03*
X0172167Y0025593D03*
X0172167Y0025454D03*
X0172167Y0025315D03*
X0172167Y0025246D03*
X0172167Y0025107D03*
X0172167Y0024968D03*
X0172167Y0024829D03*
X0172167Y0024690D03*
X0172167Y0024551D03*
X0172167Y0024482D03*
X0172167Y0026496D03*
X0172167Y0026565D03*
X0172167Y0026704D03*
X0172167Y0026843D03*
X0172167Y0026982D03*
X0172167Y0027051D03*
X0172167Y0027190D03*
X0172167Y0027329D03*
X0172167Y0027468D03*
X0172167Y0027607D03*
X0172167Y0027746D03*
X0172167Y0027815D03*
X0172167Y0027954D03*
X0172167Y0028093D03*
X0172167Y0028232D03*
X0172167Y0028371D03*
X0172167Y0028440D03*
X0172167Y0028579D03*
X0172167Y0028718D03*
X0172167Y0028857D03*
X0172167Y0028996D03*
X0172167Y0029065D03*
X0172167Y0029204D03*
X0172167Y0029343D03*
X0172167Y0029482D03*
X0172167Y0029621D03*
X0172167Y0029690D03*
X0172167Y0029829D03*
X0172167Y0029968D03*
X0172167Y0030107D03*
X0172167Y0030176D03*
X0172167Y0030315D03*
X0172167Y0030454D03*
X0172167Y0030593D03*
X0172167Y0030732D03*
X0172167Y0030801D03*
X0172167Y0030940D03*
X0172167Y0031079D03*
X0172167Y0031218D03*
X0172167Y0031357D03*
X0172167Y0031496D03*
X0172167Y0031565D03*
X0172167Y0031704D03*
X0172167Y0031843D03*
X0172167Y0031982D03*
X0172167Y0032121D03*
X0172167Y0032190D03*
X0172167Y0032329D03*
X0172167Y0032468D03*
X0172167Y0032607D03*
X0172167Y0032746D03*
X0172167Y0032815D03*
X0172167Y0032954D03*
X0172167Y0033093D03*
X0172167Y0033232D03*
X0172167Y0033371D03*
X0172167Y0033440D03*
X0172167Y0033579D03*
X0172167Y0033718D03*
X0172167Y0033857D03*
X0172167Y0033996D03*
X0172167Y0034065D03*
X0172167Y0034204D03*
X0172167Y0034343D03*
X0172167Y0034482D03*
X0172167Y0034621D03*
X0172167Y0034690D03*
X0172167Y0034829D03*
X0172167Y0034968D03*
X0173627Y0021565D03*
X0173627Y0021496D03*
X0173627Y0021357D03*
X0173627Y0021218D03*
X0173627Y0021079D03*
X0173627Y0020940D03*
X0173627Y0020871D03*
X0173627Y0020732D03*
X0173627Y0020593D03*
X0173627Y0020454D03*
X0173627Y0020315D03*
X0173627Y0020246D03*
X0173627Y0020107D03*
X0173627Y0019968D03*
X0173627Y0019829D03*
X0173627Y0019690D03*
X0173627Y0019551D03*
X0173627Y0019482D03*
X0173627Y0019343D03*
X0173627Y0019204D03*
X0173627Y0019065D03*
X0173627Y0018996D03*
X0173627Y0018857D03*
X0173627Y0018718D03*
X0173627Y0018579D03*
X0173627Y0018440D03*
X0173627Y0018301D03*
X0173627Y0018232D03*
X0173627Y0018093D03*
X0173627Y0017954D03*
X0173627Y0017815D03*
X0173627Y0017746D03*
X0173627Y0017607D03*
X0173627Y0017468D03*
X0173627Y0017329D03*
X0173627Y0017190D03*
X0173627Y0017121D03*
X0173627Y0016982D03*
X0173627Y0016843D03*
X0173627Y0016704D03*
X0173627Y0016565D03*
X0173627Y0016496D03*
X0173627Y0016357D03*
X0173627Y0016218D03*
X0173627Y0016079D03*
X0173627Y0015940D03*
X0173627Y0015801D03*
X0173627Y0015732D03*
X0173627Y0015593D03*
X0173627Y0015454D03*
X0173627Y0015315D03*
X0173627Y0015246D03*
X0173627Y0015107D03*
X0173627Y0014968D03*
X0173627Y0014829D03*
X0173627Y0014690D03*
X0173627Y0014621D03*
X0173627Y0014482D03*
X0173627Y0014343D03*
X0173627Y0014204D03*
X0173627Y0014065D03*
X0173627Y0013996D03*
X0173627Y0013857D03*
X0173627Y0013718D03*
X0173627Y0013579D03*
X0173627Y0013440D03*
X0173627Y0013371D03*
X0173627Y0013232D03*
X0173627Y0013093D03*
X0173627Y0012954D03*
X0173627Y0012815D03*
X0173627Y0012746D03*
X0173627Y0012607D03*
X0173627Y0012468D03*
X0173627Y0012329D03*
X0173627Y0012190D03*
X0173627Y0012051D03*
X0173627Y0011982D03*
X0173627Y0011843D03*
X0173627Y0011704D03*
X0173627Y0011565D03*
X0173627Y0011426D03*
X0173627Y0011357D03*
X0173627Y0011218D03*
X0173627Y0011079D03*
X0173627Y0010940D03*
X0172167Y0017815D03*
X0172167Y0017954D03*
X0172167Y0018093D03*
X0172167Y0018232D03*
X0172167Y0018301D03*
X0172167Y0018440D03*
X0172167Y0018579D03*
X0172167Y0018718D03*
X0172167Y0018857D03*
X0172167Y0018996D03*
X0172167Y0019065D03*
X0172167Y0019204D03*
X0172167Y0019343D03*
X0172167Y0019482D03*
X0172167Y0019551D03*
X0172167Y0019690D03*
D18*
X0175082Y0018718D03*
X0175082Y0018579D03*
X0175082Y0018440D03*
X0175082Y0018301D03*
X0175082Y0018232D03*
X0175082Y0018093D03*
X0175082Y0017954D03*
X0175082Y0017815D03*
X0175082Y0017746D03*
X0175082Y0017607D03*
X0175082Y0017468D03*
X0175082Y0017329D03*
X0175082Y0017190D03*
X0175082Y0017121D03*
X0175082Y0016982D03*
X0175082Y0016843D03*
X0175082Y0016704D03*
X0175082Y0016565D03*
X0175082Y0016496D03*
X0175082Y0016357D03*
X0175082Y0016218D03*
X0175082Y0016079D03*
X0175082Y0015940D03*
X0175082Y0015801D03*
X0175082Y0015732D03*
X0175082Y0015593D03*
X0175082Y0015454D03*
X0175082Y0015315D03*
X0175082Y0015246D03*
X0175082Y0015107D03*
X0175082Y0014968D03*
X0175082Y0014829D03*
X0175082Y0014690D03*
X0175082Y0014621D03*
X0175082Y0014482D03*
X0175082Y0014343D03*
X0175082Y0014204D03*
X0175082Y0014065D03*
X0175082Y0013996D03*
X0175082Y0013857D03*
X0175082Y0013718D03*
X0175082Y0013579D03*
X0175082Y0013440D03*
X0175082Y0013371D03*
X0175082Y0013232D03*
X0175082Y0013093D03*
X0175082Y0012954D03*
X0175082Y0012815D03*
X0175082Y0012746D03*
X0175082Y0012607D03*
X0175082Y0012468D03*
X0175082Y0012329D03*
X0175082Y0012190D03*
X0175082Y0012051D03*
X0175082Y0011982D03*
X0175082Y0011843D03*
X0175082Y0011704D03*
X0175082Y0011565D03*
X0175082Y0011426D03*
X0175082Y0011357D03*
X0175082Y0011218D03*
X0175082Y0011079D03*
X0175082Y0010940D03*
X0175082Y0020871D03*
X0175082Y0020940D03*
X0175082Y0021079D03*
X0175082Y0021218D03*
X0175082Y0021357D03*
X0175082Y0021496D03*
X0175082Y0021565D03*
X0175082Y0021704D03*
X0175082Y0021843D03*
X0175082Y0021982D03*
X0175082Y0022121D03*
X0175082Y0022190D03*
X0175082Y0022329D03*
X0175082Y0022468D03*
X0175082Y0022607D03*
X0175082Y0022746D03*
X0175082Y0022815D03*
X0175082Y0022954D03*
X0175082Y0023093D03*
X0175082Y0023232D03*
X0175082Y0023371D03*
X0175082Y0023440D03*
X0175082Y0023579D03*
X0175082Y0027815D03*
X0175082Y0027954D03*
X0175082Y0028093D03*
D19*
X0173627Y0028024D03*
X0173627Y0027885D03*
X0173627Y0027677D03*
X0173627Y0027538D03*
X0173627Y0027399D03*
X0173627Y0027260D03*
X0173627Y0027121D03*
X0173627Y0026913D03*
X0173627Y0026774D03*
X0173627Y0026635D03*
X0173627Y0026427D03*
X0172167Y0026427D03*
X0172167Y0026288D03*
X0172167Y0026149D03*
X0172167Y0026010D03*
X0172167Y0025802D03*
X0172167Y0025663D03*
X0172167Y0025524D03*
X0172167Y0025385D03*
X0172167Y0025177D03*
X0172167Y0025038D03*
X0172167Y0024899D03*
X0172167Y0024760D03*
X0172167Y0024621D03*
X0172167Y0026635D03*
X0172167Y0026774D03*
X0172167Y0026913D03*
X0172167Y0027121D03*
X0172167Y0027260D03*
X0172167Y0027399D03*
X0172167Y0027538D03*
X0172167Y0027677D03*
X0172167Y0027885D03*
X0172167Y0028024D03*
X0172167Y0028163D03*
X0172167Y0028302D03*
X0172167Y0028510D03*
X0172167Y0028649D03*
X0172167Y0028788D03*
X0172167Y0028927D03*
X0172167Y0029135D03*
X0172167Y0029274D03*
X0172167Y0029413D03*
X0172167Y0029552D03*
X0172167Y0029760D03*
X0172167Y0029899D03*
X0172167Y0030038D03*
X0172167Y0030246D03*
X0172167Y0030385D03*
X0172167Y0030524D03*
X0172167Y0030663D03*
X0172167Y0030871D03*
X0172167Y0031010D03*
X0172167Y0031149D03*
X0172167Y0031288D03*
X0172167Y0031427D03*
X0172167Y0031635D03*
X0172167Y0031774D03*
X0172167Y0031913D03*
X0172167Y0032052D03*
X0172167Y0032260D03*
X0172167Y0032399D03*
X0172167Y0032538D03*
X0172167Y0032677D03*
X0172167Y0032885D03*
X0172167Y0033024D03*
X0172167Y0033163D03*
X0172167Y0033302D03*
X0172167Y0033510D03*
X0172167Y0033649D03*
X0172167Y0033788D03*
X0172167Y0033927D03*
X0172167Y0034135D03*
X0172167Y0034274D03*
X0172167Y0034413D03*
X0172167Y0034552D03*
X0172167Y0034760D03*
X0172167Y0034899D03*
X0172167Y0035038D03*
X0173627Y0021427D03*
X0173627Y0021288D03*
X0173627Y0021149D03*
X0173627Y0021010D03*
X0173627Y0020802D03*
X0173627Y0020663D03*
X0173627Y0020524D03*
X0173627Y0020385D03*
X0173627Y0020177D03*
X0173627Y0020038D03*
X0173627Y0019899D03*
X0173627Y0019760D03*
X0173627Y0019621D03*
X0173627Y0019413D03*
X0173627Y0019274D03*
X0173627Y0019135D03*
X0173627Y0018927D03*
X0173627Y0018788D03*
X0173627Y0018649D03*
X0173627Y0018510D03*
X0173627Y0018371D03*
X0173627Y0018163D03*
X0173627Y0018024D03*
X0173627Y0017885D03*
X0173627Y0017677D03*
X0173627Y0017538D03*
X0173627Y0017399D03*
X0173627Y0017260D03*
X0173627Y0017052D03*
X0173627Y0016913D03*
X0173627Y0016774D03*
X0173627Y0016635D03*
X0173627Y0016427D03*
X0173627Y0016288D03*
X0173627Y0016149D03*
X0173627Y0016010D03*
X0173627Y0015871D03*
X0173627Y0015663D03*
X0173627Y0015524D03*
X0173627Y0015385D03*
X0173627Y0015177D03*
X0173627Y0015038D03*
X0173627Y0014899D03*
X0173627Y0014760D03*
X0173627Y0014552D03*
X0173627Y0014413D03*
X0173627Y0014274D03*
X0173627Y0014135D03*
X0173627Y0013927D03*
X0173627Y0013788D03*
X0173627Y0013649D03*
X0173627Y0013510D03*
X0173627Y0013302D03*
X0173627Y0013163D03*
X0173627Y0013024D03*
X0173627Y0012885D03*
X0173627Y0012677D03*
X0173627Y0012538D03*
X0173627Y0012399D03*
X0173627Y0012260D03*
X0173627Y0012121D03*
X0173627Y0011913D03*
X0173627Y0011774D03*
X0173627Y0011635D03*
X0173627Y0011496D03*
X0173627Y0011288D03*
X0173627Y0011149D03*
X0173627Y0011010D03*
X0172167Y0017885D03*
X0172167Y0018024D03*
X0172167Y0018163D03*
X0172167Y0018371D03*
X0172167Y0018510D03*
X0172167Y0018649D03*
X0172167Y0018788D03*
X0172167Y0018927D03*
X0172167Y0019135D03*
X0172167Y0019274D03*
X0172167Y0019413D03*
X0172167Y0019621D03*
X0172167Y0019760D03*
D20*
X0175082Y0018788D03*
X0175082Y0018649D03*
X0175082Y0018510D03*
X0175082Y0018371D03*
X0175082Y0018163D03*
X0175082Y0018024D03*
X0175082Y0017885D03*
X0175082Y0017677D03*
X0175082Y0017538D03*
X0175082Y0017399D03*
X0175082Y0017260D03*
X0175082Y0017052D03*
X0175082Y0016913D03*
X0175082Y0016774D03*
X0175082Y0016635D03*
X0175082Y0016427D03*
X0175082Y0016288D03*
X0175082Y0016149D03*
X0175082Y0016010D03*
X0175082Y0015871D03*
X0175082Y0015663D03*
X0175082Y0015524D03*
X0175082Y0015385D03*
X0175082Y0015177D03*
X0175082Y0015038D03*
X0175082Y0014899D03*
X0175082Y0014760D03*
X0175082Y0014552D03*
X0175082Y0014413D03*
X0175082Y0014274D03*
X0175082Y0014135D03*
X0175082Y0013927D03*
X0175082Y0013788D03*
X0175082Y0013649D03*
X0175082Y0013510D03*
X0175082Y0013302D03*
X0175082Y0013163D03*
X0175082Y0013024D03*
X0175082Y0012885D03*
X0175082Y0012677D03*
X0175082Y0012538D03*
X0175082Y0012399D03*
X0175082Y0012260D03*
X0175082Y0012121D03*
X0175082Y0011913D03*
X0175082Y0011774D03*
X0175082Y0011635D03*
X0175082Y0011496D03*
X0175082Y0011288D03*
X0175082Y0011149D03*
X0175082Y0011010D03*
X0175082Y0021010D03*
X0175082Y0021149D03*
X0175082Y0021288D03*
X0175082Y0021427D03*
X0175082Y0021635D03*
X0175082Y0021774D03*
X0175082Y0021913D03*
X0175082Y0022052D03*
X0175082Y0022260D03*
X0175082Y0022399D03*
X0175082Y0022538D03*
X0175082Y0022677D03*
X0175082Y0022885D03*
X0175082Y0023024D03*
X0175082Y0023163D03*
X0175082Y0023302D03*
X0175082Y0023510D03*
X0175082Y0027885D03*
X0175082Y0028024D03*
D21*
X0171437Y0035177D03*
X0171437Y0035385D03*
X0171437Y0017677D03*
X0171437Y0017538D03*
X0171437Y0017399D03*
D22*
X0171437Y0017468D03*
X0171437Y0017607D03*
X0171437Y0017746D03*
X0171437Y0035107D03*
X0171437Y0035246D03*
X0171437Y0035315D03*
X0171437Y0035454D03*
D23*
X0163872Y0023788D03*
X0163872Y0023649D03*
X0163872Y0023510D03*
X0163872Y0023302D03*
X0163872Y0022885D03*
X0163872Y0022677D03*
X0163872Y0022538D03*
X0163872Y0022399D03*
X0168102Y0017677D03*
X0181782Y0021774D03*
X0181782Y0021913D03*
X0181852Y0022052D03*
X0181852Y0022260D03*
X0181852Y0022399D03*
X0181852Y0023510D03*
X0181852Y0023649D03*
X0181852Y0023788D03*
X0181782Y0023996D03*
D24*
X0178102Y0017677D03*
D25*
X0168072Y0017746D03*
D26*
X0164842Y0020246D03*
X0164772Y0020315D03*
X0164702Y0025732D03*
X0170122Y0025940D03*
X0178102Y0017746D03*
X0180952Y0025732D03*
D27*
X0176087Y0019829D03*
X0168107Y0017815D03*
X0165467Y0019829D03*
D28*
X0170712Y0018232D03*
X0170712Y0018093D03*
X0170712Y0017954D03*
X0170712Y0017815D03*
X0170712Y0022607D03*
X0170712Y0022746D03*
X0170712Y0022815D03*
X0170712Y0022954D03*
X0170712Y0023093D03*
X0170712Y0023232D03*
X0170712Y0023371D03*
X0170712Y0023440D03*
X0170712Y0023579D03*
X0170712Y0023718D03*
X0170712Y0023857D03*
X0170712Y0023926D03*
X0170712Y0024065D03*
X0170712Y0024204D03*
X0170712Y0024343D03*
X0170712Y0024482D03*
X0170712Y0024551D03*
X0170712Y0024690D03*
X0170712Y0024829D03*
X0170712Y0024968D03*
X0170712Y0025107D03*
X0170712Y0027190D03*
X0170712Y0027329D03*
X0170712Y0027468D03*
X0170712Y0027607D03*
X0170712Y0027746D03*
X0170712Y0027815D03*
X0170712Y0027954D03*
X0170712Y0028093D03*
X0170712Y0028232D03*
X0170712Y0028371D03*
X0170712Y0028440D03*
X0170712Y0028579D03*
X0170712Y0028718D03*
X0170712Y0028857D03*
X0170712Y0028996D03*
X0170712Y0029065D03*
X0170712Y0029204D03*
X0170712Y0029343D03*
X0170712Y0029482D03*
X0170712Y0029621D03*
X0170712Y0029690D03*
X0170712Y0029829D03*
X0170712Y0029968D03*
X0170712Y0030107D03*
X0170712Y0030176D03*
X0170712Y0030315D03*
X0170712Y0030454D03*
X0170712Y0030593D03*
X0170712Y0030732D03*
X0170712Y0030801D03*
X0170712Y0030940D03*
X0170712Y0031079D03*
X0170712Y0031218D03*
X0170712Y0031357D03*
X0170712Y0031496D03*
X0170712Y0031565D03*
X0170712Y0031704D03*
X0170712Y0031843D03*
X0170712Y0031982D03*
X0170712Y0032121D03*
X0170712Y0032190D03*
X0170712Y0032329D03*
X0170712Y0032468D03*
X0170712Y0032607D03*
X0170712Y0032746D03*
X0170712Y0032815D03*
X0170712Y0032954D03*
X0170712Y0033093D03*
X0170712Y0033232D03*
X0170712Y0033371D03*
X0170712Y0033440D03*
X0170712Y0033579D03*
X0170712Y0033718D03*
X0170712Y0033857D03*
X0170712Y0033996D03*
X0170712Y0034065D03*
X0170712Y0034204D03*
X0170712Y0034343D03*
X0170712Y0034482D03*
X0170712Y0034621D03*
X0170712Y0034690D03*
X0170712Y0034829D03*
X0170712Y0034968D03*
D29*
X0167617Y0028232D03*
X0165117Y0026079D03*
X0165187Y0019968D03*
X0178107Y0017815D03*
X0180677Y0019968D03*
X0180537Y0026079D03*
D30*
X0168107Y0017885D03*
D31*
X0170712Y0017885D03*
X0170712Y0018024D03*
X0170712Y0018163D03*
X0170712Y0022538D03*
X0170712Y0022677D03*
X0170712Y0022885D03*
X0170712Y0023024D03*
X0170712Y0023163D03*
X0170712Y0023302D03*
X0170712Y0023510D03*
X0170712Y0023649D03*
X0170712Y0023788D03*
X0170712Y0023996D03*
X0170712Y0024135D03*
X0170712Y0024274D03*
X0170712Y0024413D03*
X0170712Y0024621D03*
X0170712Y0024760D03*
X0170712Y0024899D03*
X0170712Y0025038D03*
X0170712Y0025177D03*
X0170712Y0027260D03*
X0170712Y0027399D03*
X0170712Y0027538D03*
X0170712Y0027677D03*
X0170712Y0027885D03*
X0170712Y0028024D03*
X0170712Y0028163D03*
X0170712Y0028302D03*
X0170712Y0028510D03*
X0170712Y0028649D03*
X0170712Y0028788D03*
X0170712Y0028927D03*
X0170712Y0029135D03*
X0170712Y0029274D03*
X0170712Y0029413D03*
X0170712Y0029552D03*
X0170712Y0029760D03*
X0170712Y0029899D03*
X0170712Y0030038D03*
X0170712Y0030246D03*
X0170712Y0030385D03*
X0170712Y0030524D03*
X0170712Y0030663D03*
X0170712Y0030871D03*
X0170712Y0031010D03*
X0170712Y0031149D03*
X0170712Y0031288D03*
X0170712Y0031427D03*
X0170712Y0031635D03*
X0170712Y0031774D03*
X0170712Y0031913D03*
X0170712Y0032052D03*
X0170712Y0032260D03*
X0170712Y0032399D03*
X0170712Y0032538D03*
X0170712Y0032677D03*
X0170712Y0032885D03*
X0170712Y0033024D03*
X0170712Y0033163D03*
X0170712Y0033302D03*
X0170712Y0033510D03*
X0170712Y0033649D03*
X0170712Y0033788D03*
X0170712Y0033927D03*
X0170712Y0034135D03*
X0170712Y0034274D03*
X0170712Y0034413D03*
X0170712Y0034552D03*
X0170712Y0034760D03*
X0170712Y0034899D03*
X0170712Y0035038D03*
D32*
X0167617Y0028163D03*
X0178107Y0017885D03*
D33*
X0171092Y0020732D03*
X0170952Y0020593D03*
X0168102Y0017954D03*
X0174842Y0025454D03*
D34*
X0178107Y0017954D03*
D35*
X0168102Y0018024D03*
D36*
X0171367Y0021010D03*
X0174357Y0025038D03*
X0178107Y0018024D03*
D37*
X0178067Y0018232D03*
X0168137Y0018093D03*
D38*
X0172202Y0022329D03*
X0173592Y0023718D03*
X0173662Y0024343D03*
X0174982Y0025593D03*
X0178102Y0018093D03*
D39*
X0168137Y0018163D03*
D40*
X0178102Y0018163D03*
D41*
X0168142Y0018232D03*
D42*
X0168352Y0018301D03*
X0167652Y0027329D03*
D43*
X0178102Y0018301D03*
D44*
X0168317Y0018371D03*
D45*
X0167652Y0027677D03*
X0178072Y0018371D03*
D46*
X0168247Y0018440D03*
D47*
X0178107Y0018440D03*
D48*
X0168212Y0018510D03*
D49*
X0178072Y0018510D03*
D50*
X0168177Y0018579D03*
D51*
X0167652Y0027468D03*
X0175852Y0026218D03*
X0178072Y0018579D03*
D52*
X0177617Y0027399D03*
X0168107Y0018649D03*
D53*
X0167652Y0027399D03*
X0178072Y0018649D03*
D54*
X0168102Y0018718D03*
D55*
X0178072Y0018718D03*
D56*
X0177622Y0027260D03*
X0168102Y0018788D03*
D57*
X0178072Y0018788D03*
D58*
X0168102Y0018857D03*
D59*
X0177827Y0018857D03*
D60*
X0177962Y0019135D03*
X0177622Y0027121D03*
X0168102Y0018927D03*
D61*
X0177862Y0018927D03*
D62*
X0168102Y0018996D03*
X0167762Y0026843D03*
D63*
X0177897Y0018996D03*
D64*
X0178102Y0019482D03*
X0177622Y0026982D03*
X0168102Y0019065D03*
D65*
X0177927Y0019065D03*
D66*
X0168102Y0019135D03*
X0167622Y0026427D03*
D67*
X0168102Y0019204D03*
D68*
X0177997Y0019204D03*
D69*
X0168107Y0019274D03*
D70*
X0178032Y0019274D03*
D71*
X0168072Y0019343D03*
D72*
X0178067Y0019343D03*
D73*
X0177652Y0026635D03*
X0168072Y0019413D03*
D74*
X0178067Y0019413D03*
D75*
X0177617Y0026565D03*
X0168107Y0019482D03*
D76*
X0168107Y0019551D03*
D77*
X0167657Y0026496D03*
X0167657Y0026565D03*
X0178137Y0019551D03*
D78*
X0168107Y0019621D03*
D79*
X0178137Y0019621D03*
X0177657Y0026913D03*
D80*
X0177652Y0026357D03*
X0168072Y0019690D03*
D81*
X0178172Y0019690D03*
D82*
X0168107Y0019760D03*
D83*
X0176332Y0019760D03*
X0180082Y0019760D03*
D84*
X0169977Y0019829D03*
D85*
X0180362Y0019829D03*
D86*
X0165292Y0019899D03*
D87*
X0170152Y0019899D03*
D88*
X0175917Y0019899D03*
D89*
X0180537Y0019899D03*
D90*
X0175537Y0026079D03*
X0170257Y0019968D03*
D91*
X0175812Y0019968D03*
D92*
X0180642Y0026010D03*
X0165012Y0026010D03*
X0165082Y0020038D03*
D93*
X0170362Y0020038D03*
D94*
X0175707Y0020038D03*
D95*
X0180742Y0020038D03*
D96*
X0180847Y0020107D03*
X0180707Y0025940D03*
X0164947Y0025940D03*
X0165017Y0020107D03*
D97*
X0170427Y0020107D03*
D98*
X0175637Y0020107D03*
X0181057Y0020315D03*
X0181057Y0025593D03*
X0164667Y0020454D03*
D99*
X0164912Y0020177D03*
D100*
X0170497Y0020177D03*
D101*
X0175567Y0020177D03*
X0164597Y0020524D03*
D102*
X0180917Y0020177D03*
X0180917Y0025802D03*
D103*
X0170567Y0020246D03*
D104*
X0175497Y0020246D03*
X0181337Y0020732D03*
X0181407Y0025107D03*
X0164387Y0025315D03*
X0164317Y0020940D03*
X0164387Y0020871D03*
X0164457Y0020732D03*
D105*
X0180987Y0020246D03*
D106*
X0172237Y0022468D03*
X0170637Y0020315D03*
D107*
X0175427Y0020315D03*
X0181477Y0020940D03*
X0181477Y0024968D03*
X0164177Y0024968D03*
X0164177Y0021218D03*
D108*
X0164737Y0020385D03*
D109*
X0170672Y0020385D03*
X0172132Y0021774D03*
X0172202Y0022399D03*
X0173592Y0023788D03*
X0175052Y0025663D03*
D110*
X0175397Y0020385D03*
X0181577Y0021149D03*
X0181647Y0021288D03*
X0164147Y0024760D03*
X0164077Y0024621D03*
D111*
X0164632Y0025663D03*
X0167622Y0028302D03*
X0181092Y0020385D03*
D112*
X0173627Y0023857D03*
X0173627Y0023926D03*
X0173627Y0024065D03*
X0173627Y0024204D03*
X0172167Y0022190D03*
X0172167Y0022121D03*
X0172167Y0021982D03*
X0172167Y0021843D03*
X0170777Y0020454D03*
D113*
X0175327Y0020454D03*
X0163937Y0022121D03*
X0163937Y0024065D03*
X0163937Y0024204D03*
D114*
X0164562Y0025593D03*
X0170192Y0025871D03*
X0181162Y0020454D03*
D115*
X0174877Y0025524D03*
X0173627Y0024274D03*
X0173627Y0024135D03*
X0173627Y0023996D03*
X0172167Y0022260D03*
X0172167Y0022052D03*
X0172167Y0021913D03*
X0170847Y0020524D03*
D116*
X0175292Y0020524D03*
D117*
X0181232Y0020524D03*
X0181232Y0025385D03*
X0164422Y0025385D03*
X0164422Y0020802D03*
D118*
X0164527Y0020593D03*
D119*
X0175222Y0020593D03*
D120*
X0181302Y0020593D03*
X0181302Y0025246D03*
X0181302Y0025315D03*
X0164492Y0025454D03*
D121*
X0164492Y0020663D03*
X0170262Y0025802D03*
D122*
X0171022Y0020663D03*
D123*
X0175187Y0020663D03*
D124*
X0181337Y0020663D03*
X0181407Y0020802D03*
X0181337Y0025177D03*
D125*
X0175152Y0020732D03*
X0170642Y0025246D03*
X0167652Y0028371D03*
D126*
X0171162Y0020802D03*
D127*
X0175117Y0020802D03*
D128*
X0171232Y0020871D03*
D129*
X0164282Y0021079D03*
X0164282Y0025107D03*
X0164352Y0025246D03*
X0181442Y0020871D03*
D130*
X0177617Y0028093D03*
X0171437Y0021079D03*
X0171297Y0020940D03*
D131*
X0164282Y0021010D03*
X0164282Y0025177D03*
X0181442Y0025038D03*
X0181512Y0024899D03*
X0181512Y0021010D03*
D132*
X0181542Y0021079D03*
X0181612Y0021218D03*
X0181542Y0024829D03*
D133*
X0164247Y0025038D03*
X0164177Y0024899D03*
X0164177Y0021288D03*
X0164247Y0021149D03*
D134*
X0171472Y0021149D03*
X0171612Y0021288D03*
X0171682Y0021427D03*
X0172512Y0022538D03*
X0172792Y0022885D03*
X0172862Y0023024D03*
X0173002Y0023163D03*
X0173072Y0023302D03*
X0174042Y0024621D03*
X0174252Y0024899D03*
X0167652Y0028024D03*
D135*
X0173142Y0023371D03*
X0172932Y0023093D03*
X0172722Y0022815D03*
X0172652Y0022746D03*
X0172582Y0022607D03*
X0171822Y0021565D03*
X0171752Y0021496D03*
X0171682Y0021357D03*
X0171542Y0021218D03*
X0173972Y0024482D03*
X0173972Y0024551D03*
X0174112Y0024690D03*
X0174182Y0024829D03*
X0174322Y0024968D03*
D136*
X0181577Y0024690D03*
X0181647Y0024551D03*
X0181647Y0024482D03*
X0181647Y0021357D03*
X0164147Y0021357D03*
X0164077Y0021496D03*
X0164077Y0021565D03*
X0164077Y0024690D03*
X0164147Y0024829D03*
D137*
X0164112Y0021427D03*
X0170362Y0025663D03*
X0181542Y0024760D03*
X0181612Y0024621D03*
D138*
X0181682Y0024413D03*
X0181682Y0021427D03*
X0164042Y0021635D03*
X0163972Y0021774D03*
X0163972Y0021913D03*
X0163972Y0024274D03*
X0163972Y0024413D03*
D139*
X0163972Y0024343D03*
X0164042Y0024482D03*
X0164042Y0024551D03*
X0163972Y0021982D03*
X0163972Y0021843D03*
X0164042Y0021704D03*
X0170432Y0025593D03*
X0181682Y0021496D03*
D140*
X0181747Y0021565D03*
X0181747Y0021704D03*
X0181747Y0024204D03*
X0163907Y0022190D03*
D141*
X0172097Y0021635D03*
X0173557Y0023649D03*
X0173697Y0024413D03*
D142*
X0181747Y0024274D03*
X0181747Y0024135D03*
X0181747Y0021635D03*
X0163907Y0022260D03*
D143*
X0172097Y0021704D03*
X0175157Y0025732D03*
D144*
X0181782Y0024065D03*
X0181852Y0023718D03*
X0181852Y0023579D03*
X0181852Y0023440D03*
X0181852Y0023371D03*
X0181852Y0022468D03*
X0181852Y0022329D03*
X0181852Y0022190D03*
X0181852Y0022121D03*
X0181782Y0021843D03*
X0163872Y0022329D03*
X0163872Y0022468D03*
X0163872Y0022607D03*
X0163872Y0022746D03*
X0163872Y0022815D03*
X0163872Y0023371D03*
X0163872Y0023440D03*
X0163872Y0023579D03*
X0163872Y0023718D03*
X0163872Y0023857D03*
X0163872Y0023926D03*
D145*
X0181817Y0023926D03*
X0181817Y0023857D03*
X0181817Y0021982D03*
D146*
X0170467Y0025524D03*
X0163937Y0024135D03*
X0163937Y0023996D03*
X0163937Y0022052D03*
D147*
X0163837Y0023024D03*
X0163837Y0023163D03*
X0181887Y0023163D03*
X0181887Y0023302D03*
X0181887Y0023024D03*
X0181887Y0022885D03*
X0181887Y0022677D03*
X0181887Y0022538D03*
D148*
X0181887Y0022607D03*
X0181887Y0022746D03*
X0181887Y0022815D03*
X0181887Y0022954D03*
X0181887Y0023093D03*
X0181887Y0023232D03*
X0163837Y0023232D03*
X0163837Y0023093D03*
X0163837Y0022954D03*
D149*
X0172617Y0022677D03*
X0174147Y0024760D03*
D150*
X0173177Y0023440D03*
X0172827Y0022954D03*
D151*
X0173037Y0023232D03*
D152*
X0173207Y0023510D03*
X0165777Y0026288D03*
D153*
X0173277Y0023579D03*
D154*
X0181712Y0024343D03*
D155*
X0174667Y0025315D03*
X0174597Y0025246D03*
X0174457Y0025107D03*
D156*
X0174527Y0025177D03*
D157*
X0170607Y0025315D03*
X0177617Y0028371D03*
D158*
X0170572Y0025385D03*
D159*
X0174737Y0025385D03*
D160*
X0170537Y0025454D03*
D161*
X0181197Y0025454D03*
D162*
X0181127Y0025524D03*
X0164527Y0025524D03*
D163*
X0164772Y0025802D03*
X0181022Y0025663D03*
D164*
X0170327Y0025732D03*
D165*
X0167657Y0027885D03*
X0175227Y0025802D03*
D166*
X0180812Y0025871D03*
X0164842Y0025871D03*
D167*
X0175297Y0025871D03*
D168*
X0175362Y0025940D03*
D169*
X0170052Y0026010D03*
D170*
X0175432Y0026010D03*
D171*
X0169947Y0026079D03*
D172*
X0165222Y0026149D03*
X0180432Y0026149D03*
D173*
X0169807Y0026149D03*
D174*
X0175642Y0026149D03*
D175*
X0180222Y0026218D03*
X0169672Y0026218D03*
X0165432Y0026218D03*
D176*
X0169322Y0026288D03*
D177*
X0177412Y0026288D03*
D178*
X0167587Y0026357D03*
D179*
X0177652Y0026427D03*
D180*
X0177652Y0026496D03*
D181*
X0167692Y0026635D03*
D182*
X0167727Y0026704D03*
D183*
X0177652Y0026704D03*
D184*
X0167762Y0026774D03*
D185*
X0177652Y0026774D03*
D186*
X0177652Y0026843D03*
D187*
X0167797Y0026913D03*
D188*
X0167827Y0026982D03*
D189*
X0167862Y0027051D03*
D190*
X0177622Y0027051D03*
D191*
X0167897Y0027121D03*
D192*
X0167687Y0027190D03*
D193*
X0177622Y0027190D03*
D194*
X0177547Y0027538D03*
X0167687Y0027260D03*
D195*
X0177617Y0027329D03*
D196*
X0177582Y0027468D03*
D197*
X0167687Y0027538D03*
D198*
X0167652Y0027607D03*
D199*
X0177512Y0027607D03*
D200*
X0177442Y0027677D03*
D201*
X0167657Y0027746D03*
D202*
X0177407Y0027746D03*
D203*
X0177622Y0027954D03*
X0167622Y0027815D03*
D204*
X0177617Y0027815D03*
D205*
X0177622Y0027885D03*
D206*
X0167652Y0027954D03*
D207*
X0177622Y0028024D03*
D208*
X0167617Y0028093D03*
D209*
X0177652Y0028163D03*
D210*
X0177617Y0028232D03*
D211*
X0177652Y0028302D03*
D212*
X0177972Y0031124D02*
X0177972Y0032592D01*
X0178706Y0032592D02*
X0179073Y0032592D01*
X0178706Y0032592D02*
X0177972Y0031858D01*
X0177230Y0031858D02*
X0175762Y0031858D01*
X0175762Y0032225D02*
X0176129Y0032592D01*
X0176863Y0032592D01*
X0177230Y0032225D01*
X0177230Y0031858D01*
X0176863Y0031124D02*
X0176129Y0031124D01*
X0175762Y0031491D01*
X0175762Y0032225D01*
X0175020Y0032225D02*
X0175020Y0031491D01*
X0174653Y0031124D01*
X0173552Y0031124D01*
X0173552Y0030390D02*
X0173552Y0032592D01*
X0174653Y0032592D01*
X0175020Y0032225D01*
X0179813Y0032225D02*
X0179813Y0031491D01*
X0180180Y0031124D01*
X0181281Y0031124D01*
X0182023Y0031491D02*
X0182023Y0032225D01*
X0182390Y0032592D01*
X0183124Y0032592D01*
X0183491Y0032225D01*
X0183491Y0031858D01*
X0182023Y0031858D01*
X0182023Y0031491D02*
X0182390Y0031124D01*
X0183124Y0031124D01*
X0184233Y0031124D02*
X0185334Y0031124D01*
X0185701Y0031491D01*
X0185701Y0032225D01*
X0185334Y0032592D01*
X0184233Y0032592D01*
X0184233Y0030390D01*
X0186810Y0031491D02*
X0186810Y0032959D01*
X0186443Y0032592D02*
X0187177Y0032592D01*
X0187916Y0032592D02*
X0188283Y0032592D01*
X0188283Y0031124D01*
X0187916Y0031124D02*
X0188650Y0031124D01*
X0189389Y0031491D02*
X0189756Y0031124D01*
X0190490Y0031124D01*
X0190857Y0031491D01*
X0190857Y0032225D01*
X0190490Y0032592D01*
X0189756Y0032592D01*
X0189389Y0032225D01*
X0189389Y0031491D01*
X0188283Y0033325D02*
X0188283Y0033692D01*
X0186810Y0031491D02*
X0187177Y0031124D01*
X0191599Y0031124D02*
X0191599Y0032592D01*
X0192700Y0032592D01*
X0193067Y0032225D01*
X0193067Y0031124D01*
X0181281Y0032592D02*
X0180180Y0032592D01*
X0179813Y0032225D01*
X0171810Y0014692D02*
X0170709Y0014692D01*
X0170342Y0014325D01*
X0170342Y0013591D01*
X0170709Y0013224D01*
X0171810Y0013224D01*
X0169603Y0013224D02*
X0168869Y0013224D01*
X0169236Y0013224D02*
X0169236Y0014692D01*
X0168869Y0014692D01*
X0169236Y0015425D02*
X0169236Y0015792D01*
X0168127Y0014325D02*
X0168127Y0013224D01*
X0167393Y0013224D02*
X0167393Y0014325D01*
X0167760Y0014692D01*
X0168127Y0014325D01*
X0167393Y0014325D02*
X0167026Y0014692D01*
X0166659Y0014692D01*
X0166659Y0013224D01*
X0165917Y0013224D02*
X0164816Y0013224D01*
X0164449Y0013591D01*
X0164816Y0013958D01*
X0165917Y0013958D01*
X0165917Y0014325D02*
X0165917Y0013224D01*
X0165917Y0014325D02*
X0165550Y0014692D01*
X0164816Y0014692D01*
X0163707Y0014325D02*
X0163707Y0013224D01*
X0163707Y0014325D02*
X0163340Y0014692D01*
X0162239Y0014692D01*
X0162239Y0013224D01*
X0161497Y0013224D02*
X0160396Y0013224D01*
X0160029Y0013591D01*
X0160029Y0014692D01*
X0159287Y0014692D02*
X0158186Y0014692D01*
X0157819Y0014325D01*
X0157819Y0013591D01*
X0158186Y0013224D01*
X0159287Y0013224D01*
X0159287Y0015425D01*
X0161497Y0014692D02*
X0161497Y0012857D01*
X0161130Y0012490D01*
X0160763Y0012490D01*
X0137334Y0031067D02*
X0136867Y0030600D01*
X0135933Y0030600D01*
X0135466Y0031067D01*
X0134572Y0031067D02*
X0134105Y0030600D01*
X0133171Y0030600D01*
X0132704Y0031067D01*
X0133171Y0032001D02*
X0134105Y0032001D01*
X0134572Y0031534D01*
X0134572Y0031067D01*
X0133171Y0032001D02*
X0132704Y0032468D01*
X0132704Y0032935D01*
X0133171Y0033402D01*
X0134105Y0033402D01*
X0134572Y0032935D01*
X0135466Y0032935D02*
X0135933Y0033402D01*
X0136867Y0033402D01*
X0137334Y0032935D01*
X0137334Y0032468D01*
X0136867Y0032001D01*
X0137334Y0031534D01*
X0137334Y0031067D01*
X0136867Y0032001D02*
X0136400Y0032001D01*
X0097334Y0032468D02*
X0097334Y0032935D01*
X0096867Y0033402D01*
X0095933Y0033402D01*
X0095466Y0032935D01*
X0094572Y0032935D02*
X0094105Y0033402D01*
X0093171Y0033402D01*
X0092704Y0032935D01*
X0092704Y0032468D01*
X0093171Y0032001D01*
X0094105Y0032001D01*
X0094572Y0031534D01*
X0094572Y0031067D01*
X0094105Y0030600D01*
X0093171Y0030600D01*
X0092704Y0031067D01*
X0095466Y0030600D02*
X0097334Y0032468D01*
X0097334Y0030600D02*
X0095466Y0030600D01*
D213*
X0026147Y0011587D02*
X0024242Y0011780D01*
X0024242Y0013220D01*
X0026147Y0013413D01*
X0026352Y0014054D01*
X0026660Y0014652D01*
X0025450Y0016136D01*
X0026468Y0017154D01*
X0027952Y0015943D01*
X0028550Y0016251D01*
X0029190Y0016456D01*
X0029384Y0018361D01*
X0030823Y0018361D01*
X0031017Y0016456D01*
X0031657Y0016251D01*
X0032255Y0015943D01*
X0033739Y0017154D01*
X0034757Y0016136D01*
X0033547Y0014652D01*
X0033855Y0014054D01*
X0034060Y0013413D01*
X0035965Y0013220D01*
X0035965Y0011780D01*
X0034060Y0011587D01*
X0033855Y0010946D01*
X0033547Y0010348D01*
X0034757Y0008864D01*
X0033739Y0007846D01*
X0032255Y0009057D01*
X0031657Y0008749D01*
X0030810Y0010795D01*
X0031195Y0011012D01*
X0031517Y0011314D01*
X0031758Y0011684D01*
X0031905Y0012100D01*
X0031948Y0012540D01*
X0031886Y0012977D01*
X0031721Y0013387D01*
X0031464Y0013746D01*
X0031128Y0014034D01*
X0030734Y0014234D01*
X0030304Y0014334D01*
X0029862Y0014329D01*
X0029435Y0014220D01*
X0029045Y0014011D01*
X0028716Y0013717D01*
X0028467Y0013352D01*
X0028311Y0012939D01*
X0028258Y0012500D01*
X0028309Y0012069D01*
X0028459Y0011662D01*
X0028700Y0011301D01*
X0029019Y0011007D01*
X0029397Y0010795D01*
X0028550Y0008749D01*
X0027952Y0009057D01*
X0026468Y0007846D01*
X0025450Y0008864D01*
X0026660Y0010348D01*
X0026352Y0010946D01*
X0026147Y0011587D01*
X0026228Y0011336D02*
X0028677Y0011336D01*
X0028362Y0011925D02*
X0024242Y0011925D01*
X0024242Y0012514D02*
X0028260Y0012514D01*
X0028373Y0013103D02*
X0024242Y0013103D01*
X0026237Y0013692D02*
X0028699Y0013692D01*
X0029675Y0014281D02*
X0026469Y0014281D01*
X0026482Y0014870D02*
X0033725Y0014870D01*
X0033738Y0014281D02*
X0030530Y0014281D01*
X0031503Y0013692D02*
X0033971Y0013692D01*
X0034206Y0015459D02*
X0026002Y0015459D01*
X0025521Y0016048D02*
X0027823Y0016048D01*
X0028156Y0016048D02*
X0032051Y0016048D01*
X0032384Y0016048D02*
X0034686Y0016048D01*
X0034255Y0016638D02*
X0033106Y0016638D01*
X0030999Y0016638D02*
X0029209Y0016638D01*
X0029268Y0017227D02*
X0030939Y0017227D01*
X0030879Y0017816D02*
X0029328Y0017816D01*
X0027101Y0016638D02*
X0025952Y0016638D01*
X0026455Y0010747D02*
X0029377Y0010747D01*
X0029133Y0010158D02*
X0026505Y0010158D01*
X0026025Y0009569D02*
X0028889Y0009569D01*
X0028645Y0008980D02*
X0028101Y0008980D01*
X0027858Y0008980D02*
X0025544Y0008980D01*
X0025924Y0008391D02*
X0027135Y0008391D01*
X0031074Y0010158D02*
X0033702Y0010158D01*
X0033752Y0010747D02*
X0030830Y0010747D01*
X0031532Y0011336D02*
X0033980Y0011336D01*
X0034183Y0009569D02*
X0031318Y0009569D01*
X0031562Y0008980D02*
X0032106Y0008980D01*
X0032350Y0008980D02*
X0034663Y0008980D01*
X0034284Y0008391D02*
X0033072Y0008391D01*
X0031843Y0011925D02*
X0035965Y0011925D01*
X0035965Y0012514D02*
X0031946Y0012514D01*
X0031835Y0013103D02*
X0035965Y0013103D01*
D214*
X0101354Y0018000D03*
X0101354Y0023000D03*
X0141354Y0023000D03*
X0141354Y0018000D03*
M02*
