G75*
%MOIN*%
%OFA0B0*%
%FSLAX24Y24*%
%IPPOS*%
%LPD*%
%AMOC8*
5,1,8,0,0,1.08239X$1,22.5*
%
%ADD10C,0.0030*%
%ADD11C,0.0160*%
%ADD12C,0.0050*%
%ADD13C,0.0080*%
%ADD14C,0.0059*%
%ADD15R,0.0187X0.0007*%
%ADD16R,0.0187X0.0007*%
%ADD17R,0.0041X0.0007*%
%ADD18R,0.0042X0.0007*%
%ADD19R,0.0041X0.0007*%
%ADD20R,0.0042X0.0007*%
%ADD21R,0.0187X0.0007*%
%ADD22R,0.0187X0.0007*%
%ADD23R,0.0090X0.0007*%
%ADD24R,0.0076X0.0007*%
%ADD25R,0.0180X0.0007*%
%ADD26R,0.0160X0.0007*%
%ADD27R,0.0243X0.0007*%
%ADD28R,0.0042X0.0007*%
%ADD29R,0.0201X0.0007*%
%ADD30R,0.0285X0.0007*%
%ADD31R,0.0042X0.0007*%
%ADD32R,0.0243X0.0007*%
%ADD33R,0.0326X0.0007*%
%ADD34R,0.0285X0.0007*%
%ADD35R,0.0354X0.0007*%
%ADD36R,0.0313X0.0007*%
%ADD37R,0.0389X0.0007*%
%ADD38R,0.0340X0.0007*%
%ADD39R,0.0417X0.0007*%
%ADD40R,0.0368X0.0007*%
%ADD41R,0.0444X0.0007*%
%ADD42R,0.0514X0.0007*%
%ADD43R,0.0410X0.0007*%
%ADD44R,0.0521X0.0007*%
%ADD45R,0.0430X0.0007*%
%ADD46R,0.0535X0.0007*%
%ADD47R,0.0451X0.0007*%
%ADD48R,0.0542X0.0007*%
%ADD49R,0.0472X0.0007*%
%ADD50R,0.0549X0.0007*%
%ADD51R,0.0486X0.0007*%
%ADD52R,0.0563X0.0007*%
%ADD53R,0.0500X0.0007*%
%ADD54R,0.0576X0.0007*%
%ADD55R,0.0514X0.0007*%
%ADD56R,0.0590X0.0007*%
%ADD57R,0.0528X0.0007*%
%ADD58R,0.0604X0.0007*%
%ADD59R,0.0591X0.0007*%
%ADD60R,0.0618X0.0007*%
%ADD61R,0.0598X0.0007*%
%ADD62R,0.0632X0.0007*%
%ADD63R,0.0605X0.0007*%
%ADD64R,0.0646X0.0007*%
%ADD65R,0.0611X0.0007*%
%ADD66R,0.0660X0.0007*%
%ADD67R,0.0674X0.0007*%
%ADD68R,0.0625X0.0007*%
%ADD69R,0.0687X0.0007*%
%ADD70R,0.0632X0.0007*%
%ADD71R,0.0694X0.0007*%
%ADD72R,0.0639X0.0007*%
%ADD73R,0.0708X0.0007*%
%ADD74R,0.0639X0.0007*%
%ADD75R,0.0715X0.0007*%
%ADD76R,0.0729X0.0007*%
%ADD77R,0.0653X0.0007*%
%ADD78R,0.0743X0.0007*%
%ADD79R,0.0653X0.0007*%
%ADD80R,0.0750X0.0007*%
%ADD81R,0.0660X0.0007*%
%ADD82R,0.0757X0.0007*%
%ADD83R,0.0292X0.0007*%
%ADD84R,0.0479X0.0007*%
%ADD85R,0.0236X0.0007*%
%ADD86R,0.0222X0.0007*%
%ADD87R,0.0444X0.0007*%
%ADD88R,0.0209X0.0007*%
%ADD89R,0.0215X0.0007*%
%ADD90R,0.0423X0.0007*%
%ADD91R,0.0188X0.0007*%
%ADD92R,0.0194X0.0007*%
%ADD93R,0.0402X0.0007*%
%ADD94R,0.0167X0.0007*%
%ADD95R,0.0188X0.0007*%
%ADD96R,0.0181X0.0007*%
%ADD97R,0.0389X0.0007*%
%ADD98R,0.0153X0.0007*%
%ADD99R,0.0174X0.0007*%
%ADD100R,0.0375X0.0007*%
%ADD101R,0.0139X0.0007*%
%ADD102R,0.0167X0.0007*%
%ADD103R,0.0361X0.0007*%
%ADD104R,0.0125X0.0007*%
%ADD105R,0.0167X0.0007*%
%ADD106R,0.0347X0.0007*%
%ADD107R,0.0111X0.0007*%
%ADD108R,0.0153X0.0007*%
%ADD109R,0.0340X0.0007*%
%ADD110R,0.0105X0.0007*%
%ADD111R,0.0146X0.0007*%
%ADD112R,0.0333X0.0007*%
%ADD113R,0.0091X0.0007*%
%ADD114R,0.0146X0.0007*%
%ADD115R,0.0333X0.0007*%
%ADD116R,0.0084X0.0007*%
%ADD117R,0.0132X0.0007*%
%ADD118R,0.0139X0.0007*%
%ADD119R,0.0070X0.0007*%
%ADD120R,0.0132X0.0007*%
%ADD121R,0.0132X0.0007*%
%ADD122R,0.0326X0.0007*%
%ADD123R,0.0063X0.0007*%
%ADD124R,0.0125X0.0007*%
%ADD125R,0.0056X0.0007*%
%ADD126R,0.0312X0.0007*%
%ADD127R,0.0049X0.0007*%
%ADD128R,0.0312X0.0007*%
%ADD129R,0.0118X0.0007*%
%ADD130R,0.0313X0.0007*%
%ADD131R,0.0118X0.0007*%
%ADD132R,0.0112X0.0007*%
%ADD133R,0.0111X0.0007*%
%ADD134R,0.0306X0.0007*%
%ADD135R,0.0306X0.0007*%
%ADD136R,0.0105X0.0007*%
%ADD137R,0.0112X0.0007*%
%ADD138R,0.0098X0.0007*%
%ADD139R,0.0098X0.0007*%
%ADD140R,0.0097X0.0007*%
%ADD141R,0.0347X0.0007*%
%ADD142R,0.0097X0.0007*%
%ADD143R,0.0347X0.0007*%
%ADD144R,0.0090X0.0007*%
%ADD145R,0.0097X0.0007*%
%ADD146R,0.0091X0.0007*%
%ADD147R,0.0083X0.0007*%
%ADD148R,0.0083X0.0007*%
%ADD149R,0.0299X0.0007*%
%ADD150R,0.0299X0.0007*%
%ADD151R,0.0299X0.0007*%
%ADD152R,0.0305X0.0007*%
%ADD153R,0.0305X0.0007*%
%ADD154R,0.0104X0.0007*%
%ADD155R,0.0319X0.0007*%
%ADD156R,0.0319X0.0007*%
%ADD157R,0.0063X0.0007*%
%ADD158R,0.0070X0.0007*%
%ADD159R,0.0319X0.0007*%
%ADD160R,0.0077X0.0007*%
%ADD161R,0.0139X0.0007*%
%ADD162R,0.0139X0.0007*%
%ADD163R,0.0160X0.0007*%
%ADD164R,0.0119X0.0007*%
%ADD165R,0.0361X0.0007*%
%ADD166R,0.0174X0.0007*%
%ADD167R,0.0375X0.0007*%
%ADD168R,0.0388X0.0007*%
%ADD169R,0.0174X0.0007*%
%ADD170R,0.0402X0.0007*%
%ADD171R,0.0195X0.0007*%
%ADD172R,0.0222X0.0007*%
%ADD173R,0.0223X0.0007*%
%ADD174R,0.0444X0.0007*%
%ADD175R,0.0250X0.0007*%
%ADD176R,0.0320X0.0007*%
%ADD177R,0.0798X0.0007*%
%ADD178R,0.0667X0.0007*%
%ADD179R,0.0736X0.0007*%
%ADD180R,0.0722X0.0007*%
%ADD181R,0.0646X0.0007*%
%ADD182R,0.0639X0.0007*%
%ADD183R,0.0694X0.0007*%
%ADD184R,0.0632X0.0007*%
%ADD185R,0.0680X0.0007*%
%ADD186R,0.0666X0.0007*%
%ADD187R,0.0625X0.0007*%
%ADD188R,0.0619X0.0007*%
%ADD189R,0.0612X0.0007*%
%ADD190R,0.0632X0.0007*%
%ADD191R,0.0605X0.0007*%
%ADD192R,0.0549X0.0007*%
%ADD193R,0.0604X0.0007*%
%ADD194R,0.0535X0.0007*%
%ADD195R,0.0577X0.0007*%
%ADD196R,0.0542X0.0007*%
%ADD197R,0.0465X0.0007*%
%ADD198R,0.0444X0.0007*%
%ADD199R,0.0528X0.0007*%
%ADD200R,0.0514X0.0007*%
%ADD201R,0.0403X0.0007*%
%ADD202R,0.0507X0.0007*%
%ADD203R,0.0382X0.0007*%
%ADD204R,0.0437X0.0007*%
%ADD205R,0.0410X0.0007*%
%ADD206R,0.0334X0.0007*%
%ADD207R,0.0354X0.0007*%
%ADD208R,0.0271X0.0007*%
%ADD209R,0.0278X0.0007*%
%ADD210R,0.0229X0.0007*%
%ADD211R,0.0166X0.0007*%
%ADD212C,0.0020*%
D10*
X001822Y005955D02*
X001870Y005955D01*
X001918Y006003D01*
X001918Y006245D01*
X001870Y006245D02*
X001967Y006245D01*
X002068Y006148D02*
X002165Y006245D01*
X002165Y005955D01*
X002261Y005955D02*
X002068Y005955D01*
X001822Y005955D02*
X001773Y006003D01*
X001353Y008819D02*
X001062Y008819D01*
X001062Y008964D01*
X001111Y009012D01*
X001207Y009012D01*
X001256Y008964D01*
X001256Y008819D01*
X001256Y008915D02*
X001353Y009012D01*
X001353Y009113D02*
X001353Y009307D01*
X001353Y009210D02*
X001062Y009210D01*
X001159Y009113D01*
X001159Y009408D02*
X001111Y009408D01*
X001062Y009456D01*
X001062Y009553D01*
X001111Y009601D01*
X001159Y009601D01*
X001207Y009553D01*
X001207Y009456D01*
X001159Y009408D01*
X001207Y009456D02*
X001256Y009408D01*
X001304Y009408D01*
X001353Y009456D01*
X001353Y009553D01*
X001304Y009601D01*
X001256Y009601D01*
X001207Y009553D01*
X003300Y011340D02*
X003493Y011340D01*
X003397Y011340D02*
X003397Y011630D01*
X003300Y011533D01*
X003595Y011582D02*
X003643Y011630D01*
X003740Y011630D01*
X003788Y011582D01*
X003788Y011533D01*
X003595Y011340D01*
X003788Y011340D01*
X003889Y011437D02*
X003986Y011340D01*
X004083Y011437D01*
X004083Y011630D01*
X003889Y011630D02*
X003889Y011437D01*
X003913Y012340D02*
X003720Y012340D01*
X003913Y012533D01*
X003913Y012582D01*
X003865Y012630D01*
X003768Y012630D01*
X003720Y012582D01*
X003522Y012630D02*
X003522Y012340D01*
X003618Y012340D02*
X003425Y012340D01*
X003425Y012533D02*
X003522Y012630D01*
X004014Y012630D02*
X004014Y012437D01*
X004111Y012340D01*
X004208Y012437D01*
X004208Y012630D01*
X004159Y013340D02*
X004208Y013388D01*
X004208Y013582D01*
X004159Y013630D01*
X004014Y013630D01*
X004014Y013340D01*
X004159Y013340D01*
X003913Y013340D02*
X003913Y013630D01*
X003720Y013630D02*
X003720Y013340D01*
X003618Y013388D02*
X003618Y013485D01*
X003522Y013485D01*
X003618Y013388D02*
X003570Y013340D01*
X003473Y013340D01*
X003425Y013388D01*
X003425Y013582D01*
X003473Y013630D01*
X003570Y013630D01*
X003618Y013582D01*
X003720Y013630D02*
X003913Y013340D01*
X003865Y013965D02*
X003913Y014013D01*
X003913Y014207D01*
X003865Y014255D01*
X003720Y014255D01*
X003720Y013965D01*
X003865Y013965D01*
X004014Y013965D02*
X004014Y014013D01*
X004208Y014207D01*
X004208Y014255D01*
X004014Y014255D01*
X004425Y014255D02*
X004425Y013965D01*
X004425Y014062D02*
X004570Y014062D01*
X004618Y014110D01*
X004618Y014207D01*
X004570Y014255D01*
X004425Y014255D01*
X004720Y014255D02*
X004720Y013965D01*
X004865Y013965D01*
X004913Y014013D01*
X004913Y014207D01*
X004865Y014255D01*
X004720Y014255D01*
X005014Y014110D02*
X005014Y014013D01*
X005063Y013965D01*
X005159Y013965D01*
X005208Y014013D01*
X005208Y014062D01*
X005159Y014110D01*
X005014Y014110D01*
X005111Y014207D01*
X005208Y014255D01*
X005737Y015063D02*
X005979Y015063D01*
X006028Y015112D01*
X006028Y015208D01*
X005979Y015257D01*
X005737Y015257D01*
X005737Y015358D02*
X005737Y015551D01*
X005786Y015551D01*
X005979Y015358D01*
X006028Y015358D01*
X006363Y015005D02*
X006556Y015005D01*
X006459Y015005D02*
X006459Y014715D01*
X006657Y014715D02*
X006851Y014715D01*
X006754Y014715D02*
X006754Y015005D01*
X006657Y014908D01*
X007895Y016132D02*
X008100Y016337D01*
X007963Y016337D01*
X007826Y016200D02*
X007963Y016063D01*
X007755Y016271D02*
X007618Y016408D01*
X007687Y016340D02*
X007892Y016545D01*
X007755Y016545D01*
X007718Y016651D02*
X007718Y016719D01*
X007649Y016788D01*
X007581Y016788D01*
X007444Y016651D01*
X007444Y016582D01*
X007512Y016514D01*
X007581Y016514D01*
X007348Y017727D02*
X007075Y017727D01*
X007040Y017693D01*
X007003Y017799D02*
X006935Y017799D01*
X006866Y017867D01*
X006866Y017936D01*
X007003Y018072D01*
X007072Y018072D01*
X007140Y018004D01*
X007140Y017936D01*
X007246Y017898D02*
X007383Y017761D01*
X007348Y017727D01*
X009012Y016085D02*
X009080Y016017D01*
X009046Y016051D02*
X009251Y016256D01*
X009217Y016290D02*
X009286Y016222D01*
X009322Y016117D02*
X009185Y015980D01*
X009185Y015912D01*
X009253Y015843D01*
X009322Y015843D01*
X009359Y015738D02*
X009496Y015601D01*
X009428Y015669D02*
X009633Y015874D01*
X009496Y015874D01*
X009459Y015980D02*
X009459Y016049D01*
X009390Y016117D01*
X009322Y016117D01*
X010219Y017066D02*
X010493Y017066D01*
X010527Y017101D01*
X010527Y017169D01*
X010459Y017237D01*
X010390Y017237D01*
X010319Y017309D02*
X010319Y017377D01*
X010251Y017446D01*
X010182Y017446D01*
X010045Y017309D01*
X010045Y017241D01*
X010114Y017172D01*
X010182Y017172D01*
X010219Y017066D02*
X010356Y016930D01*
X009941Y017345D02*
X009872Y017414D01*
X009906Y017379D02*
X010112Y017585D01*
X010077Y017619D02*
X010146Y017551D01*
X012198Y016133D02*
X012403Y016338D01*
X012506Y016236D01*
X012506Y016167D01*
X012438Y016099D01*
X012369Y016099D01*
X012267Y016202D01*
X012335Y016133D02*
X012335Y015996D01*
X012441Y015959D02*
X012441Y015891D01*
X012509Y015822D01*
X012578Y015822D01*
X012612Y015856D01*
X012612Y015925D01*
X012509Y016027D01*
X012441Y015959D01*
X012509Y016027D02*
X012646Y016027D01*
X012749Y015993D01*
X012907Y016425D02*
X012941Y016459D01*
X013214Y016459D01*
X013249Y016493D01*
X013112Y016630D01*
X013006Y016667D02*
X012938Y016599D01*
X012869Y016599D01*
X012767Y016702D01*
X012835Y016633D02*
X012835Y016496D01*
X012698Y016633D02*
X012903Y016838D01*
X013006Y016736D01*
X013006Y016667D01*
X014967Y015406D02*
X015064Y015310D01*
X015016Y015208D02*
X015209Y015208D01*
X015258Y015160D01*
X015258Y015063D01*
X015209Y015015D01*
X015016Y015015D01*
X014967Y015063D01*
X014967Y015160D01*
X015016Y015208D01*
X015161Y015112D02*
X015258Y015208D01*
X015258Y015310D02*
X015258Y015503D01*
X015258Y015406D02*
X014967Y015406D01*
X016700Y014718D02*
X016700Y014428D01*
X016845Y014428D01*
X016893Y014476D01*
X016893Y014669D01*
X016845Y014718D01*
X016700Y014718D01*
X016995Y014669D02*
X017043Y014718D01*
X017140Y014718D01*
X017188Y014669D01*
X017188Y014621D01*
X017140Y014573D01*
X017188Y014524D01*
X017188Y014476D01*
X017140Y014428D01*
X017043Y014428D01*
X016995Y014476D01*
X017091Y014573D02*
X017140Y014573D01*
X017738Y014630D02*
X017738Y014340D01*
X017738Y014437D02*
X017883Y014437D01*
X017931Y014485D01*
X017931Y014582D01*
X017883Y014630D01*
X017738Y014630D01*
X018032Y014630D02*
X018032Y014340D01*
X018032Y014485D02*
X018129Y014485D01*
X018032Y014630D02*
X018226Y014630D01*
X018327Y014630D02*
X018520Y014630D01*
X018520Y014582D01*
X018327Y014388D01*
X018327Y014340D01*
X018342Y013630D02*
X018148Y013630D01*
X018148Y013340D01*
X018342Y013340D01*
X018443Y013388D02*
X018491Y013340D01*
X018588Y013340D01*
X018636Y013388D01*
X018636Y013485D01*
X018588Y013533D01*
X018540Y013533D01*
X018443Y013485D01*
X018443Y013630D01*
X018636Y013630D01*
X018245Y013485D02*
X018148Y013485D01*
X018047Y013485D02*
X018047Y013582D01*
X017999Y013630D01*
X017854Y013630D01*
X017854Y013340D01*
X017854Y013437D02*
X017999Y013437D01*
X018047Y013485D01*
X017752Y013630D02*
X017559Y013340D01*
X017458Y013388D02*
X017409Y013340D01*
X017313Y013340D01*
X017264Y013388D01*
X017458Y013582D01*
X017458Y013388D01*
X017264Y013388D02*
X017264Y013582D01*
X017313Y013630D01*
X017409Y013630D01*
X017458Y013582D01*
X017163Y013630D02*
X016970Y013630D01*
X016970Y013340D01*
X016970Y013485D02*
X017066Y013485D01*
X016868Y013485D02*
X016868Y013582D01*
X016820Y013630D01*
X016675Y013630D01*
X016675Y013340D01*
X016675Y013437D02*
X016820Y013437D01*
X016868Y013485D01*
X017738Y012630D02*
X017738Y012485D01*
X017834Y012533D01*
X017883Y012533D01*
X017931Y012485D01*
X017931Y012388D01*
X017883Y012340D01*
X017786Y012340D01*
X017738Y012388D01*
X017738Y012630D02*
X017931Y012630D01*
X018032Y012630D02*
X018032Y012437D01*
X018129Y012340D01*
X018226Y012437D01*
X018226Y012630D01*
X018159Y011630D02*
X018014Y011630D01*
X018014Y011340D01*
X018159Y011340D01*
X018208Y011388D01*
X018208Y011582D01*
X018159Y011630D01*
X017913Y011630D02*
X017913Y011340D01*
X017720Y011630D01*
X017720Y011340D01*
X017618Y011388D02*
X017618Y011485D01*
X017522Y011485D01*
X017618Y011388D02*
X017570Y011340D01*
X017473Y011340D01*
X017425Y011388D01*
X017425Y011582D01*
X017473Y011630D01*
X017570Y011630D01*
X017618Y011582D01*
X016288Y011519D02*
X016288Y011471D01*
X016240Y011423D01*
X016288Y011374D01*
X016288Y011326D01*
X016240Y011278D01*
X016143Y011278D01*
X016095Y011326D01*
X016191Y011423D02*
X016240Y011423D01*
X016288Y011519D02*
X016240Y011568D01*
X016143Y011568D01*
X016095Y011519D01*
X015993Y011568D02*
X015800Y011568D01*
X015897Y011568D02*
X015897Y011278D01*
X013236Y010411D02*
X013236Y010121D01*
X013332Y010121D02*
X013139Y010121D01*
X013038Y010169D02*
X013038Y010411D01*
X013139Y010315D02*
X013236Y010411D01*
X013038Y010169D02*
X012989Y010121D01*
X012893Y010121D01*
X012844Y010169D01*
X012844Y010411D01*
X011990Y008391D02*
X012039Y008342D01*
X012039Y008246D01*
X011990Y008197D01*
X011990Y008096D02*
X012039Y008048D01*
X012039Y007951D01*
X011990Y007903D01*
X011797Y007903D01*
X011749Y007951D01*
X011749Y008048D01*
X011797Y008096D01*
X011797Y008197D02*
X011749Y008246D01*
X011749Y008342D01*
X011797Y008391D01*
X011845Y008391D01*
X011894Y008342D01*
X011942Y008391D01*
X011990Y008391D01*
X011894Y008342D02*
X011894Y008294D01*
X008626Y011844D02*
X008336Y011844D01*
X008336Y011990D01*
X008384Y012038D01*
X008578Y012038D01*
X008626Y011990D01*
X008626Y011844D01*
X008626Y012139D02*
X008433Y012333D01*
X008384Y012333D01*
X008336Y012284D01*
X008336Y012187D01*
X008384Y012139D01*
X008626Y012139D02*
X008626Y012333D01*
X007958Y010416D02*
X007958Y010222D01*
X007958Y010319D02*
X007667Y010319D01*
X007764Y010222D01*
X007667Y010121D02*
X007667Y009928D01*
X007958Y009928D01*
X007812Y009928D02*
X007812Y010024D01*
X005671Y009754D02*
X005623Y009803D01*
X005574Y009803D01*
X005526Y009754D01*
X005526Y009609D01*
X005623Y009609D01*
X005671Y009658D01*
X005671Y009754D01*
X005526Y009609D02*
X005429Y009706D01*
X005381Y009803D01*
X005429Y009508D02*
X005381Y009460D01*
X005381Y009363D01*
X005429Y009315D01*
X005623Y009315D01*
X005671Y009363D01*
X005671Y009460D01*
X005623Y009508D01*
X004936Y009513D02*
X004936Y009319D01*
X004742Y009513D01*
X004694Y009513D01*
X004646Y009464D01*
X004646Y009368D01*
X004694Y009319D01*
X004646Y009218D02*
X004887Y009218D01*
X004936Y009170D01*
X004936Y009073D01*
X004887Y009025D01*
X004646Y009025D01*
X004769Y011564D02*
X004914Y011564D01*
X004962Y011612D01*
X004962Y011806D01*
X004914Y011854D01*
X004769Y011854D01*
X004769Y011564D01*
X005063Y011564D02*
X005257Y011564D01*
X005160Y011564D02*
X005160Y011854D01*
X005063Y011757D01*
X006095Y012615D02*
X006337Y012615D01*
X006385Y012663D01*
X006385Y012760D01*
X006337Y012809D01*
X006095Y012809D01*
X006240Y012910D02*
X006240Y013055D01*
X006288Y013103D01*
X006337Y013103D01*
X006385Y013055D01*
X006385Y012958D01*
X006337Y012910D01*
X006240Y012910D01*
X006143Y013006D01*
X006095Y013103D01*
X008272Y014715D02*
X008272Y015005D01*
X008368Y015005D02*
X008175Y015005D01*
X008470Y014957D02*
X008518Y015005D01*
X008615Y015005D01*
X008663Y014957D01*
X008663Y014908D01*
X008470Y014715D01*
X008663Y014715D01*
X005208Y017513D02*
X005159Y017465D01*
X005063Y017465D01*
X005014Y017513D01*
X005014Y017610D02*
X005111Y017658D01*
X005159Y017658D01*
X005208Y017610D01*
X005208Y017513D01*
X005014Y017610D02*
X005014Y017755D01*
X005208Y017755D01*
X004913Y017707D02*
X004865Y017755D01*
X004720Y017755D01*
X004720Y017465D01*
X004865Y017465D01*
X004913Y017513D01*
X004913Y017707D01*
X004618Y017707D02*
X004618Y017610D01*
X004570Y017562D01*
X004425Y017562D01*
X004425Y017465D02*
X004425Y017755D01*
X004570Y017755D01*
X004618Y017707D01*
X004208Y017755D02*
X004014Y017755D01*
X004014Y017610D01*
X004111Y017658D01*
X004159Y017658D01*
X004208Y017610D01*
X004208Y017513D01*
X004159Y017465D01*
X004063Y017465D01*
X004014Y017513D01*
X003913Y017513D02*
X003865Y017465D01*
X003768Y017465D01*
X003720Y017513D01*
X003720Y017707D01*
X003768Y017755D01*
X003865Y017755D01*
X003913Y017707D01*
X003618Y017707D02*
X003618Y017610D01*
X003570Y017562D01*
X003425Y017562D01*
X003425Y017465D02*
X003425Y017755D01*
X003570Y017755D01*
X003618Y017707D01*
X003768Y018278D02*
X003865Y018278D01*
X003913Y018326D01*
X004014Y018423D02*
X004208Y018423D01*
X004159Y018278D02*
X004159Y018568D01*
X004014Y018423D01*
X003913Y018519D02*
X003865Y018568D01*
X003768Y018568D01*
X003720Y018519D01*
X003720Y018326D01*
X003768Y018278D01*
X003618Y018423D02*
X003570Y018374D01*
X003425Y018374D01*
X003425Y018278D02*
X003425Y018568D01*
X003570Y018568D01*
X003618Y018519D01*
X003618Y018423D01*
X003768Y019340D02*
X003865Y019340D01*
X003913Y019388D01*
X004014Y019388D02*
X004063Y019340D01*
X004159Y019340D01*
X004208Y019388D01*
X004208Y019437D01*
X004159Y019485D01*
X004111Y019485D01*
X004159Y019485D02*
X004208Y019533D01*
X004208Y019582D01*
X004159Y019630D01*
X004063Y019630D01*
X004014Y019582D01*
X003913Y019582D02*
X003865Y019630D01*
X003768Y019630D01*
X003720Y019582D01*
X003720Y019388D01*
X003768Y019340D01*
X003618Y019485D02*
X003570Y019437D01*
X003425Y019437D01*
X003425Y019340D02*
X003425Y019630D01*
X003570Y019630D01*
X003618Y019582D01*
X003618Y019485D01*
X003768Y020340D02*
X003865Y020340D01*
X003913Y020388D01*
X004014Y020340D02*
X004208Y020533D01*
X004208Y020582D01*
X004159Y020630D01*
X004063Y020630D01*
X004014Y020582D01*
X003913Y020582D02*
X003865Y020630D01*
X003768Y020630D01*
X003720Y020582D01*
X003720Y020388D01*
X003768Y020340D01*
X003618Y020485D02*
X003570Y020437D01*
X003425Y020437D01*
X003425Y020340D02*
X003425Y020630D01*
X003570Y020630D01*
X003618Y020582D01*
X003618Y020485D01*
X004014Y020340D02*
X004208Y020340D01*
X004208Y021340D02*
X004014Y021340D01*
X004111Y021340D02*
X004111Y021630D01*
X004014Y021533D01*
X003913Y021582D02*
X003865Y021630D01*
X003768Y021630D01*
X003720Y021582D01*
X003720Y021388D01*
X003768Y021340D01*
X003865Y021340D01*
X003913Y021388D01*
X003618Y021485D02*
X003570Y021437D01*
X003425Y021437D01*
X003425Y021340D02*
X003425Y021630D01*
X003570Y021630D01*
X003618Y021582D01*
X003618Y021485D01*
X003768Y022340D02*
X003865Y022340D01*
X003913Y022388D01*
X004014Y022388D02*
X004208Y022582D01*
X004208Y022388D01*
X004159Y022340D01*
X004063Y022340D01*
X004014Y022388D01*
X004014Y022582D01*
X004063Y022630D01*
X004159Y022630D01*
X004208Y022582D01*
X003913Y022582D02*
X003865Y022630D01*
X003768Y022630D01*
X003720Y022582D01*
X003720Y022388D01*
X003768Y022340D01*
X003618Y022485D02*
X003618Y022582D01*
X003570Y022630D01*
X003425Y022630D01*
X003425Y022340D01*
X003425Y022437D02*
X003570Y022437D01*
X003618Y022485D01*
X004865Y024732D02*
X004694Y024903D01*
X004831Y025040D02*
X005002Y024869D01*
X005002Y024800D01*
X004933Y024732D01*
X004865Y024732D01*
X005107Y024906D02*
X005244Y025043D01*
X005176Y024974D02*
X004971Y025179D01*
X004971Y025043D01*
X005145Y025285D02*
X005145Y025354D01*
X005213Y025422D01*
X005282Y025422D01*
X005282Y025148D01*
X005350Y025148D01*
X005418Y025217D01*
X005418Y025285D01*
X005282Y025422D01*
X005145Y025285D02*
X005282Y025148D01*
X005541Y020078D02*
X005492Y020030D01*
X005492Y019933D01*
X005541Y019885D01*
X005589Y019885D01*
X005637Y019933D01*
X005637Y020078D01*
X005541Y020078D02*
X005734Y020078D01*
X005783Y020030D01*
X005783Y019933D01*
X005734Y019885D01*
X005783Y019783D02*
X005686Y019687D01*
X005686Y019735D02*
X005686Y019590D01*
X005783Y019590D02*
X005492Y019590D01*
X005492Y019735D01*
X005541Y019783D01*
X005637Y019783D01*
X005686Y019735D01*
X003570Y014255D02*
X003618Y014207D01*
X003618Y014110D01*
X003570Y014062D01*
X003425Y014062D01*
X003425Y013965D02*
X003425Y014255D01*
X003570Y014255D01*
X007334Y006818D02*
X007431Y006818D01*
X007383Y006818D02*
X007383Y006576D01*
X007334Y006528D01*
X007286Y006528D01*
X007238Y006576D01*
X007532Y006673D02*
X007726Y006673D01*
X007677Y006818D02*
X007532Y006673D01*
X007677Y006528D02*
X007677Y006818D01*
X017738Y015340D02*
X017738Y015630D01*
X017883Y015630D01*
X017931Y015582D01*
X017931Y015485D01*
X017883Y015437D01*
X017738Y015437D01*
X018032Y015485D02*
X018129Y015485D01*
X018032Y015340D02*
X018032Y015630D01*
X018226Y015630D01*
X018327Y015485D02*
X018472Y015485D01*
X018520Y015437D01*
X018520Y015388D01*
X018472Y015340D01*
X018375Y015340D01*
X018327Y015388D01*
X018327Y015485D01*
X018424Y015582D01*
X018520Y015630D01*
X018472Y016340D02*
X018375Y016340D01*
X018327Y016388D01*
X018327Y016485D02*
X018424Y016533D01*
X018472Y016533D01*
X018520Y016485D01*
X018520Y016388D01*
X018472Y016340D01*
X018327Y016485D02*
X018327Y016630D01*
X018520Y016630D01*
X018226Y016630D02*
X018032Y016630D01*
X018032Y016340D01*
X018032Y016485D02*
X018129Y016485D01*
X017931Y016485D02*
X017883Y016437D01*
X017738Y016437D01*
X017738Y016340D02*
X017738Y016630D01*
X017883Y016630D01*
X017931Y016582D01*
X017931Y016485D01*
X018032Y017028D02*
X018032Y017318D01*
X018226Y017318D01*
X018129Y017173D02*
X018032Y017173D01*
X017931Y017173D02*
X017883Y017124D01*
X017738Y017124D01*
X017738Y017028D02*
X017738Y017318D01*
X017883Y017318D01*
X017931Y017269D01*
X017931Y017173D01*
X018327Y017173D02*
X018520Y017173D01*
X018472Y017028D02*
X018472Y017318D01*
X018327Y017173D01*
X018375Y018340D02*
X018327Y018388D01*
X018375Y018340D02*
X018472Y018340D01*
X018520Y018388D01*
X018520Y018437D01*
X018472Y018485D01*
X018424Y018485D01*
X018472Y018485D02*
X018520Y018533D01*
X018520Y018582D01*
X018472Y018630D01*
X018375Y018630D01*
X018327Y018582D01*
X018226Y018630D02*
X018032Y018630D01*
X018032Y018340D01*
X018032Y018485D02*
X018129Y018485D01*
X017931Y018485D02*
X017883Y018437D01*
X017738Y018437D01*
X017738Y018340D02*
X017738Y018630D01*
X017883Y018630D01*
X017931Y018582D01*
X017931Y018485D01*
X018032Y019340D02*
X018032Y019630D01*
X018226Y019630D01*
X018327Y019582D02*
X018375Y019630D01*
X018472Y019630D01*
X018520Y019582D01*
X018520Y019533D01*
X018327Y019340D01*
X018520Y019340D01*
X018129Y019485D02*
X018032Y019485D01*
X017931Y019485D02*
X017883Y019437D01*
X017738Y019437D01*
X017738Y019340D02*
X017738Y019630D01*
X017883Y019630D01*
X017931Y019582D01*
X017931Y019485D01*
X018032Y020340D02*
X018032Y020630D01*
X018226Y020630D01*
X018327Y020533D02*
X018424Y020630D01*
X018424Y020340D01*
X018520Y020340D02*
X018327Y020340D01*
X018129Y020485D02*
X018032Y020485D01*
X017931Y020485D02*
X017883Y020437D01*
X017738Y020437D01*
X017738Y020340D02*
X017738Y020630D01*
X017883Y020630D01*
X017931Y020582D01*
X017931Y020485D01*
X018032Y021340D02*
X018226Y021340D01*
X018327Y021340D02*
X018520Y021340D01*
X018424Y021340D02*
X018424Y021630D01*
X018327Y021533D01*
X018226Y021630D02*
X018032Y021630D01*
X018032Y021340D01*
X018032Y021485D02*
X018129Y021485D01*
X017931Y021485D02*
X017883Y021437D01*
X017738Y021437D01*
X017738Y021340D02*
X017738Y021630D01*
X017883Y021630D01*
X017931Y021582D01*
X017931Y021485D01*
X018032Y022340D02*
X018226Y022340D01*
X018327Y022388D02*
X018520Y022582D01*
X018520Y022388D01*
X018472Y022340D01*
X018375Y022340D01*
X018327Y022388D01*
X018327Y022582D01*
X018375Y022630D01*
X018472Y022630D01*
X018520Y022582D01*
X018226Y022630D02*
X018032Y022630D01*
X018032Y022340D01*
X018032Y022485D02*
X018129Y022485D01*
X017931Y022485D02*
X017883Y022437D01*
X017738Y022437D01*
X017738Y022340D02*
X017738Y022630D01*
X017883Y022630D01*
X017931Y022582D01*
X017931Y022485D01*
X017684Y023990D02*
X017442Y023990D01*
X017442Y024183D02*
X017684Y024183D01*
X017733Y024135D01*
X017733Y024038D01*
X017684Y023990D01*
X017733Y024285D02*
X017733Y024478D01*
X017733Y024381D02*
X017442Y024381D01*
X017539Y024285D01*
X017491Y024579D02*
X017442Y024628D01*
X017442Y024724D01*
X017491Y024773D01*
X017539Y024773D01*
X017733Y024579D01*
X017733Y024773D01*
X017892Y025144D02*
X018085Y025144D01*
X018134Y025192D01*
X018134Y025289D01*
X018085Y025337D01*
X018134Y025438D02*
X018134Y025632D01*
X018134Y025535D02*
X017843Y025535D01*
X017940Y025438D01*
X017892Y025337D02*
X017843Y025289D01*
X017843Y025192D01*
X017892Y025144D01*
X017892Y025733D02*
X017843Y025781D01*
X017843Y025878D01*
X017892Y025926D01*
X018085Y025926D01*
X018134Y025878D01*
X018134Y025781D01*
X018085Y025733D01*
X017989Y025781D02*
X017989Y025926D01*
X017989Y025781D02*
X017940Y025733D01*
X017892Y025733D01*
X015303Y024522D02*
X015254Y024570D01*
X015206Y024570D01*
X015157Y024522D01*
X015157Y024377D01*
X015254Y024377D01*
X015303Y024425D01*
X015303Y024522D01*
X015157Y024377D02*
X015061Y024474D01*
X015012Y024570D01*
X015012Y024179D02*
X015303Y024179D01*
X015303Y024082D02*
X015303Y024276D01*
X015109Y024082D02*
X015012Y024179D01*
X015061Y023981D02*
X015012Y023933D01*
X015012Y023836D01*
X015061Y023788D01*
X015254Y023788D01*
X015303Y023836D01*
X015303Y023933D01*
X015254Y023981D01*
X014666Y024094D02*
X014666Y024162D01*
X014530Y024299D01*
X014461Y024299D01*
X014393Y024230D01*
X014393Y024162D01*
X014427Y024128D01*
X014495Y024128D01*
X014598Y024230D01*
X014666Y024094D02*
X014598Y024025D01*
X014530Y024025D01*
X014458Y023954D02*
X014287Y024125D01*
X014150Y023988D02*
X014321Y023817D01*
X014390Y023817D01*
X014458Y023885D01*
X014458Y023954D01*
X013073Y024237D02*
X013073Y024305D01*
X012936Y024442D01*
X012868Y024442D01*
X012800Y024374D01*
X012800Y024305D01*
X012834Y024271D01*
X012902Y024271D01*
X013005Y024374D01*
X013073Y024237D02*
X013005Y024168D01*
X012936Y024168D01*
X012865Y024097D02*
X012865Y024028D01*
X012796Y023960D01*
X012728Y023960D01*
X012591Y024097D01*
X012591Y024165D01*
X012660Y024234D01*
X012728Y024234D01*
X015221Y021778D02*
X015152Y021709D01*
X015152Y021641D01*
X015289Y021504D01*
X015357Y021504D01*
X015426Y021572D01*
X015426Y021641D01*
X015497Y021712D02*
X015463Y021746D01*
X015463Y021815D01*
X015531Y021883D01*
X015600Y021883D01*
X015634Y021849D01*
X015634Y021781D01*
X015566Y021712D01*
X015497Y021712D01*
X015463Y021815D02*
X015395Y021815D01*
X015360Y021849D01*
X015360Y021917D01*
X015429Y021986D01*
X015497Y021986D01*
X015531Y021952D01*
X015531Y021883D01*
X015289Y021778D02*
X015221Y021778D01*
X015825Y018748D02*
X015922Y018748D01*
X015874Y018748D02*
X015874Y018506D01*
X015825Y018458D01*
X015777Y018458D01*
X015729Y018506D01*
X016023Y018554D02*
X016168Y018554D01*
X016217Y018603D01*
X016217Y018699D01*
X016168Y018748D01*
X016023Y018748D01*
X016023Y018458D01*
X016318Y018458D02*
X016511Y018458D01*
X016415Y018458D02*
X016415Y018748D01*
X016318Y018651D01*
X020664Y018843D02*
X020906Y018843D01*
X020954Y018891D01*
X020954Y018988D01*
X020906Y019036D01*
X020664Y019036D01*
X020761Y019138D02*
X020664Y019234D01*
X020954Y019234D01*
X020954Y019138D02*
X020954Y019331D01*
X020954Y019432D02*
X020954Y019626D01*
X020954Y019529D02*
X020664Y019529D01*
X020761Y019432D01*
X026149Y017267D02*
X026149Y017171D01*
X026197Y017122D01*
X026149Y017021D02*
X026149Y016924D01*
X026149Y016973D02*
X026390Y016973D01*
X026439Y016924D01*
X026439Y016876D01*
X026390Y016828D01*
X026439Y017122D02*
X026245Y017316D01*
X026197Y017316D01*
X026149Y017267D01*
X026439Y017316D02*
X026439Y017122D01*
X024212Y013603D02*
X024260Y013555D01*
X024260Y013458D01*
X024212Y013410D01*
X024115Y013410D02*
X024067Y013506D01*
X024067Y013555D01*
X024115Y013603D01*
X024212Y013603D01*
X024115Y013410D02*
X023970Y013410D01*
X023970Y013603D01*
X023970Y013309D02*
X024212Y013309D01*
X024260Y013260D01*
X024260Y013163D01*
X024212Y013115D01*
X023970Y013115D01*
X024223Y012674D02*
X024175Y012626D01*
X024175Y012432D01*
X024223Y012384D01*
X024320Y012384D01*
X024368Y012432D01*
X024470Y012384D02*
X024663Y012577D01*
X024663Y012626D01*
X024615Y012674D01*
X024518Y012674D01*
X024470Y012626D01*
X024368Y012626D02*
X024320Y012674D01*
X024223Y012674D01*
X024470Y012384D02*
X024663Y012384D01*
X026076Y008379D02*
X026173Y008379D01*
X026125Y008379D02*
X026125Y008137D01*
X026076Y008089D01*
X026028Y008089D01*
X025979Y008137D01*
X026274Y008137D02*
X026274Y008234D01*
X026419Y008234D01*
X026468Y008186D01*
X026468Y008137D01*
X026419Y008089D01*
X026322Y008089D01*
X026274Y008137D01*
X026274Y008234D02*
X026371Y008331D01*
X026468Y008379D01*
X026468Y004879D02*
X026274Y004879D01*
X026274Y004734D01*
X026371Y004782D01*
X026419Y004782D01*
X026468Y004734D01*
X026468Y004637D01*
X026419Y004589D01*
X026322Y004589D01*
X026274Y004637D01*
X026125Y004637D02*
X026125Y004879D01*
X026173Y004879D02*
X026076Y004879D01*
X026125Y004637D02*
X026076Y004589D01*
X026028Y004589D01*
X025979Y004637D01*
X026014Y003942D02*
X026110Y003942D01*
X026062Y003942D02*
X026062Y003700D01*
X026014Y003651D01*
X025965Y003651D01*
X025917Y003700D01*
X026212Y003700D02*
X026260Y003651D01*
X026357Y003651D01*
X026405Y003700D01*
X026405Y003748D01*
X026357Y003797D01*
X026308Y003797D01*
X026357Y003797D02*
X026405Y003845D01*
X026405Y003893D01*
X026357Y003942D01*
X026260Y003942D01*
X026212Y003893D01*
X023263Y004038D02*
X023215Y003990D01*
X023118Y003990D01*
X023070Y004038D01*
X023070Y004087D01*
X023118Y004135D01*
X023215Y004135D01*
X023263Y004087D01*
X023263Y004038D01*
X023215Y004135D02*
X023263Y004183D01*
X023263Y004232D01*
X023215Y004280D01*
X023118Y004280D01*
X023070Y004232D01*
X023070Y004183D01*
X023118Y004135D01*
X022968Y004038D02*
X022968Y004280D01*
X022775Y004280D02*
X022775Y004038D01*
X022823Y003990D01*
X022920Y003990D01*
X022968Y004038D01*
X021364Y005490D02*
X021364Y005538D01*
X021558Y005732D01*
X021558Y005780D01*
X021364Y005780D01*
X021166Y005780D02*
X021166Y005490D01*
X021070Y005490D02*
X021263Y005490D01*
X021070Y005683D02*
X021166Y005780D01*
X020968Y005780D02*
X020968Y005538D01*
X020920Y005490D01*
X020823Y005490D01*
X020775Y005538D01*
X020775Y005780D01*
X022325Y001968D02*
X022325Y001678D01*
X022518Y001678D01*
X022620Y001678D02*
X022620Y001968D01*
X022813Y001968D01*
X022914Y001968D02*
X022914Y001678D01*
X023059Y001678D01*
X023108Y001726D01*
X023108Y001919D01*
X023059Y001968D01*
X022914Y001968D01*
X022716Y001823D02*
X022620Y001823D01*
X022620Y001678D02*
X022813Y001678D01*
X023209Y001678D02*
X023402Y001678D01*
X023306Y001678D02*
X023306Y001968D01*
X023209Y001871D01*
X020302Y010476D02*
X020060Y010476D01*
X020060Y010669D02*
X020302Y010669D01*
X020350Y010621D01*
X020350Y010524D01*
X020302Y010476D01*
X020350Y010770D02*
X020350Y010964D01*
X020350Y010867D02*
X020060Y010867D01*
X020156Y010770D01*
X020108Y011065D02*
X020060Y011113D01*
X020060Y011210D01*
X020108Y011258D01*
X020156Y011258D01*
X020205Y011210D01*
X020253Y011258D01*
X020302Y011258D01*
X020350Y011210D01*
X020350Y011113D01*
X020302Y011065D01*
X020205Y011162D02*
X020205Y011210D01*
D11*
X024160Y018313D02*
X024160Y018337D01*
X020660Y021313D02*
X020660Y021337D01*
X020660Y024813D02*
X020660Y024837D01*
X014547Y022700D02*
X014523Y022700D01*
X016535Y019087D02*
X016535Y019063D01*
X009672Y014200D02*
X009648Y014200D01*
X009172Y009325D02*
X009148Y009325D01*
X004172Y008825D02*
X004148Y008825D01*
X000672Y008825D02*
X000648Y008825D01*
X001648Y013825D02*
X001672Y013825D01*
X001160Y014813D02*
X001160Y014837D01*
D12*
X023185Y016306D02*
X023185Y016396D01*
X023185Y016351D02*
X023410Y016351D01*
X023455Y016306D01*
X023455Y016261D01*
X023410Y016216D01*
X023455Y016511D02*
X023185Y016511D01*
X023185Y016646D01*
X023230Y016691D01*
X023320Y016691D01*
X023365Y016646D01*
X023365Y016511D01*
X023455Y016805D02*
X023275Y016986D01*
X023230Y016986D01*
X023185Y016940D01*
X023185Y016850D01*
X023230Y016805D01*
X023455Y016805D02*
X023455Y016986D01*
D13*
X023054Y020144D02*
X024266Y020144D01*
X024940Y020837D02*
X024940Y021813D01*
X024266Y022506D02*
X023054Y022506D01*
X022380Y021825D02*
X022380Y020837D01*
X023160Y021325D02*
X023162Y021369D01*
X023168Y021413D01*
X023178Y021456D01*
X023191Y021498D01*
X023208Y021539D01*
X023229Y021578D01*
X023253Y021615D01*
X023280Y021650D01*
X023310Y021682D01*
X023343Y021712D01*
X023379Y021738D01*
X023416Y021762D01*
X023456Y021781D01*
X023497Y021798D01*
X023540Y021810D01*
X023583Y021819D01*
X023627Y021824D01*
X023671Y021825D01*
X023715Y021822D01*
X023759Y021815D01*
X023802Y021804D01*
X023844Y021790D01*
X023884Y021772D01*
X023923Y021750D01*
X023959Y021726D01*
X023993Y021698D01*
X024025Y021667D01*
X024054Y021633D01*
X024080Y021597D01*
X024102Y021559D01*
X024121Y021519D01*
X024136Y021477D01*
X024148Y021435D01*
X024156Y021391D01*
X024160Y021347D01*
X024160Y021303D01*
X024156Y021259D01*
X024148Y021215D01*
X024136Y021173D01*
X024121Y021131D01*
X024102Y021091D01*
X024080Y021053D01*
X024054Y021017D01*
X024025Y020983D01*
X023993Y020952D01*
X023959Y020924D01*
X023923Y020900D01*
X023884Y020878D01*
X023844Y020860D01*
X023802Y020846D01*
X023759Y020835D01*
X023715Y020828D01*
X023671Y020825D01*
X023627Y020826D01*
X023583Y020831D01*
X023540Y020840D01*
X023497Y020852D01*
X023456Y020869D01*
X023416Y020888D01*
X023379Y020912D01*
X023343Y020938D01*
X023310Y020968D01*
X023280Y021000D01*
X023253Y021035D01*
X023229Y021072D01*
X023208Y021111D01*
X023191Y021152D01*
X023178Y021194D01*
X023168Y021237D01*
X023162Y021281D01*
X023160Y021325D01*
X014932Y013671D02*
X014932Y011939D01*
X020754Y005396D02*
X022566Y005396D01*
X022054Y005219D02*
X022054Y004431D01*
X022566Y004254D02*
X020754Y004254D01*
X020754Y003896D02*
X022566Y003896D01*
X022054Y003719D02*
X022054Y002931D01*
X022566Y002754D02*
X020754Y002754D01*
D14*
X011024Y021360D02*
X010875Y021481D01*
X010815Y021450D01*
X010731Y021654D01*
X010768Y021676D01*
X010800Y021705D01*
X010824Y021741D01*
X010839Y021782D01*
X010845Y021825D01*
X010839Y021869D01*
X010824Y021910D01*
X010799Y021947D01*
X010766Y021976D01*
X010727Y021997D01*
X010684Y022008D01*
X010640Y022008D01*
X010597Y021998D01*
X010558Y021978D01*
X010524Y021950D01*
X010498Y021914D01*
X010482Y021873D01*
X010476Y021829D01*
X010480Y021785D01*
X010495Y021743D01*
X010519Y021706D01*
X010551Y021676D01*
X010589Y021654D01*
X010505Y021450D01*
X010445Y021481D01*
X010296Y021360D01*
X010195Y021461D01*
X010316Y021610D01*
X010285Y021670D01*
X010264Y021734D01*
X010074Y021753D01*
X010074Y021897D01*
X010264Y021916D01*
X010285Y021980D01*
X010316Y022040D01*
X010195Y022189D01*
X010296Y022290D01*
X010445Y022169D01*
X010505Y022200D01*
X010569Y022221D01*
X010588Y022411D01*
X010732Y022411D01*
X010751Y022221D01*
X010815Y022200D01*
X010875Y022169D01*
X011024Y022290D01*
X011125Y022189D01*
X011004Y022040D01*
X011035Y021980D01*
X011056Y021916D01*
X011246Y021897D01*
X011246Y021753D01*
X011056Y021734D01*
X011035Y021670D01*
X011004Y021610D01*
X011125Y021461D01*
X011024Y021360D01*
X011076Y021412D02*
X010960Y021412D01*
X010889Y021469D02*
X011119Y021469D01*
X011072Y021527D02*
X010783Y021527D01*
X010760Y021584D02*
X011025Y021584D01*
X011021Y021642D02*
X010736Y021642D01*
X010794Y021700D02*
X011045Y021700D01*
X011246Y021757D02*
X010830Y021757D01*
X010843Y021815D02*
X011246Y021815D01*
X011246Y021872D02*
X010838Y021872D01*
X010810Y021930D02*
X011051Y021930D01*
X011032Y021987D02*
X010745Y021987D01*
X010575Y021987D02*
X010288Y021987D01*
X010269Y021930D02*
X010510Y021930D01*
X010482Y021872D02*
X010074Y021872D01*
X010074Y021815D02*
X010477Y021815D01*
X010490Y021757D02*
X010074Y021757D01*
X010275Y021700D02*
X010526Y021700D01*
X010584Y021642D02*
X010299Y021642D01*
X010295Y021584D02*
X010560Y021584D01*
X010537Y021527D02*
X010248Y021527D01*
X010201Y021469D02*
X010431Y021469D01*
X010467Y021469D02*
X010513Y021469D01*
X010360Y021412D02*
X010244Y021412D01*
X010807Y021469D02*
X010853Y021469D01*
X011008Y022045D02*
X010312Y022045D01*
X010265Y022102D02*
X011055Y022102D01*
X011102Y022160D02*
X010218Y022160D01*
X010224Y022218D02*
X010386Y022218D01*
X010315Y022275D02*
X010281Y022275D01*
X010559Y022218D02*
X010761Y022218D01*
X010746Y022275D02*
X010574Y022275D01*
X010580Y022333D02*
X010740Y022333D01*
X010734Y022390D02*
X010586Y022390D01*
X010934Y022218D02*
X011096Y022218D01*
X011039Y022275D02*
X011005Y022275D01*
D15*
X010485Y019926D03*
X010485Y019905D03*
X010485Y019891D03*
X010485Y018155D03*
X010485Y018141D03*
X010485Y018127D03*
D16*
X010485Y018134D03*
X010485Y018148D03*
X010485Y018162D03*
X010485Y019898D03*
X010485Y019912D03*
X010485Y019919D03*
D17*
X010558Y019884D03*
X010558Y019870D03*
X010558Y019857D03*
X010558Y019850D03*
X010558Y019836D03*
X010558Y019822D03*
X010558Y019808D03*
X010558Y019794D03*
X010558Y019780D03*
X010558Y019773D03*
X010558Y019759D03*
X010558Y019745D03*
X010558Y019732D03*
X010558Y019725D03*
X010558Y019711D03*
X010704Y019711D03*
X010704Y019725D03*
X010704Y019732D03*
X010704Y019745D03*
X010704Y019759D03*
X010704Y019773D03*
X010704Y019780D03*
X010704Y019794D03*
X010704Y019808D03*
X010704Y019822D03*
X010704Y019836D03*
X010704Y019850D03*
X010704Y019857D03*
X010704Y019870D03*
X010704Y019884D03*
X010704Y019898D03*
X010704Y019912D03*
X010704Y019919D03*
X010704Y019933D03*
X010704Y019947D03*
X010704Y019961D03*
X010704Y019975D03*
X010704Y019982D03*
X010704Y019995D03*
X010704Y020009D03*
X010704Y020023D03*
X010704Y020037D03*
X010704Y020044D03*
X010704Y020058D03*
X010704Y020072D03*
X010704Y020086D03*
X010704Y020093D03*
X010704Y020107D03*
X010704Y020120D03*
X010704Y020134D03*
X010704Y020148D03*
X010704Y020155D03*
X010704Y020169D03*
X010704Y020183D03*
X010704Y020197D03*
X010704Y020211D03*
X010704Y020225D03*
X010704Y020232D03*
X010704Y020245D03*
X010704Y020259D03*
X010704Y020273D03*
X010704Y020287D03*
X010704Y020294D03*
X010704Y020308D03*
X010704Y020322D03*
X010704Y020336D03*
X010704Y020350D03*
X010704Y020357D03*
X010704Y020370D03*
X010704Y020384D03*
X010704Y020398D03*
X010704Y020412D03*
X010704Y020419D03*
X010704Y020433D03*
X010704Y020447D03*
X010704Y020461D03*
X010704Y020475D03*
X010704Y020482D03*
X010704Y020495D03*
X010704Y020509D03*
X010704Y020523D03*
X010704Y020537D03*
X010704Y020544D03*
X010704Y020558D03*
X010704Y020572D03*
X010704Y019697D03*
X010704Y019683D03*
X010704Y019669D03*
X010704Y019662D03*
X010704Y019648D03*
X010704Y019634D03*
X010704Y019620D03*
X010704Y019607D03*
X010704Y019600D03*
X010704Y019586D03*
X010704Y019572D03*
X010704Y019558D03*
X010704Y019544D03*
X010704Y019530D03*
X010704Y019523D03*
X010558Y019232D03*
X010558Y019225D03*
X010558Y019211D03*
X010558Y019197D03*
X010558Y019183D03*
X010558Y019169D03*
X010558Y019162D03*
X010558Y019148D03*
X010558Y019134D03*
X010558Y019120D03*
X010558Y019107D03*
X010558Y019100D03*
X010558Y019086D03*
X010558Y019072D03*
X010558Y019058D03*
X010558Y019044D03*
X010558Y019030D03*
X010558Y019023D03*
X010558Y019009D03*
X010558Y018995D03*
X010558Y018982D03*
X010558Y018975D03*
X010558Y018961D03*
X010558Y018947D03*
X010558Y018933D03*
X010558Y018919D03*
X010558Y018905D03*
X010558Y018898D03*
X010558Y018884D03*
X010558Y018870D03*
X010558Y018857D03*
X010558Y018850D03*
X010558Y018836D03*
X010558Y018822D03*
X010558Y018808D03*
X010558Y018794D03*
X010558Y018787D03*
X010558Y018773D03*
X010558Y018759D03*
X010558Y018745D03*
X010558Y018732D03*
X010558Y018725D03*
X010558Y018711D03*
X010558Y018697D03*
X010558Y018683D03*
X010558Y018669D03*
X010558Y018655D03*
X010558Y018648D03*
X010558Y018634D03*
X010558Y018620D03*
X010558Y018607D03*
X010558Y018600D03*
X010558Y018586D03*
X010558Y018572D03*
X010558Y018558D03*
X010558Y018544D03*
X010558Y018537D03*
X010558Y018523D03*
X010558Y018509D03*
X010558Y018495D03*
X010558Y018482D03*
X010558Y018475D03*
X010558Y018461D03*
X010558Y018447D03*
X010558Y018433D03*
X010558Y018419D03*
X010558Y018412D03*
X010558Y018398D03*
X010558Y018384D03*
X010558Y018370D03*
X010558Y018357D03*
X010558Y018350D03*
X010558Y018336D03*
X010558Y018322D03*
X010558Y018308D03*
X010558Y018294D03*
X010558Y018280D03*
X010558Y018273D03*
X010558Y018259D03*
X010558Y018245D03*
X010558Y018232D03*
X010558Y018218D03*
X010558Y018211D03*
X010558Y018197D03*
X010558Y018183D03*
X010558Y018169D03*
X010704Y018857D03*
X010704Y018870D03*
X010704Y018884D03*
X010704Y018898D03*
X010704Y018905D03*
X010704Y018919D03*
X010704Y018933D03*
X010704Y018947D03*
X010704Y018961D03*
X010704Y018975D03*
X010704Y018982D03*
X010704Y018995D03*
X010704Y019009D03*
X010704Y019023D03*
X010704Y019030D03*
X010704Y019044D03*
D18*
X010412Y018947D03*
X010412Y018933D03*
X010412Y018919D03*
X010412Y018905D03*
X010412Y018898D03*
X010412Y018884D03*
X010412Y018870D03*
X010412Y018857D03*
X010412Y018850D03*
X010412Y018836D03*
X010412Y018822D03*
X010412Y018808D03*
X010412Y018794D03*
X010412Y018787D03*
X010412Y018773D03*
X010412Y018759D03*
X010412Y018745D03*
X010412Y018732D03*
X010412Y018725D03*
X010412Y018711D03*
X010412Y018697D03*
X010412Y018683D03*
X010412Y018669D03*
X010412Y018655D03*
X010412Y018648D03*
X010412Y018634D03*
X010412Y018620D03*
X010412Y018607D03*
X010412Y018600D03*
X010412Y018586D03*
X010412Y018572D03*
X010412Y018558D03*
X010412Y018544D03*
X010412Y018537D03*
X010412Y018523D03*
X010412Y018509D03*
X010412Y018495D03*
X010412Y018482D03*
X010412Y018475D03*
X010412Y018461D03*
X010412Y018447D03*
X010412Y018433D03*
X010412Y018419D03*
X010412Y018412D03*
X010412Y018398D03*
X010412Y018384D03*
X010412Y018370D03*
X010412Y018357D03*
X010412Y018350D03*
X010412Y018336D03*
X010412Y018322D03*
X010412Y018308D03*
X010412Y018294D03*
X010412Y018280D03*
X010412Y018273D03*
X010412Y018259D03*
X010412Y018245D03*
X010412Y018232D03*
X010412Y018218D03*
X010412Y018211D03*
X010412Y018197D03*
X010412Y018183D03*
X010412Y018169D03*
X010412Y019162D03*
X010412Y019169D03*
X010412Y019183D03*
X010412Y019197D03*
X010412Y019211D03*
X010412Y019225D03*
X010412Y019232D03*
X010412Y019245D03*
X010412Y019259D03*
X010412Y019273D03*
X010412Y019287D03*
X010412Y019294D03*
X010412Y019308D03*
X010412Y019322D03*
X010412Y019336D03*
X010412Y019350D03*
X010412Y019357D03*
X010412Y019370D03*
X010412Y019384D03*
X010412Y019398D03*
X010412Y019412D03*
X010412Y019419D03*
X010412Y019433D03*
X010412Y019857D03*
X010412Y019870D03*
X010412Y019884D03*
D19*
X010558Y019877D03*
X010558Y019863D03*
X010558Y019843D03*
X010558Y019829D03*
X010558Y019815D03*
X010558Y019801D03*
X010558Y019787D03*
X010558Y019766D03*
X010558Y019752D03*
X010558Y019738D03*
X010558Y019718D03*
X010704Y019718D03*
X010704Y019704D03*
X010704Y019690D03*
X010704Y019676D03*
X010704Y019655D03*
X010704Y019641D03*
X010704Y019627D03*
X010704Y019613D03*
X010704Y019593D03*
X010704Y019579D03*
X010704Y019565D03*
X010704Y019551D03*
X010704Y019537D03*
X010704Y019738D03*
X010704Y019752D03*
X010704Y019766D03*
X010704Y019787D03*
X010704Y019801D03*
X010704Y019815D03*
X010704Y019829D03*
X010704Y019843D03*
X010704Y019863D03*
X010704Y019877D03*
X010704Y019891D03*
X010704Y019905D03*
X010704Y019926D03*
X010704Y019940D03*
X010704Y019954D03*
X010704Y019968D03*
X010704Y019988D03*
X010704Y020002D03*
X010704Y020016D03*
X010704Y020030D03*
X010704Y020051D03*
X010704Y020065D03*
X010704Y020079D03*
X010704Y020100D03*
X010704Y020113D03*
X010704Y020127D03*
X010704Y020141D03*
X010704Y020162D03*
X010704Y020176D03*
X010704Y020190D03*
X010704Y020204D03*
X010704Y020218D03*
X010704Y020238D03*
X010704Y020252D03*
X010704Y020266D03*
X010704Y020280D03*
X010704Y020301D03*
X010704Y020315D03*
X010704Y020329D03*
X010704Y020343D03*
X010704Y020363D03*
X010704Y020377D03*
X010704Y020391D03*
X010704Y020405D03*
X010704Y020426D03*
X010704Y020440D03*
X010704Y020454D03*
X010704Y020468D03*
X010704Y020488D03*
X010704Y020502D03*
X010704Y020516D03*
X010704Y020530D03*
X010704Y020551D03*
X010704Y020565D03*
X010704Y020579D03*
X010558Y019218D03*
X010558Y019204D03*
X010558Y019190D03*
X010558Y019176D03*
X010558Y019155D03*
X010558Y019141D03*
X010558Y019127D03*
X010558Y019113D03*
X010558Y019093D03*
X010558Y019079D03*
X010558Y019065D03*
X010558Y019051D03*
X010558Y019037D03*
X010558Y019016D03*
X010558Y019002D03*
X010558Y018988D03*
X010558Y018968D03*
X010558Y018954D03*
X010558Y018940D03*
X010558Y018926D03*
X010558Y018912D03*
X010558Y018891D03*
X010558Y018877D03*
X010558Y018863D03*
X010558Y018843D03*
X010558Y018829D03*
X010558Y018815D03*
X010558Y018801D03*
X010558Y018780D03*
X010558Y018766D03*
X010558Y018752D03*
X010558Y018738D03*
X010558Y018718D03*
X010558Y018704D03*
X010558Y018690D03*
X010558Y018676D03*
X010558Y018662D03*
X010558Y018641D03*
X010558Y018627D03*
X010558Y018613D03*
X010558Y018593D03*
X010558Y018579D03*
X010558Y018565D03*
X010558Y018551D03*
X010558Y018530D03*
X010558Y018516D03*
X010558Y018502D03*
X010558Y018488D03*
X010558Y018468D03*
X010558Y018454D03*
X010558Y018440D03*
X010558Y018426D03*
X010558Y018405D03*
X010558Y018391D03*
X010558Y018377D03*
X010558Y018363D03*
X010558Y018343D03*
X010558Y018329D03*
X010558Y018315D03*
X010558Y018301D03*
X010558Y018287D03*
X010558Y018266D03*
X010558Y018252D03*
X010558Y018238D03*
X010558Y018225D03*
X010558Y018204D03*
X010558Y018190D03*
X010558Y018176D03*
X010704Y018863D03*
X010704Y018877D03*
X010704Y018891D03*
X010704Y018912D03*
X010704Y018926D03*
X010704Y018940D03*
X010704Y018954D03*
X010704Y018968D03*
X010704Y018988D03*
X010704Y019002D03*
X010704Y019016D03*
X010704Y019037D03*
X010704Y019051D03*
D20*
X010412Y018954D03*
X010412Y018940D03*
X010412Y018926D03*
X010412Y018912D03*
X010412Y018891D03*
X010412Y018877D03*
X010412Y018863D03*
X010412Y018843D03*
X010412Y018829D03*
X010412Y018815D03*
X010412Y018801D03*
X010412Y018780D03*
X010412Y018766D03*
X010412Y018752D03*
X010412Y018738D03*
X010412Y018718D03*
X010412Y018704D03*
X010412Y018690D03*
X010412Y018676D03*
X010412Y018662D03*
X010412Y018641D03*
X010412Y018627D03*
X010412Y018613D03*
X010412Y018593D03*
X010412Y018579D03*
X010412Y018565D03*
X010412Y018551D03*
X010412Y018530D03*
X010412Y018516D03*
X010412Y018502D03*
X010412Y018488D03*
X010412Y018468D03*
X010412Y018454D03*
X010412Y018440D03*
X010412Y018426D03*
X010412Y018405D03*
X010412Y018391D03*
X010412Y018377D03*
X010412Y018363D03*
X010412Y018343D03*
X010412Y018329D03*
X010412Y018315D03*
X010412Y018301D03*
X010412Y018287D03*
X010412Y018266D03*
X010412Y018252D03*
X010412Y018238D03*
X010412Y018225D03*
X010412Y018204D03*
X010412Y018190D03*
X010412Y018176D03*
X010412Y019176D03*
X010412Y019190D03*
X010412Y019204D03*
X010412Y019218D03*
X010412Y019238D03*
X010412Y019252D03*
X010412Y019266D03*
X010412Y019280D03*
X010412Y019301D03*
X010412Y019315D03*
X010412Y019329D03*
X010412Y019343D03*
X010412Y019363D03*
X010412Y019377D03*
X010412Y019391D03*
X010412Y019405D03*
X010412Y019426D03*
X010412Y019863D03*
X010412Y019877D03*
D21*
X010777Y020593D03*
X010777Y020613D03*
X010777Y018843D03*
X010777Y018829D03*
X010777Y018815D03*
D22*
X010777Y018822D03*
X010777Y018836D03*
X010777Y018850D03*
X010777Y020586D03*
X010777Y020600D03*
X010777Y020607D03*
X010777Y020620D03*
D23*
X011533Y019454D03*
X011533Y019440D03*
X011533Y019426D03*
X011533Y019405D03*
X011533Y019363D03*
X011533Y019343D03*
X011533Y019329D03*
X011533Y019315D03*
X011110Y018843D03*
X009742Y019252D03*
X009742Y019266D03*
X009735Y019280D03*
X009735Y019301D03*
X009735Y019315D03*
X009735Y019426D03*
X009735Y019440D03*
X009735Y019454D03*
X009742Y019475D03*
D24*
X010110Y018843D03*
D25*
X011113Y018850D03*
D26*
X011436Y019100D03*
X011443Y019107D03*
X011450Y019648D03*
X010908Y019669D03*
X010110Y018850D03*
X009825Y019648D03*
D27*
X010312Y019058D03*
X011110Y018857D03*
X011374Y019058D03*
D28*
X010849Y018898D03*
X010849Y018884D03*
X010849Y018870D03*
X010849Y018857D03*
X010849Y019336D03*
X010849Y019350D03*
X010849Y019357D03*
X010849Y019370D03*
X010849Y019384D03*
X010849Y019398D03*
X010849Y019412D03*
X010849Y019419D03*
X010849Y019433D03*
X010849Y019447D03*
X010849Y019461D03*
X010849Y019468D03*
X010849Y019482D03*
X010849Y019495D03*
X010849Y019509D03*
X010849Y019523D03*
X010849Y019530D03*
X010849Y019544D03*
X010849Y019558D03*
X010849Y019572D03*
X010849Y019586D03*
X010849Y019794D03*
X010849Y019808D03*
X010849Y019822D03*
X010849Y019836D03*
X010849Y019850D03*
X010849Y019857D03*
X010849Y019870D03*
X010849Y019884D03*
X010849Y019898D03*
X010849Y019912D03*
X010849Y019919D03*
X010849Y019933D03*
X010849Y019947D03*
X010849Y019961D03*
X010849Y019975D03*
X010849Y019982D03*
X010849Y019995D03*
X010849Y020009D03*
X010849Y020023D03*
X010849Y020037D03*
X010849Y020044D03*
X010849Y020058D03*
X010849Y020072D03*
X010849Y020086D03*
X010849Y020093D03*
X010849Y020107D03*
X010849Y020120D03*
X010849Y020134D03*
X010849Y020148D03*
X010849Y020155D03*
X010849Y020169D03*
X010849Y020183D03*
X010849Y020197D03*
X010849Y020211D03*
X010849Y020225D03*
X010849Y020232D03*
X010849Y020245D03*
X010849Y020259D03*
X010849Y020273D03*
X010849Y020287D03*
X010849Y020294D03*
X010849Y020308D03*
X010849Y020322D03*
X010849Y020336D03*
X010849Y020350D03*
X010849Y020357D03*
X010849Y020370D03*
X010849Y020384D03*
X010849Y020398D03*
X010849Y020412D03*
X010849Y020419D03*
X010849Y020433D03*
X010849Y020447D03*
X010849Y020461D03*
X010849Y020475D03*
X010849Y020482D03*
X010849Y020495D03*
X010849Y020509D03*
X010849Y020523D03*
X010849Y020537D03*
X010849Y020544D03*
X010849Y020558D03*
X010849Y020572D03*
D29*
X011159Y019898D03*
X011409Y019683D03*
X011402Y019072D03*
X010110Y018857D03*
X009853Y019072D03*
X009867Y019683D03*
D30*
X011110Y018863D03*
D31*
X010849Y018863D03*
X010849Y018877D03*
X010849Y018891D03*
X010849Y019329D03*
X010849Y019343D03*
X010849Y019363D03*
X010849Y019377D03*
X010849Y019391D03*
X010849Y019405D03*
X010849Y019426D03*
X010849Y019440D03*
X010849Y019454D03*
X010849Y019475D03*
X010849Y019488D03*
X010849Y019502D03*
X010849Y019516D03*
X010849Y019537D03*
X010849Y019551D03*
X010849Y019565D03*
X010849Y019579D03*
X010849Y019593D03*
X010849Y019801D03*
X010849Y019815D03*
X010849Y019829D03*
X010849Y019843D03*
X010849Y019863D03*
X010849Y019877D03*
X010849Y019891D03*
X010849Y019905D03*
X010849Y019926D03*
X010849Y019940D03*
X010849Y019954D03*
X010849Y019968D03*
X010849Y019988D03*
X010849Y020002D03*
X010849Y020016D03*
X010849Y020030D03*
X010849Y020051D03*
X010849Y020065D03*
X010849Y020079D03*
X010849Y020100D03*
X010849Y020113D03*
X010849Y020127D03*
X010849Y020141D03*
X010849Y020162D03*
X010849Y020176D03*
X010849Y020190D03*
X010849Y020204D03*
X010849Y020218D03*
X010849Y020238D03*
X010849Y020252D03*
X010849Y020266D03*
X010849Y020280D03*
X010849Y020301D03*
X010849Y020315D03*
X010849Y020329D03*
X010849Y020343D03*
X010849Y020363D03*
X010849Y020377D03*
X010849Y020391D03*
X010849Y020405D03*
X010849Y020426D03*
X010849Y020440D03*
X010849Y020454D03*
X010849Y020468D03*
X010849Y020488D03*
X010849Y020502D03*
X010849Y020516D03*
X010849Y020530D03*
X010849Y020551D03*
X010849Y020565D03*
X010849Y020579D03*
D32*
X011159Y019891D03*
X010110Y018863D03*
D33*
X010811Y019148D03*
X010825Y019134D03*
X011110Y018870D03*
X010436Y019620D03*
D34*
X010110Y018870D03*
D35*
X011110Y018877D03*
D36*
X010784Y019176D03*
X010485Y019579D03*
X010110Y018877D03*
D37*
X010114Y018898D03*
X011107Y018884D03*
D38*
X010700Y019308D03*
X010561Y019447D03*
X010554Y019509D03*
X010422Y019634D03*
X010110Y018884D03*
D39*
X011107Y018891D03*
D40*
X010110Y018891D03*
D41*
X011106Y018898D03*
D42*
X011085Y018905D03*
X011155Y019808D03*
D43*
X010110Y018905D03*
D44*
X011089Y018912D03*
D45*
X011155Y019843D03*
X010113Y018912D03*
D46*
X011096Y018919D03*
D47*
X010110Y018919D03*
D48*
X011099Y018926D03*
D49*
X010113Y018926D03*
D50*
X011103Y018933D03*
D51*
X011155Y019822D03*
X010335Y019697D03*
X010113Y018933D03*
D52*
X010159Y019815D03*
X011110Y018940D03*
D53*
X011155Y019815D03*
X010113Y018940D03*
D54*
X011110Y018947D03*
D55*
X010113Y018947D03*
D56*
X010158Y019801D03*
X011110Y018954D03*
D57*
X010113Y018954D03*
D58*
X011110Y018961D03*
D59*
X010138Y018961D03*
D60*
X010124Y018988D03*
X010158Y019787D03*
X011110Y018968D03*
D61*
X010134Y018968D03*
D62*
X011110Y018975D03*
X011144Y019759D03*
D63*
X010131Y018975D03*
D64*
X010110Y019023D03*
X010158Y019773D03*
X011110Y018982D03*
D65*
X010128Y018982D03*
D66*
X011110Y018988D03*
X011158Y019718D03*
D67*
X011110Y018995D03*
D68*
X010121Y018995D03*
D69*
X011110Y019002D03*
D70*
X010117Y019002D03*
D71*
X011113Y019009D03*
D72*
X010114Y019009D03*
D73*
X010155Y019738D03*
X011113Y019016D03*
D74*
X010114Y019016D03*
D75*
X010159Y019732D03*
X011110Y019023D03*
D76*
X011110Y019030D03*
D77*
X011155Y019725D03*
X011155Y019732D03*
X010107Y019030D03*
D78*
X011110Y019037D03*
D79*
X010107Y019037D03*
X010155Y019766D03*
D80*
X010155Y019711D03*
X011113Y019044D03*
D81*
X010103Y019044D03*
D82*
X011110Y019051D03*
D83*
X010287Y019051D03*
X009912Y019051D03*
D84*
X010923Y019058D03*
D85*
X009884Y019058D03*
D86*
X011391Y019065D03*
D87*
X010905Y019065D03*
D88*
X010329Y019065D03*
D89*
X009867Y019065D03*
D90*
X010367Y019683D03*
X010895Y019072D03*
D91*
X010339Y019072D03*
D92*
X009856Y019676D03*
X011419Y019676D03*
X011412Y019079D03*
D93*
X010884Y019079D03*
D94*
X010350Y019079D03*
D95*
X009846Y019079D03*
D96*
X009836Y019086D03*
X009850Y019669D03*
X011426Y019669D03*
X011419Y019086D03*
D97*
X010878Y019086D03*
D98*
X010357Y019086D03*
X009815Y019107D03*
X009815Y019634D03*
X011454Y019120D03*
D99*
X011429Y019093D03*
D100*
X010871Y019093D03*
D101*
X010364Y019093D03*
X011461Y019127D03*
D102*
X009829Y019093D03*
X009829Y019655D03*
D103*
X010864Y019100D03*
D104*
X010371Y019100D03*
X009787Y019148D03*
X009780Y019586D03*
X011482Y019607D03*
X011489Y019169D03*
X011482Y019162D03*
X011475Y019148D03*
D105*
X009822Y019100D03*
D106*
X010697Y019322D03*
X010857Y019107D03*
D107*
X010378Y019107D03*
X009773Y019169D03*
X009773Y019572D03*
X011503Y019572D03*
X011503Y019197D03*
D108*
X011447Y019113D03*
D109*
X010853Y019113D03*
X010707Y019252D03*
X010700Y019315D03*
X010561Y019454D03*
X010415Y019641D03*
D110*
X010381Y019113D03*
X009763Y019190D03*
X009756Y019204D03*
X011506Y019551D03*
X011513Y019537D03*
D111*
X011457Y019641D03*
X011158Y019905D03*
X009811Y019113D03*
D112*
X010558Y019461D03*
X010558Y019468D03*
X010558Y019482D03*
X010558Y019495D03*
X010704Y019294D03*
X010704Y019287D03*
X010704Y019273D03*
X010704Y019259D03*
X010843Y019120D03*
D113*
X010388Y019120D03*
X011527Y019287D03*
X011527Y019482D03*
X011527Y019495D03*
D114*
X011464Y019634D03*
X010901Y019662D03*
X009804Y019120D03*
D115*
X010433Y019627D03*
X010558Y019502D03*
X010558Y019488D03*
X010558Y019475D03*
X010704Y019301D03*
X010704Y019280D03*
X010704Y019266D03*
X010836Y019127D03*
D116*
X010391Y019127D03*
D117*
X009797Y019127D03*
X009797Y019613D03*
X011478Y019613D03*
X011478Y019155D03*
D118*
X011468Y019134D03*
D119*
X010398Y019134D03*
D120*
X009790Y019134D03*
X009790Y019600D03*
X009790Y019607D03*
X011471Y019620D03*
D121*
X011471Y019141D03*
X010894Y019655D03*
D122*
X010818Y019141D03*
D123*
X010402Y019141D03*
D124*
X009787Y019141D03*
X009780Y019155D03*
X009787Y019593D03*
D125*
X010405Y019148D03*
X010856Y019600D03*
X011155Y019912D03*
D126*
X010804Y019155D03*
D127*
X010409Y019155D03*
D128*
X010797Y019162D03*
D129*
X011492Y019183D03*
X011492Y019586D03*
X011485Y019600D03*
X009776Y019162D03*
D130*
X010159Y019884D03*
X010777Y019183D03*
X010791Y019169D03*
D131*
X011492Y019176D03*
X011492Y019593D03*
X009776Y019579D03*
X009769Y019565D03*
X009769Y019176D03*
D132*
X009766Y019183D03*
X009759Y019197D03*
X009766Y019558D03*
D133*
X011496Y019579D03*
X011503Y019565D03*
X011503Y019204D03*
X011496Y019190D03*
D134*
X011155Y019877D03*
X010613Y019405D03*
X010620Y019391D03*
X010634Y019377D03*
X010641Y019363D03*
X010669Y019329D03*
X010752Y019218D03*
X010759Y019204D03*
X010773Y019190D03*
X010516Y019537D03*
X010495Y019565D03*
D135*
X010488Y019572D03*
X010502Y019558D03*
X010509Y019544D03*
X010523Y019530D03*
X010523Y019523D03*
X010606Y019412D03*
X010627Y019384D03*
X010648Y019357D03*
X010655Y019350D03*
X010662Y019336D03*
X010738Y019232D03*
X010745Y019225D03*
X010752Y019211D03*
X010766Y019197D03*
D136*
X011506Y019211D03*
X011513Y019225D03*
X011513Y019232D03*
X011513Y019544D03*
X011506Y019558D03*
X009763Y019544D03*
X009756Y019530D03*
X009756Y019523D03*
X009756Y019211D03*
D137*
X009759Y019537D03*
X009766Y019551D03*
X010884Y019641D03*
X011509Y019218D03*
D138*
X011516Y019238D03*
X011523Y019252D03*
X011523Y019266D03*
X011523Y019502D03*
X011523Y019516D03*
X009752Y019516D03*
X009752Y019218D03*
D139*
X009752Y019225D03*
X010877Y019634D03*
X011516Y019530D03*
X011516Y019523D03*
X011523Y019509D03*
X011523Y019273D03*
X011523Y019259D03*
X011516Y019245D03*
D140*
X011530Y019294D03*
X009746Y019245D03*
X009746Y019232D03*
X009746Y019495D03*
D141*
X010551Y019516D03*
X010565Y019440D03*
X010711Y019238D03*
D142*
X011530Y019301D03*
X009746Y019238D03*
X009746Y019488D03*
X009746Y019502D03*
D143*
X010405Y019648D03*
X010711Y019245D03*
D144*
X011533Y019308D03*
X011533Y019322D03*
X011533Y019336D03*
X011533Y019350D03*
X011533Y019357D03*
X011533Y019412D03*
X011533Y019419D03*
X011533Y019433D03*
X011533Y019447D03*
X011533Y019461D03*
X011533Y019468D03*
X009742Y019482D03*
X009735Y019447D03*
X009735Y019433D03*
X009735Y019419D03*
X009735Y019412D03*
X009735Y019322D03*
X009735Y019308D03*
X009735Y019294D03*
X009735Y019287D03*
X009742Y019259D03*
D145*
X009739Y019273D03*
X009739Y019461D03*
X009739Y019468D03*
D146*
X010874Y019627D03*
X011527Y019488D03*
X011527Y019475D03*
X011527Y019280D03*
D147*
X011537Y019377D03*
X011537Y019391D03*
X009732Y019391D03*
X009732Y019377D03*
X009732Y019363D03*
X009732Y019343D03*
X009732Y019329D03*
X009732Y019405D03*
D148*
X009732Y019398D03*
X009732Y019384D03*
X009732Y019370D03*
X009732Y019357D03*
X009732Y019350D03*
X009732Y019336D03*
X011537Y019370D03*
X011537Y019384D03*
X011537Y019398D03*
D149*
X010659Y019343D03*
X010506Y019551D03*
D150*
X010603Y019419D03*
X010638Y019370D03*
D151*
X010617Y019398D03*
D152*
X010600Y019426D03*
X011343Y019704D03*
D153*
X010593Y019433D03*
D154*
X009749Y019509D03*
D155*
X010454Y019607D03*
X010461Y019600D03*
X010475Y019586D03*
D156*
X010468Y019593D03*
D157*
X010860Y019607D03*
X010159Y019912D03*
D158*
X010863Y019613D03*
D159*
X010447Y019613D03*
D160*
X010867Y019620D03*
D161*
X009801Y019620D03*
D162*
X009808Y019627D03*
X011468Y019627D03*
D163*
X011443Y019655D03*
X009818Y019641D03*
D164*
X010888Y019648D03*
D165*
X011155Y019863D03*
X010398Y019655D03*
D166*
X009839Y019662D03*
X011436Y019662D03*
D167*
X010391Y019662D03*
D168*
X010384Y019669D03*
D169*
X010915Y019676D03*
D170*
X010377Y019676D03*
D171*
X010926Y019683D03*
D172*
X011398Y019690D03*
X009877Y019690D03*
D173*
X010940Y019690D03*
D174*
X010356Y019690D03*
D175*
X009898Y019697D03*
X010953Y019697D03*
X011377Y019697D03*
D176*
X010988Y019704D03*
D177*
X010179Y019704D03*
D178*
X011162Y019711D03*
D179*
X010155Y019718D03*
D180*
X010155Y019725D03*
D181*
X011151Y019738D03*
D182*
X011148Y019745D03*
D183*
X010155Y019745D03*
D184*
X011144Y019752D03*
D185*
X010155Y019752D03*
D186*
X010155Y019759D03*
D187*
X011141Y019766D03*
D188*
X011138Y019773D03*
D189*
X011134Y019780D03*
D190*
X010158Y019780D03*
D191*
X011131Y019787D03*
D192*
X011152Y019794D03*
D193*
X010158Y019794D03*
D194*
X010166Y019829D03*
X011152Y019801D03*
D195*
X010159Y019808D03*
D196*
X010162Y019822D03*
D197*
X011152Y019829D03*
D198*
X011155Y019836D03*
D199*
X010169Y019836D03*
D200*
X010176Y019843D03*
D201*
X011155Y019850D03*
D202*
X010180Y019850D03*
D203*
X010158Y019870D03*
X011158Y019857D03*
D204*
X010159Y019857D03*
D205*
X010158Y019863D03*
D206*
X011155Y019870D03*
D207*
X010158Y019877D03*
D208*
X011159Y019884D03*
D209*
X010155Y019891D03*
D210*
X010159Y019898D03*
D211*
X010155Y019905D03*
D212*
X010123Y020187D02*
X010123Y020334D01*
X010050Y020334D02*
X010013Y020334D01*
X010050Y020334D02*
X010123Y020261D01*
X010197Y020261D02*
X010344Y020261D01*
X010344Y020297D02*
X010307Y020334D01*
X010234Y020334D01*
X010197Y020297D01*
X010197Y020261D01*
X010234Y020187D02*
X010307Y020187D01*
X010344Y020224D01*
X010344Y020297D01*
X010418Y020297D02*
X010418Y020224D01*
X010455Y020187D01*
X010565Y020187D01*
X010565Y020114D02*
X010565Y020334D01*
X010455Y020334D01*
X010418Y020297D01*
X009939Y020297D02*
X009939Y020224D01*
X009902Y020187D01*
X009792Y020187D01*
X009718Y020224D02*
X009718Y020297D01*
X009681Y020334D01*
X009608Y020334D01*
X009571Y020297D01*
X009571Y020261D01*
X009718Y020261D01*
X009718Y020224D02*
X009681Y020187D01*
X009608Y020187D01*
X009497Y020187D02*
X009387Y020187D01*
X009350Y020224D01*
X009350Y020297D01*
X009387Y020334D01*
X009497Y020334D01*
X009497Y020114D01*
X009239Y020224D02*
X009203Y020187D01*
X009239Y020224D02*
X009239Y020371D01*
X009203Y020334D02*
X009276Y020334D01*
X009129Y020334D02*
X009092Y020334D01*
X009092Y020187D01*
X009129Y020187D02*
X009055Y020187D01*
X008981Y020224D02*
X008945Y020187D01*
X008871Y020187D01*
X008835Y020224D01*
X008835Y020297D01*
X008871Y020334D01*
X008945Y020334D01*
X008981Y020297D01*
X008981Y020224D01*
X009092Y020408D02*
X009092Y020444D01*
X008760Y020334D02*
X008650Y020334D01*
X008614Y020297D01*
X008614Y020187D01*
X008760Y020187D02*
X008760Y020334D01*
X009792Y020334D02*
X009902Y020334D01*
X009939Y020297D01*
X010997Y018654D02*
X010997Y018618D01*
X010997Y018544D02*
X010997Y018397D01*
X011033Y018397D02*
X010960Y018397D01*
X010886Y018434D02*
X010849Y018397D01*
X010739Y018397D01*
X010739Y018544D02*
X010849Y018544D01*
X010886Y018507D01*
X010886Y018434D01*
X010997Y018544D02*
X011033Y018544D01*
X011108Y018507D02*
X011108Y018397D01*
X011181Y018397D02*
X011181Y018507D01*
X011144Y018544D01*
X011108Y018507D01*
X011181Y018507D02*
X011218Y018544D01*
X011254Y018544D01*
X011254Y018397D01*
X011329Y018397D02*
X011439Y018397D01*
X011475Y018434D01*
X011439Y018471D01*
X011329Y018471D01*
X011329Y018507D02*
X011329Y018397D01*
X011329Y018507D02*
X011365Y018544D01*
X011439Y018544D01*
X011550Y018507D02*
X011550Y018397D01*
X011550Y018507D02*
X011586Y018544D01*
X011696Y018544D01*
X011696Y018397D01*
X011771Y018397D02*
X011881Y018397D01*
X011917Y018434D01*
X011917Y018544D01*
X011992Y018544D02*
X012102Y018544D01*
X012138Y018507D01*
X012138Y018434D01*
X012102Y018397D01*
X011992Y018397D01*
X011992Y018618D01*
X011771Y018544D02*
X011771Y018361D01*
X011807Y018324D01*
X011844Y018324D01*
M02*
