G75*
%MOIN*%
%OFA0B0*%
%FSLAX24Y24*%
%IPPOS*%
%LPD*%
%AMOC8*
5,1,8,0,0,1.08239X$1,22.5*
%
%ADD10R,0.0354X0.0276*%
%ADD11R,0.0315X0.0157*%
%ADD12R,0.0276X0.0354*%
%ADD13R,0.0157X0.0315*%
%ADD14R,0.0236X0.0157*%
%ADD15R,0.0157X0.0236*%
%ADD16R,0.1260X0.0394*%
%ADD17R,0.0500X0.0827*%
D10*
X006160Y008007D03*
X006160Y008518D03*
X004160Y008569D03*
X004160Y009081D03*
X002660Y009081D03*
X002660Y008569D03*
X001660Y008569D03*
X001660Y009081D03*
X000660Y009081D03*
X000660Y008569D03*
X001160Y010069D03*
X001160Y010581D03*
X000660Y013507D03*
X000660Y014018D03*
X001660Y014081D03*
X001660Y013569D03*
X004160Y014069D03*
X004160Y014581D03*
X005160Y014581D03*
X005160Y014069D03*
X006160Y014069D03*
X006160Y014581D03*
X008660Y014456D03*
X008660Y013944D03*
X009660Y013944D03*
X009660Y014456D03*
X010660Y014081D03*
X010660Y013569D03*
X011660Y013569D03*
X011660Y014081D03*
X012660Y014081D03*
X012660Y013569D03*
X013660Y013569D03*
X013660Y014081D03*
X014660Y014081D03*
X014660Y013569D03*
X014723Y012018D03*
X014723Y011507D03*
X016285Y012882D03*
X016285Y013393D03*
X013660Y007206D03*
X013660Y006694D03*
X011598Y006694D03*
X011598Y007206D03*
X009160Y009069D03*
X009160Y009581D03*
X014535Y022444D03*
X014535Y022956D03*
X015535Y022962D03*
X015535Y022450D03*
X012410Y024694D03*
X012410Y025206D03*
D11*
X012410Y024950D03*
X015535Y022706D03*
X008660Y014200D03*
X010660Y013825D03*
X011660Y013825D03*
X012660Y013825D03*
X013660Y013825D03*
X014660Y013825D03*
X016285Y013138D03*
X014723Y011763D03*
X013660Y006950D03*
X011598Y006950D03*
X006160Y008263D03*
X002660Y008825D03*
X001660Y008825D03*
X001160Y010325D03*
X000660Y013763D03*
X004160Y014325D03*
X005160Y014325D03*
X006160Y014325D03*
D12*
X004916Y016825D03*
X004404Y016825D03*
X001416Y014825D03*
X000904Y014825D03*
X016279Y019075D03*
X016791Y019075D03*
X020404Y021325D03*
X020916Y021325D03*
X021967Y023325D03*
X022478Y023325D03*
X020916Y024825D03*
X020404Y024825D03*
X023904Y018325D03*
X024416Y018325D03*
X022416Y006450D03*
X021904Y006450D03*
X021916Y001825D03*
X021404Y001825D03*
D13*
X021660Y001825D03*
X022160Y006450D03*
X022223Y023325D03*
X004660Y016825D03*
D14*
X001660Y013825D03*
X000660Y008825D03*
X004160Y008825D03*
X009160Y009325D03*
X009660Y014200D03*
X014535Y022700D03*
D15*
X016535Y019075D03*
X020660Y021325D03*
X024160Y018325D03*
X020660Y024825D03*
X001160Y014825D03*
D16*
X022321Y020538D03*
X022321Y022112D03*
X024999Y022112D03*
X024999Y020538D03*
D17*
X022441Y004825D03*
X022441Y003325D03*
X020879Y003325D03*
X020879Y004825D03*
M02*
