%
M48
M72
T01C0.0100
T02C0.0315
T03C0.0354
T04C0.0394
T05C0.0400
T06C0.0472
T07C0.0630
T08C0.0984
T09C0.1181
T10C0.1260
T11C0.1280
%
T01
X5160Y6138
X5160Y6513
X5348Y6825
X5660Y7013
X5723Y7388
X7848Y7075
X10348Y6325
X10910Y5825
X11160Y6075
X11410Y6325
X10660Y5575
X11660Y4513
X10410Y2700
X10785Y2325
X11660Y2513
X9160Y2013
X8660Y2950
X12660Y7325
X13035Y7325
X11598Y7825
X10410Y9263
X11848Y10513
X12098Y10763
X11660Y11138
X12410Y10263
X12785Y9513
X13285Y9825
X13160Y10825
X12910Y11075
X13660Y11075
X14660Y10513
X14973Y10450
X15723Y10263
X15785Y10700
X16973Y12700
X16973Y13138
X15910Y13638
X15848Y12950
X15035Y13325
X14660Y13138
X13785Y13138
X13848Y12450
X12973Y12513
X12348Y12513
X11410Y13200
X11660Y14575
X11848Y15013
X11598Y15575
X11160Y15138
X10348Y14763
X10160Y15325
X8848Y16013
X8660Y16700
X8223Y16450
X7535Y16325
X7535Y17325
X6473Y16888
X5973Y16075
X6473Y15700
X6160Y15075
X6535Y14888
X7598Y14825
X8035Y14013
X8223Y13638
X8223Y13138
X7535Y12450
X7973Y11388
X9160Y10825
X10035Y12700
X8723Y14825
X6785Y13325
X6160Y13638
X5660Y12950
X5285Y12950
X4910Y12950
X4598Y12638
X4410Y12950
X3723Y12950
X3723Y12638
X3973Y12388
X4223Y12138
X5160Y11575
X5410Y11763
X5723Y11638
X6660Y10825
X5785Y10200
X5535Y10513
X6160Y9763
X4660Y9770
X4410Y10263
X2660Y10263
X1785Y10075
X1785Y10513
X1785Y10825
X1160Y13325
X1223Y14325
X723Y14388
X3910Y15700
X4410Y15950
X4910Y15950
X5348Y16075
X5473Y17763
X6285Y18013
X6160Y18513
X5285Y18700
X4223Y18013
X3848Y18325
X3848Y18700
X3848Y19075
X5223Y20888
X4660Y21200
X6098Y21388
X6098Y21763
X6098Y22138
X6598Y21325
X6973Y21325
X7410Y22450
X8035Y22200
X8160Y22513
X8098Y22950
X8598Y22950
X8535Y23325
X8410Y23888
X8848Y24013
X9598Y23950
X9848Y24200
X10160Y24513
X10473Y24825
X9973Y25013
X7848Y26013
X7598Y25763
X7348Y25513
X7098Y25263
X5098Y25575
X4098Y23325
X4348Y23075
X3848Y23013
X7535Y19638
X8285Y21075
X9535Y19825
X9285Y19575
X9785Y20075
X10035Y20325
X10285Y20575
X10473Y21138
X10785Y21263
X11098Y21263
X11973Y22138
X11535Y22638
X12973Y22825
X13098Y22450
X14219Y21825
X15035Y20825
X15973Y22450
X16285Y23013
X17723Y22888
X18035Y23200
X19410Y23200
X19410Y24138
X20035Y24700
X19910Y25263
X21973Y24763
X22285Y25075
X22785Y25450
X23035Y25700
X22660Y25888
X23035Y25200
X23035Y24700
X23035Y24200
X23535Y23700
X23848Y23388
X24035Y23700
X24535Y23700
X24723Y23388
X25035Y23700
X25098Y22888
X24410Y22575
X23410Y22575
X22285Y21513
X22035Y21138
X23098Y21263
X22535Y20013
X22035Y20013
X20598Y18575
X19785Y18825
X21348Y18013
X22223Y18013
X23285Y17075
X23848Y17700
X25285Y17075
X25785Y17575
X24223Y20013
X20223Y20700
X20348Y21888
X17660Y21825
X17348Y21325
X17410Y19075
X17160Y18138
X16660Y17950
X15410Y18763
X14598Y18325
X14035Y17950
X14035Y17388
X13535Y17575
X14348Y16763
X14348Y16388
X14098Y16138
X13285Y16513
X14598Y17513
X12910Y18638
X11848Y19200
X11535Y19325
X10535Y19325
X11910Y17450
X14098Y14888
X14660Y14638
X12660Y14575
X16910Y15138
X18348Y13888
X20035Y15638
X20223Y16450
X20160Y14325
X20535Y14325
X20598Y13138
X20910Y12950
X20910Y12575
X20223Y13138
X21723Y12575
X22035Y12950
X22598Y12888
X23410Y14263
X22910Y14700
X22160Y14450
X24473Y13138
X21410Y11638
X20785Y10763
X20285Y11388
X19473Y10138
X20660Y9575
X21473Y8950
X22098Y9263
X22098Y9763
X24660Y8200
X25160Y7450
X25160Y4700
X23160Y4700
X23160Y4138
X23160Y3325
X21410Y3325
X20848Y1888
X17660Y2513
X16910Y2325
X16535Y2763
X15285Y2013
X14910Y2950
X15160Y6763
X15160Y7825
X19910Y5138
X20348Y5638
X21660Y5200
X22098Y7013
X4910Y13700
X12910Y24888
X16035Y25200
T02
X14562Y5923
X13660Y5923
X12861Y5923
X11959Y5923
X11156Y4026
X10357Y4026
X9558Y4026
X8758Y4026
X9160Y3325
X9959Y3325
X10758Y3325
X11558Y3325
X14959Y4026
X15758Y4026
X16558Y4026
X17357Y4026
X16959Y3325
X16160Y3325
X15361Y3325
X17758Y3325
X18160Y5923
X19062Y5923
X8361Y5923
X7459Y5923
T03
X26213Y13526
X26213Y16124
T04
X24231Y10303
X23443Y9575
X24231Y8847
X26160Y9575
X24231Y6803
X23443Y6075
X24231Y5347
X26160Y6075
X24231Y3303
X23443Y2575
X24231Y1847
X26160Y2575
T05
X19160Y11325
X19160Y12325
X19160Y13325
X19160Y14325
X19160Y15325
X19160Y16325
X19160Y17325
X19160Y18325
X19160Y19325
X19160Y20325
X19160Y21325
X19160Y22325
X17160Y17325
X17160Y16325
X16160Y16325
X15160Y16325
X15160Y17325
X16160Y17325
X2660Y17325
X2660Y16325
X2660Y15325
X2660Y14325
X2660Y13325
X2660Y12325
X2660Y11325
X2660Y18325
X2660Y19325
X2660Y20325
X2660Y21325
X2660Y22325
T06
X25215Y9575
X25215Y6075
X25215Y2575
T07
X19560Y3675
X6961Y3675
T08
X3598Y3157
X5448Y4358
T09
X3598Y5539
T10
X20160Y7825
X3160Y24825
T11
X7660Y2325
X18861Y2325
M30
