G75*
%MOIN*%
%OFA0B0*%
%FSLAX24Y24*%
%IPPOS*%
%LPD*%
%AMOC8*
5,1,8,0,0,1.08239X$1,22.5*
%
%ADD10R,0.0354X0.0276*%
%ADD11R,0.0650X0.0650*%
%ADD12C,0.0650*%
%ADD13R,0.0276X0.0354*%
%ADD14C,0.0740*%
%ADD15R,0.0551X0.1181*%
%ADD16R,0.0630X0.0551*%
%ADD17C,0.0591*%
%ADD18C,0.0768*%
%ADD19C,0.0100*%
%ADD20OC8,0.0240*%
%ADD21C,0.0080*%
%ADD22OC8,0.0340*%
%ADD23C,0.0500*%
%ADD24C,0.0250*%
%ADD25C,0.0120*%
D10*
X006698Y003369D03*
X006698Y003881D03*
X008760Y006744D03*
X008760Y007256D03*
X009260Y010682D03*
X009260Y011193D03*
X009260Y012307D03*
X009260Y012818D03*
X012385Y012744D03*
X012385Y013256D03*
X017260Y012818D03*
X017260Y012307D03*
X017760Y011506D03*
X017760Y010994D03*
X014260Y006756D03*
X014260Y006244D03*
X013323Y006256D03*
X013323Y005744D03*
X014260Y005256D03*
X014260Y004744D03*
X005260Y012244D03*
X005260Y012756D03*
D11*
X005760Y017500D03*
X010760Y017500D03*
X015760Y017500D03*
D12*
X016760Y017500D03*
X017760Y017500D03*
X018760Y017500D03*
X013760Y017500D03*
X012760Y017500D03*
X011760Y017500D03*
X008760Y017500D03*
X007760Y017500D03*
X006760Y017500D03*
D13*
X009004Y011750D03*
X009516Y011750D03*
X016504Y011313D03*
X017016Y011313D03*
D14*
X019760Y011000D03*
X019760Y012000D03*
X019760Y013000D03*
X019760Y014000D03*
X019760Y015000D03*
X019760Y016000D03*
X019760Y010000D03*
X019760Y009000D03*
X019760Y008000D03*
X019760Y007000D03*
X019760Y006000D03*
X019760Y005000D03*
X003260Y005000D03*
X003260Y006000D03*
X003260Y007000D03*
X003260Y008000D03*
X003260Y009000D03*
X003260Y010000D03*
X003260Y011000D03*
X003260Y012000D03*
X003260Y013000D03*
X003260Y014000D03*
X003260Y015000D03*
X003260Y016000D03*
D15*
X005885Y006945D03*
X005885Y005055D03*
D16*
X017760Y004949D03*
X017760Y006051D03*
D17*
X004790Y003431D02*
X004790Y002841D01*
X004790Y001659D02*
X004790Y001069D01*
D18*
X005771Y000870D03*
X005771Y003630D03*
D19*
X002460Y000450D02*
X002460Y017897D01*
X002587Y017648D01*
X002908Y017327D01*
X002908Y017327D01*
X003312Y017121D01*
X003312Y017121D01*
X003760Y017050D01*
X003760Y017050D01*
X003968Y017083D01*
X003968Y016905D01*
X004023Y016850D01*
X003773Y016850D01*
X003685Y016762D01*
X003389Y016466D01*
X003356Y016480D01*
X003165Y016480D01*
X002988Y016407D01*
X002853Y016272D01*
X002780Y016095D01*
X002780Y015905D01*
X002853Y015728D01*
X002988Y015593D01*
X003165Y015520D01*
X003356Y015520D01*
X003532Y015593D01*
X003667Y015728D01*
X003740Y015905D01*
X003740Y016095D01*
X003667Y016272D01*
X003643Y016296D01*
X003897Y016550D01*
X006528Y016550D01*
X006525Y016547D01*
X006525Y016360D01*
X005663Y016360D01*
X005525Y016222D01*
X005525Y016028D01*
X005663Y015890D01*
X006818Y015890D01*
X006775Y015847D01*
X006775Y015653D01*
X006913Y015515D01*
X008058Y015515D01*
X008195Y015653D01*
X008195Y015847D01*
X008058Y015985D01*
X007703Y015985D01*
X007745Y016028D01*
X007745Y016215D01*
X008263Y016215D01*
X008525Y015953D01*
X008525Y014003D01*
X008663Y013865D01*
X008858Y013865D01*
X008985Y013993D01*
X008985Y013550D01*
X008905Y013470D01*
X008905Y013280D01*
X009040Y013145D01*
X009231Y013145D01*
X009365Y013280D01*
X009365Y013470D01*
X009285Y013550D01*
X009285Y015925D01*
X009365Y016005D01*
X009365Y016195D01*
X009231Y016330D01*
X009040Y016330D01*
X008926Y016216D01*
X008858Y016285D01*
X008593Y016550D01*
X008960Y016550D01*
X009040Y016470D01*
X009231Y016470D01*
X009365Y016605D01*
X009365Y016795D01*
X009231Y016930D01*
X009040Y016930D01*
X008995Y016885D01*
X008995Y017047D01*
X008939Y017103D01*
X009007Y017131D01*
X009129Y017254D01*
X009195Y017414D01*
X009195Y017586D01*
X010326Y017586D01*
X010326Y017488D02*
X009195Y017488D01*
X009195Y017586D02*
X009129Y017746D01*
X009007Y017869D01*
X008901Y017913D01*
X010368Y017913D01*
X010326Y017870D01*
X010326Y017130D01*
X010390Y017065D01*
X011131Y017065D01*
X011195Y017130D01*
X011195Y017870D01*
X011153Y017913D01*
X011620Y017913D01*
X011514Y017869D01*
X011392Y017746D01*
X011326Y017586D01*
X011195Y017586D01*
X011195Y017488D02*
X011326Y017488D01*
X011326Y017414D02*
X011326Y017586D01*
X011366Y017685D02*
X011195Y017685D01*
X011195Y017783D02*
X011428Y017783D01*
X011545Y017882D02*
X011184Y017882D01*
X011326Y017414D02*
X011392Y017254D01*
X011514Y017131D01*
X011674Y017065D01*
X011847Y017065D01*
X012007Y017131D01*
X012129Y017254D01*
X012195Y017414D01*
X012195Y017586D01*
X012326Y017586D01*
X012326Y017414D01*
X012392Y017254D01*
X012514Y017131D01*
X012674Y017065D01*
X012847Y017065D01*
X013007Y017131D01*
X013129Y017254D01*
X013195Y017414D01*
X013195Y017586D01*
X013326Y017586D01*
X013326Y017414D01*
X013392Y017254D01*
X013514Y017131D01*
X013674Y017065D01*
X013693Y017065D01*
X013625Y016997D01*
X013625Y016803D01*
X013763Y016665D01*
X014493Y016665D01*
X014375Y016547D01*
X014375Y016353D01*
X014513Y016215D01*
X017858Y016215D01*
X017995Y016353D01*
X017995Y016547D01*
X017878Y016665D01*
X018858Y016665D01*
X018995Y016803D01*
X018995Y016997D01*
X018904Y017089D01*
X019007Y017131D01*
X019129Y017254D01*
X019195Y017414D01*
X019195Y017586D01*
X022060Y017586D01*
X022060Y017488D02*
X019195Y017488D01*
X019195Y017586D02*
X019129Y017746D01*
X019007Y017869D01*
X018901Y017913D01*
X019585Y017913D01*
X019665Y017833D01*
X019856Y017833D01*
X019990Y017967D01*
X019990Y018158D01*
X019856Y018292D01*
X019665Y018292D01*
X019585Y018212D01*
X013986Y018212D01*
X013990Y018217D01*
X013990Y018408D01*
X013910Y018488D01*
X013910Y018825D01*
X013990Y018905D01*
X013990Y019095D01*
X013856Y019230D01*
X013665Y019230D01*
X013530Y019095D01*
X013530Y018905D01*
X013610Y018825D01*
X013610Y018488D01*
X013530Y018408D01*
X013530Y018217D01*
X013535Y018212D01*
X005910Y018212D01*
X005910Y018825D01*
X005990Y018905D01*
X005990Y019095D01*
X005856Y019230D01*
X005665Y019230D01*
X005530Y019095D01*
X005530Y018905D01*
X005610Y018825D01*
X005610Y018212D01*
X005323Y018212D01*
X005136Y018025D01*
X005115Y018004D01*
X005139Y018052D01*
X005210Y018500D01*
X005139Y018948D01*
X004933Y019352D01*
X004933Y019352D01*
X004613Y019673D01*
X004613Y019673D01*
X004364Y019800D01*
X022060Y019800D01*
X022060Y002103D01*
X021933Y002352D01*
X021613Y002673D01*
X021613Y002673D01*
X021208Y002879D01*
X020760Y002950D01*
X020312Y002879D01*
X019908Y002673D01*
X019587Y002352D01*
X019381Y001948D01*
X019310Y001500D01*
X019381Y001052D01*
X019587Y000648D01*
X019785Y000450D01*
X006033Y000450D01*
X006092Y000493D01*
X006147Y000548D01*
X006193Y000611D01*
X006228Y000681D01*
X006252Y000754D01*
X006263Y000820D01*
X005821Y000820D01*
X005821Y000920D01*
X006263Y000920D01*
X006252Y000986D01*
X006228Y001060D01*
X006193Y001129D01*
X006147Y001192D01*
X006092Y001247D01*
X006030Y001292D01*
X005960Y001328D01*
X005886Y001352D01*
X005821Y001362D01*
X005821Y000920D01*
X005721Y000920D01*
X005721Y001362D01*
X005655Y001352D01*
X005581Y001328D01*
X005512Y001292D01*
X005449Y001247D01*
X005394Y001192D01*
X005348Y001129D01*
X005313Y001060D01*
X005289Y000986D01*
X005279Y000920D01*
X005721Y000920D01*
X005721Y000820D01*
X005279Y000820D01*
X005289Y000754D01*
X005313Y000681D01*
X005348Y000611D01*
X005394Y000548D01*
X005449Y000493D01*
X005509Y000450D01*
X002460Y000450D01*
X002460Y000546D02*
X005397Y000546D01*
X005332Y000644D02*
X002460Y000644D01*
X002460Y000743D02*
X004549Y000743D01*
X004532Y000754D02*
X004598Y000710D01*
X004672Y000679D01*
X004742Y000665D01*
X004742Y001316D01*
X004385Y001316D01*
X004385Y001029D01*
X004401Y000951D01*
X004431Y000877D01*
X004476Y000811D01*
X004532Y000754D01*
X004455Y000841D02*
X002460Y000841D01*
X002460Y000940D02*
X004405Y000940D01*
X004385Y001038D02*
X002460Y001038D01*
X002460Y001137D02*
X004385Y001137D01*
X004385Y001235D02*
X002460Y001235D01*
X002460Y001334D02*
X004742Y001334D01*
X004742Y001316D02*
X004742Y001413D01*
X004742Y002063D01*
X004672Y002049D01*
X004598Y002019D01*
X004532Y001974D01*
X004476Y001918D01*
X004431Y001851D01*
X004401Y001778D01*
X004385Y001699D01*
X004385Y001413D01*
X004742Y001413D01*
X004839Y001413D01*
X004839Y002063D01*
X004909Y002049D01*
X004982Y002019D01*
X005049Y001974D01*
X005105Y001918D01*
X005150Y001851D01*
X005180Y001778D01*
X005196Y001699D01*
X005196Y001413D01*
X004839Y001413D01*
X004839Y001316D01*
X005196Y001316D01*
X005196Y001029D01*
X005180Y000951D01*
X005150Y000877D01*
X005105Y000811D01*
X005049Y000754D01*
X004982Y000710D01*
X004909Y000679D01*
X004839Y000665D01*
X004839Y001316D01*
X004742Y001316D01*
X004742Y001235D02*
X004839Y001235D01*
X004839Y001137D02*
X004742Y001137D01*
X004742Y001038D02*
X004839Y001038D01*
X004839Y000940D02*
X004742Y000940D01*
X004742Y000841D02*
X004839Y000841D01*
X004839Y000743D02*
X004742Y000743D01*
X005031Y000743D02*
X005293Y000743D01*
X005125Y000841D02*
X005721Y000841D01*
X005721Y000940D02*
X005821Y000940D01*
X005821Y001038D02*
X005721Y001038D01*
X005721Y001137D02*
X005821Y001137D01*
X005821Y001235D02*
X005721Y001235D01*
X005721Y001334D02*
X005821Y001334D01*
X005943Y001334D02*
X019337Y001334D01*
X019321Y001432D02*
X005196Y001432D01*
X005196Y001531D02*
X019315Y001531D01*
X019310Y001500D02*
X019310Y001500D01*
X019331Y001629D02*
X005196Y001629D01*
X005190Y001728D02*
X019346Y001728D01*
X019362Y001826D02*
X005160Y001826D01*
X005098Y001925D02*
X019378Y001925D01*
X019381Y001948D02*
X019381Y001948D01*
X019420Y002023D02*
X004972Y002023D01*
X004839Y002023D02*
X004742Y002023D01*
X004742Y001925D02*
X004839Y001925D01*
X004839Y001826D02*
X004742Y001826D01*
X004742Y001728D02*
X004839Y001728D01*
X004839Y001629D02*
X004742Y001629D01*
X004742Y001531D02*
X004839Y001531D01*
X004839Y001432D02*
X004742Y001432D01*
X004839Y001334D02*
X005599Y001334D01*
X005437Y001235D02*
X005196Y001235D01*
X005196Y001137D02*
X005354Y001137D01*
X005306Y001038D02*
X005196Y001038D01*
X005175Y000940D02*
X005282Y000940D01*
X005821Y000841D02*
X019489Y000841D01*
X019539Y000743D02*
X006248Y000743D01*
X006210Y000644D02*
X019591Y000644D01*
X019587Y000648D02*
X019587Y000648D01*
X019689Y000546D02*
X006145Y000546D01*
X006260Y000940D02*
X019439Y000940D01*
X019388Y001038D02*
X006235Y001038D01*
X006188Y001137D02*
X019368Y001137D01*
X019381Y001052D02*
X019381Y001052D01*
X019352Y001235D02*
X006104Y001235D01*
X005020Y002497D02*
X004871Y002435D01*
X004710Y002435D01*
X004561Y002497D01*
X004447Y002611D01*
X004385Y002760D01*
X004385Y003512D01*
X004447Y003661D01*
X004561Y003775D01*
X004710Y003836D01*
X004871Y003836D01*
X005020Y003775D01*
X005134Y003661D01*
X005196Y003512D01*
X005196Y003150D01*
X005639Y003150D01*
X005491Y003211D01*
X005352Y003350D01*
X005277Y003532D01*
X005277Y003728D01*
X005352Y003910D01*
X005491Y004049D01*
X005672Y004124D01*
X005869Y004124D01*
X006050Y004049D01*
X006189Y003910D01*
X006265Y003728D01*
X006265Y003532D01*
X006189Y003350D01*
X006050Y003211D01*
X005903Y003150D01*
X006261Y003150D01*
X006309Y003198D01*
X006397Y003286D01*
X006402Y003286D01*
X006411Y003294D01*
X006411Y003552D01*
X006475Y003617D01*
X006734Y003617D01*
X006750Y003633D01*
X006475Y003633D01*
X006411Y003698D01*
X006411Y004064D01*
X006475Y004129D01*
X006921Y004129D01*
X006985Y004064D01*
X006985Y004051D01*
X007423Y004051D01*
X007478Y004105D01*
X007668Y004105D01*
X007728Y004045D01*
X012855Y004045D01*
X012915Y004105D01*
X013106Y004105D01*
X013166Y004045D01*
X018480Y004045D01*
X018540Y004105D01*
X018731Y004105D01*
X018865Y003970D01*
X018865Y003780D01*
X018731Y003645D01*
X018615Y003645D01*
X018615Y003530D01*
X018481Y003395D01*
X018290Y003395D01*
X018210Y003475D01*
X007016Y003475D01*
X006985Y003444D01*
X006985Y003186D01*
X006921Y003121D01*
X006662Y003121D01*
X006527Y002986D01*
X006521Y002986D01*
X006385Y002850D01*
X005196Y002850D01*
X005196Y002760D01*
X005134Y002611D01*
X005020Y002497D01*
X005038Y002516D02*
X019750Y002516D01*
X019652Y002417D02*
X002460Y002417D01*
X002460Y002319D02*
X019570Y002319D01*
X019587Y002352D02*
X019587Y002352D01*
X019520Y002220D02*
X002460Y002220D01*
X002460Y002122D02*
X019470Y002122D01*
X019849Y002614D02*
X005135Y002614D01*
X005176Y002713D02*
X019985Y002713D01*
X019908Y002673D02*
X019908Y002673D01*
X020179Y002811D02*
X005196Y002811D01*
X005196Y003205D02*
X005506Y003205D01*
X005399Y003304D02*
X005196Y003304D01*
X005196Y003402D02*
X005331Y003402D01*
X005290Y003501D02*
X005196Y003501D01*
X005159Y003599D02*
X005277Y003599D01*
X005277Y003698D02*
X005097Y003698D01*
X004968Y003796D02*
X005305Y003796D01*
X005346Y003895D02*
X002460Y003895D01*
X002460Y003993D02*
X005435Y003993D01*
X005595Y004092D02*
X002460Y004092D01*
X002460Y004190D02*
X022060Y004190D01*
X022060Y004092D02*
X018744Y004092D01*
X018843Y003993D02*
X022060Y003993D01*
X022060Y003895D02*
X018865Y003895D01*
X018865Y003796D02*
X022060Y003796D01*
X022060Y003698D02*
X018783Y003698D01*
X018615Y003599D02*
X022060Y003599D01*
X022060Y003501D02*
X018586Y003501D01*
X018488Y003402D02*
X022060Y003402D01*
X022060Y003304D02*
X006985Y003304D01*
X006985Y003402D02*
X018283Y003402D01*
X018527Y004092D02*
X013119Y004092D01*
X012902Y004092D02*
X007682Y004092D01*
X007464Y004092D02*
X006958Y004092D01*
X006438Y004092D02*
X005947Y004092D01*
X006106Y003993D02*
X006411Y003993D01*
X006411Y003895D02*
X006196Y003895D01*
X006236Y003796D02*
X006411Y003796D01*
X006411Y003698D02*
X006265Y003698D01*
X006265Y003599D02*
X006457Y003599D01*
X006411Y003501D02*
X006252Y003501D01*
X006211Y003402D02*
X006411Y003402D01*
X006411Y003304D02*
X006143Y003304D01*
X006035Y003205D02*
X006316Y003205D01*
X006549Y003008D02*
X022060Y003008D01*
X022060Y002910D02*
X021016Y002910D01*
X021208Y002879D02*
X021208Y002879D01*
X021342Y002811D02*
X022060Y002811D01*
X022060Y002713D02*
X021535Y002713D01*
X021672Y002614D02*
X022060Y002614D01*
X022060Y002516D02*
X021770Y002516D01*
X021869Y002417D02*
X022060Y002417D01*
X022060Y002319D02*
X021951Y002319D01*
X021933Y002352D02*
X021933Y002352D01*
X021933Y002352D01*
X022001Y002220D02*
X022060Y002220D01*
X022051Y002122D02*
X022060Y002122D01*
X022060Y003107D02*
X006647Y003107D01*
X006444Y002910D02*
X020505Y002910D01*
X022060Y003205D02*
X006985Y003205D01*
X006207Y004355D02*
X006271Y004419D01*
X006271Y005691D01*
X006207Y005756D01*
X005564Y005756D01*
X005500Y005691D01*
X005500Y005422D01*
X004768Y005422D01*
X004768Y005423D01*
X004697Y005422D01*
X004626Y005422D01*
X004625Y005422D01*
X003510Y005416D01*
X003356Y005480D01*
X003165Y005480D01*
X002988Y005407D01*
X002853Y005272D01*
X002780Y005095D01*
X002780Y004905D01*
X002853Y004728D01*
X002988Y004593D01*
X003165Y004520D01*
X003356Y004520D01*
X003532Y004593D01*
X003636Y004697D01*
X004699Y004703D01*
X005500Y004703D01*
X005500Y004419D01*
X005564Y004355D01*
X006207Y004355D01*
X006239Y004387D02*
X013236Y004387D01*
X013218Y004405D02*
X013218Y004595D01*
X013278Y004655D01*
X013278Y005008D01*
X013590Y005320D01*
X013620Y005350D01*
X012436Y005350D01*
X012356Y005270D01*
X012165Y005270D01*
X012030Y005405D01*
X012030Y005595D01*
X012165Y005730D01*
X012356Y005730D01*
X012436Y005650D01*
X012660Y005650D01*
X012655Y005655D01*
X012655Y005845D01*
X012790Y005980D01*
X012981Y005980D01*
X013036Y005925D01*
X013036Y005927D01*
X013100Y005992D01*
X013546Y005992D01*
X013610Y005927D01*
X013610Y005687D01*
X013979Y006055D01*
X013973Y006061D01*
X013973Y006427D01*
X014038Y006492D01*
X014483Y006492D01*
X014548Y006427D01*
X014548Y006061D01*
X014483Y005996D01*
X014344Y005996D01*
X013785Y005438D01*
X013767Y005420D01*
X013973Y005420D01*
X013973Y005439D01*
X014038Y005504D01*
X014483Y005504D01*
X014548Y005439D01*
X014548Y005073D01*
X014483Y005008D01*
X014038Y005008D01*
X013973Y005073D01*
X013973Y005080D01*
X013831Y005080D01*
X013618Y004867D01*
X013618Y004655D01*
X013678Y004595D01*
X013678Y004405D01*
X013543Y004270D01*
X013353Y004270D01*
X013218Y004405D01*
X013218Y004486D02*
X006271Y004486D01*
X006271Y004584D02*
X013218Y004584D01*
X013278Y004683D02*
X006271Y004683D01*
X006271Y004781D02*
X013278Y004781D01*
X013278Y004880D02*
X011965Y004880D01*
X011918Y004833D02*
X012053Y004967D01*
X012053Y005158D01*
X011918Y005292D01*
X011740Y005292D01*
X011740Y005408D01*
X011606Y005542D01*
X011490Y005542D01*
X011490Y005658D01*
X011356Y005792D01*
X011165Y005792D01*
X011085Y005712D01*
X007947Y005712D01*
X007910Y005750D01*
X007910Y006875D01*
X007122Y007663D01*
X008698Y007663D01*
X008761Y007600D01*
X009135Y007600D01*
X009367Y007833D01*
X009481Y007833D01*
X009575Y007927D01*
X009575Y007603D01*
X009713Y007465D01*
X009908Y007465D01*
X010045Y007603D01*
X010045Y007833D01*
X010231Y007833D01*
X010311Y007913D01*
X012823Y007913D01*
X013530Y007205D01*
X013530Y007092D01*
X013665Y006958D01*
X013856Y006958D01*
X013990Y007092D01*
X013990Y007283D01*
X013856Y007417D01*
X013742Y007417D01*
X013645Y007515D01*
X013708Y007515D01*
X013845Y007653D01*
X013845Y008846D01*
X013864Y008885D01*
X013845Y008939D01*
X013845Y008997D01*
X013815Y009028D01*
X013801Y009069D01*
X013749Y009094D01*
X013708Y009135D01*
X013665Y009135D01*
X013359Y009284D01*
X013318Y009325D01*
X013275Y009325D01*
X013236Y009344D01*
X013181Y009325D01*
X012138Y009325D01*
X012145Y009333D01*
X012145Y009515D01*
X015388Y009515D01*
X015280Y009408D01*
X015280Y009217D01*
X015341Y009156D01*
X015280Y009095D01*
X015280Y008905D01*
X015415Y008770D01*
X015606Y008770D01*
X015686Y008850D01*
X015910Y008850D01*
X015905Y008845D01*
X015905Y008730D01*
X015728Y008730D01*
X015593Y008595D01*
X015593Y008405D01*
X015728Y008270D01*
X015918Y008270D01*
X015998Y008350D01*
X018460Y008350D01*
X018540Y008270D01*
X018731Y008270D01*
X018865Y008405D01*
X018865Y008595D01*
X018731Y008730D01*
X018615Y008730D01*
X018615Y008845D01*
X018611Y008850D01*
X019303Y008850D01*
X019353Y008728D01*
X019488Y008593D01*
X019665Y008520D01*
X019856Y008520D01*
X020032Y008593D01*
X020167Y008728D01*
X020240Y008905D01*
X020240Y009095D01*
X020167Y009272D01*
X020032Y009407D01*
X019856Y009480D01*
X019665Y009480D01*
X019488Y009407D01*
X019353Y009272D01*
X019303Y009150D01*
X015686Y009150D01*
X015679Y009156D01*
X015686Y009163D01*
X018197Y009163D01*
X018285Y009250D01*
X018885Y009850D01*
X019303Y009850D01*
X019353Y009728D01*
X019488Y009593D01*
X019665Y009520D01*
X019856Y009520D01*
X020032Y009593D01*
X020167Y009728D01*
X020240Y009905D01*
X020240Y010095D01*
X020167Y010272D01*
X020032Y010407D01*
X019856Y010480D01*
X019665Y010480D01*
X019488Y010407D01*
X019353Y010272D01*
X019303Y010150D01*
X018761Y010150D01*
X018073Y009462D01*
X015686Y009462D01*
X015633Y009515D01*
X017832Y009515D01*
X017964Y009570D01*
X018066Y009671D01*
X018120Y009803D01*
X018120Y009947D01*
X018066Y010079D01*
X017964Y010180D01*
X017832Y010235D01*
X016865Y010235D01*
X016865Y010408D01*
X016731Y010542D01*
X016674Y010542D01*
X016674Y011025D01*
X016688Y011025D01*
X016752Y011090D01*
X016752Y011535D01*
X016688Y011600D01*
X016674Y011600D01*
X016674Y011761D01*
X016790Y011645D01*
X016981Y011645D01*
X017115Y011780D01*
X017115Y011850D01*
X017160Y011850D01*
X017155Y011845D01*
X017155Y011655D01*
X017290Y011520D01*
X017473Y011520D01*
X017473Y011323D01*
X017538Y011258D01*
X017983Y011258D01*
X018048Y011323D01*
X018048Y011689D01*
X017983Y011754D01*
X017753Y011754D01*
X017686Y011820D01*
X017587Y011920D01*
X017580Y011920D01*
X017598Y011938D01*
X017723Y012063D01*
X017723Y012638D01*
X018780Y011580D01*
X018780Y011405D01*
X018915Y011270D01*
X019106Y011270D01*
X019240Y011405D01*
X019240Y011595D01*
X019106Y011730D01*
X019055Y011730D01*
X017660Y013125D01*
X017723Y013188D01*
X018385Y013850D01*
X019303Y013850D01*
X019353Y013728D01*
X019488Y013593D01*
X019665Y013520D01*
X019856Y013520D01*
X020032Y013593D01*
X020167Y013728D01*
X020240Y013905D01*
X020240Y014095D01*
X020167Y014272D01*
X020032Y014407D01*
X019856Y014480D01*
X019665Y014480D01*
X019488Y014407D01*
X019353Y014272D01*
X019303Y014150D01*
X018261Y014150D01*
X017511Y013400D01*
X016811Y013400D01*
X016731Y013480D01*
X016540Y013480D01*
X016405Y013345D01*
X016405Y013155D01*
X016540Y013020D01*
X016731Y013020D01*
X016811Y013100D01*
X016836Y013100D01*
X016317Y012581D01*
X016293Y012605D01*
X016103Y012605D01*
X015968Y012470D01*
X015968Y012280D01*
X016080Y012167D01*
X015915Y012167D01*
X015780Y012033D01*
X015780Y011842D01*
X015915Y011708D01*
X016106Y011708D01*
X016166Y011768D01*
X016334Y011768D01*
X016334Y011600D01*
X016321Y011600D01*
X016257Y011535D01*
X016257Y011090D01*
X016321Y011025D01*
X016334Y011025D01*
X016334Y010439D01*
X016231Y010542D01*
X016136Y010542D01*
X015910Y010805D01*
X015910Y010812D01*
X015870Y010852D01*
X015834Y010895D01*
X015827Y010895D01*
X015822Y010900D01*
X015766Y010900D01*
X015710Y010904D01*
X015705Y010900D01*
X015198Y010900D01*
X015136Y010837D01*
X014810Y010837D01*
X014848Y010875D01*
X014848Y010880D01*
X015255Y011333D01*
X015356Y011333D01*
X015490Y011467D01*
X015490Y011658D01*
X015356Y011792D01*
X015165Y011792D01*
X015030Y011658D01*
X015030Y011531D01*
X014923Y011412D01*
X014793Y011542D01*
X014678Y011542D01*
X014678Y011658D01*
X014543Y011792D01*
X014353Y011792D01*
X014273Y011712D01*
X014073Y011712D01*
X013886Y011525D01*
X013798Y011437D01*
X013798Y010625D01*
X013961Y010462D01*
X011135Y010462D01*
X010832Y010765D01*
X012358Y010765D01*
X012495Y010903D01*
X012495Y011097D01*
X012358Y011235D01*
X010663Y011235D01*
X010598Y011170D01*
X010598Y011750D01*
X010428Y011920D01*
X010428Y012033D01*
X010293Y012167D01*
X010103Y012167D01*
X009968Y012033D01*
X009968Y011842D01*
X010103Y011708D01*
X010216Y011708D01*
X010298Y011625D01*
X010298Y010875D01*
X010938Y010235D01*
X005189Y010235D01*
X005056Y010180D01*
X004955Y010079D01*
X004900Y009947D01*
X004900Y009803D01*
X004955Y009671D01*
X005056Y009570D01*
X005189Y009515D01*
X010185Y009515D01*
X009726Y009135D01*
X009713Y009135D01*
X009652Y009074D01*
X009585Y009019D01*
X009584Y009006D01*
X009575Y008997D01*
X009575Y008911D01*
X009567Y008825D01*
X009575Y008815D01*
X009575Y008198D01*
X009481Y008292D01*
X009290Y008292D01*
X009155Y008158D01*
X009155Y008118D01*
X009043Y008230D01*
X008853Y008230D01*
X008773Y008150D01*
X007410Y008150D01*
X007410Y008325D01*
X007490Y008405D01*
X007490Y008595D01*
X007356Y008730D01*
X007165Y008730D01*
X007030Y008595D01*
X007030Y008405D01*
X007110Y008325D01*
X007110Y008300D01*
X006572Y008837D01*
X004447Y008837D01*
X004285Y009000D01*
X004285Y010650D01*
X004290Y010645D01*
X004403Y010645D01*
X004448Y010600D01*
X005710Y010600D01*
X005790Y010520D01*
X005981Y010520D01*
X006115Y010655D01*
X006115Y010845D01*
X005981Y010980D01*
X005865Y010980D01*
X005865Y011095D01*
X005861Y011100D01*
X006335Y011100D01*
X006415Y011020D01*
X006606Y011020D01*
X006740Y011155D01*
X006740Y011308D01*
X006804Y011244D01*
X006780Y011220D01*
X006780Y011030D01*
X006915Y010895D01*
X007106Y010895D01*
X007240Y011030D01*
X007240Y011083D01*
X007356Y011083D01*
X007490Y011217D01*
X007490Y011408D01*
X007356Y011542D01*
X007242Y011542D01*
X006885Y011900D01*
X006061Y011900D01*
X006023Y011937D01*
X006115Y012030D01*
X006115Y012220D01*
X005981Y012355D01*
X005790Y012355D01*
X005710Y012275D01*
X005548Y012275D01*
X005548Y012427D01*
X005483Y012492D01*
X005085Y012492D01*
X005101Y012508D01*
X005483Y012508D01*
X005548Y012573D01*
X005548Y012939D01*
X005495Y012991D01*
X005495Y013890D01*
X008233Y013890D01*
X008370Y014028D01*
X008433Y014090D01*
X008433Y014285D01*
X008295Y014422D01*
X008101Y014422D01*
X008038Y014360D01*
X005163Y014360D01*
X005025Y014222D01*
X005025Y012991D01*
X004919Y012991D01*
X004525Y012597D01*
X004525Y012403D01*
X004663Y012265D01*
X004858Y012265D01*
X004973Y012380D01*
X004973Y012061D01*
X005038Y011996D01*
X005421Y011996D01*
X005442Y011975D01*
X005470Y011975D01*
X005495Y011963D01*
X005530Y011975D01*
X005710Y011975D01*
X005748Y011937D01*
X005655Y011845D01*
X005655Y011730D01*
X005540Y011730D01*
X005405Y011595D01*
X005405Y011405D01*
X005410Y011400D01*
X005072Y011400D01*
X004615Y011857D01*
X004615Y011970D01*
X004481Y012105D01*
X004290Y012105D01*
X004155Y011970D01*
X004155Y011780D01*
X004290Y011645D01*
X004403Y011645D01*
X004443Y011605D01*
X004290Y011605D01*
X004155Y011470D01*
X004155Y011317D01*
X003690Y011783D01*
X003740Y011905D01*
X003740Y012095D01*
X003667Y012272D01*
X003532Y012407D01*
X003356Y012480D01*
X003165Y012480D01*
X002988Y012407D01*
X002853Y012272D01*
X002780Y012095D01*
X002780Y011905D01*
X002853Y011728D01*
X002988Y011593D01*
X003165Y011520D01*
X003356Y011520D01*
X003478Y011570D01*
X003985Y011063D01*
X003985Y010487D01*
X003947Y010525D01*
X003690Y010783D01*
X003740Y010905D01*
X003740Y011095D01*
X003667Y011272D01*
X003532Y011407D01*
X003356Y011480D01*
X003165Y011480D01*
X002988Y011407D01*
X002853Y011272D01*
X002780Y011095D01*
X002780Y010905D01*
X002853Y010728D01*
X002988Y010593D01*
X003165Y010520D01*
X003356Y010520D01*
X003478Y010570D01*
X003735Y010313D01*
X003735Y010108D01*
X003667Y010272D01*
X003532Y010407D01*
X003356Y010480D01*
X003165Y010480D01*
X002988Y010407D01*
X002853Y010272D01*
X002780Y010095D01*
X002780Y009905D01*
X002853Y009728D01*
X002988Y009593D01*
X003165Y009520D01*
X003356Y009520D01*
X003532Y009593D01*
X003667Y009728D01*
X003735Y009892D01*
X003735Y009108D01*
X003667Y009272D01*
X003532Y009407D01*
X003356Y009480D01*
X003165Y009480D01*
X002988Y009407D01*
X002853Y009272D01*
X002780Y009095D01*
X002780Y008905D01*
X002853Y008728D01*
X002988Y008593D01*
X003165Y008520D01*
X003356Y008520D01*
X003532Y008593D01*
X003667Y008728D01*
X003735Y008892D01*
X003735Y008813D01*
X004173Y008375D01*
X004261Y008288D01*
X004348Y008288D01*
X004343Y008283D01*
X004343Y008167D01*
X004228Y008167D01*
X004093Y008033D01*
X004093Y007917D01*
X003978Y007917D01*
X003843Y007783D01*
X003843Y007592D01*
X003978Y007458D01*
X004168Y007458D01*
X004248Y007538D01*
X005500Y007538D01*
X005500Y006995D01*
X005835Y006995D01*
X005835Y006895D01*
X005500Y006895D01*
X005500Y006340D01*
X005507Y006312D01*
X005522Y006287D01*
X005542Y006266D01*
X005567Y006252D01*
X005595Y006244D01*
X005835Y006244D01*
X005835Y006895D01*
X005935Y006895D01*
X005935Y006244D01*
X006175Y006244D01*
X006203Y006252D01*
X006228Y006266D01*
X006249Y006287D01*
X006263Y006312D01*
X006271Y006340D01*
X006271Y006895D01*
X005935Y006895D01*
X005935Y006995D01*
X006271Y006995D01*
X006271Y007465D01*
X007235Y006500D01*
X007235Y005375D01*
X007323Y005288D01*
X007698Y004913D01*
X011648Y004913D01*
X011728Y004833D01*
X011918Y004833D01*
X012053Y004978D02*
X013278Y004978D01*
X013346Y005077D02*
X012053Y005077D01*
X012036Y005175D02*
X013445Y005175D01*
X013543Y005274D02*
X012359Y005274D01*
X012162Y005274D02*
X011937Y005274D01*
X012063Y005372D02*
X011740Y005372D01*
X011678Y005471D02*
X012030Y005471D01*
X012030Y005569D02*
X011490Y005569D01*
X011481Y005668D02*
X012103Y005668D01*
X012418Y005668D02*
X012655Y005668D01*
X012655Y005766D02*
X011382Y005766D01*
X011139Y005766D02*
X007910Y005766D01*
X007910Y005865D02*
X012675Y005865D01*
X012773Y005963D02*
X007910Y005963D01*
X007910Y006062D02*
X013051Y006062D01*
X013058Y006051D02*
X013078Y006030D01*
X013103Y006016D01*
X013131Y006008D01*
X013304Y006008D01*
X013304Y006237D01*
X013342Y006237D01*
X013342Y006275D01*
X013610Y006275D01*
X013610Y006408D01*
X013603Y006436D01*
X013588Y006461D01*
X013568Y006482D01*
X013542Y006496D01*
X013515Y006504D01*
X013342Y006504D01*
X013342Y006275D01*
X013304Y006275D01*
X013304Y006504D01*
X013131Y006504D01*
X013103Y006496D01*
X013078Y006482D01*
X013058Y006461D01*
X013043Y006436D01*
X013036Y006408D01*
X013036Y006275D01*
X013304Y006275D01*
X013304Y006237D01*
X013036Y006237D01*
X013036Y006104D01*
X013043Y006076D01*
X013058Y006051D01*
X013071Y005963D02*
X012998Y005963D01*
X013036Y006160D02*
X007910Y006160D01*
X007910Y006259D02*
X013304Y006259D01*
X013342Y006259D02*
X013973Y006259D01*
X013973Y006357D02*
X013610Y006357D01*
X013591Y006456D02*
X014001Y006456D01*
X014041Y006516D02*
X014069Y006508D01*
X014241Y006508D01*
X014241Y006737D01*
X013973Y006737D01*
X013973Y006604D01*
X013981Y006576D01*
X013995Y006551D01*
X014016Y006530D01*
X014041Y006516D01*
X013993Y006554D02*
X009803Y006554D01*
X009803Y006467D02*
X009803Y006658D01*
X009668Y006792D01*
X009555Y006792D01*
X009453Y006894D01*
X009048Y006894D01*
X009048Y006927D01*
X008983Y006992D01*
X008538Y006992D01*
X008473Y006927D01*
X008473Y006561D01*
X008538Y006496D01*
X008983Y006496D01*
X009048Y006561D01*
X009048Y006594D01*
X009329Y006594D01*
X009343Y006580D01*
X009343Y006467D01*
X009478Y006333D01*
X009668Y006333D01*
X009803Y006467D01*
X009791Y006456D02*
X013054Y006456D01*
X013036Y006357D02*
X009693Y006357D01*
X009453Y006357D02*
X007910Y006357D01*
X007910Y006456D02*
X009355Y006456D01*
X009343Y006554D02*
X009041Y006554D01*
X009027Y006948D02*
X013988Y006948D01*
X013981Y006936D02*
X013973Y006908D01*
X013973Y006775D01*
X014241Y006775D01*
X014241Y006737D01*
X014279Y006737D01*
X014279Y006508D01*
X014452Y006508D01*
X014480Y006516D01*
X014505Y006530D01*
X014526Y006551D01*
X014540Y006576D01*
X014548Y006604D01*
X014548Y006737D01*
X014279Y006737D01*
X014279Y006775D01*
X014241Y006775D01*
X014241Y007004D01*
X014069Y007004D01*
X014041Y006996D01*
X014016Y006982D01*
X013995Y006961D01*
X013981Y006936D01*
X013973Y006850D02*
X009498Y006850D01*
X009710Y006751D02*
X014241Y006751D01*
X014279Y006751D02*
X019344Y006751D01*
X019353Y006728D02*
X019488Y006593D01*
X019665Y006520D01*
X019856Y006520D01*
X020032Y006593D01*
X020167Y006728D01*
X020240Y006905D01*
X020240Y007095D01*
X020167Y007272D01*
X020032Y007407D01*
X019856Y007480D01*
X019665Y007480D01*
X019488Y007407D01*
X019353Y007272D01*
X019280Y007095D01*
X019280Y006905D01*
X019353Y006728D01*
X019429Y006653D02*
X014548Y006653D01*
X014528Y006554D02*
X019583Y006554D01*
X019606Y006456D02*
X014519Y006456D01*
X014548Y006357D02*
X017335Y006357D01*
X017335Y006372D02*
X017335Y006225D01*
X016792Y006231D01*
X016731Y006292D01*
X016540Y006292D01*
X016405Y006158D01*
X016405Y005967D01*
X016540Y005833D01*
X016731Y005833D01*
X016789Y005891D01*
X017335Y005885D01*
X017335Y005730D01*
X017400Y005666D01*
X018121Y005666D01*
X018185Y005730D01*
X018185Y005881D01*
X019290Y005881D01*
X019353Y005728D01*
X019488Y005593D01*
X019665Y005520D01*
X019856Y005520D01*
X020032Y005593D01*
X020167Y005728D01*
X020240Y005905D01*
X020240Y006095D01*
X020167Y006272D01*
X020032Y006407D01*
X019856Y006480D01*
X019665Y006480D01*
X019488Y006407D01*
X019353Y006272D01*
X019332Y006221D01*
X018185Y006221D01*
X018185Y006372D01*
X018121Y006437D01*
X017400Y006437D01*
X017335Y006372D01*
X017335Y006259D02*
X016765Y006259D01*
X016506Y006259D02*
X014548Y006259D01*
X014548Y006160D02*
X016408Y006160D01*
X016405Y006062D02*
X014548Y006062D01*
X014311Y005963D02*
X016410Y005963D01*
X016508Y005865D02*
X014212Y005865D01*
X014114Y005766D02*
X017335Y005766D01*
X017335Y005865D02*
X016763Y005865D01*
X017398Y005668D02*
X014015Y005668D01*
X013916Y005569D02*
X019547Y005569D01*
X019576Y005445D02*
X019648Y005468D01*
X019710Y005478D01*
X019710Y005050D01*
X019710Y004950D01*
X019282Y004950D01*
X019292Y004888D01*
X019316Y004816D01*
X019350Y004748D01*
X019394Y004687D01*
X019448Y004634D01*
X019509Y004589D01*
X019576Y004555D01*
X019648Y004532D01*
X019710Y004522D01*
X019710Y004950D01*
X019810Y004950D01*
X019810Y004522D01*
X019873Y004532D01*
X019945Y004555D01*
X020012Y004589D01*
X020073Y004634D01*
X020126Y004687D01*
X020171Y004748D01*
X020205Y004816D01*
X020229Y004888D01*
X020238Y004950D01*
X019810Y004950D01*
X019810Y005050D01*
X019710Y005050D01*
X019282Y005050D01*
X019292Y005112D01*
X019316Y005184D01*
X019350Y005252D01*
X019394Y005313D01*
X019448Y005366D01*
X019509Y005411D01*
X019576Y005445D01*
X019663Y005471D02*
X014516Y005471D01*
X014548Y005372D02*
X019456Y005372D01*
X019366Y005274D02*
X018174Y005274D01*
X018178Y005267D02*
X018163Y005292D01*
X018143Y005312D01*
X018118Y005327D01*
X018090Y005334D01*
X017810Y005334D01*
X017810Y004999D01*
X017710Y004999D01*
X017710Y004899D01*
X017335Y004899D01*
X017335Y004659D01*
X017343Y004631D01*
X017357Y004606D01*
X017378Y004585D01*
X017403Y004571D01*
X017431Y004563D01*
X017710Y004563D01*
X017710Y004899D01*
X017810Y004899D01*
X017810Y004563D01*
X018090Y004563D01*
X018118Y004571D01*
X018143Y004585D01*
X018163Y004606D01*
X018178Y004631D01*
X018185Y004659D01*
X018185Y004899D01*
X017810Y004899D01*
X017810Y004999D01*
X018185Y004999D01*
X018185Y005239D01*
X018178Y005267D01*
X018185Y005175D02*
X019313Y005175D01*
X019286Y005077D02*
X018185Y005077D01*
X018185Y004880D02*
X019295Y004880D01*
X019333Y004781D02*
X018185Y004781D01*
X018185Y004683D02*
X019399Y004683D01*
X019519Y004584D02*
X018141Y004584D01*
X017810Y004584D02*
X017710Y004584D01*
X017710Y004683D02*
X017810Y004683D01*
X017810Y004781D02*
X017710Y004781D01*
X017710Y004880D02*
X017810Y004880D01*
X017810Y004978D02*
X019710Y004978D01*
X019710Y004880D02*
X019810Y004880D01*
X019810Y004978D02*
X022060Y004978D01*
X022060Y004880D02*
X020226Y004880D01*
X020187Y004781D02*
X022060Y004781D01*
X022060Y004683D02*
X020122Y004683D01*
X020001Y004584D02*
X022060Y004584D01*
X022060Y004486D02*
X013678Y004486D01*
X013678Y004584D02*
X013973Y004584D01*
X013973Y004561D02*
X014038Y004496D01*
X014483Y004496D01*
X014548Y004561D01*
X014548Y004594D01*
X014591Y004594D01*
X014665Y004520D01*
X014856Y004520D01*
X014990Y004655D01*
X014990Y004845D01*
X014856Y004980D01*
X014665Y004980D01*
X014579Y004894D01*
X014548Y004894D01*
X014548Y004927D01*
X014483Y004992D01*
X014038Y004992D01*
X013973Y004927D01*
X013973Y004561D01*
X013973Y004683D02*
X013618Y004683D01*
X013618Y004781D02*
X013973Y004781D01*
X013973Y004880D02*
X013630Y004880D01*
X013729Y004978D02*
X014024Y004978D01*
X013973Y005077D02*
X013827Y005077D01*
X013818Y005471D02*
X014004Y005471D01*
X013689Y005766D02*
X013610Y005766D01*
X013610Y005865D02*
X013788Y005865D01*
X013886Y005963D02*
X013574Y005963D01*
X013542Y006016D02*
X013568Y006030D01*
X013588Y006051D01*
X013603Y006076D01*
X013610Y006104D01*
X013610Y006237D01*
X013342Y006237D01*
X013342Y006008D01*
X013515Y006008D01*
X013542Y006016D01*
X013594Y006062D02*
X013973Y006062D01*
X013973Y006160D02*
X013610Y006160D01*
X013342Y006160D02*
X013304Y006160D01*
X013304Y006062D02*
X013342Y006062D01*
X013342Y006357D02*
X013304Y006357D01*
X013304Y006456D02*
X013342Y006456D01*
X013576Y007047D02*
X009021Y007047D01*
X009048Y007073D02*
X009048Y007439D01*
X008983Y007504D01*
X008538Y007504D01*
X008519Y007485D01*
X008101Y007485D01*
X007963Y007347D01*
X007963Y007153D01*
X008101Y007015D01*
X008531Y007015D01*
X008538Y007008D01*
X008983Y007008D01*
X009048Y007073D01*
X009048Y007145D02*
X013530Y007145D01*
X013492Y007244D02*
X009048Y007244D01*
X009048Y007342D02*
X013394Y007342D01*
X013295Y007441D02*
X009046Y007441D01*
X009173Y007638D02*
X009575Y007638D01*
X009575Y007736D02*
X009271Y007736D01*
X009483Y007835D02*
X009575Y007835D01*
X009639Y007539D02*
X007246Y007539D01*
X007344Y007441D02*
X008056Y007441D01*
X007963Y007342D02*
X007443Y007342D01*
X007541Y007244D02*
X007963Y007244D01*
X007970Y007145D02*
X007640Y007145D01*
X007738Y007047D02*
X008069Y007047D01*
X007837Y006948D02*
X008494Y006948D01*
X008473Y006850D02*
X007910Y006850D01*
X007910Y006751D02*
X008473Y006751D01*
X008473Y006653D02*
X007910Y006653D01*
X007910Y006554D02*
X008480Y006554D01*
X008723Y007638D02*
X007147Y007638D01*
X006591Y007145D02*
X006271Y007145D01*
X006271Y007047D02*
X006689Y007047D01*
X006788Y006948D02*
X005935Y006948D01*
X005935Y006850D02*
X005835Y006850D01*
X005835Y006948D02*
X003738Y006948D01*
X003738Y006950D02*
X003310Y006950D01*
X003310Y006522D01*
X003373Y006532D01*
X003445Y006555D01*
X003512Y006589D01*
X003573Y006634D01*
X003626Y006687D01*
X003671Y006748D01*
X003705Y006816D01*
X003729Y006888D01*
X003738Y006950D01*
X003738Y007050D02*
X003729Y007112D01*
X003705Y007184D01*
X003671Y007252D01*
X003626Y007313D01*
X003573Y007366D01*
X003512Y007411D01*
X003445Y007445D01*
X003373Y007468D01*
X003310Y007478D01*
X003310Y007050D01*
X003210Y007050D01*
X003210Y006950D01*
X002782Y006950D01*
X002792Y006888D01*
X002816Y006816D01*
X002850Y006748D01*
X002894Y006687D01*
X002948Y006634D01*
X003009Y006589D01*
X003076Y006555D01*
X003148Y006532D01*
X003210Y006522D01*
X003210Y006950D01*
X003310Y006950D01*
X003310Y007050D01*
X003738Y007050D01*
X003718Y007145D02*
X005500Y007145D01*
X005500Y007047D02*
X003310Y007047D01*
X003310Y007145D02*
X003210Y007145D01*
X003210Y007050D02*
X003210Y007478D01*
X003148Y007468D01*
X003076Y007445D01*
X003009Y007411D01*
X002948Y007366D01*
X002894Y007313D01*
X002850Y007252D01*
X002816Y007184D01*
X002792Y007112D01*
X002782Y007050D01*
X003210Y007050D01*
X003210Y007047D02*
X002460Y007047D01*
X002460Y007145D02*
X002803Y007145D01*
X002846Y007244D02*
X002460Y007244D01*
X002460Y007342D02*
X002924Y007342D01*
X003068Y007441D02*
X002460Y007441D01*
X002460Y007539D02*
X003119Y007539D01*
X003165Y007520D02*
X002988Y007593D01*
X002853Y007728D01*
X002780Y007905D01*
X002780Y008095D01*
X002853Y008272D01*
X002988Y008407D01*
X003165Y008480D01*
X003356Y008480D01*
X003532Y008407D01*
X003667Y008272D01*
X003740Y008095D01*
X003740Y007905D01*
X003667Y007728D01*
X003532Y007593D01*
X003356Y007520D01*
X003165Y007520D01*
X003210Y007441D02*
X003310Y007441D01*
X003310Y007342D02*
X003210Y007342D01*
X003210Y007244D02*
X003310Y007244D01*
X003453Y007441D02*
X005500Y007441D01*
X005500Y007342D02*
X003597Y007342D01*
X003675Y007244D02*
X005500Y007244D01*
X005500Y006850D02*
X003716Y006850D01*
X003672Y006751D02*
X005500Y006751D01*
X005500Y006653D02*
X003592Y006653D01*
X003441Y006554D02*
X005500Y006554D01*
X005500Y006456D02*
X003415Y006456D01*
X003356Y006480D02*
X003532Y006407D01*
X003667Y006272D01*
X003740Y006095D01*
X003740Y005905D01*
X003667Y005728D01*
X003532Y005593D01*
X003356Y005520D01*
X003165Y005520D01*
X002988Y005593D01*
X002853Y005728D01*
X002780Y005905D01*
X002780Y006095D01*
X002853Y006272D01*
X002988Y006407D01*
X003165Y006480D01*
X003356Y006480D01*
X003310Y006554D02*
X003210Y006554D01*
X003210Y006653D02*
X003310Y006653D01*
X003310Y006751D02*
X003210Y006751D01*
X003210Y006850D02*
X003310Y006850D01*
X003310Y006948D02*
X003210Y006948D01*
X002929Y006653D02*
X002460Y006653D01*
X002460Y006751D02*
X002849Y006751D01*
X002805Y006850D02*
X002460Y006850D01*
X002460Y006948D02*
X002783Y006948D01*
X003080Y006554D02*
X002460Y006554D01*
X002460Y006456D02*
X003106Y006456D01*
X002939Y006357D02*
X002460Y006357D01*
X002460Y006259D02*
X002848Y006259D01*
X002807Y006160D02*
X002460Y006160D01*
X002460Y006062D02*
X002780Y006062D01*
X002780Y005963D02*
X002460Y005963D01*
X002460Y005865D02*
X002797Y005865D01*
X002838Y005766D02*
X002460Y005766D01*
X002460Y005668D02*
X002914Y005668D01*
X003047Y005569D02*
X002460Y005569D01*
X002460Y005471D02*
X003142Y005471D01*
X002954Y005372D02*
X002460Y005372D01*
X002460Y005274D02*
X002855Y005274D01*
X002813Y005175D02*
X002460Y005175D01*
X002460Y005077D02*
X002780Y005077D01*
X002780Y004978D02*
X002460Y004978D01*
X002460Y004880D02*
X002791Y004880D01*
X002832Y004781D02*
X002460Y004781D01*
X002460Y004683D02*
X002899Y004683D01*
X003010Y004584D02*
X002460Y004584D01*
X002460Y004486D02*
X005500Y004486D01*
X005500Y004584D02*
X003510Y004584D01*
X003622Y004683D02*
X005500Y004683D01*
X005532Y004387D02*
X002460Y004387D01*
X002460Y004289D02*
X013334Y004289D01*
X013562Y004289D02*
X022060Y004289D01*
X022060Y004387D02*
X013660Y004387D01*
X014548Y004584D02*
X014601Y004584D01*
X014920Y004584D02*
X017380Y004584D01*
X017335Y004683D02*
X014990Y004683D01*
X014990Y004781D02*
X017335Y004781D01*
X017335Y004880D02*
X014956Y004880D01*
X014858Y004978D02*
X017710Y004978D01*
X017710Y004999D02*
X017335Y004999D01*
X017335Y005239D01*
X017343Y005267D01*
X017357Y005292D01*
X017378Y005312D01*
X017403Y005327D01*
X017431Y005334D01*
X017710Y005334D01*
X017710Y004999D01*
X017710Y005077D02*
X017810Y005077D01*
X017810Y005175D02*
X017710Y005175D01*
X017710Y005274D02*
X017810Y005274D01*
X018123Y005668D02*
X019414Y005668D01*
X019338Y005766D02*
X018185Y005766D01*
X018185Y005865D02*
X019297Y005865D01*
X019710Y005471D02*
X019810Y005471D01*
X019810Y005478D02*
X019873Y005468D01*
X019945Y005445D01*
X020012Y005411D01*
X020073Y005366D01*
X020126Y005313D01*
X020171Y005252D01*
X020205Y005184D01*
X020229Y005112D01*
X020238Y005050D01*
X019810Y005050D01*
X019810Y005478D01*
X019858Y005471D02*
X022060Y005471D01*
X022060Y005569D02*
X019974Y005569D01*
X020107Y005668D02*
X022060Y005668D01*
X022060Y005766D02*
X020183Y005766D01*
X020224Y005865D02*
X022060Y005865D01*
X022060Y005963D02*
X020240Y005963D01*
X020240Y006062D02*
X022060Y006062D01*
X022060Y006160D02*
X020214Y006160D01*
X020173Y006259D02*
X022060Y006259D01*
X022060Y006357D02*
X020082Y006357D01*
X019915Y006456D02*
X022060Y006456D01*
X022060Y006554D02*
X019938Y006554D01*
X020092Y006653D02*
X022060Y006653D01*
X022060Y006751D02*
X020177Y006751D01*
X020218Y006850D02*
X022060Y006850D01*
X022060Y006948D02*
X020240Y006948D01*
X020240Y007047D02*
X022060Y007047D01*
X022060Y007145D02*
X020220Y007145D01*
X020179Y007244D02*
X022060Y007244D01*
X022060Y007342D02*
X020097Y007342D01*
X019951Y007441D02*
X022060Y007441D01*
X022060Y007539D02*
X019902Y007539D01*
X019856Y007520D02*
X020032Y007593D01*
X020167Y007728D01*
X020240Y007905D01*
X020240Y008095D01*
X020167Y008272D01*
X020032Y008407D01*
X019856Y008480D01*
X019665Y008480D01*
X019488Y008407D01*
X019353Y008272D01*
X019280Y008095D01*
X019280Y007905D01*
X019353Y007728D01*
X019488Y007593D01*
X019665Y007520D01*
X019856Y007520D01*
X019619Y007539D02*
X013732Y007539D01*
X013719Y007441D02*
X019570Y007441D01*
X019424Y007342D02*
X013931Y007342D01*
X013990Y007244D02*
X019342Y007244D01*
X019301Y007145D02*
X013990Y007145D01*
X013945Y007047D02*
X019280Y007047D01*
X019280Y006948D02*
X014533Y006948D01*
X014540Y006936D02*
X014526Y006961D01*
X014505Y006982D01*
X014480Y006996D01*
X014452Y007004D01*
X014279Y007004D01*
X014279Y006775D01*
X014548Y006775D01*
X014548Y006908D01*
X014540Y006936D01*
X014548Y006850D02*
X019303Y006850D01*
X019439Y006357D02*
X018185Y006357D01*
X018185Y006259D02*
X019348Y006259D01*
X019710Y005372D02*
X019810Y005372D01*
X019810Y005274D02*
X019710Y005274D01*
X019710Y005175D02*
X019810Y005175D01*
X019810Y005077D02*
X019710Y005077D01*
X019710Y004781D02*
X019810Y004781D01*
X019810Y004683D02*
X019710Y004683D01*
X019710Y004584D02*
X019810Y004584D01*
X020234Y005077D02*
X022060Y005077D01*
X022060Y005175D02*
X020208Y005175D01*
X020155Y005274D02*
X022060Y005274D01*
X022060Y005372D02*
X020065Y005372D01*
X020077Y007638D02*
X022060Y007638D01*
X022060Y007736D02*
X020171Y007736D01*
X020211Y007835D02*
X022060Y007835D01*
X022060Y007933D02*
X020240Y007933D01*
X020240Y008032D02*
X022060Y008032D01*
X022060Y008130D02*
X020226Y008130D01*
X020185Y008229D02*
X022060Y008229D01*
X022060Y008327D02*
X020112Y008327D01*
X019987Y008426D02*
X022060Y008426D01*
X022060Y008524D02*
X019866Y008524D01*
X019655Y008524D02*
X018865Y008524D01*
X018865Y008426D02*
X019533Y008426D01*
X019409Y008327D02*
X018788Y008327D01*
X018838Y008623D02*
X019459Y008623D01*
X019361Y008721D02*
X018740Y008721D01*
X018615Y008820D02*
X019316Y008820D01*
X019329Y009214D02*
X018249Y009214D01*
X018347Y009312D02*
X019394Y009312D01*
X019497Y009411D02*
X018446Y009411D01*
X018544Y009509D02*
X022060Y009509D01*
X022060Y009411D02*
X020024Y009411D01*
X020127Y009312D02*
X022060Y009312D01*
X022060Y009214D02*
X020191Y009214D01*
X020232Y009115D02*
X022060Y009115D01*
X022060Y009017D02*
X020240Y009017D01*
X020240Y008918D02*
X022060Y008918D01*
X022060Y008820D02*
X020205Y008820D01*
X020160Y008721D02*
X022060Y008721D01*
X022060Y008623D02*
X020062Y008623D01*
X019335Y008229D02*
X013845Y008229D01*
X013845Y008327D02*
X015671Y008327D01*
X015593Y008426D02*
X013845Y008426D01*
X013845Y008524D02*
X015593Y008524D01*
X015620Y008623D02*
X013845Y008623D01*
X013845Y008721D02*
X015719Y008721D01*
X015655Y008820D02*
X015905Y008820D01*
X015975Y008327D02*
X018483Y008327D01*
X019295Y008130D02*
X013845Y008130D01*
X013845Y008032D02*
X019280Y008032D01*
X019280Y007933D02*
X013845Y007933D01*
X013845Y007835D02*
X019309Y007835D01*
X019350Y007736D02*
X013845Y007736D01*
X013830Y007638D02*
X019444Y007638D01*
X019474Y009608D02*
X018643Y009608D01*
X018741Y009706D02*
X019376Y009706D01*
X019322Y009805D02*
X018840Y009805D01*
X018612Y010002D02*
X018098Y010002D01*
X018120Y009903D02*
X018514Y009903D01*
X018415Y009805D02*
X018120Y009805D01*
X018080Y009706D02*
X018317Y009706D01*
X018218Y009608D02*
X018002Y009608D01*
X018120Y009509D02*
X015639Y009509D01*
X015382Y009509D02*
X012145Y009509D01*
X012145Y009411D02*
X015283Y009411D01*
X015280Y009312D02*
X013331Y009312D01*
X013503Y009214D02*
X015284Y009214D01*
X015300Y009115D02*
X013728Y009115D01*
X013826Y009017D02*
X015280Y009017D01*
X015280Y008918D02*
X013853Y008918D01*
X013845Y008820D02*
X015366Y008820D01*
X016865Y010297D02*
X019379Y010297D01*
X019323Y010199D02*
X017920Y010199D01*
X017978Y010333D02*
X017898Y010413D01*
X017623Y010413D01*
X017543Y010333D01*
X017353Y010333D01*
X017218Y010467D01*
X017218Y010632D01*
X017168Y010583D01*
X016978Y010583D01*
X016843Y010717D01*
X016843Y010908D01*
X016923Y010988D01*
X016923Y011025D01*
X016833Y011025D01*
X016768Y011090D01*
X016768Y011535D01*
X016833Y011600D01*
X017060Y011600D01*
X017075Y011606D01*
X017089Y011600D01*
X017200Y011600D01*
X017264Y011535D01*
X017264Y011090D01*
X017223Y011049D01*
X017223Y010988D01*
X017303Y010908D01*
X017303Y010743D01*
X017353Y010792D01*
X017493Y010792D01*
X017481Y010814D01*
X017473Y010842D01*
X017473Y010975D01*
X017741Y010975D01*
X017741Y011013D01*
X017473Y011013D01*
X017473Y011146D01*
X017481Y011174D01*
X017495Y011199D01*
X017516Y011220D01*
X017541Y011234D01*
X017569Y011242D01*
X017741Y011242D01*
X017741Y011013D01*
X017779Y011013D01*
X017779Y011242D01*
X017952Y011242D01*
X017980Y011234D01*
X018005Y011220D01*
X018026Y011199D01*
X018040Y011174D01*
X018048Y011146D01*
X018048Y011013D01*
X017779Y011013D01*
X017779Y010975D01*
X017779Y010746D01*
X017931Y010746D01*
X017898Y010712D01*
X017623Y010712D01*
X017589Y010746D01*
X017741Y010746D01*
X017741Y010975D01*
X017779Y010975D01*
X018048Y010975D01*
X018048Y010842D01*
X018040Y010814D01*
X018028Y010792D01*
X018168Y010792D01*
X018303Y010658D01*
X018303Y010467D01*
X018168Y010333D01*
X017978Y010333D01*
X017915Y010396D02*
X017606Y010396D01*
X017290Y010396D02*
X016865Y010396D01*
X016779Y010494D02*
X017218Y010494D01*
X017218Y010593D02*
X017178Y010593D01*
X016968Y010593D02*
X016674Y010593D01*
X016674Y010691D02*
X016869Y010691D01*
X016843Y010790D02*
X016674Y010790D01*
X016674Y010888D02*
X016843Y010888D01*
X016922Y010987D02*
X016674Y010987D01*
X016748Y011085D02*
X016773Y011085D01*
X016768Y011184D02*
X016752Y011184D01*
X016752Y011282D02*
X016768Y011282D01*
X016768Y011381D02*
X016752Y011381D01*
X016752Y011479D02*
X016768Y011479D01*
X016811Y011578D02*
X016710Y011578D01*
X016674Y011676D02*
X016759Y011676D01*
X017012Y011676D02*
X017155Y011676D01*
X017155Y011775D02*
X017110Y011775D01*
X017222Y011578D02*
X017233Y011578D01*
X017264Y011479D02*
X017473Y011479D01*
X017473Y011381D02*
X017264Y011381D01*
X017264Y011282D02*
X017514Y011282D01*
X017486Y011184D02*
X017264Y011184D01*
X017259Y011085D02*
X017473Y011085D01*
X017473Y010888D02*
X017303Y010888D01*
X017303Y010790D02*
X017350Y010790D01*
X017224Y010987D02*
X017741Y010987D01*
X017779Y010987D02*
X018155Y010987D01*
X018155Y010905D02*
X018155Y011095D01*
X018290Y011230D01*
X018481Y011230D01*
X018561Y011150D01*
X019303Y011150D01*
X019353Y011272D01*
X019488Y011407D01*
X019665Y011480D01*
X019856Y011480D01*
X020032Y011407D01*
X020167Y011272D01*
X020240Y011095D01*
X020240Y010905D01*
X020167Y010728D01*
X020032Y010593D01*
X019856Y010520D01*
X019665Y010520D01*
X019488Y010593D01*
X019353Y010728D01*
X019303Y010850D01*
X018561Y010850D01*
X018481Y010770D01*
X018290Y010770D01*
X018155Y010905D01*
X018172Y010888D02*
X018048Y010888D01*
X018171Y010790D02*
X018271Y010790D01*
X018270Y010691D02*
X019391Y010691D01*
X019328Y010790D02*
X018500Y010790D01*
X018303Y010593D02*
X019490Y010593D01*
X019477Y010396D02*
X018231Y010396D01*
X018303Y010494D02*
X022060Y010494D01*
X022060Y010396D02*
X020044Y010396D01*
X020142Y010297D02*
X022060Y010297D01*
X022060Y010199D02*
X020198Y010199D01*
X020238Y010100D02*
X022060Y010100D01*
X022060Y010002D02*
X020240Y010002D01*
X020240Y009903D02*
X022060Y009903D01*
X022060Y009805D02*
X020199Y009805D01*
X020145Y009706D02*
X022060Y009706D01*
X022060Y009608D02*
X020047Y009608D01*
X020031Y010593D02*
X022060Y010593D01*
X022060Y010691D02*
X020130Y010691D01*
X020193Y010790D02*
X022060Y010790D01*
X022060Y010888D02*
X020234Y010888D01*
X020240Y010987D02*
X022060Y010987D01*
X022060Y011085D02*
X020240Y011085D01*
X020204Y011184D02*
X022060Y011184D01*
X022060Y011282D02*
X020157Y011282D01*
X020059Y011381D02*
X022060Y011381D01*
X022060Y011479D02*
X019858Y011479D01*
X019856Y011520D02*
X020032Y011593D01*
X020167Y011728D01*
X020240Y011905D01*
X020240Y012095D01*
X020167Y012272D01*
X020032Y012407D01*
X019856Y012480D01*
X019665Y012480D01*
X019488Y012407D01*
X019353Y012272D01*
X019280Y012095D01*
X019280Y011905D01*
X019353Y011728D01*
X019488Y011593D01*
X019665Y011520D01*
X019856Y011520D01*
X019995Y011578D02*
X022060Y011578D01*
X022060Y011676D02*
X020115Y011676D01*
X020187Y011775D02*
X022060Y011775D01*
X022060Y011873D02*
X020227Y011873D01*
X020240Y011972D02*
X022060Y011972D01*
X022060Y012070D02*
X020240Y012070D01*
X020210Y012169D02*
X022060Y012169D01*
X022060Y012267D02*
X020169Y012267D01*
X020074Y012366D02*
X022060Y012366D01*
X022060Y012464D02*
X019894Y012464D01*
X019856Y012520D02*
X020032Y012593D01*
X020167Y012728D01*
X020240Y012905D01*
X020240Y013095D01*
X020167Y013272D01*
X020032Y013407D01*
X019856Y013480D01*
X019665Y013480D01*
X019488Y013407D01*
X019353Y013272D01*
X019280Y013095D01*
X019280Y012905D01*
X019353Y012728D01*
X019488Y012593D01*
X019665Y012520D01*
X019856Y012520D01*
X019959Y012563D02*
X022060Y012563D01*
X022060Y012661D02*
X020100Y012661D01*
X020180Y012760D02*
X022060Y012760D01*
X022060Y012858D02*
X020221Y012858D01*
X020240Y012957D02*
X022060Y012957D01*
X022060Y013055D02*
X020240Y013055D01*
X020216Y013154D02*
X022060Y013154D01*
X022060Y013252D02*
X020176Y013252D01*
X020089Y013351D02*
X022060Y013351D01*
X022060Y013449D02*
X019931Y013449D01*
X019922Y013548D02*
X022060Y013548D01*
X022060Y013646D02*
X020085Y013646D01*
X020174Y013745D02*
X022060Y013745D01*
X022060Y013843D02*
X020215Y013843D01*
X020240Y013942D02*
X022060Y013942D01*
X022060Y014040D02*
X020240Y014040D01*
X020223Y014139D02*
X022060Y014139D01*
X022060Y014237D02*
X020182Y014237D01*
X020104Y014336D02*
X022060Y014336D01*
X022060Y014434D02*
X019967Y014434D01*
X019886Y014533D02*
X022060Y014533D01*
X022060Y014631D02*
X020070Y014631D01*
X020032Y014593D02*
X020167Y014728D01*
X020240Y014905D01*
X020240Y015095D01*
X020167Y015272D01*
X020032Y015407D01*
X019856Y015480D01*
X019665Y015480D01*
X019543Y015430D01*
X018910Y016062D01*
X018822Y016150D01*
X012636Y016150D01*
X011886Y015400D01*
X011798Y015312D01*
X011798Y013063D01*
X011923Y012938D01*
X012011Y012850D01*
X012098Y012850D01*
X012098Y012561D01*
X012163Y012496D01*
X012530Y012496D01*
X012530Y012467D01*
X012665Y012333D01*
X012856Y012333D01*
X012990Y012467D01*
X012990Y012658D01*
X012856Y012792D01*
X012742Y012792D01*
X012685Y012850D01*
X012822Y012850D01*
X012992Y013020D01*
X013106Y013020D01*
X013240Y013155D01*
X013240Y013345D01*
X013106Y013480D01*
X012915Y013480D01*
X012780Y013345D01*
X012780Y013232D01*
X012698Y013150D01*
X012673Y013150D01*
X012673Y013330D01*
X013233Y013890D01*
X016233Y013890D01*
X016370Y014028D01*
X016370Y014222D01*
X016233Y014360D01*
X013038Y014360D01*
X012900Y014222D01*
X012182Y013504D01*
X012163Y013504D01*
X012098Y013439D01*
X012098Y013187D01*
X012098Y015188D01*
X012760Y015850D01*
X018698Y015850D01*
X019331Y015217D01*
X019280Y015095D01*
X019280Y014905D01*
X019353Y014728D01*
X019488Y014593D01*
X019665Y014520D01*
X019856Y014520D01*
X020032Y014593D01*
X020168Y014730D02*
X022060Y014730D01*
X022060Y014828D02*
X020209Y014828D01*
X020240Y014927D02*
X022060Y014927D01*
X022060Y015025D02*
X020240Y015025D01*
X020229Y015124D02*
X022060Y015124D01*
X022060Y015222D02*
X020188Y015222D01*
X020119Y015321D02*
X022060Y015321D01*
X022060Y015419D02*
X020003Y015419D01*
X020032Y015593D02*
X019856Y015520D01*
X019665Y015520D01*
X019488Y015593D01*
X019353Y015728D01*
X019280Y015905D01*
X019280Y016095D01*
X019353Y016272D01*
X019488Y016407D01*
X019665Y016480D01*
X019856Y016480D01*
X020032Y016407D01*
X020167Y016272D01*
X020240Y016095D01*
X020240Y015905D01*
X020167Y015728D01*
X020032Y015593D01*
X020055Y015616D02*
X022060Y015616D01*
X022060Y015518D02*
X019455Y015518D01*
X019465Y015616D02*
X019356Y015616D01*
X019367Y015715D02*
X019258Y015715D01*
X019318Y015813D02*
X019159Y015813D01*
X019061Y015912D02*
X019280Y015912D01*
X019280Y016010D02*
X018962Y016010D01*
X018864Y016109D02*
X019286Y016109D01*
X019327Y016207D02*
X009354Y016207D01*
X009365Y016109D02*
X012594Y016109D01*
X012496Y016010D02*
X009365Y016010D01*
X009285Y015912D02*
X012397Y015912D01*
X012299Y015813D02*
X009285Y015813D01*
X009285Y015715D02*
X012200Y015715D01*
X012102Y015616D02*
X009285Y015616D01*
X009285Y015518D02*
X012003Y015518D01*
X011905Y015419D02*
X009285Y015419D01*
X009285Y015321D02*
X011806Y015321D01*
X011798Y015222D02*
X009285Y015222D01*
X009285Y015124D02*
X011798Y015124D01*
X011798Y015025D02*
X009285Y015025D01*
X009285Y014927D02*
X011798Y014927D01*
X011798Y014828D02*
X009285Y014828D01*
X009285Y014730D02*
X011798Y014730D01*
X011798Y014631D02*
X009285Y014631D01*
X009285Y014533D02*
X011798Y014533D01*
X011798Y014434D02*
X009285Y014434D01*
X009285Y014336D02*
X011798Y014336D01*
X011798Y014237D02*
X009285Y014237D01*
X009285Y014139D02*
X011798Y014139D01*
X011798Y014040D02*
X009285Y014040D01*
X009285Y013942D02*
X011798Y013942D01*
X011798Y013843D02*
X009285Y013843D01*
X009285Y013745D02*
X011798Y013745D01*
X011798Y013646D02*
X009285Y013646D01*
X009288Y013548D02*
X011798Y013548D01*
X011798Y013449D02*
X009887Y013449D01*
X009856Y013480D02*
X009990Y013345D01*
X009990Y013155D01*
X009856Y013020D01*
X009750Y013020D01*
X009548Y012844D01*
X009548Y012635D01*
X009483Y012571D01*
X009259Y012571D01*
X009243Y012554D01*
X009483Y012554D01*
X009548Y012490D01*
X009548Y012123D01*
X009483Y012059D01*
X009281Y012059D01*
X009224Y012001D01*
X009252Y011973D01*
X009252Y011527D01*
X009188Y011463D01*
X008958Y011463D01*
X008868Y011373D01*
X008868Y011218D01*
X008928Y011158D01*
X008928Y011073D01*
X008973Y011028D01*
X008973Y011377D01*
X009038Y011441D01*
X009483Y011441D01*
X009548Y011377D01*
X009548Y011300D01*
X009992Y010855D01*
X010106Y010855D01*
X010240Y010720D01*
X010240Y010530D01*
X010106Y010395D01*
X009915Y010395D01*
X009780Y010530D01*
X009780Y010643D01*
X009478Y010946D01*
X009055Y010946D01*
X009071Y010929D01*
X009483Y010929D01*
X009548Y010865D01*
X009548Y010498D01*
X009483Y010434D01*
X009038Y010434D01*
X008973Y010498D01*
X008973Y010547D01*
X008687Y010833D01*
X008603Y010833D01*
X008468Y010967D01*
X008468Y011158D01*
X008528Y011218D01*
X008528Y011514D01*
X008627Y011613D01*
X008757Y011743D01*
X008757Y011908D01*
X008680Y011907D01*
X008615Y011859D01*
X008615Y011780D01*
X008481Y011645D01*
X008290Y011645D01*
X008155Y011780D01*
X008155Y011970D01*
X008290Y012105D01*
X008443Y012105D01*
X008530Y012170D01*
X008565Y012206D01*
X008579Y012206D01*
X008590Y012214D01*
X008639Y012207D01*
X008665Y012207D01*
X008593Y012280D01*
X008593Y012470D01*
X008728Y012605D01*
X008812Y012605D01*
X008973Y012766D01*
X008973Y013002D01*
X009038Y013066D01*
X009286Y013066D01*
X009530Y013280D01*
X009530Y013345D01*
X009665Y013480D01*
X009856Y013480D01*
X009985Y013351D02*
X011798Y013351D01*
X011798Y013252D02*
X009990Y013252D01*
X009989Y013154D02*
X011798Y013154D01*
X011806Y013055D02*
X009891Y013055D01*
X009677Y012957D02*
X011904Y012957D01*
X012003Y012858D02*
X009564Y012858D01*
X009548Y012760D02*
X012098Y012760D01*
X012098Y012661D02*
X009548Y012661D01*
X009548Y012464D02*
X012534Y012464D01*
X012632Y012366D02*
X009548Y012366D01*
X009548Y012267D02*
X015981Y012267D01*
X015968Y012366D02*
X012889Y012366D01*
X012987Y012464D02*
X015968Y012464D01*
X016060Y012563D02*
X012990Y012563D01*
X012987Y012661D02*
X016397Y012661D01*
X016495Y012760D02*
X012889Y012760D01*
X012831Y012858D02*
X016594Y012858D01*
X016692Y012957D02*
X012929Y012957D01*
X013141Y013055D02*
X016505Y013055D01*
X016407Y013154D02*
X013239Y013154D01*
X013240Y013252D02*
X016405Y013252D01*
X016411Y013351D02*
X013235Y013351D01*
X013137Y013449D02*
X016509Y013449D01*
X016762Y013449D02*
X017560Y013449D01*
X017483Y013515D02*
X017620Y013653D01*
X017620Y015572D01*
X017483Y015710D01*
X017288Y015710D01*
X017150Y015572D01*
X017150Y013653D01*
X017288Y013515D01*
X017483Y013515D01*
X017515Y013548D02*
X017658Y013548D01*
X017614Y013646D02*
X017757Y013646D01*
X017855Y013745D02*
X017620Y013745D01*
X017620Y013843D02*
X017954Y013843D01*
X018052Y013942D02*
X017620Y013942D01*
X017620Y014040D02*
X018151Y014040D01*
X018249Y014139D02*
X017620Y014139D01*
X017620Y014237D02*
X019339Y014237D01*
X019417Y014336D02*
X017620Y014336D01*
X017620Y014434D02*
X019554Y014434D01*
X019635Y014533D02*
X017620Y014533D01*
X017620Y014631D02*
X019450Y014631D01*
X019353Y014730D02*
X017620Y014730D01*
X017620Y014828D02*
X019312Y014828D01*
X019280Y014927D02*
X017620Y014927D01*
X017620Y015025D02*
X019280Y015025D01*
X019292Y015124D02*
X017620Y015124D01*
X017620Y015222D02*
X019326Y015222D01*
X019228Y015321D02*
X017620Y015321D01*
X017620Y015419D02*
X019129Y015419D01*
X019031Y015518D02*
X017620Y015518D01*
X017577Y015616D02*
X018932Y015616D01*
X018834Y015715D02*
X012625Y015715D01*
X012723Y015813D02*
X018735Y015813D01*
X019387Y016306D02*
X017948Y016306D01*
X017995Y016404D02*
X019486Y016404D01*
X018991Y016798D02*
X022060Y016798D01*
X022060Y016700D02*
X018892Y016700D01*
X018995Y016897D02*
X022060Y016897D01*
X022060Y016995D02*
X018995Y016995D01*
X018915Y017094D02*
X022060Y017094D01*
X022060Y017192D02*
X019067Y017192D01*
X019144Y017291D02*
X022060Y017291D01*
X022060Y017389D02*
X019185Y017389D01*
X019155Y017685D02*
X022060Y017685D01*
X022060Y017783D02*
X019092Y017783D01*
X018975Y017882D02*
X019616Y017882D01*
X019905Y017882D02*
X022060Y017882D01*
X022060Y017980D02*
X019990Y017980D01*
X019990Y018079D02*
X022060Y018079D01*
X022060Y018177D02*
X019971Y018177D01*
X019873Y018276D02*
X022060Y018276D01*
X022060Y018374D02*
X013990Y018374D01*
X013990Y018276D02*
X019648Y018276D01*
X020035Y016404D02*
X022060Y016404D01*
X022060Y016306D02*
X020134Y016306D01*
X020194Y016207D02*
X022060Y016207D01*
X022060Y016109D02*
X020235Y016109D01*
X020240Y016010D02*
X022060Y016010D01*
X022060Y015912D02*
X020240Y015912D01*
X020202Y015813D02*
X022060Y015813D01*
X022060Y015715D02*
X020154Y015715D01*
X019306Y013843D02*
X018378Y013843D01*
X018280Y013745D02*
X019347Y013745D01*
X019435Y013646D02*
X018181Y013646D01*
X018083Y013548D02*
X019598Y013548D01*
X019590Y013449D02*
X017984Y013449D01*
X017886Y013351D02*
X019432Y013351D01*
X019345Y013252D02*
X017787Y013252D01*
X017689Y013154D02*
X019304Y013154D01*
X019280Y013055D02*
X017730Y013055D01*
X017828Y012957D02*
X019280Y012957D01*
X019300Y012858D02*
X017927Y012858D01*
X018025Y012760D02*
X019340Y012760D01*
X019421Y012661D02*
X018124Y012661D01*
X018222Y012563D02*
X019562Y012563D01*
X019626Y012464D02*
X018321Y012464D01*
X018419Y012366D02*
X019447Y012366D01*
X019351Y012267D02*
X018518Y012267D01*
X018616Y012169D02*
X019311Y012169D01*
X019280Y012070D02*
X018715Y012070D01*
X018813Y011972D02*
X019280Y011972D01*
X019293Y011873D02*
X018912Y011873D01*
X019010Y011775D02*
X019334Y011775D01*
X019406Y011676D02*
X019160Y011676D01*
X019240Y011578D02*
X019526Y011578D01*
X019663Y011479D02*
X019240Y011479D01*
X019216Y011381D02*
X019462Y011381D01*
X019364Y011282D02*
X019118Y011282D01*
X018903Y011282D02*
X018007Y011282D01*
X018035Y011184D02*
X018244Y011184D01*
X018155Y011085D02*
X018048Y011085D01*
X017779Y011085D02*
X017741Y011085D01*
X017741Y011184D02*
X017779Y011184D01*
X018048Y011381D02*
X018805Y011381D01*
X018780Y011479D02*
X018048Y011479D01*
X018048Y011578D02*
X018780Y011578D01*
X018685Y011676D02*
X018048Y011676D01*
X017732Y011775D02*
X018586Y011775D01*
X018488Y011873D02*
X017634Y011873D01*
X017632Y011972D02*
X018389Y011972D01*
X018291Y012070D02*
X017723Y012070D01*
X017723Y012169D02*
X018192Y012169D01*
X018094Y012267D02*
X017723Y012267D01*
X017723Y012366D02*
X017995Y012366D01*
X017897Y012464D02*
X017723Y012464D01*
X017723Y012563D02*
X017798Y012563D01*
X016791Y013055D02*
X016766Y013055D01*
X017255Y013548D02*
X012890Y013548D01*
X012884Y013449D02*
X012792Y013449D01*
X012786Y013351D02*
X012693Y013351D01*
X012673Y013252D02*
X012780Y013252D01*
X012702Y013154D02*
X012673Y013154D01*
X012989Y013646D02*
X017157Y013646D01*
X017150Y013745D02*
X013087Y013745D01*
X013186Y013843D02*
X017150Y013843D01*
X017150Y013942D02*
X016284Y013942D01*
X016370Y014040D02*
X017150Y014040D01*
X017150Y014139D02*
X016370Y014139D01*
X016356Y014237D02*
X017150Y014237D01*
X017150Y014336D02*
X016257Y014336D01*
X017150Y014434D02*
X012098Y014434D01*
X012098Y014336D02*
X013014Y014336D01*
X012915Y014237D02*
X012098Y014237D01*
X012098Y014139D02*
X012817Y014139D01*
X012718Y014040D02*
X012098Y014040D01*
X012098Y013942D02*
X012620Y013942D01*
X012521Y013843D02*
X012098Y013843D01*
X012098Y013745D02*
X012423Y013745D01*
X012324Y013646D02*
X012098Y013646D01*
X012098Y013548D02*
X012226Y013548D01*
X012108Y013449D02*
X012098Y013449D01*
X012098Y013351D02*
X012098Y013351D01*
X012098Y013252D02*
X012098Y013252D01*
X012098Y013187D02*
X012098Y013187D01*
X012098Y012563D02*
X009251Y012563D01*
X008967Y012760D02*
X005548Y012760D01*
X005548Y012858D02*
X008973Y012858D01*
X008973Y012957D02*
X005530Y012957D01*
X005495Y013055D02*
X009026Y013055D01*
X009032Y013154D02*
X005495Y013154D01*
X005495Y013252D02*
X008933Y013252D01*
X008905Y013351D02*
X005495Y013351D01*
X005495Y013449D02*
X008905Y013449D01*
X008983Y013548D02*
X005495Y013548D01*
X005495Y013646D02*
X008985Y013646D01*
X008985Y013745D02*
X005495Y013745D01*
X005495Y013843D02*
X008985Y013843D01*
X008985Y013942D02*
X008934Y013942D01*
X008586Y013942D02*
X008284Y013942D01*
X008370Y014028D02*
X008370Y014028D01*
X008383Y014040D02*
X008525Y014040D01*
X008525Y014139D02*
X008433Y014139D01*
X008433Y014237D02*
X008525Y014237D01*
X008525Y014336D02*
X008382Y014336D01*
X008525Y014434D02*
X004285Y014434D01*
X004285Y014512D02*
X004365Y014592D01*
X004365Y014783D01*
X004231Y014917D01*
X004040Y014917D01*
X003905Y014783D01*
X003905Y014592D01*
X003985Y014512D01*
X003985Y013750D01*
X004405Y013330D01*
X004405Y013217D01*
X004540Y013083D01*
X004731Y013083D01*
X004865Y013217D01*
X004865Y013408D01*
X004731Y013542D01*
X004617Y013542D01*
X004285Y013875D01*
X004285Y014512D01*
X004306Y014533D02*
X008525Y014533D01*
X008525Y014631D02*
X004365Y014631D01*
X004365Y014730D02*
X008525Y014730D01*
X008525Y014828D02*
X004320Y014828D01*
X003951Y014828D02*
X003709Y014828D01*
X003740Y014905D02*
X003667Y014728D01*
X003532Y014593D01*
X003356Y014520D01*
X003165Y014520D01*
X002988Y014593D01*
X002853Y014728D01*
X002780Y014905D01*
X002780Y015095D01*
X002853Y015272D01*
X002988Y015407D01*
X003165Y015480D01*
X003356Y015480D01*
X003532Y015407D01*
X003667Y015272D01*
X003740Y015095D01*
X003740Y014905D01*
X003740Y014927D02*
X008525Y014927D01*
X008525Y015025D02*
X003740Y015025D01*
X003729Y015124D02*
X008525Y015124D01*
X008525Y015222D02*
X003688Y015222D01*
X003619Y015321D02*
X008525Y015321D01*
X008525Y015419D02*
X003503Y015419D01*
X003555Y015616D02*
X006812Y015616D01*
X006775Y015715D02*
X003654Y015715D01*
X003702Y015813D02*
X006775Y015813D01*
X006910Y015518D02*
X002460Y015518D01*
X002460Y015616D02*
X002965Y015616D01*
X002867Y015715D02*
X002460Y015715D01*
X002460Y015813D02*
X002818Y015813D01*
X002780Y015912D02*
X002460Y015912D01*
X002460Y016010D02*
X002780Y016010D01*
X002786Y016109D02*
X002460Y016109D01*
X002460Y016207D02*
X002827Y016207D01*
X002887Y016306D02*
X002460Y016306D01*
X002460Y016404D02*
X002986Y016404D01*
X003426Y016503D02*
X002460Y016503D01*
X002460Y016601D02*
X003524Y016601D01*
X003623Y016700D02*
X002460Y016700D01*
X002460Y016798D02*
X003721Y016798D01*
X003976Y016897D02*
X002460Y016897D01*
X002460Y016995D02*
X003968Y016995D01*
X003485Y017094D02*
X002460Y017094D01*
X002460Y017192D02*
X003173Y017192D01*
X002979Y017291D02*
X002460Y017291D01*
X002460Y017389D02*
X002846Y017389D01*
X002747Y017488D02*
X002460Y017488D01*
X002460Y017586D02*
X002649Y017586D01*
X002587Y017648D02*
X002587Y017648D01*
X002569Y017685D02*
X002460Y017685D01*
X002460Y017783D02*
X002518Y017783D01*
X002468Y017882D02*
X002460Y017882D01*
X003752Y016404D02*
X006525Y016404D01*
X006525Y016503D02*
X003850Y016503D01*
X003653Y016306D02*
X005609Y016306D01*
X005525Y016207D02*
X003694Y016207D01*
X003735Y016109D02*
X005525Y016109D01*
X005543Y016010D02*
X003740Y016010D01*
X003740Y015912D02*
X005641Y015912D01*
X005139Y014336D02*
X004285Y014336D01*
X004285Y014237D02*
X005040Y014237D01*
X005025Y014139D02*
X004285Y014139D01*
X004285Y014040D02*
X005025Y014040D01*
X005025Y013942D02*
X004285Y013942D01*
X004317Y013843D02*
X005025Y013843D01*
X005025Y013745D02*
X004415Y013745D01*
X004514Y013646D02*
X005025Y013646D01*
X005025Y013548D02*
X004612Y013548D01*
X004824Y013449D02*
X005025Y013449D01*
X005025Y013351D02*
X004865Y013351D01*
X004865Y013252D02*
X005025Y013252D01*
X005025Y013154D02*
X004802Y013154D01*
X004885Y012957D02*
X003740Y012957D01*
X003740Y012905D02*
X003667Y012728D01*
X003532Y012593D01*
X003356Y012520D01*
X003165Y012520D01*
X002988Y012593D01*
X002853Y012728D01*
X002780Y012905D01*
X002780Y013095D01*
X002853Y013272D01*
X002988Y013407D01*
X003165Y013480D01*
X003356Y013480D01*
X003532Y013407D01*
X003667Y013272D01*
X003740Y013095D01*
X003740Y012905D01*
X003721Y012858D02*
X004786Y012858D01*
X004688Y012760D02*
X003680Y012760D01*
X003600Y012661D02*
X004589Y012661D01*
X004525Y012563D02*
X003459Y012563D01*
X003394Y012464D02*
X004525Y012464D01*
X004562Y012366D02*
X003574Y012366D01*
X003669Y012267D02*
X004661Y012267D01*
X004860Y012267D02*
X004973Y012267D01*
X004973Y012169D02*
X003710Y012169D01*
X003740Y012070D02*
X004255Y012070D01*
X004157Y011972D02*
X003740Y011972D01*
X003727Y011873D02*
X004155Y011873D01*
X004161Y011775D02*
X003698Y011775D01*
X003796Y011676D02*
X004259Y011676D01*
X004263Y011578D02*
X003895Y011578D01*
X003993Y011479D02*
X004164Y011479D01*
X004155Y011381D02*
X004092Y011381D01*
X003865Y011184D02*
X003704Y011184D01*
X003740Y011085D02*
X003963Y011085D01*
X003985Y010987D02*
X003740Y010987D01*
X003734Y010888D02*
X003985Y010888D01*
X003985Y010790D02*
X003693Y010790D01*
X003781Y010691D02*
X003985Y010691D01*
X003985Y010593D02*
X003880Y010593D01*
X003978Y010494D02*
X003985Y010494D01*
X003735Y010297D02*
X003642Y010297D01*
X003653Y010396D02*
X003544Y010396D01*
X003554Y010494D02*
X002460Y010494D01*
X002460Y010396D02*
X002977Y010396D01*
X002879Y010297D02*
X002460Y010297D01*
X002460Y010199D02*
X002823Y010199D01*
X002782Y010100D02*
X002460Y010100D01*
X002460Y010002D02*
X002780Y010002D01*
X002781Y009903D02*
X002460Y009903D01*
X002460Y009805D02*
X002822Y009805D01*
X002876Y009706D02*
X002460Y009706D01*
X002460Y009608D02*
X002974Y009608D01*
X002997Y009411D02*
X002460Y009411D01*
X002460Y009509D02*
X003735Y009509D01*
X003735Y009411D02*
X003524Y009411D01*
X003627Y009312D02*
X003735Y009312D01*
X003735Y009214D02*
X003691Y009214D01*
X003732Y009115D02*
X003735Y009115D01*
X003735Y008820D02*
X003705Y008820D01*
X003660Y008721D02*
X003827Y008721D01*
X003926Y008623D02*
X003562Y008623D01*
X003487Y008426D02*
X004123Y008426D01*
X004024Y008524D02*
X003366Y008524D01*
X003155Y008524D02*
X002460Y008524D01*
X002460Y008426D02*
X003033Y008426D01*
X002909Y008327D02*
X002460Y008327D01*
X002460Y008229D02*
X002835Y008229D01*
X002795Y008130D02*
X002460Y008130D01*
X002460Y008032D02*
X002780Y008032D01*
X002780Y007933D02*
X002460Y007933D01*
X002460Y007835D02*
X002809Y007835D01*
X002850Y007736D02*
X002460Y007736D01*
X002460Y007638D02*
X002944Y007638D01*
X003402Y007539D02*
X003896Y007539D01*
X003843Y007638D02*
X003577Y007638D01*
X003671Y007736D02*
X003843Y007736D01*
X003895Y007835D02*
X003711Y007835D01*
X003740Y007933D02*
X004093Y007933D01*
X004093Y008032D02*
X003740Y008032D01*
X003726Y008130D02*
X004190Y008130D01*
X004343Y008229D02*
X003685Y008229D01*
X003612Y008327D02*
X004221Y008327D01*
X004367Y008918D02*
X009575Y008918D01*
X009572Y008820D02*
X006590Y008820D01*
X006689Y008721D02*
X007156Y008721D01*
X007058Y008623D02*
X006787Y008623D01*
X006886Y008524D02*
X007030Y008524D01*
X007030Y008426D02*
X006984Y008426D01*
X007083Y008327D02*
X007108Y008327D01*
X007365Y008721D02*
X009575Y008721D01*
X009575Y008623D02*
X007463Y008623D01*
X007490Y008524D02*
X009575Y008524D01*
X009575Y008426D02*
X007490Y008426D01*
X007413Y008327D02*
X009575Y008327D01*
X009575Y008229D02*
X009545Y008229D01*
X009226Y008229D02*
X009045Y008229D01*
X009143Y008130D02*
X009155Y008130D01*
X008851Y008229D02*
X007410Y008229D01*
X006492Y007244D02*
X006271Y007244D01*
X006271Y007342D02*
X006394Y007342D01*
X006295Y007441D02*
X006271Y007441D01*
X006271Y006850D02*
X006886Y006850D01*
X006985Y006751D02*
X006271Y006751D01*
X006271Y006653D02*
X007083Y006653D01*
X007182Y006554D02*
X006271Y006554D01*
X006271Y006456D02*
X007235Y006456D01*
X007235Y006357D02*
X006271Y006357D01*
X006215Y006259D02*
X007235Y006259D01*
X007235Y006160D02*
X003714Y006160D01*
X003740Y006062D02*
X007235Y006062D01*
X007235Y005963D02*
X003740Y005963D01*
X003724Y005865D02*
X007235Y005865D01*
X007235Y005766D02*
X003683Y005766D01*
X003607Y005668D02*
X005500Y005668D01*
X005500Y005569D02*
X003474Y005569D01*
X003379Y005471D02*
X005500Y005471D01*
X006271Y005471D02*
X007235Y005471D01*
X007235Y005569D02*
X006271Y005569D01*
X006271Y005668D02*
X007235Y005668D01*
X007239Y005372D02*
X006271Y005372D01*
X006271Y005274D02*
X007337Y005274D01*
X007436Y005175D02*
X006271Y005175D01*
X006271Y005077D02*
X007534Y005077D01*
X007633Y004978D02*
X006271Y004978D01*
X006271Y004880D02*
X011681Y004880D01*
X009803Y006653D02*
X013973Y006653D01*
X014241Y006653D02*
X014279Y006653D01*
X014279Y006554D02*
X014241Y006554D01*
X014241Y006850D02*
X014279Y006850D01*
X014279Y006948D02*
X014241Y006948D01*
X013197Y007539D02*
X009982Y007539D01*
X010045Y007638D02*
X013098Y007638D01*
X013000Y007736D02*
X010045Y007736D01*
X010233Y007835D02*
X012901Y007835D01*
X014548Y005274D02*
X017347Y005274D01*
X017335Y005175D02*
X014548Y005175D01*
X014548Y005077D02*
X017335Y005077D01*
X014663Y004978D02*
X014497Y004978D01*
X009939Y009312D02*
X004285Y009312D01*
X004285Y009214D02*
X009821Y009214D01*
X009693Y009115D02*
X004285Y009115D01*
X004285Y009017D02*
X009585Y009017D01*
X010058Y009411D02*
X004285Y009411D01*
X004285Y009509D02*
X010177Y009509D01*
X010106Y010396D02*
X010778Y010396D01*
X010679Y010494D02*
X010205Y010494D01*
X010240Y010593D02*
X010581Y010593D01*
X010482Y010691D02*
X010240Y010691D01*
X010171Y010790D02*
X010384Y010790D01*
X010298Y010888D02*
X009959Y010888D01*
X009861Y010987D02*
X010298Y010987D01*
X010298Y011085D02*
X009762Y011085D01*
X009664Y011184D02*
X010298Y011184D01*
X010298Y011282D02*
X009565Y011282D01*
X009544Y011381D02*
X010298Y011381D01*
X010298Y011479D02*
X009712Y011479D01*
X009722Y011485D02*
X009742Y011505D01*
X009757Y011530D01*
X009764Y011558D01*
X009764Y011731D01*
X009535Y011731D01*
X009535Y011463D01*
X009669Y011463D01*
X009697Y011470D01*
X009722Y011485D01*
X009764Y011578D02*
X010298Y011578D01*
X010247Y011676D02*
X009764Y011676D01*
X009764Y011769D02*
X009764Y011942D01*
X009757Y011970D01*
X009742Y011995D01*
X009722Y012015D01*
X009697Y012030D01*
X009669Y012037D01*
X009535Y012037D01*
X009535Y011769D01*
X009497Y011769D01*
X009497Y011731D01*
X009268Y011731D01*
X009268Y011558D01*
X009276Y011530D01*
X009290Y011505D01*
X009311Y011485D01*
X009336Y011470D01*
X009364Y011463D01*
X009497Y011463D01*
X009497Y011731D01*
X009535Y011731D01*
X009535Y011769D01*
X009764Y011769D01*
X009764Y011775D02*
X010036Y011775D01*
X009968Y011873D02*
X009764Y011873D01*
X009755Y011972D02*
X009968Y011972D01*
X010005Y012070D02*
X009494Y012070D01*
X009497Y012037D02*
X009364Y012037D01*
X009336Y012030D01*
X009311Y012015D01*
X009290Y011995D01*
X009276Y011970D01*
X009268Y011942D01*
X009268Y011769D01*
X009497Y011769D01*
X009497Y012037D01*
X009497Y011972D02*
X009535Y011972D01*
X009535Y011873D02*
X009497Y011873D01*
X009497Y011775D02*
X009535Y011775D01*
X009535Y011676D02*
X009497Y011676D01*
X009497Y011578D02*
X009535Y011578D01*
X009535Y011479D02*
X009497Y011479D01*
X009321Y011479D02*
X009204Y011479D01*
X009252Y011578D02*
X009268Y011578D01*
X009268Y011676D02*
X009252Y011676D01*
X009252Y011775D02*
X009268Y011775D01*
X009268Y011873D02*
X009252Y011873D01*
X009252Y011972D02*
X009277Y011972D01*
X009548Y012169D02*
X016079Y012169D01*
X015818Y012070D02*
X010391Y012070D01*
X010428Y011972D02*
X015780Y011972D01*
X015780Y011873D02*
X010474Y011873D01*
X010573Y011775D02*
X014335Y011775D01*
X014561Y011775D02*
X015147Y011775D01*
X015049Y011676D02*
X014660Y011676D01*
X014678Y011578D02*
X015030Y011578D01*
X014983Y011479D02*
X014857Y011479D01*
X015121Y011184D02*
X016257Y011184D01*
X016257Y011282D02*
X015210Y011282D01*
X015404Y011381D02*
X016257Y011381D01*
X016257Y011479D02*
X015490Y011479D01*
X015490Y011578D02*
X016299Y011578D01*
X016334Y011676D02*
X015472Y011676D01*
X015374Y011775D02*
X015848Y011775D01*
X016261Y011085D02*
X015032Y011085D01*
X014944Y010987D02*
X016334Y010987D01*
X016334Y010888D02*
X015840Y010888D01*
X015924Y010790D02*
X016334Y010790D01*
X016334Y010691D02*
X016008Y010691D01*
X016093Y010593D02*
X016334Y010593D01*
X016334Y010494D02*
X016279Y010494D01*
X015186Y010888D02*
X014855Y010888D01*
X013929Y010494D02*
X011103Y010494D01*
X011005Y010593D02*
X013831Y010593D01*
X013798Y010691D02*
X010906Y010691D01*
X010876Y010297D02*
X004285Y010297D01*
X004285Y010199D02*
X005101Y010199D01*
X004976Y010100D02*
X004285Y010100D01*
X004285Y010002D02*
X004923Y010002D01*
X004900Y009903D02*
X004285Y009903D01*
X004285Y009805D02*
X004900Y009805D01*
X004941Y009706D02*
X004285Y009706D01*
X004285Y009608D02*
X005019Y009608D01*
X004285Y010396D02*
X009915Y010396D01*
X009816Y010494D02*
X009543Y010494D01*
X009548Y010593D02*
X009780Y010593D01*
X009732Y010691D02*
X009548Y010691D01*
X009548Y010790D02*
X009634Y010790D01*
X009535Y010888D02*
X009524Y010888D01*
X008973Y011085D02*
X008928Y011085D01*
X008902Y011184D02*
X008973Y011184D01*
X008973Y011282D02*
X008868Y011282D01*
X008875Y011381D02*
X008977Y011381D01*
X008757Y011775D02*
X008610Y011775D01*
X008634Y011873D02*
X008757Y011873D01*
X008690Y011676D02*
X008512Y011676D01*
X008592Y011578D02*
X007990Y011578D01*
X007990Y011530D02*
X007990Y011720D01*
X007856Y011855D01*
X007665Y011855D01*
X007530Y011720D01*
X007530Y011530D01*
X007610Y011450D01*
X007610Y011300D01*
X007530Y011220D01*
X007530Y011030D01*
X007665Y010895D01*
X007856Y010895D01*
X007990Y011030D01*
X007990Y011220D01*
X007910Y011300D01*
X007910Y011450D01*
X007990Y011530D01*
X007940Y011479D02*
X008528Y011479D01*
X008528Y011381D02*
X007910Y011381D01*
X007929Y011282D02*
X008528Y011282D01*
X008494Y011184D02*
X007990Y011184D01*
X007990Y011085D02*
X008468Y011085D01*
X008468Y010987D02*
X007947Y010987D01*
X007574Y010987D02*
X007197Y010987D01*
X007358Y011085D02*
X007530Y011085D01*
X007530Y011184D02*
X007457Y011184D01*
X007490Y011282D02*
X007592Y011282D01*
X007610Y011381D02*
X007490Y011381D01*
X007419Y011479D02*
X007581Y011479D01*
X007530Y011578D02*
X007207Y011578D01*
X007109Y011676D02*
X007530Y011676D01*
X007585Y011775D02*
X007010Y011775D01*
X006912Y011873D02*
X008155Y011873D01*
X008157Y011972D02*
X006057Y011972D01*
X006115Y012070D02*
X008255Y012070D01*
X008529Y012169D02*
X006115Y012169D01*
X006069Y012267D02*
X008606Y012267D01*
X008593Y012366D02*
X005548Y012366D01*
X005511Y012464D02*
X008593Y012464D01*
X008685Y012563D02*
X005538Y012563D01*
X005548Y012661D02*
X008868Y012661D01*
X009239Y013154D02*
X009386Y013154D01*
X009338Y013252D02*
X009498Y013252D01*
X009536Y013351D02*
X009365Y013351D01*
X009365Y013449D02*
X009634Y013449D01*
X010598Y011676D02*
X014037Y011676D01*
X013938Y011578D02*
X010598Y011578D01*
X010598Y011479D02*
X013840Y011479D01*
X013798Y011381D02*
X010598Y011381D01*
X010598Y011282D02*
X013798Y011282D01*
X013798Y011184D02*
X012409Y011184D01*
X012495Y011085D02*
X013798Y011085D01*
X013798Y010987D02*
X012495Y010987D01*
X012481Y010888D02*
X013798Y010888D01*
X013798Y010790D02*
X012382Y010790D01*
X010612Y011184D02*
X010598Y011184D01*
X008977Y010494D02*
X004285Y010494D01*
X004285Y010593D02*
X005718Y010593D01*
X006053Y010593D02*
X008927Y010593D01*
X008829Y010691D02*
X006115Y010691D01*
X006115Y010790D02*
X008730Y010790D01*
X008547Y010888D02*
X006073Y010888D01*
X005865Y010987D02*
X006824Y010987D01*
X006780Y011085D02*
X006671Y011085D01*
X006740Y011184D02*
X006780Y011184D01*
X006766Y011282D02*
X006740Y011282D01*
X006350Y011085D02*
X005865Y011085D01*
X005405Y011479D02*
X004993Y011479D01*
X004895Y011578D02*
X005405Y011578D01*
X005486Y011676D02*
X004796Y011676D01*
X004698Y011775D02*
X005655Y011775D01*
X005683Y011873D02*
X004615Y011873D01*
X004614Y011972D02*
X005477Y011972D01*
X005519Y011972D02*
X005714Y011972D01*
X004973Y012070D02*
X004516Y012070D01*
X004958Y012366D02*
X004973Y012366D01*
X005025Y012991D02*
X005025Y012991D01*
X005025Y013055D02*
X003740Y013055D01*
X003716Y013154D02*
X004469Y013154D01*
X004405Y013252D02*
X003676Y013252D01*
X003589Y013351D02*
X004385Y013351D01*
X004287Y013449D02*
X003431Y013449D01*
X003422Y013548D02*
X004188Y013548D01*
X004090Y013646D02*
X003585Y013646D01*
X003532Y013593D02*
X003667Y013728D01*
X003740Y013905D01*
X003740Y014095D01*
X003667Y014272D01*
X003532Y014407D01*
X003356Y014480D01*
X003165Y014480D01*
X002988Y014407D01*
X002853Y014272D01*
X002780Y014095D01*
X002780Y013905D01*
X002853Y013728D01*
X002988Y013593D01*
X003165Y013520D01*
X003356Y013520D01*
X003532Y013593D01*
X003674Y013745D02*
X003991Y013745D01*
X003985Y013843D02*
X003715Y013843D01*
X003740Y013942D02*
X003985Y013942D01*
X003985Y014040D02*
X003740Y014040D01*
X003723Y014139D02*
X003985Y014139D01*
X003985Y014237D02*
X003682Y014237D01*
X003604Y014336D02*
X003985Y014336D01*
X003985Y014434D02*
X003467Y014434D01*
X003386Y014533D02*
X003965Y014533D01*
X003905Y014631D02*
X003570Y014631D01*
X003668Y014730D02*
X003905Y014730D01*
X003135Y014533D02*
X002460Y014533D01*
X002460Y014631D02*
X002950Y014631D01*
X002853Y014730D02*
X002460Y014730D01*
X002460Y014828D02*
X002812Y014828D01*
X002780Y014927D02*
X002460Y014927D01*
X002460Y015025D02*
X002780Y015025D01*
X002792Y015124D02*
X002460Y015124D01*
X002460Y015222D02*
X002833Y015222D01*
X002902Y015321D02*
X002460Y015321D01*
X002460Y015419D02*
X003018Y015419D01*
X003054Y014434D02*
X002460Y014434D01*
X002460Y014336D02*
X002917Y014336D01*
X002839Y014237D02*
X002460Y014237D01*
X002460Y014139D02*
X002798Y014139D01*
X002780Y014040D02*
X002460Y014040D01*
X002460Y013942D02*
X002780Y013942D01*
X002806Y013843D02*
X002460Y013843D01*
X002460Y013745D02*
X002847Y013745D01*
X002935Y013646D02*
X002460Y013646D01*
X002460Y013548D02*
X003098Y013548D01*
X003090Y013449D02*
X002460Y013449D01*
X002460Y013351D02*
X002932Y013351D01*
X002845Y013252D02*
X002460Y013252D01*
X002460Y013154D02*
X002804Y013154D01*
X002780Y013055D02*
X002460Y013055D01*
X002460Y012957D02*
X002780Y012957D01*
X002800Y012858D02*
X002460Y012858D01*
X002460Y012760D02*
X002840Y012760D01*
X002921Y012661D02*
X002460Y012661D01*
X002460Y012563D02*
X003062Y012563D01*
X003126Y012464D02*
X002460Y012464D01*
X002460Y012366D02*
X002947Y012366D01*
X002851Y012267D02*
X002460Y012267D01*
X002460Y012169D02*
X002811Y012169D01*
X002780Y012070D02*
X002460Y012070D01*
X002460Y011972D02*
X002780Y011972D01*
X002793Y011873D02*
X002460Y011873D01*
X002460Y011775D02*
X002834Y011775D01*
X002906Y011676D02*
X002460Y011676D01*
X002460Y011578D02*
X003026Y011578D01*
X003163Y011479D02*
X002460Y011479D01*
X002460Y011381D02*
X002962Y011381D01*
X002864Y011282D02*
X002460Y011282D01*
X002460Y011184D02*
X002817Y011184D01*
X002780Y011085D02*
X002460Y011085D01*
X002460Y010987D02*
X002780Y010987D01*
X002787Y010888D02*
X002460Y010888D01*
X002460Y010790D02*
X002828Y010790D01*
X002891Y010691D02*
X002460Y010691D01*
X002460Y010593D02*
X002990Y010593D01*
X003698Y010199D02*
X003735Y010199D01*
X003735Y009805D02*
X003699Y009805D01*
X003735Y009706D02*
X003645Y009706D01*
X003735Y009608D02*
X003547Y009608D01*
X002894Y009312D02*
X002460Y009312D01*
X002460Y009214D02*
X002829Y009214D01*
X002788Y009115D02*
X002460Y009115D01*
X002460Y009017D02*
X002780Y009017D01*
X002780Y008918D02*
X002460Y008918D01*
X002460Y008820D02*
X002816Y008820D01*
X002861Y008721D02*
X002460Y008721D01*
X002460Y008623D02*
X002959Y008623D01*
X003582Y006357D02*
X005500Y006357D01*
X005556Y006259D02*
X003673Y006259D01*
X005835Y006259D02*
X005935Y006259D01*
X005935Y006357D02*
X005835Y006357D01*
X005835Y006456D02*
X005935Y006456D01*
X005935Y006554D02*
X005835Y006554D01*
X005835Y006653D02*
X005935Y006653D01*
X005935Y006751D02*
X005835Y006751D01*
X004612Y003796D02*
X002460Y003796D01*
X002460Y003698D02*
X004484Y003698D01*
X004421Y003599D02*
X002460Y003599D01*
X002460Y003501D02*
X004385Y003501D01*
X004385Y003402D02*
X002460Y003402D01*
X002460Y003304D02*
X004385Y003304D01*
X004385Y003205D02*
X002460Y003205D01*
X002460Y003107D02*
X004385Y003107D01*
X004385Y003008D02*
X002460Y003008D01*
X002460Y002910D02*
X004385Y002910D01*
X004385Y002811D02*
X002460Y002811D01*
X002460Y002713D02*
X004405Y002713D01*
X004446Y002614D02*
X002460Y002614D01*
X002460Y002516D02*
X004542Y002516D01*
X004609Y002023D02*
X002460Y002023D01*
X002460Y001925D02*
X004482Y001925D01*
X004421Y001826D02*
X002460Y001826D01*
X002460Y001728D02*
X004391Y001728D01*
X004385Y001629D02*
X002460Y001629D01*
X002460Y001531D02*
X004385Y001531D01*
X004385Y001432D02*
X002460Y001432D01*
X003657Y011282D02*
X003766Y011282D01*
X003668Y011381D02*
X003559Y011381D01*
X003569Y011479D02*
X003358Y011479D01*
X007936Y011775D02*
X008161Y011775D01*
X008259Y011676D02*
X007990Y011676D01*
X008060Y015518D02*
X008525Y015518D01*
X008525Y015616D02*
X008159Y015616D01*
X008195Y015715D02*
X008525Y015715D01*
X008525Y015813D02*
X008195Y015813D01*
X008131Y015912D02*
X008525Y015912D01*
X008468Y016010D02*
X007728Y016010D01*
X007745Y016109D02*
X008369Y016109D01*
X008271Y016207D02*
X007745Y016207D01*
X008640Y016503D02*
X009008Y016503D01*
X009016Y016306D02*
X008837Y016306D01*
X008739Y016404D02*
X014375Y016404D01*
X014375Y016503D02*
X009263Y016503D01*
X009362Y016601D02*
X014429Y016601D01*
X014422Y016306D02*
X009255Y016306D01*
X009365Y016700D02*
X013728Y016700D01*
X013630Y016798D02*
X009363Y016798D01*
X009264Y016897D02*
X013625Y016897D01*
X013625Y016995D02*
X008995Y016995D01*
X008995Y016897D02*
X009007Y016897D01*
X008949Y017094D02*
X010362Y017094D01*
X010326Y017192D02*
X009067Y017192D01*
X009144Y017291D02*
X010326Y017291D01*
X010326Y017389D02*
X009185Y017389D01*
X009155Y017685D02*
X010326Y017685D01*
X010326Y017783D02*
X009092Y017783D01*
X008975Y017882D02*
X010337Y017882D01*
X011195Y017389D02*
X011336Y017389D01*
X011376Y017291D02*
X011195Y017291D01*
X011195Y017192D02*
X011453Y017192D01*
X011605Y017094D02*
X011159Y017094D01*
X011915Y017094D02*
X012605Y017094D01*
X012453Y017192D02*
X012067Y017192D01*
X012144Y017291D02*
X012376Y017291D01*
X012336Y017389D02*
X012185Y017389D01*
X012195Y017488D02*
X012326Y017488D01*
X012326Y017586D02*
X012392Y017746D01*
X012514Y017869D01*
X012620Y017913D01*
X011901Y017913D01*
X012007Y017869D01*
X012129Y017746D01*
X012195Y017586D01*
X012155Y017685D02*
X012366Y017685D01*
X012428Y017783D02*
X012092Y017783D01*
X011975Y017882D02*
X012545Y017882D01*
X012901Y017913D02*
X013620Y017913D01*
X013514Y017869D01*
X013392Y017746D01*
X013326Y017586D01*
X013326Y017488D02*
X013195Y017488D01*
X013195Y017586D02*
X013129Y017746D01*
X013007Y017869D01*
X012901Y017913D01*
X012975Y017882D02*
X013545Y017882D01*
X013428Y017783D02*
X013092Y017783D01*
X013155Y017685D02*
X013366Y017685D01*
X013336Y017389D02*
X013185Y017389D01*
X013144Y017291D02*
X013376Y017291D01*
X013453Y017192D02*
X013067Y017192D01*
X012915Y017094D02*
X013605Y017094D01*
X013530Y018276D02*
X005910Y018276D01*
X005910Y018374D02*
X013530Y018374D01*
X013595Y018473D02*
X005910Y018473D01*
X005910Y018571D02*
X013610Y018571D01*
X013610Y018670D02*
X005910Y018670D01*
X005910Y018768D02*
X013610Y018768D01*
X013569Y018867D02*
X005952Y018867D01*
X005990Y018965D02*
X013530Y018965D01*
X013530Y019064D02*
X005990Y019064D01*
X005924Y019162D02*
X013597Y019162D01*
X013924Y019162D02*
X022060Y019162D01*
X022060Y019064D02*
X013990Y019064D01*
X013990Y018965D02*
X022060Y018965D01*
X022060Y018867D02*
X013952Y018867D01*
X013910Y018768D02*
X022060Y018768D01*
X022060Y018670D02*
X013910Y018670D01*
X013910Y018571D02*
X022060Y018571D01*
X022060Y018473D02*
X013926Y018473D01*
X012526Y015616D02*
X017194Y015616D01*
X017150Y015518D02*
X012428Y015518D01*
X012329Y015419D02*
X017150Y015419D01*
X017150Y015321D02*
X012231Y015321D01*
X012132Y015222D02*
X017150Y015222D01*
X017150Y015124D02*
X012098Y015124D01*
X012098Y015025D02*
X017150Y015025D01*
X017150Y014927D02*
X012098Y014927D01*
X012098Y014828D02*
X017150Y014828D01*
X017150Y014730D02*
X012098Y014730D01*
X012098Y014631D02*
X017150Y014631D01*
X017150Y014533D02*
X012098Y014533D01*
X017741Y010888D02*
X017779Y010888D01*
X017779Y010790D02*
X017741Y010790D01*
X018044Y010100D02*
X018711Y010100D01*
X018527Y011184D02*
X019317Y011184D01*
X017995Y016503D02*
X022060Y016503D01*
X022060Y016601D02*
X017942Y016601D01*
X022060Y019261D02*
X004980Y019261D01*
X005030Y019162D02*
X005597Y019162D01*
X005530Y019064D02*
X005081Y019064D01*
X005131Y018965D02*
X005530Y018965D01*
X005569Y018867D02*
X005152Y018867D01*
X005139Y018948D02*
X005139Y018948D01*
X005168Y018768D02*
X005610Y018768D01*
X005610Y018670D02*
X005184Y018670D01*
X005199Y018571D02*
X005610Y018571D01*
X005610Y018473D02*
X005206Y018473D01*
X005190Y018374D02*
X005610Y018374D01*
X005610Y018276D02*
X005175Y018276D01*
X005159Y018177D02*
X005288Y018177D01*
X005189Y018079D02*
X005144Y018079D01*
X005139Y018052D02*
X005139Y018052D01*
X004927Y019359D02*
X022060Y019359D01*
X022060Y019458D02*
X004828Y019458D01*
X004730Y019556D02*
X022060Y019556D01*
X022060Y019655D02*
X004631Y019655D01*
X004456Y019753D02*
X022060Y019753D01*
D20*
X019760Y018063D03*
X018760Y016900D03*
X017760Y016450D03*
X017385Y015475D03*
X016760Y014125D03*
X016135Y014125D03*
X016635Y013250D03*
X017385Y013750D03*
X016198Y012375D03*
X016010Y011938D03*
X015948Y011250D03*
X015260Y011563D03*
X014698Y011313D03*
X014448Y011563D03*
X014573Y010938D03*
X015510Y010313D03*
X015823Y010313D03*
X016135Y010313D03*
X016635Y010313D03*
X017073Y010813D03*
X017448Y010563D03*
X018073Y010563D03*
X018385Y011000D03*
X019010Y011500D03*
X018885Y012500D03*
X017385Y011750D03*
X016885Y011875D03*
X015010Y012750D03*
X014510Y012750D03*
X014510Y013250D03*
X015010Y013250D03*
X013010Y013250D03*
X012760Y012563D03*
X013010Y011750D03*
X013010Y011250D03*
X012260Y011000D03*
X010760Y011000D03*
X010510Y010375D03*
X010010Y010625D03*
X009760Y010375D03*
X008698Y011063D03*
X008385Y011375D03*
X008385Y011875D03*
X008823Y012375D03*
X009760Y013250D03*
X009135Y013375D03*
X008760Y014100D03*
X008198Y014188D03*
X007510Y013250D03*
X007010Y013250D03*
X007010Y012750D03*
X007510Y012750D03*
X007760Y011625D03*
X007260Y011313D03*
X007010Y011125D03*
X007385Y010750D03*
X007760Y011125D03*
X006510Y011250D03*
X005885Y010750D03*
X005635Y011000D03*
X005635Y011500D03*
X005885Y011750D03*
X005885Y012125D03*
X004760Y012500D03*
X004385Y011875D03*
X004385Y011375D03*
X004385Y010875D03*
X004510Y009875D03*
X004510Y009188D03*
X004573Y008188D03*
X004323Y007938D03*
X004073Y007688D03*
X007260Y008500D03*
X008198Y007250D03*
X008948Y008000D03*
X009385Y008063D03*
X009810Y007700D03*
X010135Y008063D03*
X010860Y009090D03*
X011910Y009430D03*
X013610Y007750D03*
X013760Y007188D03*
X015010Y007750D03*
X015823Y008500D03*
X016135Y008750D03*
X015510Y009000D03*
X015510Y009313D03*
X015135Y009875D03*
X017760Y009875D03*
X018385Y008750D03*
X018635Y008500D03*
X016635Y006063D03*
X014760Y004750D03*
X013448Y004500D03*
X013010Y003875D03*
X011823Y005063D03*
X011510Y005313D03*
X011260Y005563D03*
X012260Y005500D03*
X012885Y005750D03*
X012010Y006750D03*
X011510Y006750D03*
X011510Y007250D03*
X012010Y007250D03*
X009573Y006563D03*
X007573Y003875D03*
X008385Y009875D03*
X010198Y011938D03*
X013135Y014125D03*
X013010Y015438D03*
X013860Y016900D03*
X014610Y016450D03*
X013760Y018313D03*
X013760Y019000D03*
X009135Y016700D03*
X008760Y016950D03*
X009135Y016100D03*
X007960Y015750D03*
X007510Y016125D03*
X007010Y015750D03*
X006760Y016450D03*
X005760Y016125D03*
X005010Y016063D03*
X005010Y016950D03*
X004198Y017000D03*
X002760Y016875D03*
X004135Y014688D03*
X005260Y014125D03*
X004635Y013313D03*
X002635Y012500D03*
X005760Y019000D03*
X021260Y014500D03*
X021260Y012000D03*
X018635Y003875D03*
X018385Y003625D03*
D21*
X006954Y003625D01*
X006698Y003369D01*
X006465Y003136D01*
X006459Y003136D01*
X006323Y003000D01*
X004948Y003000D01*
X004790Y003136D01*
X007385Y005438D02*
X007385Y006563D01*
X006260Y007688D01*
X004073Y007688D01*
X004323Y007938D02*
X006323Y007938D01*
X007573Y006688D01*
X007573Y005563D01*
X007823Y005313D01*
X011510Y005313D01*
X011260Y005563D02*
X007885Y005563D01*
X007760Y005688D01*
X007760Y006813D01*
X006385Y008188D01*
X004573Y008188D01*
X004323Y008438D02*
X006448Y008438D01*
X007073Y007813D01*
X008760Y007813D01*
X008823Y007750D01*
X009073Y007750D01*
X009385Y008063D01*
X008948Y008000D02*
X007260Y008000D01*
X007260Y008500D01*
X007260Y008000D02*
X007198Y008000D01*
X006510Y008688D01*
X004385Y008688D01*
X004135Y008938D01*
X004135Y011125D01*
X003260Y012000D01*
X003260Y011000D02*
X003885Y010375D01*
X003885Y008875D01*
X004323Y008438D01*
X004510Y010750D02*
X004385Y010875D01*
X004510Y010750D02*
X005885Y010750D01*
X005635Y011000D02*
X004760Y011000D01*
X004385Y011375D01*
X004385Y011875D02*
X005010Y011250D01*
X006510Y011250D01*
X006760Y011500D02*
X007010Y011250D01*
X007010Y011125D01*
X007260Y011313D02*
X006823Y011750D01*
X005885Y011750D01*
X005635Y011500D02*
X006760Y011500D01*
X007760Y011625D02*
X007760Y011125D01*
X008385Y011875D02*
X008629Y012057D01*
X009073Y012063D01*
X009254Y012244D01*
X009260Y012307D01*
X010198Y011938D02*
X010448Y011688D01*
X010448Y010938D01*
X011073Y010313D01*
X015510Y010313D01*
X015573Y010563D02*
X015385Y010563D01*
X015323Y010500D01*
X014135Y010500D01*
X013948Y010688D01*
X013948Y011375D01*
X014135Y011563D01*
X014448Y011563D01*
X014323Y011313D02*
X014198Y011188D01*
X014198Y010813D01*
X014323Y010688D01*
X015198Y010688D01*
X015260Y010750D01*
X015760Y010750D01*
X016135Y010313D01*
X015823Y010313D02*
X015573Y010563D01*
X014698Y010938D02*
X015260Y011563D01*
X014698Y011313D02*
X014323Y011313D01*
X014573Y010938D02*
X014698Y010938D01*
X016198Y012375D02*
X016323Y012375D01*
X017010Y013063D01*
X017510Y013063D01*
X019010Y011563D01*
X019010Y011500D01*
X018385Y011000D02*
X019760Y011000D01*
X019760Y010000D02*
X018823Y010000D01*
X018135Y009313D01*
X015510Y009313D01*
X015510Y009000D02*
X019760Y009000D01*
X018635Y008500D02*
X015823Y008500D01*
X016135Y008750D02*
X018385Y008750D01*
X018073Y010563D02*
X017448Y010563D01*
X017073Y010813D02*
X017073Y011443D01*
X017016Y011313D01*
X016885Y011875D02*
X017010Y012000D01*
X017448Y012000D01*
X017573Y012125D01*
X017573Y012625D01*
X017442Y012756D01*
X017260Y012818D01*
X017573Y013250D02*
X016635Y013250D01*
X017573Y013250D02*
X018323Y014000D01*
X019760Y014000D01*
X019760Y015000D02*
X018760Y016000D01*
X012698Y016000D01*
X011948Y015250D01*
X011948Y013125D01*
X012073Y013000D01*
X012760Y013000D01*
X013010Y013250D01*
X012579Y012744D02*
X012760Y012563D01*
X012579Y012744D02*
X012385Y012744D01*
X010010Y010625D02*
X009442Y011193D01*
X009260Y011193D01*
X009135Y013375D02*
X009135Y016100D01*
X009135Y016700D02*
X003835Y016700D01*
X003260Y016125D01*
X003260Y016000D01*
X004198Y017000D02*
X004573Y017000D01*
X005198Y017625D01*
X005198Y017875D01*
X005385Y018063D01*
X005760Y018063D01*
X005760Y019000D01*
X005760Y018063D02*
X019760Y018063D01*
X013760Y018313D02*
X013760Y019000D01*
X005885Y012125D02*
X005504Y012125D01*
X005260Y012244D01*
X004635Y013313D02*
X004135Y013813D01*
X004135Y014688D01*
X010135Y008063D02*
X012885Y008063D01*
X013760Y007188D01*
X014260Y006244D02*
X014260Y006125D01*
X013635Y005500D01*
X012260Y005500D01*
X011823Y005063D02*
X007760Y005063D01*
X007385Y005438D01*
X008760Y006744D02*
X009391Y006744D01*
X009573Y006563D01*
X014260Y004744D02*
X014754Y004744D01*
X014760Y004750D01*
D22*
X005260Y009875D03*
D23*
X008385Y009875D01*
X015135Y009875D01*
X017760Y009875D01*
X005885Y005063D02*
X004698Y005063D01*
X003315Y005055D01*
X005885Y005055D02*
X005885Y005063D01*
D24*
X008198Y007250D02*
X008754Y007250D01*
X008760Y007256D01*
X009810Y007700D02*
X009810Y008900D01*
X010450Y009430D01*
X011910Y009430D01*
X010860Y009090D02*
X013220Y009090D01*
X013610Y008900D01*
X013610Y007750D01*
X012260Y011000D02*
X010760Y011000D01*
X012385Y013256D02*
X012385Y013375D01*
X013135Y014125D01*
X016135Y014125D01*
X017385Y013750D02*
X017385Y015475D01*
X017760Y016450D02*
X014610Y016450D01*
X013860Y016900D02*
X018760Y016900D01*
X008760Y016950D02*
X005010Y016950D01*
X005760Y016125D02*
X007510Y016125D01*
X007960Y015750D02*
X007010Y015750D01*
X006760Y016450D02*
X008360Y016450D01*
X008760Y016050D01*
X008760Y014100D01*
X008198Y014188D02*
X008135Y014125D01*
X005260Y014125D01*
X005260Y012756D01*
X005016Y012756D01*
X004760Y012500D01*
X003315Y005055D02*
X003260Y005000D01*
D25*
X006698Y003881D02*
X007573Y003881D01*
X007573Y003875D01*
X013010Y003875D01*
X018635Y003875D01*
X017760Y006051D02*
X016635Y006063D01*
X017760Y006051D02*
X019709Y006051D01*
X019760Y006000D01*
X016635Y010313D02*
X016504Y010443D01*
X016504Y011313D01*
X016504Y011932D01*
X016499Y011938D01*
X016010Y011938D01*
X016504Y011932D02*
X016823Y012250D01*
X017254Y012250D01*
X017260Y012307D01*
X017385Y011750D02*
X017516Y011750D01*
X017760Y011506D01*
X013317Y005750D02*
X012885Y005750D01*
X013317Y005750D02*
X013323Y005744D01*
X013760Y005250D02*
X014254Y005250D01*
X014260Y005256D01*
X013760Y005250D02*
X013448Y004938D01*
X013448Y004500D01*
X009260Y010682D02*
X009079Y010682D01*
X008698Y011063D01*
X008698Y011443D01*
X009004Y011750D01*
X008823Y012375D02*
X009204Y012756D01*
X009260Y012818D01*
X009754Y013250D01*
X009760Y013250D01*
M02*
