%
M48
M72
T01C0.0100
T02C0.0200
T03C0.0394
T04C0.0400
T05C0.0433
T06C0.0512
T07C0.1260
%
T01
X7573Y3875
X9573Y6563
X9810Y7700
X10135Y8063
X9385Y8063
X8948Y8000
X8198Y7250
X7260Y8500
X8385Y9875
X8698Y11063
X8385Y11375
X8385Y11875
X8823Y12375
X9760Y13250
X9135Y13375
X8760Y14100
X8198Y14188
X7510Y13250
X7010Y13250
X7010Y12750
X7510Y12750
X7760Y11625
X7260Y11313
X7010Y11125
X7385Y10750
X7760Y11125
X6510Y11250
X5885Y10750
X5635Y11000
X5635Y11500
X5885Y11750
X5885Y12125
X4760Y12500
X4385Y11875
X4385Y11375
X4385Y10875
X4510Y9875
X4510Y9188
X4573Y8188
X4323Y7938
X4073Y7688
X2635Y12500
X4635Y13313
X5260Y14125
X4135Y14688
X5010Y16063
X5760Y16125
X5010Y16950
X4198Y17000
X2760Y16875
X5760Y19000
X6760Y16450
X7010Y15750
X7510Y16125
X7960Y15750
X9135Y16100
X9135Y16700
X8760Y16950
X13010Y15438
X13135Y14125
X13010Y13250
X12760Y12563
X13010Y11750
X13010Y11250
X12260Y11000
X10760Y11000
X10510Y10375
X10010Y10625
X9760Y10375
X10860Y9090
X11910Y9430
X13610Y7750
X13760Y7188
X15010Y7750
X15823Y8500
X16135Y8750
X15510Y9000
X15510Y9313
X15135Y9875
X15510Y10313
X15823Y10313
X16135Y10313
X16635Y10313
X17073Y10813
X17448Y10563
X18073Y10563
X18385Y11000
X19010Y11500
X18885Y12500
X17385Y11750
X16885Y11875
X16198Y12375
X16010Y11938
X15948Y11250
X15260Y11563
X14698Y11313
X14448Y11563
X14573Y10938
X14510Y12750
X14510Y13250
X15010Y13250
X15010Y12750
X16135Y14125
X16760Y14125
X17385Y13750
X16635Y13250
X17385Y15475
X17760Y16450
X18760Y16900
X19760Y18063
X21260Y14500
X21260Y12000
X18385Y8750
X18635Y8500
X17760Y9875
X16635Y6063
X14760Y4750
X13448Y4500
X13010Y3875
X11823Y5063
X11510Y5313
X11260Y5563
X12260Y5500
X12885Y5750
X12010Y6750
X11510Y6750
X11510Y7250
X12010Y7250
X10198Y11938
X14610Y16450
X13860Y16900
X13760Y18313
X13760Y19000
X18635Y3875
X18385Y3625
T02
X5260Y9875
T03
X4790Y1364
X4790Y3136
T04
X3260Y5000
X3260Y6000
X3260Y7000
X3260Y8000
X3260Y9000
X3260Y10000
X3260Y11000
X3260Y12000
X3260Y13000
X3260Y14000
X3260Y15000
X3260Y16000
X19760Y16000
X19760Y15000
X19760Y14000
X19760Y13000
X19760Y12000
X19760Y11000
X19760Y10000
X19760Y9000
X19760Y8000
X19760Y7000
X19760Y6000
X19760Y5000
T05
X18760Y17500
X17760Y17500
X16760Y17500
X15760Y17500
X13760Y17500
X12760Y17500
X11760Y17500
X10760Y17500
X8760Y17500
X7760Y17500
X6760Y17500
X5760Y17500
T06
X5771Y3630
X5771Y870
T07
X20760Y1500
X3760Y18500
M30
