G75*
%MOIN*%
%OFA0B0*%
%FSLAX24Y24*%
%IPPOS*%
%LPD*%
%AMOC8*
5,1,8,0,0,1.08239X$1,22.5*
%
%ADD10R,0.0453X0.0118*%
%ADD11R,0.0118X0.0453*%
%ADD12C,0.0059*%
%ADD13R,0.0472X0.0472*%
%ADD14R,0.0630X0.0591*%
%ADD15R,0.0394X0.0433*%
%ADD16R,0.0157X0.0315*%
%ADD17R,0.0276X0.0354*%
%ADD18R,0.0157X0.0236*%
%ADD19R,0.0354X0.0276*%
%ADD20R,0.0236X0.0157*%
%ADD21R,0.0433X0.0394*%
%ADD22R,0.0315X0.0157*%
%ADD23C,0.0118*%
D10*
X010815Y006409D03*
X010815Y006606D03*
X010815Y006803D03*
X010815Y007000D03*
X010815Y007197D03*
X010815Y007394D03*
X010815Y007591D03*
X012705Y007591D03*
X012705Y007394D03*
X012705Y007197D03*
X012705Y007000D03*
X012705Y006803D03*
X012705Y006606D03*
X012705Y006409D03*
X013815Y012409D03*
X013815Y012606D03*
X013815Y012803D03*
X013815Y013000D03*
X013815Y013197D03*
X013815Y013394D03*
X013815Y013591D03*
X015705Y013591D03*
X015705Y013394D03*
X015705Y013197D03*
X015705Y013000D03*
X015705Y012803D03*
X015705Y012606D03*
X015705Y012409D03*
X008205Y012409D03*
X008205Y012606D03*
X008205Y012803D03*
X008205Y013000D03*
X008205Y013197D03*
X008205Y013394D03*
X008205Y013591D03*
X006315Y013591D03*
X006315Y013394D03*
X006315Y013197D03*
X006315Y013000D03*
X006315Y012803D03*
X006315Y012606D03*
X006315Y012409D03*
D11*
X006670Y012055D03*
X006867Y012055D03*
X007064Y012055D03*
X007260Y012055D03*
X007457Y012055D03*
X007654Y012055D03*
X007851Y012055D03*
X007851Y013945D03*
X007654Y013945D03*
X007457Y013945D03*
X007260Y013945D03*
X007064Y013945D03*
X006867Y013945D03*
X006670Y013945D03*
X011170Y007945D03*
X011367Y007945D03*
X011564Y007945D03*
X011760Y007945D03*
X011957Y007945D03*
X012154Y007945D03*
X012351Y007945D03*
X012351Y006055D03*
X012154Y006055D03*
X011957Y006055D03*
X011760Y006055D03*
X011564Y006055D03*
X011367Y006055D03*
X011170Y006055D03*
X014170Y012055D03*
X014367Y012055D03*
X014564Y012055D03*
X014760Y012055D03*
X014957Y012055D03*
X015154Y012055D03*
X015351Y012055D03*
X015351Y013945D03*
X015154Y013945D03*
X014957Y013945D03*
X014760Y013945D03*
X014564Y013945D03*
X014367Y013945D03*
X014170Y013945D03*
D12*
X014288Y013551D02*
X015312Y013551D01*
X015312Y012449D01*
X014209Y012449D01*
X014209Y013472D01*
X014236Y013484D01*
X014258Y013502D01*
X014276Y013525D01*
X014288Y013551D01*
X014285Y013545D02*
X015312Y013545D01*
X015312Y013488D02*
X014240Y013488D01*
X014209Y013430D02*
X015312Y013430D01*
X015312Y013373D02*
X014209Y013373D01*
X014209Y013315D02*
X015312Y013315D01*
X015312Y013258D02*
X014209Y013258D01*
X014209Y013200D02*
X015312Y013200D01*
X015312Y013142D02*
X014209Y013142D01*
X014209Y013085D02*
X015312Y013085D01*
X015312Y013027D02*
X014209Y013027D01*
X014209Y012970D02*
X015312Y012970D01*
X015312Y012912D02*
X014209Y012912D01*
X014209Y012855D02*
X015312Y012855D01*
X015312Y012797D02*
X014209Y012797D01*
X014209Y012740D02*
X015312Y012740D01*
X015312Y012682D02*
X014209Y012682D01*
X014209Y012624D02*
X015312Y012624D01*
X015312Y012567D02*
X014209Y012567D01*
X014209Y012509D02*
X015312Y012509D01*
X015312Y012452D02*
X014209Y012452D01*
X012312Y007551D02*
X011288Y007551D01*
X011276Y007525D01*
X011258Y007502D01*
X011236Y007484D01*
X011209Y007472D01*
X011209Y006449D01*
X012312Y006449D01*
X012312Y007551D01*
X012312Y007502D02*
X011258Y007502D01*
X011209Y007444D02*
X012312Y007444D01*
X012312Y007387D02*
X011209Y007387D01*
X011209Y007329D02*
X012312Y007329D01*
X012312Y007272D02*
X011209Y007272D01*
X011209Y007214D02*
X012312Y007214D01*
X012312Y007157D02*
X011209Y007157D01*
X011209Y007099D02*
X012312Y007099D01*
X012312Y007042D02*
X011209Y007042D01*
X011209Y006984D02*
X012312Y006984D01*
X012312Y006926D02*
X011209Y006926D01*
X011209Y006869D02*
X012312Y006869D01*
X012312Y006811D02*
X011209Y006811D01*
X011209Y006754D02*
X012312Y006754D01*
X012312Y006696D02*
X011209Y006696D01*
X011209Y006639D02*
X012312Y006639D01*
X012312Y006581D02*
X011209Y006581D01*
X011209Y006524D02*
X012312Y006524D01*
X012312Y006466D02*
X011209Y006466D01*
X007812Y012449D02*
X006709Y012449D01*
X006709Y013472D01*
X006736Y013484D01*
X006758Y013502D01*
X006776Y013525D01*
X006788Y013551D01*
X007812Y013551D01*
X007812Y012449D01*
X007812Y012452D02*
X006709Y012452D01*
X006709Y012509D02*
X007812Y012509D01*
X007812Y012567D02*
X006709Y012567D01*
X006709Y012624D02*
X007812Y012624D01*
X007812Y012682D02*
X006709Y012682D01*
X006709Y012740D02*
X007812Y012740D01*
X007812Y012797D02*
X006709Y012797D01*
X006709Y012855D02*
X007812Y012855D01*
X007812Y012912D02*
X006709Y012912D01*
X006709Y012970D02*
X007812Y012970D01*
X007812Y013027D02*
X006709Y013027D01*
X006709Y013085D02*
X007812Y013085D01*
X007812Y013142D02*
X006709Y013142D01*
X006709Y013200D02*
X007812Y013200D01*
X007812Y013258D02*
X006709Y013258D01*
X006709Y013315D02*
X007812Y013315D01*
X007812Y013373D02*
X006709Y013373D01*
X006709Y013430D02*
X007812Y013430D01*
X007812Y013488D02*
X006740Y013488D01*
X006785Y013545D02*
X007812Y013545D01*
D13*
X009242Y011291D03*
X010029Y011291D03*
X013992Y005291D03*
X014779Y005291D03*
X016476Y011291D03*
X017263Y011291D03*
D14*
X016870Y012571D03*
X014385Y006571D03*
X009635Y012571D03*
D15*
X009095Y015500D03*
X008426Y015500D03*
X006095Y015563D03*
X005426Y015563D03*
X008926Y009500D03*
X009595Y009500D03*
X013426Y009500D03*
X014095Y009500D03*
X015926Y015500D03*
X016595Y015500D03*
D16*
X016260Y015500D03*
X013760Y009500D03*
X009260Y009500D03*
X008760Y015500D03*
X005760Y015563D03*
D17*
X005579Y014625D03*
X005067Y014625D03*
X006379Y010750D03*
X006891Y010750D03*
X007754Y010750D03*
X008266Y010750D03*
X009004Y008500D03*
X009516Y008500D03*
X011004Y004500D03*
X011516Y004500D03*
X012504Y004500D03*
X013016Y004500D03*
X014004Y008500D03*
X014516Y008500D03*
X015004Y011000D03*
X015516Y011000D03*
X014016Y011000D03*
X013504Y011000D03*
X016504Y014500D03*
X017016Y014500D03*
X013516Y014750D03*
X013004Y014750D03*
X009516Y014500D03*
X009004Y014500D03*
X008942Y019313D03*
X009454Y019313D03*
X010254Y019313D03*
X010766Y019313D03*
X015129Y019313D03*
X015641Y019313D03*
D18*
X013260Y014750D03*
X016760Y014500D03*
X013760Y011000D03*
X014260Y008500D03*
X011260Y004500D03*
X009260Y008500D03*
X006635Y010750D03*
X005323Y014625D03*
X009260Y014500D03*
D19*
X008760Y006744D03*
X008760Y007256D03*
X005260Y012244D03*
X005260Y012756D03*
X012385Y012744D03*
X012385Y013256D03*
D20*
X012385Y013000D03*
X008760Y007000D03*
X005260Y012500D03*
D21*
X014010Y015415D03*
X014010Y016085D03*
D22*
X014010Y015750D03*
D23*
X012468Y019112D02*
X012468Y019388D01*
X012744Y019388D01*
X012744Y019112D01*
X012468Y019112D01*
X012468Y019229D02*
X012744Y019229D01*
X012744Y019346D02*
X012468Y019346D01*
X011777Y019388D02*
X011777Y019112D01*
X011777Y019388D02*
X012053Y019388D01*
X012053Y019112D01*
X011777Y019112D01*
X011777Y019229D02*
X012053Y019229D01*
X012053Y019346D02*
X011777Y019346D01*
X007806Y019388D02*
X007806Y019112D01*
X007530Y019112D01*
X007530Y019388D01*
X007806Y019388D01*
X007806Y019229D02*
X007530Y019229D01*
X007530Y019346D02*
X007806Y019346D01*
X007116Y019388D02*
X007116Y019112D01*
X006840Y019112D01*
X006840Y019388D01*
X007116Y019388D01*
X007116Y019229D02*
X006840Y019229D01*
X006840Y019346D02*
X007116Y019346D01*
X016840Y019388D02*
X016840Y019112D01*
X016840Y019388D02*
X017116Y019388D01*
X017116Y019112D01*
X016840Y019112D01*
X016840Y019229D02*
X017116Y019229D01*
X017116Y019346D02*
X016840Y019346D01*
X017530Y019388D02*
X017530Y019112D01*
X017530Y019388D02*
X017806Y019388D01*
X017806Y019112D01*
X017530Y019112D01*
X017530Y019229D02*
X017806Y019229D01*
X017806Y019346D02*
X017530Y019346D01*
M02*
