G75*
%MOIN*%
%OFA0B0*%
%FSLAX24Y24*%
%IPPOS*%
%LPD*%
%AMOC8*
5,1,8,0,0,1.08239X$1,22.5*
%
%ADD10R,0.0453X0.0118*%
%ADD11R,0.0118X0.0453*%
%ADD12R,0.1240X0.1240*%
%ADD13R,0.0472X0.0472*%
%ADD14R,0.0630X0.0591*%
%ADD15R,0.0394X0.0433*%
%ADD16R,0.0276X0.0354*%
%ADD17R,0.0354X0.0276*%
%ADD18R,0.0650X0.0650*%
%ADD19C,0.0650*%
%ADD20R,0.0433X0.0394*%
%ADD21C,0.0740*%
%ADD22C,0.0118*%
%ADD23C,0.0591*%
%ADD24C,0.0768*%
%ADD25C,0.0394*%
%ADD26C,0.0100*%
%ADD27OC8,0.0240*%
%ADD28C,0.0080*%
%ADD29C,0.0660*%
%ADD30OC8,0.0340*%
%ADD31C,0.0250*%
%ADD32C,0.0120*%
D10*
X010815Y006409D03*
X010815Y006606D03*
X010815Y006803D03*
X010815Y007000D03*
X010815Y007197D03*
X010815Y007394D03*
X010815Y007591D03*
X012705Y007591D03*
X012705Y007394D03*
X012705Y007197D03*
X012705Y007000D03*
X012705Y006803D03*
X012705Y006606D03*
X012705Y006409D03*
X013815Y012409D03*
X013815Y012606D03*
X013815Y012803D03*
X013815Y013000D03*
X013815Y013197D03*
X013815Y013394D03*
X013815Y013591D03*
X015705Y013591D03*
X015705Y013394D03*
X015705Y013197D03*
X015705Y013000D03*
X015705Y012803D03*
X015705Y012606D03*
X015705Y012409D03*
X008205Y012409D03*
X008205Y012606D03*
X008205Y012803D03*
X008205Y013000D03*
X008205Y013197D03*
X008205Y013394D03*
X008205Y013591D03*
X006315Y013591D03*
X006315Y013394D03*
X006315Y013197D03*
X006315Y013000D03*
X006315Y012803D03*
X006315Y012606D03*
X006315Y012409D03*
D11*
X006670Y012055D03*
X006867Y012055D03*
X007064Y012055D03*
X007260Y012055D03*
X007457Y012055D03*
X007654Y012055D03*
X007851Y012055D03*
X007851Y013945D03*
X007654Y013945D03*
X007457Y013945D03*
X007260Y013945D03*
X007064Y013945D03*
X006867Y013945D03*
X006670Y013945D03*
X011170Y007945D03*
X011367Y007945D03*
X011564Y007945D03*
X011760Y007945D03*
X011957Y007945D03*
X012154Y007945D03*
X012351Y007945D03*
X012351Y006055D03*
X012154Y006055D03*
X011957Y006055D03*
X011760Y006055D03*
X011564Y006055D03*
X011367Y006055D03*
X011170Y006055D03*
X014170Y012055D03*
X014367Y012055D03*
X014564Y012055D03*
X014760Y012055D03*
X014957Y012055D03*
X015154Y012055D03*
X015351Y012055D03*
X015351Y013945D03*
X015154Y013945D03*
X014957Y013945D03*
X014760Y013945D03*
X014564Y013945D03*
X014367Y013945D03*
X014170Y013945D03*
D12*
X014760Y013000D03*
X011760Y007000D03*
X007260Y013000D03*
D13*
X009242Y011291D03*
X010029Y011291D03*
X013992Y005291D03*
X014779Y005291D03*
X016476Y011291D03*
X017263Y011291D03*
D14*
X016870Y012571D03*
X014385Y006571D03*
X009635Y012571D03*
D15*
X009095Y015500D03*
X008426Y015500D03*
X006095Y015563D03*
X005426Y015563D03*
X008926Y009500D03*
X009595Y009500D03*
X013426Y009500D03*
X014095Y009500D03*
X015926Y015500D03*
X016595Y015500D03*
D16*
X016504Y014500D03*
X017016Y014500D03*
X013516Y014750D03*
X013004Y014750D03*
X009516Y014500D03*
X009004Y014500D03*
X005579Y014625D03*
X005067Y014625D03*
X006379Y010750D03*
X006891Y010750D03*
X007754Y010750D03*
X008266Y010750D03*
X009004Y008500D03*
X009516Y008500D03*
X011004Y004500D03*
X011516Y004500D03*
X012504Y004500D03*
X013016Y004500D03*
X014004Y008500D03*
X014516Y008500D03*
X015004Y011000D03*
X015516Y011000D03*
X014016Y011000D03*
X013504Y011000D03*
X015129Y019313D03*
X015641Y019313D03*
X010766Y019313D03*
X010254Y019313D03*
X009454Y019313D03*
X008942Y019313D03*
D17*
X012385Y013256D03*
X012385Y012744D03*
X008760Y007256D03*
X008760Y006744D03*
X005260Y012244D03*
X005260Y012756D03*
D18*
X005760Y017500D03*
X010760Y017500D03*
X015760Y017500D03*
D19*
X016760Y017500D03*
X017760Y017500D03*
X018760Y017500D03*
X013760Y017500D03*
X012760Y017500D03*
X011760Y017500D03*
X008760Y017500D03*
X007760Y017500D03*
X006760Y017500D03*
D20*
X014010Y016085D03*
X014010Y015415D03*
D21*
X019760Y015000D03*
X019760Y014000D03*
X019760Y013000D03*
X019760Y012000D03*
X019760Y011000D03*
X019760Y010000D03*
X019760Y009000D03*
X019760Y008000D03*
X019760Y007000D03*
X019760Y006000D03*
X019760Y005000D03*
X019760Y016000D03*
X003260Y016000D03*
X003260Y015000D03*
X003260Y014000D03*
X003260Y013000D03*
X003260Y012000D03*
X003260Y011000D03*
X003260Y010000D03*
X003260Y009000D03*
X003260Y008000D03*
X003260Y007000D03*
X003260Y006000D03*
X003260Y005000D03*
D22*
X007116Y019112D02*
X007116Y019388D01*
X007116Y019112D02*
X006840Y019112D01*
X006840Y019388D01*
X007116Y019388D01*
X007116Y019229D02*
X006840Y019229D01*
X006840Y019346D02*
X007116Y019346D01*
X007806Y019388D02*
X007806Y019112D01*
X007530Y019112D01*
X007530Y019388D01*
X007806Y019388D01*
X007806Y019229D02*
X007530Y019229D01*
X007530Y019346D02*
X007806Y019346D01*
X011777Y019388D02*
X011777Y019112D01*
X011777Y019388D02*
X012053Y019388D01*
X012053Y019112D01*
X011777Y019112D01*
X011777Y019229D02*
X012053Y019229D01*
X012053Y019346D02*
X011777Y019346D01*
X012468Y019388D02*
X012468Y019112D01*
X012468Y019388D02*
X012744Y019388D01*
X012744Y019112D01*
X012468Y019112D01*
X012468Y019229D02*
X012744Y019229D01*
X012744Y019346D02*
X012468Y019346D01*
X016840Y019388D02*
X016840Y019112D01*
X016840Y019388D02*
X017116Y019388D01*
X017116Y019112D01*
X016840Y019112D01*
X016840Y019229D02*
X017116Y019229D01*
X017116Y019346D02*
X016840Y019346D01*
X017530Y019388D02*
X017530Y019112D01*
X017530Y019388D02*
X017806Y019388D01*
X017806Y019112D01*
X017530Y019112D01*
X017530Y019229D02*
X017806Y019229D01*
X017806Y019346D02*
X017530Y019346D01*
D23*
X004790Y003431D02*
X004790Y002841D01*
X004790Y001659D02*
X004790Y001069D01*
D24*
X005771Y000870D03*
X005771Y003630D03*
D25*
X007760Y001250D03*
X021260Y019250D03*
D26*
X002460Y009500D02*
X002460Y000450D01*
X005509Y000450D01*
X005449Y000493D01*
X005394Y000548D01*
X005348Y000611D01*
X005313Y000681D01*
X005289Y000754D01*
X005279Y000820D01*
X005721Y000820D01*
X005721Y000920D01*
X005721Y001362D01*
X005655Y001352D01*
X005581Y001328D01*
X005512Y001292D01*
X005449Y001247D01*
X005394Y001192D01*
X005348Y001129D01*
X005313Y001060D01*
X005289Y000986D01*
X005279Y000920D01*
X005721Y000920D01*
X005821Y000920D01*
X006263Y000920D01*
X006252Y000986D01*
X006228Y001060D01*
X006193Y001129D01*
X006147Y001192D01*
X006092Y001247D01*
X006030Y001292D01*
X005960Y001328D01*
X005886Y001352D01*
X005821Y001362D01*
X005821Y000920D01*
X005821Y000820D01*
X006263Y000820D01*
X006252Y000754D01*
X006228Y000681D01*
X006193Y000611D01*
X006147Y000548D01*
X006092Y000493D01*
X006033Y000450D01*
X019785Y000450D01*
X019587Y000648D01*
X019587Y000648D01*
X019381Y001052D01*
X019381Y001052D01*
X019310Y001500D01*
X019310Y001500D01*
X019381Y001948D01*
X019381Y001948D01*
X019587Y002352D01*
X019587Y002352D01*
X019908Y002673D01*
X019908Y002673D01*
X020312Y002879D01*
X020760Y002950D01*
X021208Y002879D01*
X021208Y002879D01*
X021613Y002673D01*
X021613Y002673D01*
X021933Y002352D01*
X021933Y002352D01*
X021933Y002352D01*
X022060Y002103D01*
X022060Y009500D01*
X019160Y009500D01*
X019160Y008812D01*
X019543Y008430D01*
X019665Y008480D01*
X019856Y008480D01*
X020032Y008407D01*
X020167Y008272D01*
X020240Y008095D01*
X020240Y007905D01*
X020167Y007728D01*
X020032Y007593D01*
X019856Y007520D01*
X019665Y007520D01*
X019488Y007593D01*
X019353Y007728D01*
X019280Y007905D01*
X019280Y008095D01*
X019331Y008217D01*
X018860Y008688D01*
X018860Y009500D01*
X018785Y009500D01*
X018785Y008675D01*
X018865Y008595D01*
X018865Y008405D01*
X018731Y008270D01*
X018540Y008270D01*
X018405Y008405D01*
X018405Y008520D01*
X018290Y008520D01*
X018155Y008655D01*
X018155Y008845D01*
X018235Y008925D01*
X018235Y009500D01*
X016805Y009500D01*
X016805Y006218D01*
X016865Y006158D01*
X016865Y005967D01*
X016731Y005833D01*
X016540Y005833D01*
X016405Y005967D01*
X016405Y006158D01*
X016465Y006218D01*
X016465Y009500D01*
X016285Y009500D01*
X016285Y008925D01*
X016365Y008845D01*
X016365Y008655D01*
X016231Y008520D01*
X016053Y008520D01*
X016053Y008405D01*
X015918Y008270D01*
X015728Y008270D01*
X015598Y008400D01*
X015598Y006125D01*
X015510Y006038D01*
X015135Y005663D01*
X014011Y005663D01*
X013923Y005750D01*
X013217Y006456D01*
X013042Y006456D01*
X013042Y006313D01*
X013061Y006294D01*
X013061Y006074D01*
X013063Y006072D01*
X013061Y006004D01*
X013061Y005935D01*
X013060Y005934D01*
X013059Y005902D01*
X013115Y005845D01*
X013115Y005655D01*
X013056Y005596D01*
X013060Y004787D01*
X013200Y004787D01*
X013264Y004723D01*
X013264Y004670D01*
X013293Y004670D01*
X013353Y004730D01*
X013543Y004730D01*
X013678Y004595D01*
X013678Y004405D01*
X013543Y004270D01*
X013353Y004270D01*
X013293Y004330D01*
X013264Y004330D01*
X013264Y004277D01*
X013200Y004213D01*
X013180Y004213D01*
X013180Y004030D01*
X013240Y003970D01*
X013240Y003780D01*
X013106Y003645D01*
X012915Y003645D01*
X012780Y003780D01*
X012780Y003970D01*
X012840Y004030D01*
X012840Y004213D01*
X012833Y004213D01*
X012768Y004277D01*
X012768Y004501D01*
X012752Y004517D01*
X012752Y004277D01*
X012688Y004213D01*
X012321Y004213D01*
X012257Y004277D01*
X012257Y004723D01*
X012321Y004787D01*
X012354Y004787D01*
X012354Y004913D01*
X012136Y004913D01*
X012053Y004995D01*
X012053Y004967D01*
X011918Y004833D01*
X011728Y004833D01*
X011593Y004967D01*
X011593Y005083D01*
X011415Y005083D01*
X011280Y005217D01*
X011280Y005333D01*
X011165Y005333D01*
X011154Y005343D01*
X011154Y004787D01*
X011188Y004787D01*
X011252Y004723D01*
X011252Y004277D01*
X011188Y004213D01*
X010821Y004213D01*
X010757Y004277D01*
X010757Y004723D01*
X010821Y004787D01*
X010854Y004787D01*
X010854Y005952D01*
X011001Y006098D01*
X011001Y006240D01*
X010544Y006240D01*
X010479Y006305D01*
X010479Y006456D01*
X009792Y006456D01*
X009668Y006333D01*
X009478Y006333D01*
X009343Y006467D01*
X009343Y006653D01*
X009048Y006653D01*
X009048Y006561D01*
X008983Y006496D01*
X008538Y006496D01*
X008473Y006561D01*
X008473Y006927D01*
X008538Y006992D01*
X008812Y006992D01*
X008796Y007008D01*
X008538Y007008D01*
X008473Y007073D01*
X008473Y007439D01*
X008538Y007504D01*
X008983Y007504D01*
X009048Y007439D01*
X009048Y007181D01*
X009078Y007150D01*
X010479Y007150D01*
X010479Y007197D01*
X010815Y007197D01*
X010815Y007197D01*
X010479Y007197D01*
X010479Y007225D01*
X009511Y007225D01*
X008966Y007770D01*
X008853Y007770D01*
X008718Y007905D01*
X008718Y008095D01*
X008839Y008216D01*
X008824Y008220D01*
X008799Y008235D01*
X008779Y008255D01*
X008764Y008280D01*
X008757Y008308D01*
X008757Y008481D01*
X008986Y008481D01*
X008986Y008519D01*
X008757Y008519D01*
X008757Y008692D01*
X008760Y008703D01*
X008620Y008703D01*
X008620Y008278D01*
X008483Y008140D01*
X008483Y008140D01*
X008433Y008090D01*
X008433Y007153D01*
X008295Y007015D01*
X008101Y007015D01*
X007963Y007153D01*
X007963Y008285D01*
X008150Y008472D01*
X008150Y009500D01*
X007410Y009500D01*
X007410Y008675D01*
X007490Y008595D01*
X007490Y008405D01*
X007356Y008270D01*
X007165Y008270D01*
X007030Y008405D01*
X007030Y008595D01*
X007110Y008675D01*
X007110Y009500D01*
X006993Y009500D01*
X006993Y004695D01*
X007583Y004105D01*
X007668Y004105D01*
X007803Y003970D01*
X007803Y003780D01*
X007668Y003645D01*
X007478Y003645D01*
X007343Y003780D01*
X007343Y003865D01*
X006653Y004555D01*
X006653Y009500D01*
X005700Y009500D01*
X005700Y005412D01*
X005633Y005251D01*
X005510Y005127D01*
X005010Y004627D01*
X004848Y004560D01*
X003452Y004560D01*
X003356Y004520D01*
X003165Y004520D01*
X002988Y004593D01*
X002853Y004728D01*
X002780Y004905D01*
X002780Y005095D01*
X002820Y005192D01*
X002820Y005808D01*
X002780Y005905D01*
X002780Y006095D01*
X002853Y006272D01*
X002988Y006407D01*
X003165Y006480D01*
X003356Y006480D01*
X003532Y006407D01*
X003667Y006272D01*
X003740Y006095D01*
X003740Y005905D01*
X003700Y005808D01*
X003700Y005440D01*
X004578Y005440D01*
X004820Y005682D01*
X004820Y009500D01*
X003972Y009500D01*
X004635Y008837D01*
X004723Y008750D01*
X004723Y008363D01*
X004803Y008283D01*
X004803Y008092D01*
X004668Y007958D01*
X004553Y007958D01*
X004553Y007842D01*
X004418Y007708D01*
X004303Y007708D01*
X004303Y007592D01*
X004168Y007458D01*
X003978Y007458D01*
X003843Y007592D01*
X003843Y007643D01*
X003694Y007792D01*
X003667Y007728D01*
X003532Y007593D01*
X003356Y007520D01*
X003165Y007520D01*
X002988Y007593D01*
X002853Y007728D01*
X002780Y007905D01*
X002780Y008095D01*
X002853Y008272D01*
X002988Y008407D01*
X003165Y008480D01*
X003356Y008480D01*
X003532Y008407D01*
X003667Y008272D01*
X003718Y008150D01*
X003760Y008150D01*
X003992Y007917D01*
X004093Y007917D01*
X004093Y007955D01*
X003478Y008570D01*
X003356Y008520D01*
X003165Y008520D01*
X002988Y008593D01*
X002853Y008728D01*
X002780Y008905D01*
X002780Y009095D01*
X002853Y009272D01*
X002988Y009407D01*
X003165Y009480D01*
X003356Y009480D01*
X003532Y009407D01*
X003667Y009272D01*
X003740Y009095D01*
X003740Y008905D01*
X003690Y008783D01*
X004305Y008167D01*
X004343Y008167D01*
X004343Y008283D01*
X004423Y008363D01*
X004423Y008625D01*
X003548Y009500D01*
X002460Y009500D01*
X002460Y009509D02*
X003539Y009509D01*
X003478Y009570D02*
X003673Y009375D01*
X003564Y009375D01*
X003532Y009407D01*
X003356Y009480D01*
X003165Y009480D01*
X002988Y009407D01*
X002957Y009375D01*
X002460Y009375D01*
X002460Y013375D01*
X002957Y013375D01*
X002853Y013272D01*
X002780Y013095D01*
X002780Y013000D01*
X002460Y013000D01*
X002460Y017897D01*
X002587Y017648D01*
X002908Y017327D01*
X002908Y017327D01*
X003312Y017121D01*
X003312Y017121D01*
X003760Y017050D01*
X003760Y017050D01*
X003968Y017083D01*
X003968Y016905D01*
X004048Y016825D01*
X004048Y014917D01*
X004040Y014917D01*
X003905Y014783D01*
X003905Y014592D01*
X004040Y014458D01*
X004231Y014458D01*
X004365Y014592D01*
X004365Y014783D01*
X004348Y014800D01*
X004348Y016825D01*
X004428Y016905D01*
X004428Y017095D01*
X004337Y017186D01*
X004613Y017327D01*
X004933Y017648D01*
X005139Y018052D01*
X005210Y018500D01*
X005139Y018948D01*
X004933Y019352D01*
X004933Y019352D01*
X004613Y019673D01*
X004613Y019673D01*
X004364Y019800D01*
X022060Y019800D01*
X022060Y013000D01*
X020240Y013000D01*
X020240Y013095D01*
X020167Y013272D01*
X020032Y013407D01*
X019856Y013480D01*
X019665Y013480D01*
X019488Y013407D01*
X019353Y013272D01*
X019303Y013150D01*
X018261Y013150D01*
X018111Y013000D01*
X017995Y013000D01*
X017995Y014597D01*
X017495Y015097D01*
X017358Y015235D01*
X016891Y015235D01*
X016894Y015241D01*
X016902Y015269D01*
X016902Y015452D01*
X016643Y015452D01*
X016643Y015548D01*
X016547Y015548D01*
X016547Y015452D01*
X016288Y015452D01*
X016288Y015269D01*
X016296Y015241D01*
X016299Y015235D01*
X016288Y015235D01*
X016161Y015108D01*
X016161Y015173D01*
X016168Y015173D01*
X016233Y015238D01*
X016233Y015762D01*
X016168Y015827D01*
X015683Y015827D01*
X015619Y015762D01*
X015619Y015238D01*
X015642Y015214D01*
X015510Y015082D01*
X015510Y015375D01*
X015245Y015375D01*
X015245Y016028D01*
X015995Y016778D01*
X015995Y017065D01*
X016131Y017065D01*
X016195Y017130D01*
X016195Y017870D01*
X016131Y017935D01*
X015390Y017935D01*
X015326Y017870D01*
X015326Y017130D01*
X015390Y017065D01*
X015525Y017065D01*
X015525Y016972D01*
X014913Y016360D01*
X014845Y016292D01*
X014845Y016547D01*
X014708Y016685D01*
X014513Y016685D01*
X014375Y016547D01*
X014375Y015375D01*
X014337Y015375D01*
X014337Y015658D01*
X014272Y015722D01*
X013748Y015722D01*
X013684Y015658D01*
X013684Y015173D01*
X013748Y015109D01*
X013775Y015109D01*
X013775Y014653D01*
X013928Y014500D01*
X013751Y014500D01*
X013751Y014514D01*
X013764Y014527D01*
X013764Y014973D01*
X013700Y015037D01*
X013333Y015037D01*
X013268Y014973D01*
X013268Y014527D01*
X013281Y014514D01*
X013281Y014500D01*
X013225Y014500D01*
X013230Y014505D01*
X013245Y014530D01*
X013252Y014558D01*
X013252Y014731D01*
X013023Y014731D01*
X013023Y014463D01*
X013135Y014463D01*
X013135Y014360D01*
X013054Y014362D01*
X013052Y014360D01*
X013038Y014360D01*
X012900Y014222D01*
X012900Y014035D01*
X012749Y014035D01*
X012495Y014257D01*
X012495Y015203D01*
X014095Y016803D01*
X014095Y016997D01*
X013975Y017118D01*
X014007Y017131D01*
X014129Y017254D01*
X014195Y017414D01*
X014195Y017586D01*
X015326Y017586D01*
X015326Y017488D02*
X014195Y017488D01*
X014195Y017586D02*
X014129Y017746D01*
X014007Y017869D01*
X013847Y017935D01*
X013674Y017935D01*
X013514Y017869D01*
X013392Y017746D01*
X013326Y017586D01*
X013195Y017586D01*
X013129Y017746D01*
X013007Y017869D01*
X012847Y017935D01*
X012674Y017935D01*
X012514Y017869D01*
X012392Y017746D01*
X012326Y017586D01*
X012195Y017586D01*
X012129Y017746D01*
X012007Y017869D01*
X011847Y017935D01*
X011674Y017935D01*
X011514Y017869D01*
X011392Y017746D01*
X011326Y017586D01*
X011195Y017586D01*
X011195Y017488D02*
X011326Y017488D01*
X011326Y017414D02*
X011326Y017586D01*
X011366Y017685D02*
X011195Y017685D01*
X011195Y017783D02*
X011428Y017783D01*
X011545Y017882D02*
X011184Y017882D01*
X011195Y017870D02*
X011131Y017935D01*
X010390Y017935D01*
X010326Y017870D01*
X010326Y017130D01*
X010390Y017065D01*
X010525Y017065D01*
X010525Y013000D01*
X010347Y013000D01*
X010160Y013187D01*
X010160Y018063D01*
X010260Y018163D01*
X013585Y018163D01*
X013665Y018083D01*
X013856Y018083D01*
X013990Y018217D01*
X013990Y018408D01*
X013943Y018455D01*
X014753Y018455D01*
X014815Y018449D01*
X014822Y018455D01*
X014831Y018455D01*
X014875Y018499D01*
X015191Y018762D01*
X015200Y018762D01*
X015244Y018806D01*
X015292Y018846D01*
X015293Y018855D01*
X015299Y018861D01*
X015299Y018924D01*
X015305Y018986D01*
X015299Y018993D01*
X015299Y019025D01*
X015313Y019025D01*
X015377Y019090D01*
X015377Y019535D01*
X015313Y019600D01*
X014946Y019600D01*
X014882Y019535D01*
X014882Y019090D01*
X014946Y019025D01*
X014959Y019025D01*
X014959Y019011D01*
X014699Y018795D01*
X013881Y018795D01*
X013990Y018905D01*
X013990Y019095D01*
X013856Y019230D01*
X013742Y019230D01*
X013572Y019400D01*
X012912Y019400D01*
X012912Y019458D01*
X012813Y019557D01*
X012398Y019557D01*
X012299Y019458D01*
X012299Y019042D01*
X012398Y018943D01*
X012813Y018943D01*
X012912Y019042D01*
X012912Y019100D01*
X013448Y019100D01*
X013530Y019018D01*
X013530Y018905D01*
X013640Y018795D01*
X009893Y018795D01*
X009650Y019038D01*
X009702Y019090D01*
X009702Y019143D01*
X010007Y019143D01*
X010007Y019090D01*
X010071Y019025D01*
X010438Y019025D01*
X010502Y019090D01*
X010502Y019535D01*
X010438Y019600D01*
X010071Y019600D01*
X010007Y019535D01*
X010007Y019482D01*
X009702Y019482D01*
X009702Y019535D01*
X009637Y019600D01*
X009270Y019600D01*
X009206Y019535D01*
X009206Y019090D01*
X009270Y019025D01*
X009284Y019025D01*
X009284Y018924D01*
X009653Y018555D01*
X009653Y014787D01*
X009535Y014787D01*
X009535Y014519D01*
X009497Y014519D01*
X009497Y014481D01*
X009268Y014481D01*
X009268Y014308D01*
X009276Y014280D01*
X009290Y014255D01*
X009311Y014235D01*
X009336Y014220D01*
X009364Y014213D01*
X009497Y014213D01*
X009497Y014481D01*
X009535Y014481D01*
X009535Y014213D01*
X009653Y014213D01*
X009653Y013468D01*
X009530Y013345D01*
X009530Y013155D01*
X009665Y013020D01*
X009856Y013020D01*
X009879Y013044D01*
X009923Y013000D01*
X008760Y013000D01*
X008760Y013047D01*
X009019Y013047D01*
X009107Y013135D01*
X009117Y013145D01*
X009231Y013145D01*
X009365Y013280D01*
X009365Y013470D01*
X009231Y013605D01*
X009040Y013605D01*
X008905Y013470D01*
X008905Y013357D01*
X008895Y013347D01*
X008760Y013347D01*
X008760Y013790D01*
X008853Y013870D01*
X008856Y013870D01*
X008871Y013885D01*
X008987Y013985D01*
X008989Y014003D01*
X008990Y014005D01*
X008990Y014026D01*
X009002Y014179D01*
X008990Y014193D01*
X008990Y014195D01*
X008975Y014210D01*
X008973Y014213D01*
X009188Y014213D01*
X009252Y014277D01*
X009252Y014723D01*
X009188Y014787D01*
X008821Y014787D01*
X008769Y014735D01*
X008413Y014735D01*
X008178Y014500D01*
X008093Y014500D01*
X008661Y015068D01*
X008661Y015173D01*
X008668Y015173D01*
X008733Y015238D01*
X008733Y015762D01*
X008668Y015827D01*
X008195Y015827D01*
X008195Y017119D01*
X008213Y017182D01*
X008195Y017212D01*
X008195Y017247D01*
X008149Y017294D01*
X008147Y017297D01*
X008195Y017414D01*
X008195Y017586D01*
X008326Y017586D01*
X008326Y017414D01*
X008392Y017254D01*
X008514Y017131D01*
X008525Y017127D01*
X008525Y016853D01*
X008663Y016715D01*
X008858Y016715D01*
X008905Y016763D01*
X008905Y016605D01*
X008985Y016525D01*
X008985Y016275D01*
X008905Y016195D01*
X008905Y016005D01*
X009040Y015870D01*
X009231Y015870D01*
X009365Y016005D01*
X009365Y016195D01*
X009285Y016275D01*
X009285Y016525D01*
X009365Y016605D01*
X009365Y016795D01*
X009231Y016930D01*
X009040Y016930D01*
X008995Y016885D01*
X008995Y017127D01*
X009007Y017131D01*
X009129Y017254D01*
X009195Y017414D01*
X009195Y017586D01*
X009653Y017586D01*
X009653Y017488D02*
X009195Y017488D01*
X009195Y017586D02*
X009129Y017746D01*
X009007Y017869D01*
X008847Y017935D01*
X008674Y017935D01*
X008514Y017869D01*
X008392Y017746D01*
X008326Y017586D01*
X008326Y017488D02*
X008195Y017488D01*
X008195Y017586D02*
X008129Y017746D01*
X008007Y017869D01*
X007847Y017935D01*
X007674Y017935D01*
X007514Y017869D01*
X007392Y017746D01*
X007326Y017586D01*
X007195Y017586D01*
X007129Y017746D01*
X007007Y017869D01*
X006847Y017935D01*
X006674Y017935D01*
X006514Y017869D01*
X006392Y017746D01*
X006326Y017586D01*
X006195Y017586D01*
X006195Y017488D02*
X006326Y017488D01*
X006326Y017414D02*
X006326Y017586D01*
X006366Y017685D02*
X006195Y017685D01*
X006195Y017783D02*
X006428Y017783D01*
X006545Y017882D02*
X006184Y017882D01*
X006195Y017870D02*
X006131Y017935D01*
X005390Y017935D01*
X005326Y017870D01*
X005326Y017130D01*
X005390Y017065D01*
X005525Y017065D01*
X005525Y016028D01*
X005663Y015890D01*
X005858Y015890D01*
X005995Y016028D01*
X005995Y017065D01*
X006131Y017065D01*
X006195Y017130D01*
X006195Y017870D01*
X006326Y017414D02*
X006392Y017254D01*
X006514Y017131D01*
X006525Y017127D01*
X006525Y016353D01*
X006663Y016215D01*
X006858Y016215D01*
X006995Y016353D01*
X006995Y017127D01*
X007007Y017131D01*
X007129Y017254D01*
X007195Y017414D01*
X007195Y017586D01*
X007195Y017488D02*
X007326Y017488D01*
X007326Y017414D02*
X007326Y017586D01*
X007366Y017685D02*
X007155Y017685D01*
X007092Y017783D02*
X007428Y017783D01*
X007545Y017882D02*
X006975Y017882D01*
X007185Y017389D02*
X007336Y017389D01*
X007326Y017414D02*
X007392Y017254D01*
X007514Y017131D01*
X007674Y017065D01*
X007725Y017065D01*
X007725Y016242D01*
X007608Y016360D01*
X007413Y016360D01*
X007275Y016222D01*
X007275Y015375D01*
X007245Y015375D01*
X007245Y015847D01*
X007108Y015985D01*
X006913Y015985D01*
X006775Y015847D01*
X006775Y015375D01*
X006635Y015375D01*
X006635Y014957D01*
X006347Y015246D01*
X006402Y015300D01*
X006402Y015825D01*
X006337Y015889D01*
X005853Y015889D01*
X005788Y015825D01*
X005788Y015300D01*
X005853Y015236D01*
X005860Y015236D01*
X005860Y015068D01*
X006260Y014668D01*
X006260Y014551D01*
X005984Y014796D01*
X005920Y014860D01*
X005912Y014860D01*
X005906Y014865D01*
X005816Y014860D01*
X005814Y014860D01*
X005762Y014912D01*
X005395Y014912D01*
X005331Y014848D01*
X005331Y014402D01*
X005373Y014360D01*
X005272Y014360D01*
X005293Y014380D01*
X005307Y014405D01*
X005315Y014433D01*
X005315Y014606D01*
X005086Y014606D01*
X005086Y014644D01*
X005315Y014644D01*
X005315Y014817D01*
X005307Y014845D01*
X005293Y014870D01*
X005272Y014890D01*
X005247Y014905D01*
X005219Y014912D01*
X005086Y014912D01*
X005086Y014644D01*
X005048Y014644D01*
X005048Y014912D01*
X004915Y014912D01*
X004887Y014905D01*
X004862Y014890D01*
X004845Y014874D01*
X004845Y016453D01*
X005245Y016853D01*
X005245Y017047D01*
X005108Y017185D01*
X004913Y017185D01*
X004375Y016647D01*
X004375Y014097D01*
X004322Y014150D01*
X003690Y014783D01*
X003740Y014905D01*
X003740Y015095D01*
X003667Y015272D01*
X003532Y015407D01*
X003356Y015480D01*
X003165Y015480D01*
X002988Y015407D01*
X002853Y015272D01*
X002780Y015095D01*
X002780Y014905D01*
X002853Y014728D01*
X002988Y014593D01*
X003165Y014520D01*
X003356Y014520D01*
X003478Y014570D01*
X004110Y013938D01*
X004110Y013305D01*
X003683Y013766D01*
X003740Y013905D01*
X003740Y014095D01*
X003667Y014272D01*
X003532Y014407D01*
X003356Y014480D01*
X003165Y014480D01*
X002988Y014407D01*
X002853Y014272D01*
X002780Y014095D01*
X002780Y013905D01*
X002853Y013728D01*
X002988Y013593D01*
X003165Y013520D01*
X003356Y013520D01*
X003461Y013564D01*
X003923Y013066D01*
X003923Y013000D01*
X003740Y013000D01*
X003740Y013095D01*
X003667Y013272D01*
X003532Y013407D01*
X003356Y013480D01*
X003165Y013480D01*
X002988Y013407D01*
X002853Y013272D01*
X002780Y013095D01*
X002780Y012905D01*
X002853Y012728D01*
X002988Y012593D01*
X003165Y012520D01*
X003356Y012520D01*
X003437Y012554D01*
X003735Y012196D01*
X003735Y012108D01*
X003667Y012272D01*
X003532Y012407D01*
X003356Y012480D01*
X003165Y012480D01*
X002988Y012407D01*
X002853Y012272D01*
X002780Y012095D01*
X002780Y011905D01*
X002853Y011728D01*
X002988Y011593D01*
X003165Y011520D01*
X003356Y011520D01*
X003532Y011593D01*
X003667Y011728D01*
X003735Y011892D01*
X003735Y011313D01*
X004155Y010893D01*
X004155Y010780D01*
X004290Y010645D01*
X004481Y010645D01*
X004525Y010690D01*
X004525Y010278D01*
X004826Y009977D01*
X004820Y009963D01*
X004820Y009375D01*
X004097Y009375D01*
X003690Y009783D01*
X003740Y009905D01*
X003740Y010095D01*
X003667Y010272D01*
X003532Y010407D01*
X003356Y010480D01*
X003165Y010480D01*
X002988Y010407D01*
X002853Y010272D01*
X002780Y010095D01*
X002780Y009905D01*
X002853Y009728D01*
X002988Y009593D01*
X003165Y009520D01*
X003356Y009520D01*
X003478Y009570D01*
X003524Y009411D02*
X003638Y009411D01*
X003524Y009411D01*
X003627Y009312D02*
X003736Y009312D01*
X003691Y009214D02*
X003835Y009214D01*
X003933Y009115D02*
X003732Y009115D01*
X003740Y009017D02*
X004032Y009017D01*
X004130Y008918D02*
X003740Y008918D01*
X003705Y008820D02*
X004229Y008820D01*
X004327Y008721D02*
X003751Y008721D01*
X003850Y008623D02*
X004423Y008623D01*
X004423Y008524D02*
X003948Y008524D01*
X004047Y008426D02*
X004423Y008426D01*
X004387Y008327D02*
X004145Y008327D01*
X004244Y008229D02*
X004343Y008229D01*
X004553Y007933D02*
X004820Y007933D01*
X004820Y007835D02*
X004545Y007835D01*
X004447Y007736D02*
X004820Y007736D01*
X004820Y007638D02*
X004303Y007638D01*
X004250Y007539D02*
X004820Y007539D01*
X004820Y007441D02*
X003453Y007441D01*
X003445Y007445D02*
X003373Y007468D01*
X003310Y007478D01*
X003310Y007050D01*
X003210Y007050D01*
X003210Y006950D01*
X002782Y006950D01*
X002792Y006888D01*
X002816Y006816D01*
X002850Y006748D01*
X002894Y006687D01*
X002948Y006634D01*
X003009Y006589D01*
X003076Y006555D01*
X003148Y006532D01*
X003210Y006522D01*
X003210Y006950D01*
X003310Y006950D01*
X003310Y006522D01*
X003373Y006532D01*
X003445Y006555D01*
X003512Y006589D01*
X003573Y006634D01*
X003626Y006687D01*
X003671Y006748D01*
X003705Y006816D01*
X003729Y006888D01*
X003738Y006950D01*
X003310Y006950D01*
X003310Y007050D01*
X003738Y007050D01*
X003729Y007112D01*
X003705Y007184D01*
X003671Y007252D01*
X003626Y007313D01*
X003573Y007366D01*
X003512Y007411D01*
X003445Y007445D01*
X003402Y007539D02*
X003896Y007539D01*
X003843Y007638D02*
X003577Y007638D01*
X003671Y007736D02*
X003750Y007736D01*
X003977Y007933D02*
X004093Y007933D01*
X004017Y008032D02*
X003878Y008032D01*
X003918Y008130D02*
X003780Y008130D01*
X003820Y008229D02*
X003685Y008229D01*
X003721Y008327D02*
X003612Y008327D01*
X003623Y008426D02*
X003487Y008426D01*
X003524Y008524D02*
X003366Y008524D01*
X003155Y008524D02*
X002460Y008524D01*
X002460Y008426D02*
X003033Y008426D01*
X002909Y008327D02*
X002460Y008327D01*
X002460Y008229D02*
X002835Y008229D01*
X002795Y008130D02*
X002460Y008130D01*
X002460Y008032D02*
X002780Y008032D01*
X002780Y007933D02*
X002460Y007933D01*
X002460Y007835D02*
X002809Y007835D01*
X002850Y007736D02*
X002460Y007736D01*
X002460Y007638D02*
X002944Y007638D01*
X003119Y007539D02*
X002460Y007539D01*
X002460Y007441D02*
X003068Y007441D01*
X003076Y007445D02*
X003009Y007411D01*
X002948Y007366D01*
X002894Y007313D01*
X002850Y007252D01*
X002816Y007184D01*
X002792Y007112D01*
X002782Y007050D01*
X003210Y007050D01*
X003210Y007478D01*
X003148Y007468D01*
X003076Y007445D01*
X003210Y007441D02*
X003310Y007441D01*
X003310Y007342D02*
X003210Y007342D01*
X003210Y007244D02*
X003310Y007244D01*
X003310Y007145D02*
X003210Y007145D01*
X003210Y007047D02*
X002460Y007047D01*
X002460Y007145D02*
X002803Y007145D01*
X002846Y007244D02*
X002460Y007244D01*
X002460Y007342D02*
X002924Y007342D01*
X003310Y007047D02*
X004820Y007047D01*
X004820Y007145D02*
X003718Y007145D01*
X003675Y007244D02*
X004820Y007244D01*
X004820Y007342D02*
X003597Y007342D01*
X003738Y006948D02*
X004820Y006948D01*
X004820Y006850D02*
X003716Y006850D01*
X003672Y006751D02*
X004820Y006751D01*
X004820Y006653D02*
X003592Y006653D01*
X003441Y006554D02*
X004820Y006554D01*
X004820Y006456D02*
X003415Y006456D01*
X003310Y006554D02*
X003210Y006554D01*
X003210Y006653D02*
X003310Y006653D01*
X003310Y006751D02*
X003210Y006751D01*
X003210Y006850D02*
X003310Y006850D01*
X003310Y006948D02*
X003210Y006948D01*
X002929Y006653D02*
X002460Y006653D01*
X002460Y006751D02*
X002849Y006751D01*
X002805Y006850D02*
X002460Y006850D01*
X002460Y006948D02*
X002783Y006948D01*
X003080Y006554D02*
X002460Y006554D01*
X002460Y006456D02*
X003106Y006456D01*
X002939Y006357D02*
X002460Y006357D01*
X002460Y006259D02*
X002848Y006259D01*
X002807Y006160D02*
X002460Y006160D01*
X002460Y006062D02*
X002780Y006062D01*
X002780Y005963D02*
X002460Y005963D01*
X002460Y005865D02*
X002797Y005865D01*
X002820Y005766D02*
X002460Y005766D01*
X002460Y005668D02*
X002820Y005668D01*
X002820Y005569D02*
X002460Y005569D01*
X002460Y005471D02*
X002820Y005471D01*
X002820Y005372D02*
X002460Y005372D01*
X002460Y005274D02*
X002820Y005274D01*
X002813Y005175D02*
X002460Y005175D01*
X002460Y005077D02*
X002780Y005077D01*
X002780Y004978D02*
X002460Y004978D01*
X002460Y004880D02*
X002791Y004880D01*
X002832Y004781D02*
X002460Y004781D01*
X002460Y004683D02*
X002899Y004683D01*
X003010Y004584D02*
X002460Y004584D01*
X002460Y004486D02*
X006722Y004486D01*
X006653Y004584D02*
X004906Y004584D01*
X005065Y004683D02*
X006653Y004683D01*
X006653Y004781D02*
X005164Y004781D01*
X005262Y004880D02*
X006653Y004880D01*
X006653Y004978D02*
X005361Y004978D01*
X005459Y005077D02*
X006653Y005077D01*
X006653Y005175D02*
X005558Y005175D01*
X005643Y005274D02*
X006653Y005274D01*
X006653Y005372D02*
X005684Y005372D01*
X005700Y005471D02*
X006653Y005471D01*
X006653Y005569D02*
X005700Y005569D01*
X005700Y005668D02*
X006653Y005668D01*
X006653Y005766D02*
X005700Y005766D01*
X005700Y005865D02*
X006653Y005865D01*
X006653Y005963D02*
X005700Y005963D01*
X005700Y006062D02*
X006653Y006062D01*
X006653Y006160D02*
X005700Y006160D01*
X005700Y006259D02*
X006653Y006259D01*
X006653Y006357D02*
X005700Y006357D01*
X005700Y006456D02*
X006653Y006456D01*
X006653Y006554D02*
X005700Y006554D01*
X005700Y006653D02*
X006653Y006653D01*
X006653Y006751D02*
X005700Y006751D01*
X005700Y006850D02*
X006653Y006850D01*
X006653Y006948D02*
X005700Y006948D01*
X005700Y007047D02*
X006653Y007047D01*
X006653Y007145D02*
X005700Y007145D01*
X005700Y007244D02*
X006653Y007244D01*
X006653Y007342D02*
X005700Y007342D01*
X005700Y007441D02*
X006653Y007441D01*
X006653Y007539D02*
X005700Y007539D01*
X005700Y007638D02*
X006653Y007638D01*
X006653Y007736D02*
X005700Y007736D01*
X005700Y007835D02*
X006653Y007835D01*
X006653Y007933D02*
X005700Y007933D01*
X005700Y008032D02*
X006653Y008032D01*
X006653Y008130D02*
X005700Y008130D01*
X005700Y008229D02*
X006653Y008229D01*
X006653Y008327D02*
X005700Y008327D01*
X005700Y008426D02*
X006653Y008426D01*
X006653Y008524D02*
X005700Y008524D01*
X005700Y008623D02*
X006653Y008623D01*
X006653Y008721D02*
X005700Y008721D01*
X005700Y008820D02*
X006653Y008820D01*
X006653Y008918D02*
X005700Y008918D01*
X005700Y009017D02*
X006653Y009017D01*
X006653Y009115D02*
X005700Y009115D01*
X005700Y009214D02*
X006653Y009214D01*
X006653Y009312D02*
X005700Y009312D01*
X005700Y009375D02*
X005700Y009963D01*
X005633Y010124D01*
X005510Y010248D01*
X005348Y010315D01*
X005173Y010315D01*
X005159Y010309D01*
X004995Y010472D01*
X004995Y012039D01*
X005038Y011996D01*
X005483Y011996D01*
X005548Y012061D01*
X005548Y012094D01*
X005567Y012094D01*
X005655Y012183D01*
X005655Y012030D01*
X005748Y011937D01*
X005655Y011845D01*
X005655Y011730D01*
X005540Y011730D01*
X005405Y011595D01*
X005405Y011405D01*
X005485Y011325D01*
X005485Y011175D01*
X005405Y011095D01*
X005405Y010905D01*
X005540Y010770D01*
X005655Y010770D01*
X005655Y010655D01*
X005790Y010520D01*
X005981Y010520D01*
X006115Y010655D01*
X006115Y010752D01*
X006124Y010743D01*
X006132Y010735D01*
X006132Y010527D01*
X006196Y010463D01*
X006563Y010463D01*
X006627Y010527D01*
X006627Y010973D01*
X006580Y011020D01*
X006606Y011020D01*
X006740Y011155D01*
X006740Y011259D01*
X006860Y011371D01*
X006860Y011300D01*
X006780Y011220D01*
X006780Y011037D01*
X006739Y011037D01*
X006711Y011030D01*
X006686Y011015D01*
X006665Y010995D01*
X006651Y010970D01*
X006643Y010942D01*
X006643Y010769D01*
X006872Y010769D01*
X006872Y010731D01*
X006643Y010731D01*
X006643Y010558D01*
X006651Y010530D01*
X006665Y010505D01*
X006686Y010485D01*
X006711Y010470D01*
X006739Y010463D01*
X006872Y010463D01*
X006872Y010731D01*
X006910Y010731D01*
X006910Y010463D01*
X006983Y010463D01*
X006752Y010232D01*
X006653Y010133D01*
X006653Y009375D01*
X005700Y009375D01*
X005700Y009411D02*
X006653Y009411D01*
X005700Y009411D01*
X005700Y009509D02*
X006653Y009509D01*
X006653Y009608D02*
X005700Y009608D01*
X005700Y009706D02*
X006653Y009706D01*
X006653Y009805D02*
X005700Y009805D01*
X005700Y009903D02*
X006653Y009903D01*
X006653Y010002D02*
X005684Y010002D01*
X005643Y010100D02*
X006653Y010100D01*
X006718Y010199D02*
X005559Y010199D01*
X005391Y010297D02*
X006817Y010297D01*
X006915Y010396D02*
X005072Y010396D01*
X004995Y010494D02*
X006165Y010494D01*
X006132Y010593D02*
X006053Y010593D01*
X006115Y010691D02*
X006132Y010691D01*
X005718Y010593D02*
X004995Y010593D01*
X004995Y010691D02*
X005655Y010691D01*
X005521Y010790D02*
X004995Y010790D01*
X004995Y010888D02*
X005422Y010888D01*
X005405Y010987D02*
X004995Y010987D01*
X004995Y011085D02*
X005405Y011085D01*
X005485Y011184D02*
X004995Y011184D01*
X004995Y011282D02*
X005485Y011282D01*
X005430Y011381D02*
X004995Y011381D01*
X004995Y011479D02*
X005405Y011479D01*
X005405Y011578D02*
X004995Y011578D01*
X004995Y011676D02*
X005486Y011676D01*
X005655Y011775D02*
X004995Y011775D01*
X004995Y011873D02*
X005683Y011873D01*
X005714Y011972D02*
X004995Y011972D01*
X004525Y012060D02*
X004481Y012105D01*
X004410Y012105D01*
X004410Y013212D01*
X004540Y013083D01*
X004731Y013083D01*
X004865Y013217D01*
X004865Y013244D01*
X005979Y013244D01*
X005979Y013197D01*
X006315Y013197D01*
X006315Y013197D01*
X005979Y013197D01*
X005979Y013150D01*
X005442Y013150D01*
X005354Y013062D01*
X005296Y013004D01*
X005038Y013004D01*
X004973Y012939D01*
X004973Y012620D01*
X004858Y012735D01*
X004663Y012735D01*
X004525Y012597D01*
X004525Y012060D01*
X004525Y012070D02*
X004516Y012070D01*
X004525Y012169D02*
X004410Y012169D01*
X004410Y012267D02*
X004525Y012267D01*
X004525Y012366D02*
X004410Y012366D01*
X004410Y012464D02*
X004525Y012464D01*
X004525Y012563D02*
X004410Y012563D01*
X004410Y012661D02*
X004589Y012661D01*
X004410Y012760D02*
X004973Y012760D01*
X004973Y012858D02*
X004410Y012858D01*
X004410Y012957D02*
X004990Y012957D01*
X004802Y013154D02*
X005979Y013154D01*
X006024Y013150D02*
X005885Y013150D01*
X005885Y013244D01*
X006024Y013244D01*
X006044Y013225D01*
X006587Y013225D01*
X006652Y013289D01*
X006652Y013375D01*
X007869Y013375D01*
X007869Y013092D01*
X007933Y013028D01*
X008477Y013028D01*
X008496Y013047D01*
X008635Y013047D01*
X008635Y012953D01*
X008496Y012953D01*
X008477Y012972D01*
X007933Y012972D01*
X007869Y012908D01*
X007869Y012391D01*
X006652Y012391D01*
X006652Y013105D01*
X006587Y013169D01*
X006044Y013169D01*
X006024Y013150D01*
X006028Y013154D02*
X005885Y013154D01*
X005830Y013586D02*
X006493Y013586D01*
X006222Y013873D01*
X005830Y013873D01*
X005830Y013586D01*
X005830Y013646D02*
X006436Y013646D01*
X006343Y013745D02*
X005830Y013745D01*
X005830Y013843D02*
X006250Y013843D01*
X006418Y013978D02*
X006297Y014098D01*
X006297Y014294D01*
X006523Y014294D01*
X006674Y014144D01*
X006674Y013782D01*
X006674Y013767D01*
X006628Y013767D01*
X006418Y013978D01*
X006454Y013942D02*
X006674Y013942D01*
X006674Y014040D02*
X006356Y014040D01*
X006297Y014139D02*
X006674Y014139D01*
X006580Y014237D02*
X006297Y014237D01*
X006260Y014631D02*
X006170Y014631D01*
X006198Y014730D02*
X006059Y014730D01*
X006100Y014828D02*
X005952Y014828D01*
X006001Y014927D02*
X004845Y014927D01*
X004845Y015025D02*
X005903Y015025D01*
X005860Y015124D02*
X004845Y015124D01*
X004845Y015222D02*
X005860Y015222D01*
X005788Y015321D02*
X005730Y015321D01*
X005733Y015331D02*
X005733Y015514D01*
X005474Y015514D01*
X005474Y015236D01*
X005637Y015236D01*
X005665Y015243D01*
X005690Y015258D01*
X005711Y015278D01*
X005725Y015304D01*
X005733Y015331D01*
X005733Y015419D02*
X005788Y015419D01*
X005788Y015518D02*
X005474Y015518D01*
X005474Y015514D02*
X005474Y015611D01*
X005377Y015611D01*
X005377Y015514D01*
X005119Y015514D01*
X005119Y015331D01*
X005126Y015304D01*
X005141Y015278D01*
X005161Y015258D01*
X005186Y015243D01*
X005214Y015236D01*
X005377Y015236D01*
X005377Y015514D01*
X005474Y015514D01*
X005474Y015419D02*
X005377Y015419D01*
X005377Y015321D02*
X005474Y015321D01*
X005377Y015518D02*
X004845Y015518D01*
X004845Y015616D02*
X005119Y015616D01*
X005119Y015611D02*
X005377Y015611D01*
X005377Y015889D01*
X005214Y015889D01*
X005186Y015882D01*
X005161Y015867D01*
X005141Y015847D01*
X005126Y015821D01*
X005119Y015794D01*
X005119Y015611D01*
X005119Y015715D02*
X004845Y015715D01*
X004845Y015813D02*
X005124Y015813D01*
X005377Y015813D02*
X005474Y015813D01*
X005474Y015889D02*
X005474Y015611D01*
X005733Y015611D01*
X005733Y015794D01*
X005725Y015821D01*
X005711Y015847D01*
X005690Y015867D01*
X005665Y015882D01*
X005637Y015889D01*
X005474Y015889D01*
X005543Y016010D02*
X004845Y016010D01*
X004845Y015912D02*
X005641Y015912D01*
X005727Y015813D02*
X005788Y015813D01*
X005788Y015715D02*
X005733Y015715D01*
X005733Y015616D02*
X005788Y015616D01*
X005879Y015912D02*
X006840Y015912D01*
X006775Y015813D02*
X006402Y015813D01*
X006402Y015715D02*
X006775Y015715D01*
X006775Y015616D02*
X006402Y015616D01*
X006402Y015518D02*
X006775Y015518D01*
X006775Y015419D02*
X006402Y015419D01*
X006402Y015321D02*
X006635Y015321D01*
X006635Y015222D02*
X006371Y015222D01*
X006469Y015124D02*
X006635Y015124D01*
X006635Y015025D02*
X006568Y015025D01*
X006916Y015025D02*
X007167Y015025D01*
X007167Y014927D02*
X006916Y014927D01*
X006916Y014922D02*
X006916Y015125D01*
X007167Y015125D01*
X007167Y014344D01*
X007074Y014221D01*
X007074Y013774D01*
X007057Y013774D01*
X007057Y014781D01*
X006916Y014922D01*
X007010Y014828D02*
X007167Y014828D01*
X007167Y014730D02*
X007057Y014730D01*
X007057Y014631D02*
X007167Y014631D01*
X007167Y014533D02*
X007057Y014533D01*
X007057Y014434D02*
X007167Y014434D01*
X007160Y014336D02*
X007057Y014336D01*
X007057Y014237D02*
X007086Y014237D01*
X007074Y014139D02*
X007057Y014139D01*
X007057Y014040D02*
X007074Y014040D01*
X007074Y013942D02*
X007057Y013942D01*
X007057Y013843D02*
X007074Y013843D01*
X006870Y013843D02*
X006866Y013843D01*
X006870Y013781D02*
X006870Y014619D01*
X006698Y014620D01*
X006698Y014405D01*
X006853Y014250D01*
X006868Y013780D01*
X006870Y013781D01*
X006863Y013942D02*
X006870Y013942D01*
X006860Y014040D02*
X006870Y014040D01*
X006857Y014139D02*
X006870Y014139D01*
X006870Y014237D02*
X006853Y014237D01*
X006870Y014336D02*
X006767Y014336D01*
X006698Y014434D02*
X006870Y014434D01*
X006870Y014533D02*
X006698Y014533D01*
X006916Y015124D02*
X007167Y015124D01*
X007354Y015109D02*
X007637Y015109D01*
X007637Y014908D01*
X007463Y014734D01*
X007465Y013772D01*
X007462Y013772D01*
X007447Y014265D01*
X007354Y014313D01*
X007354Y015109D01*
X007354Y015025D02*
X007637Y015025D01*
X007637Y014927D02*
X007354Y014927D01*
X007354Y014828D02*
X007557Y014828D01*
X007463Y014730D02*
X007354Y014730D01*
X007354Y014631D02*
X007464Y014631D01*
X007464Y014533D02*
X007354Y014533D01*
X007354Y014434D02*
X007464Y014434D01*
X007464Y014336D02*
X007354Y014336D01*
X007448Y014237D02*
X007464Y014237D01*
X007451Y014139D02*
X007465Y014139D01*
X007454Y014040D02*
X007465Y014040D01*
X007457Y013942D02*
X007465Y013942D01*
X007460Y013843D02*
X007465Y013843D01*
X007644Y013928D02*
X007644Y014615D01*
X007787Y014615D01*
X007787Y014350D01*
X007677Y014240D01*
X007677Y013928D01*
X007644Y013928D01*
X007644Y013942D02*
X007677Y013942D01*
X007677Y014040D02*
X007644Y014040D01*
X007644Y014139D02*
X007677Y014139D01*
X007677Y014237D02*
X007644Y014237D01*
X007644Y014336D02*
X007773Y014336D01*
X007787Y014434D02*
X007644Y014434D01*
X007644Y014533D02*
X007787Y014533D01*
X008014Y014279D02*
X008180Y014279D01*
X008165Y013993D01*
X008120Y013948D01*
X007909Y013767D01*
X007849Y013767D01*
X007849Y014083D01*
X008014Y014279D01*
X007979Y014237D02*
X008178Y014237D01*
X008173Y014139D02*
X007895Y014139D01*
X007849Y014040D02*
X008167Y014040D01*
X008112Y013942D02*
X007849Y013942D01*
X007849Y013843D02*
X007997Y013843D01*
X008172Y013745D02*
X008477Y013745D01*
X008477Y013842D02*
X008477Y013571D01*
X007999Y013571D01*
X007999Y013632D01*
X008059Y013632D01*
X008270Y013842D01*
X008477Y013842D01*
X008477Y013646D02*
X008074Y013646D01*
X007869Y013351D02*
X006652Y013351D01*
X006615Y013252D02*
X007869Y013252D01*
X007869Y013154D02*
X006603Y013154D01*
X006652Y013055D02*
X007906Y013055D01*
X007869Y013050D02*
X007869Y013000D01*
X008205Y013000D01*
X007869Y013000D01*
X007869Y012950D01*
X007310Y012950D01*
X007310Y013050D01*
X007869Y013050D01*
X007869Y012957D02*
X007310Y012957D01*
X007869Y012858D02*
X006652Y012858D01*
X006652Y012760D02*
X007869Y012760D01*
X007869Y012661D02*
X006652Y012661D01*
X006652Y012563D02*
X007869Y012563D01*
X007869Y012464D02*
X006652Y012464D01*
X006652Y012957D02*
X007918Y012957D01*
X008205Y013000D02*
X008205Y013000D01*
X008542Y013000D01*
X008542Y012953D01*
X009252Y012953D01*
X009275Y012976D01*
X009947Y012976D01*
X009879Y013044D01*
X009856Y013020D01*
X009665Y013020D01*
X009530Y013155D01*
X009530Y013345D01*
X009560Y013375D01*
X009365Y013375D01*
X009365Y013280D01*
X009231Y013145D01*
X009117Y013145D01*
X009107Y013135D01*
X009019Y013047D01*
X008542Y013047D01*
X008542Y013000D01*
X008205Y013000D01*
X008205Y013000D01*
X008493Y012957D02*
X008635Y012957D01*
X008542Y012957D02*
X009255Y012957D01*
X009239Y013154D02*
X009532Y013154D01*
X009239Y013154D01*
X009338Y013252D02*
X009530Y013252D01*
X009338Y013252D01*
X009365Y013351D02*
X009536Y013351D01*
X009365Y013351D01*
X009365Y013449D02*
X009634Y013449D01*
X009653Y013548D02*
X009288Y013548D01*
X008983Y013548D02*
X008760Y013548D01*
X008760Y013646D02*
X009653Y013646D01*
X009653Y013745D02*
X008760Y013745D01*
X008822Y013843D02*
X009653Y013843D01*
X009653Y013942D02*
X008937Y013942D01*
X008991Y014040D02*
X009653Y014040D01*
X009653Y014139D02*
X008999Y014139D01*
X009212Y014237D02*
X009309Y014237D01*
X009268Y014336D02*
X009252Y014336D01*
X009252Y014434D02*
X009268Y014434D01*
X009268Y014519D02*
X009497Y014519D01*
X009497Y014787D01*
X009364Y014787D01*
X009336Y014780D01*
X009311Y014765D01*
X009290Y014745D01*
X009276Y014720D01*
X009268Y014692D01*
X009268Y014519D01*
X009268Y014533D02*
X009252Y014533D01*
X009252Y014631D02*
X009268Y014631D01*
X009282Y014730D02*
X009245Y014730D01*
X009497Y014730D02*
X009535Y014730D01*
X009535Y014631D02*
X009497Y014631D01*
X009497Y014533D02*
X009535Y014533D01*
X009535Y014434D02*
X009497Y014434D01*
X009497Y014336D02*
X009535Y014336D01*
X009535Y014237D02*
X009497Y014237D01*
X009653Y014828D02*
X008421Y014828D01*
X008408Y014730D02*
X008322Y014730D01*
X008309Y014631D02*
X008224Y014631D01*
X008211Y014533D02*
X008125Y014533D01*
X008519Y014927D02*
X009653Y014927D01*
X009653Y015025D02*
X008618Y015025D01*
X008661Y015124D02*
X009653Y015124D01*
X009653Y015222D02*
X009383Y015222D01*
X009380Y015216D02*
X009394Y015241D01*
X009402Y015269D01*
X009402Y015452D01*
X009143Y015452D01*
X009143Y015548D01*
X009402Y015548D01*
X009402Y015731D01*
X009394Y015759D01*
X009380Y015784D01*
X009359Y015805D01*
X009334Y015819D01*
X009306Y015827D01*
X009143Y015827D01*
X009143Y015548D01*
X009047Y015548D01*
X009047Y015452D01*
X009143Y015452D01*
X009143Y015173D01*
X009306Y015173D01*
X009334Y015181D01*
X009359Y015195D01*
X009380Y015216D01*
X009402Y015321D02*
X009653Y015321D01*
X009653Y015419D02*
X009402Y015419D01*
X009402Y015616D02*
X009653Y015616D01*
X009653Y015518D02*
X009143Y015518D01*
X009047Y015518D02*
X008733Y015518D01*
X008788Y015548D02*
X008788Y015731D01*
X008796Y015759D01*
X008810Y015784D01*
X008831Y015805D01*
X008856Y015819D01*
X008884Y015827D01*
X009047Y015827D01*
X009047Y015548D01*
X008788Y015548D01*
X008788Y015616D02*
X008733Y015616D01*
X008733Y015715D02*
X008788Y015715D01*
X008845Y015813D02*
X008682Y015813D01*
X008905Y016010D02*
X008195Y016010D01*
X008195Y015912D02*
X008999Y015912D01*
X009047Y015813D02*
X009143Y015813D01*
X009143Y015715D02*
X009047Y015715D01*
X009047Y015616D02*
X009143Y015616D01*
X009047Y015452D02*
X008788Y015452D01*
X008788Y015269D01*
X008796Y015241D01*
X008810Y015216D01*
X008831Y015195D01*
X008856Y015181D01*
X008884Y015173D01*
X009047Y015173D01*
X009047Y015452D01*
X009047Y015419D02*
X009143Y015419D01*
X009143Y015321D02*
X009047Y015321D01*
X009047Y015222D02*
X009143Y015222D01*
X008807Y015222D02*
X008717Y015222D01*
X008733Y015321D02*
X008788Y015321D01*
X008788Y015419D02*
X008733Y015419D01*
X008905Y016109D02*
X008195Y016109D01*
X008195Y016207D02*
X008917Y016207D01*
X008985Y016306D02*
X008195Y016306D01*
X008195Y016404D02*
X008985Y016404D01*
X008985Y016503D02*
X008195Y016503D01*
X008195Y016601D02*
X008909Y016601D01*
X008905Y016700D02*
X008195Y016700D01*
X008195Y016798D02*
X008580Y016798D01*
X008525Y016897D02*
X008195Y016897D01*
X008195Y016995D02*
X008525Y016995D01*
X008525Y017094D02*
X008195Y017094D01*
X008207Y017192D02*
X008453Y017192D01*
X008376Y017291D02*
X008152Y017291D01*
X008185Y017389D02*
X008336Y017389D01*
X008366Y017685D02*
X008155Y017685D01*
X008092Y017783D02*
X008428Y017783D01*
X008545Y017882D02*
X007975Y017882D01*
X007376Y017291D02*
X007144Y017291D01*
X007067Y017192D02*
X007453Y017192D01*
X007605Y017094D02*
X006995Y017094D01*
X006995Y016995D02*
X007725Y016995D01*
X007725Y016897D02*
X006995Y016897D01*
X006995Y016798D02*
X007725Y016798D01*
X007725Y016700D02*
X006995Y016700D01*
X006995Y016601D02*
X007725Y016601D01*
X007725Y016503D02*
X006995Y016503D01*
X006995Y016404D02*
X007725Y016404D01*
X007725Y016306D02*
X007662Y016306D01*
X007359Y016306D02*
X006948Y016306D01*
X007275Y016207D02*
X005995Y016207D01*
X005995Y016109D02*
X007275Y016109D01*
X007275Y016010D02*
X005978Y016010D01*
X005995Y016306D02*
X006572Y016306D01*
X006525Y016404D02*
X005995Y016404D01*
X005995Y016503D02*
X006525Y016503D01*
X006525Y016601D02*
X005995Y016601D01*
X005995Y016700D02*
X006525Y016700D01*
X006525Y016798D02*
X005995Y016798D01*
X005995Y016897D02*
X006525Y016897D01*
X006525Y016995D02*
X005995Y016995D01*
X006159Y017094D02*
X006525Y017094D01*
X006453Y017192D02*
X006195Y017192D01*
X006195Y017291D02*
X006376Y017291D01*
X006336Y017389D02*
X006195Y017389D01*
X005525Y016995D02*
X005245Y016995D01*
X005245Y016897D02*
X005525Y016897D01*
X005525Y016798D02*
X005191Y016798D01*
X005092Y016700D02*
X005525Y016700D01*
X005525Y016601D02*
X004994Y016601D01*
X004895Y016503D02*
X005525Y016503D01*
X005525Y016404D02*
X004845Y016404D01*
X004845Y016306D02*
X005525Y016306D01*
X005525Y016207D02*
X004845Y016207D01*
X004845Y016109D02*
X005525Y016109D01*
X005474Y015715D02*
X005377Y015715D01*
X005377Y015616D02*
X005474Y015616D01*
X005119Y015419D02*
X004845Y015419D01*
X004845Y015321D02*
X005122Y015321D01*
X005086Y014828D02*
X005048Y014828D01*
X005048Y014730D02*
X005086Y014730D01*
X005086Y014631D02*
X005331Y014631D01*
X005331Y014533D02*
X005315Y014533D01*
X005315Y014434D02*
X005331Y014434D01*
X005141Y014338D02*
X005025Y014222D01*
X005025Y014028D01*
X005068Y013985D01*
X005058Y013985D01*
X004845Y014197D01*
X004845Y014376D01*
X004862Y014360D01*
X004887Y014345D01*
X004915Y014338D01*
X005048Y014338D01*
X005048Y014606D01*
X005086Y014606D01*
X005086Y014338D01*
X005141Y014338D01*
X005139Y014336D02*
X004845Y014336D01*
X004845Y014237D02*
X005040Y014237D01*
X005025Y014139D02*
X004904Y014139D01*
X005003Y014040D02*
X005025Y014040D01*
X005048Y014434D02*
X005086Y014434D01*
X005086Y014533D02*
X005048Y014533D01*
X005315Y014730D02*
X005331Y014730D01*
X005331Y014828D02*
X005312Y014828D01*
X004375Y014828D02*
X004348Y014828D01*
X004348Y014927D02*
X004375Y014927D01*
X004375Y015025D02*
X004348Y015025D01*
X004348Y015124D02*
X004375Y015124D01*
X004375Y015222D02*
X004348Y015222D01*
X004348Y015321D02*
X004375Y015321D01*
X004375Y015419D02*
X004348Y015419D01*
X004348Y015518D02*
X004375Y015518D01*
X004375Y015616D02*
X004348Y015616D01*
X004348Y015715D02*
X004375Y015715D01*
X004375Y015813D02*
X004348Y015813D01*
X004348Y015912D02*
X004375Y015912D01*
X004375Y016010D02*
X004348Y016010D01*
X004348Y016109D02*
X004375Y016109D01*
X004375Y016207D02*
X004348Y016207D01*
X004348Y016306D02*
X004375Y016306D01*
X004375Y016404D02*
X004348Y016404D01*
X004348Y016503D02*
X004375Y016503D01*
X004375Y016601D02*
X004348Y016601D01*
X004348Y016700D02*
X004428Y016700D01*
X004348Y016798D02*
X004526Y016798D01*
X004625Y016897D02*
X004420Y016897D01*
X004428Y016995D02*
X004723Y016995D01*
X004822Y017094D02*
X004428Y017094D01*
X004348Y017192D02*
X005326Y017192D01*
X005326Y017291D02*
X004541Y017291D01*
X004613Y017327D02*
X004613Y017327D01*
X004613Y017327D01*
X004675Y017389D02*
X005326Y017389D01*
X005326Y017488D02*
X004773Y017488D01*
X004872Y017586D02*
X005326Y017586D01*
X005326Y017685D02*
X004952Y017685D01*
X004933Y017648D02*
X004933Y017648D01*
X005002Y017783D02*
X005326Y017783D01*
X005337Y017882D02*
X005053Y017882D01*
X005103Y017980D02*
X009653Y017980D01*
X009653Y017882D02*
X008975Y017882D01*
X009092Y017783D02*
X009653Y017783D01*
X009653Y017685D02*
X009155Y017685D01*
X009185Y017389D02*
X009653Y017389D01*
X009653Y017291D02*
X009144Y017291D01*
X009067Y017192D02*
X009653Y017192D01*
X009653Y017094D02*
X008995Y017094D01*
X008995Y016995D02*
X009653Y016995D01*
X009653Y016897D02*
X009264Y016897D01*
X009363Y016798D02*
X009653Y016798D01*
X009653Y016700D02*
X009365Y016700D01*
X009362Y016601D02*
X009653Y016601D01*
X009653Y016503D02*
X009285Y016503D01*
X009285Y016404D02*
X009653Y016404D01*
X009653Y016306D02*
X009285Y016306D01*
X009354Y016207D02*
X009653Y016207D01*
X009653Y016109D02*
X009365Y016109D01*
X009365Y016010D02*
X009653Y016010D01*
X009653Y015912D02*
X009272Y015912D01*
X009345Y015813D02*
X009653Y015813D01*
X009653Y015715D02*
X009402Y015715D01*
X010160Y015715D02*
X010525Y015715D01*
X010525Y015813D02*
X010160Y015813D01*
X010160Y015912D02*
X010525Y015912D01*
X010525Y016010D02*
X010160Y016010D01*
X010160Y016109D02*
X010525Y016109D01*
X010525Y016207D02*
X010160Y016207D01*
X010160Y016306D02*
X010525Y016306D01*
X010525Y016404D02*
X010160Y016404D01*
X010160Y016503D02*
X010525Y016503D01*
X010525Y016601D02*
X010160Y016601D01*
X010160Y016700D02*
X010525Y016700D01*
X010525Y016798D02*
X010160Y016798D01*
X010160Y016897D02*
X010525Y016897D01*
X010525Y016995D02*
X010160Y016995D01*
X010160Y017094D02*
X010362Y017094D01*
X010326Y017192D02*
X010160Y017192D01*
X010160Y017291D02*
X010326Y017291D01*
X010326Y017389D02*
X010160Y017389D01*
X010160Y017488D02*
X010326Y017488D01*
X010326Y017586D02*
X010160Y017586D01*
X010160Y017685D02*
X010326Y017685D01*
X010326Y017783D02*
X010160Y017783D01*
X010160Y017882D02*
X010337Y017882D01*
X010160Y017980D02*
X019068Y017980D01*
X019110Y017938D02*
X019110Y017765D01*
X019007Y017869D01*
X018847Y017935D01*
X018674Y017935D01*
X018514Y017869D01*
X018392Y017746D01*
X018326Y017586D01*
X018195Y017586D01*
X018129Y017746D01*
X018007Y017869D01*
X017847Y017935D01*
X017674Y017935D01*
X017514Y017869D01*
X017392Y017746D01*
X017326Y017586D01*
X017195Y017586D01*
X017129Y017746D01*
X017007Y017869D01*
X016847Y017935D01*
X016674Y017935D01*
X016514Y017869D01*
X016392Y017746D01*
X016326Y017586D01*
X016195Y017586D01*
X016195Y017488D02*
X016326Y017488D01*
X016326Y017414D02*
X016326Y017586D01*
X016366Y017685D02*
X016195Y017685D01*
X016195Y017783D02*
X016428Y017783D01*
X016545Y017882D02*
X016184Y017882D01*
X016326Y017414D02*
X016392Y017254D01*
X016514Y017131D01*
X016525Y017127D01*
X016525Y016003D01*
X016701Y015827D01*
X016643Y015827D01*
X016643Y015548D01*
X016902Y015548D01*
X016902Y015626D01*
X017288Y015240D01*
X017483Y015240D01*
X017620Y015378D01*
X017620Y015572D01*
X016995Y016197D01*
X016995Y017127D01*
X017007Y017131D01*
X017129Y017254D01*
X017195Y017414D01*
X017195Y017586D01*
X017195Y017488D02*
X017326Y017488D01*
X017326Y017414D02*
X017326Y017586D01*
X017366Y017685D02*
X017155Y017685D01*
X017092Y017783D02*
X017428Y017783D01*
X017545Y017882D02*
X016975Y017882D01*
X017185Y017389D02*
X017336Y017389D01*
X017326Y017414D02*
X017392Y017254D01*
X017514Y017131D01*
X017525Y017127D01*
X017525Y016353D01*
X017663Y016215D01*
X017858Y016215D01*
X017995Y016353D01*
X017995Y017127D01*
X018007Y017131D01*
X018129Y017254D01*
X018195Y017414D01*
X018195Y017586D01*
X018195Y017488D02*
X018326Y017488D01*
X018326Y017414D02*
X018326Y017586D01*
X018366Y017685D02*
X018155Y017685D01*
X018092Y017783D02*
X018428Y017783D01*
X018545Y017882D02*
X017975Y017882D01*
X018185Y017389D02*
X018336Y017389D01*
X018326Y017414D02*
X018392Y017254D01*
X018514Y017131D01*
X018525Y017127D01*
X018525Y016803D01*
X018663Y016665D01*
X018858Y016665D01*
X018995Y016803D01*
X018995Y017127D01*
X019007Y017131D01*
X019110Y017235D01*
X019110Y015438D01*
X019331Y015217D01*
X019280Y015095D01*
X019280Y014905D01*
X019353Y014728D01*
X019488Y014593D01*
X019665Y014520D01*
X019856Y014520D01*
X020032Y014593D01*
X020167Y014728D01*
X020240Y014905D01*
X020240Y015095D01*
X020167Y015272D01*
X020032Y015407D01*
X019856Y015480D01*
X019665Y015480D01*
X019543Y015430D01*
X019410Y015562D01*
X019410Y015671D01*
X019488Y015593D01*
X019665Y015520D01*
X019856Y015520D01*
X020032Y015593D01*
X020167Y015728D01*
X020240Y015905D01*
X020240Y016095D01*
X020167Y016272D01*
X020032Y016407D01*
X019910Y016457D01*
X019910Y017887D01*
X019990Y017967D01*
X019990Y018158D01*
X019856Y018292D01*
X019665Y018292D01*
X019530Y018158D01*
X019530Y017967D01*
X019610Y017887D01*
X019610Y016457D01*
X019488Y016407D01*
X019410Y016329D01*
X019410Y018062D01*
X019322Y018150D01*
X018141Y019332D01*
X018102Y019375D01*
X018097Y019375D01*
X018094Y019379D01*
X018036Y019379D01*
X017975Y019382D01*
X017975Y019458D01*
X017876Y019557D01*
X017460Y019557D01*
X017361Y019458D01*
X017361Y019042D01*
X017460Y018943D01*
X017876Y018943D01*
X017975Y019042D01*
X017975Y019073D01*
X019110Y017938D01*
X019110Y017882D02*
X018975Y017882D01*
X019092Y017783D02*
X019110Y017783D01*
X019410Y017783D02*
X019610Y017783D01*
X019610Y017685D02*
X019410Y017685D01*
X019410Y017586D02*
X019610Y017586D01*
X019610Y017488D02*
X019410Y017488D01*
X019410Y017389D02*
X019610Y017389D01*
X019610Y017291D02*
X019410Y017291D01*
X019410Y017192D02*
X019610Y017192D01*
X019610Y017094D02*
X019410Y017094D01*
X019410Y016995D02*
X019610Y016995D01*
X019610Y016897D02*
X019410Y016897D01*
X019410Y016798D02*
X019610Y016798D01*
X019610Y016700D02*
X019410Y016700D01*
X019410Y016601D02*
X019610Y016601D01*
X019610Y016503D02*
X019410Y016503D01*
X019410Y016404D02*
X019486Y016404D01*
X019110Y016404D02*
X017995Y016404D01*
X017995Y016503D02*
X019110Y016503D01*
X019110Y016601D02*
X017995Y016601D01*
X017995Y016700D02*
X018628Y016700D01*
X018530Y016798D02*
X017995Y016798D01*
X017995Y016897D02*
X018525Y016897D01*
X018525Y016995D02*
X017995Y016995D01*
X017995Y017094D02*
X018525Y017094D01*
X018453Y017192D02*
X018067Y017192D01*
X018144Y017291D02*
X018376Y017291D01*
X018995Y017094D02*
X019110Y017094D01*
X019110Y017192D02*
X019067Y017192D01*
X019110Y016995D02*
X018995Y016995D01*
X018995Y016897D02*
X019110Y016897D01*
X019110Y016798D02*
X018991Y016798D01*
X018892Y016700D02*
X019110Y016700D01*
X019110Y016306D02*
X017948Y016306D01*
X017572Y016306D02*
X016995Y016306D01*
X016995Y016404D02*
X017525Y016404D01*
X017525Y016503D02*
X016995Y016503D01*
X016995Y016601D02*
X017525Y016601D01*
X017525Y016700D02*
X016995Y016700D01*
X016995Y016798D02*
X017525Y016798D01*
X017525Y016897D02*
X016995Y016897D01*
X016995Y016995D02*
X017525Y016995D01*
X017525Y017094D02*
X016995Y017094D01*
X017067Y017192D02*
X017453Y017192D01*
X017376Y017291D02*
X017144Y017291D01*
X016525Y017094D02*
X016159Y017094D01*
X016195Y017192D02*
X016453Y017192D01*
X016376Y017291D02*
X016195Y017291D01*
X016195Y017389D02*
X016336Y017389D01*
X016525Y016995D02*
X015995Y016995D01*
X015995Y016897D02*
X016525Y016897D01*
X016525Y016798D02*
X015995Y016798D01*
X015917Y016700D02*
X016525Y016700D01*
X016525Y016601D02*
X015819Y016601D01*
X015720Y016503D02*
X016525Y016503D01*
X016525Y016404D02*
X015622Y016404D01*
X015523Y016306D02*
X016525Y016306D01*
X016525Y016207D02*
X015425Y016207D01*
X015326Y016109D02*
X016525Y016109D01*
X016525Y016010D02*
X015245Y016010D01*
X015245Y015912D02*
X016616Y015912D01*
X016643Y015813D02*
X016547Y015813D01*
X016547Y015827D02*
X016384Y015827D01*
X016356Y015819D01*
X016331Y015805D01*
X016310Y015784D01*
X016296Y015759D01*
X016288Y015731D01*
X016288Y015548D01*
X016547Y015548D01*
X016547Y015827D01*
X016547Y015715D02*
X016643Y015715D01*
X016643Y015616D02*
X016547Y015616D01*
X016547Y015518D02*
X016233Y015518D01*
X016233Y015616D02*
X016288Y015616D01*
X016288Y015715D02*
X016233Y015715D01*
X016182Y015813D02*
X016345Y015813D01*
X016288Y015419D02*
X016233Y015419D01*
X016233Y015321D02*
X016288Y015321D01*
X016275Y015222D02*
X016217Y015222D01*
X016177Y015124D02*
X016161Y015124D01*
X016643Y015518D02*
X017010Y015518D01*
X016912Y015616D02*
X016902Y015616D01*
X016902Y015419D02*
X017109Y015419D01*
X017207Y015321D02*
X016902Y015321D01*
X017371Y015222D02*
X019326Y015222D01*
X019292Y015124D02*
X017469Y015124D01*
X017568Y015025D02*
X019280Y015025D01*
X019280Y014927D02*
X017666Y014927D01*
X017765Y014828D02*
X019312Y014828D01*
X019353Y014730D02*
X017863Y014730D01*
X017962Y014631D02*
X019450Y014631D01*
X019635Y014533D02*
X017995Y014533D01*
X017995Y014434D02*
X019554Y014434D01*
X019488Y014407D02*
X019665Y014480D01*
X019856Y014480D01*
X020032Y014407D01*
X020167Y014272D01*
X020240Y014095D01*
X020240Y013905D01*
X020167Y013728D01*
X020032Y013593D01*
X019856Y013520D01*
X019665Y013520D01*
X019488Y013593D01*
X019353Y013728D01*
X019280Y013905D01*
X019280Y014095D01*
X019353Y014272D01*
X019488Y014407D01*
X019417Y014336D02*
X017995Y014336D01*
X017995Y014237D02*
X019339Y014237D01*
X019298Y014139D02*
X017995Y014139D01*
X017995Y014040D02*
X019280Y014040D01*
X019280Y013942D02*
X017995Y013942D01*
X017995Y013843D02*
X019306Y013843D01*
X019347Y013745D02*
X017995Y013745D01*
X017995Y013646D02*
X019435Y013646D01*
X019598Y013548D02*
X017995Y013548D01*
X017995Y013449D02*
X019590Y013449D01*
X019432Y013351D02*
X017995Y013351D01*
X017995Y013252D02*
X019345Y013252D01*
X019304Y013154D02*
X017995Y013154D01*
X017995Y013055D02*
X018166Y013055D01*
X018385Y012850D02*
X018223Y012688D01*
X018223Y011163D01*
X018290Y011230D01*
X018481Y011230D01*
X018485Y011225D01*
X018485Y011750D01*
X018798Y012062D01*
X018886Y012150D01*
X019303Y012150D01*
X019353Y012272D01*
X019488Y012407D01*
X019665Y012480D01*
X019856Y012480D01*
X020032Y012407D01*
X020167Y012272D01*
X020240Y012095D01*
X020240Y011905D01*
X020167Y011728D01*
X020032Y011593D01*
X019856Y011520D01*
X019665Y011520D01*
X019488Y011593D01*
X019353Y011728D01*
X019303Y011850D01*
X019010Y011850D01*
X018785Y011625D01*
X018785Y011600D01*
X018915Y011730D01*
X019106Y011730D01*
X019240Y011595D01*
X019240Y011405D01*
X019160Y011325D01*
X019160Y009375D01*
X019457Y009375D01*
X019488Y009407D01*
X019353Y009272D01*
X019280Y009095D01*
X019280Y008905D01*
X019353Y008728D01*
X019488Y008593D01*
X019665Y008520D01*
X019856Y008520D01*
X020032Y008593D01*
X020167Y008728D01*
X020240Y008905D01*
X020240Y009095D01*
X020167Y009272D01*
X020032Y009407D01*
X019856Y009480D01*
X019665Y009480D01*
X019488Y009407D01*
X019665Y009480D01*
X019856Y009480D01*
X020032Y009407D01*
X020064Y009375D01*
X022060Y009375D01*
X022060Y013375D01*
X020064Y013375D01*
X020167Y013272D01*
X020240Y013095D01*
X020240Y012905D01*
X020167Y012728D01*
X020032Y012593D01*
X019856Y012520D01*
X019665Y012520D01*
X019488Y012593D01*
X019353Y012728D01*
X019303Y012850D01*
X018385Y012850D01*
X018295Y012760D02*
X019340Y012760D01*
X019421Y012661D02*
X018223Y012661D01*
X018223Y012563D02*
X019562Y012563D01*
X019626Y012464D02*
X018223Y012464D01*
X018223Y012366D02*
X019447Y012366D01*
X019351Y012267D02*
X018223Y012267D01*
X018223Y012169D02*
X019311Y012169D01*
X019334Y011775D02*
X018935Y011775D01*
X018861Y011676D02*
X018836Y011676D01*
X018609Y011873D02*
X018223Y011873D01*
X018223Y011775D02*
X018510Y011775D01*
X018485Y011676D02*
X018223Y011676D01*
X018223Y011578D02*
X018485Y011578D01*
X018485Y011479D02*
X018223Y011479D01*
X018223Y011381D02*
X018485Y011381D01*
X018485Y011282D02*
X018223Y011282D01*
X018223Y011184D02*
X018244Y011184D01*
X018223Y011972D02*
X018707Y011972D01*
X018806Y012070D02*
X018223Y012070D01*
X017525Y012070D02*
X017306Y012070D01*
X017230Y012166D02*
X017295Y012230D01*
X017295Y012912D01*
X017230Y012976D01*
X016509Y012976D01*
X016486Y012953D01*
X016042Y012953D01*
X016042Y013000D01*
X016042Y013038D01*
X016523Y013038D01*
X016540Y013020D01*
X016731Y013020D01*
X016865Y013155D01*
X016865Y013345D01*
X016836Y013375D01*
X017525Y013375D01*
X017525Y011935D01*
X017481Y011980D01*
X017396Y011980D01*
X017210Y012166D01*
X017230Y012166D01*
X017233Y012169D02*
X017525Y012169D01*
X017525Y012267D02*
X017295Y012267D01*
X017295Y012366D02*
X017525Y012366D01*
X017525Y012464D02*
X017295Y012464D01*
X017295Y012563D02*
X017525Y012563D01*
X017525Y012661D02*
X017295Y012661D01*
X017295Y012760D02*
X017525Y012760D01*
X017525Y012858D02*
X017295Y012858D01*
X017250Y012957D02*
X017525Y012957D01*
X017525Y013055D02*
X016766Y013055D01*
X016864Y013154D02*
X017525Y013154D01*
X017525Y013252D02*
X016865Y013252D01*
X016860Y013351D02*
X017525Y013351D01*
X017525Y013942D02*
X017483Y013985D01*
X016385Y013985D01*
X016385Y014213D01*
X016688Y014213D01*
X016752Y014277D01*
X016752Y014723D01*
X016739Y014736D01*
X016739Y014765D01*
X016811Y014765D01*
X016790Y014745D01*
X016776Y014720D01*
X016768Y014692D01*
X016768Y014519D01*
X016997Y014519D01*
X016997Y014481D01*
X016768Y014481D01*
X016768Y014308D01*
X016776Y014280D01*
X016790Y014255D01*
X016811Y014235D01*
X016836Y014220D01*
X016864Y014213D01*
X016997Y014213D01*
X016997Y014481D01*
X017035Y014481D01*
X017035Y014213D01*
X017169Y014213D01*
X017197Y014220D01*
X017222Y014235D01*
X017242Y014255D01*
X017257Y014280D01*
X017264Y014308D01*
X017264Y014481D01*
X017035Y014481D01*
X017035Y014519D01*
X017264Y014519D01*
X017264Y014664D01*
X017525Y014403D01*
X017525Y013942D01*
X017525Y014040D02*
X016385Y014040D01*
X016385Y014139D02*
X017525Y014139D01*
X017525Y014237D02*
X017224Y014237D01*
X017264Y014336D02*
X017525Y014336D01*
X017494Y014434D02*
X017264Y014434D01*
X017264Y014533D02*
X017395Y014533D01*
X017297Y014631D02*
X017264Y014631D01*
X017035Y014434D02*
X016997Y014434D01*
X016997Y014336D02*
X017035Y014336D01*
X017035Y014237D02*
X016997Y014237D01*
X016809Y014237D02*
X016712Y014237D01*
X016752Y014336D02*
X016768Y014336D01*
X016768Y014434D02*
X016752Y014434D01*
X016752Y014533D02*
X016768Y014533D01*
X016768Y014631D02*
X016752Y014631D01*
X016745Y014730D02*
X016782Y014730D01*
X017563Y015321D02*
X019228Y015321D01*
X019129Y015419D02*
X017620Y015419D01*
X017620Y015518D02*
X019110Y015518D01*
X019110Y015616D02*
X017577Y015616D01*
X017478Y015715D02*
X019110Y015715D01*
X019110Y015813D02*
X017380Y015813D01*
X017281Y015912D02*
X019110Y015912D01*
X019110Y016010D02*
X017183Y016010D01*
X017084Y016109D02*
X019110Y016109D01*
X019110Y016207D02*
X016995Y016207D01*
X015670Y015813D02*
X015245Y015813D01*
X015245Y015715D02*
X015619Y015715D01*
X015619Y015616D02*
X015245Y015616D01*
X015245Y015518D02*
X015619Y015518D01*
X015619Y015419D02*
X015245Y015419D01*
X015510Y015321D02*
X015619Y015321D01*
X015635Y015222D02*
X015510Y015222D01*
X015510Y015124D02*
X015552Y015124D01*
X015137Y015109D02*
X015137Y014908D01*
X014963Y014734D01*
X014965Y013772D01*
X014962Y013772D01*
X014947Y014265D01*
X014854Y014313D01*
X014854Y015109D01*
X015137Y015109D01*
X015137Y015025D02*
X014854Y015025D01*
X014854Y014927D02*
X015137Y014927D01*
X015057Y014828D02*
X014854Y014828D01*
X014854Y014730D02*
X014963Y014730D01*
X014964Y014631D02*
X014854Y014631D01*
X014854Y014533D02*
X014964Y014533D01*
X014964Y014434D02*
X014854Y014434D01*
X014854Y014336D02*
X014964Y014336D01*
X014964Y014237D02*
X014948Y014237D01*
X014951Y014139D02*
X014965Y014139D01*
X014954Y014040D02*
X014965Y014040D01*
X014957Y013942D02*
X014965Y013942D01*
X014960Y013843D02*
X014965Y013843D01*
X015144Y013928D02*
X015144Y014615D01*
X015287Y014615D01*
X015287Y014350D01*
X015177Y014240D01*
X015177Y013928D01*
X015144Y013928D01*
X015144Y013942D02*
X015177Y013942D01*
X015177Y014040D02*
X015144Y014040D01*
X015144Y014139D02*
X015177Y014139D01*
X015177Y014237D02*
X015144Y014237D01*
X015144Y014336D02*
X015273Y014336D01*
X015287Y014434D02*
X015144Y014434D01*
X015144Y014533D02*
X015287Y014533D01*
X015514Y014279D02*
X015680Y014279D01*
X015665Y013993D01*
X015620Y013948D01*
X015409Y013767D01*
X015349Y013767D01*
X015349Y014083D01*
X015514Y014279D01*
X015479Y014237D02*
X015678Y014237D01*
X015673Y014139D02*
X015395Y014139D01*
X015349Y014040D02*
X015667Y014040D01*
X015612Y013942D02*
X015349Y013942D01*
X015349Y013843D02*
X015497Y013843D01*
X015672Y013745D02*
X016102Y013745D01*
X016102Y013842D02*
X016102Y013571D01*
X015499Y013571D01*
X015499Y013632D01*
X015559Y013632D01*
X015770Y013842D01*
X016102Y013842D01*
X016102Y013646D02*
X015574Y013646D01*
X015369Y013375D02*
X015369Y013092D01*
X015433Y013028D01*
X015977Y013028D01*
X015987Y013038D01*
X016135Y013038D01*
X016135Y012953D01*
X015996Y012953D01*
X015977Y012972D01*
X015433Y012972D01*
X015369Y012908D01*
X015369Y012391D01*
X014152Y012391D01*
X014152Y013105D01*
X014087Y013169D01*
X013544Y013169D01*
X013524Y013150D01*
X013385Y013150D01*
X013385Y013244D01*
X013524Y013244D01*
X013544Y013225D01*
X014087Y013225D01*
X014152Y013289D01*
X014152Y013375D01*
X015369Y013375D01*
X015369Y013351D02*
X014152Y013351D01*
X014115Y013252D02*
X015369Y013252D01*
X015369Y013154D02*
X014103Y013154D01*
X014152Y013055D02*
X015406Y013055D01*
X015369Y013050D02*
X015369Y013000D01*
X015705Y013000D01*
X015369Y013000D01*
X015369Y012950D01*
X014810Y012950D01*
X014810Y013050D01*
X015369Y013050D01*
X015369Y012957D02*
X014810Y012957D01*
X015369Y012858D02*
X014152Y012858D01*
X014152Y012760D02*
X015369Y012760D01*
X015369Y012661D02*
X014152Y012661D01*
X014152Y012563D02*
X015369Y012563D01*
X015369Y012464D02*
X014152Y012464D01*
X014001Y012240D02*
X014001Y012098D01*
X013866Y011964D01*
X013866Y011287D01*
X013833Y011287D01*
X013768Y011223D01*
X013768Y010777D01*
X013833Y010713D01*
X014200Y010713D01*
X014205Y010718D01*
X014261Y010663D01*
X014386Y010538D01*
X015410Y010538D01*
X015280Y010408D01*
X015280Y010217D01*
X015360Y010137D01*
X015360Y009982D01*
X015233Y010110D01*
X015038Y010110D01*
X014900Y009972D01*
X014900Y009375D01*
X014402Y009375D01*
X014402Y009452D01*
X014143Y009452D01*
X014143Y009215D01*
X014025Y009097D01*
X013769Y008841D01*
X013769Y008736D01*
X013769Y008735D01*
X012983Y008735D01*
X012828Y008735D01*
X013266Y009173D01*
X013668Y009173D01*
X013733Y009238D01*
X013733Y009500D01*
X014047Y009500D01*
X014047Y009452D01*
X014143Y009452D01*
X014143Y009500D01*
X014900Y009500D01*
X014900Y009347D01*
X014788Y009235D01*
X014391Y009235D01*
X014394Y009241D01*
X014402Y009269D01*
X014402Y009452D01*
X014143Y009452D01*
X014143Y009548D01*
X014047Y009548D01*
X014047Y009452D01*
X014047Y009173D01*
X013884Y009173D01*
X013856Y009181D01*
X013831Y009195D01*
X013810Y009216D01*
X013796Y009241D01*
X013788Y009269D01*
X013788Y009452D01*
X014047Y009452D01*
X013788Y009452D01*
X013788Y009375D01*
X013733Y009375D01*
X013733Y009762D01*
X013668Y009827D01*
X013183Y009827D01*
X013119Y009762D01*
X013119Y009691D01*
X012803Y009375D01*
X012495Y009375D01*
X012495Y011097D01*
X012358Y011235D01*
X012163Y011235D01*
X012145Y011217D01*
X012145Y012514D01*
X012163Y012496D01*
X012530Y012496D01*
X012530Y012467D01*
X012665Y012333D01*
X012856Y012333D01*
X012979Y012456D01*
X013479Y012456D01*
X013479Y012305D01*
X013544Y012240D01*
X014001Y012240D01*
X014001Y012169D02*
X012145Y012169D01*
X012145Y012267D02*
X013517Y012267D01*
X013479Y012366D02*
X012889Y012366D01*
X012632Y012366D02*
X012145Y012366D01*
X012145Y012464D02*
X012534Y012464D01*
X012145Y012070D02*
X013973Y012070D01*
X013874Y011972D02*
X012145Y011972D01*
X012145Y011873D02*
X013866Y011873D01*
X013866Y011775D02*
X012145Y011775D01*
X012145Y011676D02*
X013866Y011676D01*
X013866Y011578D02*
X012145Y011578D01*
X012145Y011479D02*
X013866Y011479D01*
X013866Y011381D02*
X012145Y011381D01*
X012145Y011282D02*
X013333Y011282D01*
X013324Y011280D02*
X013299Y011265D01*
X013279Y011245D01*
X013264Y011220D01*
X013257Y011192D01*
X013257Y011019D01*
X013486Y011019D01*
X013486Y011287D01*
X013352Y011287D01*
X013324Y011280D01*
X013257Y011184D02*
X012409Y011184D01*
X012495Y011085D02*
X013257Y011085D01*
X013257Y010981D02*
X013257Y010808D01*
X013264Y010780D01*
X013279Y010755D01*
X013299Y010735D01*
X013324Y010720D01*
X013352Y010713D01*
X013486Y010713D01*
X013486Y010981D01*
X013523Y010981D01*
X013523Y010713D01*
X013657Y010713D01*
X013685Y010720D01*
X013710Y010735D01*
X013730Y010755D01*
X013745Y010780D01*
X013752Y010808D01*
X013752Y010981D01*
X013523Y010981D01*
X013523Y011019D01*
X013486Y011019D01*
X013486Y010981D01*
X013257Y010981D01*
X013257Y010888D02*
X012495Y010888D01*
X012495Y010790D02*
X013262Y010790D01*
X013486Y010790D02*
X013523Y010790D01*
X013523Y010888D02*
X013486Y010888D01*
X013486Y010987D02*
X012495Y010987D01*
X012495Y010691D02*
X014232Y010691D01*
X014331Y010593D02*
X012495Y010593D01*
X012495Y010494D02*
X015367Y010494D01*
X015280Y010396D02*
X012495Y010396D01*
X012495Y010297D02*
X015280Y010297D01*
X015299Y010199D02*
X012495Y010199D01*
X012495Y010100D02*
X015028Y010100D01*
X014930Y010002D02*
X012495Y010002D01*
X012495Y009903D02*
X014900Y009903D01*
X014900Y009805D02*
X014359Y009805D01*
X014334Y009819D01*
X014306Y009827D01*
X014143Y009827D01*
X014143Y009548D01*
X014402Y009548D01*
X014402Y009731D01*
X014394Y009759D01*
X014380Y009784D01*
X014359Y009805D01*
X014402Y009706D02*
X014900Y009706D01*
X014900Y009608D02*
X014402Y009608D01*
X014402Y009411D02*
X014900Y009411D01*
X014402Y009411D01*
X014402Y009312D02*
X014865Y009312D01*
X014900Y009509D02*
X014143Y009509D01*
X014047Y009509D02*
X013733Y009509D01*
X013788Y009548D02*
X014047Y009548D01*
X014047Y009827D01*
X013884Y009827D01*
X013856Y009819D01*
X013831Y009805D01*
X013810Y009784D01*
X013796Y009759D01*
X013788Y009731D01*
X013788Y009548D01*
X013788Y009608D02*
X013733Y009608D01*
X013733Y009706D02*
X013788Y009706D01*
X013831Y009805D02*
X013690Y009805D01*
X014047Y009805D02*
X014143Y009805D01*
X014143Y009706D02*
X014047Y009706D01*
X014047Y009608D02*
X014143Y009608D01*
X014143Y009411D02*
X014047Y009411D01*
X014047Y009312D02*
X014143Y009312D01*
X014142Y009214D02*
X014047Y009214D01*
X014043Y009115D02*
X013208Y009115D01*
X013109Y009017D02*
X013945Y009017D01*
X013846Y008918D02*
X013011Y008918D01*
X012912Y008820D02*
X013769Y008820D01*
X013813Y009214D02*
X013708Y009214D01*
X013733Y009312D02*
X013788Y009312D01*
X013788Y009411D02*
X013733Y009411D01*
X013788Y009411D01*
X013119Y009706D02*
X012495Y009706D01*
X012495Y009608D02*
X013036Y009608D01*
X012937Y009509D02*
X012495Y009509D01*
X012495Y009411D02*
X012839Y009411D01*
X013161Y009805D02*
X012495Y009805D01*
X012137Y009109D02*
X011854Y009109D01*
X011854Y008313D01*
X011947Y008265D01*
X011962Y007772D01*
X011965Y007772D01*
X011963Y008734D01*
X012137Y008908D01*
X012137Y009109D01*
X012137Y009017D02*
X011854Y009017D01*
X011854Y008918D02*
X012137Y008918D01*
X012049Y008820D02*
X011854Y008820D01*
X011854Y008721D02*
X011964Y008721D01*
X011964Y008623D02*
X011854Y008623D01*
X011854Y008524D02*
X011964Y008524D01*
X011964Y008426D02*
X011854Y008426D01*
X011854Y008327D02*
X011964Y008327D01*
X011964Y008229D02*
X011948Y008229D01*
X011951Y008130D02*
X011965Y008130D01*
X011954Y008032D02*
X011965Y008032D01*
X011957Y007933D02*
X011965Y007933D01*
X011960Y007835D02*
X011965Y007835D01*
X012144Y007928D02*
X012144Y008615D01*
X012287Y008615D01*
X012287Y008350D01*
X012177Y008240D01*
X012177Y007928D01*
X012144Y007928D01*
X012144Y007933D02*
X012177Y007933D01*
X012177Y008032D02*
X012144Y008032D01*
X012144Y008130D02*
X012177Y008130D01*
X012177Y008229D02*
X012144Y008229D01*
X012144Y008327D02*
X012264Y008327D01*
X012287Y008426D02*
X012144Y008426D01*
X012144Y008524D02*
X012287Y008524D01*
X012514Y008279D02*
X012680Y008279D01*
X012665Y007993D01*
X012620Y007948D01*
X012409Y007767D01*
X012349Y007767D01*
X012349Y008083D01*
X012514Y008279D01*
X012471Y008229D02*
X012677Y008229D01*
X012672Y008130D02*
X012388Y008130D01*
X012349Y008032D02*
X012667Y008032D01*
X012602Y007933D02*
X012349Y007933D01*
X012349Y007835D02*
X012487Y007835D01*
X012664Y007736D02*
X013102Y007736D01*
X013102Y007638D02*
X012565Y007638D01*
X012559Y007632D02*
X012770Y007842D01*
X013102Y007842D01*
X013102Y007571D01*
X012499Y007571D01*
X012499Y007632D01*
X012559Y007632D01*
X012762Y007835D02*
X013102Y007835D01*
X013385Y007985D02*
X013385Y008125D01*
X013010Y008125D01*
X013010Y008265D01*
X013769Y008265D01*
X013821Y008213D01*
X014188Y008213D01*
X014252Y008277D01*
X014252Y008660D01*
X014268Y008676D01*
X014268Y008519D01*
X014497Y008519D01*
X014497Y008481D01*
X014268Y008481D01*
X014268Y008308D01*
X014276Y008280D01*
X014290Y008255D01*
X014311Y008235D01*
X014336Y008220D01*
X014364Y008213D01*
X014497Y008213D01*
X014497Y008481D01*
X014535Y008481D01*
X014535Y008213D01*
X014669Y008213D01*
X014697Y008220D01*
X014722Y008235D01*
X014742Y008255D01*
X014757Y008280D01*
X014764Y008308D01*
X014764Y008481D01*
X014535Y008481D01*
X014535Y008519D01*
X014764Y008519D01*
X014764Y008692D01*
X014757Y008720D01*
X014742Y008745D01*
X014722Y008765D01*
X014983Y008765D01*
X015233Y009015D01*
X015280Y009063D01*
X015280Y008905D01*
X015298Y008887D01*
X015298Y006250D01*
X015011Y005962D01*
X014135Y005962D01*
X013444Y006653D01*
X013960Y006653D01*
X013960Y006230D01*
X014025Y006166D01*
X014746Y006166D01*
X014810Y006230D01*
X014810Y006912D01*
X014746Y006976D01*
X014025Y006976D01*
X014002Y006953D01*
X013042Y006953D01*
X013042Y007000D01*
X013042Y007038D01*
X013585Y007038D01*
X013665Y006958D01*
X013856Y006958D01*
X013990Y007092D01*
X013990Y007283D01*
X013856Y007417D01*
X013665Y007417D01*
X013585Y007337D01*
X013042Y007337D01*
X013042Y007375D01*
X013385Y007375D01*
X013385Y007515D01*
X013708Y007515D01*
X013845Y007653D01*
X013845Y007847D01*
X013708Y007985D01*
X013385Y007985D01*
X013385Y008032D02*
X015298Y008032D01*
X015298Y008130D02*
X013010Y008130D01*
X013010Y008229D02*
X013805Y008229D01*
X013760Y007933D02*
X015298Y007933D01*
X015298Y007835D02*
X013845Y007835D01*
X013845Y007736D02*
X015298Y007736D01*
X015298Y007638D02*
X013830Y007638D01*
X013732Y007539D02*
X015298Y007539D01*
X015298Y007441D02*
X013385Y007441D01*
X013590Y007342D02*
X013042Y007342D01*
X012987Y007038D02*
X013260Y007038D01*
X013260Y006953D01*
X012996Y006953D01*
X012977Y006972D01*
X012433Y006972D01*
X012369Y006908D01*
X012369Y006391D01*
X011152Y006391D01*
X011152Y007105D01*
X011087Y007169D01*
X010544Y007169D01*
X010524Y007150D01*
X010385Y007150D01*
X010385Y007225D01*
X010491Y007225D01*
X010495Y007221D01*
X010547Y007225D01*
X011087Y007225D01*
X011113Y007250D01*
X012369Y007250D01*
X012369Y007092D01*
X012433Y007028D01*
X012977Y007028D01*
X012987Y007038D01*
X013042Y007000D02*
X012705Y007000D01*
X012369Y007000D01*
X012369Y007050D01*
X011810Y007050D01*
X011810Y006950D01*
X012369Y006950D01*
X012369Y007000D01*
X012705Y007000D01*
X012705Y007000D01*
X012705Y007000D01*
X013042Y007000D01*
X013445Y006653D02*
X013960Y006653D01*
X013960Y006554D02*
X013543Y006554D01*
X013642Y006456D02*
X013960Y006456D01*
X013960Y006357D02*
X013740Y006357D01*
X013839Y006259D02*
X013960Y006259D01*
X013937Y006160D02*
X015208Y006160D01*
X015298Y006259D02*
X014810Y006259D01*
X014810Y006357D02*
X015298Y006357D01*
X015298Y006456D02*
X014810Y006456D01*
X014810Y006554D02*
X015298Y006554D01*
X015298Y006653D02*
X014810Y006653D01*
X014810Y006751D02*
X015298Y006751D01*
X015298Y006850D02*
X014810Y006850D01*
X014774Y006948D02*
X015298Y006948D01*
X015298Y007047D02*
X013945Y007047D01*
X013990Y007145D02*
X015298Y007145D01*
X015298Y007244D02*
X013990Y007244D01*
X013931Y007342D02*
X015298Y007342D01*
X015598Y007342D02*
X016465Y007342D01*
X016465Y007244D02*
X015598Y007244D01*
X015598Y007145D02*
X016465Y007145D01*
X016465Y007047D02*
X015598Y007047D01*
X015598Y006948D02*
X016465Y006948D01*
X016465Y006850D02*
X015598Y006850D01*
X015598Y006751D02*
X016465Y006751D01*
X016465Y006653D02*
X015598Y006653D01*
X015598Y006554D02*
X016465Y006554D01*
X016465Y006456D02*
X015598Y006456D01*
X015598Y006357D02*
X016465Y006357D01*
X016465Y006259D02*
X015598Y006259D01*
X015598Y006160D02*
X016408Y006160D01*
X016405Y006062D02*
X015534Y006062D01*
X015436Y005963D02*
X016410Y005963D01*
X016508Y005865D02*
X015337Y005865D01*
X015239Y005766D02*
X018235Y005766D01*
X018235Y005668D02*
X015140Y005668D01*
X015061Y005638D02*
X014497Y005638D01*
X014433Y005573D01*
X014433Y005010D01*
X014497Y004945D01*
X014610Y004945D01*
X014610Y004925D01*
X014530Y004845D01*
X014530Y004655D01*
X014665Y004520D01*
X014856Y004520D01*
X014990Y004655D01*
X014990Y004845D01*
X014910Y004925D01*
X014910Y004945D01*
X015061Y004945D01*
X015125Y005010D01*
X015125Y005573D01*
X015061Y005638D01*
X015125Y005569D02*
X018235Y005569D01*
X018235Y005471D02*
X015125Y005471D01*
X015125Y005372D02*
X018235Y005372D01*
X018235Y005274D02*
X015125Y005274D01*
X015125Y005175D02*
X018235Y005175D01*
X018235Y005077D02*
X015125Y005077D01*
X015094Y004978D02*
X018235Y004978D01*
X018235Y004880D02*
X014956Y004880D01*
X014990Y004781D02*
X018235Y004781D01*
X018235Y004683D02*
X014990Y004683D01*
X014920Y004584D02*
X018235Y004584D01*
X018235Y004486D02*
X013678Y004486D01*
X013678Y004584D02*
X014601Y004584D01*
X014530Y004683D02*
X013591Y004683D01*
X013305Y004683D02*
X013264Y004683D01*
X013206Y004781D02*
X014530Y004781D01*
X014565Y004880D02*
X013060Y004880D01*
X013059Y004978D02*
X013677Y004978D01*
X013667Y004988D02*
X013688Y004967D01*
X013713Y004953D01*
X013741Y004945D01*
X013942Y004945D01*
X013942Y005241D01*
X014042Y005241D01*
X014042Y005341D01*
X014338Y005341D01*
X014338Y005542D01*
X014330Y005570D01*
X014316Y005595D01*
X014295Y005616D01*
X014270Y005630D01*
X014242Y005638D01*
X014042Y005638D01*
X014042Y005341D01*
X013942Y005341D01*
X013942Y005241D01*
X013645Y005241D01*
X013645Y005041D01*
X013653Y005013D01*
X013667Y004988D01*
X013645Y005077D02*
X013059Y005077D01*
X013058Y005175D02*
X013645Y005175D01*
X013645Y005341D02*
X013942Y005341D01*
X013942Y005638D01*
X013741Y005638D01*
X013713Y005630D01*
X013688Y005616D01*
X013667Y005595D01*
X013653Y005570D01*
X013645Y005542D01*
X013645Y005341D01*
X013645Y005372D02*
X013057Y005372D01*
X013058Y005274D02*
X013942Y005274D01*
X013942Y005372D02*
X014042Y005372D01*
X014042Y005274D02*
X014433Y005274D01*
X014433Y005372D02*
X014338Y005372D01*
X014338Y005471D02*
X014433Y005471D01*
X014433Y005569D02*
X014331Y005569D01*
X014042Y005569D02*
X013942Y005569D01*
X013942Y005471D02*
X014042Y005471D01*
X014006Y005668D02*
X013115Y005668D01*
X013115Y005766D02*
X013907Y005766D01*
X013809Y005865D02*
X013096Y005865D01*
X013061Y005963D02*
X013710Y005963D01*
X013612Y006062D02*
X013063Y006062D01*
X013061Y006160D02*
X013513Y006160D01*
X013415Y006259D02*
X013061Y006259D01*
X013042Y006357D02*
X013316Y006357D01*
X013218Y006456D02*
X013042Y006456D01*
X012369Y006456D02*
X011152Y006456D01*
X011152Y006554D02*
X012369Y006554D01*
X012369Y006653D02*
X011152Y006653D01*
X011152Y006751D02*
X012369Y006751D01*
X012369Y006850D02*
X011152Y006850D01*
X011152Y006948D02*
X012409Y006948D01*
X012415Y007047D02*
X011152Y007047D01*
X011111Y007145D02*
X012369Y007145D01*
X012369Y007047D02*
X011810Y007047D01*
X012369Y007244D02*
X011106Y007244D01*
X010993Y007586D02*
X010330Y007586D01*
X010330Y007873D01*
X010722Y007873D01*
X010993Y007586D01*
X010944Y007638D02*
X010330Y007638D01*
X010330Y007736D02*
X010851Y007736D01*
X010758Y007835D02*
X010330Y007835D01*
X010797Y008098D02*
X010797Y008294D01*
X011023Y008294D01*
X011174Y008144D01*
X011174Y007782D01*
X011174Y007767D01*
X011128Y007767D01*
X010918Y007978D01*
X010797Y008098D01*
X010797Y008130D02*
X011174Y008130D01*
X011174Y008032D02*
X010864Y008032D01*
X010963Y007933D02*
X011174Y007933D01*
X011174Y007835D02*
X011061Y007835D01*
X011366Y007835D02*
X011370Y007835D01*
X011370Y007781D02*
X011370Y008619D01*
X011198Y008620D01*
X011198Y008405D01*
X011353Y008250D01*
X011368Y007780D01*
X011370Y007781D01*
X011363Y007933D02*
X011370Y007933D01*
X011360Y008032D02*
X011370Y008032D01*
X011357Y008130D02*
X011370Y008130D01*
X011370Y008229D02*
X011354Y008229D01*
X011370Y008327D02*
X011276Y008327D01*
X011198Y008426D02*
X011370Y008426D01*
X011370Y008524D02*
X011198Y008524D01*
X011557Y008781D02*
X011416Y008922D01*
X011416Y009125D01*
X011667Y009125D01*
X011667Y008344D01*
X011574Y008221D01*
X011574Y007774D01*
X011557Y007774D01*
X011557Y008781D01*
X011519Y008820D02*
X011667Y008820D01*
X011667Y008918D02*
X011420Y008918D01*
X011416Y009017D02*
X011667Y009017D01*
X011667Y009115D02*
X011416Y009115D01*
X011557Y008721D02*
X011667Y008721D01*
X011667Y008623D02*
X011557Y008623D01*
X011557Y008524D02*
X011667Y008524D01*
X011667Y008426D02*
X011557Y008426D01*
X011557Y008327D02*
X011654Y008327D01*
X011580Y008229D02*
X011557Y008229D01*
X011574Y008221D02*
X011557Y007774D01*
X011574Y007774D01*
X011574Y008221D01*
X011574Y008130D02*
X011557Y008130D01*
X011570Y008130D02*
X011574Y008130D01*
X011574Y008032D02*
X011557Y008032D01*
X011567Y008032D02*
X011574Y008032D01*
X011574Y007933D02*
X011557Y007933D01*
X011563Y007933D02*
X011574Y007933D01*
X011574Y007835D02*
X011557Y007835D01*
X011559Y007835D02*
X011574Y007835D01*
X011089Y008229D02*
X010797Y008229D01*
X010135Y008735D02*
X010135Y008793D01*
X009755Y009173D01*
X009353Y009173D01*
X009288Y009238D01*
X009288Y009500D01*
X008974Y009500D01*
X008974Y009452D01*
X009233Y009452D01*
X009233Y009269D01*
X009225Y009241D01*
X009211Y009216D01*
X009190Y009195D01*
X009165Y009181D01*
X009137Y009173D01*
X008974Y009173D01*
X008974Y009452D01*
X008974Y009548D01*
X009233Y009548D01*
X009233Y009731D01*
X009225Y009759D01*
X009211Y009784D01*
X009190Y009805D01*
X009165Y009819D01*
X009137Y009827D01*
X008974Y009827D01*
X008974Y009548D01*
X008877Y009548D01*
X008877Y009827D01*
X008714Y009827D01*
X008686Y009819D01*
X008661Y009805D01*
X008641Y009784D01*
X008626Y009759D01*
X008620Y009737D01*
X008620Y009972D01*
X008618Y009975D01*
X009891Y009975D01*
X009895Y009972D01*
X009952Y009975D01*
X010010Y009975D01*
X010014Y009979D01*
X010019Y009979D01*
X010057Y010022D01*
X010098Y010063D01*
X010098Y010068D01*
X010557Y010585D01*
X010598Y010625D01*
X010598Y010630D01*
X010601Y010634D01*
X010598Y010692D01*
X010598Y010830D01*
X010663Y010765D01*
X010858Y010765D01*
X010925Y010833D01*
X010925Y009495D01*
X010809Y009375D01*
X010218Y009375D01*
X009902Y009691D01*
X009902Y009762D01*
X009837Y009827D01*
X009353Y009827D01*
X009288Y009762D01*
X009288Y009375D01*
X009233Y009375D01*
X009233Y009452D01*
X008974Y009452D01*
X008877Y009452D01*
X008877Y009173D01*
X008714Y009173D01*
X008686Y009181D01*
X008661Y009195D01*
X008641Y009216D01*
X008626Y009241D01*
X008620Y009263D01*
X008620Y009172D01*
X009420Y009172D01*
X009558Y009035D01*
X009751Y008841D01*
X009751Y008736D01*
X009752Y008735D01*
X010135Y008735D01*
X010108Y008820D02*
X009751Y008820D01*
X009675Y008918D02*
X010010Y008918D01*
X009911Y009017D02*
X009576Y009017D01*
X009478Y009115D02*
X009813Y009115D01*
X010182Y009411D02*
X010844Y009411D01*
X010925Y009509D02*
X010084Y009509D01*
X009985Y009608D02*
X010925Y009608D01*
X010925Y009706D02*
X009902Y009706D01*
X009859Y009805D02*
X010925Y009805D01*
X010925Y009903D02*
X008620Y009903D01*
X008620Y009805D02*
X008661Y009805D01*
X008877Y009805D02*
X008974Y009805D01*
X008974Y009706D02*
X008877Y009706D01*
X008877Y009608D02*
X008974Y009608D01*
X008974Y009509D02*
X009288Y009509D01*
X009288Y009411D02*
X009233Y009411D01*
X009288Y009411D01*
X009288Y009312D02*
X009233Y009312D01*
X009208Y009214D02*
X009313Y009214D01*
X008974Y009214D02*
X008877Y009214D01*
X008877Y009312D02*
X008974Y009312D01*
X008974Y009411D02*
X008877Y009411D01*
X008643Y009214D02*
X008620Y009214D01*
X008150Y009214D02*
X007410Y009214D01*
X007410Y009312D02*
X008150Y009312D01*
X008150Y009411D02*
X007410Y009411D01*
X007410Y009115D02*
X008150Y009115D01*
X008150Y009017D02*
X007410Y009017D01*
X007410Y008918D02*
X008150Y008918D01*
X008150Y008820D02*
X007410Y008820D01*
X007410Y008721D02*
X008150Y008721D01*
X008150Y008623D02*
X007463Y008623D01*
X007490Y008524D02*
X008150Y008524D01*
X008104Y008426D02*
X007490Y008426D01*
X007413Y008327D02*
X008005Y008327D01*
X007963Y008229D02*
X006993Y008229D01*
X006993Y008327D02*
X007108Y008327D01*
X007030Y008426D02*
X006993Y008426D01*
X006993Y008524D02*
X007030Y008524D01*
X007058Y008623D02*
X006993Y008623D01*
X006993Y008721D02*
X007110Y008721D01*
X007110Y008820D02*
X006993Y008820D01*
X006993Y008918D02*
X007110Y008918D01*
X007110Y009017D02*
X006993Y009017D01*
X006993Y009115D02*
X007110Y009115D01*
X007110Y009214D02*
X006993Y009214D01*
X006993Y009312D02*
X007110Y009312D01*
X007110Y009411D02*
X006993Y009411D01*
X007093Y010482D02*
X007097Y010485D01*
X007117Y010505D01*
X007132Y010530D01*
X007139Y010558D01*
X007139Y010731D01*
X006910Y010731D01*
X006910Y010769D01*
X007139Y010769D01*
X007139Y010928D01*
X007240Y011030D01*
X007240Y011083D01*
X007356Y011083D01*
X007490Y011217D01*
X007490Y011245D01*
X007511Y011225D01*
X007535Y011225D01*
X007530Y011220D01*
X007530Y011030D01*
X007547Y011013D01*
X007507Y010973D01*
X007507Y010527D01*
X007551Y010482D01*
X007093Y010482D01*
X007106Y010494D02*
X007540Y010494D01*
X007507Y010593D02*
X007139Y010593D01*
X007139Y010691D02*
X007507Y010691D01*
X007507Y010790D02*
X007139Y010790D01*
X007139Y010888D02*
X007507Y010888D01*
X007520Y010987D02*
X007197Y010987D01*
X007358Y011085D02*
X007530Y011085D01*
X007530Y011184D02*
X007457Y011184D01*
X007986Y011225D02*
X008010Y011225D01*
X008135Y011350D01*
X008223Y011438D01*
X008223Y011712D01*
X008290Y011645D01*
X008481Y011645D01*
X008615Y011780D01*
X008615Y011970D01*
X008481Y012105D01*
X008290Y012105D01*
X008210Y012025D01*
X008093Y012025D01*
X008020Y012098D01*
X008020Y012240D01*
X008134Y012240D01*
X008169Y012205D01*
X008653Y012205D01*
X008653Y011301D01*
X008647Y011292D01*
X008603Y011292D01*
X008468Y011158D01*
X008468Y011017D01*
X008447Y011030D01*
X008419Y011037D01*
X008285Y011037D01*
X008285Y010769D01*
X008247Y010769D01*
X008247Y010731D01*
X008018Y010731D01*
X008018Y010558D01*
X008026Y010530D01*
X008040Y010505D01*
X008061Y010485D01*
X008065Y010482D01*
X007957Y010482D01*
X008002Y010527D01*
X008002Y010973D01*
X007968Y011007D01*
X007990Y011030D01*
X007990Y011220D01*
X007986Y011225D01*
X007990Y011184D02*
X008494Y011184D01*
X008468Y011085D02*
X007990Y011085D01*
X007988Y010987D02*
X008036Y010987D01*
X008040Y010995D02*
X008026Y010970D01*
X008018Y010942D01*
X008018Y010769D01*
X008247Y010769D01*
X008247Y011037D01*
X008114Y011037D01*
X008086Y011030D01*
X008061Y011015D01*
X008040Y010995D01*
X008018Y010888D02*
X008002Y010888D01*
X008002Y010790D02*
X008018Y010790D01*
X008018Y010691D02*
X008002Y010691D01*
X008002Y010593D02*
X008018Y010593D01*
X008052Y010494D02*
X007969Y010494D01*
X008285Y010731D02*
X008285Y010769D01*
X008514Y010769D01*
X008514Y010921D01*
X008528Y010907D01*
X008528Y010570D01*
X008513Y010556D01*
X008514Y010558D01*
X008514Y010731D01*
X008285Y010731D01*
X008285Y010790D02*
X008247Y010790D01*
X008247Y010888D02*
X008285Y010888D01*
X008285Y010987D02*
X008247Y010987D01*
X008514Y010888D02*
X008528Y010888D01*
X008514Y010790D02*
X008528Y010790D01*
X008514Y010691D02*
X008528Y010691D01*
X008514Y010593D02*
X008528Y010593D01*
X008868Y010593D02*
X009780Y010593D01*
X009780Y010530D02*
X009915Y010395D01*
X009987Y010395D01*
X009880Y010275D01*
X008713Y010275D01*
X008868Y010430D01*
X008868Y010570D01*
X008868Y010907D01*
X008928Y010967D01*
X008928Y010977D01*
X008938Y010967D01*
X008963Y010953D01*
X008991Y010945D01*
X009192Y010945D01*
X009192Y011241D01*
X009292Y011241D01*
X009292Y011341D01*
X009588Y011341D01*
X009588Y011542D01*
X009580Y011570D01*
X009566Y011595D01*
X009545Y011616D01*
X009520Y011630D01*
X009492Y011638D01*
X009292Y011638D01*
X009292Y011341D01*
X009192Y011341D01*
X009192Y011638D01*
X008993Y011638D01*
X008993Y012055D01*
X009073Y011975D01*
X009261Y011788D01*
X010023Y011788D01*
X010103Y011708D01*
X010293Y011708D01*
X010298Y011712D01*
X010298Y011638D01*
X009747Y011638D01*
X009683Y011573D01*
X009683Y011010D01*
X009747Y010945D01*
X009860Y010945D01*
X009860Y010800D01*
X009780Y010720D01*
X009780Y010530D01*
X009816Y010494D02*
X008868Y010494D01*
X008834Y010396D02*
X009915Y010396D01*
X009900Y010297D02*
X008735Y010297D01*
X008868Y010691D02*
X009780Y010691D01*
X009850Y010790D02*
X008868Y010790D01*
X008868Y010888D02*
X009860Y010888D01*
X009706Y010987D02*
X009565Y010987D01*
X009566Y010988D02*
X009580Y011013D01*
X009588Y011041D01*
X009588Y011241D01*
X009292Y011241D01*
X009292Y010945D01*
X009492Y010945D01*
X009520Y010953D01*
X009545Y010967D01*
X009566Y010988D01*
X009588Y011085D02*
X009683Y011085D01*
X009683Y011184D02*
X009588Y011184D01*
X009683Y011282D02*
X009292Y011282D01*
X009292Y011184D02*
X009192Y011184D01*
X009192Y011085D02*
X009292Y011085D01*
X009292Y010987D02*
X009192Y010987D01*
X009192Y011381D02*
X009292Y011381D01*
X009292Y011479D02*
X009192Y011479D01*
X009192Y011578D02*
X009292Y011578D01*
X009576Y011578D02*
X009687Y011578D01*
X009683Y011479D02*
X009588Y011479D01*
X009588Y011381D02*
X009683Y011381D01*
X010036Y011775D02*
X008993Y011775D01*
X008993Y011873D02*
X009175Y011873D01*
X009077Y011972D02*
X008993Y011972D01*
X008993Y011676D02*
X010298Y011676D01*
X010598Y010790D02*
X010638Y010790D01*
X010598Y010691D02*
X010925Y010691D01*
X010925Y010593D02*
X010565Y010593D01*
X010477Y010494D02*
X010925Y010494D01*
X010925Y010396D02*
X010389Y010396D01*
X010301Y010297D02*
X010925Y010297D01*
X010925Y010199D02*
X010214Y010199D01*
X010126Y010100D02*
X010925Y010100D01*
X010925Y010002D02*
X010039Y010002D01*
X009331Y009805D02*
X009190Y009805D01*
X009233Y009706D02*
X009288Y009706D01*
X009288Y009608D02*
X009233Y009608D01*
X009252Y008676D02*
X009268Y008660D01*
X009268Y008277D01*
X009272Y008274D01*
X009155Y008158D01*
X009155Y008118D01*
X009060Y008213D01*
X009157Y008213D01*
X009185Y008220D01*
X009210Y008235D01*
X009230Y008255D01*
X009245Y008280D01*
X009252Y008308D01*
X009252Y008481D01*
X009023Y008481D01*
X009023Y008519D01*
X009252Y008519D01*
X009252Y008676D01*
X009252Y008623D02*
X009268Y008623D01*
X009268Y008524D02*
X009252Y008524D01*
X009252Y008426D02*
X009268Y008426D01*
X009268Y008327D02*
X009252Y008327D01*
X009226Y008229D02*
X009199Y008229D01*
X009155Y008130D02*
X009143Y008130D01*
X008810Y008229D02*
X008571Y008229D01*
X008620Y008327D02*
X008757Y008327D01*
X008757Y008426D02*
X008620Y008426D01*
X008620Y008524D02*
X008757Y008524D01*
X008757Y008623D02*
X008620Y008623D01*
X008753Y008130D02*
X008473Y008130D01*
X008433Y008032D02*
X008718Y008032D01*
X008718Y007933D02*
X008433Y007933D01*
X008433Y007835D02*
X008788Y007835D01*
X009000Y007736D02*
X008433Y007736D01*
X008433Y007638D02*
X009098Y007638D01*
X009197Y007539D02*
X008433Y007539D01*
X008433Y007441D02*
X008474Y007441D01*
X008473Y007342D02*
X008433Y007342D01*
X008433Y007244D02*
X008473Y007244D01*
X008473Y007145D02*
X008425Y007145D01*
X008499Y007047D02*
X008327Y007047D01*
X008494Y006948D02*
X006993Y006948D01*
X006993Y006850D02*
X008473Y006850D01*
X008473Y006751D02*
X006993Y006751D01*
X006993Y006653D02*
X008473Y006653D01*
X008480Y006554D02*
X006993Y006554D01*
X006993Y006456D02*
X009355Y006456D01*
X009343Y006554D02*
X009041Y006554D01*
X009048Y006653D02*
X009343Y006653D01*
X009453Y006357D02*
X006993Y006357D01*
X006993Y006259D02*
X010525Y006259D01*
X010479Y006357D02*
X009693Y006357D01*
X009791Y006456D02*
X010479Y006456D01*
X010964Y006062D02*
X006993Y006062D01*
X006993Y006160D02*
X011001Y006160D01*
X010866Y005963D02*
X006993Y005963D01*
X006993Y005865D02*
X010854Y005865D01*
X010854Y005766D02*
X006993Y005766D01*
X006993Y005668D02*
X010854Y005668D01*
X010854Y005569D02*
X006993Y005569D01*
X006993Y005471D02*
X010854Y005471D01*
X010854Y005372D02*
X006993Y005372D01*
X006993Y005274D02*
X010854Y005274D01*
X010854Y005175D02*
X006993Y005175D01*
X006993Y005077D02*
X010854Y005077D01*
X010854Y004978D02*
X006993Y004978D01*
X006993Y004880D02*
X010854Y004880D01*
X010815Y004781D02*
X006993Y004781D01*
X007006Y004683D02*
X010757Y004683D01*
X010757Y004584D02*
X007104Y004584D01*
X007203Y004486D02*
X010757Y004486D01*
X010757Y004387D02*
X007301Y004387D01*
X007400Y004289D02*
X010757Y004289D01*
X011252Y004289D02*
X011274Y004289D01*
X011276Y004280D02*
X011290Y004255D01*
X011311Y004235D01*
X011336Y004220D01*
X011364Y004213D01*
X011497Y004213D01*
X011497Y004481D01*
X011268Y004481D01*
X011268Y004308D01*
X011276Y004280D01*
X011268Y004387D02*
X011252Y004387D01*
X011252Y004486D02*
X011497Y004486D01*
X011497Y004481D02*
X011497Y004519D01*
X011268Y004519D01*
X011268Y004692D01*
X011276Y004720D01*
X011290Y004745D01*
X011311Y004765D01*
X011336Y004780D01*
X011364Y004787D01*
X011497Y004787D01*
X011497Y004519D01*
X011535Y004519D01*
X011535Y004787D01*
X011669Y004787D01*
X011697Y004780D01*
X011722Y004765D01*
X011742Y004745D01*
X011757Y004720D01*
X011764Y004692D01*
X011764Y004519D01*
X011535Y004519D01*
X011535Y004481D01*
X011535Y004213D01*
X011669Y004213D01*
X011697Y004220D01*
X011722Y004235D01*
X011742Y004255D01*
X011757Y004280D01*
X011764Y004308D01*
X011764Y004481D01*
X011535Y004481D01*
X011497Y004481D01*
X011535Y004486D02*
X012257Y004486D01*
X012257Y004584D02*
X011764Y004584D01*
X011764Y004683D02*
X012257Y004683D01*
X012315Y004781D02*
X011691Y004781D01*
X011681Y004880D02*
X011154Y004880D01*
X011154Y004978D02*
X011593Y004978D01*
X011593Y005077D02*
X011154Y005077D01*
X011154Y005175D02*
X011323Y005175D01*
X011280Y005274D02*
X011154Y005274D01*
X011194Y004781D02*
X011341Y004781D01*
X011268Y004683D02*
X011252Y004683D01*
X011252Y004584D02*
X011268Y004584D01*
X011497Y004584D02*
X011535Y004584D01*
X011535Y004683D02*
X011497Y004683D01*
X011497Y004781D02*
X011535Y004781D01*
X011535Y004387D02*
X011497Y004387D01*
X011497Y004289D02*
X011535Y004289D01*
X011759Y004289D02*
X012257Y004289D01*
X012257Y004387D02*
X011764Y004387D01*
X011965Y004880D02*
X012354Y004880D01*
X012070Y004978D02*
X012053Y004978D01*
X012752Y004486D02*
X012768Y004486D01*
X012768Y004387D02*
X012752Y004387D01*
X012752Y004289D02*
X012768Y004289D01*
X012840Y004190D02*
X007498Y004190D01*
X007682Y004092D02*
X012840Y004092D01*
X012803Y003993D02*
X007780Y003993D01*
X007803Y003895D02*
X012780Y003895D01*
X012780Y003796D02*
X007803Y003796D01*
X007721Y003698D02*
X012863Y003698D01*
X013158Y003698D02*
X018155Y003698D01*
X018155Y003720D02*
X018155Y003530D01*
X018290Y003395D01*
X018481Y003395D01*
X018615Y003530D01*
X018615Y003645D01*
X018731Y003645D01*
X018865Y003780D01*
X018865Y003970D01*
X018805Y004030D01*
X018805Y005492D01*
X019143Y005830D01*
X019311Y005830D01*
X019353Y005728D01*
X019488Y005593D01*
X019665Y005520D01*
X019856Y005520D01*
X020032Y005593D01*
X020167Y005728D01*
X020240Y005905D01*
X020240Y006095D01*
X020167Y006272D01*
X020032Y006407D01*
X019856Y006480D01*
X019665Y006480D01*
X019488Y006407D01*
X019353Y006272D01*
X019311Y006170D01*
X019002Y006170D01*
X018903Y006070D01*
X018535Y005703D01*
X018535Y006625D01*
X018760Y006850D01*
X019303Y006850D01*
X019353Y006728D01*
X019488Y006593D01*
X019665Y006520D01*
X019856Y006520D01*
X020032Y006593D01*
X020167Y006728D01*
X020240Y006905D01*
X020240Y007095D01*
X020167Y007272D01*
X020032Y007407D01*
X019856Y007480D01*
X019665Y007480D01*
X019488Y007407D01*
X019353Y007272D01*
X019303Y007150D01*
X018636Y007150D01*
X018548Y007062D01*
X018235Y006750D01*
X018235Y003800D01*
X018155Y003720D01*
X018231Y003796D02*
X013240Y003796D01*
X013240Y003895D02*
X018235Y003895D01*
X018235Y003993D02*
X013218Y003993D01*
X013180Y004092D02*
X018235Y004092D01*
X018235Y004190D02*
X013180Y004190D01*
X013264Y004289D02*
X013334Y004289D01*
X013562Y004289D02*
X018235Y004289D01*
X018235Y004387D02*
X013660Y004387D01*
X013942Y004978D02*
X014042Y004978D01*
X014042Y004945D02*
X014242Y004945D01*
X014270Y004953D01*
X014295Y004967D01*
X014316Y004988D01*
X014330Y005013D01*
X014338Y005041D01*
X014338Y005241D01*
X014042Y005241D01*
X014042Y004945D01*
X014042Y005077D02*
X013942Y005077D01*
X013942Y005175D02*
X014042Y005175D01*
X014338Y005175D02*
X014433Y005175D01*
X014433Y005077D02*
X014338Y005077D01*
X014306Y004978D02*
X014464Y004978D01*
X013645Y005471D02*
X013057Y005471D01*
X013056Y005569D02*
X013653Y005569D01*
X014036Y006062D02*
X015110Y006062D01*
X015011Y005963D02*
X014134Y005963D01*
X015598Y007441D02*
X016465Y007441D01*
X016465Y007539D02*
X015598Y007539D01*
X015598Y007638D02*
X016465Y007638D01*
X016465Y007736D02*
X015598Y007736D01*
X015598Y007835D02*
X016465Y007835D01*
X016465Y007933D02*
X015598Y007933D01*
X015598Y008032D02*
X016465Y008032D01*
X016465Y008130D02*
X015598Y008130D01*
X015598Y008229D02*
X016465Y008229D01*
X016465Y008327D02*
X015975Y008327D01*
X016053Y008426D02*
X016465Y008426D01*
X016465Y008524D02*
X016235Y008524D01*
X016333Y008623D02*
X016465Y008623D01*
X016465Y008721D02*
X016365Y008721D01*
X016365Y008820D02*
X016465Y008820D01*
X016465Y008918D02*
X016293Y008918D01*
X016285Y009017D02*
X016465Y009017D01*
X016465Y009115D02*
X016285Y009115D01*
X016285Y009214D02*
X016465Y009214D01*
X016465Y009312D02*
X016285Y009312D01*
X016285Y009411D02*
X016465Y009411D01*
X016805Y009411D02*
X018235Y009411D01*
X018235Y009312D02*
X016805Y009312D01*
X016805Y009214D02*
X018235Y009214D01*
X018235Y009115D02*
X016805Y009115D01*
X016805Y009017D02*
X018235Y009017D01*
X018228Y008918D02*
X016805Y008918D01*
X016805Y008820D02*
X018155Y008820D01*
X018155Y008721D02*
X016805Y008721D01*
X016805Y008623D02*
X018188Y008623D01*
X018286Y008524D02*
X016805Y008524D01*
X016805Y008426D02*
X018405Y008426D01*
X018483Y008327D02*
X016805Y008327D01*
X016805Y008229D02*
X019320Y008229D01*
X019295Y008130D02*
X016805Y008130D01*
X016805Y008032D02*
X019280Y008032D01*
X019280Y007933D02*
X016805Y007933D01*
X016805Y007835D02*
X019309Y007835D01*
X019350Y007736D02*
X016805Y007736D01*
X016805Y007638D02*
X019444Y007638D01*
X019619Y007539D02*
X016805Y007539D01*
X016805Y007441D02*
X019570Y007441D01*
X019424Y007342D02*
X016805Y007342D01*
X016805Y007244D02*
X019342Y007244D01*
X019303Y006850D02*
X018760Y006850D01*
X018661Y006751D02*
X019344Y006751D01*
X019429Y006653D02*
X018563Y006653D01*
X018535Y006554D02*
X019583Y006554D01*
X019606Y006456D02*
X018535Y006456D01*
X018535Y006357D02*
X019439Y006357D01*
X019348Y006259D02*
X018535Y006259D01*
X018535Y006160D02*
X018992Y006160D01*
X018894Y006062D02*
X018535Y006062D01*
X018535Y005963D02*
X018795Y005963D01*
X018697Y005865D02*
X018535Y005865D01*
X018535Y005766D02*
X018598Y005766D01*
X018805Y005471D02*
X019663Y005471D01*
X019648Y005468D02*
X019576Y005445D01*
X019509Y005411D01*
X019448Y005366D01*
X019394Y005313D01*
X019350Y005252D01*
X019316Y005184D01*
X019292Y005112D01*
X019282Y005050D01*
X019710Y005050D01*
X019710Y004950D01*
X019282Y004950D01*
X019292Y004888D01*
X019316Y004816D01*
X019350Y004748D01*
X019394Y004687D01*
X019448Y004634D01*
X019509Y004589D01*
X019576Y004555D01*
X019648Y004532D01*
X019710Y004522D01*
X019710Y004950D01*
X019810Y004950D01*
X019810Y004522D01*
X019873Y004532D01*
X019945Y004555D01*
X020012Y004589D01*
X020073Y004634D01*
X020126Y004687D01*
X020171Y004748D01*
X020205Y004816D01*
X020229Y004888D01*
X020238Y004950D01*
X019810Y004950D01*
X019810Y005050D01*
X019710Y005050D01*
X019710Y005478D01*
X019648Y005468D01*
X019710Y005471D02*
X019810Y005471D01*
X019810Y005478D02*
X019873Y005468D01*
X019945Y005445D01*
X020012Y005411D01*
X020073Y005366D01*
X020126Y005313D01*
X020171Y005252D01*
X020205Y005184D01*
X020229Y005112D01*
X020238Y005050D01*
X019810Y005050D01*
X019810Y005478D01*
X019858Y005471D02*
X022060Y005471D01*
X022060Y005569D02*
X019974Y005569D01*
X020107Y005668D02*
X022060Y005668D01*
X022060Y005766D02*
X020183Y005766D01*
X020224Y005865D02*
X022060Y005865D01*
X022060Y005963D02*
X020240Y005963D01*
X020240Y006062D02*
X022060Y006062D01*
X022060Y006160D02*
X020214Y006160D01*
X020173Y006259D02*
X022060Y006259D01*
X022060Y006357D02*
X020082Y006357D01*
X019915Y006456D02*
X022060Y006456D01*
X022060Y006554D02*
X019938Y006554D01*
X020092Y006653D02*
X022060Y006653D01*
X022060Y006751D02*
X020177Y006751D01*
X020218Y006850D02*
X022060Y006850D01*
X022060Y006948D02*
X020240Y006948D01*
X020240Y007047D02*
X022060Y007047D01*
X022060Y007145D02*
X020220Y007145D01*
X020179Y007244D02*
X022060Y007244D01*
X022060Y007342D02*
X020097Y007342D01*
X019951Y007441D02*
X022060Y007441D01*
X022060Y007539D02*
X019902Y007539D01*
X020077Y007638D02*
X022060Y007638D01*
X022060Y007736D02*
X020171Y007736D01*
X020211Y007835D02*
X022060Y007835D01*
X022060Y007933D02*
X020240Y007933D01*
X020240Y008032D02*
X022060Y008032D01*
X022060Y008130D02*
X020226Y008130D01*
X020185Y008229D02*
X022060Y008229D01*
X022060Y008327D02*
X020112Y008327D01*
X019987Y008426D02*
X022060Y008426D01*
X022060Y008524D02*
X019866Y008524D01*
X019655Y008524D02*
X019448Y008524D01*
X019459Y008623D02*
X019350Y008623D01*
X019361Y008721D02*
X019251Y008721D01*
X019316Y008820D02*
X019160Y008820D01*
X019160Y008918D02*
X019280Y008918D01*
X019280Y009017D02*
X019160Y009017D01*
X019160Y009115D02*
X019288Y009115D01*
X019329Y009214D02*
X019160Y009214D01*
X019160Y009312D02*
X019394Y009312D01*
X019497Y009411D02*
X019160Y009411D01*
X019497Y009411D01*
X019488Y009593D02*
X019665Y009520D01*
X019856Y009520D01*
X020032Y009593D01*
X020167Y009728D01*
X020240Y009905D01*
X020240Y010095D01*
X020167Y010272D01*
X020032Y010407D01*
X019856Y010480D01*
X019665Y010480D01*
X019488Y010407D01*
X019353Y010272D01*
X019280Y010095D01*
X019280Y009905D01*
X019353Y009728D01*
X019488Y009593D01*
X019474Y009608D02*
X019160Y009608D01*
X019160Y009706D02*
X019376Y009706D01*
X019322Y009805D02*
X019160Y009805D01*
X019160Y009903D02*
X019281Y009903D01*
X019280Y010002D02*
X019160Y010002D01*
X019160Y010100D02*
X019282Y010100D01*
X019323Y010199D02*
X019160Y010199D01*
X019160Y010297D02*
X019379Y010297D01*
X019477Y010396D02*
X019160Y010396D01*
X019160Y010494D02*
X022060Y010494D01*
X022060Y010396D02*
X020044Y010396D01*
X020142Y010297D02*
X022060Y010297D01*
X022060Y010199D02*
X020198Y010199D01*
X020238Y010100D02*
X022060Y010100D01*
X022060Y010002D02*
X020240Y010002D01*
X020240Y009903D02*
X022060Y009903D01*
X022060Y009805D02*
X020199Y009805D01*
X020145Y009706D02*
X022060Y009706D01*
X022060Y009608D02*
X020047Y009608D01*
X020024Y009411D02*
X022060Y009411D01*
X020024Y009411D01*
X020127Y009312D02*
X022060Y009312D01*
X022060Y009214D02*
X020191Y009214D01*
X020232Y009115D02*
X022060Y009115D01*
X022060Y009017D02*
X020240Y009017D01*
X020240Y008918D02*
X022060Y008918D01*
X022060Y008820D02*
X020205Y008820D01*
X020160Y008721D02*
X022060Y008721D01*
X022060Y008623D02*
X020062Y008623D01*
X019221Y008327D02*
X018788Y008327D01*
X018865Y008426D02*
X019123Y008426D01*
X019024Y008524D02*
X018865Y008524D01*
X018838Y008623D02*
X018926Y008623D01*
X018860Y008721D02*
X018785Y008721D01*
X018785Y008820D02*
X018860Y008820D01*
X018860Y008918D02*
X018785Y008918D01*
X018785Y009017D02*
X018860Y009017D01*
X018860Y009115D02*
X018785Y009115D01*
X018785Y009214D02*
X018860Y009214D01*
X018860Y009312D02*
X018785Y009312D01*
X018785Y009411D02*
X018860Y009411D01*
X019160Y009509D02*
X022060Y009509D01*
X022060Y010593D02*
X020031Y010593D01*
X020032Y010593D02*
X020167Y010728D01*
X020240Y010905D01*
X020240Y011095D01*
X020167Y011272D01*
X020032Y011407D01*
X019856Y011480D01*
X019665Y011480D01*
X019488Y011407D01*
X019353Y011272D01*
X019280Y011095D01*
X019280Y010905D01*
X019353Y010728D01*
X019488Y010593D01*
X019665Y010520D01*
X019856Y010520D01*
X020032Y010593D01*
X020130Y010691D02*
X022060Y010691D01*
X022060Y010790D02*
X020193Y010790D01*
X020234Y010888D02*
X022060Y010888D01*
X022060Y010987D02*
X020240Y010987D01*
X020240Y011085D02*
X022060Y011085D01*
X022060Y011184D02*
X020204Y011184D01*
X020157Y011282D02*
X022060Y011282D01*
X022060Y011381D02*
X020059Y011381D01*
X019995Y011578D02*
X022060Y011578D01*
X022060Y011676D02*
X020115Y011676D01*
X020187Y011775D02*
X022060Y011775D01*
X022060Y011873D02*
X020227Y011873D01*
X020240Y011972D02*
X022060Y011972D01*
X022060Y012070D02*
X020240Y012070D01*
X020210Y012169D02*
X022060Y012169D01*
X022060Y012267D02*
X020169Y012267D01*
X020074Y012366D02*
X022060Y012366D01*
X022060Y012464D02*
X019894Y012464D01*
X019959Y012563D02*
X022060Y012563D01*
X022060Y012661D02*
X020100Y012661D01*
X020180Y012760D02*
X022060Y012760D01*
X022060Y012858D02*
X020221Y012858D01*
X020240Y012957D02*
X022060Y012957D01*
X022060Y013055D02*
X020240Y013055D01*
X022060Y013055D01*
X022060Y013154D02*
X020216Y013154D01*
X022060Y013154D01*
X022060Y013252D02*
X020176Y013252D01*
X022060Y013252D01*
X022060Y013351D02*
X020089Y013351D01*
X022060Y013351D01*
X022060Y013449D02*
X019931Y013449D01*
X019922Y013548D02*
X022060Y013548D01*
X022060Y013646D02*
X020085Y013646D01*
X020174Y013745D02*
X022060Y013745D01*
X022060Y013843D02*
X020215Y013843D01*
X020240Y013942D02*
X022060Y013942D01*
X022060Y014040D02*
X020240Y014040D01*
X020223Y014139D02*
X022060Y014139D01*
X022060Y014237D02*
X020182Y014237D01*
X020104Y014336D02*
X022060Y014336D01*
X022060Y014434D02*
X019967Y014434D01*
X019886Y014533D02*
X022060Y014533D01*
X022060Y014631D02*
X020070Y014631D01*
X020168Y014730D02*
X022060Y014730D01*
X022060Y014828D02*
X020209Y014828D01*
X020240Y014927D02*
X022060Y014927D01*
X022060Y015025D02*
X020240Y015025D01*
X020229Y015124D02*
X022060Y015124D01*
X022060Y015222D02*
X020188Y015222D01*
X020119Y015321D02*
X022060Y015321D01*
X022060Y015419D02*
X020003Y015419D01*
X020055Y015616D02*
X022060Y015616D01*
X022060Y015518D02*
X019455Y015518D01*
X019465Y015616D02*
X019410Y015616D01*
X020154Y015715D02*
X022060Y015715D01*
X022060Y015813D02*
X020202Y015813D01*
X020240Y015912D02*
X022060Y015912D01*
X022060Y016010D02*
X020240Y016010D01*
X020235Y016109D02*
X022060Y016109D01*
X022060Y016207D02*
X020194Y016207D01*
X020134Y016306D02*
X022060Y016306D01*
X022060Y016404D02*
X020035Y016404D01*
X019910Y016503D02*
X022060Y016503D01*
X022060Y016601D02*
X019910Y016601D01*
X019910Y016700D02*
X022060Y016700D01*
X022060Y016798D02*
X019910Y016798D01*
X019910Y016897D02*
X022060Y016897D01*
X022060Y016995D02*
X019910Y016995D01*
X019910Y017094D02*
X022060Y017094D01*
X022060Y017192D02*
X019910Y017192D01*
X019910Y017291D02*
X022060Y017291D01*
X022060Y017389D02*
X019910Y017389D01*
X019910Y017488D02*
X022060Y017488D01*
X022060Y017586D02*
X019910Y017586D01*
X019910Y017685D02*
X022060Y017685D01*
X022060Y017783D02*
X019910Y017783D01*
X019910Y017882D02*
X022060Y017882D01*
X022060Y017980D02*
X019990Y017980D01*
X019990Y018079D02*
X022060Y018079D01*
X022060Y018177D02*
X019971Y018177D01*
X019873Y018276D02*
X022060Y018276D01*
X022060Y018374D02*
X019098Y018374D01*
X019000Y018473D02*
X022060Y018473D01*
X022060Y018571D02*
X018901Y018571D01*
X018803Y018670D02*
X022060Y018670D01*
X022060Y018768D02*
X018704Y018768D01*
X018606Y018867D02*
X020993Y018867D01*
X021001Y018861D02*
X021004Y018854D01*
X021026Y018844D01*
X021046Y018830D01*
X021053Y018831D01*
X021073Y018822D01*
X021076Y018816D01*
X021100Y018809D01*
X021122Y018799D01*
X021129Y018801D01*
X021150Y018796D01*
X021155Y018790D01*
X021179Y018788D01*
X021203Y018782D01*
X021209Y018786D01*
X021230Y018784D01*
X021236Y018779D01*
X021260Y018781D01*
X021285Y018779D01*
X021290Y018784D01*
X021312Y018786D01*
X021318Y018782D01*
X021342Y018788D01*
X021366Y018790D01*
X021371Y018796D01*
X021392Y018801D01*
X021399Y018799D01*
X021421Y018809D01*
X021444Y018816D01*
X021448Y018822D01*
X021467Y018831D01*
X021475Y018830D01*
X021495Y018844D01*
X021517Y018854D01*
X021520Y018861D01*
X021537Y018873D01*
X021544Y018873D01*
X021562Y018891D01*
X021582Y018905D01*
X021583Y018912D01*
X021598Y018927D01*
X021606Y018928D01*
X021620Y018949D01*
X021637Y018966D01*
X021637Y018973D01*
X021649Y018991D01*
X021656Y018993D01*
X021667Y019016D01*
X021681Y019036D01*
X021679Y019043D01*
X021688Y019062D01*
X021695Y019066D01*
X021701Y019090D01*
X021711Y019112D01*
X021709Y019119D01*
X021714Y019139D01*
X021720Y019144D01*
X021722Y019169D01*
X021729Y019192D01*
X021725Y019199D01*
X021727Y019220D01*
X021731Y019226D01*
X021729Y019250D01*
X021731Y019274D01*
X021727Y019280D01*
X021725Y019301D01*
X021729Y019308D01*
X021722Y019331D01*
X021720Y019356D01*
X021714Y019361D01*
X021709Y019381D01*
X021711Y019388D01*
X021701Y019410D01*
X021695Y019434D01*
X021688Y019438D01*
X021679Y019457D01*
X021681Y019464D01*
X021667Y019484D01*
X021656Y019507D01*
X021649Y019509D01*
X021637Y019527D01*
X021637Y019534D01*
X021620Y019551D01*
X021606Y019572D01*
X021598Y019573D01*
X021583Y019588D01*
X021582Y019595D01*
X021562Y019609D01*
X021544Y019627D01*
X021537Y019627D01*
X021520Y019639D01*
X021517Y019646D01*
X021495Y019656D01*
X021475Y019670D01*
X021467Y019669D01*
X021448Y019678D01*
X021444Y019684D01*
X021421Y019691D01*
X021399Y019701D01*
X021392Y019699D01*
X021371Y019704D01*
X021366Y019710D01*
X021342Y019712D01*
X021318Y019718D01*
X021312Y019714D01*
X021290Y019716D01*
X021285Y019721D01*
X021260Y019719D01*
X021236Y019721D01*
X021230Y019716D01*
X021209Y019714D01*
X021203Y019718D01*
X021179Y019712D01*
X021155Y019710D01*
X021150Y019704D01*
X021129Y019699D01*
X021122Y019701D01*
X021100Y019691D01*
X021076Y019684D01*
X021073Y019678D01*
X021053Y019669D01*
X021046Y019670D01*
X021026Y019656D01*
X021004Y019646D01*
X021001Y019639D01*
X020984Y019627D01*
X020976Y019627D01*
X020959Y019609D01*
X020939Y019595D01*
X020938Y019588D01*
X020922Y019573D01*
X020915Y019572D01*
X020901Y019551D01*
X020884Y019534D01*
X020884Y019527D01*
X020872Y019509D01*
X020865Y019507D01*
X020854Y019484D01*
X020840Y019464D01*
X020841Y019457D01*
X020832Y019438D01*
X020826Y019434D01*
X020820Y019410D01*
X020809Y019388D01*
X020812Y019381D01*
X020806Y019361D01*
X020801Y019356D01*
X020798Y019331D01*
X020792Y019308D01*
X020796Y019301D01*
X020794Y019280D01*
X020789Y019274D01*
X020791Y019250D01*
X020789Y019226D01*
X020794Y019220D01*
X020796Y019199D01*
X020792Y019192D01*
X020798Y019169D01*
X020801Y019144D01*
X020806Y019139D01*
X020812Y019119D01*
X020809Y019112D01*
X020820Y019090D01*
X020826Y019066D01*
X020832Y019062D01*
X020841Y019043D01*
X020840Y019036D01*
X020854Y019016D01*
X020865Y018993D01*
X020872Y018991D01*
X020884Y018973D01*
X020884Y018966D01*
X020901Y018949D01*
X020915Y018928D01*
X020922Y018927D01*
X020938Y018912D01*
X020939Y018905D01*
X020959Y018891D01*
X020976Y018873D01*
X020984Y018873D01*
X021001Y018861D01*
X020885Y018965D02*
X018507Y018965D01*
X018409Y019064D02*
X020830Y019064D01*
X020799Y019162D02*
X018310Y019162D01*
X018212Y019261D02*
X020790Y019261D01*
X020804Y019359D02*
X018116Y019359D01*
X017975Y019458D02*
X020841Y019458D01*
X020904Y019556D02*
X017877Y019556D01*
X017460Y019556D02*
X017186Y019556D01*
X017185Y019557D02*
X016770Y019557D01*
X016671Y019458D01*
X016671Y019400D01*
X015889Y019400D01*
X015889Y019535D01*
X015825Y019600D01*
X015458Y019600D01*
X015393Y019535D01*
X015393Y019090D01*
X015458Y019025D01*
X015825Y019025D01*
X015889Y019090D01*
X015889Y019100D01*
X016671Y019100D01*
X016671Y019042D01*
X016770Y018943D01*
X017185Y018943D01*
X017284Y019042D01*
X017284Y019458D01*
X017185Y019557D01*
X017284Y019458D02*
X017361Y019458D01*
X017361Y019359D02*
X017284Y019359D01*
X017284Y019261D02*
X017361Y019261D01*
X017361Y019162D02*
X017284Y019162D01*
X017284Y019064D02*
X017361Y019064D01*
X017438Y018965D02*
X017207Y018965D01*
X016748Y018965D02*
X015303Y018965D01*
X015299Y018867D02*
X018182Y018867D01*
X018083Y018965D02*
X017898Y018965D01*
X017975Y019064D02*
X017985Y019064D01*
X018280Y018768D02*
X015206Y018768D01*
X015080Y018670D02*
X018379Y018670D01*
X018477Y018571D02*
X014961Y018571D01*
X014848Y018473D02*
X018576Y018473D01*
X018674Y018374D02*
X013990Y018374D01*
X013990Y018276D02*
X018773Y018276D01*
X018871Y018177D02*
X013950Y018177D01*
X013975Y017882D02*
X015337Y017882D01*
X015326Y017783D02*
X014092Y017783D01*
X014155Y017685D02*
X015326Y017685D01*
X015326Y017389D02*
X014185Y017389D01*
X014144Y017291D02*
X015326Y017291D01*
X015326Y017192D02*
X014067Y017192D01*
X013999Y017094D02*
X015362Y017094D01*
X015525Y016995D02*
X014095Y016995D01*
X014095Y016897D02*
X015450Y016897D01*
X015351Y016798D02*
X014091Y016798D01*
X013992Y016700D02*
X015253Y016700D01*
X015154Y016601D02*
X014792Y016601D01*
X014845Y016503D02*
X015056Y016503D01*
X014957Y016404D02*
X014845Y016404D01*
X014845Y016306D02*
X014859Y016306D01*
X014375Y016306D02*
X014334Y016306D01*
X014337Y016296D02*
X014329Y016324D01*
X014315Y016349D01*
X014294Y016370D01*
X014269Y016384D01*
X014241Y016391D01*
X014059Y016391D01*
X014059Y016133D01*
X014337Y016133D01*
X014337Y016296D01*
X014337Y016207D02*
X014375Y016207D01*
X014375Y016109D02*
X014059Y016109D01*
X014059Y016133D02*
X014059Y016036D01*
X014337Y016036D01*
X014337Y015873D01*
X014329Y015845D01*
X014315Y015820D01*
X014294Y015800D01*
X014269Y015785D01*
X014241Y015778D01*
X014059Y015778D01*
X014059Y016036D01*
X013962Y016036D01*
X013962Y015778D01*
X013779Y015778D01*
X013751Y015785D01*
X013726Y015800D01*
X013706Y015820D01*
X013691Y015845D01*
X013684Y015873D01*
X013684Y016036D01*
X013962Y016036D01*
X013962Y016133D01*
X013962Y016391D01*
X013779Y016391D01*
X013751Y016384D01*
X013726Y016370D01*
X013706Y016349D01*
X013691Y016324D01*
X013684Y016296D01*
X013684Y016133D01*
X013962Y016133D01*
X014059Y016133D01*
X014059Y016207D02*
X013962Y016207D01*
X013962Y016109D02*
X013401Y016109D01*
X013500Y016207D02*
X013684Y016207D01*
X013686Y016306D02*
X013598Y016306D01*
X013697Y016404D02*
X014375Y016404D01*
X014375Y016503D02*
X013795Y016503D01*
X013894Y016601D02*
X014429Y016601D01*
X014059Y016306D02*
X013962Y016306D01*
X013962Y016010D02*
X014059Y016010D01*
X014059Y015912D02*
X013962Y015912D01*
X013962Y015813D02*
X014059Y015813D01*
X014280Y015715D02*
X014375Y015715D01*
X014375Y015813D02*
X014308Y015813D01*
X014337Y015912D02*
X014375Y015912D01*
X014375Y016010D02*
X014337Y016010D01*
X014337Y015616D02*
X014375Y015616D01*
X014375Y015518D02*
X014337Y015518D01*
X014337Y015419D02*
X014375Y015419D01*
X014416Y015125D02*
X014667Y015125D01*
X014667Y014344D01*
X014574Y014221D01*
X014574Y013774D01*
X014557Y013774D01*
X014557Y014781D01*
X014416Y014922D01*
X014416Y015125D01*
X014416Y015124D02*
X014667Y015124D01*
X014667Y015025D02*
X014416Y015025D01*
X014416Y014927D02*
X014667Y014927D01*
X014667Y014828D02*
X014510Y014828D01*
X014557Y014730D02*
X014667Y014730D01*
X014667Y014631D02*
X014557Y014631D01*
X014557Y014533D02*
X014667Y014533D01*
X014667Y014434D02*
X014557Y014434D01*
X014557Y014336D02*
X014660Y014336D01*
X014586Y014237D02*
X014557Y014237D01*
X014557Y014139D02*
X014574Y014139D01*
X014574Y014040D02*
X014557Y014040D01*
X014557Y013942D02*
X014574Y013942D01*
X014574Y013843D02*
X014557Y013843D01*
X014370Y013843D02*
X014366Y013843D01*
X014370Y013781D02*
X014370Y014619D01*
X014198Y014620D01*
X014198Y014405D01*
X014353Y014250D01*
X014368Y013780D01*
X014370Y013781D01*
X014363Y013942D02*
X014370Y013942D01*
X014360Y014040D02*
X014370Y014040D01*
X014357Y014139D02*
X014370Y014139D01*
X014370Y014237D02*
X014353Y014237D01*
X014370Y014336D02*
X014267Y014336D01*
X014198Y014434D02*
X014370Y014434D01*
X014370Y014533D02*
X014198Y014533D01*
X014023Y014294D02*
X014174Y014144D01*
X014174Y013782D01*
X014174Y013767D01*
X014128Y013767D01*
X013918Y013978D01*
X013797Y014098D01*
X013797Y014294D01*
X014023Y014294D01*
X014080Y014237D02*
X013797Y014237D01*
X013797Y014139D02*
X014174Y014139D01*
X014174Y014040D02*
X013856Y014040D01*
X013954Y013942D02*
X014174Y013942D01*
X014174Y013843D02*
X014053Y013843D01*
X013936Y013646D02*
X013330Y013646D01*
X013330Y013586D02*
X013993Y013586D01*
X013722Y013873D01*
X013330Y013873D01*
X013330Y013586D01*
X013330Y013745D02*
X013843Y013745D01*
X013750Y013843D02*
X013330Y013843D01*
X012900Y014040D02*
X012743Y014040D01*
X012630Y014139D02*
X012900Y014139D01*
X012915Y014237D02*
X012518Y014237D01*
X012495Y014336D02*
X013014Y014336D01*
X012986Y014463D02*
X012986Y014731D01*
X013023Y014731D01*
X013023Y014769D01*
X012986Y014769D01*
X012986Y015037D01*
X012852Y015037D01*
X012824Y015030D01*
X012799Y015015D01*
X012779Y014995D01*
X012764Y014970D01*
X012757Y014942D01*
X012757Y014769D01*
X012986Y014769D01*
X012986Y014731D01*
X012757Y014731D01*
X012757Y014558D01*
X012764Y014530D01*
X012779Y014505D01*
X012799Y014485D01*
X012824Y014470D01*
X012852Y014463D01*
X012986Y014463D01*
X012986Y014533D02*
X013023Y014533D01*
X013023Y014631D02*
X012986Y014631D01*
X012986Y014730D02*
X013023Y014730D01*
X013023Y014769D02*
X013252Y014769D01*
X013252Y014942D01*
X013245Y014970D01*
X013230Y014995D01*
X013210Y015015D01*
X013185Y015030D01*
X013157Y015037D01*
X013023Y015037D01*
X013023Y014769D01*
X013023Y014828D02*
X012986Y014828D01*
X012986Y014927D02*
X013023Y014927D01*
X013023Y015025D02*
X012986Y015025D01*
X012816Y015025D02*
X012495Y015025D01*
X012495Y014927D02*
X012757Y014927D01*
X012757Y014828D02*
X012495Y014828D01*
X012495Y014730D02*
X012757Y014730D01*
X012757Y014631D02*
X012495Y014631D01*
X012495Y014533D02*
X012764Y014533D01*
X012495Y014434D02*
X013135Y014434D01*
X013245Y014533D02*
X013268Y014533D01*
X013268Y014631D02*
X013252Y014631D01*
X013252Y014730D02*
X013268Y014730D01*
X013268Y014828D02*
X013252Y014828D01*
X013252Y014927D02*
X013268Y014927D01*
X013321Y015025D02*
X013193Y015025D01*
X013684Y015321D02*
X012613Y015321D01*
X012712Y015419D02*
X013684Y015419D01*
X013684Y015518D02*
X012810Y015518D01*
X012909Y015616D02*
X013684Y015616D01*
X013741Y015715D02*
X013007Y015715D01*
X013106Y015813D02*
X013713Y015813D01*
X013684Y015912D02*
X013204Y015912D01*
X013303Y016010D02*
X013684Y016010D01*
X013684Y015222D02*
X012515Y015222D01*
X012495Y015124D02*
X013733Y015124D01*
X013712Y015025D02*
X013775Y015025D01*
X013764Y014927D02*
X013775Y014927D01*
X013764Y014828D02*
X013775Y014828D01*
X013764Y014730D02*
X013775Y014730D01*
X013764Y014631D02*
X013797Y014631D01*
X013764Y014533D02*
X013895Y014533D01*
X013815Y013197D02*
X013479Y013197D01*
X013479Y013244D01*
X013240Y013244D01*
X013240Y013155D01*
X013236Y013150D01*
X013479Y013150D01*
X013479Y013197D01*
X013815Y013197D01*
X013815Y013197D01*
X013528Y013154D02*
X013385Y013154D01*
X013479Y013154D02*
X013239Y013154D01*
X014152Y012957D02*
X015418Y012957D01*
X015705Y013000D02*
X015705Y013000D01*
X016042Y013000D01*
X015705Y013000D01*
X015705Y013000D01*
X015993Y012957D02*
X016135Y012957D01*
X016042Y012957D02*
X016490Y012957D01*
X017489Y011972D02*
X017525Y011972D01*
X017155Y011740D02*
X017155Y011655D01*
X017173Y011638D01*
X016982Y011638D01*
X016917Y011573D01*
X016917Y011010D01*
X016931Y010996D01*
X016843Y010908D01*
X016843Y010817D01*
X016822Y010837D01*
X015764Y010837D01*
X015764Y010981D01*
X015535Y010981D01*
X015535Y011019D01*
X015764Y011019D01*
X015764Y011192D01*
X015757Y011220D01*
X015742Y011245D01*
X015722Y011265D01*
X015697Y011280D01*
X015669Y011287D01*
X015635Y011287D01*
X015697Y011350D01*
X015785Y011438D01*
X015785Y011538D01*
X016130Y011538D01*
X016130Y011341D01*
X016426Y011341D01*
X016426Y011241D01*
X016526Y011241D01*
X016526Y010945D01*
X016727Y010945D01*
X016755Y010953D01*
X016780Y010967D01*
X016800Y010988D01*
X016815Y011013D01*
X016822Y011041D01*
X016822Y011241D01*
X016526Y011241D01*
X016526Y011341D01*
X016822Y011341D01*
X016822Y011542D01*
X016815Y011570D01*
X016800Y011595D01*
X016780Y011616D01*
X016755Y011630D01*
X016727Y011638D01*
X016526Y011638D01*
X016526Y011341D01*
X016426Y011341D01*
X016426Y011638D01*
X016360Y011638D01*
X016447Y011725D01*
X016710Y011725D01*
X016790Y011645D01*
X016981Y011645D01*
X017115Y011780D01*
X017155Y011740D01*
X017120Y011775D02*
X017110Y011775D01*
X017155Y011676D02*
X017012Y011676D01*
X016922Y011578D02*
X016810Y011578D01*
X016822Y011479D02*
X016917Y011479D01*
X016917Y011381D02*
X016822Y011381D01*
X016917Y011282D02*
X016526Y011282D01*
X016526Y011184D02*
X016426Y011184D01*
X016426Y011241D02*
X016426Y010945D01*
X016225Y010945D01*
X016197Y010953D01*
X016172Y010967D01*
X016152Y010988D01*
X016137Y011013D01*
X016130Y011041D01*
X016130Y011241D01*
X016426Y011241D01*
X016426Y011282D02*
X015688Y011282D01*
X015728Y011381D02*
X016130Y011381D01*
X016130Y011479D02*
X015785Y011479D01*
X015764Y011184D02*
X016130Y011184D01*
X016130Y011085D02*
X015764Y011085D01*
X015764Y010888D02*
X016843Y010888D01*
X016799Y010987D02*
X016922Y010987D01*
X016917Y011085D02*
X016822Y011085D01*
X016822Y011184D02*
X016917Y011184D01*
X016526Y011085D02*
X016426Y011085D01*
X016426Y010987D02*
X016526Y010987D01*
X016153Y010987D02*
X015535Y010987D01*
X015497Y010987D02*
X015252Y010987D01*
X015268Y010981D02*
X015268Y010837D01*
X015252Y010837D01*
X015252Y011163D01*
X015268Y011163D01*
X015268Y011019D01*
X015497Y011019D01*
X015497Y010981D01*
X015268Y010981D01*
X015268Y010888D02*
X015252Y010888D01*
X015252Y011085D02*
X015268Y011085D01*
X015243Y010100D02*
X015360Y010100D01*
X015360Y010002D02*
X015341Y010002D01*
X015280Y009017D02*
X015234Y009017D01*
X015280Y008918D02*
X015136Y008918D01*
X015037Y008820D02*
X015298Y008820D01*
X015298Y008721D02*
X014756Y008721D01*
X014764Y008623D02*
X015298Y008623D01*
X015298Y008524D02*
X014764Y008524D01*
X014764Y008426D02*
X015298Y008426D01*
X015298Y008327D02*
X014764Y008327D01*
X014711Y008229D02*
X015298Y008229D01*
X015598Y008327D02*
X015671Y008327D01*
X014535Y008327D02*
X014497Y008327D01*
X014497Y008229D02*
X014535Y008229D01*
X014535Y008426D02*
X014497Y008426D01*
X014268Y008426D02*
X014252Y008426D01*
X014252Y008524D02*
X014268Y008524D01*
X014268Y008623D02*
X014252Y008623D01*
X014252Y008327D02*
X014268Y008327D01*
X014322Y008229D02*
X014203Y008229D01*
X016805Y007145D02*
X018631Y007145D01*
X018532Y007047D02*
X016805Y007047D01*
X016805Y006948D02*
X018434Y006948D01*
X018335Y006850D02*
X016805Y006850D01*
X016805Y006751D02*
X018237Y006751D01*
X018235Y006653D02*
X016805Y006653D01*
X016805Y006554D02*
X018235Y006554D01*
X018235Y006456D02*
X016805Y006456D01*
X016805Y006357D02*
X018235Y006357D01*
X018235Y006259D02*
X016805Y006259D01*
X016863Y006160D02*
X018235Y006160D01*
X018235Y006062D02*
X016865Y006062D01*
X016861Y005963D02*
X018235Y005963D01*
X018235Y005865D02*
X016763Y005865D01*
X018805Y005372D02*
X019456Y005372D01*
X019366Y005274D02*
X018805Y005274D01*
X018805Y005175D02*
X019313Y005175D01*
X019286Y005077D02*
X018805Y005077D01*
X018805Y004978D02*
X019710Y004978D01*
X019710Y004880D02*
X019810Y004880D01*
X019810Y004978D02*
X022060Y004978D01*
X022060Y004880D02*
X020226Y004880D01*
X020187Y004781D02*
X022060Y004781D01*
X022060Y004683D02*
X020122Y004683D01*
X020001Y004584D02*
X022060Y004584D01*
X022060Y004486D02*
X018805Y004486D01*
X018805Y004584D02*
X019519Y004584D01*
X019399Y004683D02*
X018805Y004683D01*
X018805Y004781D02*
X019333Y004781D01*
X019295Y004880D02*
X018805Y004880D01*
X018805Y004387D02*
X022060Y004387D01*
X022060Y004289D02*
X018805Y004289D01*
X018805Y004190D02*
X022060Y004190D01*
X022060Y004092D02*
X018805Y004092D01*
X018843Y003993D02*
X022060Y003993D01*
X022060Y003895D02*
X018865Y003895D01*
X018865Y003796D02*
X022060Y003796D01*
X022060Y003698D02*
X018783Y003698D01*
X018615Y003599D02*
X022060Y003599D01*
X022060Y003501D02*
X018586Y003501D01*
X018488Y003402D02*
X022060Y003402D01*
X022060Y003304D02*
X006143Y003304D01*
X006189Y003350D02*
X006265Y003532D01*
X006265Y003728D01*
X006189Y003910D01*
X006050Y004049D01*
X005869Y004124D01*
X005672Y004124D01*
X005491Y004049D01*
X005352Y003910D01*
X005277Y003728D01*
X005277Y003532D01*
X005352Y003350D01*
X005491Y003211D01*
X005672Y003136D01*
X005869Y003136D01*
X006050Y003211D01*
X006189Y003350D01*
X006211Y003402D02*
X018283Y003402D01*
X018185Y003501D02*
X006252Y003501D01*
X006265Y003599D02*
X018155Y003599D01*
X019710Y004584D02*
X019810Y004584D01*
X019810Y004683D02*
X019710Y004683D01*
X019710Y004781D02*
X019810Y004781D01*
X019810Y005077D02*
X019710Y005077D01*
X019710Y005175D02*
X019810Y005175D01*
X019810Y005274D02*
X019710Y005274D01*
X019710Y005372D02*
X019810Y005372D01*
X020065Y005372D02*
X022060Y005372D01*
X022060Y005274D02*
X020155Y005274D01*
X020208Y005175D02*
X022060Y005175D01*
X022060Y005077D02*
X020234Y005077D01*
X019547Y005569D02*
X018882Y005569D01*
X018981Y005668D02*
X019414Y005668D01*
X019338Y005766D02*
X019079Y005766D01*
X020505Y002910D02*
X005196Y002910D01*
X005196Y003008D02*
X022060Y003008D01*
X022060Y002910D02*
X021016Y002910D01*
X021342Y002811D02*
X022060Y002811D01*
X022060Y002713D02*
X021535Y002713D01*
X021672Y002614D02*
X022060Y002614D01*
X022060Y002516D02*
X021770Y002516D01*
X021869Y002417D02*
X022060Y002417D01*
X022060Y002319D02*
X021951Y002319D01*
X022001Y002220D02*
X022060Y002220D01*
X022051Y002122D02*
X022060Y002122D01*
X022060Y003107D02*
X005196Y003107D01*
X005196Y003205D02*
X005506Y003205D01*
X005399Y003304D02*
X005196Y003304D01*
X005196Y003402D02*
X005331Y003402D01*
X005290Y003501D02*
X005196Y003501D01*
X005196Y003512D02*
X005134Y003661D01*
X005020Y003775D01*
X004871Y003836D01*
X004710Y003836D01*
X004561Y003775D01*
X004447Y003661D01*
X004385Y003512D01*
X004385Y002760D01*
X004447Y002611D01*
X004561Y002497D01*
X004710Y002435D01*
X004871Y002435D01*
X005020Y002497D01*
X005134Y002611D01*
X005196Y002760D01*
X005196Y003512D01*
X005159Y003599D02*
X005277Y003599D01*
X005277Y003698D02*
X005097Y003698D01*
X004968Y003796D02*
X005305Y003796D01*
X005346Y003895D02*
X002460Y003895D01*
X002460Y003993D02*
X005435Y003993D01*
X005595Y004092D02*
X002460Y004092D01*
X002460Y004190D02*
X007017Y004190D01*
X006919Y004289D02*
X002460Y004289D01*
X002460Y004387D02*
X006820Y004387D01*
X007116Y004092D02*
X005947Y004092D01*
X006106Y003993D02*
X007214Y003993D01*
X007313Y003895D02*
X006196Y003895D01*
X006236Y003796D02*
X007343Y003796D01*
X007425Y003698D02*
X006265Y003698D01*
X006035Y003205D02*
X022060Y003205D01*
X020179Y002811D02*
X005196Y002811D01*
X005176Y002713D02*
X019985Y002713D01*
X019849Y002614D02*
X005135Y002614D01*
X005038Y002516D02*
X019750Y002516D01*
X019652Y002417D02*
X002460Y002417D01*
X002460Y002319D02*
X019570Y002319D01*
X019520Y002220D02*
X002460Y002220D01*
X002460Y002122D02*
X019470Y002122D01*
X019420Y002023D02*
X004972Y002023D01*
X004982Y002019D02*
X004909Y002049D01*
X004839Y002063D01*
X004839Y001413D01*
X004742Y001413D01*
X004742Y002063D01*
X004672Y002049D01*
X004598Y002019D01*
X004532Y001974D01*
X004476Y001918D01*
X004431Y001851D01*
X004401Y001778D01*
X004385Y001699D01*
X004385Y001413D01*
X004742Y001413D01*
X004742Y001316D01*
X004385Y001316D01*
X004385Y001029D01*
X004401Y000951D01*
X004431Y000877D01*
X004476Y000811D01*
X004532Y000754D01*
X004598Y000710D01*
X004672Y000679D01*
X004742Y000665D01*
X004742Y001316D01*
X004839Y001316D01*
X004839Y001413D01*
X005196Y001413D01*
X005196Y001699D01*
X005180Y001778D01*
X005150Y001851D01*
X005105Y001918D01*
X005049Y001974D01*
X004982Y002019D01*
X004839Y002023D02*
X004742Y002023D01*
X004742Y001925D02*
X004839Y001925D01*
X004839Y001826D02*
X004742Y001826D01*
X004742Y001728D02*
X004839Y001728D01*
X004839Y001629D02*
X004742Y001629D01*
X004742Y001531D02*
X004839Y001531D01*
X004839Y001432D02*
X004742Y001432D01*
X004742Y001334D02*
X002460Y001334D01*
X002460Y001432D02*
X004385Y001432D01*
X004385Y001531D02*
X002460Y001531D01*
X002460Y001629D02*
X004385Y001629D01*
X004391Y001728D02*
X002460Y001728D01*
X002460Y001826D02*
X004421Y001826D01*
X004482Y001925D02*
X002460Y001925D01*
X002460Y002023D02*
X004609Y002023D01*
X004542Y002516D02*
X002460Y002516D01*
X002460Y002614D02*
X004446Y002614D01*
X004405Y002713D02*
X002460Y002713D01*
X002460Y002811D02*
X004385Y002811D01*
X004385Y002910D02*
X002460Y002910D01*
X002460Y003008D02*
X004385Y003008D01*
X004385Y003107D02*
X002460Y003107D01*
X002460Y003205D02*
X004385Y003205D01*
X004385Y003304D02*
X002460Y003304D01*
X002460Y003402D02*
X004385Y003402D01*
X004385Y003501D02*
X002460Y003501D01*
X002460Y003599D02*
X004421Y003599D01*
X004484Y003698D02*
X002460Y003698D01*
X002460Y003796D02*
X004612Y003796D01*
X004609Y005471D02*
X003700Y005471D01*
X003700Y005569D02*
X004707Y005569D01*
X004806Y005668D02*
X003700Y005668D01*
X003700Y005766D02*
X004820Y005766D01*
X004820Y005865D02*
X003724Y005865D01*
X003740Y005963D02*
X004820Y005963D01*
X004820Y006062D02*
X003740Y006062D01*
X003714Y006160D02*
X004820Y006160D01*
X004820Y006259D02*
X003673Y006259D01*
X003582Y006357D02*
X004820Y006357D01*
X004820Y008032D02*
X004742Y008032D01*
X004803Y008130D02*
X004820Y008130D01*
X004820Y008229D02*
X004803Y008229D01*
X004820Y008327D02*
X004759Y008327D01*
X004723Y008426D02*
X004820Y008426D01*
X004820Y008524D02*
X004723Y008524D01*
X004723Y008623D02*
X004820Y008623D01*
X004820Y008721D02*
X004723Y008721D01*
X004653Y008820D02*
X004820Y008820D01*
X004820Y008918D02*
X004554Y008918D01*
X004456Y009017D02*
X004820Y009017D01*
X004820Y009115D02*
X004357Y009115D01*
X004259Y009214D02*
X004820Y009214D01*
X004820Y009312D02*
X004160Y009312D01*
X004062Y009411D02*
X004820Y009411D01*
X004062Y009411D01*
X003963Y009509D02*
X004820Y009509D01*
X004820Y009608D02*
X003865Y009608D01*
X003766Y009706D02*
X004820Y009706D01*
X004820Y009805D02*
X003699Y009805D01*
X003740Y009903D02*
X004820Y009903D01*
X004801Y010002D02*
X003740Y010002D01*
X003738Y010100D02*
X004703Y010100D01*
X004604Y010199D02*
X003698Y010199D01*
X003642Y010297D02*
X004525Y010297D01*
X004525Y010396D02*
X003544Y010396D01*
X003531Y010593D02*
X004525Y010593D01*
X004525Y010494D02*
X002460Y010494D01*
X002460Y010396D02*
X002977Y010396D01*
X002879Y010297D02*
X002460Y010297D01*
X002460Y010199D02*
X002823Y010199D01*
X002782Y010100D02*
X002460Y010100D01*
X002460Y010002D02*
X002780Y010002D01*
X002781Y009903D02*
X002460Y009903D01*
X002460Y009805D02*
X002822Y009805D01*
X002876Y009706D02*
X002460Y009706D01*
X002460Y009608D02*
X002974Y009608D01*
X002997Y009411D02*
X002460Y009411D01*
X002997Y009411D01*
X002894Y009312D02*
X002460Y009312D01*
X002460Y009214D02*
X002829Y009214D01*
X002788Y009115D02*
X002460Y009115D01*
X002460Y009017D02*
X002780Y009017D01*
X002780Y008918D02*
X002460Y008918D01*
X002460Y008820D02*
X002816Y008820D01*
X002861Y008721D02*
X002460Y008721D01*
X002460Y008623D02*
X002959Y008623D01*
X003165Y010520D02*
X002988Y010593D01*
X002853Y010728D01*
X002780Y010905D01*
X002780Y011095D01*
X002853Y011272D01*
X002988Y011407D01*
X003165Y011480D01*
X003356Y011480D01*
X003532Y011407D01*
X003667Y011272D01*
X003740Y011095D01*
X003740Y010905D01*
X003667Y010728D01*
X003532Y010593D01*
X003356Y010520D01*
X003165Y010520D01*
X002990Y010593D02*
X002460Y010593D01*
X002460Y010691D02*
X002891Y010691D01*
X002828Y010790D02*
X002460Y010790D01*
X002460Y010888D02*
X002787Y010888D01*
X002780Y010987D02*
X002460Y010987D01*
X002460Y011085D02*
X002780Y011085D01*
X002817Y011184D02*
X002460Y011184D01*
X002460Y011282D02*
X002864Y011282D01*
X002962Y011381D02*
X002460Y011381D01*
X002460Y011479D02*
X003163Y011479D01*
X003026Y011578D02*
X002460Y011578D01*
X002460Y011676D02*
X002906Y011676D01*
X002834Y011775D02*
X002460Y011775D01*
X002460Y011873D02*
X002793Y011873D01*
X002780Y011972D02*
X002460Y011972D01*
X002460Y012070D02*
X002780Y012070D01*
X002811Y012169D02*
X002460Y012169D01*
X002460Y012267D02*
X002851Y012267D01*
X002947Y012366D02*
X002460Y012366D01*
X002460Y012464D02*
X003126Y012464D01*
X003062Y012563D02*
X002460Y012563D01*
X002460Y012661D02*
X002921Y012661D01*
X002840Y012760D02*
X002460Y012760D01*
X002460Y012858D02*
X002800Y012858D01*
X002780Y012957D02*
X002460Y012957D01*
X002460Y013055D02*
X002780Y013055D01*
X002460Y013055D01*
X002460Y013154D02*
X002804Y013154D01*
X002460Y013154D01*
X002460Y013252D02*
X002845Y013252D01*
X002460Y013252D01*
X002460Y013351D02*
X002932Y013351D01*
X002460Y013351D01*
X002460Y013449D02*
X003090Y013449D01*
X003098Y013548D02*
X002460Y013548D01*
X002460Y013646D02*
X002935Y013646D01*
X002847Y013745D02*
X002460Y013745D01*
X002460Y013843D02*
X002806Y013843D01*
X002780Y013942D02*
X002460Y013942D01*
X002460Y014040D02*
X002780Y014040D01*
X002798Y014139D02*
X002460Y014139D01*
X002460Y014237D02*
X002839Y014237D01*
X002917Y014336D02*
X002460Y014336D01*
X002460Y014434D02*
X003054Y014434D01*
X003135Y014533D02*
X002460Y014533D01*
X002460Y014631D02*
X002950Y014631D01*
X002853Y014730D02*
X002460Y014730D01*
X002460Y014828D02*
X002812Y014828D01*
X002780Y014927D02*
X002460Y014927D01*
X002460Y015025D02*
X002780Y015025D01*
X002792Y015124D02*
X002460Y015124D01*
X002460Y015222D02*
X002833Y015222D01*
X002902Y015321D02*
X002460Y015321D01*
X002460Y015419D02*
X003018Y015419D01*
X002988Y015593D02*
X002853Y015728D01*
X002780Y015905D01*
X002780Y016095D01*
X002853Y016272D01*
X002988Y016407D01*
X003165Y016480D01*
X003356Y016480D01*
X003532Y016407D01*
X003667Y016272D01*
X003740Y016095D01*
X003740Y015905D01*
X003667Y015728D01*
X003532Y015593D01*
X003356Y015520D01*
X003165Y015520D01*
X002988Y015593D01*
X002965Y015616D02*
X002460Y015616D01*
X002460Y015518D02*
X004048Y015518D01*
X004048Y015616D02*
X003555Y015616D01*
X003654Y015715D02*
X004048Y015715D01*
X004048Y015813D02*
X003702Y015813D01*
X003740Y015912D02*
X004048Y015912D01*
X004048Y016010D02*
X003740Y016010D01*
X003735Y016109D02*
X004048Y016109D01*
X004048Y016207D02*
X003694Y016207D01*
X003634Y016306D02*
X004048Y016306D01*
X004048Y016404D02*
X003535Y016404D01*
X002986Y016404D02*
X002460Y016404D01*
X002460Y016306D02*
X002887Y016306D01*
X002827Y016207D02*
X002460Y016207D01*
X002460Y016109D02*
X002786Y016109D01*
X002780Y016010D02*
X002460Y016010D01*
X002460Y015912D02*
X002780Y015912D01*
X002818Y015813D02*
X002460Y015813D01*
X002460Y015715D02*
X002867Y015715D01*
X003503Y015419D02*
X004048Y015419D01*
X004048Y015321D02*
X003619Y015321D01*
X003688Y015222D02*
X004048Y015222D01*
X004048Y015124D02*
X003729Y015124D01*
X003740Y015025D02*
X004048Y015025D01*
X004048Y014927D02*
X003740Y014927D01*
X003709Y014828D02*
X003951Y014828D01*
X003905Y014730D02*
X003743Y014730D01*
X003841Y014631D02*
X003905Y014631D01*
X003940Y014533D02*
X003965Y014533D01*
X004038Y014434D02*
X004375Y014434D01*
X004375Y014336D02*
X004137Y014336D01*
X004235Y014237D02*
X004375Y014237D01*
X004375Y014139D02*
X004334Y014139D01*
X004107Y013942D02*
X003740Y013942D01*
X003740Y014040D02*
X004008Y014040D01*
X003910Y014139D02*
X003723Y014139D01*
X003682Y014237D02*
X003811Y014237D01*
X003713Y014336D02*
X003604Y014336D01*
X003614Y014434D02*
X003467Y014434D01*
X003516Y014533D02*
X003386Y014533D01*
X003715Y013843D02*
X004110Y013843D01*
X004110Y013745D02*
X003702Y013745D01*
X003794Y013646D02*
X004110Y013646D01*
X004110Y013548D02*
X003885Y013548D01*
X003977Y013449D02*
X004110Y013449D01*
X004110Y013351D02*
X004068Y013351D01*
X003842Y013154D02*
X003716Y013154D01*
X003740Y013055D02*
X003923Y013055D01*
X003750Y013252D02*
X003676Y013252D01*
X003659Y013351D02*
X003589Y013351D01*
X003567Y013449D02*
X003431Y013449D01*
X003422Y013548D02*
X003476Y013548D01*
X004410Y013154D02*
X004469Y013154D01*
X004410Y013055D02*
X005347Y013055D01*
X004973Y012661D02*
X004932Y012661D01*
X005548Y012070D02*
X005655Y012070D01*
X005641Y012169D02*
X005655Y012169D01*
X006765Y011282D02*
X006842Y011282D01*
X006780Y011184D02*
X006740Y011184D01*
X006780Y011085D02*
X006671Y011085D01*
X006661Y010987D02*
X006613Y010987D01*
X006627Y010888D02*
X006643Y010888D01*
X006643Y010790D02*
X006627Y010790D01*
X006627Y010691D02*
X006643Y010691D01*
X006643Y010593D02*
X006627Y010593D01*
X006594Y010494D02*
X006677Y010494D01*
X006872Y010494D02*
X006910Y010494D01*
X006910Y010593D02*
X006872Y010593D01*
X006872Y010691D02*
X006910Y010691D01*
X008067Y011282D02*
X008592Y011282D01*
X008653Y011381D02*
X008166Y011381D01*
X008223Y011479D02*
X008653Y011479D01*
X008653Y011578D02*
X008223Y011578D01*
X008223Y011676D02*
X008259Y011676D01*
X008512Y011676D02*
X008653Y011676D01*
X008653Y011775D02*
X008610Y011775D01*
X008615Y011873D02*
X008653Y011873D01*
X008653Y011972D02*
X008614Y011972D01*
X008653Y012070D02*
X008516Y012070D01*
X008653Y012169D02*
X008020Y012169D01*
X008048Y012070D02*
X008255Y012070D01*
X009028Y013055D02*
X009630Y013055D01*
X009028Y013055D01*
X008899Y013351D02*
X008760Y013351D01*
X008760Y013449D02*
X008905Y013449D01*
X010160Y013449D02*
X010525Y013449D01*
X010525Y013351D02*
X010160Y013351D01*
X010160Y013252D02*
X010525Y013252D01*
X010525Y013154D02*
X010194Y013154D01*
X010292Y013055D02*
X010525Y013055D01*
X010525Y013548D02*
X010160Y013548D01*
X010160Y013646D02*
X010525Y013646D01*
X010525Y013745D02*
X010160Y013745D01*
X010160Y013843D02*
X010525Y013843D01*
X010525Y013942D02*
X010160Y013942D01*
X010160Y014040D02*
X010525Y014040D01*
X010525Y014139D02*
X010160Y014139D01*
X010160Y014237D02*
X010525Y014237D01*
X010525Y014336D02*
X010160Y014336D01*
X010160Y014434D02*
X010525Y014434D01*
X010525Y014533D02*
X010160Y014533D01*
X010160Y014631D02*
X010525Y014631D01*
X010525Y014730D02*
X010160Y014730D01*
X010160Y014828D02*
X010525Y014828D01*
X010525Y014927D02*
X010160Y014927D01*
X010160Y015025D02*
X010525Y015025D01*
X010525Y015124D02*
X010160Y015124D01*
X010160Y015222D02*
X010525Y015222D01*
X010525Y015321D02*
X010160Y015321D01*
X010160Y015419D02*
X010525Y015419D01*
X010525Y015518D02*
X010160Y015518D01*
X010160Y015616D02*
X010525Y015616D01*
X011395Y016467D02*
X011395Y016713D01*
X011697Y017065D01*
X011847Y017065D01*
X012007Y017131D01*
X012129Y017254D01*
X012195Y017414D01*
X012195Y017586D01*
X012195Y017488D02*
X012326Y017488D01*
X012326Y017414D02*
X012330Y017402D01*
X011463Y016535D01*
X011395Y016467D01*
X011395Y016503D02*
X011431Y016503D01*
X011395Y016601D02*
X011529Y016601D01*
X011628Y016700D02*
X011395Y016700D01*
X011468Y016798D02*
X011726Y016798D01*
X011825Y016897D02*
X011553Y016897D01*
X011637Y016995D02*
X011923Y016995D01*
X011915Y017094D02*
X012022Y017094D01*
X012067Y017192D02*
X012120Y017192D01*
X012144Y017291D02*
X012219Y017291D01*
X012185Y017389D02*
X012317Y017389D01*
X012326Y017414D02*
X012326Y017586D01*
X012366Y017685D02*
X012155Y017685D01*
X012092Y017783D02*
X012428Y017783D01*
X012545Y017882D02*
X011975Y017882D01*
X011326Y017414D02*
X011342Y017373D01*
X011195Y017202D01*
X011195Y017870D01*
X011195Y017389D02*
X011336Y017389D01*
X011271Y017291D02*
X011195Y017291D01*
X011997Y016404D02*
X012332Y016404D01*
X012234Y016306D02*
X011898Y016306D01*
X011800Y016207D02*
X012135Y016207D01*
X012037Y016109D02*
X011795Y016109D01*
X011795Y016203D02*
X011795Y015867D01*
X011813Y015885D01*
X013330Y017402D01*
X013326Y017414D01*
X013326Y017586D01*
X013326Y017488D02*
X013195Y017488D01*
X013195Y017414D02*
X013195Y017586D01*
X013155Y017685D02*
X013366Y017685D01*
X013428Y017783D02*
X013092Y017783D01*
X012975Y017882D02*
X013545Y017882D01*
X013317Y017389D02*
X013185Y017389D01*
X013195Y017414D02*
X013129Y017254D01*
X013007Y017131D01*
X012847Y017065D01*
X012674Y017065D01*
X012663Y017070D01*
X011795Y016203D01*
X011795Y016010D02*
X011938Y016010D01*
X011840Y015912D02*
X011795Y015912D01*
X012095Y016503D02*
X012431Y016503D01*
X012529Y016601D02*
X012194Y016601D01*
X012292Y016700D02*
X012628Y016700D01*
X012726Y016798D02*
X012391Y016798D01*
X012489Y016897D02*
X012825Y016897D01*
X012923Y016995D02*
X012588Y016995D01*
X012915Y017094D02*
X013022Y017094D01*
X013067Y017192D02*
X013120Y017192D01*
X013144Y017291D02*
X013219Y017291D01*
X013569Y018867D02*
X009822Y018867D01*
X009723Y018965D02*
X011685Y018965D01*
X011707Y018943D02*
X011608Y019042D01*
X011608Y019100D01*
X011014Y019100D01*
X011014Y019090D01*
X010950Y019025D01*
X010583Y019025D01*
X010518Y019090D01*
X010518Y019535D01*
X010583Y019600D01*
X010950Y019600D01*
X011014Y019535D01*
X011014Y019400D01*
X011608Y019400D01*
X011608Y019458D01*
X011707Y019557D01*
X012123Y019557D01*
X012222Y019458D01*
X012222Y019042D01*
X012123Y018943D01*
X011707Y018943D01*
X011608Y019064D02*
X010988Y019064D01*
X011014Y019458D02*
X011608Y019458D01*
X011706Y019556D02*
X010993Y019556D01*
X010539Y019556D02*
X010481Y019556D01*
X010502Y019458D02*
X010518Y019458D01*
X010518Y019359D02*
X010502Y019359D01*
X010502Y019261D02*
X010518Y019261D01*
X010518Y019162D02*
X010502Y019162D01*
X010476Y019064D02*
X010545Y019064D01*
X010033Y019064D02*
X009675Y019064D01*
X009439Y018768D02*
X005168Y018768D01*
X005184Y018670D02*
X009538Y018670D01*
X009636Y018571D02*
X005199Y018571D01*
X005206Y018473D02*
X009653Y018473D01*
X009653Y018374D02*
X005190Y018374D01*
X005175Y018276D02*
X009653Y018276D01*
X009653Y018177D02*
X005159Y018177D01*
X005144Y018079D02*
X009653Y018079D01*
X010176Y018079D02*
X018970Y018079D01*
X019197Y018276D02*
X019648Y018276D01*
X019550Y018177D02*
X019295Y018177D01*
X019394Y018079D02*
X019530Y018079D01*
X019530Y017980D02*
X019410Y017980D01*
X019410Y017882D02*
X019610Y017882D01*
X021022Y019655D02*
X004631Y019655D01*
X004730Y019556D02*
X006769Y019556D01*
X006770Y019557D02*
X006671Y019458D01*
X006671Y019400D01*
X005948Y019400D01*
X005778Y019230D01*
X005665Y019230D01*
X005530Y019095D01*
X005530Y018905D01*
X005665Y018770D01*
X005856Y018770D01*
X005990Y018905D01*
X005990Y019018D01*
X006072Y019100D01*
X006671Y019100D01*
X006671Y019042D01*
X006770Y018943D01*
X007185Y018943D01*
X007284Y019042D01*
X007284Y019458D01*
X007185Y019557D01*
X006770Y019557D01*
X006671Y019458D02*
X004828Y019458D01*
X004927Y019359D02*
X005907Y019359D01*
X005809Y019261D02*
X004980Y019261D01*
X005030Y019162D02*
X005597Y019162D01*
X005530Y019064D02*
X005081Y019064D01*
X005131Y018965D02*
X005530Y018965D01*
X005569Y018867D02*
X005152Y018867D01*
X005139Y018948D02*
X005139Y018948D01*
X005952Y018867D02*
X009341Y018867D01*
X009284Y018965D02*
X007898Y018965D01*
X007876Y018943D02*
X007975Y019042D01*
X007975Y019100D01*
X008694Y019100D01*
X008694Y019090D01*
X008759Y019025D01*
X009125Y019025D01*
X009190Y019090D01*
X009190Y019535D01*
X009125Y019600D01*
X008759Y019600D01*
X008694Y019535D01*
X008694Y019400D01*
X007975Y019400D01*
X007975Y019458D01*
X007876Y019557D01*
X007460Y019557D01*
X007361Y019458D01*
X007361Y019042D01*
X007460Y018943D01*
X007876Y018943D01*
X007975Y019064D02*
X008720Y019064D01*
X008694Y019458D02*
X007975Y019458D01*
X007877Y019556D02*
X008715Y019556D01*
X009169Y019556D02*
X009227Y019556D01*
X009206Y019458D02*
X009190Y019458D01*
X009190Y019359D02*
X009206Y019359D01*
X009206Y019261D02*
X009190Y019261D01*
X009190Y019162D02*
X009206Y019162D01*
X009232Y019064D02*
X009164Y019064D01*
X009681Y019556D02*
X010027Y019556D01*
X012124Y019556D02*
X012397Y019556D01*
X012299Y019458D02*
X012222Y019458D01*
X012222Y019359D02*
X012299Y019359D01*
X012299Y019261D02*
X012222Y019261D01*
X012222Y019162D02*
X012299Y019162D01*
X012299Y019064D02*
X012222Y019064D01*
X012145Y018965D02*
X012376Y018965D01*
X012835Y018965D02*
X013530Y018965D01*
X013485Y019064D02*
X012912Y019064D01*
X012912Y019458D02*
X014882Y019458D01*
X014882Y019359D02*
X013613Y019359D01*
X013712Y019261D02*
X014882Y019261D01*
X014882Y019162D02*
X013924Y019162D01*
X013990Y019064D02*
X014908Y019064D01*
X014904Y018965D02*
X013990Y018965D01*
X013952Y018867D02*
X014785Y018867D01*
X015351Y019064D02*
X015420Y019064D01*
X015393Y019162D02*
X015377Y019162D01*
X015377Y019261D02*
X015393Y019261D01*
X015393Y019359D02*
X015377Y019359D01*
X015377Y019458D02*
X015393Y019458D01*
X015414Y019556D02*
X015356Y019556D01*
X014902Y019556D02*
X012814Y019556D01*
X015868Y019556D02*
X016769Y019556D01*
X016671Y019458D02*
X015889Y019458D01*
X015863Y019064D02*
X016671Y019064D01*
X021498Y019655D02*
X022060Y019655D01*
X022060Y019753D02*
X004456Y019753D01*
X006036Y019064D02*
X006671Y019064D01*
X006748Y018965D02*
X005990Y018965D01*
X005139Y018052D02*
X005139Y018052D01*
X005199Y017094D02*
X005362Y017094D01*
X004048Y016798D02*
X002460Y016798D01*
X002460Y016700D02*
X004048Y016700D01*
X004048Y016601D02*
X002460Y016601D01*
X002460Y016503D02*
X004048Y016503D01*
X003976Y016897D02*
X002460Y016897D01*
X002460Y016995D02*
X003968Y016995D01*
X003485Y017094D02*
X002460Y017094D01*
X002460Y017192D02*
X003173Y017192D01*
X002979Y017291D02*
X002460Y017291D01*
X002460Y017389D02*
X002846Y017389D01*
X002747Y017488D02*
X002460Y017488D01*
X002460Y017586D02*
X002649Y017586D01*
X002587Y017648D02*
X002587Y017648D01*
X002569Y017685D02*
X002460Y017685D01*
X002460Y017783D02*
X002518Y017783D01*
X002468Y017882D02*
X002460Y017882D01*
X004365Y014730D02*
X004375Y014730D01*
X004365Y014631D02*
X004375Y014631D01*
X004375Y014533D02*
X004306Y014533D01*
X003512Y012464D02*
X003394Y012464D01*
X003574Y012366D02*
X003594Y012366D01*
X003669Y012267D02*
X003676Y012267D01*
X003710Y012169D02*
X003735Y012169D01*
X003727Y011873D02*
X003735Y011873D01*
X003735Y011775D02*
X003687Y011775D01*
X003735Y011676D02*
X003615Y011676D01*
X003495Y011578D02*
X003735Y011578D01*
X003735Y011479D02*
X003358Y011479D01*
X003559Y011381D02*
X003735Y011381D01*
X003766Y011282D02*
X003657Y011282D01*
X003704Y011184D02*
X003865Y011184D01*
X003963Y011085D02*
X003740Y011085D01*
X003740Y010987D02*
X004062Y010987D01*
X004155Y010888D02*
X003734Y010888D01*
X003693Y010790D02*
X004155Y010790D01*
X004244Y010691D02*
X003630Y010691D01*
X006993Y008130D02*
X007963Y008130D01*
X007963Y008032D02*
X006993Y008032D01*
X006993Y007933D02*
X007963Y007933D01*
X007963Y007835D02*
X006993Y007835D01*
X006993Y007736D02*
X007963Y007736D01*
X007963Y007638D02*
X006993Y007638D01*
X006993Y007539D02*
X007963Y007539D01*
X007963Y007441D02*
X006993Y007441D01*
X006993Y007342D02*
X007963Y007342D01*
X007963Y007244D02*
X006993Y007244D01*
X006993Y007145D02*
X007970Y007145D01*
X008069Y007047D02*
X006993Y007047D01*
X009048Y007244D02*
X009492Y007244D01*
X009394Y007342D02*
X009048Y007342D01*
X009046Y007441D02*
X009295Y007441D01*
X010882Y010790D02*
X010925Y010790D01*
X013486Y011085D02*
X013523Y011085D01*
X013523Y011019D02*
X013523Y011287D01*
X013657Y011287D01*
X013685Y011280D01*
X013710Y011265D01*
X013730Y011245D01*
X013745Y011220D01*
X013752Y011192D01*
X013752Y011019D01*
X013523Y011019D01*
X013523Y010987D02*
X013768Y010987D01*
X013768Y011085D02*
X013752Y011085D01*
X013752Y011184D02*
X013768Y011184D01*
X013828Y011282D02*
X013676Y011282D01*
X013523Y011282D02*
X013486Y011282D01*
X013486Y011184D02*
X013523Y011184D01*
X013752Y010888D02*
X013768Y010888D01*
X013768Y010790D02*
X013747Y010790D01*
X016426Y011381D02*
X016526Y011381D01*
X016526Y011479D02*
X016426Y011479D01*
X016426Y011578D02*
X016526Y011578D01*
X016399Y011676D02*
X016759Y011676D01*
X019160Y011676D02*
X019406Y011676D01*
X019526Y011578D02*
X019240Y011578D01*
X019240Y011479D02*
X019663Y011479D01*
X019858Y011479D02*
X022060Y011479D01*
X019462Y011381D02*
X019216Y011381D01*
X019160Y011282D02*
X019364Y011282D01*
X019317Y011184D02*
X019160Y011184D01*
X019160Y011085D02*
X019280Y011085D01*
X019280Y010987D02*
X019160Y010987D01*
X019160Y010888D02*
X019287Y010888D01*
X019328Y010790D02*
X019160Y010790D01*
X019160Y010691D02*
X019391Y010691D01*
X019490Y010593D02*
X019160Y010593D01*
X021527Y018867D02*
X022060Y018867D01*
X022060Y018965D02*
X021636Y018965D01*
X021691Y019064D02*
X022060Y019064D01*
X022060Y019162D02*
X021722Y019162D01*
X021730Y019261D02*
X022060Y019261D01*
X022060Y019359D02*
X021716Y019359D01*
X021679Y019458D02*
X022060Y019458D01*
X022060Y019556D02*
X021616Y019556D01*
X009007Y016897D02*
X008995Y016897D01*
X007275Y015912D02*
X007181Y015912D01*
X007245Y015813D02*
X007275Y015813D01*
X007275Y015715D02*
X007245Y015715D01*
X007245Y015616D02*
X007275Y015616D01*
X007275Y015518D02*
X007245Y015518D01*
X007245Y015419D02*
X007275Y015419D01*
X006674Y013843D02*
X006553Y013843D01*
X007207Y018965D02*
X007438Y018965D01*
X007361Y019064D02*
X007284Y019064D01*
X007284Y019162D02*
X007361Y019162D01*
X007361Y019261D02*
X007284Y019261D01*
X007284Y019359D02*
X007361Y019359D01*
X007361Y019458D02*
X007284Y019458D01*
X007186Y019556D02*
X007460Y019556D01*
X005098Y001925D02*
X019378Y001925D01*
X019362Y001826D02*
X005160Y001826D01*
X005190Y001728D02*
X019346Y001728D01*
X019331Y001629D02*
X008034Y001629D01*
X008037Y001627D02*
X008020Y001639D01*
X008017Y001646D01*
X007995Y001656D01*
X007975Y001670D01*
X007967Y001669D01*
X007948Y001678D01*
X007944Y001684D01*
X007921Y001691D01*
X007899Y001701D01*
X007892Y001699D01*
X007871Y001704D01*
X007866Y001710D01*
X007842Y001712D01*
X007818Y001718D01*
X007812Y001714D01*
X007790Y001716D01*
X007785Y001721D01*
X007760Y001719D01*
X007736Y001721D01*
X007730Y001716D01*
X007709Y001714D01*
X007703Y001718D01*
X007679Y001712D01*
X007655Y001710D01*
X007650Y001704D01*
X007629Y001699D01*
X007622Y001701D01*
X007600Y001691D01*
X007576Y001684D01*
X007573Y001678D01*
X007553Y001669D01*
X007546Y001670D01*
X007526Y001656D01*
X007504Y001646D01*
X007501Y001639D01*
X007484Y001627D01*
X007476Y001627D01*
X007459Y001609D01*
X007439Y001595D01*
X007438Y001588D01*
X007422Y001573D01*
X007415Y001572D01*
X007401Y001551D01*
X007384Y001534D01*
X007384Y001527D01*
X007372Y001509D01*
X007365Y001507D01*
X007354Y001484D01*
X007340Y001464D01*
X007341Y001457D01*
X007332Y001438D01*
X007326Y001434D01*
X007320Y001410D01*
X007309Y001388D01*
X007312Y001381D01*
X007306Y001361D01*
X007301Y001356D01*
X007298Y001331D01*
X007292Y001308D01*
X007296Y001301D01*
X007294Y001280D01*
X007289Y001274D01*
X007291Y001250D01*
X007289Y001226D01*
X007294Y001220D01*
X007296Y001199D01*
X007292Y001192D01*
X007298Y001169D01*
X007301Y001144D01*
X007306Y001139D01*
X007312Y001119D01*
X007309Y001112D01*
X007320Y001090D01*
X007326Y001066D01*
X007332Y001062D01*
X007341Y001043D01*
X007340Y001036D01*
X007354Y001016D01*
X007365Y000993D01*
X007372Y000991D01*
X007384Y000973D01*
X007384Y000966D01*
X007401Y000949D01*
X007415Y000928D01*
X007422Y000927D01*
X007438Y000912D01*
X007439Y000905D01*
X007459Y000891D01*
X007476Y000873D01*
X007484Y000873D01*
X007501Y000861D01*
X007504Y000854D01*
X007526Y000844D01*
X007546Y000830D01*
X007553Y000831D01*
X007573Y000822D01*
X007576Y000816D01*
X007600Y000809D01*
X007622Y000799D01*
X007629Y000801D01*
X007650Y000796D01*
X007655Y000790D01*
X007679Y000788D01*
X007703Y000782D01*
X007709Y000786D01*
X007730Y000784D01*
X007736Y000779D01*
X007760Y000781D01*
X007785Y000779D01*
X007790Y000784D01*
X007812Y000786D01*
X007818Y000782D01*
X007842Y000788D01*
X007866Y000790D01*
X007871Y000796D01*
X007892Y000801D01*
X007899Y000799D01*
X007921Y000809D01*
X007944Y000816D01*
X007948Y000822D01*
X007967Y000831D01*
X007975Y000830D01*
X007995Y000844D01*
X008017Y000854D01*
X008020Y000861D01*
X008037Y000873D01*
X008044Y000873D01*
X008062Y000891D01*
X008082Y000905D01*
X008083Y000912D01*
X008098Y000927D01*
X008106Y000928D01*
X008120Y000949D01*
X008137Y000966D01*
X008137Y000973D01*
X008149Y000991D01*
X008156Y000993D01*
X008167Y001016D01*
X008181Y001036D01*
X008179Y001043D01*
X008188Y001062D01*
X008195Y001066D01*
X008201Y001090D01*
X008211Y001112D01*
X008209Y001119D01*
X008214Y001139D01*
X008220Y001144D01*
X008222Y001169D01*
X008229Y001192D01*
X008225Y001199D01*
X008227Y001220D01*
X008231Y001226D01*
X008229Y001250D01*
X008231Y001274D01*
X008227Y001280D01*
X008225Y001301D01*
X008229Y001308D01*
X008222Y001331D01*
X008220Y001356D01*
X008214Y001361D01*
X008209Y001381D01*
X008211Y001388D01*
X008201Y001410D01*
X008195Y001434D01*
X008188Y001438D01*
X008179Y001457D01*
X008181Y001464D01*
X008167Y001484D01*
X008156Y001507D01*
X008149Y001509D01*
X008137Y001527D01*
X008137Y001534D01*
X008120Y001551D01*
X008106Y001572D01*
X008098Y001573D01*
X008083Y001588D01*
X008082Y001595D01*
X008062Y001609D01*
X008044Y001627D01*
X008037Y001627D01*
X008137Y001531D02*
X019315Y001531D01*
X019321Y001432D02*
X008195Y001432D01*
X008222Y001334D02*
X019337Y001334D01*
X019352Y001235D02*
X008231Y001235D01*
X008214Y001137D02*
X019368Y001137D01*
X019388Y001038D02*
X008180Y001038D01*
X008113Y000940D02*
X019439Y000940D01*
X019489Y000841D02*
X007991Y000841D01*
X007530Y000841D02*
X005821Y000841D01*
X005821Y000940D02*
X005721Y000940D01*
X005721Y001038D02*
X005821Y001038D01*
X005821Y001137D02*
X005721Y001137D01*
X005721Y001235D02*
X005821Y001235D01*
X005821Y001334D02*
X005721Y001334D01*
X005599Y001334D02*
X004839Y001334D01*
X004839Y001316D02*
X005196Y001316D01*
X005196Y001029D01*
X005180Y000951D01*
X005150Y000877D01*
X005105Y000811D01*
X005049Y000754D01*
X004982Y000710D01*
X004909Y000679D01*
X004839Y000665D01*
X004839Y001316D01*
X004839Y001235D02*
X004742Y001235D01*
X004742Y001137D02*
X004839Y001137D01*
X004839Y001038D02*
X004742Y001038D01*
X004742Y000940D02*
X004839Y000940D01*
X004839Y000841D02*
X004742Y000841D01*
X004742Y000743D02*
X004839Y000743D01*
X005031Y000743D02*
X005293Y000743D01*
X005332Y000644D02*
X002460Y000644D01*
X002460Y000546D02*
X005397Y000546D01*
X005125Y000841D02*
X005721Y000841D01*
X005282Y000940D02*
X005175Y000940D01*
X005196Y001038D02*
X005306Y001038D01*
X005354Y001137D02*
X005196Y001137D01*
X005196Y001235D02*
X005437Y001235D01*
X005196Y001432D02*
X007325Y001432D01*
X007299Y001334D02*
X005943Y001334D01*
X006104Y001235D02*
X007290Y001235D01*
X007307Y001137D02*
X006188Y001137D01*
X006235Y001038D02*
X007341Y001038D01*
X007407Y000940D02*
X006260Y000940D01*
X006248Y000743D02*
X019539Y000743D01*
X019591Y000644D02*
X006210Y000644D01*
X006145Y000546D02*
X019689Y000546D01*
X007487Y001629D02*
X005196Y001629D01*
X005196Y001531D02*
X007384Y001531D01*
X004549Y000743D02*
X002460Y000743D01*
X002460Y000841D02*
X004455Y000841D01*
X004405Y000940D02*
X002460Y000940D01*
X002460Y001038D02*
X004385Y001038D01*
X004385Y001137D02*
X002460Y001137D01*
X002460Y001235D02*
X004385Y001235D01*
D27*
X007573Y003875D03*
X009573Y006563D03*
X009810Y007700D03*
X010135Y008063D03*
X009385Y008063D03*
X008948Y008000D03*
X008198Y007250D03*
X007260Y008500D03*
X008385Y009875D03*
X008698Y011063D03*
X008385Y011375D03*
X008385Y011875D03*
X008823Y012375D03*
X009760Y013250D03*
X009135Y013375D03*
X008760Y014100D03*
X008198Y014188D03*
X007510Y013250D03*
X007010Y013250D03*
X007010Y012750D03*
X007510Y012750D03*
X007760Y011625D03*
X007260Y011313D03*
X007010Y011125D03*
X007385Y010750D03*
X007760Y011125D03*
X006510Y011250D03*
X005885Y010750D03*
X005635Y011000D03*
X005635Y011500D03*
X005885Y011750D03*
X005885Y012125D03*
X004760Y012500D03*
X004385Y011875D03*
X004385Y011375D03*
X004385Y010875D03*
X004510Y009875D03*
X004510Y009188D03*
X004573Y008188D03*
X004323Y007938D03*
X004073Y007688D03*
X002635Y012500D03*
X004635Y013313D03*
X005260Y014125D03*
X004135Y014688D03*
X005010Y016063D03*
X005760Y016125D03*
X005010Y016950D03*
X004198Y017000D03*
X002760Y016875D03*
X005760Y019000D03*
X006760Y016450D03*
X007010Y015750D03*
X007510Y016125D03*
X007960Y015750D03*
X009135Y016100D03*
X009135Y016700D03*
X008760Y016950D03*
X013010Y015438D03*
X013135Y014125D03*
X013010Y013250D03*
X012760Y012563D03*
X013010Y011750D03*
X013010Y011250D03*
X012260Y011000D03*
X010760Y011000D03*
X010510Y010375D03*
X010010Y010625D03*
X009760Y010375D03*
X010860Y009090D03*
X011910Y009430D03*
X013610Y007750D03*
X013760Y007188D03*
X015010Y007750D03*
X015823Y008500D03*
X016135Y008750D03*
X015510Y009000D03*
X015510Y009313D03*
X015135Y009875D03*
X015510Y010313D03*
X015823Y010313D03*
X016135Y010313D03*
X016635Y010313D03*
X017073Y010813D03*
X017448Y010563D03*
X018073Y010563D03*
X018385Y011000D03*
X019010Y011500D03*
X018885Y012500D03*
X017385Y011750D03*
X016885Y011875D03*
X016198Y012375D03*
X016010Y011938D03*
X015948Y011250D03*
X015260Y011563D03*
X014698Y011313D03*
X014448Y011563D03*
X014573Y010938D03*
X014510Y012750D03*
X014510Y013250D03*
X015010Y013250D03*
X015010Y012750D03*
X016135Y014125D03*
X016760Y014125D03*
X017385Y013750D03*
X016635Y013250D03*
X017385Y015475D03*
X017760Y016450D03*
X018760Y016900D03*
X019760Y018063D03*
X021260Y014500D03*
X021260Y012000D03*
X018385Y008750D03*
X018635Y008500D03*
X017760Y009875D03*
X016635Y006063D03*
X014760Y004750D03*
X013448Y004500D03*
X013010Y003875D03*
X011823Y005063D03*
X011510Y005313D03*
X011260Y005563D03*
X012260Y005500D03*
X012885Y005750D03*
X012010Y006750D03*
X011510Y006750D03*
X011510Y007250D03*
X012010Y007250D03*
X010198Y011938D03*
X014610Y016450D03*
X013860Y016900D03*
X013760Y018313D03*
X013760Y019000D03*
X018635Y003875D03*
X018385Y003625D03*
D28*
X018385Y006688D01*
X018698Y007000D01*
X019760Y007000D01*
X019760Y008000D02*
X019010Y008750D01*
X019010Y011500D01*
X018635Y011688D02*
X018948Y012000D01*
X019760Y012000D01*
X019760Y013000D02*
X018323Y013000D01*
X018073Y012750D01*
X018073Y010563D01*
X018385Y011000D02*
X018385Y008750D01*
X018635Y008500D02*
X018635Y011688D01*
X017263Y011291D02*
X017249Y010989D01*
X017073Y010813D01*
X016885Y010563D02*
X016760Y010688D01*
X014448Y010688D01*
X014323Y010813D01*
X014323Y011224D01*
X014198Y011349D01*
X014198Y011625D01*
X014385Y011813D01*
X014385Y011875D01*
X014367Y012055D01*
X014564Y012055D02*
X014564Y011678D01*
X014448Y011563D01*
X014698Y011313D02*
X014760Y011375D01*
X014760Y012055D01*
X014957Y012055D02*
X014957Y011428D01*
X015073Y011313D01*
X015448Y011313D01*
X015635Y011500D01*
X015635Y011688D01*
X016198Y011688D01*
X016385Y011875D01*
X016885Y011875D01*
X016870Y012571D02*
X016603Y012803D01*
X015705Y012803D01*
X015705Y012606D02*
X015967Y012606D01*
X016198Y012375D01*
X015635Y011813D02*
X015635Y011688D01*
X015635Y011813D02*
X015393Y012055D01*
X015351Y012055D01*
X015154Y012055D02*
X015154Y011669D01*
X015260Y011563D01*
X015004Y011000D02*
X014635Y011000D01*
X014573Y010938D01*
X014016Y011000D02*
X014016Y011902D01*
X014170Y012055D01*
X013815Y012606D02*
X012804Y012606D01*
X012760Y012563D01*
X012444Y012803D02*
X013815Y012803D01*
X013815Y013000D02*
X012641Y013000D01*
X012385Y013256D01*
X012444Y012803D02*
X012385Y012744D01*
X013010Y013250D02*
X013154Y013394D01*
X013815Y013394D01*
X015705Y013197D02*
X015715Y013188D01*
X016573Y013188D01*
X016635Y013250D01*
X019260Y015500D02*
X019760Y015000D01*
X019260Y015500D02*
X019260Y018000D01*
X018032Y019229D01*
X017668Y019250D01*
X016978Y019250D02*
X015704Y019250D01*
X015641Y019313D01*
X013760Y019000D02*
X013510Y019250D01*
X012606Y019250D01*
X011915Y019250D02*
X010829Y019250D01*
X010766Y019313D01*
X010198Y018313D02*
X010010Y018125D01*
X010010Y013125D01*
X010448Y012688D01*
X010448Y010688D01*
X009948Y010125D01*
X007523Y010125D01*
X007260Y009850D01*
X007260Y008500D01*
X008948Y008000D02*
X009573Y007375D01*
X010547Y007375D01*
X010815Y007394D01*
X010815Y007000D02*
X009016Y007000D01*
X008760Y007256D01*
X008819Y006803D02*
X010815Y006803D01*
X010815Y006606D02*
X009617Y006606D01*
X009573Y006563D01*
X008819Y006803D02*
X008760Y006744D01*
X009385Y008063D02*
X010135Y008063D01*
X011170Y006055D02*
X011004Y005890D01*
X011004Y004500D01*
X011760Y005125D02*
X011823Y005063D01*
X011760Y005125D02*
X011760Y006055D01*
X011564Y006055D02*
X011564Y005366D01*
X011510Y005313D01*
X011260Y005563D02*
X011367Y005669D01*
X011367Y006055D01*
X011957Y006055D02*
X011957Y005303D01*
X012198Y005063D01*
X012448Y005063D01*
X012504Y005006D01*
X012504Y004500D01*
X012448Y005063D02*
X012635Y005250D01*
X012635Y005771D01*
X012351Y006055D01*
X012154Y006055D02*
X012154Y005606D01*
X012260Y005500D01*
X012705Y006606D02*
X013279Y006606D01*
X014073Y005813D01*
X015073Y005813D01*
X015448Y006188D01*
X015448Y008938D01*
X015510Y009000D01*
X015510Y009313D02*
X015510Y010313D01*
X015823Y010313D02*
X015823Y008500D01*
X016135Y008750D02*
X016135Y010313D01*
X016885Y010563D02*
X017448Y010563D01*
X013760Y007188D02*
X012715Y007188D01*
X012705Y007197D01*
X012705Y006803D02*
X014150Y006803D01*
X014385Y006571D01*
X014779Y005291D02*
X014760Y005185D01*
X014760Y004750D01*
X010010Y010625D02*
X010010Y011185D01*
X010029Y011291D01*
X010198Y011938D02*
X009323Y011938D01*
X009135Y012125D01*
X009135Y012438D01*
X008948Y012625D01*
X008224Y012625D01*
X008205Y012606D01*
X008205Y012803D02*
X009400Y012803D01*
X009635Y012571D01*
X008957Y013197D02*
X008205Y013197D01*
X008957Y013197D02*
X009135Y013375D01*
X007851Y012055D02*
X008073Y011833D01*
X008115Y011875D01*
X008385Y011875D01*
X008073Y011833D02*
X008073Y011500D01*
X007948Y011375D01*
X007573Y011375D01*
X007448Y011500D01*
X007448Y012046D01*
X007457Y012055D01*
X007260Y012055D02*
X007260Y011313D01*
X007010Y011125D02*
X007010Y011500D01*
X007064Y011572D01*
X007064Y012055D01*
X006867Y012055D02*
X006867Y011581D01*
X006510Y011250D01*
X006232Y010847D02*
X006232Y011853D01*
X006260Y011875D01*
X006440Y012055D01*
X006670Y012055D01*
X006315Y012606D02*
X006297Y012625D01*
X006010Y012625D01*
X005885Y012375D01*
X005885Y012125D01*
X005635Y012375D02*
X005635Y012625D01*
X005814Y012803D01*
X006315Y012803D01*
X006315Y013000D02*
X005504Y013000D01*
X005260Y012756D01*
X005260Y012244D02*
X005504Y012244D01*
X005635Y012375D01*
X005885Y011750D02*
X005885Y010750D01*
X005635Y011000D02*
X005635Y011500D01*
X006232Y010847D02*
X006323Y010750D01*
X006379Y010750D01*
X007754Y010750D02*
X007760Y010756D01*
X007760Y011125D01*
X007760Y011625D02*
X007654Y011731D01*
X007654Y012055D01*
X006315Y013394D02*
X004717Y013394D01*
X004635Y013313D01*
X004073Y013125D02*
X004073Y011688D01*
X004385Y011375D01*
X003885Y011375D02*
X004385Y010875D01*
X003885Y011375D02*
X003885Y012250D01*
X003260Y013000D01*
X004073Y013125D02*
X003260Y014000D01*
X003260Y015000D02*
X004260Y014000D01*
X004260Y012000D01*
X004385Y011875D01*
X003260Y010000D02*
X004573Y008688D01*
X004573Y008188D01*
X004323Y007938D02*
X003260Y009000D01*
X003260Y008000D02*
X003698Y008000D01*
X004010Y007688D01*
X004073Y007688D01*
X004135Y014688D02*
X004198Y014750D01*
X004198Y017000D01*
X005760Y019000D02*
X006010Y019250D01*
X006978Y019250D01*
X007668Y019250D02*
X008879Y019250D01*
X008942Y019313D01*
X010198Y018313D02*
X013760Y018313D01*
X009135Y016700D02*
X009135Y016100D01*
X019760Y016000D02*
X019760Y018063D01*
D29*
X005260Y009875D02*
X005260Y005500D01*
X004760Y005000D01*
X003260Y005000D01*
X003260Y006000D01*
D30*
X005260Y009875D03*
D31*
X004760Y010375D01*
X004760Y012500D01*
X004960Y013750D02*
X004610Y014100D01*
X004610Y016550D01*
X005010Y016950D01*
X005760Y017500D02*
X005760Y016125D01*
X006095Y015563D02*
X006095Y015165D01*
X006760Y014500D01*
X006385Y014125D02*
X005260Y014125D01*
X004960Y013750D02*
X005960Y013750D01*
X006385Y014125D02*
X005823Y014625D01*
X005579Y014625D01*
X007010Y015000D02*
X007010Y015750D01*
X007510Y016125D02*
X007510Y015000D01*
X007760Y014500D02*
X008426Y015165D01*
X008426Y015500D01*
X007960Y015750D02*
X007960Y017150D01*
X007760Y017500D01*
X006760Y017500D02*
X006760Y016450D01*
X008760Y016950D02*
X008760Y017500D01*
X010760Y017500D02*
X010760Y011000D01*
X012260Y011000D02*
X012260Y009250D01*
X012010Y009000D01*
X011910Y009430D02*
X011910Y015650D01*
X013760Y017500D01*
X013860Y016900D02*
X012260Y015300D01*
X012260Y014150D01*
X012660Y013800D01*
X013710Y013800D01*
X013885Y014125D02*
X013516Y014119D01*
X013147Y014125D01*
X013135Y014125D01*
X013516Y014119D02*
X013516Y014750D01*
X014010Y014750D02*
X014260Y014500D01*
X014010Y014750D02*
X014010Y015415D01*
X014610Y014700D02*
X014610Y016450D01*
X015010Y016125D02*
X015010Y015000D01*
X015260Y014500D02*
X015926Y015165D01*
X015926Y015500D01*
X016385Y015000D02*
X015823Y014438D01*
X016135Y014125D01*
X016010Y013750D02*
X017385Y013750D01*
X017760Y014500D02*
X017260Y015000D01*
X016510Y015000D01*
X016504Y014994D01*
X016504Y014500D01*
X016510Y015000D02*
X016385Y015000D01*
X015823Y014438D02*
X015510Y014125D01*
X017385Y015475D02*
X016760Y016100D01*
X016760Y017500D01*
X015760Y017500D02*
X015760Y016875D01*
X015010Y016125D01*
X012760Y017500D02*
X011560Y016300D01*
X011560Y009000D01*
X011160Y009400D02*
X010860Y009090D01*
X011010Y008750D02*
X011260Y008500D01*
X010885Y008250D02*
X011010Y008125D01*
X010885Y008250D02*
X010448Y008250D01*
X010198Y008500D01*
X009516Y008500D01*
X009516Y008744D01*
X009323Y008938D01*
X008385Y008938D01*
X008385Y009875D01*
X008385Y008938D02*
X008385Y008375D01*
X008198Y008188D01*
X008198Y007250D01*
X009810Y007700D02*
X010460Y007700D01*
X010510Y008750D02*
X011010Y008750D01*
X010510Y008750D02*
X009760Y009500D01*
X009595Y009500D01*
X011160Y009400D02*
X011160Y016800D01*
X011760Y017500D01*
X009004Y014500D02*
X008510Y014500D01*
X008198Y014188D01*
X008010Y014000D01*
X008410Y013800D02*
X008760Y014100D01*
X013260Y009500D02*
X012260Y008500D01*
X012510Y008125D02*
X012885Y008500D01*
X014004Y008500D01*
X014004Y008744D01*
X014260Y009000D01*
X014885Y009000D01*
X015135Y009250D01*
X015135Y009875D01*
X013426Y009500D02*
X013260Y009500D01*
X013010Y007750D02*
X013610Y007750D01*
X017760Y009875D02*
X017760Y014500D01*
X017760Y016450D02*
X017760Y017500D01*
X018760Y017500D02*
X018760Y016900D01*
D32*
X015129Y018932D02*
X014760Y018625D01*
X009823Y018625D01*
X009823Y013313D01*
X009760Y013250D01*
X008823Y012375D02*
X008823Y011250D01*
X008698Y011063D01*
X008698Y010500D01*
X008510Y010313D01*
X007073Y010313D01*
X006823Y010063D01*
X006823Y004625D01*
X007573Y003875D01*
X012705Y006409D02*
X012891Y006223D01*
X012891Y006006D01*
X012885Y005750D01*
X012891Y004619D01*
X013016Y004500D01*
X013448Y004500D01*
X013016Y004500D02*
X013010Y004494D01*
X013010Y003875D01*
X016635Y006063D02*
X016635Y010313D01*
X017385Y011750D02*
X017010Y012125D01*
X016198Y012125D01*
X016010Y011938D01*
X015705Y012243D01*
X015705Y012409D01*
X019073Y006000D02*
X019760Y006000D01*
X019073Y006000D02*
X018635Y005563D01*
X018635Y003875D01*
X008823Y012375D02*
X008240Y012375D01*
X008205Y012409D01*
X009823Y018625D02*
X009454Y018994D01*
X009454Y019313D01*
X010254Y019313D01*
X015129Y019313D02*
X015129Y018932D01*
M02*
