G75*
%MOIN*%
%OFA0B0*%
%FSLAX24Y24*%
%IPPOS*%
%LPD*%
%AMOC8*
5,1,8,0,0,1.08239X$1,22.5*
%
%ADD10C,0.0030*%
%ADD11C,0.0160*%
%ADD12C,0.0050*%
%ADD13C,0.0080*%
%ADD14C,0.0040*%
D10*
X006593Y000424D02*
X006641Y000375D01*
X006593Y000424D02*
X006593Y000520D01*
X006641Y000569D01*
X006690Y000569D01*
X006738Y000520D01*
X006738Y000424D01*
X006786Y000375D01*
X006835Y000375D01*
X006883Y000424D01*
X006883Y000520D01*
X006835Y000569D01*
X006786Y000670D02*
X006883Y000767D01*
X006593Y000767D01*
X006593Y000863D02*
X006593Y000670D01*
X010925Y004901D02*
X010974Y004853D01*
X011070Y004853D01*
X011119Y004901D01*
X011220Y004901D02*
X011220Y004949D01*
X011268Y004998D01*
X011365Y004998D01*
X011414Y004949D01*
X011414Y004901D01*
X011365Y004853D01*
X011268Y004853D01*
X011220Y004901D01*
X011268Y004998D02*
X011220Y005046D01*
X011220Y005094D01*
X011268Y005143D01*
X011365Y005143D01*
X011414Y005094D01*
X011414Y005046D01*
X011365Y004998D01*
X011119Y005094D02*
X011070Y005143D01*
X010974Y005143D01*
X010925Y005094D01*
X010925Y004901D01*
X012436Y004929D02*
X012581Y004929D01*
X012630Y004978D01*
X012630Y005074D01*
X012581Y005123D01*
X012436Y005123D01*
X012436Y004833D01*
X012533Y004929D02*
X012630Y004833D01*
X012731Y004881D02*
X012779Y004833D01*
X012876Y004833D01*
X012924Y004881D01*
X012924Y004929D01*
X012876Y004978D01*
X012731Y004978D01*
X012731Y004881D01*
X012731Y004978D02*
X012827Y005074D01*
X012924Y005123D01*
X015049Y005784D02*
X015291Y005784D01*
X015339Y005833D01*
X015339Y005929D01*
X015291Y005978D01*
X015049Y005978D01*
X015097Y006079D02*
X015049Y006127D01*
X015049Y006224D01*
X015097Y006272D01*
X015146Y006272D01*
X015339Y006079D01*
X015339Y006272D01*
X013393Y008358D02*
X013393Y008406D01*
X013587Y008599D01*
X013587Y008648D01*
X013393Y008648D01*
X013292Y008599D02*
X013244Y008648D01*
X013147Y008648D01*
X013099Y008599D01*
X013099Y008406D01*
X013147Y008358D01*
X013244Y008358D01*
X013292Y008406D01*
X012783Y009428D02*
X012783Y009476D01*
X012976Y009669D01*
X012976Y009718D01*
X012783Y009718D01*
X012681Y009669D02*
X012681Y009573D01*
X012633Y009524D01*
X012488Y009524D01*
X012488Y009428D02*
X012488Y009718D01*
X012633Y009718D01*
X012681Y009669D01*
X012585Y009524D02*
X012681Y009428D01*
X012695Y010858D02*
X012695Y011148D01*
X012599Y011051D01*
X012497Y011099D02*
X012449Y011148D01*
X012352Y011148D01*
X012304Y011099D01*
X012304Y010906D01*
X012352Y010858D01*
X012449Y010858D01*
X012497Y010906D01*
X012599Y010858D02*
X012792Y010858D01*
X012893Y010906D02*
X012942Y010858D01*
X013038Y010858D01*
X013087Y010906D01*
X013087Y010954D01*
X013038Y011003D01*
X012990Y011003D01*
X013038Y011003D02*
X013087Y011051D01*
X013087Y011099D01*
X013038Y011148D01*
X012942Y011148D01*
X012893Y011099D01*
X011854Y012544D02*
X011903Y012592D01*
X011903Y012689D01*
X011854Y012737D01*
X011903Y012838D02*
X011903Y013032D01*
X011903Y012935D02*
X011613Y012935D01*
X011709Y012838D01*
X011661Y012737D02*
X011613Y012689D01*
X011613Y012592D01*
X011661Y012544D01*
X011854Y012544D01*
X011854Y013133D02*
X011903Y013181D01*
X011903Y013278D01*
X011854Y013326D01*
X011758Y013326D01*
X011709Y013278D01*
X011709Y013230D01*
X011758Y013133D01*
X011613Y013133D01*
X011613Y013326D01*
X011852Y014608D02*
X011949Y014608D01*
X011997Y014656D01*
X012099Y014608D02*
X012292Y014608D01*
X012195Y014608D02*
X012195Y014898D01*
X012099Y014801D01*
X011997Y014849D02*
X011949Y014898D01*
X011852Y014898D01*
X011804Y014849D01*
X011804Y014656D01*
X011852Y014608D01*
X012393Y014608D02*
X012587Y014608D01*
X012490Y014608D02*
X012490Y014898D01*
X012393Y014801D01*
X012792Y014069D02*
X012888Y014069D01*
X012840Y014069D02*
X012840Y013779D01*
X012792Y013779D02*
X012888Y013779D01*
X012988Y013827D02*
X013036Y013779D01*
X013133Y013779D01*
X013182Y013827D01*
X013283Y013827D02*
X013331Y013779D01*
X013428Y013779D01*
X013476Y013827D01*
X013476Y013876D01*
X013428Y013924D01*
X013379Y013924D01*
X013428Y013924D02*
X013476Y013972D01*
X013476Y014021D01*
X013428Y014069D01*
X013331Y014069D01*
X013283Y014021D01*
X013182Y014021D02*
X013133Y014069D01*
X013036Y014069D01*
X012988Y014021D01*
X012988Y013827D01*
X013293Y015415D02*
X013293Y015560D01*
X013341Y015608D01*
X013438Y015608D01*
X013486Y015560D01*
X013486Y015415D01*
X013486Y015512D02*
X013583Y015608D01*
X013583Y015710D02*
X013583Y015903D01*
X013583Y015806D02*
X013293Y015806D01*
X013389Y015710D01*
X013293Y015415D02*
X013583Y015415D01*
X013534Y016004D02*
X013583Y016053D01*
X013583Y016149D01*
X013534Y016198D01*
X013486Y016198D01*
X013438Y016149D01*
X013438Y016101D01*
X013438Y016149D02*
X013389Y016198D01*
X013341Y016198D01*
X013293Y016149D01*
X013293Y016053D01*
X013341Y016004D01*
X015304Y014662D02*
X015304Y014468D01*
X015352Y014420D01*
X015449Y014420D01*
X015497Y014468D01*
X015599Y014420D02*
X015792Y014420D01*
X015695Y014420D02*
X015695Y014710D01*
X015599Y014613D01*
X015497Y014662D02*
X015449Y014710D01*
X015352Y014710D01*
X015304Y014662D01*
X015893Y014662D02*
X015942Y014710D01*
X016038Y014710D01*
X016087Y014662D01*
X016087Y014613D01*
X015893Y014420D01*
X016087Y014420D01*
X016129Y015928D02*
X016129Y016218D01*
X016033Y016121D01*
X015931Y016169D02*
X015931Y016073D01*
X015883Y016024D01*
X015738Y016024D01*
X015738Y015928D02*
X015738Y016218D01*
X015883Y016218D01*
X015931Y016169D01*
X015835Y016024D02*
X015931Y015928D01*
X016033Y015928D02*
X016226Y015928D01*
X016327Y015928D02*
X016521Y016121D01*
X016521Y016169D01*
X016472Y016218D01*
X016376Y016218D01*
X016327Y016169D01*
X016327Y015928D02*
X016521Y015928D01*
X016775Y018565D02*
X016969Y018565D01*
X017070Y018565D02*
X017264Y018565D01*
X017365Y018565D02*
X017510Y018565D01*
X017558Y018613D01*
X017558Y018807D01*
X017510Y018855D01*
X017365Y018855D01*
X017365Y018565D01*
X017167Y018710D02*
X017070Y018710D01*
X017070Y018855D02*
X017070Y018565D01*
X017070Y018855D02*
X017264Y018855D01*
X017659Y018807D02*
X017708Y018855D01*
X017804Y018855D01*
X017853Y018807D01*
X017853Y018758D01*
X017804Y018710D01*
X017853Y018662D01*
X017853Y018613D01*
X017804Y018565D01*
X017708Y018565D01*
X017659Y018613D01*
X017756Y018710D02*
X017804Y018710D01*
X018150Y019410D02*
X018344Y019410D01*
X016775Y018855D02*
X016775Y018565D01*
X015808Y018738D02*
X015760Y018690D01*
X015663Y018690D01*
X015615Y018738D01*
X015615Y018787D01*
X015663Y018835D01*
X015760Y018835D01*
X015808Y018787D01*
X015808Y018738D01*
X015760Y018835D02*
X015808Y018883D01*
X015808Y018932D01*
X015760Y018980D01*
X015663Y018980D01*
X015615Y018932D01*
X015615Y018883D01*
X015663Y018835D01*
X015514Y018690D02*
X015320Y018690D01*
X015417Y018690D02*
X015417Y018980D01*
X015320Y018883D01*
X015219Y018835D02*
X015170Y018787D01*
X015025Y018787D01*
X015025Y018690D02*
X015025Y018980D01*
X015170Y018980D01*
X015219Y018932D01*
X015219Y018835D01*
X015122Y018787D02*
X015219Y018690D01*
X013219Y019410D02*
X013025Y019410D01*
X012754Y018855D02*
X012658Y018855D01*
X012609Y018807D01*
X012508Y018807D02*
X012508Y018613D01*
X012460Y018565D01*
X012315Y018565D01*
X012315Y018855D01*
X012460Y018855D01*
X012508Y018807D01*
X012754Y018855D02*
X012803Y018807D01*
X012803Y018758D01*
X012609Y018565D01*
X012803Y018565D01*
X012214Y018565D02*
X012020Y018565D01*
X012020Y018855D01*
X012214Y018855D01*
X012117Y018710D02*
X012020Y018710D01*
X011919Y018565D02*
X011725Y018565D01*
X011725Y018855D01*
X010933Y018932D02*
X010740Y018738D01*
X010740Y018690D01*
X010639Y018690D02*
X010445Y018690D01*
X010542Y018690D02*
X010542Y018980D01*
X010445Y018883D01*
X010344Y018835D02*
X010295Y018787D01*
X010150Y018787D01*
X010150Y018690D02*
X010150Y018980D01*
X010295Y018980D01*
X010344Y018932D01*
X010344Y018835D01*
X010247Y018787D02*
X010344Y018690D01*
X010740Y018980D02*
X010933Y018980D01*
X010933Y018932D01*
X009424Y018948D02*
X009327Y018899D01*
X009231Y018803D01*
X009376Y018803D01*
X009424Y018754D01*
X009424Y018706D01*
X009376Y018658D01*
X009279Y018658D01*
X009231Y018706D01*
X009231Y018803D01*
X009130Y018658D02*
X008936Y018658D01*
X009033Y018658D02*
X009033Y018948D01*
X008936Y018851D01*
X008835Y018899D02*
X008835Y018803D01*
X008787Y018754D01*
X008641Y018754D01*
X008641Y018658D02*
X008641Y018948D01*
X008787Y018948D01*
X008835Y018899D01*
X008738Y018754D02*
X008835Y018658D01*
X007903Y018565D02*
X007709Y018565D01*
X007806Y018565D02*
X007806Y018855D01*
X007709Y018758D01*
X007608Y018807D02*
X007560Y018855D01*
X007415Y018855D01*
X007415Y018565D01*
X007560Y018565D01*
X007608Y018613D01*
X007608Y018807D01*
X007314Y018855D02*
X007120Y018855D01*
X007120Y018565D01*
X007314Y018565D01*
X007217Y018710D02*
X007120Y018710D01*
X007019Y018565D02*
X006825Y018565D01*
X006825Y018855D01*
X006619Y019473D02*
X006425Y019473D01*
X006177Y016323D02*
X006177Y016033D01*
X006081Y016033D02*
X006274Y016033D01*
X006081Y016226D02*
X006177Y016323D01*
X005980Y016274D02*
X005980Y016178D01*
X005931Y016129D01*
X005786Y016129D01*
X005786Y016033D02*
X005786Y016323D01*
X005931Y016323D01*
X005980Y016274D01*
X005883Y016129D02*
X005980Y016033D01*
X005959Y015085D02*
X005911Y015037D01*
X005911Y014843D01*
X005959Y014795D01*
X006056Y014795D01*
X006105Y014843D01*
X006206Y014795D02*
X006399Y014795D01*
X006302Y014795D02*
X006302Y015085D01*
X006206Y014988D01*
X006105Y015037D02*
X006056Y015085D01*
X005959Y015085D01*
X008417Y014132D02*
X008513Y014132D01*
X008465Y014132D02*
X008465Y013841D01*
X008417Y013841D02*
X008513Y013841D01*
X008613Y013890D02*
X008613Y014083D01*
X008661Y014132D01*
X008758Y014132D01*
X008807Y014083D01*
X008908Y014035D02*
X009004Y014132D01*
X009004Y013841D01*
X008908Y013841D02*
X009101Y013841D01*
X008807Y013890D02*
X008758Y013841D01*
X008661Y013841D01*
X008613Y013890D01*
X009022Y014795D02*
X009119Y014795D01*
X009167Y014843D01*
X009268Y014795D02*
X009462Y014988D01*
X009462Y015037D01*
X009413Y015085D01*
X009317Y015085D01*
X009268Y015037D01*
X009167Y015037D02*
X009119Y015085D01*
X009022Y015085D01*
X008974Y015037D01*
X008974Y014843D01*
X009022Y014795D01*
X009268Y014795D02*
X009462Y014795D01*
X009101Y015928D02*
X008908Y015928D01*
X009101Y016121D01*
X009101Y016169D01*
X009053Y016218D01*
X008956Y016218D01*
X008908Y016169D01*
X008806Y016169D02*
X008806Y016073D01*
X008758Y016024D01*
X008613Y016024D01*
X008613Y015928D02*
X008613Y016218D01*
X008758Y016218D01*
X008806Y016169D01*
X008710Y016024D02*
X008806Y015928D01*
X010652Y012272D02*
X010652Y012079D01*
X010652Y012176D02*
X010362Y012176D01*
X010458Y012079D01*
X010362Y011978D02*
X010603Y011978D01*
X010652Y011929D01*
X010652Y011833D01*
X010603Y011784D01*
X010362Y011784D01*
X008264Y011418D02*
X008070Y011418D01*
X008070Y011273D01*
X008167Y011321D01*
X008215Y011321D01*
X008264Y011273D01*
X008264Y011176D01*
X008215Y011128D01*
X008118Y011128D01*
X008070Y011176D01*
X007969Y011128D02*
X007872Y011224D01*
X007920Y011224D02*
X007775Y011224D01*
X007775Y011128D02*
X007775Y011418D01*
X007920Y011418D01*
X007969Y011369D01*
X007969Y011273D01*
X007920Y011224D01*
X006789Y011248D02*
X006789Y011151D01*
X006740Y011103D01*
X006643Y011103D01*
X006595Y011151D01*
X006595Y011248D02*
X006692Y011296D01*
X006740Y011296D01*
X006789Y011248D01*
X006789Y011393D02*
X006595Y011393D01*
X006595Y011248D01*
X006494Y011344D02*
X006445Y011393D01*
X006349Y011393D01*
X006300Y011344D01*
X006300Y011151D01*
X006349Y011103D01*
X006445Y011103D01*
X006494Y011151D01*
X004840Y012262D02*
X004792Y012213D01*
X004598Y012213D01*
X004550Y012262D01*
X004550Y012358D01*
X004598Y012407D01*
X004598Y012508D02*
X004550Y012556D01*
X004550Y012653D01*
X004598Y012701D01*
X004647Y012701D01*
X004695Y012653D01*
X004744Y012701D01*
X004792Y012701D01*
X004840Y012653D01*
X004840Y012556D01*
X004792Y012508D01*
X004792Y012407D02*
X004840Y012358D01*
X004840Y012262D01*
X004695Y012605D02*
X004695Y012653D01*
X007974Y009573D02*
X007974Y009283D01*
X007974Y009379D02*
X008119Y009379D01*
X008167Y009428D01*
X008167Y009524D01*
X008119Y009573D01*
X007974Y009573D01*
X008070Y009379D02*
X008167Y009283D01*
X008268Y009331D02*
X008268Y009379D01*
X008317Y009428D01*
X008413Y009428D01*
X008462Y009379D01*
X008462Y009331D01*
X008413Y009283D01*
X008317Y009283D01*
X008268Y009331D01*
X008317Y009428D02*
X008268Y009476D01*
X008268Y009524D01*
X008317Y009573D01*
X008413Y009573D01*
X008462Y009524D01*
X008462Y009476D01*
X008413Y009428D01*
X008244Y008585D02*
X008147Y008585D01*
X008099Y008537D01*
X008099Y008343D01*
X008147Y008295D01*
X008244Y008295D01*
X008292Y008343D01*
X008393Y008343D02*
X008442Y008295D01*
X008538Y008295D01*
X008587Y008343D01*
X008587Y008392D01*
X008538Y008440D01*
X008393Y008440D01*
X008393Y008343D01*
X008393Y008440D02*
X008490Y008537D01*
X008587Y008585D01*
X008292Y008537D02*
X008244Y008585D01*
X009161Y007264D02*
X009354Y007070D01*
X009403Y007119D01*
X009403Y007215D01*
X009354Y007264D01*
X009161Y007264D01*
X009113Y007215D01*
X009113Y007119D01*
X009161Y007070D01*
X009354Y007070D01*
X009403Y006969D02*
X009403Y006776D01*
X009403Y006872D02*
X009113Y006872D01*
X009209Y006776D01*
X009161Y006675D02*
X009113Y006626D01*
X009113Y006529D01*
X009161Y006481D01*
X009354Y006481D01*
X009403Y006529D01*
X009403Y006626D01*
X009354Y006675D01*
X010604Y008341D02*
X010701Y008341D01*
X010652Y008341D02*
X010652Y008632D01*
X010604Y008632D02*
X010701Y008632D01*
X010801Y008583D02*
X010801Y008390D01*
X010849Y008341D01*
X010946Y008341D01*
X010994Y008390D01*
X011095Y008341D02*
X011289Y008535D01*
X011289Y008583D01*
X011240Y008632D01*
X011144Y008632D01*
X011095Y008583D01*
X010994Y008583D02*
X010946Y008632D01*
X010849Y008632D01*
X010801Y008583D01*
X011095Y008341D02*
X011289Y008341D01*
X015025Y011378D02*
X015025Y011668D01*
X015170Y011668D01*
X015219Y011619D01*
X015219Y011523D01*
X015170Y011474D01*
X015025Y011474D01*
X015122Y011474D02*
X015219Y011378D01*
X015320Y011378D02*
X015514Y011378D01*
X015417Y011378D02*
X015417Y011668D01*
X015320Y011571D01*
X015615Y011523D02*
X015808Y011523D01*
X015760Y011378D02*
X015760Y011668D01*
X015615Y011523D01*
X017596Y012097D02*
X017838Y012097D01*
X017886Y012145D01*
X017886Y012242D01*
X017838Y012290D01*
X017596Y012290D01*
X017596Y012391D02*
X017741Y012391D01*
X017693Y012488D01*
X017693Y012536D01*
X017741Y012585D01*
X017838Y012585D01*
X017886Y012536D01*
X017886Y012440D01*
X017838Y012391D01*
X017596Y012391D02*
X017596Y012585D01*
D11*
X017748Y011250D02*
X017772Y011250D01*
X012397Y013000D02*
X012373Y013000D01*
X009260Y011762D02*
X009260Y011738D01*
X005272Y012500D02*
X005248Y012500D01*
X008748Y007000D02*
X008772Y007000D01*
X013311Y006000D02*
X013335Y006000D01*
D12*
X004790Y002250D02*
X000125Y002250D01*
X003763Y000360D02*
X003763Y004140D01*
X006369Y004140D01*
X006369Y000360D01*
X003763Y000360D01*
X017360Y005650D02*
X018160Y005650D01*
X019260Y018700D02*
X015260Y018700D01*
X015260Y019950D01*
X019260Y019950D01*
X019260Y018700D01*
X018760Y020000D02*
X018760Y021720D01*
X015760Y021720D01*
X015760Y020000D01*
X014260Y019950D02*
X014260Y018700D01*
X010260Y018700D01*
X010260Y019950D01*
X014260Y019950D01*
X013760Y020000D02*
X013760Y021720D01*
X010760Y021720D01*
X010760Y020000D01*
X009260Y019950D02*
X009260Y018700D01*
X005260Y018700D01*
X005260Y019950D01*
X009260Y019950D01*
X008760Y020000D02*
X008760Y021720D01*
X005760Y021720D01*
X005760Y020000D01*
D13*
X005260Y017750D02*
X005260Y017250D01*
X009260Y017250D02*
X009260Y017750D01*
X010260Y017750D02*
X010260Y017250D01*
X014260Y017250D02*
X014260Y017750D01*
X015260Y017750D02*
X015260Y017250D01*
X019260Y017250D02*
X019260Y017750D01*
X018075Y006484D02*
X017445Y006484D01*
X017288Y006327D01*
X017288Y005894D01*
X017288Y005106D02*
X017288Y004516D01*
X018233Y004516D01*
X018233Y005106D01*
X018233Y005894D02*
X018233Y006327D01*
X018075Y006484D01*
D14*
X007165Y007280D02*
X007165Y005390D01*
X006496Y004720D01*
X006259Y004720D01*
X005511Y004720D02*
X005275Y004720D01*
X004606Y005390D01*
X004606Y007280D01*
X005511Y007280D01*
X006259Y007280D02*
X007165Y007280D01*
X005511Y007161D02*
X005447Y007139D01*
X005384Y007112D01*
X005322Y007082D01*
X005263Y007049D01*
X005205Y007013D01*
X005149Y006973D01*
X005096Y006930D01*
X005045Y006885D01*
X004997Y006837D01*
X004952Y006786D01*
X004909Y006732D01*
X004870Y006676D01*
X004833Y006619D01*
X004800Y006559D01*
X004771Y006497D01*
X004745Y006434D01*
X004722Y006370D01*
X004703Y006304D01*
X004688Y006237D01*
X004677Y006170D01*
X004669Y006102D01*
X004665Y006034D01*
X004665Y005966D01*
X004669Y005898D01*
X004677Y005830D01*
X004688Y005763D01*
X004703Y005696D01*
X004722Y005630D01*
X004745Y005566D01*
X004771Y005503D01*
X004800Y005441D01*
X004833Y005381D01*
X004870Y005324D01*
X004909Y005268D01*
X004952Y005214D01*
X004997Y005163D01*
X005045Y005115D01*
X005096Y005070D01*
X005149Y005027D01*
X005205Y004987D01*
X005263Y004951D01*
X005322Y004918D01*
X005384Y004888D01*
X005447Y004861D01*
X005511Y004839D01*
X006259Y004839D02*
X006323Y004861D01*
X006386Y004888D01*
X006448Y004918D01*
X006507Y004951D01*
X006565Y004987D01*
X006621Y005027D01*
X006674Y005070D01*
X006725Y005115D01*
X006773Y005163D01*
X006818Y005214D01*
X006861Y005268D01*
X006900Y005324D01*
X006937Y005381D01*
X006970Y005441D01*
X006999Y005503D01*
X007025Y005566D01*
X007048Y005630D01*
X007067Y005696D01*
X007082Y005763D01*
X007093Y005830D01*
X007101Y005898D01*
X007105Y005966D01*
X007105Y006034D01*
X007101Y006102D01*
X007093Y006170D01*
X007082Y006237D01*
X007067Y006304D01*
X007048Y006370D01*
X007025Y006434D01*
X006999Y006497D01*
X006970Y006559D01*
X006937Y006619D01*
X006900Y006676D01*
X006861Y006732D01*
X006818Y006786D01*
X006773Y006837D01*
X006725Y006885D01*
X006674Y006930D01*
X006621Y006973D01*
X006565Y007013D01*
X006507Y007049D01*
X006448Y007082D01*
X006386Y007112D01*
X006323Y007139D01*
X006259Y007161D01*
M02*
